<svg width="400" height="400" viewBox="0 0 400 400" fill="none" xmlns="http://www.w3.org/2000/svg">
<path d="M220.871 100C230.547 132.131 227.414 138.412 219.582 154.114" stroke="#EDB902" stroke-opacity="0.8" stroke-width="20" stroke-linecap="round" stroke-linejoin="round"/>
<path d="M229 200C211 234.906 211 244.933 211 270" stroke="#EDB902" stroke-opacity="0.8" stroke-width="20" stroke-linecap="round" stroke-linejoin="round"/>
<path d="M286.426 303C199.963 306.478 175.402 304.33 114 298.959" stroke="#EDB902" stroke-opacity="0.8" stroke-width="20" stroke-linecap="round" stroke-linejoin="round"/>
<path d="M226.443 277.84C226.608 277.193 226.663 276.514 226.773 275.851C228.489 265.453 229.872 255.007 230.869 244.5C231.716 235.56 232.691 226.646 234.3 217.804C236.425 206.122 238.256 194.373 240.043 182.624" stroke="black" stroke-opacity="0.9" stroke-width="12" stroke-linecap="round" stroke-linejoin="round"/>
<path d="M165.887 183.113C165.944 186.233 170.566 210.738 172.459 219.91C173.99 227.327 175.717 234.748 176.547 242.26C177.603 251.802 178.938 261.288 180.247 270.789" stroke="black" stroke-opacity="0.9" stroke-width="12" stroke-linecap="round" stroke-linejoin="round"/>
<path fill-rule="evenodd" clip-rule="evenodd" d="M200.792 311.241C202.297 310.836 203.483 310.744 204.978 311.168C213.233 313.514 221.291 316.472 229.493 318.986C238.511 321.751 247.598 322.794 256.817 322.228C265.81 321.677 274.768 320.346 283.695 319.042C289.737 318.16 314.711 312.264 314.711 295.287C314.711 278.311 292.557 278.576 290.278 278.876C285.042 279.566 279.828 279.504 274.567 279.205C268.281 278.846 261.932 278.639 255.785 280.378C247.719 282.659 238.737 285.038 230.769 287.627C228.96 288.216 227.437 288.365 226.063 287.295C223.262 285.116 213.589 282.304 204.623 282.304C195.656 282.304 184.755 284.747 182.602 286.461C178.675 289.585 174.977 289.114 171.476 285.696C168.673 282.96 165.392 281.288 161.675 280.351C158.423 279.531 155.141 278.825 151.874 278.055C137.414 274.642 95.547 274.642 97.5689 295.287C98.3183 302.939 102.975 309.493 105.789 311.314C109.577 313.765 139.981 318.877 151.108 318.796C171.476 321.03 193.299 313.256 200.792 311.241Z" stroke="black" stroke-opacity="0.9" stroke-width="12" stroke-linecap="round" stroke-linejoin="round"/>
<path d="M80.3007 279.838C83.177 280.433 86.0612 280.879 89.0419 280.78C91.8757 280.687 94.4573 280.107 96.6104 278.213C99.0541 276.062 110.276 274.425 115.074 272.937C119.887 271.445 128.876 266.284 132.992 263.242C134.599 262.054 135.696 260.729 136.536 259.008C145.393 240.87 146.487 238.549 151.541 219.102C152.381 215.872 162.325 181.886 165.909 182.806M241.84 180.446C244.397 180.327 247.309 219.765 261.504 256.589C264.069 263.242 297.701 273.325 305.73 275.096C310.237 276.089 316.82 277.526 320.029 274.275" stroke="black" stroke-opacity="0.9" stroke-width="12" stroke-linecap="round" stroke-linejoin="round"/>
<path d="M171.189 93.1887C205.192 46.449 267.208 121.707 223.629 152.512C189.766 176.452 150.009 139.138 165.908 106.671" stroke="black" stroke-opacity="0.9" stroke-width="12" stroke-linecap="round" stroke-linejoin="round"/>
</svg>
