<svg width="3865" height="3930" viewBox="0 0 3865 3930" fill="none" xmlns="http://www.w3.org/2000/svg">
<rect width="3865" height="3930" rx="96" fill="#FFFBF5"/>
<path d="M1932 2615C1572.71 2615 1282 2323.86 1282 1965C1282 1605.71 1573.14 1315 1932 1315C2291.29 1315 2582 1606.14 2582 1965C2582.43 2324.29 2291.29 2615 1932 2615Z" fill="#F7C0B5"/>
<mask id="mask0_22_481" style="mask-type:alpha" maskUnits="userSpaceOnUse" x="1282" y="1315" width="1301" height="1300">
<path d="M1932 2615C1572.71 2615 1282 2323.86 1282 1965C1282 1605.71 1573.14 1315 1932 1315C2291.29 1315 2582 1606.14 2582 1965C2582.43 2324.29 2291.29 2615 1932 2615Z" fill="#F7C0B5"/>
</mask>
<g mask="url(#mask0_22_481)">
<path d="M2296 2512.33C2292.97 2514.5 2289.5 2516.66 2286.47 2518.83C2283 2521 2279.97 2523.16 2276.5 2524.9C2273.47 2526.63 2270.87 2528.36 2267.83 2530.1C2267.4 2530.53 2266.97 2530.53 2266.53 2530.96C2256.57 2537.03 2246.17 2542.66 2235.77 2547.86C2232.73 2549.6 2229.27 2551.33 2226.23 2552.63C2226.23 2552.63 2225.8 2553.06 2225.37 2553.06C2221.9 2554.8 2218.43 2556.53 2214.97 2558.26C2208.03 2561.73 2200.67 2564.76 2193.73 2567.8C2190.27 2569.53 2186.37 2570.83 2182.9 2572.13C2179.43 2573.43 2175.53 2575.16 2172.07 2576.46C2168.6 2577.76 2164.7 2579.5 2161.23 2580.8C2161.23 2580.8 2161.23 2580.8 2160.8 2580.8C2157.33 2582.1 2153.43 2583.4 2149.97 2584.7C2142.17 2587.3 2133.93 2589.9 2126.13 2592.5C2123.53 2593.36 2120.5 2594.23 2117.9 2595.1C2109.67 2597.7 2101.43 2599.86 2093.2 2601.6C2090.17 2602.46 2087.13 2602.9 2083.67 2603.76C2075.87 2605.5 2067.63 2607.23 2059.83 2608.96C2058.1 2609.4 2056.8 2609.4 2055.07 2609.83C2052.47 2610.26 2049.43 2610.7 2046.83 2611.13C2042.93 2611.56 2039.47 2612.43 2035.57 2612.86C2033.83 2613.3 2032.1 2613.3 2030.37 2613.73C2028.2 2614.16 2025.6 2614.6 2023 2614.6C2016.07 2615.46 2008.7 2616.33 2001.77 2617.2C1999.6 2617.63 1997 2617.63 1994.83 2618.06H1994.4C1991.37 2618.5 1988.33 2618.5 1985.3 2618.93C1982.27 2619.36 1979.23 2619.36 1976.2 2619.36C1974.47 2619.36 1972.3 2619.8 1970.57 2619.8C1967.1 2619.8 1964.07 2620.23 1961.03 2620.23C1956.7 2620.23 1952.8 2620.66 1948.47 2620.66C1944.13 2620.66 1940.23 2620.66 1935.9 2620.66C1932.87 2620.66 1929.83 2620.66 1926.8 2620.66C1744.37 2618.06 1579.7 2540.5 1462.7 2417.43C1462.7 2417.43 1462.7 2417 1462.27 2417C1475.7 2390.56 1525.53 2342.9 1577.53 2303.46C1643.4 2253.63 1736.57 2222.87 1736.57 2222.87C1736.57 2222.87 1797.67 2212.9 2024.3 2260.13C2197.2 2296.53 2270.87 2444.3 2296 2512.33Z" fill="#F7D3B5"/>
<path d="M2072.4 2380.16C2063.3 2424.8 2004.37 2451.23 1905.13 2411.36C1783.37 2361.96 1736.57 2222.87 1736.57 2222.87C1730.07 2123.2 1714.9 2037.83 1714.9 2037.83C1855.73 2025.7 2022.13 2190.37 2022.13 2190.37L2041.2 2271.83C2042.93 2278.76 2046.4 2284.83 2051.6 2289.16C2060.7 2304.76 2078.47 2351.56 2072.4 2380.16Z" fill="#F7D3B5"/>
<path d="M2051.6 2289.6C1968.83 2285.27 1907.73 2273.13 1842.3 2155.7C1897.77 2204.67 1963.2 2223.3 2032.1 2231.97L2041.2 2271.83C2042.93 2279.2 2046.4 2285.27 2051.6 2289.6Z" fill="#EFBDA5"/>
<path d="M2222.77 1767.43C2230.57 1803.83 2234.47 1833.3 2213.23 1930.37C2192 2027.43 2232.73 2124.5 2130.47 2213.33C2061.57 2273.13 1941.1 2284.4 1844.9 2218.97C1812.4 2196.87 1782.5 2166.1 1758.23 2125.8C1739.17 2094.17 1717.07 2064.27 1692.37 2036.97C1658.13 1999.7 1616.97 1924.73 1637.33 1792.13C1670.27 1576.33 1883.9 1551.63 2010 1575.47C2136.1 1599.3 2201.53 1671.23 2222.77 1767.43Z" fill="#F7D3B5"/>
<path d="M1808.07 1936.87C1808.07 1936.87 1794.63 1871.87 1731.37 1879.67C1676.77 1886.6 1657.7 2017.47 1781.63 2053.87" fill="#F7D3B5"/>
<path d="M1777.73 1994.5C1777.73 1994.5 1762.13 1984.53 1763.87 1967.2C1766.47 1946.83 1763.87 1934.27 1754.33 1930.37C1730.5 1920.4 1725.73 1948.13 1726.6 1951.6" stroke="#423232" stroke-width="13" stroke-miterlimit="10" stroke-linecap="round" stroke-linejoin="round"/>
<g filter="url(#filter0_d_22_481)">
<path d="M2108.37 2036.53C2108.37 2036.53 2124.83 2037.4 2140.43 2018.77C2149.1 2008.37 2156.47 1995.37 2151.7 1991.47C2146.93 1987.13 2068.5 1999.27 2063.3 2009.67C2058.1 2020.07 2088.43 2036.53 2108.37 2036.53Z" fill="#EFBDA5"/>
<path d="M2108.39 2036.03L2108.39 2036.03L2108.38 2036.03H2108.37C2098.51 2036.03 2086.03 2031.95 2076.66 2026.56C2071.97 2023.87 2068.1 2020.88 2065.73 2017.94C2063.35 2014.98 2062.58 2012.22 2063.75 2009.89C2064.02 2009.33 2064.57 2008.73 2065.4 2008.1C2066.23 2007.46 2067.31 2006.82 2068.62 2006.17C2071.24 2004.87 2074.72 2003.56 2078.78 2002.3C2086.92 1999.78 2097.34 1997.43 2107.75 1995.53C2118.17 1993.64 2128.56 1992.21 2136.65 1991.52C2140.69 1991.17 2144.15 1991.01 2146.73 1991.08C2148.03 1991.11 2149.09 1991.19 2149.89 1991.33C2150.29 1991.4 2150.62 1991.49 2150.87 1991.58C2151.13 1991.67 2151.28 1991.76 2151.36 1991.83L2151.37 1991.84L2151.38 1991.85C2152.4 1992.68 2152.82 1994.03 2152.67 1995.87C2152.52 1997.72 2151.8 1999.97 2150.65 2002.47C2148.35 2007.45 2144.37 2013.26 2140.05 2018.44C2132.31 2027.69 2124.37 2032.08 2118.39 2034.16C2115.39 2035.21 2112.88 2035.67 2111.12 2035.88C2110.25 2035.98 2109.56 2036.02 2109.09 2036.03C2108.86 2036.04 2108.68 2036.04 2108.56 2036.04C2108.5 2036.04 2108.46 2036.03 2108.43 2036.03L2108.4 2036.03L2108.39 2036.03L2108.39 2036.03Z" stroke="black"/>
</g>
<path d="M2121.37 1890.93C2121.37 1890.93 2122.23 1932.1 2148.67 1978.03C2160.37 1998.4 2142.6 2031.77 2104.03 2037.4" stroke="#423232" stroke-width="13" stroke-miterlimit="10" stroke-linecap="round" stroke-linejoin="round"/>
<path opacity="0.42" d="M1886.5 2058.63C1911.15 2058.63 1931.13 2042.14 1931.13 2021.8C1931.13 2001.46 1911.15 1984.97 1886.5 1984.97C1861.85 1984.97 1841.87 2001.46 1841.87 2021.8C1841.87 2042.14 1861.85 2058.63 1886.5 2058.63Z" fill="#ED938A"/>
<path opacity="0.42" d="M2206.3 1985.83C2205 2010.1 2205.43 2033.93 2203.7 2057.76C2184.63 2053.43 2170.77 2039.13 2170.77 2022.23C2170.77 2004.03 2185.93 1989.3 2206.3 1985.83Z" fill="#ED938A"/>
<path d="M1543.73 2332.23C1543.73 2332.23 1559.77 2320.09 1589.67 2338.29C1645.57 2372.53 1716.63 2555.39 1564.1 2683.23C1564.1 2683.23 1536.8 2842.69 1564.1 2873.03C1564.1 2873.03 2063.3 2898.16 2278.67 2873.03C2278.67 2873.03 2282.13 2775.09 2268.27 2674.99C2250.93 2548.03 2228.83 2422.79 2146.93 2307.53C2135.23 2291.06 2113.57 2283.69 2100.13 2279.79L2041.2 2262.89C2041.2 2262.89 2093.2 2413.26 1948.9 2378.59C1860.5 2357.36 1787.27 2273.29 1726.6 2234.73C1712.3 2225.63 1692.8 2228.66 1680.23 2233.86C1651.63 2245.99 1545.9 2309.26 1543.73 2332.23Z" fill="#444444"/>
<mask id="mask1_22_481" style="mask-type:alpha" maskUnits="userSpaceOnUse" x="1543" y="2228" width="737" height="657">
<path d="M1543.73 2332.23C1543.73 2332.23 1559.77 2320.09 1589.67 2338.29C1645.57 2372.53 1716.63 2555.39 1564.1 2683.23C1564.1 2683.23 1536.8 2842.69 1564.1 2873.03C1564.1 2873.03 2063.3 2898.16 2278.67 2873.03C2278.67 2873.03 2282.13 2775.09 2268.27 2674.99C2250.93 2548.03 2228.83 2422.79 2146.93 2307.53C2135.23 2291.06 2113.57 2283.69 2100.13 2279.79L2041.2 2262.89C2041.2 2262.89 2093.2 2413.26 1948.9 2378.59C1860.5 2357.36 1787.27 2273.29 1726.6 2234.73C1712.3 2225.63 1692.8 2228.66 1680.23 2233.86C1651.63 2245.99 1545.9 2309.26 1543.73 2332.23Z" fill="#444444"/>
</mask>
<g mask="url(#mask1_22_481)">
<path d="M1552.4 2335.26C1601.8 2292.36 1603.1 2323.56 1681.1 2298.86C1715.77 2288.03 1753.9 2254.23 1804.6 2250.33C1843.6 2247.29 1886.5 2272.86 1934.6 2278.06C1974.47 2282.39 2021.7 2265.49 2067.63 2277.19C2106.63 2287.16 2140.43 2324.43 2184.63 2341.33" stroke="#6D5F5E" stroke-width="17.3333" stroke-miterlimit="10" stroke-linecap="round" stroke-linejoin="round"/>
<path d="M1553.7 2384.66C1609.6 2348.26 1606.57 2380.33 1687.17 2359.09C1723.13 2349.56 1763 2316.19 1814.13 2312.73C1854 2309.69 1898.2 2335.69 1946.73 2339.59C1987.47 2343.06 2035.13 2323.56 2081.93 2333.96C2122.67 2342.63 2158.2 2379.46 2203.27 2394.63" stroke="#6D5F5E" stroke-width="17.3333" stroke-miterlimit="10" stroke-linecap="round" stroke-linejoin="round"/>
<path d="M1554.57 2434.06C1615.67 2404.59 1609.17 2436.66 1692.37 2419.33C1729.63 2411.53 1771.23 2378.16 1822.8 2374.69C1863.97 2372.09 1909.03 2398.09 1958.43 2401.13C2000.47 2403.73 2048.57 2382.49 2096.23 2390.73C2138.27 2398.09 2176.4 2434.06 2222.33 2447.06" stroke="#6D5F5E" stroke-width="17.3333" stroke-miterlimit="10" stroke-linecap="round" stroke-linejoin="round"/>
<path d="M1555.87 2483.89C1620.87 2460.93 1611.77 2492.99 1697.13 2479.13C1735.7 2472.63 1779.03 2440.13 1831.47 2436.66C1873.93 2434.06 1920.3 2460.93 1970.13 2462.66C2013.47 2464.39 2062 2440.99 2110.1 2447.49C2153.87 2453.56 2194.17 2488.66 2240.97 2499.49" stroke="#6D5F5E" stroke-width="17.3333" stroke-miterlimit="10" stroke-linecap="round" stroke-linejoin="round"/>
<path d="M1557.17 2533.73C1625.63 2517.26 1614.37 2548.89 1701.47 2538.06C1741.33 2533.29 1786.83 2500.79 1839.7 2498.19C1883.03 2496.03 1931.13 2523.33 1981.4 2524.63C2026.47 2525.49 2075 2500.36 2123.97 2505.13C2169.47 2509.46 2212.37 2543.69 2260.03 2552.36" stroke="#6D5F5E" stroke-width="17.3333" stroke-miterlimit="10" stroke-linecap="round" stroke-linejoin="round"/>
<path d="M1558.47 2583.56C1629.97 2572.73 1616.53 2603.93 1705.37 2596.99C1746.53 2593.53 1793.77 2561.89 1847.93 2559.73C1892.57 2557.99 1941.53 2586.16 1992.67 2586.59C2039.03 2587.03 2088.43 2559.73 2138.27 2562.76C2185.5 2565.79 2231 2598.73 2279.53 2604.36" stroke="#6D5F5E" stroke-width="17.3333" stroke-miterlimit="10" stroke-linecap="round" stroke-linejoin="round"/>
<path d="M1559.33 2633.83C1633 2628.63 1617.83 2658.96 1708.83 2655.49C1751.3 2653.76 1800.7 2622.56 1855.73 2621.26C1902.1 2620.39 1951.93 2649.43 2003.93 2649.43C2051.6 2649.43 2101.87 2620.39 2152.13 2621.69C2201.1 2622.99 2249.2 2654.63 2298.6 2657.66" stroke="#6D5F5E" stroke-width="17.3333" stroke-miterlimit="10" stroke-linecap="round" stroke-linejoin="round"/>
</g>
<path d="M1965.94 1934.44C1955.54 1934.01 1947.74 1925.34 1948.61 1914.94L1949.04 1902.81C1949.48 1892.41 1958.14 1884.61 1968.54 1885.47C1978.94 1885.91 1986.74 1894.57 1985.88 1904.97L1985.44 1917.11C1985.01 1927.07 1976.34 1934.87 1965.94 1934.44Z" fill="#423232"/>
<path d="M2148.38 1940.94C2138.84 1940.51 2131.48 1932.27 2131.91 1922.74L2132.34 1911.47C2132.78 1901.94 2141.01 1894.57 2150.54 1895.01C2160.08 1895.44 2167.44 1903.67 2167.01 1913.21L2166.58 1924.47C2166.14 1934.01 2157.91 1941.37 2148.38 1940.94Z" fill="#423232"/>
<path d="M2007.98 1909.31C2007.98 1909.31 1996.71 1893.27 1977.21 1890.24C1961.18 1887.64 1943.41 1895.44 1940.81 1904.54" stroke="#423232" stroke-width="13" stroke-miterlimit="10" stroke-linecap="round" stroke-linejoin="round"/>
<path d="M2135.81 1913.21C2135.81 1913.21 2135.81 1899.34 2155.74 1899.34C2172.21 1899.34 2179.14 1914.51 2179.14 1914.51" stroke="#423232" stroke-width="13" stroke-miterlimit="10" stroke-linecap="round" stroke-linejoin="round"/>
<path d="M2025.74 1839.54C2034.84 1842.57 2043.94 1834.34 2042.21 1824.37C2041.34 1819.17 2039.18 1813.97 2034.84 1810.07C2021.84 1798.37 1968.11 1787.97 1935.61 1803.14C1907.01 1817.01 1984.14 1825.67 2025.74 1839.54Z" fill="#423232"/>
<path d="M2155.31 1846.47C2147.94 1849.07 2140.14 1841.27 2141.44 1832.17C2141.87 1827.41 2143.61 1822.64 2147.07 1819.17C2157.47 1808.77 2193.01 1800.54 2215.54 1816.57C2235.04 1830.01 2189.11 1833.91 2155.31 1846.47Z" fill="#423232"/>
<path d="M2091.3 2065.86C2091.3 2065.86 2102.56 2059.79 2108.63 2070.19C2114.7 2080.59 2099.96 2092.29 2099.96 2092.29C2099.96 2092.29 2116.43 2104.42 2105.16 2119.59C2096.06 2131.72 2082.2 2130.86 2082.2 2130.86" stroke="#423232" stroke-width="13" stroke-miterlimit="10" stroke-linecap="round" stroke-linejoin="round"/>
<path d="M2334.43 2250.09C2310.17 2196.36 2291.53 2203.72 2308.43 2155.19C2325.33 2107.09 2303.67 2072.86 2259.03 2027.36C2216.57 1984.02 2212.23 1936.79 2213.53 1929.86C2209.63 1948.06 2207.9 1966.69 2207.03 1984.89C2205.73 2009.16 2206.17 2032.99 2204.43 2056.82C2200.97 2110.12 2188.4 2162.56 2131.2 2211.96C2106.07 2233.62 2074 2249.22 2038.47 2256.59C2028.93 2285.62 2043.23 2306.42 2074.43 2309.89C2105.63 2313.36 2118.63 2360.16 2189.27 2382.26C2295 2416.49 2358.7 2303.82 2334.43 2250.09Z" fill="#423232"/>
<path d="M2136.83 1725.76C2145.93 1730.52 2153.73 1726.19 2158.5 1716.66C2208.77 1708.86 2220.47 1809.39 2222.2 1815.46C2223.93 1821.96 2224.8 1840.16 2221.33 1889.99C2219.17 1917.72 2380.37 1720.99 2233.03 1637.79C2243.87 1621.76 2236.07 1542.02 2145.5 1522.52C2113 1515.59 2070.53 1545.92 2017.23 1534.22C1808.8 1487.86 1592.57 1532.06 1609.47 1807.22C1613.37 1867.46 1617.27 1932.46 1515 1975.79C1396.27 2026.06 1402.33 2157.36 1485.97 2184.22C1520.63 2195.49 1406.23 2273.49 1472.97 2342.82C1507.63 2379.22 1569.6 2305.56 1632.43 2345.42C1727.33 2405.66 1774.57 2378.36 1793.2 2354.52C1831.33 2305.99 1784.1 2208.49 1784.1 2208.49C1784.1 2208.49 1802.73 2178.59 1808.8 2162.56C1838.27 2083.69 1768.07 2048.16 1768.07 2048.16C1659.73 2006.56 1679.23 1885.66 1732.1 1878.72C1787.57 1871.79 1804.9 1921.19 1807.93 1933.32C1807.93 1933.32 1856.9 2000.92 1951.37 1846.66C2044.97 1692.39 2096.1 1703.66 2136.83 1725.76Z" fill="#423232"/>
<path d="M2159.82 1973.31C2148.12 1959.01 2132.95 1949.05 2114.75 1948.61C2095.68 1948.18 2065.78 1952.51 2035.88 1976.35C1996.88 2007.55 1918.88 2002.78 1888.12 1999.75C1879.45 1998.88 1871.22 2003.21 1867.32 2011.01C1858.65 2028.35 1846.95 2064.31 1852.58 2122.38C1859.95 2201.68 1924.52 2273.61 2015.52 2267.55C2135.12 2260.18 2204.88 2163.98 2209.22 2035.28C2208.35 1999.75 2187.12 2007.11 2159.82 1973.31Z" fill="white"/>
<path d="M1999.92 1999.75C1999.92 1999.75 2182.35 2082.08 2197.95 2022.28" stroke="#EDF3F4" stroke-width="13" stroke-miterlimit="10" stroke-linecap="round" stroke-linejoin="round"/>
<path d="M1926.25 2058.68C1926.25 2058.68 2110.42 2163.98 2193.19 2106.78" stroke="#EDF3F4" stroke-width="13" stroke-miterlimit="10" stroke-linecap="round" stroke-linejoin="round"/>
<path d="M1919.75 2133.21C1919.75 2133.21 2014.65 2218.58 2151.15 2187.81" stroke="#EDF3F4" stroke-width="13" stroke-miterlimit="10" stroke-linecap="round" stroke-linejoin="round"/>
<path d="M1944.89 2007.11C1944.89 2007.11 1926.69 2032.25 1919.32 2098.55C1910.65 2178.28 1948.35 2244.58 1948.35 2244.58" stroke="#EDF3F4" stroke-width="13" stroke-miterlimit="10" stroke-linecap="round" stroke-linejoin="round"/>
<path d="M1884.65 2010.58C1884.65 2010.58 1834.82 1975.91 1799.72 1916.11" stroke="white" stroke-width="13" stroke-miterlimit="10" stroke-linecap="round" stroke-linejoin="round"/>
<path d="M1774.15 2050.88C1784.12 2083.38 1808.82 2136.25 1871.22 2183.91" stroke="white" stroke-width="13" stroke-miterlimit="10" stroke-linecap="round" stroke-linejoin="round"/>
</g>
<defs>
<filter id="filter0_d_22_481" x="2058.71" y="1990.56" width="98.49" height="53.975" filterUnits="userSpaceOnUse" color-interpolation-filters="sRGB">
<feFlood flood-opacity="0" result="BackgroundImageFix"/>
<feColorMatrix in="SourceAlpha" type="matrix" values="0 0 0 0 0 0 0 0 0 0 0 0 0 0 0 0 0 0 127 0" result="hardAlpha"/>
<feOffset dy="4"/>
<feGaussianBlur stdDeviation="2"/>
<feComposite in2="hardAlpha" operator="out"/>
<feColorMatrix type="matrix" values="0 0 0 0 0 0 0 0 0 0 0 0 0 0 0 0 0 0 0.25 0"/>
<feBlend mode="normal" in2="BackgroundImageFix" result="effect1_dropShadow_22_481"/>
<feBlend mode="normal" in="SourceGraphic" in2="effect1_dropShadow_22_481" result="shape"/>
</filter>
</defs>
</svg>
