<svg width="3865" height="3930" viewBox="0 0 3865 3930" fill="none" xmlns="http://www.w3.org/2000/svg">
<rect width="3865" height="3930" rx="96" fill="#FFFBF5"/>
<path d="M1932 2430C1572.71 2430 1282 2138.86 1282 1780C1282 1420.71 1573.14 1130 1932 1130C2291.29 1130 2582 1421.14 2582 1780C2582.43 2139.29 2291.29 2430 1932 2430Z" fill="#C9B5E2"/>
<mask id="mask0_426_4358" style="mask-type:alpha" maskUnits="userSpaceOnUse" x="1282" y="1130" width="1300" height="1300">
<path d="M1932 2430C1572.71 2430 1282 2138.86 1282 1780C1282 1420.71 1573.14 1130 1932 1130C2291.29 1130 2582 1421.14 2582 1780C2582.43 2139.29 2291.29 2430 1932 2430Z" fill="#F7C0B5"/>
</mask>
<g mask="url(#mask0_426_4358)">
<path d="M2295.99 2327.33C2292.96 2329.5 2289.49 2331.66 2286.46 2333.83C2282.99 2336 2279.96 2338.16 2276.49 2339.9C2273.46 2341.63 2270.86 2343.36 2267.83 2345.1C2267.39 2345.53 2266.96 2345.53 2266.53 2345.96C2256.56 2352.03 2246.16 2357.66 2235.76 2362.86C2232.73 2364.6 2229.26 2366.33 2226.23 2367.63C2226.23 2367.63 2225.79 2368.06 2225.36 2368.06C2221.89 2369.8 2218.43 2371.53 2214.96 2373.26C2208.03 2376.73 2200.66 2379.76 2193.73 2382.8C2190.26 2384.53 2186.36 2385.83 2182.89 2387.13C2179.43 2388.43 2175.53 2390.16 2172.06 2391.46C2168.59 2392.76 2164.69 2394.5 2161.23 2395.8C2161.23 2395.8 2161.23 2395.8 2160.79 2395.8C2157.33 2397.1 2153.43 2398.4 2149.96 2399.7C2142.16 2402.3 2133.93 2404.9 2126.13 2407.5C2123.53 2408.36 2120.49 2409.23 2117.89 2410.1C2109.66 2412.7 2101.43 2414.86 2093.19 2416.6C2090.16 2417.46 2087.13 2417.9 2083.66 2418.76C2075.86 2420.5 2067.63 2422.23 2059.83 2423.96C2058.09 2424.4 2056.79 2424.4 2055.06 2424.83C2052.46 2425.26 2049.43 2425.7 2046.83 2426.13C2042.93 2426.56 2039.46 2427.43 2035.56 2427.86C2033.83 2428.3 2032.09 2428.3 2030.36 2428.73C2028.19 2429.16 2025.59 2429.6 2022.99 2429.6C2016.06 2430.46 2008.69 2431.33 2001.76 2432.2C1999.59 2432.63 1996.99 2432.63 1994.83 2433.06H1994.39C1991.36 2433.5 1988.33 2433.5 1985.29 2433.93C1982.26 2434.36 1979.23 2434.36 1976.19 2434.36C1974.46 2434.36 1972.29 2434.8 1970.56 2434.8C1967.09 2434.8 1964.06 2435.23 1961.03 2435.23C1956.69 2435.23 1952.79 2435.66 1948.46 2435.66C1944.13 2435.66 1940.23 2435.66 1935.89 2435.66C1932.86 2435.66 1929.83 2435.66 1926.79 2435.66C1744.36 2433.06 1579.69 2355.5 1462.7 2232.43C1462.7 2232.43 1462.7 2232 1462.26 2232C1475.7 2205.56 1525.53 2157.9 1577.53 2118.46C1643.39 2068.63 1736.56 2037.86 1736.56 2037.86C1736.56 2037.86 1797.66 2027.9 2024.29 2075.13C2197.19 2111.53 2270.86 2259.3 2295.99 2327.33Z" fill="#F7D3B5"/>
<path d="M2072.4 2195.16C2063.3 2239.8 2004.36 2266.23 1905.13 2226.36C1783.37 2176.96 1736.57 2037.86 1736.57 2037.86C1730.07 1938.2 1714.9 1852.83 1714.9 1852.83C1855.73 1840.7 2022.13 2005.36 2022.13 2005.36L2041.2 2086.83C2042.93 2093.76 2046.4 2099.83 2051.6 2104.16C2060.7 2119.76 2078.46 2166.56 2072.4 2195.16Z" fill="#F7D3B5"/>
<path d="M2051.59 2104.6C1968.83 2100.26 1907.73 2088.13 1842.29 1970.7C1897.76 2019.66 1963.19 2038.3 2032.09 2046.96L2041.19 2086.83C2042.93 2094.2 2046.39 2100.26 2051.59 2104.6Z" fill="#EFBDA5"/>
<path d="M2222.75 1582.43C2230.55 1618.83 2234.45 1648.3 2213.22 1745.36C2191.99 1842.43 2232.72 1939.5 2130.45 2028.33C2061.55 2088.13 1941.09 2099.4 1844.89 2033.96C1812.39 2011.86 1782.49 1981.1 1758.22 1940.8C1739.15 1909.16 1717.05 1879.26 1692.35 1851.96C1658.12 1814.7 1616.95 1739.73 1637.32 1607.13C1670.25 1391.33 1883.89 1366.63 2009.99 1390.46C2136.09 1414.3 2201.52 1486.23 2222.75 1582.43Z" fill="#F7D3B5"/>
<path d="M1808.06 1751.86C1808.06 1751.86 1794.63 1686.86 1731.36 1694.66C1676.76 1701.6 1657.7 1832.46 1781.63 1868.86" fill="#F7D3B5"/>
<path d="M1777.73 1809.5C1777.73 1809.5 1762.13 1799.53 1763.86 1782.2C1766.46 1761.83 1763.86 1749.26 1754.33 1745.36C1730.49 1735.4 1725.73 1763.13 1726.59 1766.6" stroke="#423232" stroke-width="13.4786" stroke-miterlimit="10" stroke-linecap="round" stroke-linejoin="round"/>
<path d="M2108.36 1851.53C2108.36 1851.53 2124.83 1852.4 2140.43 1833.76C2149.1 1823.36 2156.46 1810.36 2151.7 1806.46C2146.93 1802.13 2068.5 1814.26 2063.3 1824.66C2058.1 1835.06 2088.43 1851.53 2108.36 1851.53Z" fill="#EFBDA5"/>
<path d="M2121.36 1705.93C2121.36 1705.93 2122.22 1747.1 2148.66 1793.03C2160.36 1813.4 2142.59 1846.76 2104.02 1852.4" stroke="#423232" stroke-width="13.4786" stroke-miterlimit="10" stroke-linecap="round" stroke-linejoin="round"/>
<path opacity="0.42" d="M1886.49 1873.63C1911.14 1873.63 1931.12 1857.14 1931.12 1836.8C1931.12 1816.46 1911.14 1799.96 1886.49 1799.96C1861.84 1799.96 1841.86 1816.46 1841.86 1836.8C1841.86 1857.14 1861.84 1873.63 1886.49 1873.63Z" fill="#ED938A"/>
<path opacity="0.42" d="M2206.3 1800.83C2205 1825.1 2205.43 1848.93 2203.7 1872.76C2184.63 1868.43 2170.77 1854.13 2170.77 1837.23C2170.77 1819.03 2185.93 1804.3 2206.3 1800.83Z" fill="#ED938A"/>
<path d="M2448.54 2597.78L1350.9 2573.51C1339.64 2297.05 1453.17 2151.01 1497.8 2122.41C1581.44 2068.25 1690.2 2052.21 1741.34 2047.45C1754.34 2079.51 1803.74 2184.81 1906.44 2226.41C2005.67 2266.71 2064.6 2239.85 2073.7 2195.21C2079.34 2166.61 2061.57 2119.81 2052.47 2104.65C2047.27 2100.31 2043.8 2093.81 2042.07 2087.31L2038.6 2073.01C2045.97 2071.28 2053.34 2069.55 2060.7 2066.95C2242.27 2087.31 2315.94 2136.71 2359.27 2221.21C2403.9 2308.31 2448.54 2597.78 2448.54 2597.78Z" fill="#474E51"/>
<path d="M1543.3 2596.05C1543.3 2596.05 1537.66 2455.65 1532.03 2429.65" stroke="#544D4D" stroke-width="13.4786" stroke-miterlimit="10" stroke-linecap="round" stroke-linejoin="round"/>
<path d="M2311.17 2596.05C2311.17 2596.05 2298.17 2508.95 2298.17 2493.78C2298.17 2479.05 2309.43 2430.51 2311.17 2388.05" stroke="#544D4D" stroke-width="13.4786" stroke-miterlimit="10" stroke-linecap="round" stroke-linejoin="round"/>
<path d="M1967.54 2319.15L1951.94 2642.41C1951.94 2642.41 2089.3 2736.01 2089.3 2733.41C2089.3 2730.81 2154.3 2617.28 2154.3 2617.28L2052.9 2306.15C2052.9 2306.15 2039.9 2319.58 1967.54 2319.15Z" fill="#D85656"/>
<path d="M1998.73 2215.15C1998.73 2215.15 1939.36 2271.05 1931.56 2285.78C1923.76 2300.51 1964.93 2323.91 1964.93 2323.91C1964.93 2323.91 2031.23 2337.78 2061.13 2310.91C2061.13 2310.91 2078.03 2292.28 2074.56 2274.51C2071.53 2257.18 1998.73 2215.15 1998.73 2215.15Z" fill="#EA6363"/>
<path d="M1728.77 1996.31L1734.4 1995.01C1750.44 2046.58 1852.27 2168.35 1998.74 2215.15L1907.74 2329.98C1901.67 2337.78 1890.84 2339.08 1883.04 2333.45C1845.77 2305.71 1746.1 2224.25 1705.37 2120.25C1696.7 2098.58 1694.97 2074.75 1699.3 2052.21L1704.94 2021.45C1707.1 2008.88 1716.64 1998.91 1728.77 1996.31Z" fill="white"/>
<path d="M2120.07 2290.55C2117.47 2304.85 2100.57 2310.48 2089.74 2300.51L1998.3 2215.15C1998.3 2215.15 2051.6 2164.45 2038.6 2072.58C2056.37 2068.68 2073.27 2063.05 2088.87 2055.68C2089.3 2056.55 2095.37 2068.25 2102.3 2087.75C2117.04 2128.05 2135.67 2202.15 2120.07 2290.55Z" fill="white"/>
<path d="M1965.94 1749.44C1955.54 1749.01 1947.74 1740.34 1948.6 1729.94L1949.04 1717.81C1949.47 1707.41 1958.14 1699.61 1968.54 1700.47C1978.94 1700.91 1986.74 1709.57 1985.87 1719.97L1985.44 1732.11C1985 1742.07 1976.34 1749.87 1965.94 1749.44Z" fill="#423232"/>
<path d="M2148.37 1755.94C2138.84 1755.51 2131.47 1747.27 2131.9 1737.74L2132.34 1726.47C2132.77 1716.94 2141 1709.57 2150.54 1710.01C2160.07 1710.44 2167.44 1718.67 2167 1728.21L2166.57 1739.47C2166.14 1749.01 2157.9 1756.37 2148.37 1755.94Z" fill="#423232"/>
<path d="M2007.98 1724.31C2007.98 1724.31 1996.72 1708.27 1977.22 1705.24C1961.18 1702.64 1943.42 1710.44 1940.82 1719.54" stroke="#423232" stroke-width="13.4786" stroke-miterlimit="10" stroke-linecap="round" stroke-linejoin="round"/>
<path d="M2135.82 1728.21C2135.82 1728.21 2135.82 1714.34 2155.75 1714.34C2172.22 1714.34 2179.15 1729.51 2179.15 1729.51" stroke="#423232" stroke-width="13.4786" stroke-miterlimit="10" stroke-linecap="round" stroke-linejoin="round"/>
<path d="M2025.73 1654.54C2034.83 1657.57 2043.93 1649.34 2042.2 1639.37C2041.33 1634.17 2039.17 1628.97 2034.83 1625.07C2021.83 1613.37 1968.1 1602.97 1935.6 1618.14C1907 1632.01 1984.13 1640.67 2025.73 1654.54Z" fill="#423232"/>
<path d="M2155.3 1661.47C2147.94 1664.07 2140.14 1656.27 2141.44 1647.17C2141.87 1642.41 2143.6 1637.64 2147.07 1634.17C2157.47 1623.77 2193 1615.54 2215.54 1631.57C2235.04 1645.01 2189.1 1648.91 2155.3 1661.47Z" fill="#423232"/>
<path d="M2098.93 1904.87C2087.69 1909.81 2082.3 1899.92 2064.78 1908.46C2052.2 1914.3 2045.46 1916.1 2030.18 1907.11C2020.3 1900.82 2008.17 1909.81 1996.49 1892.73" stroke="#423232" stroke-width="13.4786" stroke-miterlimit="10" stroke-linecap="round" stroke-linejoin="round"/>
<path d="M2253.54 1496.63C2222.77 1608 2134.81 1585.9 2049.87 1559.03C1750.44 1464.13 1802.01 1754.03 1798.11 1748.83C1788.57 1730.63 1768.21 1708.1 1729.64 1712.86C1679.37 1719.36 1659.01 1830.73 1753.04 1876.66C1750.87 1896.6 1736.57 1913.5 1720.11 1925.63C1675.91 1888.36 1607.44 1816.43 1581.87 1712.43C1572.34 1674.3 1576.24 1642.66 1580.14 1617.96C1592.71 1541.26 1640.37 1525.23 1640.37 1525.23C1642.11 1444.2 1726.61 1354.93 1868.74 1357.96C2011.31 1360.13 2284.31 1385.26 2253.54 1496.63Z" fill="#8B633E"/>
<path d="M2257.02 1630.53C2252.68 1658.7 2240.55 1680.37 2223.65 1696.4C2230.15 1649.17 2226.68 1626.63 2221.05 1600.2C2208.92 1546.03 2182.92 1499.23 2139.58 1464.57C2161.25 1462.83 2183.35 1467.6 2203.28 1480.17C2203.28 1480.17 2231.88 1500.1 2242.72 1564.23C2246.18 1582.87 2260.92 1602.8 2257.02 1630.53Z" fill="#8B633E"/>
<path d="M1903.41 1358.4C1903.41 1358.4 2068.08 1294.27 2126.14 1315.5C2174.24 1333.27 2156.91 1382.67 2156.91 1382.67C2156.91 1382.67 2239.24 1361.87 2283.88 1415.6C2328.51 1469.33 2276.94 1539.1 2247.48 1564.66C2247.48 1564.66 2293.84 1576.8 2289.08 1616.23C2283.44 1665.63 2223.21 1695.96 2223.21 1695.96C2223.21 1695.96 2244.01 1653.5 2240.98 1612.76C2237.94 1572.03 2242.71 1543 2212.81 1513.53C2182.91 1483.63 2111.84 1511.8 2035.14 1473.67C1958.88 1435.53 1903.41 1358.4 1903.41 1358.4Z" fill="#8B633E"/>
</g>
</svg>
