<svg width="3865" height="3930" viewBox="0 0 3865 3930" fill="none" xmlns="http://www.w3.org/2000/svg">
<rect width="3865" height="3930" rx="96" fill="#FFFBF5"/>
<path d="M1932 2615C1572.71 2615 1282 2323.86 1282 1965C1282 1605.71 1573.14 1315 1932 1315C2291.29 1315 2582 1606.14 2582 1965C2582.43 2324.29 2291.29 2615 1932 2615Z" fill="#FFA9A9"/>
<mask id="mask0_422_2619" style="mask-type:alpha" maskUnits="userSpaceOnUse" x="1282" y="1315" width="1301" height="1300">
<path d="M1932 2615C1572.71 2615 1282 2323.86 1282 1965C1282 1605.71 1573.14 1315 1932 1315C2291.29 1315 2582 1606.14 2582 1965C2582.43 2324.29 2291.29 2615 1932 2615Z" fill="#F7C0B5"/>
</mask>
<g mask="url(#mask0_422_2619)">
<path d="M2294.26 2512.33C2291.23 2514.5 2287.76 2516.66 2284.73 2518.83C2281.26 2521 2278.23 2523.16 2274.76 2524.9C2271.73 2526.63 2269.13 2528.36 2266.1 2530.1C2265.66 2530.53 2265.23 2530.53 2264.8 2530.96C2254.83 2537.03 2244.43 2542.66 2234.03 2547.86C2231 2549.6 2227.53 2551.33 2224.5 2552.63C2224.5 2552.63 2224.06 2553.06 2223.63 2553.06C2220.16 2554.8 2216.7 2556.53 2213.23 2558.26C2206.3 2561.73 2198.93 2564.76 2192 2567.8C2188.53 2569.53 2184.63 2570.83 2181.16 2572.13C2177.7 2573.43 2173.8 2575.16 2170.33 2576.46C2166.86 2577.76 2162.96 2579.5 2159.5 2580.8C2159.5 2580.8 2159.5 2580.8 2159.06 2580.8C2155.6 2582.1 2151.7 2583.4 2148.23 2584.7C2140.43 2587.3 2132.2 2589.9 2124.4 2592.5C2121.8 2593.36 2118.76 2594.23 2116.16 2595.1C2107.93 2597.7 2099.7 2599.86 2091.46 2601.6C2088.43 2602.46 2085.4 2602.9 2081.93 2603.76C2074.13 2605.5 2065.9 2607.23 2058.1 2608.96C2056.36 2609.4 2055.06 2609.4 2053.33 2609.83C2050.73 2610.26 2047.7 2610.7 2045.1 2611.13C2041.2 2611.56 2037.73 2612.43 2033.83 2612.86C2032.1 2613.3 2030.36 2613.3 2028.63 2613.73C2026.46 2614.16 2023.86 2614.6 2021.26 2614.6C2014.33 2615.46 2006.96 2616.33 2000.03 2617.2C1997.86 2617.63 1995.26 2617.63 1993.1 2618.06H1992.66C1989.63 2618.5 1986.6 2618.5 1983.56 2618.93C1980.53 2619.36 1977.5 2619.36 1974.46 2619.36C1972.73 2619.36 1970.56 2619.8 1968.83 2619.8C1965.36 2619.8 1962.33 2620.23 1959.3 2620.23C1954.96 2620.23 1951.06 2620.66 1946.73 2620.66C1942.4 2620.66 1938.5 2620.66 1934.16 2620.66C1931.13 2620.66 1928.1 2620.66 1925.06 2620.66C1742.63 2618.06 1577.96 2540.5 1460.96 2417.43C1460.96 2417.43 1460.96 2417 1460.53 2417C1473.96 2390.56 1523.8 2342.9 1575.8 2303.46C1641.66 2253.63 1734.83 2222.86 1734.83 2222.86C1734.83 2222.86 1795.93 2212.9 2022.56 2260.13C2195.46 2296.53 2269.13 2444.3 2294.26 2512.33Z" fill="#DA907F"/>
<path d="M2070.66 2380.16C2061.56 2424.8 2002.63 2451.23 1903.4 2411.36C1781.63 2361.96 1734.83 2222.86 1734.83 2222.86C1728.33 2123.2 1713.16 2037.83 1713.16 2037.83C1854 2025.7 2020.4 2190.36 2020.4 2190.36L2039.46 2271.83C2041.2 2278.76 2044.66 2284.83 2049.86 2289.16C2058.96 2304.76 2076.73 2351.56 2070.66 2380.16Z" fill="#DA907F"/>
<path d="M2049.87 2289.6C1967.1 2285.27 1906 2273.13 1840.57 2155.7C1896.03 2204.67 1961.47 2223.3 2030.37 2231.97L2039.47 2271.83C2041.2 2279.2 2044.67 2285.27 2049.87 2289.6Z" fill="#A56663"/>
<path d="M2221.03 1767.43C2228.83 1803.83 2232.73 1833.3 2211.5 1930.37C2190.26 2027.43 2231 2124.5 2128.73 2213.33C2059.83 2273.13 1939.36 2284.4 1843.16 2218.97C1810.66 2196.87 1780.76 2166.1 1756.5 2125.8C1737.43 2094.17 1715.33 2064.27 1690.63 2036.97C1656.4 1999.7 1615.23 1924.73 1635.6 1792.13C1668.53 1576.33 1882.16 1551.63 2008.26 1575.47C2134.36 1599.3 2199.8 1671.23 2221.03 1767.43Z" fill="#DA907F"/>
<path d="M1806.33 1936.87C1806.33 1936.87 1792.9 1871.87 1729.63 1879.67C1675.03 1886.6 1655.97 2017.47 1779.9 2053.87" fill="#DA907F"/>
<path d="M1776 1994.5C1776 1994.5 1760.4 1984.53 1762.13 1967.2C1764.73 1946.83 1762.13 1934.26 1752.6 1930.36C1728.77 1920.4 1724 1948.13 1724.87 1951.6" stroke="#665858" stroke-width="13" stroke-miterlimit="10" stroke-linecap="round" stroke-linejoin="round"/>
<g filter="url(#filter0_d_422_2619)">
<path d="M2106.63 2036.53C2106.63 2036.53 2123.1 2037.4 2138.7 2018.77C2147.36 2008.37 2154.73 1995.37 2149.96 1991.47C2145.2 1987.13 2066.76 1999.27 2061.56 2009.67C2056.36 2020.07 2086.7 2036.53 2106.63 2036.53Z" fill="#A56663"/>
<path d="M2106.66 2036.03L2106.66 2036.03L2106.64 2036.03H2106.63C2096.77 2036.03 2084.29 2031.95 2074.92 2026.56C2070.23 2023.87 2066.37 2020.88 2064 2017.94C2061.62 2014.98 2060.84 2012.22 2062.01 2009.89C2062.29 2009.33 2062.83 2008.73 2063.66 2008.1C2064.49 2007.46 2065.57 2006.82 2066.88 2006.17C2069.5 2004.87 2072.98 2003.56 2077.05 2002.3C2085.18 1999.78 2095.6 1997.43 2106.01 1995.53C2116.43 1993.64 2126.83 1992.21 2134.91 1991.52C2138.96 1991.17 2142.41 1991.01 2145 1991.08C2146.29 1991.11 2147.35 1991.19 2148.16 1991.33C2148.56 1991.4 2148.88 1991.49 2149.14 1991.58C2149.39 1991.67 2149.55 1991.76 2149.63 1991.83L2149.64 1991.84L2149.65 1991.85C2150.66 1992.68 2151.08 1994.03 2150.93 1995.87C2150.78 1997.72 2150.07 1999.97 2148.91 2002.47C2146.61 2007.45 2142.63 2013.26 2138.31 2018.44C2130.57 2027.69 2122.63 2032.08 2116.65 2034.16C2113.65 2035.21 2111.14 2035.67 2109.39 2035.88C2108.51 2035.98 2107.82 2036.02 2107.35 2036.03C2107.12 2036.04 2106.94 2036.04 2106.83 2036.04C2106.77 2036.04 2106.72 2036.03 2106.69 2036.03L2106.66 2036.03L2106.66 2036.03L2106.66 2036.03Z" stroke="black"/>
</g>
<path d="M2119.63 1890.93C2119.63 1890.93 2120.5 1932.1 2146.93 1978.03C2158.63 1998.4 2140.86 2031.77 2102.3 2037.4" stroke="#665858" stroke-width="7" stroke-miterlimit="10" stroke-linecap="round" stroke-linejoin="round"/>
<path d="M2454.93 2790.93L1345.94 2766.41C1334.56 2487.09 1449.27 2339.54 1494.36 2310.65C1578.86 2255.92 1688.75 2239.72 1740.42 2234.9C1753.55 2267.3 1803.46 2373.69 1907.22 2415.72C2007.48 2456.44 2067.03 2429.29 2076.22 2384.2C2081.91 2355.3 2063.96 2308.02 2054.77 2292.69C2049.51 2288.32 2046.01 2281.75 2044.26 2275.18L2040.76 2260.73C2048.2 2258.98 2055.64 2257.23 2063.09 2254.6C2246.53 2275.18 2320.96 2325.09 2364.74 2410.47C2409.84 2498.47 2454.93 2790.93 2454.93 2790.93Z" fill="#474E51"/>
<path d="M1540.34 2789.18C1540.34 2789.18 1534.64 2647.33 1528.95 2621.06" stroke="#544D4D" stroke-width="13.1345" stroke-miterlimit="10" stroke-linecap="round" stroke-linejoin="round"/>
<path d="M2316.14 2789.18C2316.14 2789.18 2303.01 2701.18 2303.01 2685.85C2303.01 2670.97 2314.39 2621.93 2316.14 2579.03" stroke="#544D4D" stroke-width="13.1345" stroke-miterlimit="10" stroke-linecap="round" stroke-linejoin="round"/>
<path d="M1968.96 2509.41L1953.2 2836.03C1953.2 2836.03 2091.99 2930.59 2091.99 2927.97C2091.99 2925.34 2157.66 2810.63 2157.66 2810.63L2055.21 2496.28C2055.21 2496.28 2042.07 2509.85 1968.96 2509.41Z" fill="#D85656"/>
<path d="M2000.48 2404.34C2000.48 2404.34 1940.5 2460.82 1932.62 2475.7C1924.74 2490.59 1966.33 2514.23 1966.33 2514.23C1966.33 2514.23 2033.32 2528.24 2063.53 2501.1C2063.53 2501.1 2080.6 2482.27 2077.1 2464.32C2074.04 2446.81 2000.48 2404.34 2000.48 2404.34Z" fill="#EA6363"/>
<path d="M1727.72 2183.24L1733.41 2181.93C1749.61 2234.03 1852.5 2357.05 2000.48 2404.34L1908.54 2520.36C1902.41 2528.24 1891.46 2529.55 1883.58 2523.86C1845.93 2495.84 1745.23 2413.53 1704.08 2308.46C1695.32 2286.57 1693.57 2262.49 1697.95 2239.72L1703.64 2208.63C1705.83 2195.94 1715.46 2185.87 1727.72 2183.24Z" fill="white"/>
<path d="M2123.07 2480.52C2120.44 2494.97 2103.37 2500.66 2092.42 2490.59L2000.04 2404.34C2000.04 2404.34 2053.9 2353.11 2040.76 2260.3C2058.71 2256.36 2075.79 2250.66 2091.55 2243.22C2091.99 2244.1 2098.11 2255.92 2105.12 2275.62C2120.01 2316.34 2138.83 2391.2 2123.07 2480.52Z" fill="white"/>
<path d="M2027.8 1841.55C2037.22 1842.85 2044.49 1832.88 2041.07 1823.35C2039.36 1818.15 2036.36 1813.38 2031.66 1810.35C2017.11 1801.25 1962.76 1800.38 1934.09 1821.18C1908.84 1840.25 1985.01 1835.48 2027.8 1841.55Z" fill="#332D2D"/>
<path d="M2146.33 1846.32C2138.63 1846.32 2133.93 1836.35 2137.78 1828.12C2139.92 1823.78 2142.91 1819.88 2147.19 1817.72C2160.46 1811.22 2195.97 1815.12 2211.81 1837.22C2225.93 1856.72 2181.85 1845.88 2146.33 1846.32Z" fill="#332D2D"/>
<path d="M2012.82 1896.15C1985.44 1882.28 1942.22 1892.68 1942.22 1892.68" stroke="#332D2D" stroke-width="13" stroke-miterlimit="10" stroke-linecap="round" stroke-linejoin="round"/>
<path d="M2181.85 1904.82C2181.85 1904.82 2170.73 1892.68 2129.65 1902.22" stroke="#332D2D" stroke-width="13" stroke-miterlimit="10" stroke-linecap="round" stroke-linejoin="round"/>
<path d="M2082.02 2086.85C2082.45 2093.78 2077.25 2105.91 2067.72 2114.58C2018.75 2084.68 1996.65 2100.28 1996.65 2100.28C1979.32 2073.85 1983.22 2037.88 2025.25 2065.18C2054.72 2083.81 2072.48 2086.85 2082.02 2086.85Z" fill="#332D2D"/>
<path d="M2067.72 2114.58C2057.32 2123.68 2041.72 2129.31 2020.48 2120.65C2010.52 2116.75 2002.72 2108.95 1996.65 2100.28C1996.65 2100.28 2018.75 2084.68 2067.72 2114.58Z" fill="#FE9DAB"/>
<path d="M1996.65 2100.28C1996.65 2100.28 2018.75 2084.68 2067.72 2114.58" stroke="#332D2D" stroke-width="13" stroke-miterlimit="10" stroke-linecap="round" stroke-linejoin="round"/>
<path d="M2224.16 1767.63C2222.86 1761.13 2221.12 1754.2 2218.96 1747.7C2216.79 1741.2 2211.59 1735.57 2204.66 1734.27C2182.12 1730.37 2160.46 1741.63 2129.26 1737.3C2030.02 1723.87 1963.72 1681.83 1870.56 1718.23C1774.36 1755.5 1828.96 1910.63 1808.59 1934.47C1805.12 1922.33 1788.22 1872.93 1732.76 1879.87C1680.32 1886.37 1660.39 2007.7 1768.72 2049.3C1767.86 2073.13 1724.96 2095.67 1690.29 2054.07C1655.62 2012.47 1586.29 1904.57 1633.09 1746.83C1679.89 1589.1 1891.79 1506.77 2088.96 1586.93C2122.76 1600.8 2144.42 1630.7 2172.59 1640.67C2230.22 1661.9 2230.66 1798.83 2224.16 1767.63Z" fill="#654119"/>
<path d="M1769.16 2049.73C1769.16 2049.73 1768.29 2085.27 1731.89 2151.13C1731.89 2151.13 1723.22 2114.73 1704.16 2081.37C1685.52 2048 1648.69 1978.23 1626.16 1908.47C1603.62 1838.7 1645.22 1925.37 1666.46 1954.4C1687.26 1983 1701.12 2054.07 1769.16 2049.73Z" fill="#654119"/>
<path d="M1708.05 2014.63C1708.05 2014.63 1695.92 2095.67 1773.49 2197.93C1851.05 2300.2 1855.39 2405.07 1826.79 2516C1826.79 2516 1781.72 2482.63 1645.22 2384.7C1508.72 2286.77 1475.79 2119.5 1655.19 1961.77C1655.62 1961.77 1706.32 1971.3 1708.05 2014.63Z" fill="#654119"/>
<path d="M2018.75 1664.93C2034.79 1674.9 2052.12 1681.4 2070.75 1682.7C2093.72 1684.43 2127.95 1700.03 2178.22 1745.53C2237.59 1799.27 2208.12 1447.83 1838.49 1531.03C1711.95 1559.2 1621.82 1671 1606.22 1796.23C1605.35 1804.9 1604.49 1813.57 1604.05 1822.23C1600.59 1937.5 1693.75 2038.03 1693.75 2038.03C1693.75 2038.03 1655.62 1877.7 1742.72 1811.4C1821.59 1751.17 1876.62 1680.53 1945.52 1680.53C1987.12 1680.1 2009.22 1659.3 2018.75 1664.93Z" fill="#654119"/>
<path d="M2030.89 1571.77C2030.89 1571.77 2162.19 1821.8 2227.19 1819.63C2292.19 1817.47 2359.79 1613.8 2221.99 1536.67C2125.79 1482.5 2030.89 1571.77 2030.89 1571.77Z" fill="#654119"/>
<path d="M2089.39 1642.4C2089.39 1642.4 2196.86 1757.23 2146.16 1790.17C2117.12 1808.8 2089.39 1752.47 2089.39 1752.47C2089.39 1752.47 2055.16 1808.37 2000.56 1780.2C1945.96 1752.47 1982.36 1672.3 1982.36 1672.3C1982.36 1672.3 2056.46 1597.77 2089.39 1642.4Z" fill="#654119"/>
<path d="M1993.19 1681.4C1993.19 1681.4 1973.69 1799.7 1881.82 1817.03C1789.95 1834.37 1779.12 1739.9 1779.12 1739.9C1779.12 1739.9 1915.19 1590.4 1993.19 1681.4Z" fill="#654119"/>
<path d="M1749.54 2020.47V2094.13" stroke="#FFDE55" stroke-width="13" stroke-miterlimit="10" stroke-linecap="round" stroke-linejoin="round"/>
<path d="M1808.04 2192.93C1796.34 2204.63 1780.31 2212 1762.11 2212C1727.01 2212 1697.98 2183.4 1697.98 2147.87C1697.98 2112.77 1726.58 2083.73 1762.11 2083.73C1779.88 2083.73 1796.34 2091.1 1808.04 2102.8C1800.24 2098.47 1791.58 2095.87 1782.04 2095.87C1753.44 2095.87 1730.04 2119.27 1730.04 2147.87C1730.04 2176.47 1753.44 2199.87 1782.04 2199.87C1791.58 2200.3 1800.24 2197.7 1808.04 2192.93Z" fill="#FFDE55"/>
<path d="M1749.54 2173.87C1763.66 2173.87 1775.11 2162.42 1775.11 2148.3C1775.11 2134.18 1763.66 2122.73 1749.54 2122.73C1735.42 2122.73 1723.98 2134.18 1723.98 2148.3C1723.98 2162.42 1735.42 2173.87 1749.54 2173.87Z" fill="#FF6B57"/>
<path d="M2243.98 2103.67C2236.18 2099.33 2227.51 2096.73 2217.98 2096.73C2211.05 2096.73 2204.98 2098.03 2198.91 2100.63C2199.78 2095.43 2201.08 2090.23 2201.51 2085.03C2218.41 2085.47 2233.15 2092.4 2243.98 2103.67Z" fill="#FFDE55"/>
<path d="M2244.41 2192.93C2232.71 2204.63 2216.68 2212 2198.48 2212C2180.28 2212 2163.38 2204.2 2151.68 2191.63C2158.61 2183.83 2164.68 2176.03 2170.31 2168.23C2178.11 2186.87 2196.74 2199.43 2217.98 2199.43C2227.51 2200.3 2236.61 2197.7 2244.41 2192.93Z" fill="#FFDE55"/>
<path d="M2211.48 2148.3C2211.48 2162.6 2200.21 2173.87 2185.91 2173.87C2180.28 2173.87 2175.08 2172.13 2170.75 2168.67C2180.71 2153.93 2188.08 2138.77 2192.85 2124.03C2203.25 2126.63 2211.48 2136.6 2211.48 2148.3Z" fill="#FF6B57"/>
<path d="M1538.21 2336.59V2340.01" stroke="#8B52A0" stroke-width="10" stroke-linecap="round"/>
<path d="M1541.63 2333.18C1541.63 2335 1541.63 2340.47 1541.63 2338.64C1541.63 2336.14 1541.63 2333.63 1541.63 2331.13" stroke="#8B52A0" stroke-width="10" stroke-linecap="round"/>
<path d="M1534.11 2343.43C1524.15 2343.43 1517.14 2351.23 1509.36 2356.41C1508.45 2357.02 1503.89 2359.31 1507.23 2359.15C1511.47 2358.95 1519.1 2357.96 1522.5 2354.74C1524.88 2352.48 1527.33 2350.75 1530.17 2349.73C1531.59 2349.22 1534.11 2348.9 1534.8 2347.53" stroke="#8B52A0" stroke-width="10" stroke-linecap="round"/>
<path d="M1499.94 2369.4H1503.36" stroke="#8B52A0" stroke-width="10" stroke-linecap="round"/>
<path d="M1512.24 2363.25C1510.8 2363.25 1507.21 2362.62 1506.06 2363.59C1504.01 2365.29 1502.22 2367.59 1499.94 2369.06C1495.17 2372.13 1492.25 2377.2 1486.96 2378.97" stroke="#8B52A0" stroke-width="10" stroke-linecap="round"/>
</g>
<defs>
<filter id="filter0_d_422_2619" x="2056.97" y="1990.56" width="98.4902" height="53.975" filterUnits="userSpaceOnUse" color-interpolation-filters="sRGB">
<feFlood flood-opacity="0" result="BackgroundImageFix"/>
<feColorMatrix in="SourceAlpha" type="matrix" values="0 0 0 0 0 0 0 0 0 0 0 0 0 0 0 0 0 0 127 0" result="hardAlpha"/>
<feOffset dy="4"/>
<feGaussianBlur stdDeviation="2"/>
<feComposite in2="hardAlpha" operator="out"/>
<feColorMatrix type="matrix" values="0 0 0 0 0 0 0 0 0 0 0 0 0 0 0 0 0 0 0.25 0"/>
<feBlend mode="normal" in2="BackgroundImageFix" result="effect1_dropShadow_422_2619"/>
<feBlend mode="normal" in="SourceGraphic" in2="effect1_dropShadow_422_2619" result="shape"/>
</filter>
</defs>
</svg>
