<svg width="3865" height="3930" viewBox="0 0 3865 3930" fill="none" xmlns="http://www.w3.org/2000/svg">
<rect width="3865" height="3930" rx="96" fill="#FFFBF5"/>
<path d="M1933 2615C1573.71 2615 1283 2323.86 1283 1965C1283 1605.71 1574.14 1315 1933 1315C2292.29 1315 2583 1606.14 2583 1965C2583.43 2324.29 2292.29 2615 1933 2615Z" fill="#F4DA92"/>
<mask id="mask0_426_5214" style="mask-type:alpha" maskUnits="userSpaceOnUse" x="1283" y="1315" width="1300" height="1300">
<path d="M1933 2615C1573.71 2615 1283 2323.86 1283 1965C1283 1605.71 1574.14 1315 1933 1315C2292.29 1315 2583 1606.14 2583 1965C2583.43 2324.29 2292.29 2615 1933 2615Z" fill="#F7C0B5"/>
</mask>
<g mask="url(#mask0_426_5214)">
<path d="M2296.99 2512.33C2293.96 2514.5 2290.49 2516.67 2287.46 2518.83C2283.99 2521 2280.96 2523.17 2277.49 2524.9C2274.46 2526.63 2271.86 2528.37 2268.83 2530.1C2268.39 2530.53 2267.96 2530.53 2267.53 2530.97C2257.56 2537.03 2247.16 2542.67 2236.76 2547.87C2233.73 2549.6 2230.26 2551.33 2227.23 2552.63C2227.23 2552.63 2226.79 2553.07 2226.36 2553.07C2222.89 2554.8 2219.43 2556.53 2215.96 2558.27C2209.03 2561.73 2201.66 2564.77 2194.73 2567.8C2191.26 2569.53 2187.36 2570.83 2183.89 2572.13C2180.43 2573.43 2176.53 2575.17 2173.06 2576.47C2169.59 2577.77 2165.69 2579.5 2162.23 2580.8C2162.23 2580.8 2162.23 2580.8 2161.79 2580.8C2158.33 2582.1 2154.43 2583.4 2150.96 2584.7C2143.16 2587.3 2134.93 2589.9 2127.13 2592.5C2124.53 2593.37 2121.49 2594.23 2118.89 2595.1C2110.66 2597.7 2102.43 2599.87 2094.19 2601.6C2091.16 2602.47 2088.13 2602.9 2084.66 2603.77C2076.86 2605.5 2068.63 2607.23 2060.83 2608.97C2059.09 2609.4 2057.79 2609.4 2056.06 2609.83C2053.46 2610.27 2050.43 2610.7 2047.83 2611.13C2043.93 2611.57 2040.46 2612.43 2036.56 2612.87C2034.83 2613.3 2033.09 2613.3 2031.36 2613.73C2029.19 2614.17 2026.59 2614.6 2023.99 2614.6C2017.06 2615.47 2009.69 2616.33 2002.76 2617.2C2000.59 2617.63 1997.99 2617.63 1995.83 2618.07H1995.39C1992.36 2618.5 1989.33 2618.5 1986.29 2618.93C1983.26 2619.37 1980.23 2619.37 1977.19 2619.37C1975.46 2619.37 1973.29 2619.8 1971.56 2619.8C1968.09 2619.8 1965.06 2620.23 1962.03 2620.23C1957.69 2620.23 1953.79 2620.67 1949.46 2620.67C1945.13 2620.67 1941.23 2620.67 1936.89 2620.67C1933.86 2620.67 1930.83 2620.67 1927.79 2620.67C1745.36 2618.07 1580.69 2540.5 1463.7 2417.43C1463.7 2417.43 1463.7 2417 1463.26 2417C1476.7 2390.57 1526.53 2342.9 1578.53 2303.47C1644.39 2253.63 1737.56 2222.87 1737.56 2222.87C1737.56 2222.87 1798.66 2212.9 2025.29 2260.13C2198.19 2296.53 2271.86 2444.3 2296.99 2512.33Z" fill="#F1B98B"/>
<path d="M2073.4 2380.16C2064.3 2424.8 2005.36 2451.23 1906.13 2411.36C1784.37 2361.96 1737.57 2222.86 1737.57 2222.86C1731.07 2123.2 1715.9 2037.83 1715.9 2037.83C1856.73 2025.7 2023.13 2190.36 2023.13 2190.36L2042.2 2271.83C2043.93 2278.76 2047.4 2284.83 2052.6 2289.16C2061.7 2304.76 2079.46 2351.56 2073.4 2380.16Z" fill="#F1B98B"/>
<path d="M2052.59 2289.6C1969.83 2285.27 1908.73 2273.13 1843.29 2155.7C1898.76 2204.67 1964.19 2223.3 2033.09 2231.97L2042.19 2271.83C2043.93 2279.2 2047.39 2285.27 2052.59 2289.6Z" fill="#EFBDA5"/>
<path d="M2223.75 1767.43C2231.55 1803.83 2235.45 1833.3 2214.22 1930.37C2192.99 2027.43 2233.72 2124.5 2131.45 2213.33C2062.55 2273.13 1942.09 2284.4 1845.89 2218.97C1813.39 2196.87 1783.49 2166.1 1759.22 2125.8C1740.15 2094.17 1718.05 2064.27 1693.35 2036.97C1659.12 1999.7 1617.95 1924.73 1638.32 1792.13C1671.25 1576.33 1884.89 1551.63 2010.99 1575.47C2137.09 1599.3 2202.52 1671.23 2223.75 1767.43Z" fill="#F1B98B"/>
<path d="M1809.06 1936.87C1809.06 1936.87 1795.63 1871.87 1732.36 1879.67C1677.76 1886.6 1658.7 2017.47 1782.63 2053.87" fill="#F1B98B"/>
<path d="M1778.73 1994.5C1778.73 1994.5 1763.13 1984.53 1764.86 1967.2C1767.46 1946.83 1764.86 1934.27 1755.33 1930.37C1731.49 1920.4 1726.73 1948.13 1727.59 1951.6" stroke="#423232" stroke-width="13.4786" stroke-miterlimit="10" stroke-linecap="round" stroke-linejoin="round"/>
<path d="M2109.36 2036.53C2109.36 2036.53 2125.83 2037.4 2141.43 2018.77C2150.1 2008.37 2157.46 1995.37 2152.7 1991.47C2147.93 1987.13 2069.5 1999.27 2064.3 2009.67C2059.1 2020.07 2089.43 2036.53 2109.36 2036.53Z" fill="#EFBDA5"/>
<path d="M2122.36 1890.93C2122.36 1890.93 2123.22 1932.1 2149.66 1978.03C2161.36 1998.4 2143.59 2031.77 2105.02 2037.4" stroke="#423232" stroke-width="13.4786" stroke-miterlimit="10" stroke-linecap="round" stroke-linejoin="round"/>
<path opacity="0.42" d="M1887.49 2058.63C1912.14 2058.63 1932.12 2042.14 1932.12 2021.8C1932.12 2001.46 1912.14 1984.97 1887.49 1984.97C1862.84 1984.97 1842.86 2001.46 1842.86 2021.8C1842.86 2042.14 1862.84 2058.63 1887.49 2058.63Z" fill="#F5BEB8"/>
<path opacity="0.42" d="M2207.3 1985.83C2206 2010.1 2206.43 2033.93 2204.7 2057.77C2185.63 2053.43 2171.77 2039.13 2171.77 2022.23C2171.77 2004.03 2186.93 1989.3 2207.3 1985.83Z" fill="#F5BEB8"/>
<path d="M1544.73 2332.23C1544.73 2332.23 1560.77 2320.09 1590.67 2338.29C1646.57 2372.53 1717.63 2555.39 1565.1 2683.23C1565.1 2683.23 1537.8 2842.69 1565.1 2873.03C1565.1 2873.03 2064.3 2898.16 2279.67 2873.03C2279.67 2873.03 2283.13 2775.09 2269.27 2674.99C2251.93 2548.03 2229.83 2422.79 2147.93 2307.53C2136.23 2291.06 2114.57 2283.69 2101.13 2279.79L2042.2 2262.89C2042.2 2262.89 2094.2 2413.26 1949.9 2378.59C1861.5 2357.36 1788.27 2273.29 1727.6 2234.73C1713.3 2225.63 1693.8 2228.66 1681.23 2233.86C1652.63 2245.99 1546.9 2309.26 1544.73 2332.23Z" fill="#657256"/>
<mask id="mask1_426_5214" style="mask-type:alpha" maskUnits="userSpaceOnUse" x="1544" y="2228" width="737" height="657">
<path d="M1544.73 2332.23C1544.73 2332.23 1560.77 2320.09 1590.67 2338.29C1646.57 2372.53 1717.63 2555.39 1565.1 2683.23C1565.1 2683.23 1537.8 2842.69 1565.1 2873.03C1565.1 2873.03 2064.3 2898.16 2279.67 2873.03C2279.67 2873.03 2283.13 2775.09 2269.27 2674.99C2251.93 2548.03 2229.83 2422.79 2147.93 2307.53C2136.23 2291.06 2114.57 2283.69 2101.13 2279.79L2042.2 2262.89C2042.2 2262.89 2094.2 2413.26 1949.9 2378.59C1861.5 2357.36 1788.27 2273.29 1727.6 2234.73C1713.3 2225.63 1693.8 2228.66 1681.23 2233.86C1652.63 2245.99 1546.9 2309.26 1544.73 2332.23Z" fill="#444444"/>
</mask>
<g mask="url(#mask1_426_5214)">
<path d="M1553.41 2335.26C1602.81 2292.36 1604.11 2323.56 1682.11 2298.86C1716.77 2288.03 1754.91 2254.23 1805.61 2250.33C1844.61 2247.29 1887.51 2272.86 1935.61 2278.06C1975.47 2282.39 2022.71 2265.49 2068.64 2277.19C2107.64 2287.16 2141.44 2324.43 2185.64 2341.33" stroke="#CD625B" stroke-width="17.9715" stroke-miterlimit="10" stroke-linecap="round" stroke-linejoin="round"/>
<path d="M1554.7 2384.66C1610.6 2348.26 1607.57 2380.33 1688.17 2359.09C1724.14 2349.56 1764 2316.19 1815.14 2312.73C1855 2309.69 1899.2 2335.69 1947.74 2339.59C1988.47 2343.06 2036.14 2323.56 2082.94 2333.96C2123.67 2342.63 2159.2 2379.46 2204.27 2394.63" stroke="#CD625B" stroke-width="17.9715" stroke-miterlimit="10" stroke-linecap="round" stroke-linejoin="round"/>
<path d="M1555.56 2434.06C1616.66 2404.59 1610.16 2436.66 1693.36 2419.33C1730.63 2411.53 1772.23 2378.16 1823.8 2374.69C1864.96 2372.09 1910.03 2398.09 1959.43 2401.13C2001.46 2403.73 2049.56 2382.49 2097.23 2390.73C2139.26 2398.09 2177.4 2434.06 2223.33 2447.06" stroke="#CD625B" stroke-width="17.9715" stroke-miterlimit="10" stroke-linecap="round" stroke-linejoin="round"/>
<path d="M1556.88 2483.89C1621.88 2460.93 1612.78 2492.99 1698.15 2479.13C1736.71 2472.63 1780.05 2440.13 1832.48 2436.66C1874.95 2434.06 1921.31 2460.93 1971.15 2462.66C2014.48 2464.39 2063.01 2440.99 2111.11 2447.49C2154.88 2453.56 2195.18 2488.66 2241.98 2499.49" stroke="#CD625B" stroke-width="17.9715" stroke-miterlimit="10" stroke-linecap="round" stroke-linejoin="round"/>
<path d="M1558.18 2533.73C1626.65 2517.26 1615.38 2548.89 1702.48 2538.06C1742.35 2533.29 1787.85 2500.79 1840.71 2498.19C1884.05 2496.03 1932.15 2523.33 1982.41 2524.63C2027.48 2525.49 2076.01 2500.36 2124.98 2505.13C2170.48 2509.46 2213.38 2543.69 2261.05 2552.36" stroke="#CD625B" stroke-width="17.9715" stroke-miterlimit="10" stroke-linecap="round" stroke-linejoin="round"/>
<path d="M1559.48 2583.56C1630.98 2572.73 1617.54 2603.93 1706.38 2596.99C1747.54 2593.53 1794.78 2561.89 1848.94 2559.73C1893.58 2557.99 1942.54 2586.16 1993.68 2586.59C2040.04 2587.03 2089.44 2559.73 2139.28 2562.76C2186.51 2565.79 2232.01 2598.73 2280.54 2604.36" stroke="#CD625B" stroke-width="17.9715" stroke-miterlimit="10" stroke-linecap="round" stroke-linejoin="round"/>
<path d="M1560.34 2633.83C1634 2628.63 1618.84 2658.96 1709.84 2655.49C1752.3 2653.76 1801.7 2622.56 1856.74 2621.26C1903.1 2620.39 1952.94 2649.43 2004.94 2649.43C2052.6 2649.43 2102.87 2620.39 2153.14 2621.69C2202.1 2622.99 2250.2 2654.63 2299.6 2657.66" stroke="#CD625B" stroke-width="17.9715" stroke-miterlimit="10" stroke-linecap="round" stroke-linejoin="round"/>
</g>
<path d="M1982.71 1905.25C1982.71 1905.68 1982.71 1906.12 1982.71 1906.12L1982.28 1918.25C1981.84 1928.65 1973.18 1936.45 1962.78 1936.02C1952.38 1935.58 1944.58 1926.48 1945.44 1916.52L1945.88 1904.38C1945.88 1902.22 1946.74 1899.62 1947.61 1897.88L1982.28 1899.62C1982.28 1901.35 1982.71 1903.08 1982.71 1905.25Z" fill="#423232"/>
<path d="M2163.84 1914.78L2163.41 1926.05C2162.98 1935.58 2154.74 1942.95 2145.21 1942.52C2135.68 1942.08 2128.31 1933.85 2128.74 1924.32L2129.18 1913.05C2129.18 1910.88 2129.61 1908.72 2130.48 1906.98L2162.98 1908.28C2163.84 1910.45 2163.84 1912.62 2163.84 1914.78Z" fill="#423232"/>
<path d="M2026.05 1845.88C2035.58 1847.18 2042.95 1837.22 2039.48 1827.68C2037.75 1822.48 2034.72 1817.72 2029.95 1814.68C2015.22 1805.58 1960.18 1804.72 1931.15 1825.52C1905.58 1844.58 1982.72 1839.82 2026.05 1845.88Z" fill="#423232"/>
<path d="M2146.06 1850.65C2138.26 1850.65 2133.5 1840.68 2137.4 1832.45C2139.56 1828.12 2142.6 1824.22 2146.93 1822.05C2160.36 1815.55 2196.33 1819.45 2212.36 1841.55C2226.66 1861.05 2182.03 1850.22 2146.06 1850.65Z" fill="#423232"/>
<path d="M2010.87 1900.48L1981.84 1899.18L1947.18 1897.88L1939.38 1897.45" stroke="#423232" stroke-width="13.4786" stroke-miterlimit="10" stroke-linecap="round" stroke-linejoin="round"/>
<path d="M2182.05 1909.15L2162.98 1908.28L2130.48 1906.98H2129.18" stroke="#423232" stroke-width="13.4786" stroke-miterlimit="10" stroke-linecap="round" stroke-linejoin="round"/>
<path d="M2099.93 2089.87C2088.69 2094.81 2083.3 2084.92 2065.78 2093.46C2053.2 2099.3 2046.46 2101.1 2031.18 2092.11C2021.3 2085.82 2009.17 2094.81 1997.49 2077.73" stroke="#423232" stroke-width="13.4786" stroke-miterlimit="10" stroke-linecap="round" stroke-linejoin="round"/>
<path d="M2230.24 1760.32C2228.94 1753.82 2227.21 1746.89 2225.04 1740.39C2222.87 1733.89 2217.67 1728.26 2210.74 1726.96C2188.21 1723.06 2166.54 1684.06 2135.34 1679.72C2036.11 1666.29 1969.81 1674.52 1876.64 1710.92C1780.44 1748.19 1883.57 1882.96 1814.67 1927.16C1811.21 1915.02 1794.31 1865.62 1738.84 1872.56C1686.41 1879.06 1666.47 2000.39 1774.81 2041.99C1727.57 2119.12 1731.04 2088.36 1696.37 2046.76C1661.71 2005.16 1592.37 1897.26 1639.17 1739.52C1685.97 1581.79 1897.87 1499.46 2095.04 1579.62C2128.84 1593.49 2149.21 1627.72 2178.67 1633.36C2452.97 1685.79 2236.74 1791.52 2230.24 1760.32Z" fill="#423232"/>
<path d="M1963.74 1678.42C1963.74 1678.42 1926.91 1667.59 1904.81 1725.22C1882.71 1782.86 1805.58 1862.16 1741.44 1769.86C1677.31 1677.99 1773.51 1604.32 1873.61 1634.22C1973.71 1664.12 1962.44 1641.59 1963.74 1678.42Z" fill="#423232"/>
<path d="M2027.44 1636.39C2027.44 1636.39 2124.94 1698.36 2189.07 1674.09C2229.37 1658.92 2274.87 1603.02 2243.24 1561.42C2205.54 1511.59 2088.97 1549.29 2023.97 1528.49C1926.47 1497.29 1775.24 1476.49 1704.17 1593.49C1686.41 1622.96 1670.37 1652.86 1645.24 1676.26C1619.24 1700.52 1593.24 1739.96 1591.07 1801.49C1587.17 1924.12 1683.37 2030.72 1683.37 2030.72C1683.37 2030.72 1626.17 1820.99 1734.07 1789.79C1841.97 1758.59 1871.87 1650.69 1943.37 1650.69C2014.87 1650.69 1981.51 1570.09 2027.44 1636.39Z" fill="#423232"/>
<path d="M2122.35 1691.42C2122.35 1691.42 2200.78 1789.36 2259.71 1783.72C2318.65 1778.09 2384.95 1651.56 2222.88 1608.22C2060.81 1564.89 2122.35 1691.42 2122.35 1691.42Z" fill="#423232"/>
<path d="M1963.75 1678.42C1963.75 1678.42 2015.32 1805.82 2152.25 1820.99C2289.62 1836.59 2345.08 1585.26 2135.35 1561.42C1925.62 1537.59 1963.75 1678.42 1963.75 1678.42Z" fill="#423232"/>
<path d="M1854.12 1618.62C1854.12 1618.62 1886.19 1764.22 1953.79 1770.72C2021.39 1777.22 2003.19 1589.16 1914.79 1576.16C1826.39 1563.16 1854.12 1618.62 1854.12 1618.62Z" fill="#423232"/>
<path d="M2160.82 1973.31C2149.12 1959.01 2133.96 1949.05 2115.76 1948.61C2096.69 1948.18 2066.79 1952.51 2036.89 1976.35C1997.89 2007.55 1919.89 2002.78 1889.12 1999.75C1880.46 1998.88 1872.22 2003.21 1868.32 2011.01C1859.66 2028.35 1847.96 2064.31 1853.59 2122.38C1860.96 2201.68 1925.52 2273.61 2016.52 2267.55C2136.12 2260.18 2205.89 2163.98 2210.22 2035.28C2209.36 1999.75 2188.12 2007.11 2160.82 1973.31Z" fill="white"/>
<path d="M2000.92 1999.75C2000.92 1999.75 2183.36 2082.08 2198.96 2022.28" stroke="#EDF3F4" stroke-width="13.4786" stroke-miterlimit="10" stroke-linecap="round" stroke-linejoin="round"/>
<path d="M1927.25 2058.68C1927.25 2058.68 2111.41 2163.98 2194.18 2106.78" stroke="#EDF3F4" stroke-width="13.4786" stroke-miterlimit="10" stroke-linecap="round" stroke-linejoin="round"/>
<path d="M1920.75 2133.21C1920.75 2133.21 2015.65 2218.58 2152.15 2187.81" stroke="#EDF3F4" stroke-width="13.4786" stroke-miterlimit="10" stroke-linecap="round" stroke-linejoin="round"/>
<path d="M1945.88 2007.11C1945.88 2007.11 1927.68 2032.25 1920.31 2098.55C1911.64 2178.28 1949.34 2244.58 1949.34 2244.58" stroke="#EDF3F4" stroke-width="13.4786" stroke-miterlimit="10" stroke-linecap="round" stroke-linejoin="round"/>
<path d="M1885.64 2010.58C1885.64 2010.58 1835.81 1975.91 1800.71 1916.11" stroke="white" stroke-width="13.4786" stroke-miterlimit="10" stroke-linecap="round" stroke-linejoin="round"/>
<path d="M1775.16 2050.88C1785.12 2083.38 1809.82 2136.25 1872.22 2183.91" stroke="white" stroke-width="13.4786" stroke-miterlimit="10" stroke-linecap="round" stroke-linejoin="round"/>
</g>
</svg>
