<svg width="3865" height="3930" viewBox="0 0 3865 3930" fill="none" xmlns="http://www.w3.org/2000/svg">
<rect width="3865" height="3930" rx="96" fill="#FFFBF5"/>
<path d="M1932 2615C1572.71 2615 1282 2323.86 1282 1965C1282 1605.71 1573.14 1315 1932 1315C2291.29 1315 2582 1606.14 2582 1965C2582.43 2324.29 2291.29 2615 1932 2615Z" fill="#F4DA92"/>
<mask id="mask0_422_3237" style="mask-type:alpha" maskUnits="userSpaceOnUse" x="1282" y="1315" width="1301" height="1300">
<path d="M1932 2615C1572.71 2615 1282 2323.86 1282 1965C1282 1605.71 1573.14 1315 1932 1315C2291.29 1315 2582 1606.14 2582 1965C2582.43 2324.29 2291.29 2615 1932 2615Z" fill="#F7C0B5"/>
</mask>
<g mask="url(#mask0_422_3237)">
<path d="M2296.01 2512.33C2292.97 2514.5 2289.51 2516.67 2286.47 2518.83C2283.01 2521 2279.97 2523.17 2276.51 2524.9C2273.47 2526.63 2270.87 2528.37 2267.84 2530.1C2267.41 2530.53 2266.97 2530.53 2266.54 2530.97C2256.57 2537.03 2246.17 2542.67 2235.77 2547.87C2232.74 2549.6 2229.27 2551.33 2226.24 2552.63C2226.24 2552.63 2225.81 2553.07 2225.37 2553.07C2221.91 2554.8 2218.44 2556.53 2214.97 2558.27C2208.04 2561.73 2200.67 2564.77 2193.74 2567.8C2190.27 2569.53 2186.37 2570.83 2182.91 2572.13C2179.44 2573.43 2175.54 2575.17 2172.07 2576.47C2168.61 2577.77 2164.71 2579.5 2161.24 2580.8C2161.24 2580.8 2161.24 2580.8 2160.81 2580.8C2157.34 2582.1 2153.44 2583.4 2149.97 2584.7C2142.17 2587.3 2133.94 2589.9 2126.14 2592.5C2123.54 2593.37 2120.51 2594.23 2117.91 2595.1C2109.67 2597.7 2101.44 2599.87 2093.21 2601.6C2090.17 2602.47 2087.14 2602.9 2083.67 2603.77C2075.87 2605.5 2067.64 2607.23 2059.84 2608.97C2058.11 2609.4 2056.81 2609.4 2055.07 2609.83C2052.47 2610.27 2049.44 2610.7 2046.84 2611.13C2042.94 2611.57 2039.47 2612.43 2035.57 2612.87C2033.84 2613.3 2032.11 2613.3 2030.37 2613.73C2028.21 2614.17 2025.61 2614.6 2023.01 2614.6C2016.07 2615.47 2008.71 2616.33 2001.77 2617.2C1999.61 2617.63 1997.01 2617.63 1994.84 2618.07H1994.41C1991.37 2618.5 1988.34 2618.5 1985.31 2618.93C1982.27 2619.37 1979.24 2619.37 1976.21 2619.37C1974.47 2619.37 1972.31 2619.8 1970.57 2619.8C1967.11 2619.8 1964.07 2620.23 1961.04 2620.23C1956.71 2620.23 1952.81 2620.67 1948.47 2620.67C1944.14 2620.67 1940.24 2620.67 1935.91 2620.67C1932.87 2620.67 1929.84 2620.67 1926.81 2620.67C1744.37 2618.07 1579.71 2540.5 1462.71 2417.43C1462.71 2417.43 1462.71 2417 1462.27 2417C1475.71 2390.57 1525.54 2342.9 1577.54 2303.47C1643.41 2253.63 1736.57 2222.87 1736.57 2222.87C1736.57 2222.87 1797.67 2212.9 2024.31 2260.13C2197.21 2296.53 2270.87 2444.3 2296.01 2512.33Z" fill="#F7D3B5"/>
<path d="M2072.41 2380.16C2063.31 2424.8 2004.38 2451.23 1905.14 2411.36C1783.38 2361.96 1736.58 2222.86 1736.58 2222.86C1730.08 2123.2 1714.91 2037.83 1714.91 2037.83C1855.74 2025.7 2022.14 2190.36 2022.14 2190.36L2041.21 2271.83C2042.94 2278.76 2046.41 2284.83 2051.61 2289.16C2060.71 2304.76 2078.48 2351.56 2072.41 2380.16Z" fill="#F7D3B5"/>
<path d="M2051.6 2289.6C1968.84 2285.26 1907.74 2273.13 1842.3 2155.7C1897.77 2204.66 1963.2 2223.3 2032.1 2231.96L2041.2 2271.83C2042.94 2279.2 2046.4 2285.26 2051.6 2289.6Z" fill="#EFBDA5"/>
<path d="M2222.78 1767.43C2230.58 1803.83 2234.48 1833.3 2213.24 1930.36C2192.01 2027.43 2232.74 2124.5 2130.48 2213.33C2061.58 2273.13 1941.11 2284.4 1844.91 2218.96C1812.41 2196.86 1782.51 2166.1 1758.24 2125.8C1739.18 2094.16 1717.08 2064.26 1692.38 2036.96C1658.14 1999.7 1616.98 1924.73 1637.34 1792.13C1670.28 1576.33 1883.91 1551.63 2010.01 1575.46C2136.11 1599.3 2201.54 1671.23 2222.78 1767.43Z" fill="#F7D3B5"/>
<path d="M1808.07 1936.86C1808.07 1936.86 1794.64 1871.86 1731.37 1879.66C1676.77 1886.6 1657.71 2017.46 1781.64 2053.86" fill="#F7D3B5"/>
<path d="M1777.74 1994.5C1777.74 1994.5 1762.14 1984.53 1763.87 1967.2C1766.47 1946.83 1763.87 1934.27 1754.34 1930.37C1730.51 1920.4 1725.74 1948.13 1726.61 1951.6" stroke="#665858" stroke-width="13" stroke-miterlimit="10" stroke-linecap="round" stroke-linejoin="round"/>
<g filter="url(#filter0_d_422_3237)">
<path d="M2108.38 2036.53C2108.38 2036.53 2124.84 2037.4 2140.44 2018.76C2149.11 2008.36 2156.48 1995.36 2151.71 1991.46C2146.94 1987.13 2068.51 1999.26 2063.31 2009.66C2058.11 2020.06 2088.44 2036.53 2108.38 2036.53Z" fill="#EFBDA5"/>
<path d="M2108.4 2036.03L2108.4 2036.03L2108.39 2036.03H2108.38C2098.52 2036.03 2086.04 2031.95 2076.67 2026.56C2071.98 2023.87 2068.11 2020.87 2065.74 2017.94C2063.36 2014.98 2062.59 2012.22 2063.76 2009.89C2064.03 2009.33 2064.58 2008.73 2065.41 2008.1C2066.24 2007.46 2067.32 2006.82 2068.63 2006.17C2071.24 2004.86 2074.73 2003.56 2078.79 2002.3C2086.93 1999.78 2097.34 1997.43 2107.76 1995.53C2118.18 1993.64 2128.57 1992.2 2136.66 1991.52C2140.7 1991.17 2144.16 1991.01 2146.74 1991.08C2148.04 1991.11 2149.1 1991.19 2149.9 1991.33C2150.3 1991.4 2150.63 1991.49 2150.88 1991.58C2151.14 1991.67 2151.29 1991.76 2151.37 1991.83L2151.38 1991.84L2151.39 1991.85C2152.41 1992.68 2152.83 1994.03 2152.68 1995.87C2152.53 1997.72 2151.81 1999.97 2150.66 2002.47C2148.36 2007.45 2144.38 2013.26 2140.06 2018.44C2132.32 2027.69 2124.38 2032.08 2118.39 2034.16C2115.4 2035.21 2112.89 2035.67 2111.13 2035.88C2110.26 2035.98 2109.57 2036.02 2109.1 2036.03C2108.87 2036.04 2108.69 2036.04 2108.57 2036.04C2108.51 2036.04 2108.47 2036.03 2108.44 2036.03L2108.41 2036.03L2108.4 2036.03L2108.4 2036.03Z" stroke="black"/>
</g>
<path d="M2121.37 1890.93C2121.37 1890.93 2122.24 1932.1 2148.67 1978.03C2160.37 1998.4 2142.6 2031.77 2104.04 2037.4" stroke="#665858" stroke-width="7" stroke-miterlimit="10" stroke-linecap="round" stroke-linejoin="round"/>
<path opacity="0.42" d="M1886.5 2058.63C1911.15 2058.63 1931.14 2042.14 1931.14 2021.8C1931.14 2001.46 1911.15 1984.96 1886.5 1984.96C1861.85 1984.96 1841.87 2001.46 1841.87 2021.8C1841.87 2042.14 1861.85 2058.63 1886.5 2058.63Z" fill="#F0CFB6"/>
<path opacity="0.42" d="M2206.31 1985.83C2205.01 2010.1 2205.44 2033.93 2203.71 2057.76C2184.64 2053.43 2170.77 2039.13 2170.77 2022.23C2170.77 2004.03 2185.94 1989.3 2206.31 1985.83Z" fill="#E0C5AC"/>
<path d="M1540.77 2335.71C1540.77 2335.71 1556.97 2323.46 1587.18 2341.84C1643.66 2376.43 1715.46 2561.19 1561.35 2690.35C1561.35 2690.35 1533.77 2851.46 1561.35 2882.11C1561.35 2882.11 2065.71 2907.5 2283.31 2882.11C2283.31 2882.11 2286.81 2783.16 2272.8 2682.03C2255.29 2553.75 2232.96 2427.22 2150.21 2310.76C2138.39 2294.12 2116.5 2286.68 2102.93 2282.74L2043.39 2265.66C2043.39 2265.66 2095.92 2417.59 1950.13 2382.56C1860.82 2361.11 1786.83 2276.17 1725.53 2237.21C1711.08 2228.01 1691.38 2231.08 1678.69 2236.33C1649.79 2248.59 1542.96 2312.51 1540.77 2335.71Z" fill="#FFFDFD"/>
<mask id="mask1_422_3237" style="mask-type:alpha" maskUnits="userSpaceOnUse" x="1540" y="2231" width="744" height="663">
<path d="M1540.77 2335.71C1540.77 2335.71 1556.97 2323.46 1587.18 2341.84C1643.66 2376.43 1715.46 2561.19 1561.35 2690.35C1561.35 2690.35 1533.77 2851.46 1561.35 2882.11C1561.35 2882.11 2065.71 2907.5 2283.31 2882.11C2283.31 2882.11 2286.81 2783.16 2272.8 2682.03C2255.29 2553.75 2232.96 2427.22 2150.21 2310.76C2138.39 2294.12 2116.5 2286.68 2102.93 2282.74L2043.39 2265.66C2043.39 2265.66 2095.92 2417.59 1950.13 2382.56C1860.82 2361.11 1786.83 2276.17 1725.53 2237.21C1711.08 2228.01 1691.38 2231.08 1678.69 2236.33C1649.79 2248.59 1542.96 2312.51 1540.77 2335.71Z" fill="#444444"/>
</mask>
<g mask="url(#mask1_422_3237)">
<path d="M1549.53 2338.78C1599.44 2295.44 1600.76 2326.96 1679.56 2302C1714.59 2291.06 1753.12 2256.91 1804.34 2252.97C1843.74 2249.9 1887.09 2275.73 1935.69 2280.99C1975.97 2285.37 2023.69 2268.29 2070.1 2280.11C2109.5 2290.18 2143.65 2327.83 2188.31 2344.91" stroke="#6D5F5E" stroke-width="17.5126" stroke-miterlimit="10" stroke-linecap="round" stroke-linejoin="round"/>
<path d="M1550.85 2388.69C1607.33 2351.91 1604.26 2384.31 1685.7 2362.86C1722.03 2353.23 1762.31 2319.52 1813.98 2316.01C1854.25 2312.95 1898.91 2339.22 1947.95 2343.16C1989.1 2346.66 2037.26 2326.96 2084.55 2337.47C2125.7 2346.22 2161.6 2383.44 2207.13 2398.76" stroke="#6D5F5E" stroke-width="17.5126" stroke-miterlimit="10" stroke-linecap="round" stroke-linejoin="round"/>
<path d="M1551.72 2438.6C1613.45 2408.83 1606.89 2441.23 1690.95 2423.72C1728.6 2415.83 1770.63 2382.12 1822.73 2378.62C1864.32 2375.99 1909.85 2402.26 1959.77 2405.33C2002.23 2407.95 2050.83 2386.5 2098.99 2394.82C2141.46 2402.26 2179.99 2438.6 2226.4 2451.74" stroke="#6D5F5E" stroke-width="17.5126" stroke-miterlimit="10" stroke-linecap="round" stroke-linejoin="round"/>
<path d="M1553.04 2488.95C1618.71 2465.75 1609.52 2498.14 1695.77 2484.13C1734.73 2477.57 1778.51 2444.73 1831.49 2441.23C1874.4 2438.6 1921.24 2465.75 1971.59 2467.5C2015.37 2469.25 2064.41 2445.61 2113 2452.17C2157.22 2458.3 2197.94 2493.77 2245.23 2504.71" stroke="#6D5F5E" stroke-width="17.5126" stroke-miterlimit="10" stroke-linecap="round" stroke-linejoin="round"/>
<path d="M1554.35 2539.3C1623.52 2522.66 1612.14 2554.62 1700.14 2543.68C1740.42 2538.86 1786.39 2506.02 1839.8 2503.4C1883.58 2501.21 1932.18 2528.79 1982.97 2530.1C2028.5 2530.98 2077.54 2505.59 2127.01 2510.4C2172.98 2514.78 2216.32 2549.37 2264.48 2558.13" stroke="#6D5F5E" stroke-width="17.5126" stroke-miterlimit="10" stroke-linecap="round" stroke-linejoin="round"/>
<path d="M1555.66 2589.65C1627.9 2578.7 1614.33 2610.23 1704.08 2603.22C1745.68 2599.72 1793.4 2567.76 1848.13 2565.57C1893.22 2563.82 1942.69 2592.27 1994.36 2592.71C2041.2 2593.15 2091.11 2565.57 2141.46 2568.63C2189.18 2571.7 2235.15 2604.97 2284.19 2610.66" stroke="#6D5F5E" stroke-width="17.5126" stroke-miterlimit="10" stroke-linecap="round" stroke-linejoin="round"/>
</g>
<path d="M2027.81 1841.55C2037.22 1842.85 2044.49 1832.88 2041.07 1823.35C2039.36 1818.15 2036.36 1813.38 2031.66 1810.35C2017.11 1801.25 1962.76 1800.38 1934.09 1821.18C1908.84 1840.25 1985.01 1835.48 2027.81 1841.55Z" fill="#423232"/>
<path d="M2146.33 1846.32C2138.63 1846.32 2133.92 1836.35 2137.77 1828.12C2139.91 1823.78 2142.91 1819.88 2147.19 1817.72C2160.45 1811.22 2195.97 1815.12 2211.8 1837.22C2225.92 1856.72 2181.85 1845.88 2146.33 1846.32Z" fill="#423232"/>
<path d="M2012.82 1896.15C1985.43 1882.28 1942.21 1892.68 1942.21 1892.68" stroke="#423232" stroke-width="13" stroke-miterlimit="10" stroke-linecap="round" stroke-linejoin="round"/>
<path d="M2181.85 1904.82C2181.85 1904.82 2170.73 1892.68 2129.65 1902.22" stroke="#423232" stroke-width="13" stroke-miterlimit="10" stroke-linecap="round" stroke-linejoin="round"/>
<path d="M2089.57 2082.3C2073.97 2091.4 2051.43 2088.8 2031.93 2079.26" stroke="#423232" stroke-width="13" stroke-miterlimit="10" stroke-linecap="round" stroke-linejoin="round"/>
<path d="M2034.1 2064.1C2034.1 2064.1 2034.1 2083.16 2012.86 2090.96" stroke="#423232" stroke-width="13" stroke-miterlimit="10" stroke-linecap="round" stroke-linejoin="round"/>
<path d="M2278.09 1630.09C2278.09 1566.39 2226.52 1514.82 2162.82 1514.82C2106.05 1514.82 2058.82 1555.99 2049.29 1609.72C2060.99 1613.62 2072.25 1618.82 2082.65 1626.19C2078.75 1633.99 2090.45 1633.99 2086.55 1641.79C2133.35 1663.45 2166.72 1698.55 2196.19 1740.59C2243.42 1726.29 2278.09 1682.09 2278.09 1630.09Z" fill="#423232"/>
<path d="M2222.62 1888.35C2234.32 1822.49 2230.85 1796.49 2223.92 1765.72C2221.75 1756.19 2219.15 1747.09 2216.12 1737.99C2193.15 1719.79 2168.88 1708.09 2132.05 1702.89C2032.82 1689.45 1954.38 1698.55 1870.75 1716.75C1818.32 1728.02 1829.15 1909.15 1808.78 1932.99C1805.32 1920.85 1788.42 1871.45 1732.95 1878.39C1680.52 1884.89 1660.58 2006.22 1768.92 2047.82C1768.05 2071.65 1745.95 2115.85 1728.18 2125.82C1728.18 2125.82 1725.15 2094.19 1690.48 2052.59C1655.82 2010.99 1586.48 1903.09 1633.28 1745.35C1680.08 1587.62 1891.98 1505.29 2089.15 1585.45C2122.95 1599.32 2150.68 1618.82 2172.78 1639.19C2224.78 1686.85 2252.52 1756.19 2244.28 1825.95C2242.12 1849.35 2235.62 1871.89 2222.62 1888.35Z" fill="#423232"/>
<path d="M1651.05 1771.35C1721.89 1771.35 1779.32 1713.93 1779.32 1643.09C1779.32 1572.25 1721.89 1514.82 1651.05 1514.82C1580.21 1514.82 1522.79 1572.25 1522.79 1643.09C1522.79 1713.93 1580.21 1771.35 1651.05 1771.35Z" fill="#423232"/>
<path d="M2253.82 1898.75C2241.68 1893.55 2223.48 1889.22 2202.25 1886.19C2205.28 1851.95 2197.92 1825.95 2197.92 1825.95C2197.05 1843.72 2192.28 1873.19 2190.55 1884.45C2160.22 1880.99 2125.98 1878.82 2096.52 1877.95C2094.78 1851.95 2089.15 1821.62 2089.15 1821.62C2089.15 1834.19 2086.98 1862.35 2085.25 1877.52C2077.88 1877.52 2070.52 1877.09 2064.02 1877.09C2059.68 1877.09 2055.78 1877.09 2051.45 1877.09C2047.55 1844.59 2038.45 1806.02 2038.45 1806.02C2039.32 1822.92 2036.28 1858.89 2034.98 1877.09C1927.52 1877.95 1831.75 1888.79 1831.75 1888.79L1822.22 1716.75C1863.38 1629.65 2196.62 1590.65 2229.55 1659.12C2289.35 1782.19 2253.82 1898.75 2253.82 1898.75Z" fill="#423232"/>
<path d="M2253.82 1898.75C2253.82 1898.75 2236.05 1908.72 2219.15 1906.55C2219.15 1906.55 2221.75 1893.12 2222.18 1889.65C2222.62 1889.65 2247.32 1894.42 2253.82 1898.75Z" fill="#423232"/>
<path opacity="0.6" d="M2147.08 1992.25C2147.08 1992.25 2152.28 2021.72 2186.51 2036.45C2195.18 2039.92 2204.28 2034.29 2204.28 2024.75C2203.85 2024.75 2149.25 1995.72 2147.08 1992.25Z" fill="#B7AEA9"/>
<path opacity="0.6" d="M2064.75 1921.19C2064.75 1921.19 2092.48 1893.45 2106.35 1890.42L2069.51 1899.09L2064.75 1921.19Z" fill="#B7AEA9"/>
<path opacity="0.6" d="M1879.72 1992.25C1879.72 1992.25 1895.75 2028.65 1943.85 2037.32C1991.95 2046.42 2035.72 2011.75 2056.08 1953.69C2056.08 1953.69 2039.62 2007.42 1973.75 2017.39C1908.32 2028.22 1879.72 1992.25 1879.72 1992.25Z" fill="#B7AEA9"/>
<path opacity="0.29" d="M1957.28 1797.69C1896.18 1797.69 1846.35 1848.82 1845.91 1911.22C1845.91 1940.69 1856.75 1967.55 1874.51 1987.05L2031.81 1828.02C2012.31 1808.95 1986.31 1797.69 1957.28 1797.69Z" fill="#DBC3ED"/>
<path opacity="0.23" d="M2031.82 1828.02L1874.52 1987.05C1894.45 2009.15 1922.62 2022.59 1953.82 2022.59C2014.05 2022.59 2063.45 1972.75 2065.18 1910.79C2066.05 1878.29 2053.05 1848.82 2031.82 1828.02Z" fill="#C4ADD8"/>
<path opacity="0.29" d="M2210.78 1797.69C2164.42 1797.69 2125.42 1848.82 2123.68 1911.22C2122.82 1936.35 2128.45 1959.32 2137.98 1977.95L2275.35 1841.89C2261.05 1815.02 2237.65 1797.69 2210.78 1797.69Z" fill="#DBC3ED"/>
<path opacity="0.23" d="M2275.35 1841.45L2137.98 1977.52C2152.28 2004.82 2175.68 2022.59 2202.98 2022.59C2248.48 2022.59 2287.48 1972.75 2290.08 1910.79C2290.95 1885.22 2285.32 1860.95 2275.35 1841.45Z" fill="#C4ADD8"/>
<path d="M2065.18 1911.22C2063.88 1973.19 2014.05 2023.02 1953.82 2023.02C1893.58 2023.02 1845.48 1973.19 1845.48 1911.22C1845.92 1848.82 1895.75 1797.69 1956.85 1797.69C2017.95 1797.69 2066.92 1848.82 2065.18 1911.22Z" stroke="#EBF6F9" stroke-width="13" stroke-miterlimit="10" stroke-linecap="round" stroke-linejoin="round"/>
<path d="M2290.08 1911.22C2287.48 1973.19 2248.48 2023.02 2202.98 2023.02C2157.48 2023.02 2121.95 1973.19 2123.68 1911.22C2125.41 1848.82 2164.41 1797.69 2210.78 1797.69C2257.15 1797.69 2292.68 1848.82 2290.08 1911.22Z" stroke="#EBF6F9" stroke-width="13" stroke-miterlimit="10" stroke-linecap="round" stroke-linejoin="round"/>
<path d="M1846.78 1899.09H1785.25" stroke="#EBF6F9" stroke-width="13" stroke-miterlimit="10" stroke-linecap="round" stroke-linejoin="round"/>
<path d="M2065.62 1899.09C2065.62 1899.09 2117.18 1879.15 2123.68 1899.09" stroke="#EBF6F9" stroke-width="13" stroke-miterlimit="10" stroke-linecap="round" stroke-linejoin="round"/>
<path d="M1538.21 2336.59V2340.01" stroke="#8B52A0" stroke-width="10" stroke-linecap="round"/>
<path d="M1541.63 2333.18C1541.63 2335 1541.63 2340.47 1541.63 2338.64C1541.63 2336.14 1541.63 2333.63 1541.63 2331.13" stroke="#8B52A0" stroke-width="10" stroke-linecap="round"/>
<path d="M1534.11 2343.43C1524.15 2343.43 1517.14 2351.23 1509.36 2356.41C1508.45 2357.02 1503.89 2359.31 1507.23 2359.15C1511.47 2358.95 1519.1 2357.96 1522.5 2354.74C1524.88 2352.48 1527.33 2350.75 1530.17 2349.73C1531.59 2349.22 1534.11 2348.9 1534.8 2347.53" stroke="#8B52A0" stroke-width="10" stroke-linecap="round"/>
<path d="M1499.94 2369.4H1503.36" stroke="#8B52A0" stroke-width="10" stroke-linecap="round"/>
<path d="M1512.24 2363.25C1510.8 2363.25 1507.21 2362.62 1506.06 2363.59C1504.01 2365.29 1502.22 2367.59 1499.94 2369.06C1495.17 2372.12 1492.25 2377.2 1486.96 2378.97" stroke="#8B52A0" stroke-width="10" stroke-linecap="round"/>
</g>
<defs>
<filter id="filter0_d_422_3237" x="2058.72" y="1990.56" width="98.4902" height="53.9751" filterUnits="userSpaceOnUse" color-interpolation-filters="sRGB">
<feFlood flood-opacity="0" result="BackgroundImageFix"/>
<feColorMatrix in="SourceAlpha" type="matrix" values="0 0 0 0 0 0 0 0 0 0 0 0 0 0 0 0 0 0 127 0" result="hardAlpha"/>
<feOffset dy="4"/>
<feGaussianBlur stdDeviation="2"/>
<feComposite in2="hardAlpha" operator="out"/>
<feColorMatrix type="matrix" values="0 0 0 0 0 0 0 0 0 0 0 0 0 0 0 0 0 0 0.25 0"/>
<feBlend mode="normal" in2="BackgroundImageFix" result="effect1_dropShadow_422_3237"/>
<feBlend mode="normal" in="SourceGraphic" in2="effect1_dropShadow_422_3237" result="shape"/>
</filter>
</defs>
</svg>
