<svg width="3865" height="3930" viewBox="0 0 3865 3930" fill="none" xmlns="http://www.w3.org/2000/svg">
<rect width="3865" height="3930" rx="96" fill="#FFFBF5"/>
<path d="M1932 2430C1572.71 2430 1282 2138.86 1282 1780C1282 1420.71 1573.14 1130 1932 1130C2291.29 1130 2582 1421.14 2582 1780C2582.43 2139.29 2291.29 2430 1932 2430Z" fill="#A0F7EC"/>
<mask id="mask0_425_4256" style="mask-type:alpha" maskUnits="userSpaceOnUse" x="1282" y="1130" width="1300" height="1300">
<path d="M1932 2430C1572.71 2430 1282 2138.86 1282 1780C1282 1420.71 1573.14 1130 1932 1130C2291.29 1130 2582 1421.14 2582 1780C2582.43 2139.29 2291.29 2430 1932 2430Z" fill="#F7C0B5"/>
</mask>
<g mask="url(#mask0_425_4256)">
<path d="M2295.99 2327.33C2292.96 2329.5 2289.49 2331.66 2286.46 2333.83C2282.99 2336 2279.96 2338.16 2276.49 2339.9C2273.46 2341.63 2270.86 2343.36 2267.83 2345.1C2267.39 2345.53 2266.96 2345.53 2266.53 2345.96C2256.56 2352.03 2246.16 2357.66 2235.76 2362.86C2232.73 2364.6 2229.26 2366.33 2226.23 2367.63C2226.23 2367.63 2225.79 2368.06 2225.36 2368.06C2221.89 2369.8 2218.43 2371.53 2214.96 2373.26C2208.03 2376.73 2200.66 2379.76 2193.73 2382.8C2190.26 2384.53 2186.36 2385.83 2182.89 2387.13C2179.43 2388.43 2175.53 2390.16 2172.06 2391.46C2168.59 2392.76 2164.69 2394.5 2161.23 2395.8C2161.23 2395.8 2161.23 2395.8 2160.79 2395.8C2157.33 2397.1 2153.43 2398.4 2149.96 2399.7C2142.16 2402.3 2133.93 2404.9 2126.13 2407.5C2123.53 2408.36 2120.49 2409.23 2117.89 2410.1C2109.66 2412.7 2101.43 2414.86 2093.19 2416.6C2090.16 2417.46 2087.13 2417.9 2083.66 2418.76C2075.86 2420.5 2067.63 2422.23 2059.83 2423.96C2058.09 2424.4 2056.79 2424.4 2055.06 2424.83C2052.46 2425.26 2049.43 2425.7 2046.83 2426.13C2042.93 2426.56 2039.46 2427.43 2035.56 2427.86C2033.83 2428.3 2032.09 2428.3 2030.36 2428.73C2028.19 2429.16 2025.59 2429.6 2022.99 2429.6C2016.06 2430.46 2008.69 2431.33 2001.76 2432.2C1999.59 2432.63 1996.99 2432.63 1994.83 2433.06H1994.39C1991.36 2433.5 1988.33 2433.5 1985.29 2433.93C1982.26 2434.36 1979.23 2434.36 1976.19 2434.36C1974.46 2434.36 1972.29 2434.8 1970.56 2434.8C1967.09 2434.8 1964.06 2435.23 1961.03 2435.23C1956.69 2435.23 1952.79 2435.66 1948.46 2435.66C1944.13 2435.66 1940.23 2435.66 1935.89 2435.66C1932.86 2435.66 1929.83 2435.66 1926.79 2435.66C1744.36 2433.06 1579.69 2355.5 1462.7 2232.43C1462.7 2232.43 1462.7 2232 1462.26 2232C1475.7 2205.56 1525.53 2157.9 1577.53 2118.46C1643.39 2068.63 1736.56 2037.86 1736.56 2037.86C1736.56 2037.86 1797.66 2027.9 2024.29 2075.13C2197.19 2111.53 2270.86 2259.3 2295.99 2327.33Z" fill="#E0BA9B"/>
<path d="M2072.4 2195.16C2063.3 2239.8 2004.36 2266.23 1905.13 2226.36C1783.37 2176.96 1736.57 2037.86 1736.57 2037.86C1730.07 1938.2 1714.9 1852.83 1714.9 1852.83C1855.73 1840.7 2022.13 2005.36 2022.13 2005.36L2041.2 2086.83C2042.93 2093.76 2046.4 2099.83 2051.6 2104.16C2060.7 2119.76 2078.46 2166.56 2072.4 2195.16Z" fill="#E0BA9B"/>
<path d="M2051.59 2104.6C1968.83 2100.26 1907.73 2088.13 1842.29 1970.7C1897.76 2019.66 1963.19 2038.3 2032.09 2046.96L2041.19 2086.83C2042.93 2094.2 2046.39 2100.26 2051.59 2104.6Z" fill="#EFBDA5"/>
<path d="M2222.75 1582.43C2230.55 1618.83 2234.45 1648.3 2213.22 1745.36C2191.99 1842.43 2232.72 1939.5 2130.45 2028.33C2061.55 2088.13 1941.09 2099.4 1844.89 2033.96C1812.39 2011.86 1782.49 1981.1 1758.22 1940.8C1739.15 1909.16 1717.05 1879.26 1692.35 1851.96C1658.12 1814.7 1616.95 1739.73 1637.32 1607.13C1670.25 1391.33 1883.89 1366.63 2009.99 1390.46C2136.09 1414.3 2201.52 1486.23 2222.75 1582.43Z" fill="#E0BA9B"/>
<path d="M1808.07 1751.86C1808.07 1751.86 1794.63 1686.86 1731.37 1694.66C1676.77 1701.6 1657.7 1832.46 1781.63 1868.86" fill="#E0BA9B"/>
<path d="M1777.73 1809.5C1777.73 1809.5 1762.13 1799.53 1763.86 1782.2C1766.46 1761.83 1763.86 1749.26 1754.33 1745.36C1730.49 1735.4 1725.73 1763.13 1726.59 1766.6" stroke="#423232" stroke-width="13.4786" stroke-miterlimit="10" stroke-linecap="round" stroke-linejoin="round"/>
<path d="M2108.37 1851.53C2108.37 1851.53 2124.83 1852.4 2140.43 1833.76C2149.1 1823.36 2156.47 1810.36 2151.7 1806.46C2146.93 1802.13 2068.5 1814.26 2063.3 1824.66C2058.1 1835.06 2088.43 1851.53 2108.37 1851.53Z" fill="#EFBDA5"/>
<path d="M2121.35 1705.93C2121.35 1705.93 2122.22 1747.1 2148.65 1793.03C2160.35 1813.4 2142.59 1846.76 2104.02 1852.4" stroke="#423232" stroke-width="13.4786" stroke-miterlimit="10" stroke-linecap="round" stroke-linejoin="round"/>
<path opacity="0.42" d="M1886.49 1873.63C1911.14 1873.63 1931.12 1857.14 1931.12 1836.8C1931.12 1816.46 1911.14 1799.96 1886.49 1799.96C1861.84 1799.96 1841.86 1816.46 1841.86 1836.8C1841.86 1857.14 1861.84 1873.63 1886.49 1873.63Z" fill="#ED938A"/>
<path opacity="0.42" d="M2206.3 1800.83C2205 1825.1 2205.43 1848.93 2203.7 1872.76C2184.63 1868.43 2170.77 1854.13 2170.77 1837.23C2170.77 1819.03 2185.93 1804.3 2206.3 1800.83Z" fill="#ED938A"/>
<path d="M2339.78 2246.61C2278.25 2167.31 2182.92 2134.37 2130.48 2114.87C2126.15 2093.21 2117.92 2069.37 2104.92 2046.41C2084.98 2058.54 2062.02 2067.64 2038.18 2072.41L2041.65 2086.71C2043.38 2093.64 2052.05 2125.71 2038.62 2166.87C2027.35 2201.54 1981.85 2217.14 1904.72 2182.04C1754.35 2114.01 1737.02 2037.31 1737.02 2037.31C1734.42 1995.71 1730.08 1956.71 1726.18 1925.07C1679.38 1935.47 1625.22 1956.71 1595.75 2001.34C1559.35 2055.94 1545.92 2111.41 1549.38 2155.61C1486.12 2195.91 1388.18 2257.01 1356.12 2366.21C1314.52 2508.34 1321.45 2595.44 1321.45 2595.44H2441.18C2439.88 2595.87 2423.42 2354.51 2339.78 2246.61Z" fill="#6060D8"/>
<path d="M1670.28 2104.47C1670.28 2104.47 1696.72 2207.17 1812.42 2278.24" stroke="#423232" stroke-width="13.4786" stroke-miterlimit="10" stroke-linecap="round" stroke-linejoin="round"/>
<path d="M2130.05 2114.87C2130.05 2114.87 2160.82 2247.91 2093.65 2309.01" stroke="#423232" stroke-width="13.4786" stroke-miterlimit="10" stroke-linecap="round" stroke-linejoin="round"/>
<path d="M1921.19 2288.64C1921.19 2288.64 1898.65 2354.51 1904.72 2400.01" stroke="#423232" stroke-width="13.4786" stroke-miterlimit="10" stroke-linecap="round" stroke-linejoin="round"/>
<path d="M2059.42 2284.74C2059.42 2284.74 2076.32 2321.57 2088.45 2380.07" stroke="#423232" stroke-width="13.4786" stroke-miterlimit="10" stroke-linecap="round" stroke-linejoin="round"/>
<path d="M1548.52 2156.04C1548.52 2156.04 1584.05 2300.77 1795.52 2343.24" stroke="#423232" stroke-width="13.4786" stroke-miterlimit="10" stroke-linecap="round" stroke-linejoin="round"/>
<path d="M1908.62 2409.97L1889.55 2408.24C1882.62 2407.37 1877.42 2400.87 1878.72 2393.94L1885.22 2361.44C1886.95 2352.34 1895.62 2345.84 1904.72 2347.14C1913.82 2348.01 1921.18 2355.81 1921.18 2365.34L1921.62 2398.71C1921.62 2405.21 1915.55 2410.84 1908.62 2409.97Z" fill="white"/>
<path d="M2107.52 2390.04L2089.32 2396.54C2082.39 2399.14 2075.02 2394.81 2073.72 2387.87L2065.92 2355.81C2063.75 2346.71 2068.52 2337.61 2077.62 2334.14C2086.29 2331.11 2096.25 2335.01 2100.15 2343.24L2114.45 2373.14C2117.49 2379.64 2114.45 2387.44 2107.52 2390.04Z" fill="white"/>
<path d="M2298.62 2380.07C2298.62 2380.07 2322.88 2516.14 2313.35 2595.87" stroke="#544D4D" stroke-width="13.4786" stroke-miterlimit="10" stroke-linecap="round" stroke-linejoin="round"/>
<path d="M1965.94 1749.44C1955.54 1749.01 1947.74 1740.34 1948.6 1729.94L1949.04 1717.81C1949.47 1707.41 1958.14 1699.61 1968.54 1700.47C1978.94 1700.91 1986.74 1709.57 1985.87 1719.97L1985.44 1732.11C1985 1742.07 1976.34 1749.87 1965.94 1749.44Z" fill="#423232"/>
<path d="M2148.37 1755.94C2138.84 1755.51 2131.47 1747.27 2131.9 1737.74L2132.34 1726.47C2132.77 1716.94 2141 1709.57 2150.54 1710.01C2160.07 1710.44 2167.44 1718.67 2167 1728.21L2166.57 1739.47C2166.14 1749.01 2157.9 1756.37 2148.37 1755.94Z" fill="#423232"/>
<path d="M2007.98 1724.31C2007.98 1724.31 1996.72 1708.27 1977.22 1705.24C1961.18 1702.64 1943.42 1710.44 1940.82 1719.54" stroke="#423232" stroke-width="13.4786" stroke-miterlimit="10" stroke-linecap="round" stroke-linejoin="round"/>
<path d="M2135.82 1728.21C2135.82 1728.21 2135.82 1714.34 2155.75 1714.34C2172.22 1714.34 2179.15 1729.51 2179.15 1729.51" stroke="#423232" stroke-width="13.4786" stroke-miterlimit="10" stroke-linecap="round" stroke-linejoin="round"/>
<path d="M2025.73 1654.54C2034.83 1657.57 2043.93 1649.34 2042.2 1639.37C2041.33 1634.17 2039.17 1628.97 2034.83 1625.07C2021.83 1613.37 1968.1 1602.97 1935.6 1618.14C1907 1632.01 1984.13 1640.67 2025.73 1654.54Z" fill="#423232"/>
<path d="M2155.3 1661.47C2147.94 1664.07 2140.14 1656.27 2141.44 1647.17C2141.87 1642.41 2143.6 1637.64 2147.07 1634.17C2157.47 1623.77 2193 1615.54 2215.54 1631.57C2235.04 1645.01 2189.1 1648.91 2155.3 1661.47Z" fill="#423232"/>
<path d="M2086.15 1902.84C2086.6 1910.03 2081.21 1922.61 2071.32 1931.6C2020.55 1900.6 1997.64 1916.77 1997.64 1916.77C1979.67 1889.37 1983.71 1852.08 2027.29 1880.38C2057.84 1899.7 2076.27 1902.84 2086.15 1902.84Z" fill="#423232"/>
<path d="M2071.33 1931.6C2060.55 1941.03 2044.37 1946.87 2022.36 1937.89C2012.02 1933.85 2003.94 1925.76 1997.65 1916.77C1997.65 1916.77 2020.56 1900.6 2071.33 1931.6Z" fill="#FE9DAB"/>
<path d="M2094.69 1901.05C2094.69 1901.05 2075.82 1911.38 2027.3 1880.38C1969.34 1843.09 1981.02 1921.27 2021.91 1937.89C2064.59 1955.41 2086.61 1917.22 2086.16 1902.84" stroke="#423232" stroke-width="13.4786" stroke-miterlimit="10" stroke-linecap="round" stroke-linejoin="round"/>
<path d="M1997.65 1916.77C1997.65 1916.77 2020.56 1900.6 2071.33 1931.6" stroke="#423232" stroke-width="13.4786" stroke-miterlimit="10" stroke-linecap="round" stroke-linejoin="round"/>
<path d="M1935.72 1377.36C1680.05 1366.52 1604.65 1587.52 1626.32 1714.06C1647.55 1836.26 1725.12 1892.59 1725.12 1892.59L1777.55 1874.39C1777.55 1874.39 1757.18 1867.46 1737.68 1853.16C1670.52 1802.02 1691.32 1709.29 1737.25 1703.22C1783.18 1697.59 1802.68 1730.52 1810.05 1748.72C1834.32 1668.56 1800.08 1648.62 1834.32 1591.86C1941.35 1476.16 2017.62 1549.39 2068.32 1569.32C2114.68 1587.52 2144.58 1564.99 2170.15 1541.16C2185.32 1526.86 2206.98 1530.76 2206.98 1530.76C2206.98 1530.76 2177.52 1387.76 1935.72 1377.36Z" fill="#6F5655"/>
<path d="M1832.41 1652.26C1832.41 1652.26 1663.85 1663.96 1610.11 1650.1C1610.11 1650.1 1618.78 1457.7 1680.75 1378.4C1742.71 1299.1 2026.98 1298.66 2122.75 1334.2C2209.41 1366.7 2220.68 1557.36 2220.68 1557.36L1832.41 1652.26Z" fill="#3F3C3C"/>
<path d="M2220.68 1557.36L1848.88 1648.36C1846.71 1598.53 1841.51 1445.13 1867.08 1387.06C1897.85 1317.3 2076.81 1317.73 2151.78 1353.26C2211.58 1411.76 2220.68 1557.36 2220.68 1557.36Z" fill="white"/>
<path d="M2304.32 1637.53C2304.32 1689.96 2219.39 1666.56 2219.39 1666.56C2223.29 1629.73 2219.82 1609.36 2214.62 1586.4C2212.89 1579.46 2211.15 1572.53 2209.42 1565.6C2237.15 1562.56 2257.95 1570.36 2272.69 1581.63C2294.79 1598.96 2304.32 1624.96 2304.32 1637.53Z" fill="#BAAEA6"/>
<path d="M2038.69 1471.56C2067.17 1471.56 2090.25 1448.48 2090.25 1420C2090.25 1391.52 2067.17 1368.43 2038.69 1368.43C2010.21 1368.43 1987.12 1391.52 1987.12 1420C1987.12 1448.48 2010.21 1471.56 2038.69 1471.56Z" fill="white"/>
<path d="M2090.25 1420C2090.25 1443.83 2074.22 1463.33 2052.55 1469.83C2030.88 1463.76 2014.85 1443.83 2014.85 1420C2014.85 1396.16 2030.88 1376.23 2052.55 1370.16C2074.22 1376.66 2090.25 1396.6 2090.25 1420Z" fill="#6BD5E1"/>
<path d="M2117.99 1420C2117.99 1448.6 2095.02 1471.56 2066.42 1471.56C2065.12 1471.56 2063.82 1471.56 2062.52 1471.56C2061.65 1471.56 2060.35 1471.56 2059.49 1471.13C2058.62 1471.13 2057.32 1470.7 2056.02 1470.7C2054.72 1470.26 2053.85 1470.26 2052.55 1469.83C2074.22 1463.76 2090.25 1443.83 2090.25 1420C2090.25 1396.16 2074.22 1376.66 2052.55 1370.16C2053.42 1369.73 2054.72 1369.73 2056.02 1369.3C2056.89 1369.3 2057.75 1368.86 2058.62 1368.86C2059.05 1368.86 2059.49 1368.86 2060.35 1368.86C2061.22 1368.86 2061.65 1368.86 2062.52 1368.86C2063.82 1368.86 2065.12 1368.86 2066.85 1368.86C2095.02 1368.43 2117.99 1391.4 2117.99 1420Z" fill="#FFD98E"/>
<path d="M2038.69 1372.76C2064.69 1372.76 2085.92 1394 2085.92 1420C2085.92 1446 2064.69 1467.23 2038.69 1467.23C2012.69 1467.23 1991.45 1446 1991.45 1420C1991.45 1394 2012.69 1372.76 2038.69 1372.76ZM2038.69 1368.43C2010.09 1368.43 1987.12 1391.4 1987.12 1420C1987.12 1448.6 2010.09 1471.56 2038.69 1471.56C2067.29 1471.56 2090.25 1448.6 2090.25 1420C2090.25 1391.4 2066.85 1368.43 2038.69 1368.43Z" fill="#4C4C4C"/>
<path d="M1849.75 1609.36C1849.75 1609.36 1694.62 1618.03 1618.35 1613.7C1614.02 1613.26 1614.02 1609.8 1614.02 1605.46L1614.45 1597.66C1614.45 1597.66 1606.22 1599.83 1602.75 1611.1C1601.02 1617.16 1599.72 1631.9 1600.15 1641C1600.58 1646.63 1604.48 1651.4 1610.12 1652.26C1635.25 1656.6 1719.75 1667 1832.42 1652.7C1832.42 1652.26 1847.15 1627.56 1849.75 1609.36Z" fill="#332E2E"/>
<path d="M2272.25 1581.63C2254.05 1567.76 2226.75 1559.53 2189.48 1569.06C2168.25 1574.7 2143.11 1585.96 2114.51 1605.03C1974.55 1699.93 1832.41 1652.26 1832.41 1652.26C1832.41 1652.26 1836.75 1631.03 1852.35 1605.03C1875.31 1566.9 1922.98 1518.36 2018.75 1512.3C2102.81 1507.1 2164.78 1523.13 2206.81 1541.33C2248.41 1559.53 2270.08 1579.46 2272.25 1581.63Z" fill="white"/>
<path d="M1852.35 1605.03C1875.32 1566.9 1922.98 1518.36 2018.75 1512.3C2102.82 1507.1 2164.78 1523.13 2206.82 1541.33" stroke="#E8E7E6" stroke-width="13.4786" stroke-miterlimit="10" stroke-linecap="round" stroke-linejoin="round"/>
</g>
</svg>
