<svg width="3865" height="3930" viewBox="0 0 3865 3930" fill="none" xmlns="http://www.w3.org/2000/svg">
<rect width="3865" height="3930" rx="96" fill="#FFFBF5"/>
<path d="M1932 2430C1572.71 2430 1282 2138.86 1282 1780C1282 1420.71 1573.14 1130 1932 1130C2291.29 1130 2582 1421.14 2582 1780C2582.43 2139.29 2291.29 2430 1932 2430Z" fill="#F88778"/>
<mask id="mask0_422_4062" style="mask-type:alpha" maskUnits="userSpaceOnUse" x="1282" y="1130" width="1300" height="1300">
<path d="M1932 2430C1572.71 2430 1282 2138.86 1282 1780C1282 1420.71 1573.14 1130 1932 1130C2291.29 1130 2582 1421.14 2582 1780C2582.43 2139.29 2291.29 2430 1932 2430Z" fill="#F7C0B5"/>
</mask>
<g mask="url(#mask0_422_4062)">
<path d="M2294.27 2327.33C2291.23 2329.5 2287.77 2331.67 2284.73 2333.83C2281.27 2336 2278.23 2338.17 2274.77 2339.9C2271.73 2341.63 2269.13 2343.37 2266.1 2345.1C2265.67 2345.53 2265.23 2345.53 2264.8 2345.97C2254.83 2352.03 2244.43 2357.67 2234.03 2362.87C2231 2364.6 2227.53 2366.33 2224.5 2367.63C2224.5 2367.63 2224.07 2368.07 2223.63 2368.07C2220.17 2369.8 2216.7 2371.53 2213.23 2373.27C2206.3 2376.73 2198.93 2379.77 2192 2382.8C2188.53 2384.53 2184.63 2385.83 2181.17 2387.13C2177.7 2388.43 2173.8 2390.17 2170.33 2391.47C2166.87 2392.77 2162.97 2394.5 2159.5 2395.8C2159.5 2395.8 2159.5 2395.8 2159.07 2395.8C2155.6 2397.1 2151.7 2398.4 2148.23 2399.7C2140.43 2402.3 2132.2 2404.9 2124.4 2407.5C2121.8 2408.37 2118.77 2409.23 2116.17 2410.1C2107.93 2412.7 2099.7 2414.87 2091.47 2416.6C2088.43 2417.47 2085.4 2417.9 2081.93 2418.77C2074.13 2420.5 2065.9 2422.23 2058.1 2423.97C2056.37 2424.4 2055.07 2424.4 2053.33 2424.83C2050.73 2425.27 2047.7 2425.7 2045.1 2426.13C2041.2 2426.57 2037.73 2427.43 2033.83 2427.87C2032.1 2428.3 2030.37 2428.3 2028.63 2428.73C2026.47 2429.17 2023.87 2429.6 2021.27 2429.6C2014.33 2430.47 2006.97 2431.33 2000.03 2432.2C1997.87 2432.63 1995.27 2432.63 1993.1 2433.07H1992.67C1989.63 2433.5 1986.6 2433.5 1983.57 2433.93C1980.53 2434.37 1977.5 2434.37 1974.47 2434.37C1972.73 2434.37 1970.57 2434.8 1968.83 2434.8C1965.37 2434.8 1962.33 2435.23 1959.3 2435.23C1954.97 2435.23 1951.07 2435.67 1946.73 2435.67C1942.4 2435.67 1938.5 2435.67 1934.17 2435.67C1931.13 2435.67 1928.1 2435.67 1925.07 2435.67C1742.64 2433.07 1577.97 2355.5 1460.97 2232.43C1460.97 2232.43 1460.97 2232 1460.54 2232C1473.97 2205.57 1523.8 2157.9 1575.8 2118.47C1641.67 2068.63 1734.84 2037.87 1734.84 2037.87C1734.84 2037.87 1795.93 2027.9 2022.57 2075.13C2195.47 2111.53 2269.13 2259.3 2294.27 2327.33Z" fill="#C99589"/>
<path d="M2070.67 2195.16C2061.57 2239.8 2002.64 2266.23 1903.4 2226.36C1781.64 2176.96 1734.84 2037.86 1734.84 2037.86C1728.34 1938.2 1713.17 1852.83 1713.17 1852.83C1854 1840.7 2020.4 2005.36 2020.4 2005.36L2039.47 2086.83C2041.2 2093.76 2044.67 2099.83 2049.87 2104.16C2058.97 2119.76 2076.74 2166.56 2070.67 2195.16Z" fill="#C99589"/>
<path d="M2049.87 2104.6C1967.1 2100.27 1906 2088.13 1840.57 1970.7C1896.03 2019.67 1961.47 2038.3 2030.37 2046.97L2039.47 2086.83C2041.2 2094.2 2044.67 2100.27 2049.87 2104.6Z" fill="#A56663"/>
<path d="M2221.04 1582.43C2228.84 1618.83 2232.74 1648.3 2211.5 1745.37C2190.27 1842.43 2231 1939.5 2128.74 2028.33C2059.84 2088.13 1939.37 2099.4 1843.17 2033.97C1810.67 2011.87 1780.77 1981.1 1756.5 1940.8C1737.44 1909.17 1715.34 1879.27 1690.64 1851.97C1656.4 1814.7 1615.24 1739.73 1635.6 1607.13C1668.54 1391.33 1882.17 1366.63 2008.27 1390.47C2134.37 1414.3 2199.8 1486.23 2221.04 1582.43Z" fill="#C99589"/>
<path d="M1806.34 1751.87C1806.34 1751.87 1792.9 1686.87 1729.64 1694.67C1675.04 1701.6 1655.97 1832.47 1779.9 1868.87" fill="#C99589"/>
<path d="M1776 1809.5C1776 1809.5 1760.4 1799.53 1762.13 1782.2C1764.73 1761.83 1762.13 1749.27 1752.6 1745.37C1728.77 1735.4 1724 1763.13 1724.87 1766.6" stroke="#423232" stroke-width="13.4786" stroke-miterlimit="10" stroke-linecap="round" stroke-linejoin="round"/>
<path d="M2106.64 1851.53C2106.64 1851.53 2123.11 1852.4 2138.71 1833.77C2147.37 1823.37 2154.74 1810.37 2149.97 1806.47C2145.21 1802.13 2066.77 1814.27 2061.57 1824.67C2056.37 1835.07 2086.71 1851.53 2106.64 1851.53Z" fill="#A56663"/>
<path d="M2119.64 1705.93C2119.64 1705.93 2120.5 1747.1 2146.94 1793.03C2158.64 1813.4 2140.87 1846.77 2102.3 1852.4" stroke="#423232" stroke-width="13.4786" stroke-miterlimit="10" stroke-linecap="round" stroke-linejoin="round"/>
<path d="M1659.17 2033.57C1659.17 2033.57 1722.44 2008.43 1734.14 2007.57L1735.01 2017.53C1735.01 2017.53 1684.74 2039.2 1681.71 2042.67C1678.67 2046.13 1659.17 2033.57 1659.17 2033.57Z" fill="#7E5D6D"/>
<path d="M2440.04 2596.03H1344.58C1344.58 2596.03 1351.08 2394.97 1416.94 2251.53C1466.78 2143.2 1586.38 2071.7 1673.48 2040.5C1698.18 2031.83 1717.24 2022.3 1735.01 2017.53C1735.01 2019.7 1736.31 2035.73 1736.31 2037.47C1736.31 2037.47 1808.24 2136.7 1968.58 2135.4C2064.78 2134.97 2037.91 2072.57 2037.91 2072.57C2046.14 2070.83 2053.94 2068.67 2061.74 2066.07C2064.34 2065.2 2082.54 2057.83 2084.71 2056.97C2140.61 2071.7 2209.08 2113.3 2308.31 2196.5C2420.11 2290.53 2440.04 2596.03 2440.04 2596.03Z" fill="#E89D6B"/>
<mask id="mask1_422_4062" style="mask-type:alpha" maskUnits="userSpaceOnUse" x="1344" y="2017" width="1097" height="580">
<path d="M2440.04 2596.03H1344.58C1344.58 2596.03 1351.08 2394.97 1416.94 2251.53C1466.78 2143.2 1586.38 2071.7 1673.48 2040.5C1698.18 2031.83 1717.24 2022.3 1735.01 2017.53C1735.01 2019.7 1736.31 2035.73 1736.31 2037.47C1736.31 2037.47 1808.24 2136.7 1968.58 2135.4C2064.78 2134.97 2037.91 2072.57 2037.91 2072.57C2046.14 2070.83 2053.94 2068.67 2061.74 2066.07C2064.34 2065.2 2082.54 2057.83 2084.71 2056.97C2140.61 2071.7 2209.08 2113.3 2308.31 2196.5C2420.11 2290.53 2440.04 2596.03 2440.04 2596.03Z" fill="#E89D6B"/>
</mask>
<g mask="url(#mask1_422_4062)">
<path d="M1569.47 2008C1593.31 2008.87 1605.44 2009.3 1629.27 2008.87C1650.51 2021.43 1660.91 2027.5 1682.57 2039.2C1704.67 2037.9 1715.94 2037.03 1738.04 2034.43C1760.14 2044.83 1770.97 2050.03 1793.07 2060C1815.61 2056.53 1826.87 2054.37 1848.97 2050.03C1871.51 2058.7 1883.21 2062.6 1905.74 2069.97C1928.27 2064.33 1939.54 2060.87 1962.07 2054.37C1985.47 2060.43 1997.17 2063.47 2020.57 2068.67C2043.11 2060.43 2054.37 2056.53 2076.91 2047.43C2100.74 2051.33 2112.87 2053.07 2136.71 2056.1C2158.81 2045.7 2170.07 2040.5 2192.17 2029.23C2216.44 2030.53 2228.57 2030.97 2252.84 2031.4C2274.51 2018.4 2285.34 2011.9 2307.01 1998.47C2334.31 1996.3 2347.74 1995 2375.04 1991.97C2372.87 2002.37 2372.01 2007.57 2370.27 2017.97C2347.74 2020.57 2336.04 2021.87 2313.51 2023.6C2291.41 2037.47 2280.57 2044.4 2258.04 2057.4C2233.34 2057.4 2221.21 2056.97 2196.51 2055.67C2173.97 2066.93 2162.71 2072.57 2140.17 2082.97C2115.91 2079.93 2103.77 2078.2 2079.51 2074.73C2056.97 2083.83 2045.27 2088.17 2022.74 2095.97C1998.91 2090.77 1987.21 2087.73 1963.81 2081.67C1941.27 2088.17 1929.57 2091.63 1907.04 2097.27C1884.07 2089.47 1872.37 2085.57 1849.41 2076.9C1826.87 2081.23 1815.61 2083.4 1792.64 2086.87C1770.11 2076.9 1759.27 2072.13 1736.74 2061.3C1714.21 2063.47 1702.94 2064.33 1680.84 2065.63C1659.17 2053.93 1648.34 2047.87 1627.11 2034.87C1607.17 2034.87 1597.21 2034.87 1577.27 2034C1574.24 2024.03 1572.94 2018.83 1569.47 2008Z" fill="#FFFF8D"/>
<path d="M1563.41 2118.07C1587.24 2118.5 1598.94 2118.5 1623.21 2117.63C1644.88 2129.77 1655.71 2135.4 1677.38 2146.67C1699.48 2144.93 1710.31 2143.63 1732.41 2140.6C1754.51 2150.57 1765.78 2155.33 1788.31 2164.43C1810.41 2160.53 1821.24 2157.93 1843.78 2153.17C1866.74 2160.97 1878.44 2164.87 1901.41 2171.8C1923.51 2165.3 1934.78 2162.27 1956.88 2154.9C1980.28 2160.53 1992.41 2163.13 2015.81 2167.9C2037.91 2159.23 2048.74 2154.9 2070.84 2145.37C2095.11 2148.83 2106.81 2150.13 2131.08 2152.3C2152.74 2141.47 2163.58 2135.83 2185.24 2124.13C2209.51 2125 2222.08 2125 2246.34 2124.57C2267.58 2111.57 2277.98 2104.63 2299.21 2090.77C2326.51 2088.17 2340.38 2086.87 2367.68 2082.97C2365.94 2093.37 2365.51 2098.57 2363.78 2108.53C2340.81 2111.57 2329.54 2112.87 2307.01 2115.03C2285.34 2129.33 2274.94 2136.27 2253.28 2149.7C2228.58 2150.13 2216.01 2150.13 2191.31 2149.27C2169.21 2160.97 2158.38 2166.6 2136.28 2177.87C2112.01 2175.7 2099.44 2174.4 2075.18 2170.93C2053.08 2180.47 2041.81 2184.8 2019.28 2193.47C1995.44 2188.7 1983.31 2186.1 1959.48 2180.47C1936.94 2187.83 1926.11 2190.87 1903.58 2197.37C1880.18 2190.43 1868.48 2186.53 1845.51 2178.73C1822.98 2183.5 1812.14 2186.1 1789.61 2190C1767.08 2180.9 1755.38 2176.13 1732.84 2165.73C1710.74 2168.33 1699.48 2169.63 1677.38 2171.8C1655.28 2160.53 1644.44 2154.47 1622.78 2142.33C1602.84 2142.77 1592.88 2143.2 1573.38 2142.77C1569.04 2133.23 1567.31 2128.03 1563.41 2118.07Z" fill="#FFFF8D"/>
<path d="M1557.34 2226.4C1580.74 2225.97 1592.87 2225.53 1616.7 2224.67C1638.37 2236.37 1649.64 2242 1671.74 2252.4C1693.4 2249.8 1704.24 2248.5 1725.9 2245.03C1748.44 2254.57 1759.7 2258.9 1782.67 2267.57C1804.34 2262.8 1815.17 2260.63 1837.27 2255C1860.67 2262.37 1872.37 2265.83 1895.77 2272.33C1917.44 2265.4 1928.27 2261.93 1949.94 2254.57C1973.77 2259.77 1985.9 2261.93 2009.74 2266.27C2031.4 2257.17 2042.24 2252.83 2063.47 2242.87C2087.74 2245.47 2099.87 2246.77 2124.14 2248.5C2145.37 2237.23 2156.2 2231.6 2177 2219.47C2201.7 2219.47 2213.84 2219.47 2238.54 2218.6C2259.34 2205.17 2269.74 2198.23 2290.1 2184.37C2317.4 2181.33 2331.27 2179.6 2358.57 2175.27C2357.27 2185.23 2356.84 2190.43 2355.97 2200.83C2333 2204.3 2321.74 2206.03 2298.77 2208.63C2277.97 2222.93 2267.14 2230.3 2246.34 2243.73C2221.2 2244.6 2208.64 2245.03 2183.94 2244.6C2162.27 2256.73 2151.87 2262.37 2130.2 2274.07C2105.5 2272.33 2093.37 2271.47 2068.67 2268.43C2047 2278.4 2036.17 2283.17 2014.07 2292.27C1989.8 2288.37 1977.67 2285.77 1953.84 2280.57C1931.74 2288.37 1920.9 2291.83 1898.8 2298.77C1874.97 2292.27 1863.27 2288.8 1839.87 2281.43C1817.77 2287.07 1806.94 2289.67 1784.84 2294C1761.87 2285.33 1750.17 2280.57 1727.64 2271.03C1705.54 2274.5 1694.7 2275.8 1672.6 2278.4C1650.07 2267.57 1639.24 2261.93 1617.14 2250.23C1597.64 2251.1 1587.67 2251.53 1568.17 2251.97C1563.84 2242 1561.67 2236.8 1557.34 2226.4Z" fill="#FFFF8D"/>
<path d="M1550.84 2334.3C1574.24 2333.43 1585.94 2332.57 1609.34 2330.83C1631.44 2342.1 1642.7 2347.3 1665.24 2357.27C1686.47 2354.23 1697.3 2352.5 1718.97 2348.6C1741.94 2357.7 1753.64 2362.03 1776.6 2369.83C1797.84 2364.63 1808.67 2362.03 1830.34 2355.97C1853.74 2362.9 1865.87 2365.93 1889.27 2371.57C1910.5 2364.2 1921.34 2360.3 1942.57 2352.5C1966.84 2356.83 1978.54 2359 2002.8 2362.47C2024.04 2352.93 2034.44 2348.17 2055.67 2338.2C2080.37 2340.37 2092.5 2341.23 2117.2 2342.53C2138 2331.27 2148.4 2325.2 2169.2 2313.07C2193.9 2312.63 2206.47 2312.2 2231.17 2310.9C2251.54 2297.47 2261.5 2290.53 2281.44 2276.23C2309.17 2272.77 2323.04 2270.6 2350.34 2265.83C2349.47 2275.8 2349.47 2281 2348.6 2290.97C2325.64 2294.87 2314.37 2296.6 2291.4 2299.63C2271.04 2314.37 2260.64 2321.3 2240.27 2335.17C2215.14 2336.47 2202.57 2336.9 2177.44 2337.33C2156.64 2349.9 2145.8 2355.97 2125 2367.23C2100.3 2365.93 2087.74 2365.5 2063.04 2363.33C2041.8 2373.73 2030.97 2378.5 2009.74 2388.03C1985.04 2384.57 1972.9 2382.4 1948.64 2378.07C1926.97 2386.3 1916.14 2390.2 1894.47 2397.57C1870.64 2391.93 1858.5 2388.47 1834.67 2381.97C1813 2388.03 1802.17 2390.63 1780.5 2395.83C1757.1 2387.6 1745.4 2383.7 1722 2374.6C1700.34 2378.5 1689.5 2380.23 1667.84 2383.27C1644.87 2372.87 1633.6 2367.67 1611.5 2356.4C1592 2358.13 1582.47 2358.57 1562.97 2359.43C1558.2 2349.47 1555.6 2344.27 1550.84 2334.3Z" fill="#FFFF8D"/>
<path d="M1544.77 2440.9C1567.74 2439.17 1579.44 2438.3 1602.84 2435.7C1625.37 2446.1 1636.64 2451.3 1659.6 2460.83C1680.84 2457.37 1691.24 2455.2 1712.47 2450.87C1735.87 2459.1 1747.57 2463.43 1770.97 2470.8C1792.2 2465.17 1802.6 2462.13 1823.4 2455.63C1847.24 2461.7 1859.37 2464.73 1883.2 2469.93C1904 2462.13 1914.4 2458.23 1935.64 2449.57C1959.9 2453.47 1972.04 2455.2 1996.74 2458.23C2017.54 2448.27 2027.5 2443.5 2048.3 2433.1C2073 2434.83 2085.57 2435.27 2110.27 2436.13C2130.64 2424.43 2140.6 2418.37 2160.97 2405.8C2186.1 2404.93 2198.24 2404.5 2223.37 2402.77C2242.87 2388.9 2252.84 2381.97 2272.34 2367.67C2300.07 2363.77 2313.94 2361.6 2341.67 2356.4C2341.24 2366.37 2341.24 2371.13 2340.8 2381.1C2317.84 2385.43 2306.57 2387.17 2283.6 2390.63C2263.67 2405.37 2253.7 2412.73 2233.77 2426.6C2208.64 2428.77 2195.64 2429.2 2170.5 2430.07C2150.14 2442.63 2139.74 2449.13 2119.37 2460.83C2094.24 2460.4 2081.67 2459.97 2056.54 2458.23C2035.74 2469.07 2025.34 2473.83 2004.54 2483.8C1979.84 2480.77 1967.27 2479.03 1942.57 2475.13C1921.34 2483.8 1910.94 2487.7 1889.7 2495.5C1865.44 2490.3 1853.3 2487.27 1829.04 2481.2C1807.8 2487.7 1796.97 2490.73 1775.74 2496.37C1751.9 2489 1740.2 2485.1 1716.37 2476.43C1695.14 2480.77 1684.3 2482.93 1663.07 2486.4C1640.1 2476.87 1628.4 2471.67 1605.44 2461.27C1586.37 2463.43 1576.84 2464.3 1557.77 2465.6C1552.57 2456.07 1549.97 2450.87 1544.77 2440.9Z" fill="#FFFF8D"/>
<path d="M1718.55 2077.77C1718.55 2077.77 1741.95 2164 1922.65 2185.67C2103.78 2206.9 2105.51 2092.93 2065.65 2028.8C2025.78 1964.67 1750.61 1980.27 1721.15 2011.03C1691.68 2041.8 1718.55 2077.77 1718.55 2077.77Z" fill="white"/>
</g>
<path d="M1559.08 2596.03L1539.58 2435.27" stroke="#544D4D" stroke-width="13.4786" stroke-miterlimit="10" stroke-linecap="round" stroke-linejoin="round"/>
<path d="M2315.67 2380.67C2315.67 2380.67 2302.67 2412.3 2306.57 2443.93C2310.47 2475.57 2321.74 2521.93 2305.71 2596.03" stroke="#544D4D" stroke-width="13.4786" stroke-miterlimit="10" stroke-linecap="round" stroke-linejoin="round"/>
<path d="M1659.18 2033.57C1667.41 2030.97 1681.71 2033.57 1686.04 2040.93C1702.94 2068.67 1743.68 2149.7 1760.58 2310.47C1774.01 2436.13 1753.64 2662.33 1753.64 2662.33L1333.31 2642.4C1333.31 2642.4 1345.88 2428.77 1382.71 2285.33C1418.68 2146.23 1513.14 2083.83 1659.18 2033.57Z" fill="#755B7A"/>
<path d="M2095.11 2060C2095.11 2060 2229.01 2311.77 2190.01 2648.03H2479.48C2479.48 2648.03 2477.75 2419.67 2412.75 2274.93C2347.75 2130.2 2120.25 2049.17 2120.25 2049.17C2120.25 2049.17 2105.95 2056.1 2095.11 2060Z" fill="#755B7A"/>
<path d="M2095.11 2060L2084.71 2056.97C2084.71 2056.97 2099.87 2049.6 2106.37 2045.27L2110.27 2043.1C2110.27 2043.1 2131.07 2052.63 2138.44 2056.1C2145.81 2059.57 2112.87 2075.6 2112.87 2075.6C2112.87 2075.6 2096.41 2060.43 2095.11 2060Z" fill="#7E5D6D"/>
<path d="M1755.81 2270.17C1755.81 2270.17 1741.08 2228.13 1707.71 2190.87C1676.95 2156.2 1620.61 2102.47 1616.71 2090.33C1609.35 2065.63 1655.28 1972.47 1727.21 1939.97C1727.21 1940.4 1727.21 1940.83 1727.21 1941.27C1727.21 1941.7 1727.21 1942.13 1727.21 1943C1727.21 1943.87 1727.21 1944.73 1727.65 1945.6C1727.65 1946.9 1728.08 1948.2 1728.08 1949.5C1728.08 1950.37 1728.08 1950.8 1728.51 1951.67C1731.55 1977.67 1734.15 2006.7 1736.31 2037.47V2037.9C1736.31 2037.9 1716.38 2044.4 1730.68 2143.63C1734.58 2167.47 1749.31 2209.93 1755.81 2270.17Z" fill="#4B3C4F"/>
<path d="M2170.94 2283.6C2170.94 2283.6 2141.91 2170.93 2127.61 2134.97C2113.31 2099.43 2086.44 2059.13 2085.14 2056.97C2102.04 2049.17 2117.21 2039.2 2130.64 2027.5C2144.08 2015.8 2154.91 2004.1 2164.01 1992.4C2174.84 2004.53 2239.41 2077.33 2246.34 2117.2C2254.14 2161.4 2197.81 2180.47 2170.94 2283.6Z" fill="#4B3C4F"/>
<path d="M1965.95 1749.44C1955.55 1749.01 1947.75 1740.34 1948.61 1729.94L1949.05 1717.81C1949.48 1707.41 1958.15 1699.61 1968.55 1700.47C1978.95 1700.91 1986.75 1709.57 1985.88 1719.97L1985.45 1732.11C1985.01 1742.07 1976.35 1749.87 1965.95 1749.44Z" fill="#423232"/>
<path d="M2148.38 1755.94C2138.85 1755.51 2131.48 1747.27 2131.91 1737.74L2132.35 1726.47C2132.78 1716.94 2141.01 1709.57 2150.55 1710.01C2160.08 1710.44 2167.45 1718.67 2167.01 1728.21L2166.58 1739.47C2166.15 1749.01 2157.91 1756.37 2148.38 1755.94Z" fill="#423232"/>
<path d="M2007.97 1724.31C2007.97 1724.31 1996.71 1708.27 1977.21 1705.24C1961.17 1702.64 1943.41 1710.44 1940.81 1719.54" stroke="#423232" stroke-width="13.4786" stroke-miterlimit="10" stroke-linecap="round" stroke-linejoin="round"/>
<path d="M2135.81 1728.21C2135.81 1728.21 2135.81 1714.34 2155.74 1714.34C2172.21 1714.34 2179.14 1729.51 2179.14 1729.51" stroke="#423232" stroke-width="13.4786" stroke-miterlimit="10" stroke-linecap="round" stroke-linejoin="round"/>
<path d="M2025.74 1654.54C2034.84 1657.57 2043.94 1649.34 2042.21 1639.37C2041.34 1634.17 2039.17 1628.97 2034.84 1625.07C2021.84 1613.37 1968.11 1602.97 1935.61 1618.14C1907.01 1632.01 1984.14 1640.67 2025.74 1654.54Z" fill="#423232"/>
<path d="M2155.31 1661.47C2147.94 1664.07 2140.14 1656.27 2141.44 1647.17C2141.88 1642.41 2143.61 1637.64 2147.08 1634.17C2157.48 1623.77 2193.01 1615.54 2215.54 1631.57C2235.04 1645.01 2189.11 1648.91 2155.31 1661.47Z" fill="#423232"/>
<path d="M2086.33 1907.19C2086.78 1922.02 2064.77 1959.76 2022.08 1942.24C1981.2 1925.61 1969.07 1847.44 2027.47 1884.73C2058.03 1904.05 2076.45 1907.19 2086.33 1907.19Z" fill="white"/>
<path d="M2094.87 1905.4C2094.87 1905.4 2076 1915.73 2027.48 1884.73C1969.52 1847.44 1981.2 1925.61 2022.09 1942.24C2064.77 1959.76 2086.78 1921.57 2086.33 1907.19" stroke="#423232" stroke-width="13.4786" stroke-miterlimit="10" stroke-linecap="round" stroke-linejoin="round"/>
<path d="M1987.94 1895.96C1987.94 1895.96 2018.49 1916.18 2027.48 1914.38C2036.91 1913.03 2035.57 1926.06 2078.25 1927.41" stroke="#423232" stroke-width="13.4786" stroke-miterlimit="10" stroke-linecap="round" stroke-linejoin="round"/>
<path d="M2253.54 1496.63C2222.77 1608 2134.81 1585.9 2049.87 1559.03C1750.44 1464.13 1802.01 1754.03 1798.11 1748.83C1788.57 1730.63 1768.21 1708.1 1729.64 1712.86C1679.37 1719.36 1659.01 1830.73 1753.04 1876.66C1750.87 1896.6 1736.57 1913.5 1720.11 1925.63C1675.91 1888.36 1607.44 1816.43 1581.87 1712.43C1572.34 1674.3 1576.24 1642.66 1580.14 1617.96C1592.71 1541.26 1640.37 1525.23 1640.37 1525.23C1642.11 1444.2 1726.61 1354.93 1868.74 1357.96C2011.31 1360.13 2284.31 1385.26 2253.54 1496.63Z" fill="#DFC645"/>
<path d="M2257.01 1630.53C2252.67 1658.7 2240.54 1680.36 2223.64 1696.4C2230.14 1649.16 2226.67 1626.63 2221.04 1600.2C2208.91 1546.03 2182.91 1499.23 2139.57 1464.56C2161.24 1462.83 2183.34 1467.6 2203.27 1480.16C2203.27 1480.16 2231.87 1500.1 2242.71 1564.23C2246.17 1582.86 2260.91 1602.8 2257.01 1630.53Z" fill="#DFC645"/>
<path d="M1903.41 1358.4C1903.41 1358.4 2068.07 1294.27 2126.14 1315.5C2174.24 1333.27 2156.91 1382.67 2156.91 1382.67C2156.91 1382.67 2239.24 1361.87 2283.87 1415.6C2328.51 1469.33 2276.94 1539.1 2247.47 1564.67C2247.47 1564.67 2293.84 1576.8 2289.07 1616.23C2283.44 1665.63 2223.21 1695.97 2223.21 1695.97C2223.21 1695.97 2244.01 1653.5 2240.97 1612.77C2237.94 1572.03 2242.71 1543 2212.81 1513.53C2182.91 1483.63 2111.84 1511.8 2035.14 1473.67C1958.87 1435.53 1903.41 1358.4 1903.41 1358.4Z" fill="#DFC645"/>
<path opacity="0.6" d="M1864.17 1805.4C1864.17 1805.4 1870.24 1818.4 1888.44 1820.13C1906.64 1821.86 2127.64 1771.6 2135.44 1772.9C2143.24 1774.2 2156.24 1778.96 2156.24 1778.96L2207.37 1811.46L2208.24 1788.93C2208.24 1788.93 2179.64 1753.4 2109.87 1756.86C2040.11 1760.33 1864.17 1805.4 1864.17 1805.4Z" fill="#B7AEA9"/>
<path d="M1874.57 1600C1857.67 1599.56 1843.37 1613 1843.37 1629.9V1669.33C1843.37 1689.26 1827.34 1705.73 1806.97 1705.73H1792.67L1806.97 1731.3C1826.91 1731.3 1843.37 1747.33 1843.37 1767.7V1781.56C1843.37 1800.2 1859.84 1814.06 1878.04 1811.46L2119.84 1773.76C2125.04 1772.9 2129.81 1772.9 2135.01 1773.33L2136.31 1608.23L1874.57 1600Z" fill="#5E4949"/>
<path d="M2226.44 1610.4L2136.74 1607.8L2135.44 1772.9C2142.8 1773.76 2149.74 1775.5 2156.24 1778.96L2204.77 1803.23C2217.34 1809.3 2232.07 1801.06 2233.37 1787.2L2246.8 1632.93C2247.67 1621.23 2238.57 1610.83 2226.44 1610.4Z" fill="#423232"/>
<path d="M1939.14 1668.9L2190.04 1674.53C2203.9 1674.96 2214.74 1687.1 2213 1700.96C2211.7 1713.1 2201.74 1722.2 2189.6 1722.2H1938.7C1925.27 1722.2 1914.44 1710.93 1914.87 1697.5L1915.3 1691.86C1915.74 1678.43 1926.57 1668.9 1939.14 1668.9Z" fill="#E26076" stroke="#423232" stroke-width="13.4786" stroke-miterlimit="10" stroke-linecap="round" stroke-linejoin="round"/>
<path d="M1970.34 1704H1946.51C1941.74 1704 1937.84 1700.1 1937.84 1695.33C1937.84 1690.56 1941.74 1686.66 1946.51 1686.66H1970.34C1975.11 1686.66 1979.01 1690.56 1979.01 1695.33C1978.57 1700.1 1975.11 1704 1970.34 1704Z" fill="white"/>
</g>
</svg>
