<svg width="1300" height="1300" viewBox="0 0 1300 1300" fill="none" xmlns="http://www.w3.org/2000/svg">
<path d="M650 1300C290.71 1300 0 1008.86 0 650C0 290.71 291.141 0 650 0C1009.29 0 1300 291.141 1300 650C1300.43 1009.29 1009.29 1300 650 1300Z" fill="#F4DA92"/>
<mask id="mask0_422_3238" style="mask-type:alpha" maskUnits="userSpaceOnUse" x="0" y="0" width="1301" height="1300">
<path d="M650 1300C290.71 1300 0 1008.86 0 650C0 290.71 291.141 0 650 0C1009.29 0 1300 291.141 1300 650C1300.43 1009.29 1009.29 1300 650 1300Z" fill="#F7C0B5"/>
</mask>
<g mask="url(#mask0_422_3238)">
<path d="M1014 1197.33C1010.97 1199.5 1007.5 1201.67 1004.47 1203.83C1001 1206 997.968 1208.17 994.502 1209.9C991.468 1211.63 988.868 1213.37 985.835 1215.1C985.402 1215.53 984.969 1215.53 984.535 1215.97C974.569 1222.03 964.168 1227.67 953.768 1232.87C950.735 1234.6 947.269 1236.33 944.235 1237.63C944.235 1237.63 943.802 1238.07 943.369 1238.07C939.902 1239.8 936.435 1241.53 932.968 1243.27C926.035 1246.73 918.669 1249.77 911.735 1252.8C908.269 1254.53 904.369 1255.83 900.902 1257.13C897.435 1258.43 893.535 1260.17 890.069 1261.47C886.602 1262.77 882.702 1264.5 879.235 1265.8C879.235 1265.8 879.235 1265.8 878.802 1265.8C875.335 1267.1 871.435 1268.4 867.968 1269.7C860.168 1272.3 851.935 1274.9 844.135 1277.5C841.535 1278.37 838.502 1279.23 835.902 1280.1C827.669 1282.7 819.435 1284.87 811.202 1286.6C808.169 1287.47 805.135 1287.9 801.668 1288.77C793.868 1290.5 785.635 1292.23 777.835 1293.97C776.102 1294.4 774.802 1294.4 773.069 1294.83C770.469 1295.27 767.435 1295.7 764.835 1296.13C760.935 1296.57 757.469 1297.43 753.569 1297.87C751.835 1298.3 750.102 1298.3 748.369 1298.73C746.202 1299.17 743.602 1299.6 741.002 1299.6C734.068 1300.47 726.702 1301.33 719.769 1302.2C717.602 1302.63 715.002 1302.63 712.835 1303.07H712.402C709.369 1303.5 706.335 1303.5 703.302 1303.93C700.269 1304.37 697.235 1304.37 694.202 1304.37C692.469 1304.37 690.302 1304.8 688.569 1304.8C685.102 1304.8 682.069 1305.23 679.035 1305.23C674.702 1305.23 670.802 1305.67 666.469 1305.67C662.135 1305.67 658.235 1305.67 653.902 1305.67C650.869 1305.67 647.835 1305.67 644.802 1305.67C462.369 1303.07 297.702 1225.5 180.702 1102.43C180.702 1102.43 180.702 1102 180.269 1102C193.702 1075.57 243.535 1027.9 295.535 988.465C361.402 938.632 454.569 907.865 454.569 907.865C454.569 907.865 515.669 897.898 742.302 945.132C915.202 981.532 988.868 1129.3 1014 1197.33Z" fill="#F7D3B5"/>
<path d="M790.401 1065.16C781.301 1109.8 722.368 1136.23 623.135 1096.36C501.368 1046.96 454.568 907.865 454.568 907.865C448.068 808.198 432.901 722.831 432.901 722.831C573.735 710.698 740.135 875.365 740.135 875.365L759.201 956.831C760.935 963.765 764.401 969.831 769.601 974.165C778.701 989.765 796.468 1036.56 790.401 1065.16Z" fill="#F7D3B5"/>
<path d="M769.603 974.598C686.836 970.264 625.736 958.131 560.303 840.698C615.769 889.664 681.203 908.298 750.103 916.964L759.203 956.831C760.936 964.198 764.403 970.264 769.603 974.598Z" fill="#EFBDA5"/>
<path d="M940.768 452.431C948.568 488.831 952.468 518.298 931.235 615.365C910.002 712.431 950.735 809.498 848.468 898.331C779.568 958.131 659.102 969.398 562.902 903.965C530.402 881.865 500.502 851.098 476.235 810.798C457.168 779.165 435.068 749.265 410.368 721.965C376.135 684.698 334.968 609.731 355.335 477.131C388.268 261.332 601.902 236.632 728.002 260.465C854.102 284.298 919.535 356.231 940.768 452.431Z" fill="#F7D3B5"/>
<path d="M526.069 621.865C526.069 621.865 512.636 556.865 449.369 564.665C394.769 571.598 375.703 702.465 499.636 738.865" fill="#F7D3B5"/>
<path d="M495.737 679.499C495.737 679.499 480.137 669.532 481.87 652.199C484.47 631.832 481.87 619.265 472.337 615.365C448.503 605.399 443.737 633.132 444.603 636.599" stroke="#665858" stroke-width="13" stroke-miterlimit="10" stroke-linecap="round" stroke-linejoin="round"/>
<g filter="url(#filter0_d_422_3238)">
<path d="M826.367 721.531C826.367 721.531 842.833 722.398 858.433 703.765C867.1 693.365 874.467 680.365 869.7 676.465C864.933 672.131 786.5 684.265 781.3 694.665C776.1 705.065 806.433 721.531 826.367 721.531Z" fill="#EFBDA5"/>
<path d="M826.393 721.032L826.393 721.032L826.38 721.031H826.367C816.511 721.031 804.03 716.951 794.658 711.564C789.972 708.872 786.104 705.875 783.734 702.936C781.354 699.984 780.58 697.223 781.747 694.888C782.024 694.334 782.569 693.733 783.401 693.096C784.229 692.463 785.31 691.817 786.619 691.167C789.236 689.865 792.717 688.564 796.784 687.301C804.917 684.777 815.336 682.425 825.752 680.531C836.167 678.638 846.565 677.205 854.65 676.516C858.695 676.171 862.15 676.014 864.734 676.076C866.028 676.107 867.09 676.193 867.893 676.333C868.294 676.403 868.62 676.485 868.873 676.576C869.13 676.669 869.283 676.761 869.364 676.835L869.373 676.843L869.384 676.852C870.398 677.682 870.82 679.029 870.671 680.873C870.522 682.718 869.804 684.972 868.65 687.467C866.346 692.451 862.367 698.263 858.05 703.444C850.311 712.687 842.372 717.079 836.386 719.163C833.391 720.206 830.881 720.673 829.125 720.879C828.247 720.982 827.558 721.02 827.092 721.032C826.858 721.038 826.681 721.038 826.563 721.036C826.504 721.036 826.46 721.034 826.431 721.033L826.4 721.032L826.394 721.032L826.393 721.032Z" stroke="black"/>
</g>
<path d="M839.367 575.932C839.367 575.932 840.233 617.099 866.666 663.032C878.366 683.399 860.6 716.765 822.033 722.399" stroke="#665858" stroke-width="7" stroke-miterlimit="10" stroke-linecap="round" stroke-linejoin="round"/>
<path opacity="0.42" d="M604.501 743.632C629.151 743.632 649.134 727.141 649.134 706.798C649.134 686.456 629.151 669.965 604.501 669.965C579.85 669.965 559.867 686.456 559.867 706.798C559.867 727.141 579.85 743.632 604.501 743.632Z" fill="#F0CFB6"/>
<path opacity="0.42" d="M924.302 670.831C923.002 695.098 923.435 718.931 921.702 742.765C902.635 738.431 888.769 724.131 888.769 707.231C888.769 689.031 903.935 674.298 924.302 670.831Z" fill="#E0C5AC"/>
<path d="M258.773 1020.71C258.773 1020.71 274.973 1008.46 305.182 1026.84C361.66 1061.43 433.462 1246.19 279.351 1375.35C279.351 1375.35 251.768 1536.46 279.351 1567.11C279.351 1567.11 783.715 1592.5 1001.31 1567.11C1001.31 1567.11 1004.81 1468.16 990.802 1367.03C973.289 1238.75 950.961 1112.22 868.213 995.759C856.392 979.122 834.502 971.679 820.929 967.739L761.386 950.664C761.386 950.664 813.924 1102.59 668.131 1067.56C578.817 1046.11 504.826 961.172 443.532 922.206C429.084 913.012 409.382 916.077 396.686 921.33C367.79 933.589 260.963 997.51 258.773 1020.71Z" fill="#FFFDFD"/>
<mask id="mask1_422_3238" style="mask-type:alpha" maskUnits="userSpaceOnUse" x="258" y="916" width="744" height="663">
<path d="M258.773 1020.71C258.773 1020.71 274.973 1008.46 305.182 1026.84C361.66 1061.43 433.462 1246.19 279.351 1375.35C279.351 1375.35 251.768 1536.46 279.351 1567.11C279.351 1567.11 783.715 1592.5 1001.31 1567.11C1001.31 1567.11 1004.81 1468.16 990.802 1367.03C973.289 1238.75 950.961 1112.22 868.213 995.759C856.392 979.122 834.502 971.679 820.929 967.739L761.386 950.664C761.386 950.664 813.924 1102.59 668.131 1067.56C578.817 1046.11 504.826 961.172 443.532 922.206C429.084 913.012 409.382 916.077 396.686 921.33C367.79 933.589 260.963 997.51 258.773 1020.71Z" fill="#444444"/>
</mask>
<g mask="url(#mask1_422_3238)">
<path d="M267.528 1023.78C317.439 980.436 318.753 1011.96 397.56 987.003C432.585 976.058 471.113 941.908 522.337 937.968C561.741 934.903 605.085 960.734 653.682 965.988C693.961 970.366 741.683 953.291 788.092 965.112C827.495 975.182 861.645 1012.83 906.302 1029.91" stroke="#6D5F5E" stroke-width="17.5126" stroke-miterlimit="10" stroke-linecap="round" stroke-linejoin="round"/>
<path d="M268.841 1073.69C325.319 1036.91 322.254 1069.31 403.688 1047.86C440.027 1038.23 480.306 1004.52 531.968 1001.01C572.247 997.948 616.905 1024.22 665.94 1028.16C707.095 1031.66 755.255 1011.96 802.539 1022.47C843.693 1031.22 879.594 1068.44 925.127 1083.76" stroke="#6D5F5E" stroke-width="17.5126" stroke-miterlimit="10" stroke-linecap="round" stroke-linejoin="round"/>
<path d="M269.718 1123.6C331.45 1093.83 324.883 1126.23 408.943 1108.72C446.595 1100.83 488.626 1067.12 540.726 1063.62C582.318 1060.99 627.851 1087.26 677.762 1090.33C720.231 1092.95 768.828 1071.5 816.988 1079.82C859.456 1087.26 897.984 1123.6 944.392 1136.74" stroke="#6D5F5E" stroke-width="17.5126" stroke-miterlimit="10" stroke-linecap="round" stroke-linejoin="round"/>
<path d="M271.03 1173.95C336.703 1150.75 327.509 1183.14 413.758 1169.13C452.724 1162.57 496.506 1129.73 549.481 1126.23C592.387 1123.6 639.234 1150.75 689.582 1152.5C733.364 1154.25 782.399 1130.61 830.997 1137.17C875.216 1143.3 915.933 1178.77 963.218 1189.71" stroke="#6D5F5E" stroke-width="17.5126" stroke-miterlimit="10" stroke-linecap="round" stroke-linejoin="round"/>
<path d="M272.344 1224.3C341.519 1207.66 330.135 1239.62 418.136 1228.68C458.416 1223.86 504.386 1191.02 557.8 1188.4C601.581 1186.21 650.179 1213.79 700.966 1215.1C746.499 1215.98 795.534 1190.59 845.007 1195.4C890.978 1199.78 934.322 1234.37 982.482 1243.13" stroke="#6D5F5E" stroke-width="17.5126" stroke-miterlimit="10" stroke-linecap="round" stroke-linejoin="round"/>
<path d="M273.66 1274.65C345.9 1263.7 332.328 1295.23 422.08 1288.22C463.672 1284.72 511.394 1252.76 566.121 1250.57C611.216 1248.82 660.69 1277.27 712.352 1277.71C759.198 1278.15 809.109 1250.57 859.458 1253.63C907.18 1256.7 953.151 1289.97 1002.19 1295.66" stroke="#6D5F5E" stroke-width="17.5126" stroke-miterlimit="10" stroke-linecap="round" stroke-linejoin="round"/>
</g>
<path d="M745.806 526.549C755.22 527.849 762.494 517.882 759.071 508.349C757.359 503.149 754.364 498.382 749.657 495.349C735.108 486.249 680.762 485.382 652.092 506.182C626.845 525.249 703.014 520.482 745.806 526.549Z" fill="#423232"/>
<path d="M864.336 531.316C856.633 531.316 851.926 521.35 855.778 513.116C857.917 508.783 860.913 504.883 865.192 502.716C878.457 496.216 913.974 500.116 929.807 522.216C943.928 541.716 899.853 530.883 864.336 531.316Z" fill="#423232"/>
<path d="M730.825 581.149C703.438 567.283 660.219 577.683 660.219 577.683" stroke="#423232" stroke-width="13" stroke-miterlimit="10" stroke-linecap="round" stroke-linejoin="round"/>
<path d="M899.853 589.816C899.853 589.816 888.727 577.683 847.647 587.216" stroke="#423232" stroke-width="13" stroke-miterlimit="10" stroke-linecap="round" stroke-linejoin="round"/>
<path d="M807.566 767.297C791.966 776.397 769.433 773.797 749.933 764.264" stroke="#423232" stroke-width="13" stroke-miterlimit="10" stroke-linecap="round" stroke-linejoin="round"/>
<path d="M752.098 749.097C752.098 749.097 752.098 768.164 730.864 775.964" stroke="#423232" stroke-width="13" stroke-miterlimit="10" stroke-linecap="round" stroke-linejoin="round"/>
<path d="M996.085 315.087C996.085 251.387 944.518 199.821 880.818 199.821C824.052 199.821 776.818 240.987 767.285 294.721C778.985 298.621 790.252 303.821 800.652 311.187C796.752 318.987 808.452 318.987 804.552 326.787C851.352 348.454 884.719 383.554 914.185 425.587C961.419 411.287 996.085 367.087 996.085 315.087Z" fill="#423232"/>
<path d="M940.619 573.354C952.319 507.487 948.852 481.487 941.919 450.72C939.752 441.187 937.152 432.087 934.119 422.987C911.152 404.787 886.886 393.087 850.052 387.887C750.819 374.454 672.386 383.554 588.752 401.754C536.319 413.02 547.152 594.154 526.786 617.987C523.319 605.854 506.419 556.454 450.952 563.387C398.519 569.887 378.586 691.22 486.919 732.82C486.052 756.654 463.952 800.854 446.186 810.82C446.186 810.82 443.152 779.187 408.486 737.587C373.819 695.987 304.486 588.087 351.286 430.354C398.086 272.62 609.986 190.287 807.152 270.454C840.952 284.32 868.686 303.821 890.786 324.187C942.786 371.854 970.519 441.187 962.286 510.954C960.119 534.354 953.619 556.887 940.619 573.354Z" fill="#423232"/>
<path d="M369.052 456.354C439.891 456.354 497.318 398.927 497.318 328.087C497.318 257.248 439.891 199.821 369.052 199.821C298.212 199.821 240.785 257.248 240.785 328.087C240.785 398.927 298.212 456.354 369.052 456.354Z" fill="#423232"/>
<path d="M971.817 583.754C959.683 578.554 941.483 574.221 920.25 571.187C923.283 536.954 915.917 510.954 915.917 510.954C915.05 528.721 910.283 558.187 908.55 569.454C878.217 565.987 843.984 563.821 814.517 562.954C812.784 536.954 807.15 506.621 807.15 506.621C807.15 519.187 804.983 547.354 803.25 562.521C795.883 562.521 788.517 562.087 782.017 562.087C777.683 562.087 773.783 562.087 769.45 562.087C765.55 529.587 756.45 491.021 756.45 491.021C757.317 507.921 754.283 543.887 752.983 562.087C645.517 562.954 549.75 573.787 549.75 573.787L540.217 401.754C581.383 314.654 914.617 275.654 947.55 344.121C1007.35 467.187 971.817 583.754 971.817 583.754Z" fill="#423232"/>
<path d="M971.819 583.754C971.819 583.754 954.052 593.721 937.152 591.554C937.152 591.554 939.752 578.121 940.186 574.654C940.619 574.654 965.319 579.421 971.819 583.754Z" fill="#423232"/>
<path opacity="0.6" d="M865.081 677.253C865.081 677.253 870.281 706.72 904.514 721.453C913.181 724.92 922.281 719.287 922.281 709.753C921.848 709.753 867.248 680.72 865.081 677.253Z" fill="#B7AEA9"/>
<path opacity="0.6" d="M782.747 606.187C782.747 606.187 810.48 578.453 824.347 575.42L787.514 584.087L782.747 606.187Z" fill="#B7AEA9"/>
<path opacity="0.6" d="M597.718 677.254C597.718 677.254 613.751 713.654 661.851 722.321C709.951 731.421 753.718 696.754 774.084 638.687C774.084 638.687 757.618 692.421 691.751 702.387C626.318 713.221 597.718 677.254 597.718 677.254Z" fill="#B7AEA9"/>
<path opacity="0.29" d="M675.281 482.687C614.181 482.687 564.347 533.821 563.914 596.221C563.914 625.687 574.747 652.554 592.514 672.054L749.814 513.021C730.314 493.954 704.314 482.687 675.281 482.687Z" fill="#DBC3ED"/>
<path opacity="0.23" d="M749.817 513.021L592.517 672.054C612.45 694.154 640.617 707.587 671.817 707.587C732.05 707.587 781.45 657.754 783.183 595.787C784.05 563.287 771.05 533.821 749.817 513.021Z" fill="#C4ADD8"/>
<path opacity="0.29" d="M928.782 482.687C882.416 482.687 843.416 533.821 841.682 596.221C840.816 621.354 846.449 644.321 855.982 662.954L993.349 526.887C979.049 500.021 955.649 482.687 928.782 482.687Z" fill="#DBC3ED"/>
<path opacity="0.23" d="M993.349 526.453L855.982 662.52C870.282 689.82 893.682 707.586 920.982 707.586C966.482 707.586 1005.48 657.753 1008.08 595.786C1008.95 570.22 1003.32 545.953 993.349 526.453Z" fill="#C4ADD8"/>
<path d="M783.182 596.221C781.882 658.187 732.049 708.021 671.816 708.021C611.582 708.021 563.482 658.187 563.482 596.221C563.916 533.821 613.749 482.687 674.849 482.687C735.949 482.687 784.916 533.821 783.182 596.221Z" stroke="#EBF6F9" stroke-width="13" stroke-miterlimit="10" stroke-linecap="round" stroke-linejoin="round"/>
<path d="M1008.08 596.221C1005.48 658.187 966.481 708.021 920.981 708.021C875.481 708.021 839.948 658.187 841.681 596.221C843.414 533.821 882.414 482.687 928.781 482.687C975.148 482.687 1010.68 533.821 1008.08 596.221Z" stroke="#EBF6F9" stroke-width="13" stroke-miterlimit="10" stroke-linecap="round" stroke-linejoin="round"/>
<path d="M564.78 584.087H503.247" stroke="#EBF6F9" stroke-width="13" stroke-miterlimit="10" stroke-linecap="round" stroke-linejoin="round"/>
<path d="M783.615 584.087C783.615 584.087 835.182 564.153 841.682 584.087" stroke="#EBF6F9" stroke-width="13" stroke-miterlimit="10" stroke-linecap="round" stroke-linejoin="round"/>
</g>
<defs>
<filter id="filter0_d_422_3238" x="776.71" y="675.562" width="98.4902" height="53.9751" filterUnits="userSpaceOnUse" color-interpolation-filters="sRGB">
<feFlood flood-opacity="0" result="BackgroundImageFix"/>
<feColorMatrix in="SourceAlpha" type="matrix" values="0 0 0 0 0 0 0 0 0 0 0 0 0 0 0 0 0 0 127 0" result="hardAlpha"/>
<feOffset dy="4"/>
<feGaussianBlur stdDeviation="2"/>
<feComposite in2="hardAlpha" operator="out"/>
<feColorMatrix type="matrix" values="0 0 0 0 0 0 0 0 0 0 0 0 0 0 0 0 0 0 0.25 0"/>
<feBlend mode="normal" in2="BackgroundImageFix" result="effect1_dropShadow_422_3238"/>
<feBlend mode="normal" in="SourceGraphic" in2="effect1_dropShadow_422_3238" result="shape"/>
</filter>
</defs>
</svg>
