<svg width="1300" height="1300" viewBox="0 0 1300 1300" fill="none" xmlns="http://www.w3.org/2000/svg">
<path d="M650 1300C290.71 1300 0 1008.86 0 650C0 290.71 291.141 0 650 0C1009.29 0 1300 291.141 1300 650C1300.43 1009.29 1009.29 1300 650 1300Z" fill="#B5E2DC"/>
<mask id="mask0_426_5600" style="mask-type:alpha" maskUnits="userSpaceOnUse" x="0" y="0" width="1300" height="1300">
<path d="M650 1300C290.71 1300 0 1008.86 0 650C0 290.71 291.141 0 650 0C1009.29 0 1300 291.141 1300 650C1300.43 1009.29 1009.29 1300 650 1300Z" fill="#F7C0B5"/>
</mask>
<g mask="url(#mask0_426_5600)">
<path d="M1014 1197.33C1010.97 1199.5 1007.5 1201.67 1004.47 1203.83C1001 1206 997.965 1208.17 994.499 1209.9C991.465 1211.63 988.865 1213.37 985.832 1215.1C985.399 1215.53 984.965 1215.53 984.532 1215.97C974.565 1222.03 964.165 1227.67 953.765 1232.87C950.732 1234.6 947.265 1236.33 944.232 1237.63C944.232 1237.63 943.799 1238.07 943.365 1238.07C939.899 1239.8 936.432 1241.53 932.965 1243.27C926.032 1246.73 918.665 1249.77 911.732 1252.8C908.265 1254.53 904.365 1255.83 900.899 1257.13C897.432 1258.43 893.532 1260.17 890.065 1261.47C886.599 1262.77 882.699 1264.5 879.232 1265.8C879.232 1265.8 879.232 1265.8 878.799 1265.8C875.332 1267.1 871.432 1268.4 867.965 1269.7C860.165 1272.3 851.932 1274.9 844.132 1277.5C841.532 1278.37 838.499 1279.23 835.899 1280.1C827.665 1282.7 819.432 1284.87 811.199 1286.6C808.165 1287.47 805.132 1287.9 801.665 1288.77C793.865 1290.5 785.632 1292.23 777.832 1293.97C776.099 1294.4 774.799 1294.4 773.065 1294.83C770.465 1295.27 767.432 1295.7 764.832 1296.13C760.932 1296.57 757.465 1297.43 753.565 1297.87C751.832 1298.3 750.099 1298.3 748.365 1298.73C746.199 1299.17 743.599 1299.6 740.999 1299.6C734.065 1300.47 726.699 1301.33 719.765 1302.2C717.599 1302.63 714.999 1302.63 712.832 1303.07H712.399C709.365 1303.5 706.332 1303.5 703.299 1303.93C700.265 1304.37 697.232 1304.37 694.199 1304.37C692.465 1304.37 690.299 1304.8 688.565 1304.8C685.099 1304.8 682.065 1305.23 679.032 1305.23C674.699 1305.23 670.799 1305.67 666.465 1305.67C662.132 1305.67 658.232 1305.67 653.899 1305.67C650.865 1305.67 647.832 1305.67 644.799 1305.67C462.365 1303.07 297.699 1225.5 180.699 1102.43C180.699 1102.43 180.699 1102 180.266 1102C193.699 1075.57 243.532 1027.9 295.532 988.466C361.399 938.632 454.565 907.866 454.565 907.866C454.565 907.866 515.665 897.899 742.299 945.132C915.199 981.532 988.865 1129.3 1014 1197.33Z" fill="#F4C39B"/>
<path d="M790.397 1065.16C781.297 1109.8 722.364 1136.23 623.131 1096.36C501.364 1046.96 454.564 907.865 454.564 907.865C448.064 808.198 432.897 722.832 432.897 722.832C573.731 710.698 740.131 875.365 740.131 875.365L759.197 956.832C760.931 963.765 764.397 969.832 769.597 974.165C778.697 989.765 796.464 1036.56 790.397 1065.16Z" fill="#F4C39B"/>
<path d="M769.599 974.598C686.832 970.265 625.732 958.132 560.299 840.698C615.765 889.665 681.199 908.298 750.099 916.965L759.199 956.832C760.932 964.198 764.399 970.265 769.599 974.598Z" fill="#EFBDA5"/>
<path d="M940.767 452.432C948.567 488.832 952.467 518.299 931.234 615.365C910.001 712.432 950.734 809.499 848.467 898.332C779.567 958.132 659.101 969.399 562.901 903.965C530.401 881.865 500.501 851.099 476.234 810.799C457.167 779.165 435.067 749.265 410.367 721.965C376.134 684.699 334.968 609.732 355.334 477.132C388.267 261.332 601.901 236.632 728.001 260.466C854.101 284.299 919.534 356.232 940.767 452.432Z" fill="#F4C39B"/>
<path d="M526.065 621.865C526.065 621.865 512.632 556.865 449.365 564.665C394.765 571.599 375.699 702.465 499.632 738.865" fill="#F4C39B"/>
<path d="M495.73 679.498C495.73 679.498 480.13 669.532 481.863 652.198C484.463 631.832 481.863 619.265 472.33 615.365C448.497 605.398 443.73 633.132 444.597 636.598" stroke="#423232" stroke-width="13.4786" stroke-miterlimit="10" stroke-linecap="round" stroke-linejoin="round"/>
<path d="M826.365 721.533C826.365 721.533 842.831 722.399 858.431 703.766C867.098 693.366 874.465 680.366 869.698 676.466C864.931 672.133 786.498 684.266 781.298 694.666C776.098 705.066 806.432 721.533 826.365 721.533Z" fill="#EFBDA5"/>
<path d="M839.364 575.932C839.364 575.932 840.23 617.099 866.664 663.032C878.363 683.399 860.597 716.765 822.03 722.399" stroke="#423232" stroke-width="13.4786" stroke-miterlimit="10" stroke-linecap="round" stroke-linejoin="round"/>
<path opacity="0.42" d="M604.498 743.632C629.148 743.632 649.131 727.141 649.131 706.799C649.131 686.456 629.148 669.965 604.498 669.965C579.847 669.965 559.864 686.456 559.864 706.799C559.864 727.141 579.847 743.632 604.498 743.632Z" fill="#ED938A"/>
<path opacity="0.42" d="M924.298 670.832C922.998 695.098 923.431 718.932 921.698 742.765C902.631 738.432 888.765 724.132 888.765 707.232C888.765 689.032 903.931 674.298 924.298 670.832Z" fill="#ED938A"/>
<path d="M1158.24 1465.29H62.7734C62.7734 1465.29 69.2734 1264.23 135.14 1120.79C184.973 1012.46 302.407 952.226 389.94 921.026C414.64 912.359 437.173 905.859 454.507 901.092C454.507 903.259 454.94 904.992 454.94 907.159C454.94 907.159 501.74 1046.26 623.507 1095.66C722.74 1135.96 781.673 1109.09 790.773 1064.46C796.407 1035.86 778.64 989.059 769.54 973.892C764.34 969.559 760.873 963.059 759.14 956.559L755.673 942.259C763.907 940.526 771.707 938.359 779.507 935.759C782.107 934.892 784.273 934.026 786.873 933.159C842.773 947.892 926.84 982.992 1026.07 1066.19C1138.31 1160.23 1158.24 1465.29 1158.24 1465.29Z" fill="#CE3E3E"/>
<mask id="mask1_426_5600" style="mask-type:alpha" maskUnits="userSpaceOnUse" x="62" y="901" width="1097" height="565">
<path d="M1158.24 1465.29H62.7734C62.7734 1465.29 69.2734 1264.23 135.14 1120.79C184.973 1012.46 302.407 952.226 389.94 921.026C414.64 912.359 437.173 905.859 454.507 901.092C454.507 903.259 454.94 904.992 454.94 907.159C454.94 907.159 501.74 1046.26 623.507 1095.66C722.74 1135.96 781.673 1109.09 790.773 1064.46C796.407 1035.86 778.64 989.059 769.54 973.892C764.34 969.559 760.873 963.059 759.14 956.559L755.673 942.259C763.907 940.526 771.707 938.359 779.507 935.759C782.107 934.892 784.273 934.026 786.873 933.159C842.773 947.892 926.84 982.992 1026.07 1066.19C1138.31 1160.23 1158.24 1465.29 1158.24 1465.29Z" fill="#CE3E3E"/>
</mask>
<g mask="url(#mask1_426_5600)">
<path d="M512.418 978.396L454.2 1036.61L512.418 1094.83L570.636 1036.61L512.418 978.396Z" fill="white"/>
<path d="M740.422 978.569L682.204 1036.79L740.422 1095L798.64 1036.79L740.422 978.569Z" fill="white"/>
<path d="M284.111 978.53L225.894 1036.75L284.111 1094.97L342.329 1036.75L284.111 978.53Z" fill="white"/>
<path d="M965.68 978.395L907.462 1036.61L965.68 1094.83L1023.9 1036.61L965.68 978.395Z" fill="white"/>
<path d="M406.968 1203.91L348.75 1262.13L406.968 1320.35L465.186 1262.13L406.968 1203.91Z" fill="white"/>
<path d="M635.278 1203.78L577.061 1262L635.278 1320.21L693.496 1262L635.278 1203.78Z" fill="white"/>
<path d="M860.23 1203.91L802.012 1262.13L860.23 1320.35L918.447 1262.13L860.23 1203.91Z" fill="white"/>
</g>
<path d="M719.707 1077.89C719.707 1077.89 689.806 1100.43 696.306 1121.66C702.373 1142.89 760.44 1139.43 771.706 1121.66C782.54 1103.89 734.006 1073.99 719.707 1077.89Z" fill="#CE3E3E"/>
<path d="M719.271 1077.46C719.705 1077.89 719.705 1077.89 720.138 1078.33C720.138 1077.89 720.138 1077.46 720.138 1077.46C719.705 1077.03 719.271 1077.03 719.271 1077.46Z" fill="white"/>
<path d="M604.44 1060.13C482.674 1010.73 454.94 907.159 454.94 907.159C454.94 904.992 454.507 903.259 454.507 901.092C454.074 894.592 452.774 875.959 451.907 869.459C444.107 872.059 434.574 877.259 425.907 882.026C410.307 891.126 397.74 904.126 389.94 920.159C389.94 920.592 389.507 920.592 389.507 921.026C388.64 1034.99 500.007 1122.09 587.107 1153.29C639.974 1172.36 699.34 1145.06 716.24 1091.76C717.54 1086.99 718.84 1082.66 719.707 1077.89C719.274 1077.46 719.274 1077.46 718.84 1077.03C690.674 1083.09 652.107 1079.19 604.44 1060.13Z" fill="white"/>
<path d="M825.873 1041.93C818.506 981.693 799.006 958.293 779.939 935.326C772.139 937.926 759.139 940.959 750.906 942.693C750.906 942.693 779.073 979.093 771.706 1028.49C768.239 1051.89 750.473 1069.66 720.139 1076.59C720.139 1077.03 720.139 1077.03 719.706 1077.46C730.973 1090.46 743.539 1101.73 757.406 1110.83C779.939 1125.99 811.139 1116.03 820.239 1090.46C825.873 1075.73 828.039 1058.83 825.873 1041.93Z" fill="white"/>
<path d="M277.274 1465.29L257.774 1304.96" stroke="#544D4D" stroke-width="13.4786" stroke-miterlimit="10" stroke-linecap="round" stroke-linejoin="round"/>
<path d="M1033.88 1249.93C1033.88 1249.93 1020.88 1281.56 1024.78 1313.19C1028.68 1344.83 1039.94 1391.19 1023.91 1465.29" stroke="#544D4D" stroke-width="13.4786" stroke-miterlimit="10" stroke-linecap="round" stroke-linejoin="round"/>
<path d="M745.801 526.548C755.215 527.848 762.489 517.882 759.066 508.348C757.354 503.148 754.359 498.382 749.652 495.348C735.103 486.248 680.757 485.382 652.087 506.182C626.84 525.248 703.009 520.482 745.801 526.548Z" fill="#423232"/>
<path d="M864.334 531.316C856.631 531.316 851.924 521.349 855.776 513.116C857.915 508.782 860.911 504.882 865.19 502.716C878.455 496.216 913.972 500.116 929.805 522.216C943.926 541.716 899.851 530.882 864.334 531.316Z" fill="#423232"/>
<path d="M730.821 581.149C703.434 567.282 660.215 577.682 660.215 577.682" stroke="#423232" stroke-width="13.4786" stroke-miterlimit="10" stroke-linecap="round" stroke-linejoin="round"/>
<path d="M899.853 589.815C899.853 589.815 888.727 577.682 847.647 587.215" stroke="#423232" stroke-width="13.4786" stroke-miterlimit="10" stroke-linecap="round" stroke-linejoin="round"/>
<path d="M816.926 774.866C805.693 779.808 800.302 769.923 782.78 778.46C770.2 784.301 763.46 786.098 748.185 777.112C738.3 770.822 726.17 779.808 714.488 762.735" stroke="#423232" stroke-width="13.4786" stroke-miterlimit="10" stroke-linecap="round" stroke-linejoin="round"/>
<path d="M1017.76 802.553C984.83 737.986 1019.5 725.42 999.564 676.02C970.097 603.22 972.264 592.82 975.73 576.353C1001.73 453.72 1018.63 321.12 866.964 242.687C696.23 154.287 457.464 190.253 368.631 299.453C293.231 391.32 315.331 439.42 296.264 504.42C277.631 567.253 193.564 568.986 232.131 698.986C251.631 764.853 173.197 799.52 190.531 910.453C311.431 964.62 437.53 990.186 566.23 997.986C601.33 911.753 492.997 892.253 491.697 763.553C491.697 754.886 492.131 746.653 492.997 738.853C372.964 701.153 392.464 572.886 446.631 565.953C484.331 561.186 504.264 582.42 514.23 600.186C515.097 602.786 516.397 604.953 517.697 607.553C534.164 635.72 621.264 610.153 679.764 542.12C742.597 469.32 737.83 474.953 769.464 431.187C833.164 343.653 831.43 433.786 847.464 445.92C869.997 462.82 855.697 475.386 890.797 533.453C906.397 559.453 934.997 585.02 928.064 615.786C906.83 712.42 947.564 809.92 845.297 898.753C822.33 918.686 790.264 936.02 752.564 943.386C754.297 956.386 759.497 975.453 771.197 995.82C860.03 989.753 949.297 977.186 1038.56 962.02C1052.43 913.92 1045.5 856.72 1017.76 802.553Z" fill="#7E5858"/>
<path d="M518.136 607.12C516.836 604.953 515.536 602.353 514.669 599.753C515.969 602.353 517.269 604.953 518.136 607.12Z" fill="#FEE4BF"/>
<path d="M941.065 614.053C941.065 614.053 1055.46 576.786 1012.13 466.72C988.298 406.053 986.998 337.153 962.298 292.953C928.065 231.853 873.465 213.653 792.865 230.553C654.198 259.587 879.098 226.22 892.965 326.32C906.398 426.42 941.065 614.053 941.065 614.053Z" fill="#7E5858"/>
</g>
</svg>
