<svg width="1300" height="1300" viewBox="0 0 1300 1300" fill="none" xmlns="http://www.w3.org/2000/svg">
<path d="M650 1300C290.71 1300 0 1008.86 0 650C0 290.71 291.141 0 650 0C1009.29 0 1300 291.141 1300 650C1300.43 1009.29 1009.29 1300 650 1300Z" fill="#F5EB9F"/>
<mask id="mask0_422_4012" style="mask-type:alpha" maskUnits="userSpaceOnUse" x="0" y="0" width="1300" height="1300">
<path d="M650 1300C290.71 1300 0 1008.86 0 650C0 290.71 291.141 0 650 0C1009.29 0 1300 291.141 1300 650C1300.43 1009.29 1009.29 1300 650 1300Z" fill="#F7C0B5"/>
</mask>
<g mask="url(#mask0_422_4012)">
<path d="M1012.27 1197.33C1009.23 1199.5 1005.77 1201.66 1002.73 1203.83C999.268 1206 996.235 1208.16 992.768 1209.9C989.735 1211.63 987.135 1213.36 984.101 1215.1C983.668 1215.53 983.235 1215.53 982.801 1215.96C972.835 1222.03 962.435 1227.66 952.035 1232.86C949.001 1234.6 945.535 1236.33 942.501 1237.63C942.501 1237.63 942.068 1238.06 941.635 1238.06C938.168 1239.8 934.701 1241.53 931.235 1243.26C924.301 1246.73 916.935 1249.76 910.001 1252.8C906.535 1254.53 902.635 1255.83 899.168 1257.13C895.701 1258.43 891.801 1260.16 888.335 1261.46C884.868 1262.76 880.968 1264.5 877.501 1265.8C877.501 1265.8 877.501 1265.8 877.068 1265.8C873.601 1267.1 869.701 1268.4 866.235 1269.7C858.435 1272.3 850.201 1274.9 842.401 1277.5C839.801 1278.36 836.768 1279.23 834.168 1280.1C825.935 1282.7 817.702 1284.86 809.468 1286.6C806.435 1287.46 803.401 1287.9 799.935 1288.76C792.135 1290.5 783.901 1292.23 776.101 1293.96C774.368 1294.4 773.068 1294.4 771.335 1294.83C768.735 1295.26 765.701 1295.7 763.101 1296.13C759.201 1296.56 755.735 1297.43 751.835 1297.86C750.102 1298.3 748.368 1298.3 746.635 1298.73C744.468 1299.16 741.868 1299.6 739.268 1299.6C732.335 1300.46 724.968 1301.33 718.035 1302.2C715.868 1302.63 713.268 1302.63 711.102 1303.06H710.668C707.635 1303.5 704.602 1303.5 701.568 1303.93C698.535 1304.36 695.502 1304.36 692.468 1304.36C690.735 1304.36 688.568 1304.8 686.835 1304.8C683.368 1304.8 680.335 1305.23 677.302 1305.23C672.968 1305.23 669.068 1305.66 664.735 1305.66C660.402 1305.66 656.502 1305.66 652.168 1305.66C649.135 1305.66 646.102 1305.66 643.068 1305.66C460.635 1303.06 295.968 1225.5 178.968 1102.43C178.968 1102.43 178.968 1102 178.535 1102C191.968 1075.56 241.802 1027.9 293.802 988.464C359.668 938.631 452.835 907.865 452.835 907.865C452.835 907.865 513.935 897.898 740.568 945.131C913.468 981.531 987.135 1129.3 1012.27 1197.33Z" fill="#D39E91"/>
<path d="M788.67 1065.16C779.57 1109.8 720.636 1136.23 621.403 1096.36C499.637 1046.96 452.837 907.864 452.837 907.864C446.337 808.198 431.17 722.831 431.17 722.831C572.003 710.698 738.403 875.364 738.403 875.364L757.47 956.831C759.203 963.764 762.67 969.831 767.87 974.164C776.97 989.764 794.736 1036.56 788.67 1065.16Z" fill="#D39E91"/>
<path d="M767.868 974.598C685.102 970.264 624.002 958.131 558.568 840.698C614.035 889.664 679.468 908.298 748.368 916.964L757.468 956.831C759.202 964.198 762.668 970.264 767.868 974.598Z" fill="#B07370"/>
<path d="M939.036 452.431C946.836 488.831 950.736 518.298 929.503 615.365C908.269 712.431 949.002 809.498 846.736 898.331C777.836 958.131 657.369 969.398 561.169 903.965C528.669 881.865 498.769 851.098 474.503 810.798C455.436 779.165 433.336 749.265 408.636 721.965C374.403 684.698 333.236 609.731 353.603 477.131C386.536 261.332 600.169 236.632 726.269 260.465C852.369 284.298 917.803 356.231 939.036 452.431Z" fill="#D39E91"/>
<path d="M524.338 621.865C524.338 621.865 510.905 556.865 447.638 564.665C393.038 571.598 373.971 702.465 497.905 738.865" fill="#D39E91"/>
<path d="M493.999 679.498C493.999 679.498 478.399 669.531 480.133 652.198C482.733 631.831 480.133 619.265 470.599 615.365C446.766 605.398 441.999 633.131 442.866 636.598" stroke="#99807F" stroke-width="13.4786" stroke-miterlimit="10" stroke-linecap="round" stroke-linejoin="round"/>
<path d="M824.639 721.531C824.639 721.531 841.106 722.398 856.706 703.765C865.373 693.365 872.739 680.365 867.973 676.465C863.206 672.131 784.773 684.265 779.573 694.665C774.373 705.065 804.706 721.531 824.639 721.531Z" fill="#B07370"/>
<path d="M837.638 575.932C837.638 575.932 838.505 617.098 864.938 663.031C876.638 683.398 858.871 716.765 820.305 722.398" stroke="#99807F" stroke-width="13.4786" stroke-miterlimit="10" stroke-linecap="round" stroke-linejoin="round"/>
<path d="M377.814 891.366C377.814 891.366 441.081 866.233 452.781 865.366L453.648 875.333C453.648 875.333 403.381 897 400.348 900.466C397.748 903.5 377.814 891.366 377.814 891.366Z" fill="#7E5D6D"/>
<path d="M1158.25 1453.4H62.7793C62.7793 1453.4 69.2793 1252.33 135.146 1108.9C184.979 1000.57 304.579 929.066 391.679 897.866C416.379 889.2 435.446 879.666 453.213 874.9C453.213 877.066 454.513 893.1 454.513 894.833C454.513 894.833 522.979 962 677.246 970.233C748.746 974.133 755.679 929.5 755.679 929.5C763.912 927.766 771.712 925.6 779.512 923C782.112 922.133 800.312 914.766 802.479 913.9C858.379 928.633 926.846 970.233 1026.08 1053.43C1138.31 1148.33 1158.25 1453.4 1158.25 1453.4Z" fill="#4C4444"/>
<path d="M947.212 1012.7C975.213 1012.7 997.912 990.001 997.912 962C997.912 933.999 975.213 911.3 947.212 911.3C919.211 911.3 896.512 933.999 896.512 962C896.512 990.001 919.211 1012.7 947.212 1012.7Z" fill="#FFFF8D"/>
<path d="M277.279 1453.4L257.779 1293.07" stroke="#544D4D" stroke-width="13.4786" stroke-miterlimit="10" stroke-linecap="round" stroke-linejoin="round"/>
<path d="M1033.88 1238.03C1033.88 1238.03 1020.88 1269.67 1024.78 1301.3C1028.68 1332.93 1039.94 1379.3 1023.91 1453.4" stroke="#544D4D" stroke-width="13.4786" stroke-miterlimit="10" stroke-linecap="round" stroke-linejoin="round"/>
<path d="M377.812 891.366C386.045 888.766 400.345 891.366 404.678 898.733C421.578 926.466 462.312 1007.5 479.212 1168.27C492.645 1293.93 472.278 1520.13 472.278 1520.13L51.5117 1500.2C51.5117 1500.2 64.0784 1286.57 100.912 1143.13C136.878 1004.03 231.345 941.633 377.812 891.366Z" fill="white"/>
<path d="M813.314 917.8C813.314 917.8 947.214 1169.57 908.214 1505.83H1197.25C1197.25 1505.83 1195.95 1238.9 1130.95 1093.73C1065.95 949 838.448 906.533 838.448 906.533C838.448 906.533 824.148 913.467 813.314 917.8Z" fill="white"/>
<path d="M813.308 917.8L802.908 914.767C802.908 914.767 818.075 907.4 824.575 903.067L828.475 900.9C828.475 900.9 849.275 910.433 856.642 913.9C864.008 917.367 831.075 933.4 831.075 933.4C831.075 933.4 814.608 917.8 813.308 917.8Z" fill="#7E5D6D"/>
<path d="M341.85 1040C341.85 1040 282.05 1082.03 287.683 1126.67C293.316 1171.3 477.483 1450.8 477.483 1450.8C477.483 1450.8 499.15 1299.13 474.45 1127.53C474.45 1127.53 456.683 1103.7 424.183 1079.87C402.516 1064.7 374.783 1048.67 341.85 1040Z" fill="#AD7E5A"/>
<path d="M1041.24 1126.67C1042.97 1098.93 978.841 1053.87 978.841 1053.87C953.274 1061.23 935.074 1072.93 922.074 1085.5C893.041 1112.8 889.141 1143.57 889.141 1143.57L890.874 1151.37C921.641 1285.27 912.541 1459.47 912.541 1459.47C912.541 1459.47 1039.51 1154.4 1041.24 1126.67Z" fill="#AD7E5A"/>
<path d="M474.013 1127.53C474.013 1127.53 443.68 1095.47 407.28 1072.93C326.68 1023.1 208.38 1000.13 207.08 961.566C206.213 918.233 350.08 827.667 445.413 796.9C445.413 797.333 445.413 797.767 445.413 798.2C445.413 798.633 445.413 799.066 445.413 799.933C445.413 800.8 445.413 801.667 445.847 802.533C445.847 803.833 446.28 805.133 446.28 806.433C446.28 807.3 446.28 807.733 446.713 808.6C449.747 834.6 452.347 863.633 454.513 894.4V894.833C454.513 894.833 434.58 901.333 448.88 1000.57C452.78 1024.83 467.513 1067.3 474.013 1127.53Z" fill="#AD7E5A"/>
<path d="M889.148 1141.4C889.148 1141.4 860.114 1028.73 845.814 992.767C831.514 957.233 804.648 916.933 803.348 914.767C820.248 906.967 835.414 897 848.848 885.3C862.281 873.6 873.114 861.9 882.214 850.2C930.748 875.767 1069.85 956.367 1076.78 996.667C1084.58 1040.43 916.014 1037.83 889.148 1141.4Z" fill="#AD7E5A"/>
<path d="M978.841 1053.87C953.274 1061.23 935.074 1072.93 922.074 1085.5C893.041 1112.8 889.141 1143.57 889.141 1143.57" stroke="#894B33" stroke-width="13.4786" stroke-miterlimit="10" stroke-linecap="round" stroke-linejoin="round"/>
<path d="M474.016 1127.53C474.016 1127.53 456.249 1103.7 423.749 1079.87C402.516 1064.27 374.783 1048.67 341.416 1039.57" stroke="#894B33" stroke-width="13.4786" stroke-miterlimit="10" stroke-linecap="round" stroke-linejoin="round"/>
<path d="M683.946 619.439C673.546 619.006 665.746 610.339 666.613 599.939L667.046 587.806C667.479 577.406 676.146 569.606 686.546 570.472C696.946 570.906 704.746 579.572 703.879 589.972L703.446 602.106C703.013 612.072 694.346 619.872 683.946 619.439Z" fill="#423232"/>
<path d="M866.379 625.939C856.846 625.506 849.479 617.272 849.913 607.739L850.346 596.472C850.779 586.939 859.013 579.572 868.546 580.006C878.079 580.439 885.446 588.672 885.013 598.206L884.579 609.472C884.146 619.006 875.913 626.372 866.379 625.939Z" fill="#423232"/>
<path d="M725.973 594.306C725.973 594.306 714.707 578.272 695.207 575.239C679.173 572.639 661.407 580.439 658.807 589.539" stroke="#423232" stroke-width="13.4786" stroke-miterlimit="10" stroke-linecap="round" stroke-linejoin="round"/>
<path d="M853.807 598.206C853.807 598.206 853.807 584.339 873.74 584.339C890.207 584.339 897.14 599.506 897.14 599.506" stroke="#423232" stroke-width="13.4786" stroke-miterlimit="10" stroke-linecap="round" stroke-linejoin="round"/>
<path d="M743.742 524.539C752.842 527.572 761.942 519.339 760.208 509.372C759.342 504.172 757.175 498.972 752.842 495.072C739.842 483.372 686.108 472.972 653.608 488.139C625.008 502.005 702.142 510.672 743.742 524.539Z" fill="#423232"/>
<path d="M873.31 531.472C865.944 534.072 858.144 526.272 859.444 517.172C859.877 512.406 861.61 507.639 865.077 504.172C875.477 493.772 911.01 485.539 933.544 501.572C953.044 515.006 907.11 518.906 873.31 531.472Z" fill="#423232"/>
<path d="M804.332 777.193C804.781 792.019 782.766 829.759 740.083 812.237C699.198 795.614 687.068 717.438 745.475 754.729C776.026 774.048 794.447 777.193 804.332 777.193Z" fill="white"/>
<path d="M812.87 775.396C812.87 775.396 794 785.729 745.477 754.729C687.519 717.438 699.2 795.614 740.085 812.237C782.768 829.759 804.783 791.57 804.334 777.193" stroke="#423232" stroke-width="13.4786" stroke-miterlimit="10" stroke-linecap="round" stroke-linejoin="round"/>
<path d="M705.941 765.961C705.941 765.961 736.493 786.179 745.479 784.382C754.914 783.034 753.566 796.063 796.248 797.411" stroke="#423232" stroke-width="13.4786" stroke-miterlimit="10" stroke-linecap="round" stroke-linejoin="round"/>
<path d="M653.716 247.358C398.049 236.524 322.649 457.524 344.316 584.058C365.549 706.258 443.116 762.591 443.116 762.591L495.549 744.391C495.549 744.391 475.183 737.458 455.683 723.158C388.516 672.024 409.316 579.291 455.249 573.224C501.183 567.591 520.683 600.524 528.049 618.724C552.316 538.558 518.083 518.624 552.316 461.858C659.349 346.158 735.616 419.391 786.316 439.324C832.683 457.524 862.583 434.991 888.149 411.158C903.316 396.858 924.983 400.758 924.983 400.758C924.983 400.758 895.516 257.758 653.716 247.358Z" fill="#99807F"/>
<path d="M749.235 669.066H648.268C621.835 669.066 600.602 647.833 600.602 621.4V580.233C600.602 553.8 621.835 532.566 648.268 532.566H749.235C775.668 532.566 796.901 553.8 796.901 580.233V621.4C796.901 647.833 775.235 669.066 749.235 669.066Z" stroke="#423232" stroke-width="13.4786" stroke-miterlimit="10" stroke-linecap="round" stroke-linejoin="round"/>
<path d="M923.435 532.566H873.602C856.269 532.566 841.969 546.866 841.969 564.2V601.9C848.035 623.566 856.702 644.366 869.702 663C871.002 663 872.302 663.433 873.602 663.433H923.435C940.769 663.433 955.069 649.133 955.069 631.8V564.2C955.502 546.433 941.202 532.566 923.435 532.566Z" stroke="#423232" stroke-width="13.4786" stroke-miterlimit="10" stroke-linecap="round" stroke-linejoin="round"/>
<path d="M796.9 572C811.634 570.267 830.267 568.967 845.867 570.7" stroke="#423232" stroke-width="13.4786" stroke-miterlimit="10" stroke-linecap="round" stroke-linejoin="round"/>
<path d="M600.598 575.033L500.064 578.5" stroke="#423232" stroke-width="13.4786" stroke-miterlimit="10" stroke-linecap="round" stroke-linejoin="round"/>
</g>
</svg>
