<svg width="1300" height="1300" viewBox="0 0 1300 1300" fill="none" xmlns="http://www.w3.org/2000/svg">
<path d="M650 1300C290.71 1300 0 1008.86 0 650C0 290.71 291.141 0 650 0C1009.29 0 1300 291.141 1300 650C1300.43 1009.29 1009.29 1300 650 1300Z" fill="#FFD599"/>
<mask id="mask0_426_4308" style="mask-type:alpha" maskUnits="userSpaceOnUse" x="0" y="0" width="1300" height="1300">
<path d="M650 1300C290.71 1300 0 1008.86 0 650C0 290.71 291.141 0 650 0C1009.29 0 1300 291.141 1300 650C1300.43 1009.29 1009.29 1300 650 1300Z" fill="#F7C0B5"/>
</mask>
<g mask="url(#mask0_426_4308)">
<path d="M1014.87 1197.33C1011.84 1199.5 1008.37 1201.66 1005.34 1203.83C1001.87 1206 998.836 1208.16 995.37 1209.9C992.336 1211.63 989.736 1213.36 986.703 1215.1C986.27 1215.53 985.836 1215.53 985.403 1215.96C975.436 1222.03 965.036 1227.66 954.636 1232.86C951.603 1234.6 948.136 1236.33 945.103 1237.63C945.103 1237.63 944.67 1238.06 944.236 1238.06C940.77 1239.8 937.303 1241.53 933.836 1243.26C926.903 1246.73 919.536 1249.76 912.603 1252.8C909.136 1254.53 905.236 1255.83 901.77 1257.13C898.303 1258.43 894.403 1260.16 890.936 1261.46C887.47 1262.76 883.57 1264.5 880.103 1265.8C880.103 1265.8 880.103 1265.8 879.67 1265.8C876.203 1267.1 872.303 1268.4 868.836 1269.7C861.036 1272.3 852.803 1274.9 845.003 1277.5C842.403 1278.36 839.37 1279.23 836.77 1280.1C828.536 1282.7 820.303 1284.86 812.07 1286.6C809.036 1287.46 806.003 1287.9 802.536 1288.76C794.736 1290.5 786.503 1292.23 778.703 1293.96C776.97 1294.4 775.67 1294.4 773.936 1294.83C771.336 1295.26 768.303 1295.7 765.703 1296.13C761.803 1296.56 758.336 1297.43 754.436 1297.86C752.703 1298.3 750.97 1298.3 749.236 1298.73C747.07 1299.16 744.47 1299.6 741.87 1299.6C734.936 1300.46 727.57 1301.33 720.636 1302.2C718.47 1302.63 715.87 1302.63 713.703 1303.06H713.27C710.236 1303.5 707.203 1303.5 704.17 1303.93C701.136 1304.36 698.103 1304.36 695.07 1304.36C693.336 1304.36 691.17 1304.8 689.436 1304.8C685.97 1304.8 682.936 1305.23 679.903 1305.23C675.57 1305.23 671.67 1305.66 667.336 1305.66C663.003 1305.66 659.103 1305.66 654.77 1305.66C651.736 1305.66 648.703 1305.66 645.67 1305.66C463.237 1303.06 298.57 1225.5 181.57 1102.43C181.57 1102.43 181.57 1102 181.137 1102C194.57 1075.56 244.403 1027.9 296.403 988.465C362.27 938.631 455.437 907.865 455.437 907.865C455.437 907.865 516.537 897.898 743.17 945.131C916.07 981.531 989.736 1129.3 1014.87 1197.33Z" fill="#AD827B"/>
<path d="M791.273 1065.16C782.173 1109.8 723.24 1136.23 624.007 1096.36C502.24 1046.96 455.44 907.864 455.44 907.864C448.94 808.198 433.773 722.831 433.773 722.831C574.607 710.698 741.007 875.364 741.007 875.364L760.073 956.831C761.807 963.764 765.273 969.831 770.473 974.164C779.573 989.764 797.34 1036.56 791.273 1065.16Z" fill="#AD827B"/>
<path d="M770.468 974.598C687.701 970.264 626.601 958.131 561.168 840.698C616.635 889.665 682.068 908.298 750.968 916.964L760.068 956.831C761.801 964.198 765.268 970.264 770.468 974.598Z" fill="#8E5650"/>
<path d="M941.63 452.432C949.43 488.832 953.33 518.298 932.096 615.365C910.863 712.431 951.596 809.498 849.33 898.331C780.43 958.131 659.963 969.398 563.763 903.965C531.263 881.865 501.363 851.098 477.096 810.798C458.03 779.165 435.93 749.265 411.23 721.965C376.996 684.698 335.83 609.731 356.196 477.132C389.13 261.332 602.763 236.632 728.863 260.465C854.963 284.298 920.396 356.232 941.63 452.432Z" fill="#AD827B"/>
<path d="M526.939 621.865C526.939 621.865 513.506 556.865 450.239 564.665C395.64 571.598 376.573 702.465 500.506 738.865" fill="#AD827B"/>
<path d="M496.603 679.498C496.603 679.498 481.003 669.532 482.736 652.198C485.336 631.832 482.736 619.265 473.203 615.365C449.37 605.398 444.603 633.132 445.47 636.598" stroke="#423232" stroke-width="13.4786" stroke-miterlimit="10" stroke-linecap="round" stroke-linejoin="round"/>
<path d="M827.239 721.531C827.239 721.531 843.705 722.398 859.305 703.765C867.972 693.365 875.339 680.365 870.572 676.465C865.806 672.131 787.372 684.265 782.172 694.665C776.972 705.065 807.306 721.531 827.239 721.531Z" fill="#8E605C"/>
<path d="M840.232 575.932C840.232 575.932 841.098 617.098 867.532 663.032C879.232 683.398 861.465 716.765 822.898 722.398" stroke="#423232" stroke-width="13.4786" stroke-miterlimit="10" stroke-linecap="round" stroke-linejoin="round"/>
<path d="M1158.92 1465.49H63.4531C63.4531 1465.49 69.9531 1264.42 135.82 1120.99C185.653 1012.65 303.086 952.42 390.62 921.22C415.32 912.554 437.853 906.054 455.186 901.287C455.186 903.454 455.62 905.187 455.62 907.354C455.62 907.354 502.42 1046.45 624.186 1095.85C723.419 1136.15 782.353 1109.29 791.453 1064.65C797.086 1036.05 779.32 989.254 770.22 974.087C765.02 969.754 761.553 963.254 759.819 956.754L756.353 942.454C764.586 940.72 772.386 938.554 780.186 935.954C782.786 935.087 784.953 934.22 787.553 933.354C843.453 948.087 927.519 983.187 1026.75 1066.39C1138.99 1159.99 1158.92 1465.49 1158.92 1465.49Z" fill="#BEE3EB"/>
<path d="M586.497 1140.92C436.997 1073.75 378.931 953.72 390.197 921.22C390.197 921.22 390.197 920.787 390.631 920.354C398.431 904.32 410.997 891.32 426.597 882.22C435.264 877.02 444.797 872.254 452.597 869.654C453.031 875.72 454.764 894.787 455.197 901.287C455.197 903.454 455.631 905.187 455.631 907.354C455.631 907.354 483.364 1010.92 605.131 1060.32C704.364 1100.62 765.897 1074.19 772.397 1029.12C779.764 979.287 751.597 943.32 751.597 943.32C759.831 941.587 772.831 938.554 780.631 935.954C799.697 958.92 819.197 981.887 826.564 1042.55C836.964 1129.65 741.197 1210.69 586.497 1140.92Z" fill="white"/>
<path d="M277.957 1465.49L258.457 1304.72" stroke="#544D4D" stroke-width="13.4786" stroke-miterlimit="10" stroke-linecap="round" stroke-linejoin="round"/>
<path d="M1034.56 1250.12C1034.56 1250.12 1021.56 1281.75 1025.46 1313.39C1029.36 1345.02 1040.63 1391.39 1024.59 1465.49" stroke="#544D4D" stroke-width="13.4786" stroke-miterlimit="10" stroke-linecap="round" stroke-linejoin="round"/>
<path d="M683.946 619.439C673.546 619.006 665.746 610.339 666.613 599.939L667.046 587.806C667.479 577.406 676.146 569.606 686.546 570.472C696.946 570.906 704.746 579.572 703.879 589.972L703.446 602.106C703.013 612.072 694.346 619.872 683.946 619.439Z" fill="#423232"/>
<path d="M866.379 625.939C856.846 625.506 849.479 617.272 849.913 607.739L850.346 596.472C850.779 586.939 859.013 579.572 868.546 580.006C878.079 580.439 885.446 588.672 885.013 598.206L884.579 609.472C884.146 619.006 875.913 626.372 866.379 625.939Z" fill="#423232"/>
<path d="M725.975 594.306C725.975 594.306 714.709 578.272 695.209 575.239C679.175 572.639 661.409 580.439 658.809 589.539" stroke="#423232" stroke-width="13.4786" stroke-miterlimit="10" stroke-linecap="round" stroke-linejoin="round"/>
<path d="M853.809 598.206C853.809 598.206 853.809 584.339 873.742 584.339C890.209 584.339 897.142 599.506 897.142 599.506" stroke="#423232" stroke-width="13.4786" stroke-miterlimit="10" stroke-linecap="round" stroke-linejoin="round"/>
<path d="M743.742 524.539C752.842 527.572 761.942 519.339 760.208 509.372C759.342 504.172 757.175 498.972 752.842 495.072C739.842 483.372 686.108 472.972 653.608 488.139C625.008 502.005 702.142 510.672 743.742 524.539Z" fill="#423232"/>
<path d="M873.31 531.472C865.944 534.072 858.144 526.272 859.444 517.172C859.877 512.406 861.61 507.639 865.077 504.172C875.477 493.772 911.01 485.539 933.544 501.572C953.044 515.006 907.11 518.906 873.31 531.472Z" fill="#423232"/>
<path d="M797.608 771.721C771.998 786.996 726.62 770.373 705.504 744.763" stroke="#423232" stroke-width="13.4786" stroke-miterlimit="10" stroke-linecap="round" stroke-linejoin="round"/>
<path d="M946.386 478.166C945.519 472.966 944.219 467.766 943.352 462.133C938.586 440.9 931.652 420.966 922.552 402.333L871.419 423.566C856.686 429.633 840.219 431.366 824.186 428.766L621.386 393.666C596.686 389.333 572.852 403.633 564.619 427.033C558.552 443.933 551.186 463.433 543.386 479.9C481.852 489.866 422.052 476.866 365.286 452.6C360.952 450.866 357.052 449.133 352.719 446.966C360.519 407.533 330.619 242.866 367.886 199.966C380.452 185.666 393.019 183.933 405.152 188.266C433.319 198.233 464.952 192.6 485.319 170.933C501.786 154.033 522.586 139.3 548.152 138.866C560.719 138.433 570.686 141.033 578.919 145.8C604.919 160.1 636.552 155.333 659.952 137.566C667.319 132.366 675.119 128.9 683.786 128.9C696.352 128.9 707.619 134.1 716.719 141.033C734.052 154.033 757.019 157.066 778.252 152.733C779.552 152.3 780.852 152.3 782.152 152.3C787.352 152.3 792.986 153.6 797.752 155.766C815.952 163.566 836.319 164.433 854.519 156.633C863.186 153.166 873.586 153.166 883.986 163.133C896.986 175.7 913.886 183.933 932.086 184.366C936.852 184.366 942.919 186.533 950.286 191.3C953.752 193.9 956.786 198.666 958.952 205.166C962.419 215.133 970.652 222.5 981.052 225.533C987.552 227.7 992.319 234.2 993.619 248.933C997.952 295.733 957.219 440.466 946.386 478.166Z" fill="#423232"/>
<path d="M980.172 225.1C961.105 232.033 957.639 228.133 935.972 222.5C914.305 216.866 895.239 241.133 879.639 216C857.105 179.166 815.505 204.3 807.272 197.366C799.039 190.433 773.472 167.466 737.505 191.733C713.672 207.766 683.339 179.166 645.205 179.166C568.939 179.166 555.072 235.066 528.639 209.5C502.205 184.366 474.039 201.266 435.039 208.2C396.039 215.133 376.105 191.733 376.105 191.733C385.639 185.233 395.172 185.233 404.272 188.266C432.439 198.233 464.072 192.6 484.439 170.933C500.905 154.033 521.705 139.3 547.272 138.866C559.839 138.433 569.805 141.033 578.039 145.8C604.039 160.1 635.672 155.333 659.072 137.566C666.439 132.366 674.239 128.9 682.905 128.9C695.472 128.9 706.739 134.1 715.839 141.033C733.172 154.033 756.139 157.066 777.372 152.733C778.672 152.3 779.972 152.3 781.272 152.3C786.472 152.3 792.105 153.6 796.872 155.766C815.072 163.566 835.439 164.433 853.639 156.633C862.305 153.166 872.705 153.166 883.105 163.133C896.105 175.7 913.005 183.933 931.205 184.366C935.972 184.366 942.039 186.533 949.405 191.3C952.872 193.9 955.905 198.666 958.072 205.166C961.539 214.7 970.205 222.066 980.172 225.1Z" fill="#5E4949"/>
<path d="M525.186 620.299C517.819 602.099 498.319 568.733 452.386 574.799C406.452 580.433 385.653 673.599 453.252 724.733C472.752 739.033 493.119 745.966 493.119 745.966L440.686 764.166C440.686 764.166 345.352 709.999 341.886 586.066C340.152 528.433 346.219 481.633 352.719 447.399C412.952 475.133 477.086 491.166 543.386 480.333C536.019 495.499 527.786 508.066 519.986 514.133C496.152 531.466 528.219 577.833 525.186 620.299Z" fill="#99807F"/>
<path d="M526.054 508.066C523.887 510.232 522.154 512.399 519.987 513.699C514.787 517.599 512.187 523.232 511.321 529.732C484.454 531.032 445.888 519.766 432.454 515.432C429.421 514.566 427.688 511.966 427.688 508.932V506.766C427.688 501.999 432.021 498.966 436.354 499.832C466.254 508.066 523.887 508.066 526.054 508.066Z" fill="#423232"/>
<path d="M516.951 566.133C493.117 564.399 470.151 560.066 459.751 557.899C456.284 557.033 454.117 554.433 454.117 550.966C454.117 546.633 458.017 543.599 462.35 544.033C481.85 547.066 502.651 546.633 512.617 546.199C513.484 552.266 515.217 558.766 516.951 566.133Z" fill="#423232"/>
<path d="M477.159 636.126C477.159 636.126 442.492 630.926 445.092 679.459C446.392 704.159 446.392 717.592 445.959 724.526C445.526 729.292 448.559 733.626 452.892 735.359C458.092 737.526 463.726 735.359 466.326 730.159C470.226 723.226 474.559 713.692 474.559 705.892C474.559 692.892 488.426 681.192 488.426 681.192C488.426 681.192 475.859 670.359 477.159 636.126Z" fill="white"/>
<path d="M582.025 1471.59C578.559 1467.69 442.492 1234.99 462.859 1147.46C476.726 1087.23 458.526 1017.89 442.492 956.792C435.992 931.659 429.926 908.259 426.459 887.459C420.392 851.492 424.726 817.259 439.459 785.626C455.492 750.092 452.892 719.326 452.892 718.892L461.559 718.026C461.559 719.326 464.159 751.826 447.259 789.092C433.392 818.992 429.492 851.926 435.126 886.159C438.592 906.526 444.659 929.926 451.159 955.059C467.626 1017.03 485.826 1087.66 471.526 1150.06C452.459 1233.26 588.092 1465.96 588.959 1466.83L582.025 1471.59Z" fill="white"/>
<path d="M446.393 704.592C446.826 714.126 446.393 720.625 446.393 724.525C445.959 729.292 448.993 733.625 453.326 735.359C458.526 737.525 464.159 735.359 466.759 730.159C470.659 723.225 474.993 713.692 474.993 705.892C474.993 705.459 474.993 704.592 474.993 704.159C465.893 707.625 455.493 710.226 446.393 704.592Z" fill="#E5E5E5"/>
<path d="M854.154 992.759C851.12 1012.69 850.687 1044.33 849.82 1081.16C848.52 1152.23 806.487 1429.13 786.12 1472.89L778.32 1469.43C797.82 1426.96 839.854 1151.36 841.154 1081.16C842.02 1044.33 842.454 1012.26 845.487 991.459C851.987 947.692 847.22 914.759 844.62 900.892C845.92 899.592 847.22 898.726 848.52 897.426C849.82 896.559 850.687 895.259 851.987 894.392C854.587 905.659 861.954 941.626 854.154 992.759Z" fill="white"/>
</g>
</svg>
