<svg width="1300" height="1300" viewBox="0 0 1300 1300" fill="none" xmlns="http://www.w3.org/2000/svg">
<path d="M650 1300C290.71 1300 0 1008.86 0 650C0 290.71 291.141 0 650 0C1009.29 0 1300 291.141 1300 650C1300.43 1009.29 1009.29 1300 650 1300Z" fill="#B557EF"/>
<mask id="mask0_410_879" style="mask-type:alpha" maskUnits="userSpaceOnUse" x="0" y="0" width="1301" height="1300">
<path d="M650 1300C290.71 1300 0 1008.86 0 650C0 290.71 291.141 0 650 0C1009.29 0 1300 291.141 1300 650C1300.43 1009.29 1009.29 1300 650 1300Z" fill="#F7C0B5"/>
</mask>
<g mask="url(#mask0_410_879)">
<path d="M1015.73 1197.33C1012.7 1199.5 1009.23 1201.66 1006.2 1203.83C1002.73 1206 999.697 1208.16 996.23 1209.9C993.197 1211.63 990.597 1213.36 987.564 1215.1C987.13 1215.53 986.697 1215.53 986.264 1215.96C976.297 1222.03 965.897 1227.66 955.497 1232.86C952.464 1234.6 948.997 1236.33 945.964 1237.63C945.964 1237.63 945.53 1238.06 945.097 1238.06C941.63 1239.8 938.164 1241.53 934.697 1243.26C927.764 1246.73 920.397 1249.76 913.464 1252.8C909.997 1254.53 906.097 1255.83 902.63 1257.13C899.164 1258.43 895.264 1260.16 891.797 1261.46C888.33 1262.76 884.43 1264.5 880.964 1265.8C880.964 1265.8 880.964 1265.8 880.53 1265.8C877.064 1267.1 873.164 1268.4 869.697 1269.7C861.897 1272.3 853.664 1274.9 845.864 1277.5C843.264 1278.36 840.23 1279.23 837.63 1280.1C829.397 1282.7 821.164 1284.86 812.93 1286.6C809.897 1287.46 806.864 1287.9 803.397 1288.76C795.597 1290.5 787.364 1292.23 779.564 1293.96C777.83 1294.4 776.53 1294.4 774.797 1294.83C772.197 1295.26 769.164 1295.7 766.564 1296.13C762.664 1296.56 759.197 1297.43 755.297 1297.86C753.564 1298.3 751.83 1298.3 750.097 1298.73C747.93 1299.16 745.33 1299.6 742.73 1299.6C735.797 1300.46 728.43 1301.33 721.497 1302.2C719.33 1302.63 716.73 1302.63 714.564 1303.06H714.13C711.097 1303.5 708.064 1303.5 705.03 1303.93C701.997 1304.36 698.964 1304.36 695.93 1304.36C694.197 1304.36 692.03 1304.8 690.297 1304.8C686.83 1304.8 683.797 1305.23 680.764 1305.23C676.43 1305.23 672.53 1305.66 668.197 1305.66C663.864 1305.66 659.964 1305.66 655.63 1305.66C652.597 1305.66 649.564 1305.66 646.53 1305.66C464.097 1303.06 299.43 1225.5 182.43 1102.43C182.43 1102.43 182.43 1102 181.997 1102C195.43 1075.56 245.264 1027.9 297.264 988.465C363.13 938.632 456.297 907.865 456.297 907.865C456.297 907.865 517.397 897.898 744.03 945.132C916.93 981.532 990.597 1129.3 1015.73 1197.33Z" fill="#FEE4BF"/>
<path d="M792.13 1065.16C783.03 1109.8 724.097 1136.23 624.863 1096.36C503.097 1046.96 456.297 907.865 456.297 907.865C449.797 808.198 434.63 722.832 434.63 722.832C575.463 710.698 741.863 875.365 741.863 875.365L760.93 956.832C762.663 963.765 766.13 969.832 771.33 974.165C780.43 989.765 798.197 1036.56 792.13 1065.16Z" fill="#FEE4BF"/>
<path d="M771.331 974.599C688.565 970.265 627.465 958.132 562.031 840.699C617.498 889.665 682.931 908.299 751.831 916.965L760.931 956.832C762.665 964.198 766.131 970.265 771.331 974.599Z" fill="#EFBDA5"/>
<path d="M942.497 452.432C950.297 488.832 954.197 518.298 932.964 615.365C911.73 712.432 952.464 809.498 850.197 898.332C781.297 958.132 660.83 969.398 564.63 903.965C532.13 881.865 502.23 851.098 477.964 810.798C458.897 779.165 436.797 749.265 412.097 721.965C377.864 684.698 336.697 609.732 357.064 477.132C389.997 261.332 603.63 236.632 729.73 260.465C855.83 284.298 921.264 356.232 942.497 452.432Z" fill="#FEE4BF"/>
<path d="M527.798 621.865C527.798 621.865 514.365 556.865 451.098 564.665C396.498 571.598 377.431 702.465 501.365 738.865" fill="#FEE4BF"/>
<path d="M497.465 679.498C497.465 679.498 481.865 669.532 483.599 652.198C486.199 631.832 483.599 619.265 474.065 615.365C450.232 605.398 445.465 633.132 446.332 636.598" stroke="#423232" stroke-width="13" stroke-miterlimit="10" stroke-linecap="round" stroke-linejoin="round"/>
<path d="M828.095 721.532C828.095 721.532 844.562 722.398 860.162 703.765C868.829 693.365 876.195 680.365 871.429 676.465C866.662 672.132 788.229 684.265 783.029 694.665C777.829 705.065 808.162 721.532 828.095 721.532Z" fill="#EFBDA5"/>
<path d="M841.095 575.932C841.095 575.932 841.962 617.098 868.395 663.032C880.095 683.398 862.328 716.765 823.762 722.398" stroke="#423232" stroke-width="13" stroke-miterlimit="10" stroke-linecap="round" stroke-linejoin="round"/>
<path opacity="0.42" d="M606.229 743.632C630.879 743.632 650.862 727.141 650.862 706.798C650.862 686.456 630.879 669.965 606.229 669.965C581.579 669.965 561.596 686.456 561.596 706.798C561.596 727.141 581.579 743.632 606.229 743.632Z" fill="#F2A5B2"/>
<path opacity="0.42" d="M926.03 670.832C924.73 695.098 925.164 718.932 923.43 742.765C904.364 738.432 890.497 724.132 890.497 707.232C890.497 689.032 905.664 674.298 926.03 670.832Z" fill="#F2A5B2"/>
<path d="M389.88 829.4C389.88 829.4 430.18 819.867 447.08 818.567L452.28 865.8C452.713 865.367 390.313 841.534 389.88 829.4Z" fill="#F70B0B"/>
<path d="M1158.62 1465.1H63.1494C63.1494 1465.1 69.6494 1264.03 135.516 1120.6C199.649 981.933 374.283 921.7 454.883 900.9C454.883 903.067 455.316 904.8 455.316 906.967C455.316 906.967 502.116 1046.07 623.883 1095.47C723.116 1135.77 782.049 1108.9 791.149 1064.27C796.783 1035.67 779.016 988.867 769.916 973.7C764.716 969.367 761.249 962.867 759.516 956.367L756.049 942.067C766.883 939.9 777.283 936.867 787.249 932.967C843.149 947.7 927.216 982.8 1026.45 1066C1138.68 1159.6 1158.62 1465.1 1158.62 1465.1Z" fill="#F70B0B"/>
<path d="M277.649 1465.1L258.149 1304.33" stroke="white" stroke-width="13" stroke-miterlimit="10" stroke-linecap="round" stroke-linejoin="round"/>
<path d="M1034.25 1249.73C1034.25 1249.73 1021.25 1281.37 1025.15 1313C1029.05 1344.63 1040.32 1391 1024.28 1465.1" stroke="white" stroke-width="13" stroke-miterlimit="10" stroke-linecap="round" stroke-linejoin="round"/>
<path d="M590.515 1176.07C350.882 1106.73 290.648 965.901 290.648 965.901C290.648 965.901 328.348 942.501 346.115 918.234C356.948 903.501 454.448 886.601 454.448 886.601C456.182 905.234 454.448 886.601 455.748 906.967C455.748 906.967 502.548 1046.07 624.315 1095.47C723.548 1135.77 782.482 1108.9 791.582 1064.27C797.215 1035.67 779.448 988.867 770.348 973.701C765.148 969.367 761.682 962.867 759.948 956.367L756.482 942.067C781.182 936.867 804.582 927.334 824.948 914.767C825.815 916.067 826.248 917.367 826.682 918.667C835.782 940.767 863.515 960.701 863.515 960.701C921.582 1097.63 834.482 1246.7 590.515 1176.07Z" fill="#F70B0B"/>
<path d="M932.414 997.967C932.414 997.967 952.347 988.434 972.281 990.6C992.214 992.767 1087.11 1069.47 1096.21 1085.5C1105.75 1101.53 1105.31 1152.67 1094.05 1159.17C1083.21 1165.23 1076.28 1151.37 1076.28 1151.37C1076.28 1151.37 1084.51 1104.57 1075.41 1095.9C1066.31 1087.23 978.347 1013.57 975.314 1013.13C972.281 1012.7 955.814 1026.57 955.814 1026.57L932.414 997.967Z" fill="#F70B0B"/>
<path d="M277.647 987.134C277.647 987.134 238.647 970.667 221.747 973.267C204.847 975.867 117.314 1051.27 109.08 1084.63C100.847 1118 128.58 1178.23 128.58 1178.23L148.08 1147.47C148.08 1147.47 134.214 1101.53 138.547 1083.33C142.88 1065.13 212.214 1002.73 219.147 1002.73C226.08 1002.73 267.68 1021.37 267.68 1021.37L277.647 987.134Z" fill="#F70B0B"/>
<path d="M457.914 1011.83C499.514 1091.57 582.714 1197.73 721.814 1247.57C847.047 1292.63 839.247 1141.4 821.047 1050.83C696.247 1078.13 571.014 1080.3 457.914 1011.83Z" fill="black"/>
<path d="M821.048 1051.27C816.281 1027.43 810.648 1007.93 806.748 997.1C798.081 973.7 785.081 952.9 773.381 937.3C767.748 939.033 762.114 940.333 756.481 941.633L759.948 955.933C761.681 962.867 765.148 968.933 770.348 973.267C771.214 975 772.514 977.167 773.814 979.767C675.448 1017.9 559.314 967.633 559.314 967.633C524.214 965.9 526.814 1000.57 543.281 1041.73C480.881 982.367 455.748 906.967 455.748 906.967C454.881 893.967 454.014 881.4 452.714 868.833C452.714 868.833 420.648 886.6 426.281 926.467C428.881 943.367 438.848 975 458.348 1011.83C571.014 1080.3 696.248 1078.13 821.048 1051.27Z" fill="black"/>
<path d="M389.88 829.4C389.88 829.4 490.847 876.2 572.313 897.867C580.113 900.034 586.18 906.967 587.047 915.2C590.08 944.667 598.313 1013.57 605.247 1040C614.347 1074.23 790.713 1248.43 792.446 1270.53C794.18 1292.63 614.347 1287.43 507.313 1159.17C399.847 1030.9 408.08 1007.5 408.08 1007.5C408.08 1007.5 389.88 884.434 389.88 829.4Z" fill="#F70B0B"/>
<path d="M870.447 875.767L898.18 887.467C906.847 890.934 911.18 900.901 908.147 910.001C895.58 948.134 864.38 1043.03 863.08 1075.97C861.347 1117.57 775.547 1384.93 775.547 1384.93C775.547 1384.93 723.114 1316.03 761.68 1248C792.014 1194.27 793.747 1079.43 790.714 1064.27C786.814 1044.33 770.347 997.534 761.247 968.067C756.48 952.034 755.614 942.067 755.614 942.067C755.614 942.067 815.414 932.101 870.447 875.767Z" fill="#F70B0B"/>
<path d="M548.049 946.834C554.989 946.834 560.616 940.431 560.616 932.533C560.616 924.636 554.989 918.234 548.049 918.234C541.109 918.234 535.482 924.636 535.482 932.533C535.482 940.431 541.109 946.834 548.049 946.834Z" fill="white"/>
<path d="M748.249 1211.17C716.615 1177.37 628.215 1097.2 601.349 1079.43C585.749 1069.03 568.849 1061.23 551.082 1055.6C438.415 1019.2 401.582 959.834 401.582 959.834L396.815 918.234" stroke="black" stroke-width="13" stroke-miterlimit="10" stroke-linecap="round" stroke-linejoin="round"/>
<path d="M768.615 1235C768.615 1235 758.215 1286.57 762.548 1311.7C766.882 1336.83 770.348 1411.8 770.348 1411.8" stroke="black" stroke-width="13" stroke-miterlimit="10" stroke-linecap="round" stroke-linejoin="round"/>
<path d="M888.213 973.7C888.213 973.7 866.98 1048.23 857.013 1077.7C846.613 1107.17 799.38 1166.1 786.38 1194.27" stroke="black" stroke-width="13" stroke-miterlimit="10" stroke-linecap="round" stroke-linejoin="round"/>
<path d="M831.448 1228.93C839.346 1228.93 845.748 1222.53 845.748 1214.63C845.748 1206.74 839.346 1200.33 831.448 1200.33C823.551 1200.33 817.148 1206.74 817.148 1214.63C817.148 1222.53 823.551 1228.93 831.448 1228.93Z" fill="white"/>
<path d="M699.712 590.249C699.712 590.683 699.712 591.116 699.712 591.116L699.279 603.249C698.846 613.649 690.179 621.449 679.779 621.016C669.379 620.583 661.579 611.483 662.446 601.516L662.879 589.383C662.879 587.216 663.746 584.616 664.612 582.883L699.279 584.616C699.279 586.349 699.712 588.083 699.712 590.249Z" fill="#423232"/>
<path d="M880.84 599.783L880.407 611.049C879.973 620.583 871.74 627.949 862.206 627.516C852.673 627.083 845.307 618.849 845.74 609.316L846.173 598.049C846.173 595.883 846.606 593.716 847.473 591.983L879.973 593.283C880.84 595.449 880.84 597.616 880.84 599.783Z" fill="#423232"/>
<path d="M743.043 530.882C752.576 532.182 759.943 522.216 756.476 512.682C754.743 507.482 751.709 502.716 746.943 499.682C732.209 490.582 677.176 489.716 648.143 510.516C622.576 529.582 699.709 524.816 743.043 530.882Z" fill="#423232"/>
<path d="M863.072 535.649C855.272 535.649 850.505 525.682 854.405 517.449C856.572 513.116 859.605 509.216 863.939 507.049C877.372 500.549 913.339 504.449 929.372 526.549C943.672 546.049 899.039 535.216 863.072 535.649Z" fill="#423232"/>
<path d="M727.875 585.482L698.842 584.182L664.175 582.882L656.375 582.449" stroke="#423232" stroke-width="13" stroke-miterlimit="10" stroke-linecap="round" stroke-linejoin="round"/>
<path d="M899.041 594.149L879.974 593.283L847.474 591.983H846.174" stroke="#423232" stroke-width="13" stroke-miterlimit="10" stroke-linecap="round" stroke-linejoin="round"/>
<path d="M800.184 776.042C800.617 790.342 779.384 826.742 738.217 809.842C698.784 793.809 687.084 718.409 743.417 754.375C772.884 773.009 790.65 776.042 800.184 776.042Z" fill="white"/>
<path d="M808.414 774.309C808.414 774.309 790.214 784.275 743.414 754.375C687.514 718.409 698.781 793.809 738.214 809.842C779.381 826.742 800.614 789.909 800.181 776.042" stroke="#423232" stroke-width="13" stroke-miterlimit="10" stroke-linecap="round" stroke-linejoin="round"/>
<path d="M705.282 765.209C705.282 765.209 734.749 784.709 743.416 782.975C752.516 781.675 751.216 794.242 792.382 795.542" stroke="#423232" stroke-width="13" stroke-miterlimit="10" stroke-linecap="round" stroke-linejoin="round"/>
<path d="M1007.79 624.095C987.42 605.462 981.787 578.162 980.054 559.962C993.054 568.629 1009.95 542.195 1009.09 510.995C1007.79 464.629 995.654 430.395 981.354 406.562C991.32 393.995 998.687 379.262 1002.59 362.795C1020.35 290.862 961.854 235.829 876.487 215.029C824.054 202.029 727.854 208.529 614.754 206.795C595.254 206.362 574.887 207.229 554.954 209.395C530.687 211.995 506.854 217.195 484.754 226.295C448.787 239.729 415.854 260.962 390.72 291.729C346.52 346.329 333.954 408.729 331.787 457.262C329.62 514.895 315.754 571.662 288.454 622.795C258.987 677.829 240.787 736.328 269.82 786.595C270.687 787.895 271.554 789.195 272.42 790.928C258.554 859.395 335.687 853.329 350.854 783.995C347.82 796.995 345.654 808.262 344.354 816.062C333.954 884.095 383.354 892.762 408.054 845.529C410.654 840.762 417.154 821.262 424.087 796.562C424.087 800.895 424.52 805.229 424.954 809.129C425.82 904.029 493.42 912.262 489.52 848.129C487.787 819.529 492.554 779.662 499.92 736.329C376.854 699.495 395.92 569.495 450.954 562.562C514.22 554.329 527.654 619.762 527.654 619.762C532.42 640.129 539.354 664.395 549.754 676.095C568.387 696.462 600.454 682.162 579.654 618.029C575.32 604.595 571.42 589.429 568.82 573.395C585.287 577.729 599.587 568.629 592.654 550.429C586.154 533.962 582.687 518.795 581.82 504.495C580.52 482.395 586.154 462.462 595.687 445.995C605.654 485.429 647.254 473.295 649.854 444.695C650.72 435.162 653.754 423.895 658.087 411.329C668.487 424.762 682.787 437.329 700.554 446.429C733.487 462.895 756.887 455.095 762.087 438.195C783.32 445.562 802.387 451.195 817.12 454.662C861.32 465.495 905.087 459.862 939.32 441.662C941.054 445.562 941.92 449.029 942.354 450.329C942.787 452.495 943.22 454.662 943.654 456.829C947.554 475.462 949.72 493.662 947.987 520.962C947.987 522.262 947.987 523.129 947.554 524.429C947.554 525.295 947.554 526.162 947.12 527.029C947.12 529.195 946.687 530.929 946.687 533.095C946.687 534.395 946.254 535.262 946.254 536.562C946.254 538.295 945.82 540.462 945.387 542.629C944.954 544.362 944.954 546.095 944.52 547.829C944.52 549.129 944.087 550.862 944.087 552.162C943.654 554.762 943.22 557.362 942.787 560.395C942.787 560.829 942.787 561.695 942.354 562.129C941.92 565.595 941.054 569.062 940.62 572.962C938.454 585.095 935.854 598.095 932.82 613.262C914.62 697.328 942.787 782.262 883.42 861.129C880.82 884.529 901.187 913.995 926.32 883.229C945.82 859.395 936.72 779.662 935.42 763.629C937.154 780.529 964.02 834.262 989.154 826.462C1003.02 822.129 1009.09 814.762 1006.92 789.195C1004.32 753.229 976.154 717.695 972.254 665.262C998.254 687.362 1035.09 648.795 1007.79 624.095Z" fill="#423232"/>
</g>
</svg>
