<svg width="1300" height="1300" viewBox="0 0 1300 1300" fill="none" xmlns="http://www.w3.org/2000/svg">
<path d="M650 1300C290.71 1300 0 1008.86 0 650C0 290.71 291.141 0 650 0C1009.29 0 1300 291.141 1300 650C1300.43 1009.29 1009.29 1300 650 1300Z" fill="#FFA9A9"/>
<mask id="mask0_422_2620" style="mask-type:alpha" maskUnits="userSpaceOnUse" x="0" y="0" width="1301" height="1300">
<path d="M650 1300C290.71 1300 0 1008.86 0 650C0 290.71 291.141 0 650 0C1009.29 0 1300 291.141 1300 650C1300.43 1009.29 1009.29 1300 650 1300Z" fill="#F7C0B5"/>
</mask>
<g mask="url(#mask0_422_2620)">
<path d="M1012.26 1197.33C1009.23 1199.5 1005.76 1201.66 1002.73 1203.83C999.265 1206 996.231 1208.16 992.764 1209.9C989.731 1211.63 987.131 1213.36 984.098 1215.1C983.664 1215.53 983.231 1215.53 982.798 1215.96C972.831 1222.03 962.431 1227.66 952.031 1232.86C948.998 1234.6 945.531 1236.33 942.498 1237.63C942.498 1237.63 942.065 1238.06 941.631 1238.06C938.165 1239.8 934.698 1241.53 931.231 1243.26C924.298 1246.73 916.931 1249.76 909.998 1252.8C906.531 1254.53 902.631 1255.83 899.165 1257.13C895.698 1258.43 891.798 1260.16 888.331 1261.46C884.865 1262.76 880.965 1264.5 877.498 1265.8C877.498 1265.8 877.498 1265.8 877.065 1265.8C873.598 1267.1 869.698 1268.4 866.231 1269.7C858.431 1272.3 850.198 1274.9 842.398 1277.5C839.798 1278.36 836.765 1279.23 834.165 1280.1C825.931 1282.7 817.698 1284.86 809.465 1286.6C806.431 1287.46 803.398 1287.9 799.931 1288.76C792.131 1290.5 783.898 1292.23 776.098 1293.96C774.365 1294.4 773.065 1294.4 771.331 1294.83C768.731 1295.26 765.698 1295.7 763.098 1296.13C759.198 1296.56 755.731 1297.43 751.831 1297.86C750.098 1298.3 748.365 1298.3 746.631 1298.73C744.465 1299.16 741.865 1299.6 739.265 1299.6C732.331 1300.46 724.965 1301.33 718.031 1302.2C715.865 1302.63 713.265 1302.63 711.098 1303.06H710.665C707.631 1303.5 704.598 1303.5 701.565 1303.93C698.531 1304.36 695.498 1304.36 692.465 1304.36C690.731 1304.36 688.565 1304.8 686.831 1304.8C683.365 1304.8 680.331 1305.23 677.298 1305.23C672.965 1305.23 669.065 1305.66 664.731 1305.66C660.398 1305.66 656.498 1305.66 652.165 1305.66C649.131 1305.66 646.098 1305.66 643.065 1305.66C460.631 1303.06 295.965 1225.5 178.965 1102.43C178.965 1102.43 178.965 1102 178.531 1102C191.965 1075.56 241.798 1027.9 293.798 988.465C359.665 938.632 452.831 907.865 452.831 907.865C452.831 907.865 513.931 897.898 740.565 945.132C913.465 981.532 987.131 1129.3 1012.26 1197.33Z" fill="#DA907F"/>
<path d="M788.664 1065.16C779.564 1109.8 720.631 1136.23 621.397 1096.36C499.631 1046.96 452.831 907.865 452.831 907.865C446.331 808.198 431.164 722.832 431.164 722.832C571.997 710.698 738.397 875.365 738.397 875.365L757.464 956.832C759.197 963.765 762.664 969.832 767.864 974.165C776.964 989.765 794.731 1036.56 788.664 1065.16Z" fill="#DA907F"/>
<path d="M767.865 974.599C685.099 970.265 623.999 958.132 558.565 840.699C614.032 889.665 679.465 908.299 748.365 916.965L757.465 956.832C759.199 964.198 762.665 970.265 767.865 974.599Z" fill="#A56663"/>
<path d="M939.031 452.432C946.831 488.832 950.731 518.298 929.498 615.365C908.264 712.432 948.998 809.498 846.731 898.332C777.831 958.132 657.364 969.398 561.164 903.965C528.665 881.865 498.764 851.098 474.498 810.798C455.431 779.165 433.331 749.265 408.631 721.965C374.398 684.698 333.231 609.732 353.598 477.132C386.531 261.332 600.164 236.632 726.264 260.465C852.364 284.298 917.798 356.232 939.031 452.432Z" fill="#DA907F"/>
<path d="M524.332 621.865C524.332 621.865 510.899 556.865 447.632 564.665C393.032 571.598 373.965 702.465 497.899 738.865" fill="#DA907F"/>
<path d="M493.999 679.498C493.999 679.498 478.399 669.532 480.133 652.198C482.733 631.832 480.133 619.265 470.599 615.365C446.766 605.398 441.999 633.132 442.866 636.598" stroke="#665858" stroke-width="13" stroke-miterlimit="10" stroke-linecap="round" stroke-linejoin="round"/>
<g filter="url(#filter0_d_422_2620)">
<path d="M824.629 721.532C824.629 721.532 841.096 722.398 856.696 703.765C865.363 693.365 872.729 680.365 867.963 676.465C863.196 672.132 784.763 684.265 779.563 694.665C774.363 705.065 804.696 721.532 824.629 721.532Z" fill="#A56663"/>
<path d="M824.656 721.032L824.655 721.032L824.643 721.032H824.629C814.774 721.032 802.293 716.951 792.92 711.565C788.235 708.872 784.366 705.875 781.997 702.937C779.617 699.985 778.843 697.224 780.01 694.889C780.287 694.335 780.832 693.733 781.664 693.096C782.491 692.463 783.573 691.818 784.881 691.167C787.499 689.865 790.979 688.564 795.047 687.302C803.179 684.778 813.598 682.426 824.015 680.532C834.43 678.638 844.828 677.205 852.913 676.516C856.958 676.172 860.412 676.014 862.997 676.076C864.291 676.107 865.353 676.193 866.155 676.334C866.557 676.404 866.883 676.486 867.135 676.577C867.393 676.67 867.546 676.761 867.626 676.835L867.636 676.844L867.646 676.852C868.661 677.682 869.082 679.03 868.934 680.873C868.785 682.719 868.067 684.973 866.913 687.468C864.609 692.451 860.63 698.263 856.312 703.444C848.574 712.688 840.635 717.079 834.648 719.164C831.653 720.207 829.143 720.673 827.388 720.879C826.51 720.982 825.821 721.02 825.354 721.033C825.121 721.039 824.943 721.039 824.825 721.037C824.767 721.036 824.723 721.035 824.694 721.034L824.663 721.033L824.656 721.032L824.656 721.032Z" stroke="black"/>
</g>
<path d="M837.629 575.932C837.629 575.932 838.496 617.098 864.929 663.032C876.629 683.398 858.863 716.765 820.296 722.398" stroke="#665858" stroke-width="7" stroke-miterlimit="10" stroke-linecap="round" stroke-linejoin="round"/>
<path d="M1172.93 1475.93L63.9441 1451.41C52.5608 1172.09 167.269 1024.54 212.364 995.645C296.862 940.918 406.754 924.719 458.416 919.903C471.551 952.302 521.462 1058.69 625.224 1100.72C725.484 1141.44 785.027 1114.29 794.221 1069.2C799.913 1040.3 781.963 993.018 772.768 977.695C767.515 973.317 764.012 966.75 762.261 960.182L758.758 945.734C766.201 943.983 773.644 942.232 781.087 939.605C964.532 960.182 1038.96 1010.09 1082.74 1095.47C1127.84 1183.47 1172.93 1475.93 1172.93 1475.93Z" fill="#474E51"/>
<path d="M258.335 1474.18C258.335 1474.18 252.644 1332.33 246.952 1306.06" stroke="#544D4D" stroke-width="13.1345" stroke-miterlimit="10" stroke-linecap="round" stroke-linejoin="round"/>
<path d="M1034.14 1474.18C1034.14 1474.18 1021.01 1386.18 1021.01 1370.85C1021.01 1355.97 1032.39 1306.93 1034.14 1264.03" stroke="#544D4D" stroke-width="13.1345" stroke-miterlimit="10" stroke-linecap="round" stroke-linejoin="round"/>
<path d="M686.959 1194.41L671.197 1521.03C671.197 1521.03 809.985 1615.59 809.985 1612.97C809.985 1610.34 875.657 1495.63 875.657 1495.63L773.208 1181.28C773.208 1181.28 760.074 1194.85 686.959 1194.41Z" fill="#D85656"/>
<path d="M718.482 1089.34C718.482 1089.34 658.501 1145.82 650.62 1160.7C642.74 1175.59 684.332 1199.23 684.332 1199.23C684.332 1199.23 751.318 1213.24 781.527 1186.1C781.527 1186.1 798.602 1167.27 795.1 1149.32C792.035 1131.81 718.482 1089.34 718.482 1089.34Z" fill="#EA6363"/>
<path d="M445.721 868.241L451.413 866.928C467.612 919.028 570.499 1042.05 718.48 1089.34L626.539 1205.36C620.41 1213.24 609.464 1214.55 601.584 1208.86C563.931 1180.84 463.234 1098.53 422.079 993.456C413.323 971.566 411.571 947.486 415.95 924.719L421.641 893.634C423.83 880.938 433.462 870.868 445.721 868.241Z" fill="white"/>
<path d="M841.07 1165.52C838.443 1179.97 821.369 1185.66 810.423 1175.59L718.044 1089.34C718.044 1089.34 771.895 1038.11 758.761 945.297C776.711 941.356 793.786 935.665 809.547 928.222C809.985 929.097 816.115 940.919 823.12 960.62C838.006 1001.34 856.832 1076.2 841.07 1165.52Z" fill="white"/>
<path d="M745.805 526.549C755.219 527.849 762.493 517.882 759.07 508.349C757.358 503.149 754.363 498.382 749.656 495.349C735.107 486.249 680.761 485.382 652.091 506.182C626.844 525.249 703.013 520.482 745.805 526.549Z" fill="#332D2D"/>
<path d="M864.335 531.316C856.632 531.316 851.925 521.349 855.777 513.116C857.916 508.782 860.912 504.882 865.191 502.716C878.456 496.216 913.973 500.116 929.806 522.216C943.927 541.716 899.852 530.882 864.335 531.316Z" fill="#332D2D"/>
<path d="M730.824 581.149C703.437 567.282 660.218 577.682 660.218 577.682" stroke="#332D2D" stroke-width="13" stroke-miterlimit="10" stroke-linecap="round" stroke-linejoin="round"/>
<path d="M899.852 589.816C899.852 589.816 888.726 577.683 847.646 587.216" stroke="#332D2D" stroke-width="13" stroke-miterlimit="10" stroke-linecap="round" stroke-linejoin="round"/>
<path d="M800.017 771.848C800.45 778.781 795.25 790.915 785.717 799.581C736.75 769.681 714.65 785.281 714.65 785.281C697.317 758.848 701.217 722.881 743.25 750.181C772.717 768.815 790.484 771.848 800.017 771.848Z" fill="#332D2D"/>
<path d="M785.718 799.581C775.318 808.681 759.718 814.315 738.485 805.648C728.518 801.748 720.718 793.948 714.651 785.281C714.651 785.281 736.751 769.681 785.718 799.581Z" fill="#FE9DAB"/>
<path d="M714.651 785.281C714.651 785.281 736.751 769.681 785.718 799.581" stroke="#332D2D" stroke-width="13" stroke-miterlimit="10" stroke-linecap="round" stroke-linejoin="round"/>
<path d="M942.155 452.634C940.855 446.134 939.122 439.2 936.955 432.7C934.788 426.2 929.588 420.567 922.655 419.267C900.122 415.367 878.455 426.634 847.255 422.3C748.022 408.867 681.722 366.834 588.555 403.234C492.355 440.5 546.955 595.634 526.588 619.467C523.122 607.334 506.222 557.934 450.755 564.867C398.322 571.367 378.388 692.7 486.722 734.3C485.855 758.134 442.955 780.667 408.288 739.067C373.622 697.467 304.288 589.567 351.088 431.834C397.888 274.1 609.788 191.767 806.955 271.934C840.755 285.8 862.422 315.7 890.588 325.667C948.222 346.9 948.655 483.834 942.155 452.634Z" fill="#654119"/>
<path d="M487.156 734.734C487.156 734.734 486.29 770.267 449.89 836.134C449.89 836.134 441.223 799.734 422.156 766.367C403.523 733 366.69 663.234 344.156 593.467C321.623 523.7 363.223 610.367 384.456 639.4C405.256 668 419.123 739.067 487.156 734.734Z" fill="#654119"/>
<path d="M426.052 699.634C426.052 699.634 413.919 780.667 491.486 882.934C569.052 985.2 573.386 1090.07 544.786 1201C544.786 1201 499.719 1167.63 363.219 1069.7C226.719 971.767 193.786 804.5 373.186 646.767C373.619 646.767 424.319 656.3 426.052 699.634Z" fill="#654119"/>
<path d="M736.754 349.934C752.788 359.901 770.121 366.401 788.754 367.701C811.721 369.434 845.954 385.034 896.221 430.534C955.588 484.267 926.121 132.834 556.488 216.034C429.954 244.201 339.821 356.001 324.221 481.234C323.354 489.901 322.488 498.567 322.054 507.234C318.588 622.501 411.754 723.034 411.754 723.034C411.754 723.034 373.621 562.701 460.721 496.401C539.588 436.167 594.621 365.534 663.521 365.534C705.121 365.101 727.221 344.301 736.754 349.934Z" fill="#654119"/>
<path d="M748.887 256.767C748.887 256.767 880.187 506.801 945.187 504.634C1010.19 502.467 1077.79 298.801 939.987 221.667C843.787 167.501 748.887 256.767 748.887 256.767Z" fill="#654119"/>
<path d="M807.389 327.401C807.389 327.401 914.855 442.234 864.155 475.167C835.122 493.801 807.389 437.467 807.389 437.467C807.389 437.467 773.155 493.367 718.555 465.201C663.955 437.467 700.355 357.301 700.355 357.301C700.355 357.301 774.455 282.767 807.389 327.401Z" fill="#654119"/>
<path d="M711.188 366.401C711.188 366.401 691.688 484.701 599.821 502.034C507.954 519.367 497.121 424.901 497.121 424.901C497.121 424.901 633.188 275.401 711.188 366.401Z" fill="#654119"/>
<path d="M467.545 705.467V779.134" stroke="#FFDE55" stroke-width="13" stroke-miterlimit="10" stroke-linecap="round" stroke-linejoin="round"/>
<path d="M526.043 877.933C514.343 889.633 498.31 897 480.11 897C445.01 897 415.977 868.4 415.977 832.867C415.977 797.767 444.577 768.734 480.11 768.734C497.877 768.734 514.343 776.1 526.043 787.8C518.243 783.467 509.577 780.867 500.043 780.867C471.443 780.867 448.043 804.267 448.043 832.867C448.043 861.467 471.443 884.867 500.043 884.867C509.577 885.3 518.243 882.7 526.043 877.933Z" fill="#FFDE55"/>
<path d="M467.543 858.867C481.663 858.867 493.11 847.42 493.11 833.3C493.11 819.18 481.663 807.734 467.543 807.734C453.423 807.734 441.977 819.18 441.977 833.3C441.977 847.42 453.423 858.867 467.543 858.867Z" fill="#FF6B57"/>
<path d="M961.979 788.667C954.179 784.334 945.512 781.734 935.979 781.734C929.045 781.734 922.979 783.034 916.912 785.634C917.779 780.434 919.079 775.234 919.512 770.034C936.412 770.467 951.145 777.4 961.979 788.667Z" fill="#FFDE55"/>
<path d="M962.411 877.934C950.711 889.633 934.678 897 916.478 897C898.278 897 881.378 889.2 869.678 876.634C876.611 868.834 882.678 861.034 888.311 853.234C896.111 871.867 914.744 884.433 935.978 884.433C945.511 885.3 954.611 882.7 962.411 877.934Z" fill="#FFDE55"/>
<path d="M929.479 833.301C929.479 847.601 918.213 858.867 903.913 858.867C898.279 858.867 893.079 857.134 888.746 853.667C898.713 838.934 906.079 823.767 910.846 809.034C921.246 811.634 929.479 821.601 929.479 833.301Z" fill="#FF6B57"/>
<path d="M256.214 1021.59V1025.01" stroke="#8B52A0" stroke-width="10" stroke-linecap="round"/>
<path d="M259.631 1018.18C259.631 1020 259.631 1025.47 259.631 1023.64C259.631 1021.14 259.631 1018.63 259.631 1016.13" stroke="#8B52A0" stroke-width="10" stroke-linecap="round"/>
<path d="M252.114 1028.43C242.152 1028.43 235.138 1036.23 227.359 1041.41C226.446 1042.02 221.885 1044.31 225.233 1044.15C229.469 1043.95 237.099 1042.96 240.496 1039.74C242.884 1037.48 245.325 1035.75 248.165 1034.73C249.595 1034.22 252.11 1033.9 252.797 1032.53" stroke="#8B52A0" stroke-width="10" stroke-linecap="round"/>
<path d="M217.942 1054.4H221.359" stroke="#8B52A0" stroke-width="10" stroke-linecap="round"/>
<path d="M230.244 1048.25C228.797 1048.25 225.214 1047.62 224.056 1048.59C222.01 1050.29 220.219 1052.59 217.943 1054.06C213.169 1057.13 210.249 1062.2 204.958 1063.97" stroke="#8B52A0" stroke-width="10" stroke-linecap="round"/>
</g>
<defs>
<filter id="filter0_d_422_2620" x="774.973" y="675.563" width="98.4902" height="53.975" filterUnits="userSpaceOnUse" color-interpolation-filters="sRGB">
<feFlood flood-opacity="0" result="BackgroundImageFix"/>
<feColorMatrix in="SourceAlpha" type="matrix" values="0 0 0 0 0 0 0 0 0 0 0 0 0 0 0 0 0 0 127 0" result="hardAlpha"/>
<feOffset dy="4"/>
<feGaussianBlur stdDeviation="2"/>
<feComposite in2="hardAlpha" operator="out"/>
<feColorMatrix type="matrix" values="0 0 0 0 0 0 0 0 0 0 0 0 0 0 0 0 0 0 0.25 0"/>
<feBlend mode="normal" in2="BackgroundImageFix" result="effect1_dropShadow_422_2620"/>
<feBlend mode="normal" in="SourceGraphic" in2="effect1_dropShadow_422_2620" result="shape"/>
</filter>
</defs>
</svg>
