<svg width="3865" height="3930" viewBox="0 0 3865 3930" fill="none" xmlns="http://www.w3.org/2000/svg">
<rect width="3865" height="3930" rx="96" fill="#FFFBF5"/>
<path d="M1932 2615C1572.71 2615 1282 2323.86 1282 1965C1282 1605.71 1573.14 1315 1932 1315C2291.29 1315 2582 1606.14 2582 1965C2582.43 2324.29 2291.29 2615 1932 2615Z" fill="#4DAF90"/>
<mask id="mask0_22_481" style="mask-type:alpha" maskUnits="userSpaceOnUse" x="1282" y="1315" width="1301" height="1300">
<path d="M1932 2615C1572.71 2615 1282 2323.86 1282 1965C1282 1605.71 1573.14 1315 1932 1315C2291.29 1315 2582 1606.14 2582 1965C2582.43 2324.29 2291.29 2615 1932 2615Z" fill="#F7C0B5"/>
</mask>
<g mask="url(#mask0_22_481)">
<path d="M2294.27 2512.33C2291.23 2514.5 2287.77 2516.66 2284.73 2518.83C2281.27 2521 2278.23 2523.16 2274.77 2524.9C2271.73 2526.63 2269.13 2528.36 2266.1 2530.1C2265.67 2530.53 2265.23 2530.53 2264.8 2530.96C2254.83 2537.03 2244.43 2542.66 2234.03 2547.86C2231 2549.6 2227.53 2551.33 2224.5 2552.63C2224.5 2552.63 2224.07 2553.06 2223.63 2553.06C2220.17 2554.8 2216.7 2556.53 2213.23 2558.26C2206.3 2561.73 2198.93 2564.76 2192 2567.8C2188.53 2569.53 2184.63 2570.83 2181.17 2572.13C2177.7 2573.43 2173.8 2575.16 2170.33 2576.46C2166.87 2577.76 2162.97 2579.5 2159.5 2580.8C2159.5 2580.8 2159.5 2580.8 2159.07 2580.8C2155.6 2582.1 2151.7 2583.4 2148.23 2584.7C2140.43 2587.3 2132.2 2589.9 2124.4 2592.5C2121.8 2593.36 2118.77 2594.23 2116.17 2595.1C2107.93 2597.7 2099.7 2599.86 2091.47 2601.6C2088.43 2602.46 2085.4 2602.9 2081.93 2603.76C2074.13 2605.5 2065.9 2607.23 2058.1 2608.96C2056.37 2609.4 2055.07 2609.4 2053.33 2609.83C2050.73 2610.26 2047.7 2610.7 2045.1 2611.13C2041.2 2611.56 2037.73 2612.43 2033.83 2612.86C2032.1 2613.3 2030.37 2613.3 2028.63 2613.73C2026.47 2614.16 2023.87 2614.6 2021.27 2614.6C2014.33 2615.46 2006.97 2616.33 2000.03 2617.2C1997.87 2617.63 1995.27 2617.63 1993.1 2618.06H1992.67C1989.63 2618.5 1986.6 2618.5 1983.57 2618.93C1980.53 2619.36 1977.5 2619.36 1974.47 2619.36C1972.73 2619.36 1970.57 2619.8 1968.83 2619.8C1965.37 2619.8 1962.33 2620.23 1959.3 2620.23C1954.97 2620.23 1951.07 2620.66 1946.73 2620.66C1942.4 2620.66 1938.5 2620.66 1934.17 2620.66C1931.13 2620.66 1928.1 2620.66 1925.07 2620.66C1742.63 2618.06 1577.97 2540.5 1460.97 2417.43C1460.97 2417.43 1460.97 2417 1460.53 2417C1473.97 2390.56 1523.8 2342.9 1575.8 2303.46C1641.67 2253.63 1734.83 2222.87 1734.83 2222.87C1734.83 2222.87 1795.93 2212.9 2022.57 2260.13C2195.47 2296.53 2269.13 2444.3 2294.27 2512.33Z" fill="#C99589"/>
<path d="M2070.67 2380.16C2061.57 2424.8 2002.63 2451.23 1903.4 2411.36C1781.63 2361.96 1734.83 2222.87 1734.83 2222.87C1728.33 2123.2 1713.17 2037.83 1713.17 2037.83C1854 2025.7 2020.4 2190.37 2020.4 2190.37L2039.47 2271.83C2041.2 2278.76 2044.67 2284.83 2049.87 2289.16C2058.97 2304.76 2076.73 2351.56 2070.67 2380.16Z" fill="#C99589"/>
<path d="M2049.86 2289.6C1967.1 2285.27 1906 2273.13 1840.56 2155.7C1896.03 2204.67 1961.46 2223.3 2030.36 2231.97L2039.46 2271.83C2041.2 2279.2 2044.66 2285.27 2049.86 2289.6Z" fill="#A56663"/>
<path d="M2221.03 1767.43C2228.83 1803.83 2232.73 1833.3 2211.5 1930.37C2190.27 2027.43 2231 2124.5 2128.73 2213.33C2059.83 2273.13 1939.37 2284.4 1843.17 2218.97C1810.67 2196.87 1780.77 2166.1 1756.5 2125.8C1737.43 2094.17 1715.33 2064.27 1690.63 2036.97C1656.4 1999.7 1615.23 1924.73 1635.6 1792.13C1668.53 1576.33 1882.17 1551.63 2008.27 1575.47C2134.37 1599.3 2199.8 1671.23 2221.03 1767.43Z" fill="#C99589"/>
<path d="M1806.33 1936.87C1806.33 1936.87 1792.9 1871.87 1729.63 1879.67C1675.03 1886.6 1655.96 2017.47 1779.9 2053.87" fill="#C99589"/>
<path d="M1776 1994.5C1776 1994.5 1760.4 1984.53 1762.13 1967.2C1764.73 1946.83 1762.13 1934.27 1752.6 1930.37C1728.77 1920.4 1724 1948.13 1724.87 1951.6" stroke="#423232" stroke-width="13" stroke-miterlimit="10" stroke-linecap="round" stroke-linejoin="round"/>
<g filter="url(#filter0_d_22_481)">
<path d="M2106.63 2036.53C2106.63 2036.53 2123.1 2037.4 2138.7 2018.77C2147.36 2008.37 2154.73 1995.37 2149.96 1991.47C2145.2 1987.13 2066.76 1999.27 2061.56 2009.67C2056.36 2020.07 2086.7 2036.53 2106.63 2036.53Z" fill="#A56663"/>
<path d="M2106.66 2036.03L2106.66 2036.03L2106.64 2036.03H2106.63C2096.78 2036.03 2084.29 2031.95 2074.92 2026.56C2070.24 2023.87 2066.37 2020.88 2064 2017.94C2061.62 2014.98 2060.84 2012.22 2062.01 2009.89C2062.29 2009.33 2062.83 2008.73 2063.67 2008.1C2064.49 2007.46 2065.57 2006.82 2066.88 2006.17C2069.5 2004.87 2072.98 2003.56 2077.05 2002.3C2085.18 1999.78 2095.6 1997.43 2106.02 1995.53C2116.43 1993.64 2126.83 1992.21 2134.92 1991.52C2138.96 1991.17 2142.41 1991.01 2145 1991.08C2146.29 1991.11 2147.35 1991.19 2148.16 1991.33C2148.56 1991.4 2148.88 1991.49 2149.14 1991.58C2149.39 1991.67 2149.55 1991.76 2149.63 1991.83L2149.64 1991.84L2149.65 1991.85C2150.66 1992.68 2151.08 1994.03 2150.94 1995.87C2150.79 1997.72 2150.07 1999.97 2148.92 2002.47C2146.61 2007.45 2142.63 2013.26 2138.31 2018.44C2130.58 2027.69 2122.64 2032.08 2116.65 2034.16C2113.66 2035.21 2111.15 2035.67 2109.39 2035.88C2108.51 2035.98 2107.82 2036.02 2107.36 2036.03C2107.12 2036.04 2106.95 2036.04 2106.83 2036.04C2106.77 2036.04 2106.72 2036.03 2106.7 2036.03L2106.67 2036.03L2106.66 2036.03L2106.66 2036.03Z" stroke="black"/>
</g>
<path d="M2119.63 1890.93C2119.63 1890.93 2120.5 1932.1 2146.93 1978.03C2158.63 1998.4 2140.87 2031.77 2102.3 2037.4" stroke="#423232" stroke-width="13" stroke-miterlimit="10" stroke-linecap="round" stroke-linejoin="round"/>
<path d="M1543.73 2332.23C1543.73 2332.23 1559.77 2320.09 1589.67 2338.29C1645.57 2372.53 1716.63 2555.39 1564.1 2683.23C1564.1 2683.23 1536.8 2842.69 1564.1 2873.03C1564.1 2873.03 2063.3 2898.16 2278.67 2873.03C2278.67 2873.03 2282.13 2775.09 2268.27 2674.99C2250.93 2548.03 2228.83 2422.79 2146.93 2307.53C2135.23 2291.06 2113.57 2283.69 2100.13 2279.79L2041.2 2262.89C2041.2 2262.89 2093.2 2413.26 1948.9 2378.59C1860.5 2357.36 1787.27 2273.29 1726.6 2234.73C1712.3 2225.63 1692.8 2228.66 1680.23 2233.86C1651.63 2245.99 1545.9 2309.26 1543.73 2332.23Z" fill="#FFFDFD"/>
<path d="M1998.5 2621.5C2007 2558.67 2018.9 2428 1998.5 2408" stroke="black"/>
<path d="M1965.94 1934.44C1955.54 1934.01 1947.74 1925.34 1948.61 1914.94L1949.04 1902.81C1949.48 1892.41 1958.14 1884.61 1968.54 1885.47C1978.94 1885.91 1986.74 1894.57 1985.88 1904.97L1985.44 1917.11C1985.01 1927.07 1976.34 1934.87 1965.94 1934.44Z" fill="#423232"/>
<path d="M2148.38 1940.94C2138.84 1940.51 2131.48 1932.27 2131.91 1922.74L2132.34 1911.47C2132.78 1901.94 2141.01 1894.57 2150.54 1895.01C2160.08 1895.44 2167.44 1903.67 2167.01 1913.21L2166.58 1924.47C2166.14 1934.01 2157.91 1941.37 2148.38 1940.94Z" fill="#423232"/>
<path d="M2007.98 1909.31C2007.98 1909.31 1996.71 1893.27 1977.21 1890.24C1961.18 1887.64 1943.41 1895.44 1940.81 1904.54" stroke="#423232" stroke-width="13" stroke-miterlimit="10" stroke-linecap="round" stroke-linejoin="round"/>
<path d="M2135.81 1913.21C2135.81 1913.21 2135.81 1899.34 2155.74 1899.34C2172.21 1899.34 2179.14 1914.51 2179.14 1914.51" stroke="#423232" stroke-width="13" stroke-miterlimit="10" stroke-linecap="round" stroke-linejoin="round"/>
<path d="M2025.74 1839.54C2034.84 1842.57 2043.94 1834.34 2042.21 1824.37C2041.34 1819.17 2039.18 1813.97 2034.84 1810.07C2021.84 1798.37 1968.11 1787.97 1935.61 1803.14C1907.01 1817.01 1984.14 1825.67 2025.74 1839.54Z" fill="#423232"/>
<path d="M2155.31 1846.47C2147.94 1849.07 2140.14 1841.27 2141.44 1832.17C2141.87 1827.41 2143.61 1822.64 2147.07 1819.17C2157.47 1808.77 2193.01 1800.54 2215.54 1816.57C2235.04 1830.01 2189.11 1833.91 2155.31 1846.47Z" fill="#423232"/>
<path d="M2082.18 2091.04C2082.62 2105.34 2061.38 2141.74 2020.22 2124.84C1980.78 2108.81 1969.08 2033.41 2025.42 2069.38C2054.88 2088.01 2072.65 2091.04 2082.18 2091.04Z" fill="white"/>
<path d="M2090.42 2089.31C2090.42 2089.31 2072.22 2099.28 2025.42 2069.38C1969.52 2033.41 1980.78 2108.81 2020.22 2124.84C2061.38 2141.74 2082.62 2104.91 2082.18 2091.04" stroke="#423232" stroke-width="13" stroke-miterlimit="10" stroke-linecap="round" stroke-linejoin="round"/>
<path d="M1987.28 2080.21C1987.28 2080.21 2016.75 2099.71 2025.42 2097.98C2034.52 2096.68 2033.22 2109.24 2074.38 2110.54" stroke="#423232" stroke-width="13" stroke-miterlimit="10" stroke-linecap="round" stroke-linejoin="round"/>
<path d="M2221.69 1893.56C2233.39 1827.69 2229.92 1801.69 2222.99 1770.93C2220.82 1761.39 2218.22 1752.29 2215.19 1743.19C2187.89 1731.06 2165.36 1764.86 2128.09 1759.66C2028.86 1746.23 1953.02 1703.76 1869.39 1721.96C1816.96 1733.23 1808.29 1780.46 1823.46 1867.56C1827.79 1891.39 1827.79 1914.36 1807.42 1938.19C1803.96 1926.06 1787.06 1876.66 1731.59 1883.59C1679.16 1890.09 1659.22 2011.43 1767.56 2053.03C1766.69 2076.86 1744.59 2121.06 1726.82 2131.03C1726.82 2131.03 1723.79 2099.39 1689.12 2057.79C1654.46 2016.19 1585.12 1908.29 1631.92 1750.56C1678.72 1592.83 1890.62 1510.49 2087.79 1590.66C2121.59 1604.53 2149.32 1624.03 2171.42 1644.39C2223.42 1692.06 2251.16 1761.39 2242.92 1831.16C2241.19 1854.56 2234.69 1877.09 2221.69 1893.56Z" fill="#423232"/>
<path d="M1778.39 1620.56C1778.39 1620.56 1790.96 1481.46 1715.56 1464.56C1640.16 1447.66 1666.16 1529.99 1689.56 1581.56C1689.56 1581.56 1599.42 1500.96 1559.99 1555.56C1522.29 1607.99 1616.76 1665.19 1616.76 1665.19C1616.76 1665.19 1476.79 1676.46 1506.26 1756.19C1536.16 1835.93 1689.56 1731.93 1689.56 1731.93C1689.56 1731.93 1777.96 1650.46 1778.39 1620.56Z" fill="#423232"/>
<path d="M1759.16 1951.13C1759.16 1951.13 1724.49 1945.93 1727.09 1994.46C1728.39 2019.16 1728.39 2032.59 1727.96 2039.53C1727.53 2044.29 1730.56 2048.63 1734.89 2050.36C1740.09 2052.53 1745.73 2050.36 1748.33 2045.16C1752.23 2038.23 1756.56 2028.69 1756.56 2020.89C1756.56 2007.89 1770.43 1996.19 1770.43 1996.19C1770.43 1996.19 1757.86 1985.36 1759.16 1951.13Z" fill="white"/>
<path d="M1864.03 2786.59C1860.56 2782.69 1724.49 2549.99 1744.86 2462.46C1758.73 2402.23 1740.53 2332.89 1724.49 2271.79C1717.99 2246.66 1711.93 2223.26 1708.46 2202.46C1702.39 2166.49 1706.73 2132.26 1721.46 2100.63C1737.49 2065.09 1734.89 2034.33 1734.89 2033.89L1743.56 2033.03C1743.56 2034.33 1746.16 2066.83 1729.26 2104.09C1715.39 2133.99 1711.49 2166.93 1717.13 2201.16C1720.59 2221.53 1726.66 2244.93 1733.16 2270.06C1749.63 2332.03 1767.83 2402.66 1753.53 2465.06C1734.46 2548.26 1870.09 2780.96 1870.96 2781.83L1864.03 2786.59Z" fill="white"/>
<path d="M1728.39 2019.59C1728.83 2029.13 1728.39 2035.63 1728.39 2039.53C1727.96 2044.29 1730.99 2048.63 1735.33 2050.36C1740.53 2052.53 1746.16 2050.36 1748.76 2045.16C1752.66 2038.23 1756.99 2028.69 1756.99 2020.89C1756.99 2020.46 1756.99 2019.59 1756.99 2019.16C1747.89 2022.63 1737.49 2025.23 1728.39 2019.59Z" fill="#E5E5E5"/>
<path d="M2136.16 2307.76C2133.13 2327.69 2132.69 2359.33 2131.83 2396.16C2130.53 2467.23 2088.49 2744.13 2068.13 2787.89L2060.33 2784.43C2079.83 2741.96 2121.86 2466.36 2123.16 2396.16C2124.03 2359.33 2124.46 2327.26 2127.49 2306.46C2133.99 2262.69 2129.23 2229.76 2126.63 2215.89C2127.93 2214.59 2129.23 2213.73 2130.53 2212.43C2131.83 2211.56 2132.69 2210.26 2133.99 2209.39C2136.59 2220.66 2143.96 2256.63 2136.16 2307.76Z" fill="white"/>
<path d="M1694.58 2228.25C1708.53 2231.35 1717.15 2253.67 1724.78 2263.65C1734.53 2276.4 1740.52 2291.56 1750.51 2303.54C1755.92 2310.03 1764.34 2324.94 1771.17 2329.12C1779.51 2334.21 1786.33 2342.78 1794.01 2349.93C1801.85 2357.23 1818.33 2361.22 1824.07 2368.72C1827.82 2373.63 1836.64 2377.27 1841.7 2381.87C1849.69 2389.13 1859 2393.92 1867.86 2400.08C1884.24 2411.48 1900.7 2426.94 1918.73 2435.05C1924.16 2437.5 1934.44 2440.64 1938.53 2444.73C1943.13 2449.33 1946.39 2454.2 1954.13 2456.58C1964.89 2459.89 1969.44 2431.77 1975.52 2427.97C1983.61 2422.91 1985.82 2405.76 1993.73 2398.63C1998.97 2393.92 2001.94 2373.39 2006.88 2390.68C2012.96 2411.96 2046.08 2425.39 2061.94 2438.38C2071.01 2445.8 2072.55 2421.99 2072.93 2419.44C2075.49 2402.24 2081.66 2386.44 2084.78 2369.3C2086.73 2358.54 2089.98 2350.24 2089.98 2338.66C2089.98 2331.77 2089.98 2324.88 2089.98 2317.99C2089.98 2299.92 2065.54 2277.16 2050.96 2269.87" stroke="#4C4343" stroke-width="10" stroke-linecap="round"/>
<path d="M2019.75 2457.16C2020.67 2464.54 2035.12 2451.96 2022.35 2451.96" stroke="#4C4343" stroke-width="10" stroke-linecap="round"/>
<path d="M2022.35 2519.59C2025.88 2518.71 2027.55 2505.25 2027.55 2519.59" stroke="#4C4343" stroke-width="10" stroke-linecap="round"/>
<path d="M2022.35 2579.43C2034.2 2566.25 2016.56 2568.14 2022.35 2576.82" stroke="#4C4343" stroke-width="10" stroke-linecap="round"/>
<path d="M2042.67 2268.67C2042.67 2271.11 2042.67 2273.56 2042.67 2276C2042.67 2278.29 2045.08 2278.63 2045.33 2280.67C2046.03 2286.26 2046.67 2292.44 2046.67 2298.67C2046.67 2311.43 2046.67 2324.2 2046.67 2336.96C2046.67 2346.71 2042.35 2356.39 2035.33 2362C2031.45 2365.11 2026.16 2368.15 2022 2370C2018.82 2371.41 2017.9 2375.15 2014.67 2375.33C2011.97 2375.48 2008.95 2378.19 2006.67 2379.33" stroke="#4C4343" stroke-width="10" stroke-linecap="round"/>
<path d="M2004 2378C2001.34 2378 2000.86 2380.54 1998.67 2380.67C1995.24 2380.87 1991.73 2380.67 1988.3 2380.67C1980.94 2380.67 1974.34 2382 1966.96 2382C1959.21 2382 1951.46 2382 1943.7 2382C1937.99 2382 1933.55 2379.24 1929.19 2375.33C1924.09 2370.78 1916.96 2367.74 1911.33 2363.33C1907.69 2360.48 1899.93 2359.04 1897.26 2355.93C1893.96 2352.08 1890.65 2350.26 1886.52 2347.26C1866.57 2332.75 1843.01 2324.04 1823.33 2309.41C1812.42 2301.29 1801.34 2293.85 1790.59 2285.41C1784.53 2280.64 1777.64 2276.82 1772.15 2271.33C1767.77 2266.95 1764.59 2262.16 1759.26 2258.74C1750.89 2253.38 1745.59 2247.59 1738.67 2240.67C1736.05 2238.05 1730.39 2232.67 1726.67 2232.67" stroke="#4C4343" stroke-width="10" stroke-linecap="round"/>
<path d="M1686.67 2228.67C1686.67 2235.6 1677.3 2236.39 1671.93 2238.74C1667.62 2240.62 1664.47 2241.46 1660.59 2243.93C1658.89 2245.01 1657 2244.07 1655.33 2244.81C1653.27 2245.73 1653.24 2248.41 1650.67 2248.67C1644.64 2249.27 1640.44 2255.12 1635.41 2258C1632.17 2259.85 1629.41 2262.33 1625.93 2264.07C1624.01 2265.03 1618.19 2269.24 1617.33 2270.74C1614.73 2275.29 1602.19 2279.01 1597.33 2281.7C1594.64 2283.2 1588.94 2284.5 1586.96 2286.3C1584.31 2288.71 1581.51 2292.37 1577.85 2294C1566.21 2299.18 1548.2 2312.07 1544 2324.67" stroke="#4C4343" stroke-width="5" stroke-linecap="round"/>
<path d="M1544 2327.33C1549.23 2327.33 1554.47 2327.33 1559.7 2327.33C1563.45 2327.33 1566.34 2327.94 1569.93 2328.59C1572.99 2329.15 1574.3 2332.67 1576.67 2332.67C1581.79 2332.67 1588.63 2339.18 1592 2342.74C1595.75 2346.71 1600.5 2351.13 1602.67 2356C1604.84 2360.88 1612.58 2365.75 1616 2370.15C1619.29 2374.37 1621.24 2381.37 1625.63 2384.67C1630.04 2387.97 1631.03 2392.71 1633.93 2397.26C1636.52 2401.33 1640.85 2409.19 1641.33 2414C1641.97 2420.35 1647.86 2425.11 1649.63 2430.74C1651.57 2436.9 1654.52 2443 1655.93 2449.33C1658.66 2461.65 1658.67 2475.39 1658.67 2488.07C1658.67 2499.48 1658.67 2510.89 1658.67 2522.3C1658.67 2527.78 1658.67 2533.26 1658.67 2538.74C1658.67 2541.69 1657.49 2544.36 1657.33 2547.33C1657.2 2549.92 1654.67 2549.83 1654.67 2552.67" stroke="#4C4343" stroke-width="5" stroke-linecap="round"/>
<path d="M2057.33 2270C2070.46 2274.72 2081.68 2279.7 2094.07 2285.33C2104.78 2290.2 2116.45 2289.32 2127.26 2295.04C2134.1 2298.66 2141.61 2305.38 2145.33 2312.07C2151.75 2323.63 2162.57 2333.45 2167.85 2345.33C2169.13 2348.21 2168.4 2352.87 2170.07 2355.26C2172.51 2358.74 2174.92 2363.88 2176.07 2367.93C2177.81 2373.99 2182.82 2378.03 2185.63 2383.33C2191.69 2394.78 2195.79 2406.51 2201.41 2418.67C2204.61 2425.6 2208.94 2430.28 2211.33 2437.93C2213.56 2445.04 2217.09 2451.51 2219.7 2458.3C2222.47 2465.48 2222.87 2471.96 2228 2478C2230.27 2480.67 2227.8 2484.76 2229.63 2487.04C2231.88 2489.85 2233.97 2493.71 2234.74 2497.19C2237.12 2507.91 2244 2518.25 2244 2530" stroke="#4C4343" stroke-width="5" stroke-linecap="round"/>
<path d="M2136 2286C2136 2290.85 2137.03 2295.85 2133.63 2299.63C2131.89 2301.56 2130.67 2303.82 2130.67 2306.44C2130.67 2310.05 2130.67 2299.23 2130.67 2295.63C2130.67 2281.17 2129.69 2301.54 2129.41 2305.93C2129.17 2309.66 2130.01 2297.59 2130.37 2295.63C2132.24 2285.34 2133.33 2302.31 2133.33 2306" stroke="white" stroke-width="5" stroke-linecap="round"/>
<path d="M1744 2282C1746.68 2285.01 1746.67 2299.03 1746.67 2303.33C1746.67 2305.45 1746.67 2318.35 1746.67 2311.19C1746.67 2306.15 1746.67 2301.11 1746.67 2296.07C1746.67 2293.14 1746.89 2290.08 1746.37 2287.19C1745.98 2285.04 1742.77 2281.3 1742.67 2285.56C1742.52 2291.45 1742.67 2297.37 1742.67 2303.26C1742.67 2305.56 1742.67 2312.44 1742.67 2310.15C1742.67 2305.21 1742.67 2300.27 1742.67 2295.33C1742.67 2289.56 1742.67 2283.78 1742.67 2278" stroke="white" stroke-width="5" stroke-linecap="round"/>
</g>
<defs>
<filter id="filter0_d_22_481" x="2056.97" y="1990.56" width="98.49" height="53.975" filterUnits="userSpaceOnUse" color-interpolation-filters="sRGB">
<feFlood flood-opacity="0" result="BackgroundImageFix"/>
<feColorMatrix in="SourceAlpha" type="matrix" values="0 0 0 0 0 0 0 0 0 0 0 0 0 0 0 0 0 0 127 0" result="hardAlpha"/>
<feOffset dy="4"/>
<feGaussianBlur stdDeviation="2"/>
<feComposite in2="hardAlpha" operator="out"/>
<feColorMatrix type="matrix" values="0 0 0 0 0 0 0 0 0 0 0 0 0 0 0 0 0 0 0.25 0"/>
<feBlend mode="normal" in2="BackgroundImageFix" result="effect1_dropShadow_22_481"/>
<feBlend mode="normal" in="SourceGraphic" in2="effect1_dropShadow_22_481" result="shape"/>
</filter>
</defs>
</svg>
