<svg width="3865" height="3930" viewBox="0 0 3865 3930" fill="none" xmlns="http://www.w3.org/2000/svg">
<rect width="3865" height="3930" rx="96" fill="#FFFBF5"/>
<path d="M1932 2615C1572.71 2615 1282 2323.86 1282 1965C1282 1605.71 1573.14 1315 1932 1315C2291.29 1315 2582 1606.14 2582 1965C2582.43 2324.29 2291.29 2615 1932 2615Z" fill="#FDF07E"/>
<mask id="mask0_410_878" style="mask-type:alpha" maskUnits="userSpaceOnUse" x="1282" y="1315" width="1301" height="1300">
<path d="M1932 2615C1572.71 2615 1282 2323.86 1282 1965C1282 1605.71 1573.14 1315 1932 1315C2291.29 1315 2582 1606.14 2582 1965C2582.43 2324.29 2291.29 2615 1932 2615Z" fill="#F7C0B5"/>
</mask>
<g mask="url(#mask0_410_878)">
<path d="M2294.26 2512.33C2291.23 2514.5 2287.76 2516.66 2284.73 2518.83C2281.26 2521 2278.23 2523.16 2274.76 2524.9C2271.73 2526.63 2269.13 2528.36 2266.1 2530.1C2265.66 2530.53 2265.23 2530.53 2264.8 2530.96C2254.83 2537.03 2244.43 2542.66 2234.03 2547.86C2231 2549.6 2227.53 2551.33 2224.5 2552.63C2224.5 2552.63 2224.06 2553.06 2223.63 2553.06C2220.16 2554.8 2216.7 2556.53 2213.23 2558.26C2206.3 2561.73 2198.93 2564.76 2192 2567.8C2188.53 2569.53 2184.63 2570.83 2181.16 2572.13C2177.7 2573.43 2173.8 2575.16 2170.33 2576.46C2166.86 2577.76 2162.96 2579.5 2159.5 2580.8C2159.5 2580.8 2159.5 2580.8 2159.06 2580.8C2155.6 2582.1 2151.7 2583.4 2148.23 2584.7C2140.43 2587.3 2132.2 2589.9 2124.4 2592.5C2121.8 2593.36 2118.76 2594.23 2116.16 2595.1C2107.93 2597.7 2099.7 2599.86 2091.46 2601.6C2088.43 2602.46 2085.4 2602.9 2081.93 2603.76C2074.13 2605.5 2065.9 2607.23 2058.1 2608.96C2056.36 2609.4 2055.06 2609.4 2053.33 2609.83C2050.73 2610.26 2047.7 2610.7 2045.1 2611.13C2041.2 2611.56 2037.73 2612.43 2033.83 2612.86C2032.1 2613.3 2030.36 2613.3 2028.63 2613.73C2026.46 2614.16 2023.86 2614.6 2021.26 2614.6C2014.33 2615.46 2006.96 2616.33 2000.03 2617.2C1997.86 2617.63 1995.26 2617.63 1993.1 2618.06H1992.66C1989.63 2618.5 1986.6 2618.5 1983.56 2618.93C1980.53 2619.36 1977.5 2619.36 1974.46 2619.36C1972.73 2619.36 1970.56 2619.8 1968.83 2619.8C1965.36 2619.8 1962.33 2620.23 1959.3 2620.23C1954.96 2620.23 1951.06 2620.66 1946.73 2620.66C1942.4 2620.66 1938.5 2620.66 1934.16 2620.66C1931.13 2620.66 1928.1 2620.66 1925.06 2620.66C1742.63 2618.06 1577.96 2540.5 1460.96 2417.43C1460.96 2417.43 1460.96 2417 1460.53 2417C1473.96 2390.56 1523.8 2342.9 1575.8 2303.46C1641.66 2253.63 1734.83 2222.86 1734.83 2222.86C1734.83 2222.86 1795.93 2212.9 2022.56 2260.13C2195.46 2296.53 2269.13 2444.3 2294.26 2512.33Z" fill="#EEB2A4"/>
<path d="M2070.66 2380.16C2061.56 2424.8 2002.63 2451.23 1903.4 2411.36C1781.63 2361.96 1734.83 2222.86 1734.83 2222.86C1728.33 2123.2 1713.16 2037.83 1713.16 2037.83C1854 2025.7 2020.4 2190.36 2020.4 2190.36L2039.46 2271.83C2041.2 2278.76 2044.66 2284.83 2049.86 2289.16C2058.96 2304.76 2076.73 2351.56 2070.66 2380.16Z" fill="#EEB2A4"/>
<path d="M2049.87 2289.6C1967.1 2285.27 1906 2273.13 1840.57 2155.7C1896.03 2204.67 1961.47 2223.3 2030.37 2231.97L2039.47 2271.83C2041.2 2279.2 2044.67 2285.27 2049.87 2289.6Z" fill="#A56663"/>
<path d="M2221.03 1767.43C2228.83 1803.83 2232.73 1833.3 2211.5 1930.37C2190.26 2027.43 2231 2124.5 2128.73 2213.33C2059.83 2273.13 1939.36 2284.4 1843.16 2218.97C1810.66 2196.87 1780.76 2166.1 1756.5 2125.8C1737.43 2094.17 1715.33 2064.27 1690.63 2036.97C1656.4 1999.7 1615.23 1924.73 1635.6 1792.13C1668.53 1576.33 1882.16 1551.63 2008.26 1575.47C2134.36 1599.3 2199.8 1671.23 2221.03 1767.43Z" fill="#EEB2A4"/>
<path d="M1806.33 1936.87C1806.33 1936.87 1792.9 1871.87 1729.63 1879.67C1675.03 1886.6 1655.97 2017.47 1779.9 2053.87" fill="#EEB2A4"/>
<path d="M1776 1994.5C1776 1994.5 1760.4 1984.53 1762.13 1967.2C1764.73 1946.83 1762.13 1934.26 1752.6 1930.36C1728.77 1920.4 1724 1948.13 1724.87 1951.6" stroke="#423232" stroke-width="13" stroke-miterlimit="10" stroke-linecap="round" stroke-linejoin="round"/>
<path d="M2106.63 2036.53C2106.63 2036.53 2123.1 2037.4 2138.7 2018.77C2147.36 2008.37 2154.73 1995.37 2149.96 1991.47C2145.2 1987.13 2066.76 1999.27 2061.56 2009.67C2056.36 2020.07 2086.7 2036.53 2106.63 2036.53Z" fill="#A56663"/>
<path d="M2119.63 1890.93C2119.63 1890.93 2120.5 1932.1 2146.93 1978.03C2158.63 1998.4 2140.86 2031.77 2102.3 2037.4" stroke="#423232" stroke-width="13" stroke-miterlimit="10" stroke-linecap="round" stroke-linejoin="round"/>
<path d="M2187.23 2345.03C2154.3 2315.13 2110.97 2280.03 2040.77 2261.83C1963.2 2241.47 1922.9 2285.23 1860.93 2279.17C1827.57 2275.7 1772.97 2210.7 1736.13 2220.23C1690.63 2232.37 1640.37 2256.63 1579.7 2298.67C1566.7 2307.77 1455.33 2382.3 1416.77 2504.07C1381.67 2614.13 1373 2765.8 1372.13 2816.07H2359.27C2359.7 2504.93 2221.47 2376.23 2187.23 2345.03Z" fill="#C2FFE5"/>
<path d="M1721.83 2271.37C1721.83 2271.37 1713.6 2199.43 1720.97 2176.47C1721.83 2173.43 1730.93 2168.23 1730.93 2168.23C1730.93 2168.23 1730.93 2208.53 1828.43 2236.27C1931.13 2265.3 2045.53 2256.63 2066.77 2247.53C2066.77 2247.53 2067.2 2307.33 2055.93 2329.87C2038.6 2364.53 1900.8 2357.17 1817.17 2328.57C1743.93 2303.43 1721.83 2271.37 1721.83 2271.37Z" fill="#C2FFE5"/>
<g opacity="0.25">
<g opacity="0.25">
<g opacity="0.25">
<g opacity="0.25">
<path opacity="0.25" d="M1318.4 2325.97C1406.37 2277.43 1394.67 2327.7 1522.5 2303C1577.1 2292.6 1638.63 2244.93 1717.07 2241.47C1776.87 2238.87 1843.17 2278.73 1916.83 2283.93C1978.37 2288.27 2049.43 2256.63 2120.5 2268.33C2182.47 2278.3 2239.67 2330.3 2309 2347.2" stroke="#6D5F5E" stroke-width="21.7052" stroke-miterlimit="10" stroke-linecap="round" stroke-linejoin="round"/>
</g>
<g opacity="0.25">
<path opacity="0.25" d="M1320.14 2375.37C1415.04 2335.93 1399.87 2385.77 1529.87 2364.53C1586.64 2355.43 1650.77 2307.33 1730.07 2303.87C1792.04 2301.27 1860.07 2341.57 1935.04 2345.47C1998.74 2348.93 2070.67 2314.7 2143.04 2324.67C2207.17 2333.33 2267.4 2385.33 2338.04 2400.5" stroke="#6D5F5E" stroke-width="21.7052" stroke-miterlimit="10" stroke-linecap="round" stroke-linejoin="round"/>
</g>
<g opacity="0.25">
<path opacity="0.25" d="M1321.87 2424.77C1422.4 2393.57 1404.2 2442.53 1536.8 2425.2C1595.3 2417.4 1662.03 2369.3 1742.63 2365.83C1806.33 2363.23 1876.97 2404.4 1952.8 2407.43C2018.67 2410.03 2091.47 2373.2 2165.57 2381.43C2231.87 2388.8 2295.13 2440.37 2367.5 2453.37" stroke="#6D5F5E" stroke-width="21.7052" stroke-miterlimit="10" stroke-linecap="round" stroke-linejoin="round"/>
</g>
<g opacity="0.25">
<path opacity="0.25" d="M1323.6 2474.17C1428.9 2450.77 1408.53 2498.87 1543.73 2485C1604.4 2478.5 1673.73 2430.4 1755.63 2427.37C1821.5 2424.77 1893.87 2467.23 1971.43 2468.97C2039.47 2470.7 2113.57 2431.7 2188.97 2438.2C2257.87 2444.27 2324.17 2494.97 2397.83 2506.23" stroke="#6D5F5E" stroke-width="21.7052" stroke-miterlimit="10" stroke-linecap="round" stroke-linejoin="round"/>
</g>
<g opacity="0.25">
<path opacity="0.25" d="M1324.9 2524C1434.1 2507.1 1412 2555.2 1549.37 2544.37C1612.2 2539.6 1684.13 2491.07 1767.33 2488.47C1835.37 2486.3 1909.9 2529.63 1988.33 2530.93C2058.53 2531.8 2133.93 2490.63 2210.63 2495.4C2281.7 2499.73 2351.47 2550 2426.87 2558.67" stroke="#6D5F5E" stroke-width="21.7052" stroke-miterlimit="10" stroke-linecap="round" stroke-linejoin="round"/>
</g>
<g opacity="0.25">
<path opacity="0.25" d="M1325.77 2573.83C1438.44 2563 1415.04 2610.67 1554.57 2603.3C1619.57 2599.83 1694.1 2551.73 1779.04 2550C1849.24 2548.27 1925.5 2592.9 2005.67 2593.33C2078.04 2593.77 2155.17 2550 2232.74 2553.47C2306.84 2556.5 2379.64 2605.9 2455.9 2611.53" stroke="#6D5F5E" stroke-width="21.7052" stroke-miterlimit="10" stroke-linecap="round" stroke-linejoin="round"/>
</g>
<g opacity="0.25">
<path opacity="0.25" d="M1327.07 2624.1C1442.77 2618.9 1418.07 2666.13 1560.63 2662.23C1627.37 2660.5 1704.93 2612.4 1791.6 2611.1C1863.97 2610.23 1942.4 2655.73 2023.87 2655.73C2098.83 2655.73 2177.27 2610.23 2256.13 2611.53C2332.83 2612.83 2409.1 2661.37 2486.67 2664.4" stroke="#6D5F5E" stroke-width="21.7052" stroke-miterlimit="10" stroke-linecap="round" stroke-linejoin="round"/>
</g>
</g>
</g>
</g>
<path d="M1597.47 2290C1614.37 2309.07 1683.7 2391.83 1708.4 2485.43L1764.3 2494.53C1764.3 2494.53 1704.5 2345.47 1622.16 2272.67C1618.7 2269.63 1613.5 2269.2 1609.16 2270.93C1605.7 2272.67 1601.37 2275.7 1597.47 2280.9C1594.87 2283.93 1595.3 2287.83 1597.47 2290Z" fill="#423232"/>
<path d="M2126.57 2465.93C2126.57 2465.93 2133.93 2354.13 2078.03 2275.27C2078.03 2275.27 2081.5 2271.8 2101 2281.33C2114.87 2287.83 2155.6 2343.73 2159.5 2456.83C2159.93 2456.83 2131.33 2466.37 2126.57 2465.93Z" fill="#423232"/>
<path d="M1695.4 2407.87C1695.4 2407.87 2015.63 2493.23 2153.87 2398.77C2153.87 2398.77 2225.8 2540.47 2253.97 2816.07H1636.9C1636.9 2816.07 1687.17 2749.77 1695.4 2407.87Z" fill="#423232"/>
<path d="M1753.9 2513.6C1765.39 2513.6 1774.7 2504.29 1774.7 2492.8C1774.7 2481.31 1765.39 2472 1753.9 2472C1742.41 2472 1733.1 2481.31 1733.1 2492.8C1733.1 2504.29 1742.41 2513.6 1753.9 2513.6Z" fill="white"/>
<path d="M2138.7 2480.67C2148.75 2480.67 2156.9 2472.52 2156.9 2462.47C2156.9 2452.42 2148.75 2444.27 2138.7 2444.27C2128.65 2444.27 2120.5 2452.42 2120.5 2462.47C2120.5 2472.52 2128.65 2480.67 2138.7 2480.67Z" fill="white"/>
<path d="M1981.71 1905.25C1981.71 1905.68 1981.71 1906.12 1981.71 1906.12L1981.28 1918.25C1980.85 1928.65 1972.18 1936.45 1961.78 1936.02C1951.38 1935.58 1943.58 1926.48 1944.45 1916.52L1944.88 1904.38C1944.88 1902.22 1945.75 1899.62 1946.61 1897.88L1981.28 1899.62C1981.28 1901.35 1981.71 1903.08 1981.71 1905.25Z" fill="black"/>
<path d="M2162.84 1914.78L2162.41 1926.05C2161.97 1935.58 2153.74 1942.95 2144.21 1942.52C2134.67 1942.08 2127.31 1933.85 2127.74 1924.32L2128.17 1913.05C2128.17 1910.88 2128.61 1908.72 2129.47 1906.98L2161.97 1908.28C2162.84 1910.45 2162.84 1912.62 2162.84 1914.78Z" fill="black"/>
<path d="M2025.04 1845.88C2034.58 1847.18 2041.94 1837.22 2038.48 1827.68C2036.74 1822.48 2033.71 1817.72 2028.94 1814.68C2014.21 1805.58 1959.18 1804.72 1930.14 1825.52C1904.58 1844.58 1981.71 1839.82 2025.04 1845.88Z" fill="black"/>
<path d="M2145.07 1850.65C2137.27 1850.65 2132.51 1840.68 2136.41 1832.45C2138.57 1828.12 2141.61 1824.22 2145.94 1822.05C2159.37 1815.55 2195.34 1819.45 2211.37 1841.55C2225.67 1861.05 2181.04 1850.22 2145.07 1850.65Z" fill="black"/>
<path d="M2009.88 1900.48L1980.84 1899.18L1946.18 1897.88L1938.38 1897.45" stroke="black" stroke-width="13" stroke-miterlimit="10" stroke-linecap="round" stroke-linejoin="round"/>
<path d="M2181.04 1909.15L2161.97 1908.28L2129.47 1906.98H2128.17" stroke="black" stroke-width="13" stroke-miterlimit="10" stroke-linecap="round" stroke-linejoin="round"/>
<path d="M2094.33 2088.8C2083.5 2093.56 2078.3 2084.03 2061.4 2092.26C2049.26 2097.9 2042.76 2099.63 2028.03 2090.96C2018.5 2084.9 2006.8 2093.56 1995.53 2077.1" stroke="#423232" stroke-width="13" stroke-miterlimit="10" stroke-linecap="round" stroke-linejoin="round"/>
<path d="M2048.19 2254.66C2079.82 2246.43 2107.99 2232.13 2130.96 2212.2C2233.22 2123.8 2192.49 2026.3 2213.72 1929.23C2220.66 1898.03 2224.56 1873.76 2227.16 1854.26C2223.69 1853.83 2219.79 1853.4 2215.89 1852.53C2200.29 1850.36 2189.89 1836.06 2191.62 1820.46C2192.49 1813.96 2192.92 1807.46 2193.36 1800.53C2191.62 1800.1 2192.06 1800.1 2190.32 1800.1C2187.72 1808.33 2184.69 1817 2182.52 1825.23C2178.62 1838.23 2166.06 1846.46 2153.06 1845.6H2152.62C2137.46 1844.3 2126.19 1831.73 2126.19 1816.56C2126.62 1805.73 2126.62 1794.9 2127.06 1784.06C2125.32 1783.63 2126.19 1784.06 2124.46 1783.63C2122.29 1794.9 2120.12 1806.16 2117.96 1817.86C2115.36 1832.16 2102.79 1842.13 2088.49 1841.26C2051.22 1839.53 2014.39 1839.1 1981.02 1839.1C1966.29 1839.1 1954.16 1828.26 1952.86 1813.53C1950.69 1794.46 1947.66 1775.4 1942.46 1755.9C1936.82 1773.23 1936.82 1791.43 1937.69 1810.06C1938.56 1826.1 1925.99 1839.53 1909.96 1839.96C1871.39 1840.83 1845.39 1842.13 1841.06 1842.56C1842.36 1901.93 1828.92 1967.8 1805.09 1923.16C1803.36 1920.13 1802.06 1917.1 1800.32 1913.2C1790.36 1895.43 1770.42 1874.2 1732.72 1878.96C1679.86 1885.9 1660.36 2008.53 1771.29 2049.26C1771.72 2058.36 1773.89 2067.46 1777.79 2077C1794.69 2118.16 1802.06 2152.4 1802.06 2180.56C1802.06 2343.93 1534.69 2275.9 1459.29 2127.7C1430.26 2070.06 1429.82 2000.73 1484.86 1927.93C1619.62 1762.83 1579.32 1825.66 1609.22 1727.73C1658.19 1567.4 1769.99 1516.26 1918.19 1517.56C1918.19 1517.56 2164.76 1517.56 2230.19 1577.36C2295.62 1637.16 2273.09 1823.93 2267.46 1840.83C2265.72 1846.03 2261.39 1849.06 2256.62 1851.23C2254.02 1936.6 2262.69 1966.5 2293.02 2035.4C2359.32 2187.06 2234.09 2331.36 2048.19 2254.66Z" fill="#423232"/>
<path d="M1805.09 1923.6C1803.36 1920.56 1802.06 1917.53 1800.32 1913.63C1802.06 1917.1 1803.79 1920.56 1805.09 1923.6Z" fill="#FEE4BF"/>
<path d="M1749.54 2020.47V2094.13" stroke="#FFDE55" stroke-width="13" stroke-miterlimit="10" stroke-linecap="round" stroke-linejoin="round"/>
<path d="M1808.04 2192.93C1796.34 2204.63 1780.31 2212 1762.11 2212C1727.01 2212 1697.98 2183.4 1697.98 2147.87C1697.98 2112.77 1726.58 2083.73 1762.11 2083.73C1779.88 2083.73 1796.34 2091.1 1808.04 2102.8C1800.24 2098.47 1791.58 2095.87 1782.04 2095.87C1753.44 2095.87 1730.04 2119.27 1730.04 2147.87C1730.04 2176.47 1753.44 2199.87 1782.04 2199.87C1791.58 2200.3 1800.24 2197.7 1808.04 2192.93Z" fill="#FFDE55"/>
<path d="M1749.54 2173.87C1763.66 2173.87 1775.11 2162.42 1775.11 2148.3C1775.11 2134.18 1763.66 2122.73 1749.54 2122.73C1735.42 2122.73 1723.98 2134.18 1723.98 2148.3C1723.98 2162.42 1735.42 2173.87 1749.54 2173.87Z" fill="#FF6B57"/>
<path d="M2243.98 2103.67C2236.18 2099.33 2227.51 2096.73 2217.98 2096.73C2211.05 2096.73 2204.98 2098.03 2198.91 2100.63C2199.78 2095.43 2201.08 2090.23 2201.51 2085.03C2218.41 2085.47 2233.15 2092.4 2243.98 2103.67Z" fill="#FFDE55"/>
<path d="M2244.41 2192.93C2232.71 2204.63 2216.68 2212 2198.48 2212C2180.28 2212 2163.38 2204.2 2151.68 2191.63C2158.61 2183.83 2164.68 2176.03 2170.31 2168.23C2178.11 2186.87 2196.74 2199.43 2217.98 2199.43C2227.51 2200.3 2236.61 2197.7 2244.41 2192.93Z" fill="#FFDE55"/>
<path d="M2211.48 2148.3C2211.48 2162.6 2200.21 2173.87 2185.91 2173.87C2180.28 2173.87 2175.08 2172.13 2170.75 2168.67C2180.71 2153.93 2188.08 2138.77 2192.85 2124.03C2203.25 2126.63 2211.48 2136.6 2211.48 2148.3Z" fill="#FF6B57"/>
</g>
</svg>
