<svg width="1300" height="1300" viewBox="0 0 1300 1300" fill="none" xmlns="http://www.w3.org/2000/svg">
<path d="M650 1300C290.71 1300 0 1008.86 0 650C0 290.71 291.141 0 650 0C1009.29 0 1300 291.141 1300 650C1300.43 1009.29 1009.29 1300 650 1300Z" fill="#BABABA"/>
<mask id="mask0_410_879" style="mask-type:alpha" maskUnits="userSpaceOnUse" x="0" y="0" width="1301" height="1300">
<path d="M650 1300C290.71 1300 0 1008.86 0 650C0 290.71 291.141 0 650 0C1009.29 0 1300 291.141 1300 650C1300.43 1009.29 1009.29 1300 650 1300Z" fill="#F7C0B5"/>
</mask>
<g mask="url(#mask0_410_879)">
<path d="M1012.26 1197.33C1009.23 1199.5 1005.76 1201.66 1002.73 1203.83C999.265 1206 996.231 1208.16 992.764 1209.9C989.731 1211.63 987.131 1213.36 984.098 1215.1C983.664 1215.53 983.231 1215.53 982.798 1215.96C972.831 1222.03 962.431 1227.66 952.031 1232.86C948.998 1234.6 945.531 1236.33 942.498 1237.63C942.498 1237.63 942.065 1238.06 941.631 1238.06C938.165 1239.8 934.698 1241.53 931.231 1243.26C924.298 1246.73 916.931 1249.76 909.998 1252.8C906.531 1254.53 902.631 1255.83 899.165 1257.13C895.698 1258.43 891.798 1260.16 888.331 1261.46C884.865 1262.76 880.965 1264.5 877.498 1265.8C877.498 1265.8 877.498 1265.8 877.065 1265.8C873.598 1267.1 869.698 1268.4 866.231 1269.7C858.431 1272.3 850.198 1274.9 842.398 1277.5C839.798 1278.36 836.765 1279.23 834.165 1280.1C825.931 1282.7 817.698 1284.86 809.465 1286.6C806.431 1287.46 803.398 1287.9 799.931 1288.76C792.131 1290.5 783.898 1292.23 776.098 1293.96C774.365 1294.4 773.065 1294.4 771.331 1294.83C768.731 1295.26 765.698 1295.7 763.098 1296.13C759.198 1296.56 755.731 1297.43 751.831 1297.86C750.098 1298.3 748.365 1298.3 746.631 1298.73C744.465 1299.16 741.865 1299.6 739.265 1299.6C732.331 1300.46 724.965 1301.33 718.031 1302.2C715.865 1302.63 713.265 1302.63 711.098 1303.06H710.665C707.631 1303.5 704.598 1303.5 701.565 1303.93C698.531 1304.36 695.498 1304.36 692.465 1304.36C690.731 1304.36 688.565 1304.8 686.831 1304.8C683.365 1304.8 680.331 1305.23 677.298 1305.23C672.965 1305.23 669.065 1305.66 664.731 1305.66C660.398 1305.66 656.498 1305.66 652.165 1305.66C649.131 1305.66 646.098 1305.66 643.065 1305.66C460.631 1303.06 295.965 1225.5 178.965 1102.43C178.965 1102.43 178.965 1102 178.531 1102C191.965 1075.56 241.798 1027.9 293.798 988.465C359.665 938.632 452.831 907.865 452.831 907.865C452.831 907.865 513.931 897.898 740.565 945.132C913.465 981.532 987.131 1129.3 1012.26 1197.33Z" fill="#EEB2A4"/>
<path d="M788.664 1065.16C779.564 1109.8 720.631 1136.23 621.397 1096.36C499.631 1046.96 452.831 907.865 452.831 907.865C446.331 808.198 431.164 722.832 431.164 722.832C571.997 710.698 738.397 875.365 738.397 875.365L757.464 956.832C759.197 963.765 762.664 969.832 767.864 974.165C776.964 989.765 794.731 1036.56 788.664 1065.16Z" fill="#EEB2A4"/>
<path d="M767.865 974.599C685.099 970.265 623.999 958.132 558.565 840.699C614.032 889.665 679.465 908.299 748.365 916.965L757.465 956.832C759.199 964.198 762.665 970.265 767.865 974.599Z" fill="#A56663"/>
<path d="M939.031 452.432C946.831 488.832 950.731 518.298 929.498 615.365C908.264 712.432 948.998 809.498 846.731 898.332C777.831 958.132 657.364 969.398 561.164 903.965C528.665 881.865 498.764 851.098 474.498 810.798C455.431 779.165 433.331 749.265 408.631 721.965C374.398 684.698 333.231 609.732 353.598 477.132C386.531 261.332 600.164 236.632 726.264 260.465C852.364 284.298 917.798 356.232 939.031 452.432Z" fill="#EEB2A4"/>
<path d="M524.332 621.865C524.332 621.865 510.899 556.865 447.632 564.665C393.032 571.598 373.965 702.465 497.899 738.865" fill="#EEB2A4"/>
<path d="M493.999 679.498C493.999 679.498 478.399 669.532 480.133 652.198C482.733 631.832 480.133 619.265 470.599 615.365C446.766 605.398 441.999 633.132 442.866 636.598" stroke="#423232" stroke-width="13" stroke-miterlimit="10" stroke-linecap="round" stroke-linejoin="round"/>
<path d="M824.629 721.532C824.629 721.532 841.096 722.398 856.696 703.765C865.363 693.365 872.729 680.365 867.963 676.465C863.196 672.132 784.763 684.265 779.563 694.665C774.363 705.065 804.696 721.532 824.629 721.532Z" fill="#A56663"/>
<path d="M837.629 575.932C837.629 575.932 838.496 617.098 864.929 663.032C876.629 683.398 858.863 716.765 820.296 722.398" stroke="#423232" stroke-width="13" stroke-miterlimit="10" stroke-linecap="round" stroke-linejoin="round"/>
<path d="M496.384 947.754C496.384 947.754 487.717 894.021 472.984 897.054C404.517 912.654 204.751 970.721 134.984 1121.52C69.1174 1264.95 63.0508 1466.02 63.0508 1466.02H1158.95C1158.95 1466.02 1139.02 1160.52 1027.22 1066.92C960.917 1011.02 901.117 976.788 852.151 955.988C787.151 928.254 721.717 986.321 703.084 985.021C669.717 983.287 496.384 947.754 496.384 947.754Z" fill="#544D4D"/>
<path d="M277.551 1466.02L258.051 1305.25" stroke="white" stroke-width="13" stroke-miterlimit="10" stroke-linecap="round" stroke-linejoin="round"/>
<path d="M1034.15 1250.65C1034.15 1250.65 1021.15 1282.29 1025.05 1313.92C1028.95 1345.55 1040.22 1391.92 1024.18 1466.02" stroke="white" stroke-width="13" stroke-miterlimit="10" stroke-linecap="round" stroke-linejoin="round"/>
<path d="M446.549 853.287C446.549 853.287 415.349 864.554 409.716 870.621C404.083 876.687 401.483 880.588 401.483 880.588C401.483 880.588 385.883 897.921 377.216 939.954C373.316 957.721 382.416 986.754 375.483 1009.72C355.549 1073.42 450.016 1171.35 606.016 1228.99C724.316 1272.75 854.749 1232.89 872.949 1150.55C890.283 1071.25 879.883 1035.29 871.649 1009.72C855.183 960.321 849.983 946.454 827.883 927.387C814.016 915.254 804.483 940.387 752.483 954.687C736.449 959.021 716.949 962.487 691.816 963.354C542.316 968.987 479.049 884.054 456.516 859.787C450.883 855.021 448.283 852.421 446.549 853.287Z" fill="white"/>
<path d="M751.184 954.254C735.151 958.588 715.651 962.054 690.518 962.921C541.018 968.554 477.751 883.621 455.218 859.354" stroke="#CCCCCC" stroke-width="13" stroke-miterlimit="10" stroke-linecap="round" stroke-linejoin="round"/>
<path d="M830.485 911.788C869.918 944.721 938.385 1030.95 921.918 1223.79C913.685 1319.12 960.052 1358.55 949.652 1373.72C947.918 1376.32 945.751 1377.62 944.018 1378.05C936.651 1379.79 929.718 1383.25 926.252 1390.19C924.952 1393.22 922.785 1395.39 919.752 1397.12C917.152 1398.85 914.118 1398.85 911.518 1398.42C902.418 1396.25 892.452 1401.45 886.818 1409.25C884.652 1412.29 882.052 1414.45 878.152 1415.32C875.552 1416.19 872.952 1415.75 871.218 1415.32C863.852 1413.15 855.618 1415.32 849.118 1420.52C847.385 1421.82 845.652 1422.69 843.485 1422.69C839.585 1422.69 836.551 1420.95 833.951 1418.35C827.885 1412.72 819.218 1410.55 810.552 1413.59C809.685 1414.02 809.252 1414.02 808.385 1414.02C802.318 1414.89 797.552 1410.12 794.085 1401.89C790.618 1394.09 782.385 1390.62 773.718 1391.49C771.985 1391.49 770.252 1391.49 768.085 1391.05C751.185 1387.15 729.518 1363.75 729.085 1335.15C728.652 1306.99 735.152 1258.02 745.985 1235.05C779.352 1164.42 791.485 1113.72 793.218 1075.59C796.685 1005.82 752.485 943.421 756.818 942.121C801.018 933.021 830.485 911.788 830.485 911.788Z" fill="white"/>
<path d="M745.551 1235.05C778.917 1164.42 791.051 1113.72 792.784 1075.59C795.384 1021.85 769.384 972.021 759.851 951.654" stroke="#CCCCCC" stroke-width="13" stroke-miterlimit="10" stroke-linecap="round" stroke-linejoin="round"/>
<path d="M728.653 1335.15C728.22 1306.99 734.72 1258.02 745.553 1235.05C778.92 1164.42 791.053 1113.72 792.786 1075.59" stroke="#CCCCCC" stroke-width="13" stroke-miterlimit="10" stroke-linecap="round" stroke-linejoin="round"/>
<path d="M767.22 1183.92C767.22 1183.92 635.487 1196.92 548.82 1131.49" stroke="#CCCCCC" stroke-width="13" stroke-miterlimit="10" stroke-linecap="round" stroke-linejoin="round"/>
<path d="M802.752 955.554C814.885 973.321 828.752 999.321 832.219 1031.39" stroke="#CCCCCC" stroke-width="13" stroke-miterlimit="10" stroke-linecap="round" stroke-linejoin="round"/>
<path d="M857.787 1415.32C857.787 1415.32 835.687 1368.52 857.787 1266.69C881.187 1158.35 870.354 1105.05 870.354 1105.05" stroke="#CCCCCC" stroke-width="13" stroke-miterlimit="10" stroke-linecap="round" stroke-linejoin="round"/>
<path d="M376.351 961.621C376.351 961.621 405.384 1021.42 440.484 1049.15" stroke="#CCCCCC" stroke-width="13" stroke-miterlimit="10" stroke-linecap="round" stroke-linejoin="round"/>
<path d="M789.319 1105.05C789.319 1105.05 706.986 1110.69 648.919 1088.15" stroke="#CCCCCC" stroke-width="13" stroke-miterlimit="10" stroke-linecap="round" stroke-linejoin="round"/>
<path d="M699.712 590.249C699.712 590.683 699.712 591.116 699.712 591.116L699.279 603.249C698.846 613.649 690.179 621.449 679.779 621.016C669.379 620.583 661.579 611.483 662.446 601.516L662.879 589.383C662.879 587.216 663.746 584.616 664.612 582.883L699.279 584.616C699.279 586.349 699.712 588.083 699.712 590.249Z" fill="#423232"/>
<path d="M880.84 599.783L880.407 611.049C879.973 620.583 871.74 627.949 862.206 627.516C852.673 627.083 845.307 618.849 845.74 609.316L846.173 598.049C846.173 595.883 846.606 593.716 847.473 591.983L879.973 593.283C880.84 595.449 880.84 597.616 880.84 599.783Z" fill="#423232"/>
<path d="M743.043 530.882C752.576 532.182 759.943 522.216 756.476 512.682C754.743 507.482 751.709 502.716 746.943 499.682C732.209 490.582 677.176 489.716 648.143 510.516C622.576 529.582 699.709 524.816 743.043 530.882Z" fill="#423232"/>
<path d="M863.072 535.649C855.272 535.649 850.505 525.682 854.405 517.449C856.572 513.116 859.605 509.216 863.939 507.049C877.372 500.549 913.339 504.449 929.372 526.549C943.672 546.049 899.039 535.216 863.072 535.649Z" fill="#423232"/>
<path d="M727.875 585.482L698.842 584.182L664.175 582.882L656.375 582.449" stroke="#423232" stroke-width="13" stroke-miterlimit="10" stroke-linecap="round" stroke-linejoin="round"/>
<path d="M899.041 594.149L879.974 593.283L847.474 591.983H846.174" stroke="#423232" stroke-width="13" stroke-miterlimit="10" stroke-linecap="round" stroke-linejoin="round"/>
<path d="M800.184 776.042C800.617 790.342 779.384 826.742 738.217 809.842C698.784 793.809 687.084 718.409 743.417 754.375C772.884 773.009 790.65 776.042 800.184 776.042Z" fill="white"/>
<path d="M808.414 774.309C808.414 774.309 790.214 784.275 743.414 754.375C687.514 718.409 698.781 793.809 738.214 809.842C779.381 826.742 800.614 789.909 800.181 776.042" stroke="#423232" stroke-width="13" stroke-miterlimit="10" stroke-linecap="round" stroke-linejoin="round"/>
<path d="M705.282 765.209C705.282 765.209 734.749 784.709 743.416 782.975C752.516 781.675 751.216 794.242 792.382 795.542" stroke="#423232" stroke-width="13" stroke-miterlimit="10" stroke-linecap="round" stroke-linejoin="round"/>
<path d="M338.654 486.456C321.321 612.989 378.088 700.089 408.421 736.489C443.088 778.089 446.121 809.722 446.121 809.722C463.888 799.755 486.421 755.122 486.854 731.722C378.521 690.122 398.021 569.222 450.888 562.289C506.354 555.356 523.688 604.756 526.721 616.889C540.588 600.422 539.721 506.822 555.754 448.322C485.988 473.456 412.321 486.889 338.654 486.456Z" fill="#99807F"/>
<path d="M890.721 323.523C863.854 310.523 840.888 283.223 807.088 269.789C609.488 189.623 397.588 271.523 351.221 429.689C345.154 449.623 341.254 468.689 338.654 486.889C412.321 487.323 486.421 473.456 555.754 448.756C562.688 423.623 572.654 404.556 588.688 401.089C672.321 382.889 750.754 373.789 849.988 387.223C886.821 392.423 914.988 375.523 934.054 422.323C937.088 431.423 939.688 440.523 941.854 450.056C948.788 480.823 952.254 506.823 940.554 572.689C948.354 560.123 958.321 533.256 962.654 510.289C976.521 429.256 970.021 361.656 890.721 323.523Z" fill="#010101"/>
<path d="M945.756 468.256C950.09 489.056 976.523 487.322 980.423 466.522C986.056 436.189 988.656 399.789 983.89 358.622C961.356 166.222 770.256 101.222 807.09 229.489C807.09 229.489 756.823 148.889 643.723 144.556C546.656 141.089 605.59 209.989 605.59 209.989C605.59 209.989 486.856 166.656 359.023 231.656C247.656 288.422 350.79 338.256 350.79 338.256C350.79 338.256 266.29 382.889 264.99 479.089C264.123 551.022 496.823 554.056 585.223 501.622C631.156 474.322 652.823 427.089 699.623 399.356C781.523 350.389 802.756 460.889 846.523 420.156C897.656 373.356 934.49 410.622 945.756 468.256Z" fill="#010101"/>
<path d="M877.817 658.314C866.117 644.014 850.95 634.047 832.75 633.614C813.684 633.181 783.784 637.514 753.884 661.347C714.884 692.547 636.884 687.781 606.117 684.747C597.45 683.881 589.217 688.214 585.317 696.014C576.65 713.347 564.95 749.314 570.584 807.381C577.95 886.681 642.517 958.614 733.517 952.547C853.117 945.181 922.884 848.981 927.217 720.281C926.35 684.747 905.117 692.114 877.817 658.314Z" fill="white"/>
<path d="M717.918 684.748C717.918 684.748 900.351 767.081 915.951 707.281" stroke="#EDF3F4" stroke-width="13" stroke-miterlimit="10" stroke-linecap="round" stroke-linejoin="round"/>
<path d="M644.251 743.682C644.251 743.682 828.418 848.982 911.184 791.782" stroke="#EDF3F4" stroke-width="13" stroke-miterlimit="10" stroke-linecap="round" stroke-linejoin="round"/>
<path d="M637.751 818.215C637.751 818.215 732.651 903.581 869.151 872.815" stroke="#EDF3F4" stroke-width="13" stroke-miterlimit="10" stroke-linecap="round" stroke-linejoin="round"/>
<path d="M662.885 692.114C662.885 692.114 644.685 717.247 637.319 783.547C628.652 863.281 666.352 929.581 666.352 929.581" stroke="#EDF3F4" stroke-width="13" stroke-miterlimit="10" stroke-linecap="round" stroke-linejoin="round"/>
<path d="M602.65 695.581C602.65 695.581 552.817 660.914 517.717 601.114" stroke="white" stroke-width="13" stroke-miterlimit="10" stroke-linecap="round" stroke-linejoin="round"/>
<path d="M492.152 735.881C502.119 768.381 526.819 821.248 589.219 868.915" stroke="white" stroke-width="13" stroke-miterlimit="10" stroke-linecap="round" stroke-linejoin="round"/>
</g>
</svg>
