<svg width="1300" height="1300" viewBox="0 0 1300 1300" fill="none" xmlns="http://www.w3.org/2000/svg">
<path d="M650 1300C290.71 1300 0 1008.86 0 650C0 290.71 291.141 0 650 0C1009.29 0 1300 291.141 1300 650C1300.43 1009.29 1009.29 1300 650 1300Z" fill="#D83F3F"/>
<mask id="mask0_410_879" style="mask-type:alpha" maskUnits="userSpaceOnUse" x="0" y="0" width="1301" height="1300">
<path d="M650 1300C290.71 1300 0 1008.86 0 650C0 290.71 291.141 0 650 0C1009.29 0 1300 291.141 1300 650C1300.43 1009.29 1009.29 1300 650 1300Z" fill="#F7C0B5"/>
</mask>
<g mask="url(#mask0_410_879)">
<path d="M1015.73 1197.33C1012.7 1199.5 1009.23 1201.66 1006.2 1203.83C1002.73 1206 999.697 1208.16 996.23 1209.9C993.197 1211.63 990.597 1213.36 987.564 1215.1C987.13 1215.53 986.697 1215.53 986.264 1215.96C976.297 1222.03 965.897 1227.66 955.497 1232.86C952.464 1234.6 948.997 1236.33 945.964 1237.63C945.964 1237.63 945.53 1238.06 945.097 1238.06C941.63 1239.8 938.164 1241.53 934.697 1243.26C927.764 1246.73 920.397 1249.76 913.464 1252.8C909.997 1254.53 906.097 1255.83 902.63 1257.13C899.164 1258.43 895.264 1260.16 891.797 1261.46C888.33 1262.76 884.43 1264.5 880.964 1265.8C880.964 1265.8 880.964 1265.8 880.53 1265.8C877.064 1267.1 873.164 1268.4 869.697 1269.7C861.897 1272.3 853.664 1274.9 845.864 1277.5C843.264 1278.36 840.23 1279.23 837.63 1280.1C829.397 1282.7 821.164 1284.86 812.93 1286.6C809.897 1287.46 806.864 1287.9 803.397 1288.76C795.597 1290.5 787.364 1292.23 779.564 1293.96C777.83 1294.4 776.53 1294.4 774.797 1294.83C772.197 1295.26 769.164 1295.7 766.564 1296.13C762.664 1296.56 759.197 1297.43 755.297 1297.86C753.564 1298.3 751.83 1298.3 750.097 1298.73C747.93 1299.16 745.33 1299.6 742.73 1299.6C735.797 1300.46 728.43 1301.33 721.497 1302.2C719.33 1302.63 716.73 1302.63 714.564 1303.06H714.13C711.097 1303.5 708.064 1303.5 705.03 1303.93C701.997 1304.36 698.964 1304.36 695.93 1304.36C694.197 1304.36 692.03 1304.8 690.297 1304.8C686.83 1304.8 683.797 1305.23 680.764 1305.23C676.43 1305.23 672.53 1305.66 668.197 1305.66C663.864 1305.66 659.964 1305.66 655.63 1305.66C652.597 1305.66 649.564 1305.66 646.53 1305.66C464.097 1303.06 299.43 1225.5 182.43 1102.43C182.43 1102.43 182.43 1102 181.997 1102C195.43 1075.56 245.264 1027.9 297.264 988.465C363.13 938.632 456.297 907.865 456.297 907.865C456.297 907.865 517.397 897.898 744.03 945.132C916.93 981.532 990.597 1129.3 1015.73 1197.33Z" fill="#FEE4BF"/>
<path d="M792.13 1065.16C783.03 1109.8 724.097 1136.23 624.863 1096.36C503.097 1046.96 456.297 907.865 456.297 907.865C449.797 808.198 434.63 722.832 434.63 722.832C575.463 710.698 741.863 875.365 741.863 875.365L760.93 956.832C762.663 963.765 766.13 969.832 771.33 974.165C780.43 989.765 798.197 1036.56 792.13 1065.16Z" fill="#FEE4BF"/>
<path d="M771.331 974.599C688.565 970.265 627.465 958.132 562.031 840.699C617.498 889.665 682.931 908.299 751.831 916.965L760.931 956.832C762.665 964.198 766.131 970.265 771.331 974.599Z" fill="#EFBDA5"/>
<path d="M942.497 452.432C950.297 488.832 954.197 518.298 932.964 615.365C911.73 712.432 952.464 809.498 850.197 898.332C781.297 958.132 660.83 969.398 564.63 903.965C532.13 881.865 502.23 851.098 477.964 810.798C458.897 779.165 436.797 749.265 412.097 721.965C377.864 684.698 336.697 609.732 357.064 477.132C389.997 261.332 603.63 236.632 729.73 260.465C855.83 284.298 921.264 356.232 942.497 452.432Z" fill="#FEE4BF"/>
<path d="M527.798 621.865C527.798 621.865 514.365 556.865 451.098 564.665C396.498 571.598 377.431 702.465 501.365 738.865" fill="#FEE4BF"/>
<path d="M497.465 679.498C497.465 679.498 481.865 669.532 483.599 652.198C486.199 631.832 483.599 619.265 474.065 615.365C450.232 605.398 445.465 633.132 446.332 636.598" stroke="#423232" stroke-width="13" stroke-miterlimit="10" stroke-linecap="round" stroke-linejoin="round"/>
<path d="M828.095 721.532C828.095 721.532 844.562 722.398 860.162 703.765C868.829 693.365 876.195 680.365 871.429 676.465C866.662 672.132 788.229 684.265 783.029 694.665C777.829 705.065 808.162 721.532 828.095 721.532Z" fill="#EFBDA5"/>
<path d="M841.095 575.932C841.095 575.932 841.962 617.098 868.395 663.032C880.095 683.398 862.328 716.765 823.762 722.398" stroke="#423232" stroke-width="13" stroke-miterlimit="10" stroke-linecap="round" stroke-linejoin="round"/>
<path opacity="0.42" d="M606.229 743.632C630.879 743.632 650.862 727.141 650.862 706.798C650.862 686.456 630.879 669.965 606.229 669.965C581.579 669.965 561.596 686.456 561.596 706.798C561.596 727.141 581.579 743.632 606.229 743.632Z" fill="#F2A5B2"/>
<path opacity="0.42" d="M926.03 670.832C924.73 695.098 925.164 718.932 923.43 742.765C904.364 738.432 890.497 724.132 890.497 707.232C890.497 689.032 905.664 674.298 926.03 670.832Z" fill="#F2A5B2"/>
<path d="M907.834 1029.6C907.834 1029.6 840.667 966.767 774.367 951.6C774.367 951.6 782.167 1063.4 703.3 1055.17C575.9 1041.73 455.867 906.534 455.867 906.534C455.867 906.534 372.234 929.934 304.634 981.5C304.634 981.5 313.734 1114.53 465.834 1180.4C617.934 1246.27 829.834 1213.77 880.1 1171.3C930.367 1128.83 920.4 1043.47 907.834 1029.6Z" fill="white"/>
<path d="M267.369 1010.1C267.369 1010.1 183.303 1056.47 137.369 1188.63C91.4362 1320.8 92.7362 1517.53 92.7362 1517.53H1081.6C1081.6 1517.53 1053.87 1192.97 955.936 1084.63C955.936 1084.63 962.436 1181.7 770.469 1191.67C578.503 1201.63 347.536 1140.53 341.903 1105C336.703 1068.6 267.369 1010.1 267.369 1010.1Z" fill="white"/>
<path d="M996.236 1525.33C724.102 1651 276.036 1537.47 276.036 1537.47C276.036 1537.47 266.936 1426.97 299.869 1228.07C301.169 1218.97 302.469 1209.87 303.336 1201.63C312.869 1111.5 290.769 1049.53 267.369 1010.53C267.369 1000.57 277.769 993.634 289.469 983.667C294.236 979.767 379.602 926.9 383.069 929.5C389.136 938.167 394.769 946.834 399.536 955.934C448.069 1045.63 464.969 1141.83 565.936 1155.7C665.602 1169.57 761.802 1167.4 830.702 1152.23C897.002 1137.5 852.802 1027.43 823.336 973.267C822.036 971.1 822.036 970.234 820.736 969.367C830.702 962.867 946.402 1051.7 955.502 1084.63C974.569 1132.3 979.769 1167.83 985.402 1214.2C1004.04 1366.3 996.236 1525.33 996.236 1525.33Z" fill="#E07777"/>
<path d="M401.269 1152.67C416.586 1152.67 429.003 1140.25 429.003 1124.93C429.003 1109.62 416.586 1097.2 401.269 1097.2C385.953 1097.2 373.536 1109.62 373.536 1124.93C373.536 1140.25 385.953 1152.67 401.269 1152.67Z" fill="#647184"/>
<path d="M918.238 1164.37C932.119 1164.37 943.371 1153.11 943.371 1139.23C943.371 1125.35 932.119 1114.1 918.238 1114.1C904.357 1114.1 893.104 1125.35 893.104 1139.23C893.104 1153.11 904.357 1164.37 918.238 1164.37Z" fill="#647184"/>
<path d="M594.971 1203.8C660.837 1207.7 743.171 1209 812.071 1199.03C858.437 1192.53 900.471 1226.77 903.937 1273.13C906.971 1319.07 908.271 1374.97 900.904 1423.93C885.737 1529.67 507.437 1524.47 501.371 1431.3C497.904 1383.2 494.871 1344.2 491.404 1312.13C484.904 1251.9 534.304 1200.33 594.971 1203.8Z" stroke="#647184" stroke-width="13" stroke-miterlimit="10"/>
<path d="M721.071 1054.73C721.071 1054.73 641.771 1150.93 617.504 1143.57C593.238 1136.2 442.438 1056.03 418.604 919.1C418.604 919.1 437.238 888.767 453.704 879.234C453.704 879.234 499.204 959.4 581.538 1007.5C659.971 1053 721.071 1054.73 721.071 1054.73Z" fill="white"/>
<path d="M721.071 1054.73C721.071 1054.73 641.771 1150.93 617.504 1143.57C593.238 1136.2 442.438 1056.03 418.604 919.1" stroke="#D0D6DD" stroke-width="13" stroke-miterlimit="10" stroke-linecap="round" stroke-linejoin="round"/>
<path d="M721.07 1054.73C721.07 1054.73 782.604 1126.67 802.97 1127.53C823.337 1128.4 832.004 1001.87 770.904 937.734C770.904 937.734 761.37 940.334 757.47 941.2C757.037 940.767 787.804 1033.07 721.07 1054.73Z" fill="white"/>
<path d="M721.07 1054.73C721.07 1054.73 782.604 1126.67 802.97 1127.53C823.337 1128.4 832.004 1001.87 770.904 937.734" stroke="#D0D6DD" stroke-width="13" stroke-miterlimit="10" stroke-linecap="round" stroke-linejoin="round"/>
<path d="M715.003 1061.67C715.003 1061.67 702.869 1075.1 707.203 1104.57C711.536 1133.6 710.669 1162.63 710.669 1162.63" stroke="#D0D6DD" stroke-width="13" stroke-miterlimit="10" stroke-linecap="round" stroke-linejoin="round"/>
<path d="M737.1 1126.67C742.605 1126.67 747.067 1122.2 747.067 1116.7C747.067 1111.2 742.605 1106.73 737.1 1106.73C731.596 1106.73 727.134 1111.2 727.134 1116.7C727.134 1122.2 731.596 1126.67 737.1 1126.67Z" fill="#D0D6DD"/>
<path d="M745.805 526.549C755.219 527.849 762.493 517.882 759.07 508.349C757.358 503.149 754.363 498.382 749.656 495.349C735.107 486.249 680.761 485.382 652.091 506.182C626.844 525.249 703.013 520.482 745.805 526.549Z" fill="black"/>
<path d="M864.335 531.316C856.632 531.316 851.925 521.349 855.777 513.116C857.916 508.782 860.912 504.882 865.191 502.716C878.456 496.216 913.973 500.116 929.806 522.216C943.927 541.716 899.852 530.882 864.335 531.316Z" fill="black"/>
<path d="M730.824 581.149C703.437 567.282 660.218 577.682 660.218 577.682" stroke="#423232" stroke-width="13" stroke-miterlimit="10" stroke-linecap="round" stroke-linejoin="round"/>
<path d="M899.852 589.816C899.852 589.816 888.726 577.683 847.646 587.216" stroke="#423232" stroke-width="13" stroke-miterlimit="10" stroke-linecap="round" stroke-linejoin="round"/>
<path d="M807.561 767.297C791.961 776.397 769.428 773.797 749.928 764.264" stroke="#423232" stroke-width="13" stroke-miterlimit="10" stroke-linecap="round" stroke-linejoin="round"/>
<path d="M752.097 749.097C752.097 749.097 752.097 768.164 730.863 775.964" stroke="#423232" stroke-width="13" stroke-miterlimit="10" stroke-linecap="round" stroke-linejoin="round"/>
<path d="M996.086 315.087C996.086 251.387 944.519 199.82 880.819 199.82C824.053 199.82 776.819 240.987 767.286 294.72C778.986 298.62 790.253 303.82 800.653 311.187C796.753 318.987 808.453 318.987 804.553 326.787C851.353 348.454 884.719 383.554 914.186 425.587C961.419 411.287 996.086 367.087 996.086 315.087Z" fill="#423232"/>
<path d="M940.62 573.354C952.32 507.487 948.853 481.487 941.92 450.721C939.753 441.187 937.153 432.087 934.12 422.987C911.153 404.787 886.887 393.087 850.053 387.887C750.82 374.454 672.387 383.554 588.753 401.754C536.32 413.021 547.153 594.154 526.787 617.987C523.32 605.854 506.42 556.454 450.953 563.387C398.52 569.887 378.587 691.221 486.92 732.821C486.053 756.654 463.953 800.854 446.187 810.821C446.187 810.821 443.153 779.187 408.487 737.587C373.82 695.987 304.487 588.087 351.287 430.354C398.087 272.621 609.987 190.287 807.153 270.454C840.953 284.321 868.687 303.821 890.787 324.187C942.787 371.854 970.52 441.187 962.287 510.954C960.12 534.354 953.62 556.887 940.62 573.354Z" fill="#423232"/>
<path d="M369.053 456.354C439.892 456.354 497.319 398.927 497.319 328.087C497.319 257.247 439.892 199.82 369.053 199.82C298.213 199.82 240.786 257.247 240.786 328.087C240.786 398.927 298.213 456.354 369.053 456.354Z" fill="#423232"/>
<path d="M971.818 583.754C959.684 578.554 941.484 574.22 920.251 571.187C923.284 536.954 915.918 510.954 915.918 510.954C915.051 528.72 910.284 558.187 908.551 569.454C878.218 565.987 843.984 563.82 814.518 562.954C812.784 536.954 807.151 506.62 807.151 506.62C807.151 519.187 804.984 547.354 803.251 562.52C795.884 562.52 788.518 562.087 782.018 562.087C777.684 562.087 773.784 562.087 769.451 562.087C765.551 529.587 756.451 491.02 756.451 491.02C757.318 507.92 754.284 543.887 752.984 562.087C645.518 562.954 549.751 573.787 549.751 573.787L540.218 401.754C581.384 314.654 914.618 275.654 947.551 344.12C1007.35 467.187 971.818 583.754 971.818 583.754Z" fill="#423232"/>
<path d="M971.82 583.754C971.82 583.754 954.053 593.721 937.153 591.554C937.153 591.554 939.753 578.12 940.187 574.654C940.62 574.654 965.32 579.421 971.82 583.754Z" fill="#423232"/>
<path opacity="0.6" d="M865.082 677.253C865.082 677.253 870.282 706.72 904.515 721.453C913.182 724.92 922.282 719.287 922.282 709.753C921.849 709.753 867.249 680.72 865.082 677.253Z" fill="#B7AEA9"/>
<path opacity="0.6" d="M782.748 606.187C782.748 606.187 810.481 578.453 824.348 575.42L787.515 584.087L782.748 606.187Z" fill="#B7AEA9"/>
<path opacity="0.6" d="M597.714 677.254C597.714 677.254 613.747 713.654 661.847 722.32C709.947 731.42 753.714 696.754 774.081 638.687C774.081 638.687 757.614 692.42 691.747 702.387C626.314 713.22 597.714 677.254 597.714 677.254Z" fill="#B7AEA9"/>
<path opacity="0.29" d="M675.282 482.687C614.182 482.687 564.348 533.82 563.915 596.22C563.915 625.687 574.748 652.554 592.515 672.054L749.815 513.02C730.315 493.954 704.315 482.687 675.282 482.687Z" fill="#DBC3ED"/>
<path opacity="0.23" d="M749.818 513.02L592.518 672.054C612.451 694.154 640.618 707.587 671.818 707.587C732.051 707.587 781.451 657.754 783.184 595.787C784.051 563.287 771.051 533.82 749.818 513.02Z" fill="#C4ADD8"/>
<path opacity="0.29" d="M928.783 482.687C882.417 482.687 843.416 533.82 841.683 596.22C840.816 621.354 846.45 644.32 855.983 662.954L993.35 526.887C979.05 500.02 955.65 482.687 928.783 482.687Z" fill="#DBC3ED"/>
<path opacity="0.23" d="M993.35 526.453L855.983 662.52C870.283 689.82 893.683 707.586 920.983 707.586C966.483 707.586 1005.48 657.753 1008.08 595.786C1008.95 570.22 1003.32 545.953 993.35 526.453Z" fill="#C4ADD8"/>
<path d="M783.183 596.22C781.883 658.187 732.05 708.02 671.817 708.02C611.583 708.02 563.483 658.187 563.483 596.22C563.917 533.82 613.75 482.687 674.85 482.687C735.95 482.687 784.917 533.82 783.183 596.22Z" stroke="#FFFBF5" stroke-width="13" stroke-miterlimit="10" stroke-linecap="round" stroke-linejoin="round"/>
<path d="M1008.08 596.22C1005.48 658.187 966.482 708.02 920.982 708.02C875.482 708.02 839.949 658.187 841.682 596.22C843.415 533.82 882.415 482.687 928.782 482.687C975.149 482.687 1010.68 533.82 1008.08 596.22Z" stroke="#FFFBF5" stroke-width="13" stroke-miterlimit="10" stroke-linecap="round" stroke-linejoin="round"/>
<path d="M564.781 584.087H503.248" stroke="#FFFBF5" stroke-width="13" stroke-miterlimit="10" stroke-linecap="round" stroke-linejoin="round"/>
<path d="M783.616 584.087C783.616 584.087 835.183 564.153 841.683 584.087" stroke="#FFFBF5" stroke-width="13" stroke-miterlimit="10" stroke-linecap="round" stroke-linejoin="round"/>
</g>
</svg>
