<svg width="1300" height="1300" viewBox="0 0 1300 1300" fill="none" xmlns="http://www.w3.org/2000/svg">
<path d="M650 1300C290.71 1300 0 1008.86 0 650C0 290.71 291.141 0 650 0C1009.29 0 1300 291.141 1300 650C1300.43 1009.29 1009.29 1300 650 1300Z" fill="#F7C0B5"/>
<mask id="mask0_428_6042" style="mask-type:alpha" maskUnits="userSpaceOnUse" x="0" y="0" width="1300" height="1300">
<path d="M650 1300C290.71 1300 0 1008.86 0 650C0 290.71 291.141 0 650 0C1009.29 0 1300 291.141 1300 650C1300.43 1009.29 1009.29 1300 650 1300Z" fill="#F7C0B5"/>
</mask>
<g mask="url(#mask0_428_6042)">
<path d="M1013.99 1197.33C1010.96 1199.5 1007.49 1201.67 1004.46 1203.83C1000.99 1206 997.961 1208.17 994.495 1209.9C991.461 1211.63 988.861 1213.37 985.828 1215.1C985.395 1215.53 984.961 1215.53 984.528 1215.97C974.561 1222.03 964.161 1227.67 953.761 1232.87C950.728 1234.6 947.261 1236.33 944.228 1237.63C944.228 1237.63 943.795 1238.07 943.361 1238.07C939.895 1239.8 936.428 1241.53 932.961 1243.27C926.028 1246.73 918.661 1249.77 911.728 1252.8C908.261 1254.53 904.361 1255.83 900.895 1257.13C897.428 1258.43 893.528 1260.17 890.061 1261.47C886.595 1262.77 882.695 1264.5 879.228 1265.8C879.228 1265.8 879.228 1265.8 878.795 1265.8C875.328 1267.1 871.428 1268.4 867.961 1269.7C860.161 1272.3 851.928 1274.9 844.128 1277.5C841.528 1278.37 838.495 1279.23 835.895 1280.1C827.661 1282.7 819.428 1284.87 811.195 1286.6C808.161 1287.47 805.128 1287.9 801.661 1288.77C793.861 1290.5 785.628 1292.23 777.828 1293.97C776.095 1294.4 774.795 1294.4 773.061 1294.83C770.461 1295.27 767.428 1295.7 764.828 1296.13C760.928 1296.57 757.461 1297.43 753.561 1297.87C751.828 1298.3 750.095 1298.3 748.361 1298.73C746.195 1299.17 743.595 1299.6 740.995 1299.6C734.061 1300.47 726.695 1301.33 719.761 1302.2C717.595 1302.63 714.995 1302.63 712.828 1303.07H712.395C709.361 1303.5 706.328 1303.5 703.295 1303.93C700.261 1304.37 697.228 1304.37 694.195 1304.37C692.461 1304.37 690.295 1304.8 688.561 1304.8C685.095 1304.8 682.061 1305.23 679.028 1305.23C674.695 1305.23 670.795 1305.67 666.461 1305.67C662.128 1305.67 658.228 1305.67 653.895 1305.67C650.861 1305.67 647.828 1305.67 644.795 1305.67C462.362 1303.07 297.695 1225.5 180.695 1102.43C180.695 1102.43 180.695 1102 180.262 1102C193.695 1075.57 243.528 1027.9 295.528 988.466C361.395 938.632 454.562 907.866 454.562 907.866C454.562 907.866 515.662 897.899 742.295 945.132C915.195 981.532 988.861 1129.3 1013.99 1197.33Z" fill="#F4C39B"/>
<path d="M790.398 1065.16C781.298 1109.8 722.365 1136.23 623.132 1096.36C501.365 1046.96 454.565 907.865 454.565 907.865C448.065 808.198 432.898 722.832 432.898 722.832C573.732 710.698 740.132 875.365 740.132 875.365L759.198 956.832C760.932 963.765 764.398 969.832 769.598 974.165C778.698 989.765 796.465 1036.56 790.398 1065.16Z" fill="#F4C39B"/>
<path d="M769.595 974.598C686.828 970.265 625.728 958.132 560.295 840.698C615.762 889.665 681.195 908.298 750.095 916.965L759.195 956.832C760.928 964.198 764.395 970.265 769.595 974.598Z" fill="#EFBDA5"/>
<path d="M940.764 452.432C948.564 488.832 952.464 518.299 931.231 615.365C909.998 712.432 950.731 809.499 848.464 898.332C779.564 958.132 659.098 969.399 562.898 903.965C530.398 881.865 500.498 851.099 476.231 810.799C457.165 779.165 435.065 749.265 410.365 721.965C376.131 684.699 334.965 609.732 355.331 477.132C388.265 261.332 601.898 236.632 727.998 260.466C854.098 284.299 919.531 356.232 940.764 452.432Z" fill="#F4C39B"/>
<path d="M526.066 621.865C526.066 621.865 512.633 556.865 449.366 564.665C394.766 571.599 375.7 702.465 499.633 738.865" fill="#F4C39B"/>
<path d="M495.726 679.498C495.726 679.498 480.126 669.532 481.859 652.198C484.459 631.832 481.859 619.265 472.326 615.365C448.493 605.398 443.726 633.132 444.593 636.598" stroke="#423232" stroke-width="13.4786" stroke-miterlimit="10" stroke-linecap="round" stroke-linejoin="round"/>
<path d="M826.366 721.533C826.366 721.533 842.832 722.399 858.432 703.766C867.099 693.366 874.466 680.366 869.699 676.466C864.932 672.133 786.499 684.266 781.299 694.666C776.099 705.066 806.432 721.533 826.366 721.533Z" fill="#EFBDA5"/>
<path d="M839.365 575.932C839.365 575.932 840.231 617.099 866.664 663.032C878.364 683.399 860.598 716.765 822.031 722.399" stroke="#423232" stroke-width="13.4786" stroke-miterlimit="10" stroke-linecap="round" stroke-linejoin="round"/>
<path opacity="0.42" d="M604.499 743.632C629.149 743.632 649.132 727.141 649.132 706.799C649.132 686.456 629.149 669.965 604.499 669.965C579.848 669.965 559.865 686.456 559.865 706.799C559.865 727.141 579.848 743.632 604.499 743.632Z" fill="#ED938A"/>
<path opacity="0.42" d="M924.299 670.832C922.999 695.098 923.432 718.932 921.699 742.765C902.632 738.432 888.766 724.132 888.766 707.232C888.766 689.032 903.932 674.298 924.299 670.832Z" fill="#ED938A"/>
<path d="M261.738 1017.23C261.738 1017.23 277.772 1005.09 307.672 1023.29C363.572 1057.53 434.638 1240.39 282.105 1368.23C282.105 1368.23 254.805 1527.69 282.105 1558.03C282.105 1558.03 781.305 1583.16 996.671 1558.03C996.671 1558.03 1000.14 1460.09 986.271 1359.99C968.938 1233.03 946.838 1107.79 864.938 992.525C853.238 976.059 831.571 968.692 818.138 964.792L759.205 947.892C759.205 947.892 811.205 1098.26 666.905 1063.59C578.505 1042.36 505.272 958.292 444.605 919.725C430.305 910.625 410.805 913.659 398.238 918.859C369.638 930.992 263.905 994.259 261.738 1017.23Z" fill="#574E4E"/>
<mask id="mask1_428_6042" style="mask-type:alpha" maskUnits="userSpaceOnUse" x="261" y="913" width="737" height="657">
<path d="M261.738 1017.23C261.738 1017.23 277.772 1005.09 307.672 1023.29C363.572 1057.53 434.638 1240.39 282.105 1368.23C282.105 1368.23 254.805 1527.69 282.105 1558.03C282.105 1558.03 781.305 1583.16 996.671 1558.03C996.671 1558.03 1000.14 1460.09 986.271 1359.99C968.938 1233.03 946.838 1107.79 864.938 992.525C853.238 976.059 831.571 968.692 818.138 964.792L759.205 947.892C759.205 947.892 811.205 1098.26 666.905 1063.59C578.505 1042.36 505.272 958.292 444.605 919.725C430.305 910.625 410.805 913.659 398.238 918.859C369.638 930.992 263.905 994.259 261.738 1017.23Z" fill="#444444"/>
</mask>
<g mask="url(#mask1_428_6042)">
<path d="M270.398 1020.26C319.798 977.36 321.098 1008.56 399.098 983.86C433.765 973.027 471.898 939.227 522.598 935.327C561.598 932.293 604.498 957.86 652.598 963.06C692.465 967.393 739.698 950.493 785.632 962.193C824.632 972.16 858.432 1009.43 902.632 1026.33" stroke="#DFD9D9" stroke-width="17.9715" stroke-miterlimit="10" stroke-linecap="round" stroke-linejoin="round"/>
<path d="M271.697 1069.66C327.597 1033.26 324.564 1065.33 405.164 1044.09C441.131 1034.56 480.997 1001.19 532.13 997.726C571.997 994.693 616.197 1020.69 664.73 1024.59C705.464 1028.06 753.13 1008.56 799.93 1018.96C840.664 1027.63 876.197 1064.46 921.264 1079.63" stroke="#DFD9D9" stroke-width="17.9715" stroke-miterlimit="10" stroke-linecap="round" stroke-linejoin="round"/>
<path d="M272.564 1119.06C333.664 1089.59 327.164 1121.66 410.364 1104.33C447.631 1096.53 489.231 1063.16 540.798 1059.69C581.964 1057.09 627.031 1083.09 676.431 1086.13C718.464 1088.73 766.564 1067.49 814.231 1075.73C856.264 1083.09 894.398 1119.06 940.331 1132.06" stroke="#DFD9D9" stroke-width="17.9715" stroke-miterlimit="10" stroke-linecap="round" stroke-linejoin="round"/>
<path d="M273.863 1168.89C338.863 1145.93 329.763 1177.99 415.13 1164.13C453.697 1157.63 497.03 1125.13 549.463 1121.66C591.93 1119.06 638.297 1145.93 688.13 1147.66C731.463 1149.39 779.996 1125.99 828.096 1132.49C871.863 1138.56 912.163 1173.66 958.963 1184.49" stroke="#DFD9D9" stroke-width="17.9715" stroke-miterlimit="10" stroke-linecap="round" stroke-linejoin="round"/>
<path d="M275.164 1218.73C343.631 1202.26 332.364 1233.89 419.464 1223.06C459.331 1218.29 504.831 1185.79 557.697 1183.19C601.031 1181.03 649.131 1208.33 699.397 1209.63C744.464 1210.49 792.997 1185.36 841.964 1190.13C887.464 1194.46 930.364 1228.69 978.03 1237.36" stroke="#DFD9D9" stroke-width="17.9715" stroke-miterlimit="10" stroke-linecap="round" stroke-linejoin="round"/>
<path d="M276.463 1268.56C347.963 1257.73 334.53 1288.93 423.363 1281.99C464.529 1278.53 511.763 1246.89 565.929 1244.73C610.563 1242.99 659.529 1271.16 710.663 1271.59C757.029 1272.03 806.429 1244.73 856.263 1247.76C903.496 1250.79 948.996 1283.73 997.529 1289.36" stroke="#DFD9D9" stroke-width="17.9715" stroke-miterlimit="10" stroke-linecap="round" stroke-linejoin="round"/>
<path d="M277.332 1318.83C350.999 1313.63 335.832 1343.96 426.832 1340.49C469.299 1338.76 518.699 1307.56 573.732 1306.26C620.099 1305.39 669.932 1334.43 721.932 1334.43C769.598 1334.43 819.865 1305.39 870.132 1306.69C919.098 1307.99 967.198 1339.63 1016.6 1342.66" stroke="#DFD9D9" stroke-width="17.9715" stroke-miterlimit="10" stroke-linecap="round" stroke-linejoin="round"/>
</g>
<path d="M683.946 619.439C673.546 619.005 665.746 610.339 666.613 599.939L667.046 587.805C667.479 577.405 676.146 569.605 686.546 570.472C696.946 570.905 704.746 579.572 703.879 589.972L703.446 602.105C703.013 612.072 694.346 619.872 683.946 619.439Z" fill="#423232"/>
<path d="M866.379 625.939C856.846 625.506 849.479 617.272 849.913 607.739L850.346 596.472C850.779 586.939 859.013 579.572 868.546 580.006C878.079 580.439 885.446 588.672 885.013 598.206L884.579 609.472C884.146 619.006 875.913 626.372 866.379 625.939Z" fill="#423232"/>
<path d="M725.973 594.306C725.973 594.306 714.707 578.272 695.207 575.239C679.173 572.639 661.407 580.439 658.807 589.539" stroke="#423232" stroke-width="13.4786" stroke-miterlimit="10" stroke-linecap="round" stroke-linejoin="round"/>
<path d="M853.807 598.206C853.807 598.206 853.807 584.339 873.74 584.339C890.207 584.339 897.14 599.506 897.14 599.506" stroke="#423232" stroke-width="13.4786" stroke-miterlimit="10" stroke-linecap="round" stroke-linejoin="round"/>
<path d="M743.742 524.539C752.842 527.572 761.942 519.339 760.208 509.372C759.342 504.172 757.175 498.972 752.842 495.072C739.842 483.372 686.108 472.972 653.608 488.139C625.008 502.005 702.142 510.672 743.742 524.539Z" fill="#423232"/>
<path d="M873.31 531.472C865.944 534.072 858.144 526.272 859.444 517.172C859.877 512.405 861.61 507.638 865.077 504.172C875.477 493.772 911.01 485.538 933.544 501.572C953.044 515.005 907.11 518.905 873.31 531.472Z" fill="#423232"/>
<path d="M816.926 774.866C805.693 779.808 800.302 769.923 782.78 778.46C770.2 784.301 763.46 786.098 748.185 777.112C738.3 770.822 726.17 779.808 714.488 762.735" stroke="#423232" stroke-width="13.4786" stroke-miterlimit="10" stroke-linecap="round" stroke-linejoin="round"/>
<path d="M1052.44 935.088C1028.17 881.355 1009.54 888.722 1026.44 840.188C1043.34 792.088 1021.67 757.855 977.039 712.355C934.573 669.022 930.239 621.788 931.539 614.855C927.639 633.055 925.906 651.688 925.039 669.888C923.739 694.155 924.173 717.988 922.439 741.822C918.973 795.122 906.406 847.555 849.206 896.955C824.073 918.622 792.006 934.221 756.473 941.588C746.939 970.621 761.239 991.422 792.439 994.888C823.639 998.355 836.639 1045.15 907.273 1067.25C1013.01 1101.49 1076.71 988.821 1052.44 935.088Z" fill="#423232"/>
<path d="M854.832 410.755C863.932 415.522 871.732 411.188 876.499 401.655C926.766 393.855 938.466 494.388 940.199 500.455C941.932 506.955 942.799 525.155 939.332 574.988C937.166 602.721 1098.37 405.988 951.032 322.788C961.866 306.755 954.066 227.022 863.499 207.522C830.999 200.588 788.532 230.922 735.232 219.222C526.799 172.855 310.566 217.055 327.466 492.222C331.366 552.455 335.266 617.455 232.999 660.788C114.266 711.055 120.333 842.355 203.966 869.221C238.633 880.488 124.233 958.488 190.966 1027.82C225.633 1064.22 287.599 990.555 350.432 1030.42C445.332 1090.65 492.566 1063.35 511.199 1039.52C549.332 990.988 502.099 893.488 502.099 893.488C502.099 893.488 520.732 863.588 526.799 847.555C556.266 768.688 486.066 733.155 486.066 733.155C377.732 691.555 397.232 570.655 450.099 563.721C505.566 556.788 522.899 606.188 525.932 618.321C525.932 618.321 574.899 685.921 669.366 531.655C762.966 377.388 814.099 388.655 854.832 410.755Z" fill="#423232"/>
<path d="M877.815 658.314C866.115 644.014 850.948 634.047 832.748 633.614C813.682 633.18 783.781 637.514 753.882 661.347C714.882 692.547 636.882 687.78 606.115 684.747C597.448 683.88 589.215 688.214 585.315 696.014C576.648 713.347 564.948 749.314 570.582 807.38C577.948 886.68 642.515 958.614 733.515 952.547C853.115 945.18 922.881 848.98 927.215 720.28C926.348 684.747 905.115 692.114 877.815 658.314Z" fill="white"/>
<path d="M717.922 684.748C717.922 684.748 900.355 767.081 915.955 707.281" stroke="#EDF3F4" stroke-width="13.4786" stroke-miterlimit="10" stroke-linecap="round" stroke-linejoin="round"/>
<path d="M644.256 743.681C644.256 743.681 828.422 848.981 911.189 791.781" stroke="#EDF3F4" stroke-width="13.4786" stroke-miterlimit="10" stroke-linecap="round" stroke-linejoin="round"/>
<path d="M637.752 818.214C637.752 818.214 732.652 903.581 869.152 872.814" stroke="#EDF3F4" stroke-width="13.4786" stroke-miterlimit="10" stroke-linecap="round" stroke-linejoin="round"/>
<path d="M662.884 692.113C662.884 692.113 644.684 717.247 637.318 783.547C628.651 863.28 666.351 929.58 666.351 929.58" stroke="#EDF3F4" stroke-width="13.4786" stroke-miterlimit="10" stroke-linecap="round" stroke-linejoin="round"/>
<path d="M602.652 695.581C602.652 695.581 552.819 660.914 517.719 601.114" stroke="white" stroke-width="13.4786" stroke-miterlimit="10" stroke-linecap="round" stroke-linejoin="round"/>
<path d="M492.146 735.881C502.113 768.381 526.813 821.248 589.213 868.915" stroke="white" stroke-width="13.4786" stroke-miterlimit="10" stroke-linecap="round" stroke-linejoin="round"/>
</g>
</svg>
