<svg width="1300" height="1300" viewBox="0 0 1300 1300" fill="none" xmlns="http://www.w3.org/2000/svg">
<path d="M650 1300C290.71 1300 0 1008.86 0 650C0 290.71 291.141 0 650 0C1009.29 0 1300 291.141 1300 650C1300.43 1009.29 1009.29 1300 650 1300Z" fill="#C9B5E2"/>
<mask id="mask0_426_4359" style="mask-type:alpha" maskUnits="userSpaceOnUse" x="0" y="0" width="1300" height="1300">
<path d="M650 1300C290.71 1300 0 1008.86 0 650C0 290.71 291.141 0 650 0C1009.29 0 1300 291.141 1300 650C1300.43 1009.29 1009.29 1300 650 1300Z" fill="#F7C0B5"/>
</mask>
<g mask="url(#mask0_426_4359)">
<path d="M1013.99 1197.33C1010.96 1199.5 1007.49 1201.66 1004.46 1203.83C1000.99 1206 997.961 1208.16 994.495 1209.9C991.461 1211.63 988.861 1213.36 985.828 1215.1C985.395 1215.53 984.961 1215.53 984.528 1215.96C974.561 1222.03 964.161 1227.66 953.761 1232.86C950.728 1234.6 947.261 1236.33 944.228 1237.63C944.228 1237.63 943.795 1238.06 943.361 1238.06C939.895 1239.8 936.428 1241.53 932.961 1243.26C926.028 1246.73 918.661 1249.76 911.728 1252.8C908.261 1254.53 904.361 1255.83 900.895 1257.13C897.428 1258.43 893.528 1260.16 890.061 1261.46C886.595 1262.76 882.695 1264.5 879.228 1265.8C879.228 1265.8 879.228 1265.8 878.795 1265.8C875.328 1267.1 871.428 1268.4 867.961 1269.7C860.161 1272.3 851.928 1274.9 844.128 1277.5C841.528 1278.36 838.495 1279.23 835.895 1280.1C827.661 1282.7 819.428 1284.86 811.195 1286.6C808.161 1287.46 805.128 1287.9 801.661 1288.76C793.861 1290.5 785.628 1292.23 777.828 1293.96C776.095 1294.4 774.795 1294.4 773.061 1294.83C770.461 1295.26 767.428 1295.7 764.828 1296.13C760.928 1296.56 757.461 1297.43 753.561 1297.86C751.828 1298.3 750.095 1298.3 748.361 1298.73C746.195 1299.16 743.595 1299.6 740.995 1299.6C734.061 1300.46 726.695 1301.33 719.761 1302.2C717.595 1302.63 714.995 1302.63 712.828 1303.06H712.395C709.361 1303.5 706.328 1303.5 703.295 1303.93C700.261 1304.36 697.228 1304.36 694.195 1304.36C692.461 1304.36 690.295 1304.8 688.561 1304.8C685.095 1304.8 682.061 1305.23 679.028 1305.23C674.695 1305.23 670.795 1305.66 666.461 1305.66C662.128 1305.66 658.228 1305.66 653.895 1305.66C650.861 1305.66 647.828 1305.66 644.795 1305.66C462.362 1303.06 297.695 1225.5 180.695 1102.43C180.695 1102.43 180.695 1102 180.262 1102C193.695 1075.56 243.528 1027.9 295.528 988.464C361.395 938.631 454.562 907.865 454.562 907.865C454.562 907.865 515.662 897.898 742.295 945.131C915.195 981.531 988.861 1129.3 1013.99 1197.33Z" fill="#F7D3B5"/>
<path d="M790.398 1065.16C781.298 1109.8 722.365 1136.23 623.132 1096.36C501.365 1046.96 454.565 907.865 454.565 907.865C448.065 808.198 432.898 722.831 432.898 722.831C573.732 710.698 740.132 875.365 740.132 875.365L759.198 956.831C760.932 963.764 764.398 969.831 769.598 974.164C778.698 989.764 796.465 1036.56 790.398 1065.16Z" fill="#F7D3B5"/>
<path d="M769.593 974.598C686.826 970.264 625.726 958.131 560.293 840.698C615.76 889.664 681.193 908.298 750.093 916.964L759.193 956.831C760.926 964.198 764.393 970.264 769.593 974.598Z" fill="#EFBDA5"/>
<path d="M940.755 452.431C948.555 488.831 952.455 518.298 931.221 615.365C909.988 712.431 950.721 809.498 848.455 898.331C779.555 958.131 659.088 969.398 562.888 903.965C530.388 881.865 500.488 851.098 476.221 810.798C457.155 779.165 435.055 749.265 410.355 721.965C376.121 684.698 334.955 609.731 355.321 477.131C388.255 261.332 601.888 236.632 727.988 260.465C854.088 284.298 919.521 356.231 940.755 452.431Z" fill="#F7D3B5"/>
<path d="M526.064 621.864C526.064 621.864 512.631 556.865 449.364 564.665C394.765 571.598 375.698 702.464 499.631 738.864" fill="#F7D3B5"/>
<path d="M495.728 679.498C495.728 679.498 480.128 669.531 481.861 652.198C484.461 631.831 481.861 619.265 472.328 615.365C448.495 605.398 443.728 633.131 444.595 636.598" stroke="#423232" stroke-width="13.4786" stroke-miterlimit="10" stroke-linecap="round" stroke-linejoin="round"/>
<path d="M826.364 721.531C826.364 721.531 842.83 722.398 858.43 703.765C867.097 693.365 874.464 680.365 869.697 676.465C864.931 672.131 786.497 684.265 781.297 694.665C776.097 705.065 806.431 721.531 826.364 721.531Z" fill="#EFBDA5"/>
<path d="M839.357 575.931C839.357 575.931 840.223 617.098 866.657 663.031C878.357 683.398 860.59 716.765 822.023 722.398" stroke="#423232" stroke-width="13.4786" stroke-miterlimit="10" stroke-linecap="round" stroke-linejoin="round"/>
<path opacity="0.42" d="M604.489 743.631C629.139 743.631 649.122 727.14 649.122 706.798C649.122 686.455 629.139 669.965 604.489 669.965C579.839 669.965 559.855 686.455 559.855 706.798C559.855 727.14 579.839 743.631 604.489 743.631Z" fill="#ED938A"/>
<path opacity="0.42" d="M924.299 670.831C922.999 695.098 923.432 718.931 921.699 742.764C902.632 738.431 888.766 724.131 888.766 707.231C888.766 689.031 903.932 674.298 924.299 670.831Z" fill="#ED938A"/>
<path d="M1166.54 1467.78L68.9028 1443.51C57.6361 1167.05 171.169 1021.01 215.803 992.413C299.436 938.247 408.203 922.213 459.336 917.447C472.336 949.513 521.736 1054.81 624.436 1096.41C723.669 1136.71 782.603 1109.85 791.703 1065.21C797.336 1036.61 779.569 989.813 770.469 974.647C765.269 970.313 761.803 963.813 760.069 957.313L756.603 943.013C763.969 941.28 771.336 939.547 778.703 936.947C960.269 957.313 1033.94 1006.71 1077.27 1091.21C1121.9 1178.31 1166.54 1467.78 1166.54 1467.78Z" fill="#474E51"/>
<path d="M261.298 1466.05C261.298 1466.05 255.665 1325.65 250.031 1299.65" stroke="#544D4D" stroke-width="13.4786" stroke-miterlimit="10" stroke-linecap="round" stroke-linejoin="round"/>
<path d="M1029.17 1466.05C1029.17 1466.05 1016.17 1378.95 1016.17 1363.78C1016.17 1349.05 1027.43 1300.51 1029.17 1258.05" stroke="#544D4D" stroke-width="13.4786" stroke-miterlimit="10" stroke-linecap="round" stroke-linejoin="round"/>
<path d="M685.538 1189.15L669.938 1512.41C669.938 1512.41 807.304 1606.01 807.304 1603.41C807.304 1600.81 872.304 1487.28 872.304 1487.28L770.904 1176.15C770.904 1176.15 757.904 1189.58 685.538 1189.15Z" fill="#D85656"/>
<path d="M716.728 1085.15C716.728 1085.15 657.361 1141.05 649.561 1155.78C641.761 1170.51 682.928 1193.91 682.928 1193.91C682.928 1193.91 749.228 1207.78 779.128 1180.91C779.128 1180.91 796.028 1162.28 792.561 1144.51C789.528 1127.18 716.728 1085.15 716.728 1085.15Z" fill="#EA6363"/>
<path d="M446.77 866.313L452.403 865.013C468.436 916.58 570.27 1038.35 716.736 1085.15L625.736 1199.98C619.669 1207.78 608.836 1209.08 601.036 1203.45C563.769 1175.71 464.103 1094.25 423.37 990.247C414.703 968.58 412.97 944.747 417.303 922.213L422.936 891.447C425.103 878.88 434.636 868.913 446.77 866.313Z" fill="white"/>
<path d="M838.071 1160.55C835.471 1174.85 818.571 1180.48 807.738 1170.51L716.305 1085.15C716.305 1085.15 769.605 1034.45 756.605 942.58C774.371 938.68 791.271 933.047 806.871 925.68C807.305 926.547 813.371 938.247 820.305 957.747C835.038 998.047 853.671 1072.15 838.071 1160.55Z" fill="white"/>
<path d="M683.938 619.439C673.538 619.006 665.738 610.339 666.605 599.939L667.038 587.806C667.471 577.406 676.138 569.606 686.538 570.472C696.938 570.906 704.738 579.572 703.871 589.972L703.438 602.106C703.005 612.072 694.338 619.872 683.938 619.439Z" fill="#423232"/>
<path d="M866.372 625.939C856.838 625.506 849.472 617.272 849.905 607.739L850.338 596.472C850.772 586.939 859.005 579.572 868.538 580.006C878.072 580.439 885.438 588.672 885.005 598.206L884.572 609.472C884.138 619.006 875.905 626.372 866.372 625.939Z" fill="#423232"/>
<path d="M725.983 594.306C725.983 594.306 714.716 578.272 695.216 575.239C679.183 572.639 661.416 580.439 658.816 589.539" stroke="#423232" stroke-width="13.4786" stroke-miterlimit="10" stroke-linecap="round" stroke-linejoin="round"/>
<path d="M853.816 598.206C853.816 598.206 853.816 584.339 873.75 584.339C890.216 584.339 897.15 599.506 897.15 599.506" stroke="#423232" stroke-width="13.4786" stroke-miterlimit="10" stroke-linecap="round" stroke-linejoin="round"/>
<path d="M743.734 524.539C752.834 527.572 761.934 519.339 760.2 509.372C759.334 504.172 757.167 498.972 752.834 495.072C739.834 483.372 686.1 472.972 653.6 488.139C625 502.005 702.134 510.672 743.734 524.539Z" fill="#423232"/>
<path d="M873.303 531.472C865.936 534.072 858.136 526.272 859.436 517.172C859.869 512.406 861.603 507.639 865.069 504.172C875.469 493.772 911.003 485.539 933.536 501.572C953.036 515.006 907.103 518.906 873.303 531.472Z" fill="#423232"/>
<path d="M816.926 774.866C805.693 779.808 800.302 769.923 782.78 778.46C770.2 784.301 763.46 786.098 748.185 777.112C738.3 770.822 726.17 779.808 714.488 762.735" stroke="#423232" stroke-width="13.4786" stroke-miterlimit="10" stroke-linecap="round" stroke-linejoin="round"/>
<path d="M971.54 366.631C940.773 477.998 852.807 455.898 767.873 429.031C468.44 334.131 520.007 624.031 516.107 618.831C506.574 600.631 486.207 578.098 447.64 582.865C397.374 589.365 377.007 700.731 471.04 746.665C468.874 766.598 454.574 783.498 438.107 795.631C393.907 758.365 325.44 686.431 299.874 582.431C290.34 544.298 294.24 512.665 298.14 487.965C310.707 411.265 358.374 395.231 358.374 395.231C360.107 314.198 444.607 224.932 586.74 227.965C729.307 230.132 1002.31 255.265 971.54 366.631Z" fill="#8B633E"/>
<path d="M975.015 500.532C970.682 528.699 958.549 550.365 941.649 566.399C948.149 519.165 944.682 496.632 939.049 470.199C926.915 416.032 900.915 369.232 857.582 334.565C879.249 332.832 901.349 337.599 921.282 350.165C921.282 350.165 949.882 370.099 960.715 434.232C964.182 452.865 978.915 472.799 975.015 500.532Z" fill="#8B633E"/>
<path d="M621.41 228.398C621.41 228.398 786.077 164.265 844.143 185.498C892.243 203.265 874.91 252.665 874.91 252.665C874.91 252.665 957.243 231.865 1001.88 285.598C1046.51 339.332 994.943 409.098 965.477 434.665C965.477 434.665 1011.84 446.798 1007.08 486.232C1001.44 535.632 941.21 565.965 941.21 565.965C941.21 565.965 962.01 523.498 958.977 482.765C955.943 442.032 960.71 412.998 930.81 383.532C900.91 353.632 829.843 381.798 753.143 343.665C676.877 305.532 621.41 228.398 621.41 228.398Z" fill="#8B633E"/>
</g>
</svg>
