<svg width="1300" height="1300" viewBox="0 0 1300 1300" fill="none" xmlns="http://www.w3.org/2000/svg">
<path d="M650 1300C290.71 1300 0 1008.86 0 650C0 290.71 291.141 0 650 0C1009.29 0 1300 291.141 1300 650C1300.43 1009.29 1009.29 1300 650 1300Z" fill="#FD7ED2"/>
<mask id="mask0_410_879" style="mask-type:alpha" maskUnits="userSpaceOnUse" x="0" y="0" width="1301" height="1300">
<path d="M650 1300C290.71 1300 0 1008.86 0 650C0 290.71 291.141 0 650 0C1009.29 0 1300 291.141 1300 650C1300.43 1009.29 1009.29 1300 650 1300Z" fill="#F7C0B5"/>
</mask>
<g mask="url(#mask0_410_879)">
<path d="M1012.26 1197.33C1009.23 1199.5 1005.76 1201.66 1002.73 1203.83C999.265 1206 996.231 1208.16 992.764 1209.9C989.731 1211.63 987.131 1213.36 984.098 1215.1C983.664 1215.53 983.231 1215.53 982.798 1215.96C972.831 1222.03 962.431 1227.66 952.031 1232.86C948.998 1234.6 945.531 1236.33 942.498 1237.63C942.498 1237.63 942.065 1238.06 941.631 1238.06C938.165 1239.8 934.698 1241.53 931.231 1243.26C924.298 1246.73 916.931 1249.76 909.998 1252.8C906.531 1254.53 902.631 1255.83 899.165 1257.13C895.698 1258.43 891.798 1260.16 888.331 1261.46C884.865 1262.76 880.965 1264.5 877.498 1265.8C877.498 1265.8 877.498 1265.8 877.065 1265.8C873.598 1267.1 869.698 1268.4 866.231 1269.7C858.431 1272.3 850.198 1274.9 842.398 1277.5C839.798 1278.36 836.765 1279.23 834.165 1280.1C825.931 1282.7 817.698 1284.86 809.465 1286.6C806.431 1287.46 803.398 1287.9 799.931 1288.76C792.131 1290.5 783.898 1292.23 776.098 1293.96C774.365 1294.4 773.065 1294.4 771.331 1294.83C768.731 1295.26 765.698 1295.7 763.098 1296.13C759.198 1296.56 755.731 1297.43 751.831 1297.86C750.098 1298.3 748.365 1298.3 746.631 1298.73C744.465 1299.16 741.865 1299.6 739.265 1299.6C732.331 1300.46 724.965 1301.33 718.031 1302.2C715.865 1302.63 713.265 1302.63 711.098 1303.06H710.665C707.631 1303.5 704.598 1303.5 701.565 1303.93C698.531 1304.36 695.498 1304.36 692.465 1304.36C690.731 1304.36 688.565 1304.8 686.831 1304.8C683.365 1304.8 680.331 1305.23 677.298 1305.23C672.965 1305.23 669.065 1305.66 664.731 1305.66C660.398 1305.66 656.498 1305.66 652.165 1305.66C649.131 1305.66 646.098 1305.66 643.065 1305.66C460.631 1303.06 295.965 1225.5 178.965 1102.43C178.965 1102.43 178.965 1102 178.531 1102C191.965 1075.56 241.798 1027.9 293.798 988.465C359.665 938.632 452.831 907.865 452.831 907.865C452.831 907.865 513.931 897.898 740.565 945.132C913.465 981.532 987.131 1129.3 1012.26 1197.33Z" fill="#EEB2A4"/>
<path d="M788.664 1065.16C779.564 1109.8 720.631 1136.23 621.397 1096.36C499.631 1046.96 452.831 907.865 452.831 907.865C446.331 808.198 431.164 722.832 431.164 722.832C571.997 710.698 738.397 875.365 738.397 875.365L757.464 956.832C759.197 963.765 762.664 969.832 767.864 974.165C776.964 989.765 794.731 1036.56 788.664 1065.16Z" fill="#EEB2A4"/>
<path d="M767.865 974.599C685.099 970.265 623.999 958.132 558.565 840.699C614.032 889.665 679.465 908.299 748.365 916.965L757.465 956.832C759.199 964.198 762.665 970.265 767.865 974.599Z" fill="#A56663"/>
<path d="M939.031 452.432C946.831 488.832 950.731 518.298 929.498 615.365C908.264 712.432 948.998 809.498 846.731 898.332C777.831 958.132 657.364 969.398 561.164 903.965C528.665 881.865 498.764 851.098 474.498 810.798C455.431 779.165 433.331 749.265 408.631 721.965C374.398 684.698 333.231 609.732 353.598 477.132C386.531 261.332 600.164 236.632 726.264 260.465C852.364 284.298 917.798 356.232 939.031 452.432Z" fill="#EEB2A4"/>
<path d="M524.332 621.865C524.332 621.865 510.899 556.865 447.632 564.665C393.032 571.598 373.965 702.465 497.899 738.865" fill="#EEB2A4"/>
<path d="M493.999 679.498C493.999 679.498 478.399 669.532 480.133 652.198C482.733 631.832 480.133 619.265 470.599 615.365C446.766 605.398 441.999 633.132 442.866 636.598" stroke="#423232" stroke-width="13" stroke-miterlimit="10" stroke-linecap="round" stroke-linejoin="round"/>
<path d="M824.629 721.532C824.629 721.532 841.096 722.398 856.696 703.765C865.363 693.365 872.729 680.365 867.963 676.465C863.196 672.132 784.763 684.265 779.563 694.665C774.363 705.065 804.696 721.532 824.629 721.532Z" fill="#A56663"/>
<path d="M837.629 575.932C837.629 575.932 838.496 617.098 864.929 663.032C876.629 683.398 858.863 716.765 820.296 722.398" stroke="#423232" stroke-width="13" stroke-miterlimit="10" stroke-linecap="round" stroke-linejoin="round"/>
<path d="M1158.82 1466.34H63.3564C63.3564 1466.34 68.1231 1264.41 135.723 1121.84C185.556 1016.11 313.823 955.873 403.09 925.106C423.023 918.173 441.223 912.973 455.956 909.073C460.723 922.073 508.823 1049.47 624.09 1096.27C723.323 1136.57 782.256 1109.71 791.356 1065.07C796.99 1036.47 779.223 989.673 770.123 974.506C764.923 970.173 761.456 963.673 759.723 957.173L756.256 942.873C764.056 941.14 771.423 938.973 779.223 936.806C783.123 937.673 787.023 938.54 790.923 939.406C846.823 952.84 929.59 985.34 1026.66 1067.24C1138.89 1160.84 1158.82 1466.34 1158.82 1466.34Z" fill="#FFDE55"/>
<path d="M806.956 1182.94C791.79 1187.27 738.923 1132.24 728.09 1122.71C718.123 1133.97 647.923 1213.27 613.256 1208.07C575.123 1202.44 477.623 1137.01 428.223 1034.31C400.923 977.973 400.056 943.74 403.09 925.106C404.39 916.44 406.99 910.806 408.29 907.773C412.623 897.806 443.823 859.24 451.623 859.673V860.106C455.523 901.706 468.956 942.006 491.49 977.106C519.223 1020.01 562.99 1071.57 624.09 1096.27C723.323 1136.57 774.89 1096.71 783.556 1052.07C789.19 1023.47 779.223 989.673 770.123 974.506C764.923 970.173 761.456 963.673 759.723 957.173L756.256 942.873C764.056 941.14 771.423 938.973 779.223 936.806C781.39 935.94 783.99 935.506 786.156 934.64C787.456 936.373 789.19 938.106 790.49 939.84C808.69 960.64 827.756 989.24 838.156 1037.77C855.923 1115.34 823.856 1177.74 806.956 1182.94Z" fill="#423232"/>
<path d="M726.788 1120.11C726.788 1120.11 758.421 1138.31 757.555 1153.47C756.688 1168.64 765.788 1216.74 765.788 1216.74" stroke="#423232" stroke-width="13" stroke-miterlimit="10" stroke-linecap="round" stroke-linejoin="round"/>
<path d="M726.354 1177.74C732.098 1177.74 736.754 1173.08 736.754 1167.34C736.754 1161.6 732.098 1156.94 726.354 1156.94C720.61 1156.94 715.954 1161.6 715.954 1167.34C715.954 1173.08 720.61 1177.74 726.354 1177.74Z" fill="#423232"/>
<path d="M730.256 1218.47C736 1218.47 740.656 1213.82 740.656 1208.07C740.656 1202.33 736 1197.67 730.256 1197.67C724.513 1197.67 719.856 1202.33 719.856 1208.07C719.856 1213.82 724.513 1218.47 730.256 1218.47Z" fill="#423232"/>
<path d="M277.856 1466.34L258.356 1305.57" stroke="#544D4D" stroke-width="13" stroke-miterlimit="10" stroke-linecap="round" stroke-linejoin="round"/>
<path d="M1034.46 1250.97C1034.46 1250.97 1021.46 1282.61 1025.36 1314.24C1029.26 1345.87 1040.52 1392.24 1024.49 1466.34" stroke="#544D4D" stroke-width="13" stroke-miterlimit="10" stroke-linecap="round" stroke-linejoin="round"/>
<path d="M699.712 590.249C699.712 590.683 699.712 591.116 699.712 591.116L699.279 603.249C698.846 613.649 690.179 621.449 679.779 621.016C669.379 620.583 661.579 611.483 662.446 601.516L662.879 589.383C662.879 587.216 663.746 584.616 664.612 582.883L699.279 584.616C699.279 586.349 699.712 588.083 699.712 590.249Z" fill="black"/>
<path d="M880.84 599.783L880.407 611.049C879.973 620.583 871.74 627.949 862.206 627.516C852.673 627.083 845.307 618.849 845.74 609.316L846.173 598.049C846.173 595.883 846.606 593.716 847.473 591.983L879.973 593.283C880.84 595.449 880.84 597.616 880.84 599.783Z" fill="black"/>
<path d="M743.043 530.882C752.576 532.182 759.943 522.216 756.476 512.682C754.743 507.482 751.709 502.716 746.943 499.682C732.209 490.582 677.176 489.716 648.143 510.516C622.576 529.582 699.709 524.816 743.043 530.882Z" fill="black"/>
<path d="M863.072 535.649C855.272 535.649 850.505 525.682 854.405 517.449C856.572 513.116 859.605 509.216 863.939 507.049C877.372 500.549 913.339 504.449 929.372 526.549C943.672 546.049 899.039 535.216 863.072 535.649Z" fill="black"/>
<path d="M727.875 585.482L698.842 584.182L664.175 582.882L656.375 582.449" stroke="black" stroke-width="13" stroke-miterlimit="10" stroke-linecap="round" stroke-linejoin="round"/>
<path d="M899.041 594.149L879.974 593.283L847.474 591.983H846.174" stroke="black" stroke-width="13" stroke-miterlimit="10" stroke-linecap="round" stroke-linejoin="round"/>
<path d="M812.33 773.797C801.497 778.564 796.297 769.03 779.397 777.264C767.264 782.897 760.764 784.631 746.03 775.964C736.497 769.897 724.797 778.564 713.53 762.097" stroke="#423232" stroke-width="13" stroke-miterlimit="10" stroke-linecap="round" stroke-linejoin="round"/>
<path d="M939.687 578.56C951.387 512.694 947.92 486.694 940.987 455.927C938.82 446.394 936.22 437.294 933.187 428.194C905.887 416.06 883.354 449.86 846.087 444.66C746.854 431.227 671.02 388.76 587.387 406.96C534.954 418.227 526.287 465.46 541.454 552.56C545.787 576.394 545.787 599.36 525.42 623.194C521.954 611.06 505.054 561.66 449.587 568.594C397.154 575.094 377.22 696.427 485.554 738.027C484.687 761.86 462.587 806.06 444.821 816.027C444.821 816.027 441.787 784.394 407.12 742.794C372.454 701.194 303.12 593.294 349.92 435.56C396.72 277.827 608.62 195.494 805.787 275.66C839.587 289.527 867.32 309.027 889.42 329.394C941.42 377.06 969.154 446.394 960.92 516.16C959.187 539.56 952.687 562.094 939.687 578.56Z" fill="#423232"/>
<path d="M496.387 305.56C496.387 305.56 508.954 166.46 433.554 149.56C358.154 132.66 384.154 214.993 407.554 266.56C407.554 266.56 317.42 185.96 277.987 240.56C240.287 292.993 334.754 350.193 334.754 350.193C334.754 350.193 194.787 361.46 224.254 441.193C254.154 520.927 407.554 416.927 407.554 416.927C407.554 416.927 495.954 335.46 496.387 305.56Z" fill="#423232"/>
<path d="M749.234 669.067H648.267C621.834 669.067 600.601 647.834 600.601 621.4V580.234C600.601 553.8 621.834 532.567 648.267 532.567H749.234C775.667 532.567 796.901 553.8 796.901 580.234V621.4C796.901 647.834 775.234 669.067 749.234 669.067Z" stroke="#423232" stroke-width="13" stroke-miterlimit="10" stroke-linecap="round" stroke-linejoin="round"/>
<path d="M923.43 532.567H873.597C856.264 532.567 841.964 546.867 841.964 564.2V601.9C848.031 623.567 856.697 644.367 869.697 663C870.997 663 872.297 663.434 873.597 663.434H923.43C940.764 663.434 955.064 649.134 955.064 631.8V564.2C955.497 546.434 941.197 532.567 923.43 532.567Z" stroke="#423232" stroke-width="13" stroke-miterlimit="10" stroke-linecap="round" stroke-linejoin="round"/>
<path d="M796.899 572C811.633 570.267 830.266 568.967 845.866 570.7" stroke="#423232" stroke-width="13" stroke-miterlimit="10" stroke-linecap="round" stroke-linejoin="round"/>
<path d="M600.6 575.034L500.066 578.5" stroke="#423232" stroke-width="13" stroke-miterlimit="10" stroke-linecap="round" stroke-linejoin="round"/>
</g>
</svg>
