<svg width="1300" height="1300" viewBox="0 0 1300 1300" fill="none" xmlns="http://www.w3.org/2000/svg">
<path d="M650 1300C290.71 1300 0 1008.86 0 650C0 290.71 291.141 0 650 0C1009.29 0 1300 291.141 1300 650C1300.43 1009.29 1009.29 1300 650 1300Z" fill="#B5E2DC"/>
<mask id="mask0_410_879" style="mask-type:alpha" maskUnits="userSpaceOnUse" x="0" y="0" width="1301" height="1300">
<path d="M650 1300C290.71 1300 0 1008.86 0 650C0 290.71 291.141 0 650 0C1009.29 0 1300 291.141 1300 650C1300.43 1009.29 1009.29 1300 650 1300Z" fill="#F7C0B5"/>
</mask>
<g mask="url(#mask0_410_879)">
<path d="M1012.26 1197.33C1009.23 1199.5 1005.76 1201.66 1002.73 1203.83C999.265 1206 996.231 1208.16 992.764 1209.9C989.731 1211.63 987.131 1213.36 984.098 1215.1C983.664 1215.53 983.231 1215.53 982.798 1215.96C972.831 1222.03 962.431 1227.66 952.031 1232.86C948.998 1234.6 945.531 1236.33 942.498 1237.63C942.498 1237.63 942.065 1238.06 941.631 1238.06C938.165 1239.8 934.698 1241.53 931.231 1243.26C924.298 1246.73 916.931 1249.76 909.998 1252.8C906.531 1254.53 902.631 1255.83 899.165 1257.13C895.698 1258.43 891.798 1260.16 888.331 1261.46C884.865 1262.76 880.965 1264.5 877.498 1265.8C877.498 1265.8 877.498 1265.8 877.065 1265.8C873.598 1267.1 869.698 1268.4 866.231 1269.7C858.431 1272.3 850.198 1274.9 842.398 1277.5C839.798 1278.36 836.765 1279.23 834.165 1280.1C825.931 1282.7 817.698 1284.86 809.465 1286.6C806.431 1287.46 803.398 1287.9 799.931 1288.76C792.131 1290.5 783.898 1292.23 776.098 1293.96C774.365 1294.4 773.065 1294.4 771.331 1294.83C768.731 1295.26 765.698 1295.7 763.098 1296.13C759.198 1296.56 755.731 1297.43 751.831 1297.86C750.098 1298.3 748.365 1298.3 746.631 1298.73C744.465 1299.16 741.865 1299.6 739.265 1299.6C732.331 1300.46 724.965 1301.33 718.031 1302.2C715.865 1302.63 713.265 1302.63 711.098 1303.06H710.665C707.631 1303.5 704.598 1303.5 701.565 1303.93C698.531 1304.36 695.498 1304.36 692.465 1304.36C690.731 1304.36 688.565 1304.8 686.831 1304.8C683.365 1304.8 680.331 1305.23 677.298 1305.23C672.965 1305.23 669.065 1305.66 664.731 1305.66C660.398 1305.66 656.498 1305.66 652.165 1305.66C649.131 1305.66 646.098 1305.66 643.065 1305.66C460.631 1303.06 295.965 1225.5 178.965 1102.43C178.965 1102.43 178.965 1102 178.531 1102C191.965 1075.56 241.798 1027.9 293.798 988.465C359.665 938.632 452.831 907.865 452.831 907.865C452.831 907.865 513.931 897.898 740.565 945.132C913.465 981.532 987.131 1129.3 1012.26 1197.33Z" fill="#C99589"/>
<path d="M788.664 1065.16C779.564 1109.8 720.631 1136.23 621.397 1096.36C499.631 1046.96 452.831 907.865 452.831 907.865C446.331 808.198 431.164 722.832 431.164 722.832C571.997 710.698 738.397 875.365 738.397 875.365L757.464 956.832C759.197 963.765 762.664 969.832 767.864 974.165C776.964 989.765 794.731 1036.56 788.664 1065.16Z" fill="#C99589"/>
<path d="M767.865 974.599C685.099 970.265 623.999 958.132 558.565 840.699C614.032 889.665 679.465 908.299 748.365 916.965L757.465 956.832C759.199 964.198 762.665 970.265 767.865 974.599Z" fill="#A56663"/>
<path d="M939.031 452.432C946.831 488.832 950.731 518.298 929.498 615.365C908.264 712.432 948.998 809.498 846.731 898.332C777.831 958.132 657.364 969.398 561.164 903.965C528.665 881.865 498.764 851.098 474.498 810.798C455.431 779.165 433.331 749.265 408.631 721.965C374.398 684.698 333.231 609.732 353.598 477.132C386.531 261.332 600.164 236.632 726.264 260.465C852.364 284.298 917.798 356.232 939.031 452.432Z" fill="#C99589"/>
<path d="M524.332 621.865C524.332 621.865 510.899 556.865 447.632 564.665C393.032 571.598 373.965 702.465 497.899 738.865" fill="#C99589"/>
<path d="M493.999 679.498C493.999 679.498 478.399 669.532 480.133 652.198C482.733 631.832 480.133 619.265 470.599 615.365C446.766 605.398 441.999 633.132 442.866 636.598" stroke="#423232" stroke-width="13" stroke-miterlimit="10" stroke-linecap="round" stroke-linejoin="round"/>
<path d="M824.629 721.532C824.629 721.532 841.096 722.398 856.696 703.765C865.363 693.365 872.729 680.365 867.963 676.465C863.196 672.132 784.763 684.265 779.563 694.665C774.363 705.065 804.696 721.532 824.629 721.532Z" fill="#A56663"/>
<path d="M837.629 575.932C837.629 575.932 838.496 617.098 864.929 663.032C876.629 683.398 858.863 716.765 820.296 722.398" stroke="#423232" stroke-width="13" stroke-miterlimit="10" stroke-linecap="round" stroke-linejoin="round"/>
<path d="M1158.24 1464.67H62.7764C62.7764 1464.67 69.2764 1263.6 135.143 1120.17C184.976 1011.83 302.41 951.6 389.943 920.4C414.643 911.734 437.176 905.234 454.51 900.467C454.51 902.634 454.943 904.367 454.943 906.534C454.943 906.534 494.376 994.934 616.143 1043.9C715.376 1084.2 750.043 1068.17 759.143 1023.53C764.776 994.934 779.076 988.434 769.976 973.267C764.776 968.934 761.31 962.434 759.576 955.934L756.11 941.634C764.343 939.9 772.143 937.734 779.943 935.134C782.543 934.267 784.71 933.4 787.31 932.534C843.21 947.267 927.276 982.367 1026.51 1065.57C1138.31 1159.6 1158.24 1464.67 1158.24 1464.67Z" fill="#CC5292"/>
<mask id="mask1_410_879" style="mask-type:alpha" maskUnits="userSpaceOnUse" x="62" y="900" width="1097" height="565">
<path d="M1158.24 1464.67H62.7764C62.7764 1464.67 69.2764 1263.6 135.143 1120.17C184.976 1011.83 302.41 951.6 389.943 920.4C414.643 911.734 437.176 905.234 454.51 900.467C454.51 902.634 454.943 904.367 454.943 906.534C454.943 906.534 494.376 994.934 616.143 1043.9C715.376 1084.2 750.043 1068.17 759.143 1023.53C764.776 994.934 779.076 988.434 769.976 973.267C764.776 968.934 761.31 962.434 759.576 955.934L756.11 941.634C764.343 939.9 772.143 937.734 779.943 935.134C782.543 934.267 784.71 933.4 787.31 932.534C843.21 947.267 927.276 982.367 1026.51 1065.57C1138.31 1159.6 1158.24 1464.67 1158.24 1464.67Z" fill="#CC5292"/>
</mask>
<g mask="url(#mask1_410_879)">
<path d="M119.109 1306.5C83.576 1306.5 51.5093 1283.97 39.8093 1250.6C32.0093 1229.37 33.3093 1206.4 42.8426 1186.03C52.376 1165.67 69.276 1150.07 90.5093 1142.7C99.6093 1139.23 109.143 1137.5 119.109 1137.5C154.643 1137.5 186.709 1160.03 198.409 1193.4C214.009 1237.17 191.476 1285.7 147.709 1301.3C138.609 1304.77 129.076 1306.5 119.109 1306.5Z" stroke="#6F2696" stroke-width="13" stroke-miterlimit="10" stroke-linecap="round" stroke-linejoin="round"/>
<path d="M158.109 1208.13C165.909 1229.37 154.642 1253.2 133.409 1260.57C112.175 1268.37 88.3421 1257.1 80.9754 1235.87C73.1754 1214.63 84.4421 1190.8 105.675 1183.43C126.909 1175.63 150.309 1186.9 158.109 1208.13Z" fill="white"/>
<path d="M216.609 1100.23C181.076 1100.23 149.009 1077.7 137.309 1044.33C129.509 1023.1 130.809 1000.13 140.343 979.767C149.876 959.4 166.776 943.8 188.009 936.434C197.109 932.967 206.643 931.234 216.609 931.234C252.143 931.234 284.209 953.767 295.909 987.134C303.709 1008.37 302.409 1031.33 292.876 1051.7C283.343 1072.07 266.443 1087.67 245.209 1095.03C235.676 1098.5 226.143 1100.23 216.609 1100.23Z" stroke="#6F2696" stroke-width="13" stroke-miterlimit="10" stroke-linecap="round" stroke-linejoin="round"/>
<path d="M255.177 1001.87C262.977 1023.1 251.71 1046.93 230.477 1054.3C209.244 1062.1 185.41 1050.83 178.044 1029.6C170.244 1008.37 181.51 984.534 202.744 977.167C223.977 969.367 247.377 980.2 255.177 1001.87Z" fill="white"/>
<path d="M312.376 896.567C276.842 896.567 244.776 874.034 233.076 840.667C217.476 796.9 240.009 748.367 283.776 732.767C292.876 729.3 302.409 727.567 312.376 727.567C347.909 727.567 379.976 750.1 391.676 783.467C407.276 827.234 384.742 875.767 340.976 891.367C331.876 894.834 322.342 896.567 312.376 896.567Z" stroke="#6F2696" stroke-width="13" stroke-miterlimit="10" stroke-linecap="round" stroke-linejoin="round"/>
<path d="M367.845 1307.37C332.311 1307.37 300.245 1284.83 288.545 1251.47C280.745 1230.23 282.045 1207.27 291.578 1186.9C301.111 1166.53 318.011 1150.93 339.245 1143.57C348.345 1140.1 357.878 1138.37 367.845 1138.37C403.378 1138.37 435.445 1160.9 447.145 1194.27C454.945 1215.5 453.645 1238.47 444.111 1258.83C434.578 1279.2 417.678 1294.8 396.445 1302.17C387.345 1305.63 377.378 1307.37 367.845 1307.37Z" stroke="#6F2696" stroke-width="13" stroke-miterlimit="10" stroke-linecap="round" stroke-linejoin="round"/>
<path d="M406.408 1209C414.208 1230.23 402.941 1254.07 381.708 1261.43C360.474 1269.23 336.641 1257.97 329.274 1236.73C321.474 1215.5 332.741 1191.67 353.974 1184.3C375.208 1176.5 398.608 1187.33 406.408 1209Z" fill="white"/>
<path d="M464.908 1100.67C429.375 1100.67 397.308 1078.13 385.608 1044.77C377.808 1023.53 379.108 1000.57 388.641 980.2C398.175 959.834 415.075 944.234 436.308 936.867C445.408 933.4 454.941 931.667 464.908 931.667C500.441 931.667 532.508 954.2 544.208 987.567C552.008 1008.8 550.708 1031.77 541.175 1052.13C531.641 1072.5 514.741 1088.1 493.508 1095.47C484.408 1098.93 474.875 1100.67 464.908 1100.67Z" stroke="#6F2696" stroke-width="13" stroke-miterlimit="10" stroke-linecap="round" stroke-linejoin="round"/>
<path d="M503.908 1002.3C511.708 1023.53 500.441 1047.37 479.208 1054.73C457.974 1062.53 434.141 1051.27 426.774 1030.03C418.974 1008.8 430.241 984.967 451.474 977.6C472.708 969.8 496.108 981.067 503.908 1002.3Z" fill="white"/>
<path d="M561.109 897C525.576 897 493.509 874.467 481.809 841.1C474.009 819.867 475.309 796.9 484.843 776.534C494.376 756.167 511.276 740.567 532.509 733.2C541.609 729.734 551.143 728 561.109 728C596.643 728 628.709 750.534 640.409 783.9C656.009 827.667 633.476 876.2 589.709 891.8C580.176 895.7 570.643 897 561.109 897Z" stroke="#6F2696" stroke-width="13" stroke-miterlimit="10" stroke-linecap="round" stroke-linejoin="round"/>
<path d="M623.944 1292.2C588.411 1292.2 556.344 1269.67 544.644 1236.3C529.044 1192.53 551.577 1144 595.344 1128.4C604.444 1124.93 613.977 1123.2 623.944 1123.2C659.477 1123.2 691.544 1145.73 703.244 1179.1C711.044 1200.33 709.744 1223.3 700.211 1243.67C690.677 1264.03 673.777 1279.63 652.544 1287C643.011 1290.47 633.477 1292.2 623.944 1292.2Z" stroke="#6F2696" stroke-width="13" stroke-miterlimit="10" stroke-linecap="round" stroke-linejoin="round"/>
<path d="M662.51 1193.83C670.31 1215.07 659.043 1238.9 637.81 1246.27C616.577 1254.07 592.743 1242.8 585.377 1221.57C577.577 1200.33 588.843 1176.5 610.077 1169.13C631.31 1161.33 654.71 1172.17 662.51 1193.83Z" fill="white"/>
<path d="M719.709 1088.53C684.175 1088.53 652.109 1066 640.409 1032.63C624.809 988.867 647.342 940.333 691.109 924.733C700.209 921.267 709.742 919.534 719.709 919.534C755.242 919.534 787.309 942.067 799.009 975.434C814.609 1019.2 792.075 1067.73 748.309 1083.33C739.209 1086.8 729.242 1088.53 719.709 1088.53Z" stroke="#6F2696" stroke-width="13" stroke-miterlimit="10" stroke-linecap="round" stroke-linejoin="round"/>
<path d="M758.276 990.167C766.076 1011.4 754.809 1035.23 733.576 1042.6C712.342 1050.4 688.509 1039.13 681.142 1017.9C673.342 996.667 684.609 972.834 705.842 965.467C727.076 957.667 750.909 968.5 758.276 990.167Z" fill="white"/>
<path d="M872.243 1292.63C836.709 1292.63 804.643 1270.1 792.943 1236.73C777.343 1192.97 799.876 1144.43 843.643 1128.83C852.743 1125.37 862.276 1123.63 872.243 1123.63C907.776 1123.63 939.843 1146.17 951.543 1179.53C959.343 1200.77 958.043 1223.73 948.51 1244.1C938.976 1264.47 922.076 1280.07 900.843 1287.43C891.743 1290.9 882.209 1292.63 872.243 1292.63Z" stroke="#6F2696" stroke-width="13" stroke-miterlimit="10" stroke-linecap="round" stroke-linejoin="round"/>
<path d="M910.81 1194.27C918.61 1215.5 907.343 1239.33 886.11 1246.7C864.877 1254.5 841.043 1243.23 833.677 1222C825.877 1200.77 837.143 1176.93 858.377 1169.57C879.61 1161.77 903.443 1173.03 910.81 1194.27Z" fill="white"/>
<path d="M968.011 1088.97C932.477 1088.97 900.411 1066.43 888.711 1033.07C880.911 1011.83 882.211 988.867 891.744 968.5C901.277 948.134 918.177 932.534 939.411 925.167C948.511 921.7 958.044 919.967 968.011 919.967C1003.54 919.967 1035.61 942.5 1047.31 975.867C1062.91 1019.63 1040.38 1068.17 996.177 1083.77C987.511 1087.23 977.977 1088.97 968.011 1088.97Z" stroke="#6F2696" stroke-width="13" stroke-miterlimit="10" stroke-linecap="round" stroke-linejoin="round"/>
<path d="M1007.01 990.6C1014.81 1011.83 1003.54 1035.67 982.31 1043.03C961.077 1050.83 937.243 1039.57 929.877 1018.33C922.077 997.1 933.343 973.267 954.577 965.9C975.81 958.1 999.21 969.367 1007.01 990.6Z" fill="white"/>
</g>
<path d="M719.276 1076.83C719.71 1077.27 719.71 1077.27 720.143 1077.7C720.143 1077.27 720.143 1076.83 720.143 1076.83C719.71 1076.4 719.276 1076.4 719.276 1076.83Z" fill="white"/>
<path d="M277.276 1464.67L257.776 1304.33" stroke="#544D4D" stroke-width="13" stroke-miterlimit="10" stroke-linecap="round" stroke-linejoin="round"/>
<path d="M1033.88 1249.3C1033.88 1249.3 1020.88 1280.93 1024.78 1312.57C1028.68 1344.2 1039.94 1390.57 1023.91 1464.67" stroke="#544D4D" stroke-width="13" stroke-miterlimit="10" stroke-linecap="round" stroke-linejoin="round"/>
<path d="M822.41 915.634C822.41 915.634 763.044 957.667 648.644 939.9C552.01 924.734 485.71 889.634 461.877 875.334C455.81 871.434 451.477 864.934 451.044 857.567L450.61 851.067C450.61 851.067 430.244 852.8 426.777 881.4C425.044 895.267 425.044 917.367 425.477 936.867C425.91 962.867 436.31 988 454.51 1006.63C483.544 1036.53 543.777 1075.53 612.677 1087.23C778.644 1114.97 823.71 1042.6 822.41 1004.03C821.11 958.967 822.41 915.634 822.41 915.634Z" fill="#CC5292"/>
<path d="M425.478 936.434C425.911 962.434 436.311 987.567 454.511 1006.2C483.544 1036.1 543.778 1075.1 612.678 1086.8C778.644 1114.53 823.711 1042.17 822.411 1003.6" stroke="#993665" stroke-width="13" stroke-miterlimit="10" stroke-linecap="round" stroke-linejoin="round"/>
<path d="M708.443 944.234C708.443 944.234 744.843 948.567 743.977 988.867C743.11 1029.17 744.843 1085.07 744.843 1085.07" stroke="#993665" stroke-width="13" stroke-miterlimit="10" stroke-linecap="round" stroke-linejoin="round"/>
<path d="M685.912 1013.57C695.245 1013.57 702.812 1006 702.812 996.667C702.812 987.333 695.245 979.767 685.912 979.767C676.578 979.767 669.012 987.333 669.012 996.667C669.012 1006 676.578 1013.57 685.912 1013.57Z" fill="white"/>
<path d="M685.912 1068.17C695.245 1068.17 702.812 1060.6 702.812 1051.27C702.812 1041.93 695.245 1034.37 685.912 1034.37C676.578 1034.37 669.012 1041.93 669.012 1051.27C669.012 1060.6 676.578 1068.17 685.912 1068.17Z" fill="white"/>
<path d="M743.043 526.549C752.576 527.849 759.943 517.882 756.476 508.349C754.743 503.149 751.709 498.382 746.943 495.349C732.209 486.249 677.176 485.382 648.143 506.182C622.576 525.249 699.709 520.482 743.043 526.549Z" fill="#423232"/>
<path d="M863.072 531.316C855.272 531.316 850.505 521.349 854.405 513.116C856.572 508.782 859.605 504.882 863.939 502.716C877.372 496.216 913.339 500.116 929.372 522.216C943.672 541.716 899.039 530.882 863.072 531.316Z" fill="#423232"/>
<path d="M727.875 581.149C694.075 595.449 656.375 577.682 656.375 577.682" stroke="#423232" stroke-width="13" stroke-miterlimit="10" stroke-linecap="round" stroke-linejoin="round"/>
<path d="M899.041 589.816C899.041 589.816 875.64 604.116 846.174 587.216" stroke="#423232" stroke-width="13" stroke-miterlimit="10" stroke-linecap="round" stroke-linejoin="round"/>
<path d="M793.697 770.764C768.997 785.497 725.23 769.464 704.863 744.764" stroke="#423232" stroke-width="13" stroke-miterlimit="10" stroke-linecap="round" stroke-linejoin="round"/>
<path d="M477.157 636.126C477.157 636.126 442.49 630.926 445.09 679.459C446.39 704.159 446.39 717.593 445.957 724.526C445.524 729.293 448.557 733.626 452.89 735.359C458.09 737.526 463.724 735.359 466.324 730.159C470.224 723.226 474.557 713.693 474.557 705.893C474.557 692.893 488.424 681.193 488.424 681.193C488.424 681.193 475.857 670.359 477.157 636.126Z" fill="white"/>
<path d="M582.026 1471.59C578.559 1467.69 442.492 1234.99 462.859 1147.46C476.726 1087.23 458.526 1017.89 442.492 956.793C435.992 931.659 429.926 908.259 426.459 887.459C420.392 851.493 424.726 817.26 439.459 785.626C455.492 750.093 452.892 719.326 452.892 718.893L461.559 718.026C461.559 719.326 464.159 751.826 447.259 789.093C433.392 818.993 429.492 851.926 435.126 886.159C438.592 906.526 444.659 929.926 451.159 955.059C467.626 1017.03 485.826 1087.66 471.526 1150.06C452.459 1233.26 588.092 1465.96 588.959 1466.83L582.026 1471.59Z" fill="white"/>
<path d="M446.394 704.593C446.827 714.126 446.394 720.626 446.394 724.526C445.96 729.292 448.994 733.626 453.327 735.359C458.527 737.526 464.16 735.359 466.76 730.159C470.66 723.226 474.994 713.692 474.994 705.892C474.994 705.459 474.994 704.592 474.994 704.159C465.894 707.626 455.494 710.226 446.394 704.593Z" fill="#E5E5E5"/>
<path d="M854.159 992.759C851.126 1012.69 850.693 1044.33 849.826 1081.16C848.526 1152.23 806.493 1429.13 786.126 1472.89L778.326 1469.43C797.826 1426.96 839.86 1151.36 841.16 1081.16C842.026 1044.33 842.46 1012.26 845.493 991.459C851.993 947.693 847.226 914.759 844.626 900.893C845.926 899.593 847.226 898.726 848.526 897.426C849.826 896.559 850.693 895.259 851.993 894.393C854.593 905.659 861.959 941.626 854.159 992.759Z" fill="white"/>
</g>
</svg>
