<svg width="1300" height="1300" viewBox="0 0 1300 1300" fill="none" xmlns="http://www.w3.org/2000/svg">
<path d="M650 1300C290.71 1300 0 1008.86 0 650C0 290.71 291.141 0 650 0C1009.29 0 1300 291.141 1300 650C1300.43 1009.29 1009.29 1300 650 1300Z" fill="#5766EF"/>
<mask id="mask0_410_879" style="mask-type:alpha" maskUnits="userSpaceOnUse" x="0" y="0" width="1301" height="1300">
<path d="M650 1300C290.71 1300 0 1008.86 0 650C0 290.71 291.141 0 650 0C1009.29 0 1300 291.141 1300 650C1300.43 1009.29 1009.29 1300 650 1300Z" fill="#F7C0B5"/>
</mask>
<g mask="url(#mask0_410_879)">
<path d="M1012.26 1197.33C1009.23 1199.5 1005.76 1201.66 1002.73 1203.83C999.265 1206 996.231 1208.16 992.764 1209.9C989.731 1211.63 987.131 1213.36 984.098 1215.1C983.664 1215.53 983.231 1215.53 982.798 1215.96C972.831 1222.03 962.431 1227.66 952.031 1232.86C948.998 1234.6 945.531 1236.33 942.498 1237.63C942.498 1237.63 942.065 1238.06 941.631 1238.06C938.165 1239.8 934.698 1241.53 931.231 1243.26C924.298 1246.73 916.931 1249.76 909.998 1252.8C906.531 1254.53 902.631 1255.83 899.165 1257.13C895.698 1258.43 891.798 1260.16 888.331 1261.46C884.865 1262.76 880.965 1264.5 877.498 1265.8C877.498 1265.8 877.498 1265.8 877.065 1265.8C873.598 1267.1 869.698 1268.4 866.231 1269.7C858.431 1272.3 850.198 1274.9 842.398 1277.5C839.798 1278.36 836.765 1279.23 834.165 1280.1C825.931 1282.7 817.698 1284.86 809.465 1286.6C806.431 1287.46 803.398 1287.9 799.931 1288.76C792.131 1290.5 783.898 1292.23 776.098 1293.96C774.365 1294.4 773.065 1294.4 771.331 1294.83C768.731 1295.26 765.698 1295.7 763.098 1296.13C759.198 1296.56 755.731 1297.43 751.831 1297.86C750.098 1298.3 748.365 1298.3 746.631 1298.73C744.465 1299.16 741.865 1299.6 739.265 1299.6C732.331 1300.46 724.965 1301.33 718.031 1302.2C715.865 1302.63 713.265 1302.63 711.098 1303.06H710.665C707.631 1303.5 704.598 1303.5 701.565 1303.93C698.531 1304.36 695.498 1304.36 692.465 1304.36C690.731 1304.36 688.565 1304.8 686.831 1304.8C683.365 1304.8 680.331 1305.23 677.298 1305.23C672.965 1305.23 669.065 1305.66 664.731 1305.66C660.398 1305.66 656.498 1305.66 652.165 1305.66C649.131 1305.66 646.098 1305.66 643.065 1305.66C460.631 1303.06 295.965 1225.5 178.965 1102.43C178.965 1102.43 178.965 1102 178.531 1102C191.965 1075.56 241.798 1027.9 293.798 988.465C359.665 938.632 452.831 907.865 452.831 907.865C452.831 907.865 513.931 897.898 740.565 945.132C913.465 981.532 987.131 1129.3 1012.26 1197.33Z" fill="#C99589"/>
<path d="M788.664 1065.16C779.564 1109.8 720.631 1136.23 621.397 1096.36C499.631 1046.96 452.831 907.865 452.831 907.865C446.331 808.198 431.164 722.832 431.164 722.832C571.997 710.698 738.397 875.365 738.397 875.365L757.464 956.832C759.197 963.765 762.664 969.832 767.864 974.165C776.964 989.765 794.731 1036.56 788.664 1065.16Z" fill="#C99589"/>
<path d="M767.865 974.599C685.099 970.265 623.999 958.132 558.565 840.699C614.032 889.665 679.465 908.299 748.365 916.965L757.465 956.832C759.199 964.198 762.665 970.265 767.865 974.599Z" fill="#A56663"/>
<path d="M939.031 452.432C946.831 488.832 950.731 518.298 929.498 615.365C908.264 712.432 948.998 809.498 846.731 898.332C777.831 958.132 657.364 969.398 561.164 903.965C528.665 881.865 498.764 851.098 474.498 810.798C455.431 779.165 433.331 749.265 408.631 721.965C374.398 684.698 333.231 609.732 353.598 477.132C386.531 261.332 600.164 236.632 726.264 260.465C852.364 284.298 917.798 356.232 939.031 452.432Z" fill="#C99589"/>
<path d="M524.332 621.865C524.332 621.865 510.899 556.865 447.632 564.665C393.032 571.598 373.965 702.465 497.899 738.865" fill="#C99589"/>
<path d="M493.999 679.498C493.999 679.498 478.399 669.532 480.133 652.198C482.733 631.832 480.133 619.265 470.599 615.365C446.766 605.398 441.999 633.132 442.866 636.598" stroke="#423232" stroke-width="13" stroke-miterlimit="10" stroke-linecap="round" stroke-linejoin="round"/>
<path d="M824.629 721.532C824.629 721.532 841.096 722.398 856.696 703.765C865.363 693.365 872.729 680.365 867.963 676.465C863.196 672.132 784.763 684.265 779.563 694.665C774.363 705.065 804.696 721.532 824.629 721.532Z" fill="#A56663"/>
<path d="M837.629 575.932C837.629 575.932 838.496 617.098 864.929 663.032C876.629 683.398 858.863 716.765 820.296 722.398" stroke="#423232" stroke-width="13" stroke-miterlimit="10" stroke-linecap="round" stroke-linejoin="round"/>
<path d="M389.88 829.4C389.88 829.4 430.18 819.867 447.08 818.567L452.28 865.8C452.713 865.367 390.313 841.534 389.88 829.4Z" fill="#544646"/>
<path d="M1158.62 1465.1H63.1494C63.1494 1465.1 69.6494 1264.03 135.516 1120.6C199.649 981.933 374.283 921.7 454.883 900.9C454.883 903.067 455.316 904.8 455.316 906.967C455.316 906.967 502.116 1046.07 623.883 1095.47C723.116 1135.77 782.049 1108.9 791.149 1064.27C796.783 1035.67 779.016 988.867 769.916 973.7C764.716 969.367 761.249 962.867 759.516 956.367L756.049 942.067C766.883 939.9 777.283 936.867 787.249 932.967C843.149 947.7 927.216 982.8 1026.45 1066C1138.68 1159.6 1158.62 1465.1 1158.62 1465.1Z" fill="#544646"/>
<path d="M277.649 1465.1L258.149 1304.33" stroke="white" stroke-width="13" stroke-miterlimit="10" stroke-linecap="round" stroke-linejoin="round"/>
<path d="M1034.25 1249.73C1034.25 1249.73 1021.25 1281.37 1025.15 1313C1029.05 1344.63 1040.32 1391 1024.28 1465.1" stroke="white" stroke-width="13" stroke-miterlimit="10" stroke-linecap="round" stroke-linejoin="round"/>
<path d="M590.515 1176.07C350.882 1106.73 290.648 965.901 290.648 965.901C290.648 965.901 328.348 942.501 346.115 918.234C356.948 903.501 454.448 886.601 454.448 886.601C456.182 905.234 454.448 886.601 455.748 906.967C455.748 906.967 502.548 1046.07 624.315 1095.47C723.548 1135.77 782.482 1108.9 791.582 1064.27C797.215 1035.67 779.448 988.867 770.348 973.701C765.148 969.367 761.682 962.867 759.948 956.367L756.482 942.067C781.182 936.867 804.582 927.334 824.948 914.767C825.815 916.067 826.248 917.367 826.682 918.667C835.782 940.767 863.515 960.701 863.515 960.701C921.582 1097.63 834.482 1246.7 590.515 1176.07Z" fill="#544646"/>
<path d="M932.414 997.967C932.414 997.967 952.347 988.434 972.281 990.6C992.214 992.767 1087.11 1069.47 1096.21 1085.5C1105.75 1101.53 1105.31 1152.67 1094.05 1159.17C1083.21 1165.23 1076.28 1151.37 1076.28 1151.37C1076.28 1151.37 1084.51 1104.57 1075.41 1095.9C1066.31 1087.23 978.347 1013.57 975.314 1013.13C972.281 1012.7 955.814 1026.57 955.814 1026.57L932.414 997.967Z" fill="#544646"/>
<path d="M277.647 987.134C277.647 987.134 238.647 970.667 221.747 973.267C204.847 975.867 117.314 1051.27 109.08 1084.63C100.847 1118 128.58 1178.23 128.58 1178.23L148.08 1147.47C148.08 1147.47 134.214 1101.53 138.547 1083.33C142.88 1065.13 212.214 1002.73 219.147 1002.73C226.08 1002.73 267.68 1021.37 267.68 1021.37L277.647 987.134Z" fill="#544646"/>
<path d="M457.914 1011.83C499.514 1091.57 582.714 1197.73 721.814 1247.57C847.047 1292.63 839.247 1141.4 821.047 1050.83C696.247 1078.13 571.014 1080.3 457.914 1011.83Z" fill="#443F3F"/>
<path d="M821.048 1051.27C816.281 1027.43 810.648 1007.93 806.748 997.1C798.081 973.7 785.081 952.9 773.381 937.3C767.748 939.033 762.114 940.333 756.481 941.633L759.948 955.933C761.681 962.867 765.148 968.933 770.348 973.267C771.214 975 772.514 977.167 773.814 979.767C675.448 1017.9 559.314 967.633 559.314 967.633C524.214 965.9 526.814 1000.57 543.281 1041.73C480.881 982.367 455.748 906.967 455.748 906.967C454.881 893.967 454.014 881.4 452.714 868.833C452.714 868.833 420.648 886.6 426.281 926.467C428.881 943.367 438.848 975 458.348 1011.83C571.014 1080.3 696.248 1078.13 821.048 1051.27Z" fill="#E26076"/>
<path d="M389.88 829.4C389.88 829.4 490.847 876.2 572.313 897.867C580.113 900.034 586.18 906.967 587.047 915.2C590.08 944.667 598.313 1013.57 605.247 1040C614.347 1074.23 790.713 1248.43 792.446 1270.53C794.18 1292.63 614.347 1287.43 507.313 1159.17C399.847 1030.9 408.08 1007.5 408.08 1007.5C408.08 1007.5 389.88 884.434 389.88 829.4Z" fill="#544646"/>
<path d="M870.447 875.767L898.18 887.467C906.847 890.934 911.18 900.901 908.147 910.001C895.58 948.134 864.38 1043.03 863.08 1075.97C861.347 1117.57 775.547 1384.93 775.547 1384.93C775.547 1384.93 723.114 1316.03 761.68 1248C792.014 1194.27 793.747 1079.43 790.714 1064.27C786.814 1044.33 770.347 997.534 761.247 968.067C756.48 952.034 755.614 942.067 755.614 942.067C755.614 942.067 815.414 932.101 870.447 875.767Z" fill="#544646"/>
<path d="M548.049 946.834C554.989 946.834 560.616 940.431 560.616 932.533C560.616 924.636 554.989 918.234 548.049 918.234C541.109 918.234 535.482 924.636 535.482 932.533C535.482 940.431 541.109 946.834 548.049 946.834Z" fill="white"/>
<path d="M748.249 1211.17C716.615 1177.37 628.215 1097.2 601.349 1079.43C585.749 1069.03 568.849 1061.23 551.082 1055.6C438.415 1019.2 401.582 959.834 401.582 959.834L396.815 918.234" stroke="#443F3F" stroke-width="13" stroke-miterlimit="10" stroke-linecap="round" stroke-linejoin="round"/>
<path d="M768.615 1235C768.615 1235 758.215 1286.57 762.548 1311.7C766.882 1336.83 770.348 1411.8 770.348 1411.8" stroke="#443F3F" stroke-width="13" stroke-miterlimit="10" stroke-linecap="round" stroke-linejoin="round"/>
<path d="M888.213 973.7C888.213 973.7 866.98 1048.23 857.013 1077.7C846.613 1107.17 799.38 1166.1 786.38 1194.27" stroke="#443F3F" stroke-width="13" stroke-miterlimit="10" stroke-linecap="round" stroke-linejoin="round"/>
<path d="M831.448 1228.93C839.346 1228.93 845.748 1222.53 845.748 1214.63C845.748 1206.74 839.346 1200.33 831.448 1200.33C823.551 1200.33 817.148 1206.74 817.148 1214.63C817.148 1222.53 823.551 1228.93 831.448 1228.93Z" fill="white"/>
<path d="M743.043 526.549C752.576 527.849 759.943 517.882 756.476 508.349C754.743 503.149 751.709 498.382 746.943 495.349C732.209 486.249 677.176 485.382 648.143 506.182C622.576 525.249 699.709 520.482 743.043 526.549Z" fill="#423232"/>
<path d="M863.072 531.316C855.272 531.316 850.505 521.349 854.405 513.116C856.572 508.782 859.605 504.882 863.939 502.716C877.372 496.216 913.339 500.116 929.372 522.216C943.672 541.716 899.039 530.882 863.072 531.316Z" fill="#423232"/>
<path d="M727.875 581.149C694.075 595.449 656.375 577.682 656.375 577.682" stroke="#423232" stroke-width="13" stroke-miterlimit="10" stroke-linecap="round" stroke-linejoin="round"/>
<path d="M899.041 589.816C899.041 589.816 875.64 604.116 846.174 587.216" stroke="#423232" stroke-width="13" stroke-miterlimit="10" stroke-linecap="round" stroke-linejoin="round"/>
<path d="M793.697 770.764C768.997 785.497 725.23 769.464 704.863 744.764" stroke="#423232" stroke-width="13" stroke-miterlimit="10" stroke-linecap="round" stroke-linejoin="round"/>
<path d="M940.441 442.654C939.141 436.154 937.408 429.221 935.241 422.721C933.075 416.221 927.875 410.588 920.941 409.288C898.408 405.388 876.741 366.388 845.541 362.054C746.308 348.621 680.008 356.854 586.841 393.254C490.641 430.521 545.241 585.654 524.875 609.488C521.408 597.354 504.508 547.954 449.041 554.888C396.608 561.388 376.675 682.721 485.008 724.321C484.141 748.154 441.241 770.688 406.575 729.088C371.908 687.488 302.575 579.588 349.375 421.854C396.175 264.121 608.075 181.788 805.241 261.954C839.041 275.821 859.408 310.054 888.874 315.688C1163.17 368.121 946.941 473.854 940.441 442.654Z" fill="#423232"/>
<path d="M485.44 724.754C485.44 724.754 484.574 760.288 448.174 826.154C448.174 826.154 439.507 789.754 420.44 756.388C401.807 723.021 361.507 684.454 338.974 614.688C316.44 544.921 361.507 600.388 382.74 629.421C403.54 658.021 417.407 729.088 485.44 724.754Z" fill="#423232"/>
<path d="M845.541 390.654C845.541 390.654 766.241 317.854 730.275 411.021C694.308 504.188 569.508 632.021 465.941 483.388C362.375 334.754 517.941 216.021 679.575 264.121C842.075 312.654 843.808 331.288 845.541 390.654Z" fill="#423232"/>
<path d="M845.538 390.654C845.538 390.654 923.972 537.554 1007.17 472.121C1081.27 413.621 1066.54 275.821 953.438 243.754C849.438 214.287 838.172 268.021 734.172 210.821C630.172 153.621 441.672 191.754 406.572 325.654C406.572 325.654 305.172 361.187 301.272 483.821C297.372 606.454 393.572 713.054 393.572 713.054C393.572 713.054 336.372 503.321 444.272 472.121C552.172 440.921 582.072 333.021 653.572 333.021C725.072 333.021 800.038 324.354 845.538 390.654Z" fill="#423232"/>
<path opacity="0.6" d="M582.175 675.397C582.175 675.397 588.241 688.397 606.441 690.13C624.641 691.864 845.641 641.597 853.441 642.897C861.241 644.197 874.241 648.964 874.241 648.964L925.375 681.464L926.241 658.93C926.241 658.93 897.642 623.397 827.875 626.864C758.108 630.33 582.175 675.397 582.175 675.397Z" fill="#B7AEA9"/>
<path d="M592.575 469.997C575.675 469.563 561.375 482.997 561.375 499.897V539.33C561.375 559.263 545.341 575.73 524.975 575.73H510.675L524.975 601.297C544.908 601.297 561.375 617.33 561.375 637.697V651.563C561.375 670.197 577.841 684.063 596.041 681.463L837.841 643.763C843.041 642.897 847.808 642.897 853.008 643.33L854.308 478.23L592.575 469.997Z" fill="#5E4949"/>
<path d="M944.44 480.397L854.74 477.797L853.44 642.897C860.807 643.763 867.74 645.497 874.24 648.963L922.774 673.23C935.34 679.297 950.074 671.063 951.374 657.197L964.807 502.93C965.674 491.23 956.574 480.83 944.44 480.397Z" fill="#423232"/>
<path d="M657.143 538.897L908.043 544.53C921.909 544.963 932.743 557.097 931.009 570.963C929.709 583.097 919.743 592.197 907.609 592.197H656.709C643.276 592.197 632.443 580.93 632.876 567.497L633.309 561.863C633.743 548.43 644.576 538.897 657.143 538.897Z" fill="#E26076" stroke="#423232" stroke-width="13" stroke-miterlimit="10" stroke-linecap="round" stroke-linejoin="round"/>
<path d="M688.342 573.996H664.508C659.742 573.996 655.842 570.096 655.842 565.33C655.842 560.563 659.742 556.663 664.508 556.663H688.342C693.108 556.663 697.008 560.563 697.008 565.33C696.575 570.096 693.108 573.996 688.342 573.996Z" fill="white"/>
</g>
</svg>
