<svg width="1300" height="1300" viewBox="0 0 1300 1300" fill="none" xmlns="http://www.w3.org/2000/svg">
<path d="M650 1300C290.71 1300 0 1008.86 0 650C0 290.71 291.141 0 650 0C1009.29 0 1300 291.141 1300 650C1300.43 1009.29 1009.29 1300 650 1300Z" fill="#F4DA92"/>
<mask id="mask0_426_5438" style="mask-type:alpha" maskUnits="userSpaceOnUse" x="0" y="0" width="1300" height="1300">
<path d="M650 1300C290.71 1300 0 1008.86 0 650C0 290.71 291.141 0 650 0C1009.29 0 1300 291.141 1300 650C1300.43 1009.29 1009.29 1300 650 1300Z" fill="#F7C0B5"/>
</mask>
<g mask="url(#mask0_426_5438)">
<path d="M1013.99 1197.33C1010.96 1199.5 1007.49 1201.67 1004.46 1203.83C1000.99 1206 997.961 1208.17 994.494 1209.9C991.461 1211.63 988.861 1213.37 985.828 1215.1C985.394 1215.53 984.961 1215.53 984.528 1215.97C974.561 1222.03 964.161 1227.67 953.761 1232.87C950.728 1234.6 947.261 1236.33 944.228 1237.63C944.228 1237.63 943.794 1238.07 943.361 1238.07C939.894 1239.8 936.428 1241.53 932.961 1243.27C926.028 1246.73 918.661 1249.77 911.728 1252.8C908.261 1254.53 904.361 1255.83 900.894 1257.13C897.428 1258.43 893.528 1260.17 890.061 1261.47C886.594 1262.77 882.694 1264.5 879.228 1265.8C879.228 1265.8 879.228 1265.8 878.794 1265.8C875.328 1267.1 871.428 1268.4 867.961 1269.7C860.161 1272.3 851.928 1274.9 844.128 1277.5C841.528 1278.37 838.495 1279.23 835.895 1280.1C827.661 1282.7 819.428 1284.87 811.195 1286.6C808.161 1287.47 805.128 1287.9 801.661 1288.77C793.861 1290.5 785.628 1292.23 777.828 1293.97C776.095 1294.4 774.795 1294.4 773.061 1294.83C770.461 1295.27 767.428 1295.7 764.828 1296.13C760.928 1296.57 757.461 1297.43 753.561 1297.87C751.828 1298.3 750.095 1298.3 748.361 1298.73C746.195 1299.17 743.595 1299.6 740.995 1299.6C734.061 1300.47 726.695 1301.33 719.761 1302.2C717.595 1302.63 714.995 1302.63 712.828 1303.07H712.395C709.361 1303.5 706.328 1303.5 703.295 1303.93C700.261 1304.37 697.228 1304.37 694.195 1304.37C692.461 1304.37 690.295 1304.8 688.561 1304.8C685.095 1304.8 682.061 1305.23 679.028 1305.23C674.695 1305.23 670.795 1305.67 666.461 1305.67C662.128 1305.67 658.228 1305.67 653.895 1305.67C650.861 1305.67 647.828 1305.67 644.795 1305.67C462.361 1303.07 297.695 1225.5 180.695 1102.43C180.695 1102.43 180.695 1102 180.262 1102C193.695 1075.57 243.528 1027.9 295.528 988.466C361.395 938.632 454.561 907.866 454.561 907.866C454.561 907.866 515.661 897.899 742.295 945.132C915.194 981.532 988.861 1129.3 1013.99 1197.33Z" fill="#F1B98B"/>
<path d="M790.398 1065.16C781.298 1109.8 722.365 1136.23 623.132 1096.36C501.365 1046.96 454.565 907.865 454.565 907.865C448.065 808.198 432.898 722.832 432.898 722.832C573.732 710.698 740.132 875.365 740.132 875.365L759.198 956.832C760.932 963.765 764.398 969.832 769.598 974.165C778.698 989.765 796.465 1036.56 790.398 1065.16Z" fill="#F1B98B"/>
<path d="M769.593 974.598C686.826 970.265 625.726 958.132 560.293 840.698C615.76 889.665 681.193 908.298 750.093 916.965L759.193 956.832C760.926 964.198 764.393 970.265 769.593 974.598Z" fill="#EFBDA5"/>
<path d="M940.754 452.432C948.554 488.832 952.454 518.299 931.221 615.365C909.988 712.432 950.721 809.499 848.454 898.332C779.554 958.132 659.088 969.399 562.888 903.965C530.388 881.865 500.488 851.099 476.221 810.799C457.155 779.165 435.055 749.265 410.355 721.965C376.121 684.699 334.955 609.732 355.321 477.132C388.255 261.332 601.888 236.632 727.988 260.466C854.088 284.299 919.521 356.232 940.754 452.432Z" fill="#F1B98B"/>
<path d="M526.064 621.865C526.064 621.865 512.631 556.865 449.364 564.665C394.765 571.599 375.698 702.465 499.631 738.865" fill="#F1B98B"/>
<path d="M495.728 679.498C495.728 679.498 480.128 669.532 481.861 652.198C484.461 631.832 481.861 619.265 472.328 615.365C448.495 605.398 443.728 633.132 444.595 636.598" stroke="#423232" stroke-width="13.4786" stroke-miterlimit="10" stroke-linecap="round" stroke-linejoin="round"/>
<path d="M826.364 721.533C826.364 721.533 842.83 722.399 858.43 703.766C867.097 693.366 874.464 680.366 869.697 676.466C864.93 672.133 786.497 684.266 781.297 694.666C776.097 705.066 806.431 721.533 826.364 721.533Z" fill="#EFBDA5"/>
<path d="M839.357 575.932C839.357 575.932 840.223 617.099 866.657 663.032C878.357 683.399 860.59 716.765 822.023 722.399" stroke="#423232" stroke-width="13.4786" stroke-miterlimit="10" stroke-linecap="round" stroke-linejoin="round"/>
<path opacity="0.42" d="M604.489 743.632C629.139 743.632 649.122 727.141 649.122 706.799C649.122 686.456 629.139 669.965 604.489 669.965C579.838 669.965 559.855 686.456 559.855 706.799C559.855 727.141 579.838 743.632 604.489 743.632Z" fill="#F5BEB8"/>
<path opacity="0.42" d="M924.299 670.832C922.999 695.098 923.432 718.932 921.699 742.765C902.632 738.432 888.766 724.132 888.766 707.232C888.766 689.032 903.932 674.298 924.299 670.832Z" fill="#F5BEB8"/>
<path d="M261.734 1017.23C261.734 1017.23 277.768 1005.09 307.668 1023.29C363.568 1057.53 434.634 1240.39 282.101 1368.23C282.101 1368.23 254.801 1527.69 282.101 1558.03C282.101 1558.03 781.301 1583.16 996.667 1558.03C996.667 1558.03 1000.13 1460.09 986.267 1359.99C968.934 1233.03 946.834 1107.79 864.934 992.525C853.234 976.059 831.567 968.692 818.134 964.792L759.201 947.892C759.201 947.892 811.201 1098.26 666.901 1063.59C578.501 1042.36 505.268 958.292 444.601 919.725C430.301 910.625 410.801 913.659 398.234 918.859C369.634 930.992 263.901 994.259 261.734 1017.23Z" fill="#657256"/>
<mask id="mask1_426_5438" style="mask-type:alpha" maskUnits="userSpaceOnUse" x="261" y="913" width="737" height="657">
<path d="M261.734 1017.23C261.734 1017.23 277.768 1005.09 307.668 1023.29C363.568 1057.53 434.634 1240.39 282.101 1368.23C282.101 1368.23 254.801 1527.69 282.101 1558.03C282.101 1558.03 781.301 1583.16 996.667 1558.03C996.667 1558.03 1000.13 1460.09 986.267 1359.99C968.934 1233.03 946.834 1107.79 864.934 992.525C853.234 976.059 831.567 968.692 818.134 964.792L759.201 947.892C759.201 947.892 811.201 1098.26 666.901 1063.59C578.501 1042.36 505.268 958.292 444.601 919.725C430.301 910.625 410.801 913.659 398.234 918.859C369.634 930.992 263.901 994.259 261.734 1017.23Z" fill="#444444"/>
</mask>
<g mask="url(#mask1_426_5438)">
<path d="M270.406 1020.26C319.806 977.36 321.106 1008.56 399.106 983.86C433.773 973.027 471.906 939.227 522.606 935.327C561.606 932.293 604.506 957.86 652.606 963.06C692.473 967.393 739.706 950.493 785.639 962.193C824.639 972.16 858.439 1009.43 902.639 1026.33" stroke="#CD625B" stroke-width="17.9715" stroke-miterlimit="10" stroke-linecap="round" stroke-linejoin="round"/>
<path d="M271.703 1069.66C327.603 1033.26 324.57 1065.33 405.17 1044.09C441.136 1034.56 481.003 1001.19 532.136 997.726C572.003 994.693 616.203 1020.69 664.736 1024.59C705.47 1028.06 753.136 1008.56 799.936 1018.96C840.67 1027.63 876.203 1064.46 921.27 1079.63" stroke="#CD625B" stroke-width="17.9715" stroke-miterlimit="10" stroke-linecap="round" stroke-linejoin="round"/>
<path d="M272.562 1119.06C333.662 1089.59 327.162 1121.66 410.362 1104.33C447.629 1096.53 489.229 1063.16 540.796 1059.69C581.962 1057.09 627.029 1083.09 676.429 1086.13C718.462 1088.73 766.562 1067.49 814.229 1075.73C856.262 1083.09 894.396 1119.06 940.329 1132.06" stroke="#CD625B" stroke-width="17.9715" stroke-miterlimit="10" stroke-linecap="round" stroke-linejoin="round"/>
<path d="M273.879 1168.89C338.879 1145.93 329.779 1177.99 415.146 1164.13C453.712 1157.63 497.045 1125.13 549.479 1121.66C591.945 1119.06 638.312 1145.93 688.145 1147.66C731.479 1149.39 780.012 1125.99 828.112 1132.49C871.879 1138.56 912.179 1173.66 958.979 1184.49" stroke="#CD625B" stroke-width="17.9715" stroke-miterlimit="10" stroke-linecap="round" stroke-linejoin="round"/>
<path d="M275.18 1218.73C343.646 1202.26 332.38 1233.89 419.48 1223.06C459.346 1218.29 504.846 1185.79 557.713 1183.19C601.046 1181.03 649.146 1208.33 699.413 1209.63C744.48 1210.49 793.013 1185.36 841.98 1190.13C887.48 1194.46 930.38 1228.69 978.046 1237.36" stroke="#CD625B" stroke-width="17.9715" stroke-miterlimit="10" stroke-linecap="round" stroke-linejoin="round"/>
<path d="M276.477 1268.56C347.977 1257.73 334.543 1288.93 423.377 1281.99C464.543 1278.53 511.777 1246.89 565.943 1244.73C610.576 1242.99 659.543 1271.16 710.676 1271.59C757.043 1272.03 806.443 1244.73 856.276 1247.76C903.51 1250.79 949.01 1283.73 997.543 1289.36" stroke="#CD625B" stroke-width="17.9715" stroke-miterlimit="10" stroke-linecap="round" stroke-linejoin="round"/>
<path d="M277.336 1318.83C351.003 1313.63 335.836 1343.96 426.836 1340.49C469.303 1338.76 518.703 1307.56 573.736 1306.26C620.103 1305.39 669.936 1334.43 721.936 1334.43C769.603 1334.43 819.869 1305.39 870.136 1306.69C919.102 1307.99 967.203 1339.63 1016.6 1342.66" stroke="#CD625B" stroke-width="17.9715" stroke-miterlimit="10" stroke-linecap="round" stroke-linejoin="round"/>
</g>
<path d="M699.711 590.249C699.711 590.682 699.711 591.115 699.711 591.115L699.278 603.249C698.845 613.649 690.178 621.449 679.778 621.015C669.378 620.582 661.578 611.482 662.445 601.515L662.878 589.382C662.878 587.215 663.745 584.615 664.611 582.882L699.278 584.615C699.278 586.349 699.711 588.082 699.711 590.249Z" fill="#423232"/>
<path d="M880.845 599.782L880.411 611.049C879.978 620.582 871.745 627.949 862.211 627.515C852.678 627.082 845.311 618.849 845.745 609.315L846.178 598.049C846.178 595.882 846.611 593.715 847.478 591.982L879.978 593.282C880.845 595.449 880.845 597.615 880.845 599.782Z" fill="#423232"/>
<path d="M743.05 530.882C752.584 532.182 759.95 522.216 756.484 512.682C754.75 507.482 751.717 502.716 746.95 499.682C732.217 490.582 677.184 489.716 648.15 510.516C622.584 529.582 699.717 524.816 743.05 530.882Z" fill="#423232"/>
<path d="M863.063 535.648C855.263 535.648 850.497 525.682 854.397 517.448C856.563 513.115 859.596 509.215 863.93 507.049C877.363 500.549 913.33 504.449 929.363 526.549C943.663 546.049 899.03 535.215 863.063 535.648Z" fill="#423232"/>
<path d="M727.875 585.482L698.842 584.182L664.175 582.882L656.375 582.449" stroke="#423232" stroke-width="13.4786" stroke-miterlimit="10" stroke-linecap="round" stroke-linejoin="round"/>
<path d="M899.05 594.149L879.984 593.282L847.484 591.982H846.184" stroke="#423232" stroke-width="13.4786" stroke-miterlimit="10" stroke-linecap="round" stroke-linejoin="round"/>
<path d="M816.926 774.866C805.693 779.808 800.302 769.923 782.78 778.46C770.2 784.301 763.46 786.098 748.185 777.112C738.3 770.822 726.17 779.808 714.488 762.735" stroke="#423232" stroke-width="13.4786" stroke-miterlimit="10" stroke-linecap="round" stroke-linejoin="round"/>
<path d="M947.241 445.323C945.941 438.823 944.208 431.89 942.041 425.39C939.874 418.89 934.674 413.257 927.741 411.957C905.208 408.057 883.541 369.057 852.341 364.723C753.108 351.29 686.808 359.523 593.641 395.923C497.441 433.19 600.574 567.957 531.674 612.157C528.208 600.023 511.308 550.623 455.841 557.557C403.408 564.057 383.474 685.39 491.808 726.99C444.574 804.123 448.041 773.357 413.374 731.757C378.708 690.157 309.374 582.257 356.174 424.523C402.974 266.79 614.874 184.457 812.041 264.623C845.841 278.49 866.207 312.723 895.674 318.357C1169.97 370.79 953.741 476.523 947.241 445.323Z" fill="#423232"/>
<path d="M680.744 363.424C680.744 363.424 643.911 352.59 621.811 410.224C599.711 467.857 522.577 547.157 458.444 454.857C394.311 362.99 490.511 289.324 590.611 319.224C690.711 349.124 679.444 326.59 680.744 363.424Z" fill="#423232"/>
<path d="M744.439 321.39C744.439 321.39 841.939 383.356 906.072 359.09C946.372 343.923 991.872 288.023 960.239 246.423C922.539 196.59 805.972 234.29 740.972 213.49C643.472 182.29 492.239 161.49 421.172 278.49C403.406 307.956 387.372 337.856 362.239 361.256C336.239 385.523 310.239 424.956 308.072 486.49C304.172 609.123 400.372 715.723 400.372 715.723C400.372 715.723 343.172 505.99 451.072 474.79C558.972 443.59 588.872 335.69 660.372 335.69C731.872 335.69 698.506 255.09 744.439 321.39Z" fill="#423232"/>
<path d="M839.346 376.423C839.346 376.423 917.779 474.356 976.712 468.723C1035.65 463.09 1101.95 336.556 939.879 293.223C777.812 249.89 839.346 376.423 839.346 376.423Z" fill="#423232"/>
<path d="M680.751 363.423C680.751 363.423 732.317 490.823 869.251 505.99C1006.62 521.59 1062.08 270.257 852.351 246.423C642.617 222.59 680.751 363.423 680.751 363.423Z" fill="#423232"/>
<path d="M571.122 303.623C571.122 303.623 603.189 449.223 670.789 455.723C738.389 462.223 720.189 274.157 631.789 261.157C543.389 248.157 571.122 303.623 571.122 303.623Z" fill="#423232"/>
<path d="M877.823 658.314C866.123 644.014 850.956 634.047 832.756 633.614C813.689 633.18 783.789 637.514 753.889 661.347C714.889 692.547 636.889 687.78 606.123 684.747C597.456 683.88 589.223 688.214 585.323 696.014C576.656 713.347 564.956 749.314 570.589 807.38C577.956 886.68 642.523 958.614 733.523 952.547C853.123 945.18 922.889 848.98 927.223 720.28C926.356 684.747 905.123 692.114 877.823 658.314Z" fill="white"/>
<path d="M717.922 684.748C717.922 684.748 900.355 767.081 915.955 707.281" stroke="#EDF3F4" stroke-width="13.4786" stroke-miterlimit="10" stroke-linecap="round" stroke-linejoin="round"/>
<path d="M644.246 743.681C644.246 743.681 828.413 848.981 911.179 791.781" stroke="#EDF3F4" stroke-width="13.4786" stroke-miterlimit="10" stroke-linecap="round" stroke-linejoin="round"/>
<path d="M637.754 818.214C637.754 818.214 732.654 903.581 869.154 872.814" stroke="#EDF3F4" stroke-width="13.4786" stroke-miterlimit="10" stroke-linecap="round" stroke-linejoin="round"/>
<path d="M662.876 692.113C662.876 692.113 644.676 717.247 637.31 783.547C628.643 863.28 666.343 929.58 666.343 929.58" stroke="#EDF3F4" stroke-width="13.4786" stroke-miterlimit="10" stroke-linecap="round" stroke-linejoin="round"/>
<path d="M602.644 695.581C602.644 695.581 552.811 660.914 517.711 601.114" stroke="white" stroke-width="13.4786" stroke-miterlimit="10" stroke-linecap="round" stroke-linejoin="round"/>
<path d="M492.156 735.881C502.123 768.381 526.823 821.248 589.223 868.915" stroke="white" stroke-width="13.4786" stroke-miterlimit="10" stroke-linecap="round" stroke-linejoin="round"/>
</g>
</svg>
