<svg width="1300" height="1300" viewBox="0 0 1300 1300" fill="none" xmlns="http://www.w3.org/2000/svg">
<path d="M650 1300C290.71 1300 0 1008.86 0 650C0 290.71 291.141 0 650 0C1009.29 0 1300 291.141 1300 650C1300.43 1009.29 1009.29 1300 650 1300Z" fill="#F5EB9F"/>
<mask id="mask0_426_5164" style="mask-type:alpha" maskUnits="userSpaceOnUse" x="0" y="0" width="1300" height="1300">
<path d="M650 1300C290.71 1300 0 1008.86 0 650C0 290.71 291.141 0 650 0C1009.29 0 1300 291.141 1300 650C1300.43 1009.29 1009.29 1300 650 1300Z" fill="#F7C0B5"/>
</mask>
<g mask="url(#mask0_426_5164)">
<path d="M1012.26 1197.33C1009.22 1199.5 1005.76 1201.66 1002.72 1203.83C999.256 1206 996.223 1208.16 992.756 1209.9C989.723 1211.63 987.123 1213.36 984.09 1215.1C983.656 1215.53 983.223 1215.53 982.79 1215.96C972.823 1222.03 962.423 1227.66 952.023 1232.86C948.99 1234.6 945.523 1236.33 942.49 1237.63C942.49 1237.63 942.056 1238.06 941.623 1238.06C938.156 1239.8 934.69 1241.53 931.223 1243.26C924.29 1246.73 916.923 1249.76 909.99 1252.8C906.523 1254.53 902.623 1255.83 899.156 1257.13C895.69 1258.43 891.79 1260.16 888.323 1261.46C884.856 1262.76 880.956 1264.5 877.49 1265.8C877.49 1265.8 877.49 1265.8 877.056 1265.8C873.59 1267.1 869.69 1268.4 866.223 1269.7C858.423 1272.3 850.19 1274.9 842.39 1277.5C839.79 1278.36 836.756 1279.23 834.156 1280.1C825.923 1282.7 817.69 1284.86 809.456 1286.6C806.423 1287.46 803.39 1287.9 799.923 1288.76C792.123 1290.5 783.89 1292.23 776.09 1293.96C774.356 1294.4 773.056 1294.4 771.323 1294.83C768.723 1295.26 765.69 1295.7 763.09 1296.13C759.19 1296.56 755.723 1297.43 751.823 1297.86C750.09 1298.3 748.357 1298.3 746.623 1298.73C744.457 1299.16 741.856 1299.6 739.256 1299.6C732.323 1300.46 724.956 1301.33 718.023 1302.2C715.856 1302.63 713.257 1302.63 711.09 1303.06H710.657C707.623 1303.5 704.59 1303.5 701.556 1303.93C698.523 1304.36 695.49 1304.36 692.457 1304.36C690.723 1304.36 688.557 1304.8 686.823 1304.8C683.357 1304.8 680.323 1305.23 677.29 1305.23C672.957 1305.23 669.057 1305.66 664.723 1305.66C660.39 1305.66 656.49 1305.66 652.157 1305.66C649.123 1305.66 646.09 1305.66 643.057 1305.66C460.623 1303.06 295.957 1225.5 178.957 1102.43C178.957 1102.43 178.957 1102 178.523 1102C191.957 1075.56 241.79 1027.9 293.79 988.465C359.657 938.631 452.823 907.865 452.823 907.865C452.823 907.865 513.923 897.898 740.556 945.131C913.456 981.531 987.123 1129.3 1012.26 1197.33Z" fill="#C99589"/>
<path d="M788.66 1065.16C779.56 1109.8 720.627 1136.23 621.393 1096.36C499.627 1046.96 452.827 907.864 452.827 907.864C446.327 808.198 431.16 722.831 431.16 722.831C571.993 710.698 738.393 875.364 738.393 875.364L757.46 956.831C759.193 963.764 762.66 969.831 767.86 974.164C776.96 989.764 794.727 1036.56 788.66 1065.16Z" fill="#C99589"/>
<path d="M767.855 974.598C685.088 970.264 623.988 958.131 558.555 840.698C614.021 889.665 679.455 908.298 748.355 916.964L757.455 956.831C759.188 964.198 762.655 970.264 767.855 974.598Z" fill="#A56663"/>
<path d="M939.016 452.432C946.816 488.832 950.716 518.298 929.483 615.365C908.25 712.431 948.983 809.498 846.716 898.331C777.816 958.131 657.35 969.398 561.15 903.965C528.65 881.865 498.75 851.098 474.483 810.798C455.416 779.165 433.316 749.265 408.616 721.965C374.383 684.698 333.217 609.731 353.583 477.132C386.517 261.332 600.15 236.632 726.25 260.465C852.35 284.298 917.783 356.232 939.016 452.432Z" fill="#C99589"/>
<path d="M524.326 621.865C524.326 621.865 510.893 556.865 447.626 564.665C393.026 571.598 373.96 702.465 497.893 738.865" fill="#C99589"/>
<path d="M493.99 679.498C493.99 679.498 478.39 669.532 480.123 652.198C482.723 631.832 480.123 619.265 470.59 615.365C446.756 605.398 441.99 633.132 442.856 636.598" stroke="#423232" stroke-width="13.4786" stroke-miterlimit="10" stroke-linecap="round" stroke-linejoin="round"/>
<path d="M824.626 721.531C824.626 721.531 841.092 722.398 856.692 703.765C865.359 693.365 872.726 680.365 867.959 676.465C863.192 672.131 784.759 684.265 779.559 694.665C774.359 705.065 804.692 721.531 824.626 721.531Z" fill="#A56663"/>
<path d="M837.618 575.932C837.618 575.932 838.485 617.098 864.918 663.032C876.618 683.398 858.852 716.765 820.285 722.398" stroke="#423232" stroke-width="13.4786" stroke-miterlimit="10" stroke-linecap="round" stroke-linejoin="round"/>
<path d="M389.891 829.4C389.891 829.4 430.191 819.866 447.091 818.566L452.291 865.8C452.724 865.366 390.324 841.533 389.891 829.4Z" fill="#544646"/>
<path d="M1158.62 1465.1H63.1562C63.1562 1465.1 69.6562 1264.03 135.523 1120.6C199.656 981.933 374.289 921.7 454.889 900.9C454.889 903.067 455.323 904.8 455.323 906.966C455.323 906.966 502.123 1046.07 623.889 1095.47C723.123 1135.77 782.056 1108.9 791.156 1064.27C796.789 1035.67 779.023 988.866 769.923 973.7C764.723 969.366 761.256 962.866 759.523 956.366L756.056 942.066C766.889 939.9 777.289 936.866 787.256 932.966C843.156 947.7 927.223 982.8 1026.46 1066C1138.69 1159.6 1158.62 1465.1 1158.62 1465.1Z" fill="#544646"/>
<path d="M277.656 1465.1L258.156 1304.33" stroke="white" stroke-width="13.4786" stroke-miterlimit="10" stroke-linecap="round" stroke-linejoin="round"/>
<path d="M1034.26 1249.73C1034.26 1249.73 1021.26 1281.37 1025.16 1313C1029.06 1344.63 1040.33 1391 1024.3 1465.1" stroke="white" stroke-width="13.4786" stroke-miterlimit="10" stroke-linecap="round" stroke-linejoin="round"/>
<path d="M590.507 1176.07C350.874 1106.73 290.641 965.9 290.641 965.9C290.641 965.9 328.341 942.5 346.107 918.233C356.941 903.5 454.441 886.6 454.441 886.6C456.174 905.233 454.441 886.6 455.741 906.967C455.741 906.967 502.541 1046.07 624.307 1095.47C723.54 1135.77 782.474 1108.9 791.574 1064.27C797.207 1035.67 779.44 988.867 770.34 973.7C765.14 969.367 761.674 962.867 759.941 956.367L756.474 942.067C781.174 936.867 804.574 927.333 824.94 914.767C825.807 916.067 826.241 917.367 826.674 918.667C835.774 940.767 863.507 960.7 863.507 960.7C921.574 1097.63 834.474 1246.7 590.507 1176.07Z" fill="#544646"/>
<path d="M932.418 997.966C932.418 997.966 952.351 988.433 972.285 990.6C992.218 992.766 1087.12 1069.47 1096.22 1085.5C1105.75 1101.53 1105.32 1152.67 1094.05 1159.17C1083.22 1165.23 1076.28 1151.37 1076.28 1151.37C1076.28 1151.37 1084.52 1104.57 1075.42 1095.9C1066.32 1087.23 978.351 1013.57 975.318 1013.13C972.285 1012.7 955.818 1026.57 955.818 1026.57L932.418 997.966Z" fill="#544646"/>
<path d="M277.653 987.133C277.653 987.133 238.653 970.666 221.753 973.266C204.853 975.866 117.319 1051.27 109.086 1084.63C100.853 1118 128.586 1178.23 128.586 1178.23L148.086 1147.47C148.086 1147.47 134.219 1101.53 138.553 1083.33C142.886 1065.13 212.219 1002.73 219.153 1002.73C226.086 1002.73 267.686 1021.37 267.686 1021.37L277.653 987.133Z" fill="#544646"/>
<path d="M457.914 1011.83C499.514 1091.57 582.714 1197.73 721.814 1247.57C847.047 1292.63 839.247 1141.4 821.047 1050.83C696.247 1078.13 571.014 1080.3 457.914 1011.83Z" fill="#443F3F"/>
<path d="M821.052 1051.27C816.285 1027.43 810.652 1007.93 806.752 997.1C798.085 973.7 785.085 952.9 773.385 937.3C767.752 939.033 762.118 940.333 756.485 941.633L759.952 955.933C761.685 962.866 765.152 968.933 770.352 973.266C771.218 975 772.518 977.166 773.818 979.766C675.452 1017.9 559.318 967.633 559.318 967.633C524.218 965.9 526.818 1000.57 543.285 1041.73C480.885 982.366 455.752 906.966 455.752 906.966C454.885 893.966 454.018 881.4 452.718 868.833C452.718 868.833 420.652 886.6 426.285 926.466C428.885 943.366 438.852 975 458.352 1011.83C571.018 1080.3 696.252 1078.13 821.052 1051.27Z" fill="#E26076"/>
<path d="M389.891 829.4C389.891 829.4 490.857 876.2 572.324 897.866C580.124 900.033 586.191 906.966 587.057 915.2C590.091 944.666 598.324 1013.57 605.257 1040C614.357 1074.23 790.724 1248.43 792.457 1270.53C794.19 1292.63 614.357 1287.43 507.324 1159.17C399.857 1030.9 408.091 1007.5 408.091 1007.5C408.091 1007.5 389.891 884.433 389.891 829.4Z" fill="#544646"/>
<path d="M870.455 875.767L898.188 887.467C906.855 890.933 911.188 900.9 908.155 910C895.588 948.134 864.388 1043.03 863.088 1075.97C861.355 1117.57 775.555 1384.93 775.555 1384.93C775.555 1384.93 723.121 1316.03 761.688 1248C792.021 1194.27 793.755 1079.43 790.721 1064.27C786.821 1044.33 770.355 997.533 761.255 968.067C756.488 952.034 755.621 942.067 755.621 942.067C755.621 942.067 815.421 932.1 870.455 875.767Z" fill="#544646"/>
<path d="M548.051 946.833C554.991 946.833 560.618 940.431 560.618 932.533C560.618 924.635 554.991 918.233 548.051 918.233C541.111 918.233 535.484 924.635 535.484 932.533C535.484 940.431 541.111 946.833 548.051 946.833Z" fill="white"/>
<path d="M748.254 1211.17C716.62 1177.37 628.22 1097.2 601.354 1079.43C585.754 1069.03 568.854 1061.23 551.087 1055.6C438.42 1019.2 401.587 959.833 401.587 959.833L396.82 918.233" stroke="#443F3F" stroke-width="13.4786" stroke-miterlimit="10" stroke-linecap="round" stroke-linejoin="round"/>
<path d="M768.619 1235C768.619 1235 758.219 1286.57 762.552 1311.7C766.886 1336.83 770.352 1411.8 770.352 1411.8" stroke="#443F3F" stroke-width="13.4786" stroke-miterlimit="10" stroke-linecap="round" stroke-linejoin="round"/>
<path d="M888.216 973.7C888.216 973.7 866.983 1048.23 857.016 1077.7C846.616 1107.17 799.383 1166.1 786.383 1194.27" stroke="#443F3F" stroke-width="13.4786" stroke-miterlimit="10" stroke-linecap="round" stroke-linejoin="round"/>
<path d="M831.448 1228.93C839.346 1228.93 845.748 1222.53 845.748 1214.63C845.748 1206.74 839.346 1200.33 831.448 1200.33C823.551 1200.33 817.148 1206.74 817.148 1214.63C817.148 1222.53 823.551 1228.93 831.448 1228.93Z" fill="white"/>
<path d="M683.938 619.439C673.538 619.006 665.738 610.339 666.605 599.939L667.038 587.806C667.471 577.406 676.138 569.606 686.538 570.472C696.938 570.906 704.738 579.572 703.871 589.972L703.438 602.106C703.005 612.072 694.338 619.872 683.938 619.439Z" fill="#423232"/>
<path d="M866.372 625.939C856.838 625.506 849.472 617.272 849.905 607.739L850.338 596.472C850.772 586.939 859.005 579.572 868.538 580.006C878.072 580.439 885.438 588.672 885.005 598.206L884.572 609.472C884.138 619.006 875.905 626.372 866.372 625.939Z" fill="#423232"/>
<path d="M725.983 594.306C725.983 594.306 714.716 578.272 695.216 575.239C679.183 572.639 661.416 580.439 658.816 589.539" stroke="#423232" stroke-width="13.4786" stroke-miterlimit="10" stroke-linecap="round" stroke-linejoin="round"/>
<path d="M853.816 598.206C853.816 598.206 853.816 584.339 873.75 584.339C890.216 584.339 897.15 599.506 897.15 599.506" stroke="#423232" stroke-width="13.4786" stroke-miterlimit="10" stroke-linecap="round" stroke-linejoin="round"/>
<path d="M743.734 524.539C752.834 527.572 761.934 519.339 760.2 509.372C759.334 504.172 757.167 498.972 752.834 495.072C739.834 483.372 686.1 472.972 653.6 488.139C625 502.005 702.134 510.672 743.734 524.539Z" fill="#423232"/>
<path d="M873.303 531.472C865.936 534.072 858.136 526.272 859.436 517.172C859.869 512.406 861.603 507.639 865.069 504.172C875.469 493.772 911.003 485.539 933.536 501.572C953.036 515.006 907.103 518.906 873.303 531.472Z" fill="#423232"/>
<path d="M804.333 777.193C804.783 792.019 782.768 829.759 740.085 812.237C699.2 795.614 687.07 717.438 745.477 754.729C776.028 774.048 794.449 777.193 804.333 777.193Z" fill="white"/>
<path d="M812.872 775.396C812.872 775.396 794.002 785.729 745.479 754.729C687.521 717.438 699.202 795.614 740.087 812.237C782.77 829.759 804.785 791.57 804.335 777.193" stroke="#423232" stroke-width="13.4786" stroke-miterlimit="10" stroke-linecap="round" stroke-linejoin="round"/>
<path d="M705.941 765.961C705.941 765.961 736.493 786.179 745.479 784.382C754.914 783.034 753.566 796.063 796.248 797.411" stroke="#423232" stroke-width="13.4786" stroke-miterlimit="10" stroke-linecap="round" stroke-linejoin="round"/>
<path d="M338.654 486.455C321.321 612.988 378.088 700.088 408.421 736.488C443.088 778.088 446.121 809.722 446.121 809.722C463.888 799.755 486.421 755.122 486.854 731.722C378.521 690.122 398.021 569.222 450.888 562.288C506.354 555.355 523.688 604.755 526.721 616.888C540.588 600.422 539.721 506.822 555.754 448.322C485.988 473.455 412.321 486.889 338.654 486.455Z" fill="#99807F"/>
<path d="M890.723 323.522C863.856 310.522 840.889 283.223 807.089 269.789C609.49 189.623 397.59 271.522 351.223 429.689C345.156 449.622 341.256 468.689 338.656 486.889C412.323 487.322 486.423 473.456 555.756 448.756C562.69 423.622 572.656 404.556 588.689 401.089C672.323 382.889 750.756 373.789 849.989 387.222C886.823 392.422 914.989 375.522 934.056 422.322C937.089 431.422 939.689 440.522 941.856 450.056C948.789 480.822 952.256 506.822 940.556 572.689C948.356 560.122 958.323 533.256 962.656 510.289C976.523 429.256 970.023 361.656 890.723 323.522Z" fill="#423232"/>
<path d="M945.749 468.255C950.083 489.055 976.516 487.322 980.416 466.522C986.049 436.189 988.649 399.789 983.883 358.622C961.349 166.222 770.249 101.222 807.083 229.489C807.083 229.489 756.816 148.889 643.716 144.555C546.649 141.089 605.583 209.989 605.583 209.989C605.583 209.989 486.849 166.655 359.016 231.655C247.65 288.422 350.783 338.255 350.783 338.255C350.783 338.255 266.283 382.889 264.983 479.089C264.116 551.022 496.816 554.055 585.216 501.622C631.149 474.322 652.816 427.089 699.616 399.355C781.516 350.389 802.749 460.889 846.516 420.155C897.649 373.355 934.483 410.622 945.749 468.255Z" fill="#423232"/>
<path opacity="0.6" d="M747.936 670.912C747.936 670.912 707.203 696.478 661.27 696.045C615.336 695.612 609.703 659.645 609.27 640.145C609.27 640.145 615.336 668.312 643.07 678.712C670.37 689.112 747.936 670.912 747.936 670.912Z" fill="#B7AEA9"/>
<path opacity="0.6" d="M878.805 666.145C878.805 666.145 888.771 678.278 902.205 686.945C911.305 693.012 923.438 686.512 923.438 675.678C923.871 675.678 898.305 676.978 878.805 666.145Z" fill="#B7AEA9"/>
<path opacity="0.43" d="M763.959 548.279L636.559 675.679C646.525 681.745 658.659 684.779 670.792 683.045L731.459 675.245C749.659 672.645 766.559 663.545 779.559 648.379C784.759 642.745 787.792 634.945 788.225 626.712L790.392 583.812C791.259 565.179 779.558 549.579 763.959 548.279Z" fill="#FE9DAB"/>
<path opacity="0.3" d="M763.963 548.279L642.196 537.012C621.829 535.279 604.496 553.912 604.496 577.312V614.145C604.496 641.012 617.496 663.979 636.563 675.679L763.963 548.279Z" fill="#FE9DAB"/>
<path opacity="0.3" d="M941.631 543.945L865.364 553.912C855.397 555.212 848.031 569.512 848.897 585.978L850.197 624.545C850.631 631.912 852.364 638.845 855.397 644.045C860.597 652.712 867.097 659.212 874.031 663.545L964.597 572.978C962.864 555.645 952.897 542.645 941.631 543.945Z" fill="#FE9DAB"/>
<path opacity="0.43" d="M874.469 663.979C878.369 666.145 881.835 667.879 886.169 668.745L923.869 676.112C945.969 680.445 965.469 651.412 965.469 613.712V580.779C965.469 578.179 965.469 576.012 965.035 573.845L874.469 663.979Z" fill="#FE9DAB"/>
<path d="M763.963 548.279L642.196 537.012C621.829 535.279 604.496 553.912 604.496 577.312V614.145C604.496 655.745 635.696 687.812 670.796 683.045L731.463 675.245C749.663 672.645 766.563 663.545 779.563 648.379C784.763 642.745 787.796 634.945 788.229 626.712L790.396 583.812C791.263 565.179 779.563 549.579 763.963 548.279Z" stroke="white" stroke-width="14.5456" stroke-miterlimit="10" stroke-linecap="round" stroke-linejoin="round"/>
<path d="M865.803 554.345L942.07 544.378C954.637 542.645 965.47 559.545 965.47 580.778V613.711C965.47 650.978 945.97 680.011 923.87 676.111L886.17 668.745C874.903 666.578 864.07 657.911 856.27 644.478C853.237 639.278 851.07 632.345 851.07 624.978L849.77 586.411C848.47 569.945 855.837 555.645 865.803 554.345Z" stroke="white" stroke-width="14.5456" stroke-miterlimit="10" stroke-linecap="round" stroke-linejoin="round"/>
<path d="M604.506 581.645L504.406 579.478" stroke="white" stroke-width="13.4786" stroke-miterlimit="10" stroke-linecap="round" stroke-linejoin="round"/>
<path d="M790.406 584.678C790.406 584.678 842.84 574.278 849.34 584.678" stroke="white" stroke-width="14.5456" stroke-miterlimit="10" stroke-linecap="round" stroke-linejoin="round"/>
</g>
</svg>
