<svg width="1300" height="1300" viewBox="0 0 1300 1300" fill="none" xmlns="http://www.w3.org/2000/svg">
<path d="M650 1300C290.71 1300 0 1008.86 0 650C0 290.71 291.141 0 650 0C1009.29 0 1300 291.141 1300 650C1300.43 1009.29 1009.29 1300 650 1300Z" fill="#B9EF8E"/>
<mask id="mask0_422_4206" style="mask-type:alpha" maskUnits="userSpaceOnUse" x="0" y="0" width="1300" height="1300">
<path d="M650 1300C290.71 1300 0 1008.86 0 650C0 290.71 291.141 0 650 0C1009.29 0 1300 291.141 1300 650C1300.43 1009.29 1009.29 1300 650 1300Z" fill="#F7C0B5"/>
</mask>
<g mask="url(#mask0_422_4206)">
<path d="M1012.27 1197.33C1009.23 1199.5 1005.77 1201.67 1002.73 1203.83C999.266 1206 996.233 1208.17 992.766 1209.9C989.733 1211.63 987.133 1213.37 984.099 1215.1C983.666 1215.53 983.233 1215.53 982.799 1215.97C972.833 1222.03 962.433 1227.67 952.033 1232.87C948.999 1234.6 945.533 1236.33 942.499 1237.63C942.499 1237.63 942.066 1238.07 941.633 1238.07C938.166 1239.8 934.699 1241.53 931.233 1243.27C924.299 1246.73 916.933 1249.77 910 1252.8C906.533 1254.53 902.633 1255.83 899.166 1257.13C895.7 1258.43 891.8 1260.17 888.333 1261.47C884.866 1262.77 880.966 1264.5 877.5 1265.8C877.5 1265.8 877.499 1265.8 877.066 1265.8C873.599 1267.1 869.7 1268.4 866.233 1269.7C858.433 1272.3 850.2 1274.9 842.4 1277.5C839.8 1278.37 836.766 1279.23 834.166 1280.1C825.933 1282.7 817.7 1284.87 809.466 1286.6C806.433 1287.47 803.4 1287.9 799.933 1288.77C792.133 1290.5 783.9 1292.23 776.1 1293.97C774.366 1294.4 773.066 1294.4 771.333 1294.83C768.733 1295.27 765.7 1295.7 763.1 1296.13C759.2 1296.57 755.733 1297.43 751.833 1297.87C750.1 1298.3 748.366 1298.3 746.633 1298.73C744.466 1299.17 741.866 1299.6 739.266 1299.6C732.333 1300.47 724.966 1301.33 718.033 1302.2C715.866 1302.63 713.266 1302.63 711.1 1303.07H710.666C707.633 1303.5 704.6 1303.5 701.566 1303.93C698.533 1304.37 695.5 1304.37 692.466 1304.37C690.733 1304.37 688.566 1304.8 686.833 1304.8C683.366 1304.8 680.333 1305.23 677.3 1305.23C672.966 1305.23 669.066 1305.67 664.733 1305.67C660.4 1305.67 656.5 1305.67 652.166 1305.67C649.133 1305.67 646.1 1305.67 643.066 1305.67C460.633 1303.07 295.966 1225.5 178.967 1102.43C178.967 1102.43 178.967 1102 178.533 1102C191.967 1075.57 241.8 1027.9 293.8 988.466C359.666 938.632 452.833 907.866 452.833 907.866C452.833 907.866 513.933 897.899 740.566 945.132C913.466 981.532 987.133 1129.3 1012.27 1197.33Z" fill="#C99589"/>
<path d="M788.668 1065.17C779.568 1109.8 720.635 1136.23 621.401 1096.37C499.635 1046.97 452.835 907.865 452.835 907.865C446.335 808.199 431.168 722.832 431.168 722.832C572.001 710.699 738.401 875.365 738.401 875.365L757.468 956.832C759.201 963.765 762.668 969.832 767.868 974.165C776.968 989.765 794.734 1036.57 788.668 1065.17Z" fill="#C99589"/>
<path d="M767.866 974.598C685.1 970.265 624 958.132 558.566 840.698C614.033 889.665 679.466 908.298 748.366 916.965L757.466 956.832C759.2 964.198 762.666 970.265 767.866 974.598Z" fill="#A56663"/>
<path d="M939.034 452.432C946.834 488.832 950.734 518.299 929.501 615.366C908.267 712.432 949 809.499 846.734 898.332C777.834 958.132 657.367 969.399 561.167 903.966C528.667 881.866 498.767 851.099 474.501 810.799C455.434 779.166 433.334 749.266 408.634 721.966C374.401 684.699 333.234 609.732 353.601 477.132C386.534 261.332 600.167 236.632 726.267 260.466C852.367 284.299 917.801 356.232 939.034 452.432Z" fill="#C99589"/>
<path d="M524.338 621.867C524.338 621.867 510.905 556.867 447.638 564.667C393.038 571.6 373.971 702.467 497.905 738.867" fill="#C99589"/>
<path d="M493.997 679.5C493.997 679.5 478.397 669.533 480.131 652.2C482.731 631.833 480.131 619.266 470.597 615.366C446.764 605.4 441.997 633.133 442.864 636.6" stroke="#423232" stroke-width="13.4786" stroke-miterlimit="10" stroke-linecap="round" stroke-linejoin="round"/>
<path d="M824.637 721.533C824.637 721.533 841.104 722.399 856.704 703.766C865.371 693.366 872.737 680.366 867.971 676.466C863.204 672.133 784.771 684.266 779.571 694.666C774.371 705.066 804.704 721.533 824.637 721.533Z" fill="#A56663"/>
<path d="M837.634 575.931C837.634 575.931 838.501 617.098 864.934 663.031C876.634 683.398 858.867 716.765 820.301 722.398" stroke="#423232" stroke-width="13.4786" stroke-miterlimit="10" stroke-linecap="round" stroke-linejoin="round"/>
<path d="M496.384 947.754C496.384 947.754 487.717 894.021 472.984 897.054C404.517 912.654 204.751 970.721 134.984 1121.52C69.1174 1264.95 63.0508 1466.02 63.0508 1466.02H1158.95C1158.95 1466.02 1139.02 1160.52 1027.22 1066.92C960.917 1011.02 901.117 976.787 852.151 955.987C787.151 928.254 721.717 986.321 703.084 985.021C669.717 983.287 496.384 947.754 496.384 947.754Z" fill="#544D4D"/>
<path d="M277.551 1466.02L258.051 1305.25" stroke="white" stroke-width="13.4786" stroke-miterlimit="10" stroke-linecap="round" stroke-linejoin="round"/>
<path d="M1034.15 1250.65C1034.15 1250.65 1021.15 1282.29 1025.05 1313.92C1028.95 1345.55 1040.21 1391.92 1024.18 1466.02" stroke="white" stroke-width="13.4786" stroke-miterlimit="10" stroke-linecap="round" stroke-linejoin="round"/>
<path d="M446.547 853.288C446.547 853.288 415.347 864.554 409.714 870.621C404.081 876.688 401.481 880.588 401.481 880.588C401.481 880.588 385.881 897.921 377.214 939.954C373.314 957.721 382.414 986.754 375.481 1009.72C355.547 1073.42 450.014 1171.35 606.014 1228.99C724.314 1272.75 854.747 1232.89 872.947 1150.55C890.281 1071.25 879.881 1035.29 871.647 1009.72C855.181 960.321 849.981 946.454 827.881 927.388C814.014 915.254 804.481 940.388 752.481 954.688C736.447 959.021 716.947 962.488 691.814 963.354C542.314 968.988 479.047 884.054 456.514 859.788C450.881 855.021 448.281 852.421 446.547 853.288Z" fill="white"/>
<path d="M751.187 954.255C735.154 958.589 715.654 962.055 690.521 962.922C541.021 968.555 477.754 883.622 455.221 859.355" stroke="#CCCCCC" stroke-width="13.4786" stroke-miterlimit="10" stroke-linecap="round" stroke-linejoin="round"/>
<path d="M830.485 911.789C869.918 944.722 938.385 1030.96 921.918 1223.79C913.685 1319.12 960.051 1358.56 949.651 1373.72C947.918 1376.32 945.751 1377.62 944.018 1378.06C936.651 1379.79 929.718 1383.26 926.252 1390.19C924.952 1393.22 922.785 1395.39 919.752 1397.12C917.152 1398.86 914.118 1398.86 911.518 1398.42C902.418 1396.26 892.452 1401.46 886.818 1409.26C884.652 1412.29 882.052 1414.46 878.152 1415.32C875.552 1416.19 872.951 1415.76 871.218 1415.32C863.851 1413.16 855.618 1415.32 849.118 1420.52C847.385 1421.82 845.652 1422.69 843.485 1422.69C839.585 1422.69 836.551 1420.96 833.951 1418.36C827.885 1412.72 819.218 1410.56 810.551 1413.59C809.685 1414.02 809.251 1414.02 808.385 1414.02C802.318 1414.89 797.552 1410.12 794.085 1401.89C790.618 1394.09 782.385 1390.62 773.718 1391.49C771.985 1391.49 770.252 1391.49 768.085 1391.06C751.185 1387.16 729.518 1363.76 729.085 1335.16C728.652 1306.99 735.152 1258.02 745.985 1235.06C779.352 1164.42 791.485 1113.72 793.218 1075.59C796.685 1005.82 752.485 943.422 756.818 942.122C801.018 933.022 830.485 911.789 830.485 911.789Z" fill="white"/>
<path d="M745.553 1235.05C778.919 1164.42 791.053 1113.72 792.786 1075.59C795.386 1021.85 769.386 972.021 759.853 951.654" stroke="#CCCCCC" stroke-width="13.4786" stroke-miterlimit="10" stroke-linecap="round" stroke-linejoin="round"/>
<path d="M728.647 1335.15C728.214 1306.99 734.714 1258.02 745.547 1235.05C778.914 1164.42 791.047 1113.72 792.781 1075.59" stroke="#CCCCCC" stroke-width="13.4786" stroke-miterlimit="10" stroke-linecap="round" stroke-linejoin="round"/>
<path d="M767.214 1183.92C767.214 1183.92 635.481 1196.92 548.814 1131.49" stroke="#CCCCCC" stroke-width="13.4786" stroke-miterlimit="10" stroke-linecap="round" stroke-linejoin="round"/>
<path d="M802.75 955.555C814.883 973.322 828.75 999.322 832.217 1031.39" stroke="#CCCCCC" stroke-width="13.4786" stroke-miterlimit="10" stroke-linecap="round" stroke-linejoin="round"/>
<path d="M857.781 1415.32C857.781 1415.32 835.681 1368.52 857.781 1266.69C881.181 1158.35 870.348 1105.05 870.348 1105.05" stroke="#CCCCCC" stroke-width="13.4786" stroke-miterlimit="10" stroke-linecap="round" stroke-linejoin="round"/>
<path d="M376.35 961.621C376.35 961.621 405.383 1021.42 440.483 1049.15" stroke="#CCCCCC" stroke-width="13.4786" stroke-miterlimit="10" stroke-linecap="round" stroke-linejoin="round"/>
<path d="M789.322 1105.05C789.322 1105.05 706.989 1110.69 648.922 1088.15" stroke="#CCCCCC" stroke-width="13.4786" stroke-miterlimit="10" stroke-linecap="round" stroke-linejoin="round"/>
<path d="M683.946 619.44C673.546 619.006 665.746 610.34 666.613 599.94L667.046 587.806C667.479 577.406 676.146 569.606 686.546 570.473C696.946 570.906 704.746 579.573 703.879 589.973L703.446 602.106C703.013 612.073 694.346 619.873 683.946 619.44Z" fill="#423232"/>
<path d="M866.379 625.939C856.846 625.506 849.479 617.272 849.913 607.739L850.346 596.472C850.779 586.939 859.013 579.572 868.546 580.006C878.079 580.439 885.446 588.672 885.013 598.206L884.579 609.472C884.146 619.006 875.913 626.372 866.379 625.939Z" fill="#423232"/>
<path d="M725.973 594.305C725.973 594.305 714.707 578.271 695.207 575.238C679.173 572.638 661.407 580.438 658.807 589.538" stroke="#423232" stroke-width="13.4786" stroke-miterlimit="10" stroke-linecap="round" stroke-linejoin="round"/>
<path d="M853.807 598.207C853.807 598.207 853.807 584.34 873.74 584.34C890.207 584.34 897.14 599.507 897.14 599.507" stroke="#423232" stroke-width="13.4786" stroke-miterlimit="10" stroke-linecap="round" stroke-linejoin="round"/>
<path d="M743.742 524.54C752.842 527.573 761.942 519.34 760.208 509.373C759.342 504.173 757.175 498.973 752.842 495.073C739.842 483.373 686.108 472.973 653.608 488.14C625.008 502.007 702.142 510.673 743.742 524.54Z" fill="#423232"/>
<path d="M873.31 531.473C865.944 534.073 858.144 526.273 859.444 517.173C859.877 512.406 861.61 507.64 865.077 504.173C875.477 493.773 911.01 485.54 933.544 501.573C953.044 515.006 907.11 518.906 873.31 531.473Z" fill="#423232"/>
<path d="M804.159 772.845C804.609 780.033 799.217 792.613 789.333 801.599C738.564 770.598 715.65 786.772 715.65 786.772C697.679 759.366 701.722 722.075 745.303 750.38C775.854 769.7 794.275 772.845 804.159 772.845Z" fill="#423232"/>
<path d="M789.329 801.6C778.547 811.035 762.372 816.875 740.357 807.89C730.024 803.846 721.936 795.759 715.646 786.773C715.646 786.773 738.56 770.599 789.329 801.6Z" fill="#FE9DAB"/>
<path d="M812.694 771.048C812.694 771.048 793.824 781.381 745.301 750.381C687.343 713.09 699.025 791.266 739.91 807.889C782.592 825.411 804.607 787.222 804.158 772.845" stroke="#423232" stroke-width="13.4786" stroke-miterlimit="10" stroke-linecap="round" stroke-linejoin="round"/>
<path d="M715.646 786.773C715.646 786.773 738.56 770.599 789.329 801.6" stroke="#423232" stroke-width="13.4786" stroke-miterlimit="10" stroke-linecap="round" stroke-linejoin="round"/>
<path d="M1007.78 624.094C987.412 605.461 981.779 578.161 980.046 559.961C993.046 568.628 1009.95 542.195 1009.08 510.995C1007.78 464.628 995.645 430.395 981.345 406.561C991.312 393.995 998.679 379.261 1002.58 362.795C1020.35 290.861 961.846 235.828 876.479 215.028C824.046 202.028 727.846 208.528 614.746 206.795C595.246 206.361 574.879 207.228 554.946 209.395C530.679 211.995 506.846 217.195 484.746 226.295C448.779 239.728 415.846 260.961 390.712 291.728C346.512 346.328 333.946 408.728 331.779 457.261C329.612 514.894 315.746 571.661 288.446 622.795C258.979 677.828 240.779 736.328 269.813 786.594C270.679 787.894 271.546 789.194 272.412 790.928C258.546 859.394 335.679 853.328 350.846 783.994C347.812 796.994 345.646 808.261 344.346 816.061C333.946 884.094 383.346 892.761 408.046 845.528C410.646 840.761 417.146 821.261 424.079 796.561C424.079 800.894 424.512 805.228 424.946 809.128C425.812 904.028 493.412 912.261 489.512 848.128C487.779 819.528 492.546 779.661 499.912 736.328C376.846 699.494 395.912 569.494 450.946 562.561C514.212 554.328 527.646 619.761 527.646 619.761C532.412 640.128 539.346 664.394 549.746 676.094C568.379 696.461 600.446 682.161 579.646 618.028C575.312 604.594 571.412 589.428 568.812 573.394C585.279 577.728 599.579 568.628 592.646 550.428C586.146 533.961 582.679 518.795 581.812 504.495C580.512 482.395 586.146 462.461 595.679 445.995C605.646 485.428 647.246 473.295 649.846 444.695C650.712 435.161 653.746 423.895 658.079 411.328C668.479 424.761 682.779 437.328 700.546 446.428C733.479 462.895 756.879 455.095 762.079 438.195C783.312 445.561 802.379 451.195 817.112 454.661C861.312 465.495 905.079 459.861 939.312 441.661C941.046 445.561 941.912 449.028 942.345 450.328C942.779 452.495 943.212 454.661 943.646 456.828C947.546 475.461 949.712 493.661 947.979 520.961C947.979 522.261 947.979 523.128 947.546 524.428C947.546 525.294 947.546 526.161 947.112 527.028C947.112 529.195 946.679 530.928 946.679 533.094C946.679 534.394 946.246 535.261 946.246 536.561C946.246 538.295 945.812 540.461 945.379 542.628C944.946 544.361 944.945 546.095 944.512 547.828C944.512 549.128 944.079 550.861 944.079 552.161C943.646 554.761 943.212 557.361 942.779 560.394C942.779 560.828 942.779 561.695 942.345 562.128C941.912 565.595 941.046 569.061 940.612 572.961C938.446 585.095 935.846 598.094 932.812 613.261C914.612 697.328 942.779 782.261 883.412 861.128C880.812 884.528 901.179 913.994 926.312 883.228C945.812 859.394 936.712 779.661 935.412 763.628C937.146 780.528 964.012 834.261 989.146 826.461C1003.01 822.128 1009.08 814.761 1006.91 789.194C1004.31 753.228 976.146 717.694 972.246 665.261C998.246 687.361 1035.08 648.794 1007.78 624.094Z" fill="#423232"/>
<path d="M749.233 669.067H648.266C621.833 669.067 600.6 647.834 600.6 621.401V580.234C600.6 553.801 621.833 532.567 648.266 532.567H749.233C775.666 532.567 796.9 553.801 796.9 580.234V621.401C796.9 647.834 775.233 669.067 749.233 669.067Z" stroke="#423232" stroke-width="13.4786" stroke-miterlimit="10" stroke-linecap="round" stroke-linejoin="round"/>
<path d="M923.433 532.567H873.6C856.267 532.567 841.967 546.867 841.967 564.201V601.901C848.033 623.567 856.7 644.367 869.7 663.001C871 663.001 872.3 663.434 873.6 663.434H923.433C940.767 663.434 955.067 649.134 955.067 631.801V564.201C955.5 546.434 941.2 532.567 923.433 532.567Z" stroke="#423232" stroke-width="13.4786" stroke-miterlimit="10" stroke-linecap="round" stroke-linejoin="round"/>
<path d="M796.898 572C811.632 570.267 830.265 568.967 845.865 570.7" stroke="#423232" stroke-width="13.4786" stroke-miterlimit="10" stroke-linecap="round" stroke-linejoin="round"/>
<path d="M600.596 575.034L500.062 578.501" stroke="#423232" stroke-width="13.4786" stroke-miterlimit="10" stroke-linecap="round" stroke-linejoin="round"/>
</g>
</svg>
