<svg width="1300" height="1300" viewBox="0 0 1300 1300" fill="none" xmlns="http://www.w3.org/2000/svg">
<path d="M650 1300C290.71 1300 0 1008.86 0 650C0 290.71 291.141 0 650 0C1009.29 0 1300 291.141 1300 650C1300.43 1009.29 1009.29 1300 650 1300Z" fill="#ED938A"/>
<mask id="mask0_417_2441" style="mask-type:alpha" maskUnits="userSpaceOnUse" x="0" y="0" width="1301" height="1300">
<path d="M650 1300C290.71 1300 0 1008.86 0 650C0 290.71 291.141 0 650 0C1009.29 0 1300 291.141 1300 650C1300.43 1009.29 1009.29 1300 650 1300Z" fill="#F7C0B5"/>
</mask>
<g mask="url(#mask0_417_2441)">
<path d="M1014 1197.33C1010.97 1199.5 1007.5 1201.66 1004.47 1203.83C1001 1206 997.967 1208.16 994.501 1209.9C991.467 1211.63 988.867 1213.36 985.834 1215.1C985.401 1215.53 984.968 1215.53 984.534 1215.96C974.568 1222.03 964.168 1227.66 953.768 1232.86C950.734 1234.6 947.268 1236.33 944.234 1237.63C944.234 1237.63 943.801 1238.06 943.368 1238.06C939.901 1239.8 936.434 1241.53 932.968 1243.26C926.034 1246.73 918.668 1249.76 911.734 1252.8C908.268 1254.53 904.368 1255.83 900.901 1257.13C897.434 1258.43 893.534 1260.16 890.068 1261.46C886.601 1262.76 882.701 1264.5 879.234 1265.8C879.234 1265.8 879.234 1265.8 878.801 1265.8C875.334 1267.1 871.434 1268.4 867.968 1269.7C860.168 1272.3 851.934 1274.9 844.134 1277.5C841.534 1278.36 838.501 1279.23 835.901 1280.1C827.668 1282.7 819.434 1284.86 811.201 1286.6C808.168 1287.46 805.134 1287.9 801.668 1288.76C793.868 1290.5 785.634 1292.23 777.834 1293.96C776.101 1294.4 774.801 1294.4 773.068 1294.83C770.468 1295.26 767.434 1295.7 764.834 1296.13C760.934 1296.56 757.468 1297.43 753.568 1297.86C751.834 1298.3 750.101 1298.3 748.368 1298.73C746.201 1299.16 743.601 1299.6 741.001 1299.6C734.068 1300.46 726.701 1301.33 719.768 1302.2C717.601 1302.63 715.001 1302.63 712.834 1303.06H712.401C709.368 1303.5 706.334 1303.5 703.301 1303.93C700.268 1304.36 697.234 1304.36 694.201 1304.36C692.468 1304.36 690.301 1304.8 688.568 1304.8C685.101 1304.8 682.068 1305.23 679.034 1305.23C674.701 1305.23 670.801 1305.66 666.468 1305.66C662.134 1305.66 658.234 1305.66 653.901 1305.66C650.868 1305.66 647.834 1305.66 644.801 1305.66C462.368 1303.06 297.701 1225.5 180.701 1102.43C180.701 1102.43 180.701 1102 180.268 1102C193.701 1075.56 243.534 1027.9 295.534 988.465C361.401 938.632 454.568 907.865 454.568 907.865C454.568 907.865 515.668 897.898 742.301 945.132C915.201 981.532 988.867 1129.3 1014 1197.33Z" fill="#F7D3B5"/>
<path d="M790.4 1065.16C781.3 1109.8 722.367 1136.23 623.134 1096.36C501.367 1046.96 454.567 907.865 454.567 907.865C448.067 808.198 432.9 722.832 432.9 722.832C573.734 710.698 740.134 875.365 740.134 875.365L759.2 956.832C760.934 963.765 764.4 969.832 769.6 974.165C778.7 989.765 796.467 1036.56 790.4 1065.16Z" fill="#F7D3B5"/>
<path d="M769.602 974.599C686.835 970.265 625.735 958.132 560.302 840.699C615.768 889.665 681.202 908.299 750.102 916.965L759.202 956.832C760.935 964.198 764.402 970.265 769.602 974.599Z" fill="#EFBDA5"/>
<path d="M940.767 452.432C948.567 488.832 952.467 518.298 931.234 615.365C910.001 712.432 950.734 809.498 848.467 898.332C779.567 958.132 659.101 969.398 562.901 903.965C530.401 881.865 500.501 851.098 476.234 810.798C457.167 779.165 435.067 749.265 410.367 721.965C376.134 684.698 334.967 609.732 355.334 477.132C388.267 261.332 601.901 236.632 728.001 260.465C854.101 284.298 919.534 356.232 940.767 452.432Z" fill="#F7D3B5"/>
<path d="M526.068 621.865C526.068 621.865 512.635 556.865 449.368 564.665C394.768 571.598 375.702 702.465 499.635 738.865" fill="#F7D3B5"/>
<path d="M495.736 679.498C495.736 679.498 480.136 669.532 481.869 652.198C484.469 631.832 481.869 619.265 472.336 615.365C448.502 605.398 443.736 633.132 444.602 636.598" stroke="#665858" stroke-width="13" stroke-miterlimit="10" stroke-linecap="round" stroke-linejoin="round"/>
<g filter="url(#filter0_d_417_2441)">
<path d="M826.366 721.532C826.366 721.532 842.832 722.398 858.432 703.765C867.099 693.365 874.466 680.365 869.699 676.465C864.932 672.132 786.499 684.265 781.299 694.665C776.099 705.065 806.432 721.532 826.366 721.532Z" fill="#EFBDA5"/>
<path d="M826.392 721.032L826.392 721.032L826.379 721.032H826.366C816.51 721.032 804.029 716.951 794.657 711.565C789.971 708.872 786.103 705.875 783.733 702.937C781.353 699.985 780.579 697.224 781.746 694.889C782.023 694.335 782.568 693.733 783.4 693.096C784.228 692.463 785.309 691.818 786.618 691.167C789.235 689.865 792.716 688.564 796.783 687.302C804.916 684.778 815.335 682.426 825.751 680.532C836.166 678.638 846.564 677.205 854.649 676.516C858.694 676.172 862.149 676.014 864.733 676.076C866.027 676.107 867.089 676.193 867.892 676.334C868.293 676.404 868.619 676.486 868.872 676.577C869.129 676.67 869.282 676.761 869.363 676.835L869.372 676.844L869.383 676.852C870.397 677.682 870.819 679.03 870.67 680.873C870.521 682.719 869.803 684.973 868.649 687.468C866.345 692.451 862.366 698.263 858.049 703.444C850.31 712.688 842.371 717.079 836.385 719.164C833.39 720.207 830.88 720.673 829.124 720.879C828.246 720.982 827.557 721.02 827.091 721.033C826.857 721.039 826.68 721.039 826.562 721.037C826.503 721.036 826.459 721.035 826.43 721.034L826.399 721.033L826.393 721.032L826.392 721.032Z" stroke="black"/>
</g>
<path d="M839.366 575.932C839.366 575.932 840.232 617.098 866.666 663.032C878.366 683.398 860.599 716.765 822.032 722.398" stroke="#665858" stroke-width="13" stroke-miterlimit="10" stroke-linecap="round" stroke-linejoin="round"/>
<path opacity="0.42" d="M604.5 743.632C629.15 743.632 649.133 727.141 649.133 706.798C649.133 686.456 629.15 669.965 604.5 669.965C579.849 669.965 559.866 686.456 559.866 706.798C559.866 727.141 579.849 743.632 604.5 743.632Z" fill="#F0CFB6"/>
<path opacity="0.42" d="M924.301 670.832C923.001 695.098 923.434 718.932 921.701 742.765C902.634 738.432 888.768 724.132 888.768 707.232C888.768 689.032 903.934 674.298 924.301 670.832Z" fill="#E0C5AC"/>
<path d="M1063.06 1121.12C1000.89 1041 904.572 1007.73 851.596 988.026C847.218 966.136 838.9 942.056 825.765 918.852C805.626 931.11 782.421 940.305 758.342 945.121L761.844 959.568C763.595 966.573 772.352 998.972 758.779 1040.56C747.396 1075.59 701.425 1091.35 623.494 1055.89C471.572 987.151 454.059 909.657 454.059 909.657C451.432 867.627 447.054 828.224 443.114 796.263C395.83 806.771 341.103 828.224 311.331 873.319C274.555 928.484 260.982 984.524 264.485 1029.18C200.564 1069.9 101.617 1131.63 69.219 1241.96C27.1886 1385.56 34.1937 1473.56 34.1937 1473.56H1165.51C1164.2 1474 1147.56 1230.14 1063.06 1121.12Z" fill="#444B8A"/>
<path d="M386.634 977.519C386.634 977.519 413.341 1081.28 530.237 1153.08" stroke="#423232" stroke-width="13.1345" stroke-miterlimit="10" stroke-linecap="round" stroke-linejoin="round"/>
<path d="M851.157 988.027C851.157 988.027 882.242 1122.44 814.381 1184.17" stroke="#423232" stroke-width="13.1345" stroke-miterlimit="10" stroke-linecap="round" stroke-linejoin="round"/>
<path d="M640.128 1163.59C640.128 1163.59 617.362 1230.14 623.491 1276.11" stroke="#423232" stroke-width="13.1345" stroke-miterlimit="10" stroke-linecap="round" stroke-linejoin="round"/>
<path d="M779.792 1159.65C779.792 1159.65 796.867 1196.86 809.126 1255.97" stroke="#423232" stroke-width="13.1345" stroke-miterlimit="10" stroke-linecap="round" stroke-linejoin="round"/>
<path d="M263.609 1029.62C263.609 1029.62 299.51 1175.85 513.165 1218.76" stroke="#423232" stroke-width="13.1345" stroke-miterlimit="10" stroke-linecap="round" stroke-linejoin="round"/>
<path d="M627.432 1286.18L608.168 1284.43C601.163 1283.55 595.909 1276.99 597.223 1269.98L603.79 1237.14C605.541 1227.95 614.297 1221.38 623.492 1222.7C632.686 1223.57 640.129 1231.45 640.129 1241.08L640.566 1274.8C640.566 1281.36 634.437 1287.06 627.432 1286.18Z" fill="white"/>
<path d="M828.392 1266.04L810.003 1272.61C802.998 1275.23 795.556 1270.86 794.242 1263.85L786.361 1231.45C784.172 1222.26 788.988 1213.06 798.183 1209.56C806.939 1206.5 817.009 1210.44 820.949 1218.76L835.397 1248.96C838.462 1255.53 835.397 1263.41 828.392 1266.04Z" fill="white"/>
<path d="M1021.47 1255.97C1021.47 1255.97 1045.98 1393.44 1036.35 1474" stroke="#544D4D" stroke-width="13.1345" stroke-miterlimit="10" stroke-linecap="round" stroke-linejoin="round"/>
<path d="M683.943 619.439C673.543 619.006 665.743 610.339 666.61 599.939L667.043 587.806C667.476 577.406 676.143 569.606 686.543 570.473C696.943 570.906 704.743 579.573 703.876 589.973L703.443 602.106C703.01 612.073 694.343 619.873 683.943 619.439Z" fill="#665858"/>
<path d="M866.374 625.939C856.841 625.506 849.474 617.272 849.908 607.739L850.341 596.472C850.775 586.939 859.008 579.572 868.541 580.006C878.074 580.439 885.441 588.672 885.008 598.206L884.574 609.472C884.141 619.006 875.908 626.372 866.374 625.939Z" fill="#665858"/>
<path d="M725.975 594.306C725.975 594.306 714.709 578.273 695.209 575.239C679.175 572.639 661.409 580.439 658.809 589.539" stroke="#665858" stroke-width="13" stroke-miterlimit="10" stroke-linecap="round" stroke-linejoin="round"/>
<path d="M853.809 598.206C853.809 598.206 853.809 584.339 873.742 584.339C890.209 584.339 897.142 599.506 897.142 599.506" stroke="#665858" stroke-width="13" stroke-miterlimit="10" stroke-linecap="round" stroke-linejoin="round"/>
<path d="M743.743 524.539C752.843 527.573 761.943 519.339 760.209 509.373C759.343 504.173 757.176 498.973 752.843 495.073C739.843 483.373 686.109 472.973 653.609 488.139C625.009 502.006 702.143 510.673 743.743 524.539Z" fill="#665858"/>
<path d="M873.307 531.473C865.94 534.073 858.14 526.273 859.44 517.173C859.873 512.406 861.607 507.639 865.073 504.173C875.473 493.773 911.007 485.539 933.54 501.573C953.04 515.006 907.107 518.906 873.307 531.473Z" fill="#665858"/>
<path d="M800.184 776.042C800.617 790.342 779.384 826.742 738.217 809.842C698.784 793.809 687.084 718.409 743.417 754.375C772.884 773.009 790.65 776.042 800.184 776.042Z" fill="white"/>
<path d="M808.414 774.309C808.414 774.309 790.214 784.275 743.414 754.375C687.514 718.409 698.781 793.809 738.214 809.842C779.381 826.742 800.614 789.909 800.181 776.042" stroke="#EDACA9" stroke-width="13" stroke-miterlimit="10" stroke-linecap="round" stroke-linejoin="round"/>
<path d="M942.819 447.316C941.519 440.816 939.786 433.883 937.619 427.383C935.452 420.883 930.252 415.249 923.319 413.949C900.786 410.049 871.319 433.016 840.119 428.683C740.886 415.249 682.386 361.949 589.219 397.916C493.019 435.183 547.619 590.316 527.252 614.149C523.786 602.016 506.886 552.616 451.419 559.549C398.986 566.049 379.053 687.383 487.386 728.983C486.519 752.816 443.619 775.349 408.952 733.749C374.286 692.149 304.953 584.249 351.753 426.516C398.553 268.783 610.452 186.449 807.619 266.616C841.419 280.483 861.786 314.716 891.252 320.349C1165.12 372.349 976.186 631.483 967.952 701.249C965.786 725.083 949.319 478.516 942.819 447.316Z" fill="#F0E8E0"/>
<path d="M487.821 729.416C487.821 729.416 486.954 764.949 450.554 830.816C450.554 830.816 441.887 794.416 422.821 761.049C404.187 727.683 383.387 713.383 360.421 643.616C337.454 573.849 363.887 605.049 384.687 633.649C405.921 662.683 419.787 733.749 487.821 729.416Z" fill="#F0E8E0"/>
<path d="M870.885 402.25C870.885 402.25 914.218 317.316 757.352 240.616C600.485 163.916 439.718 217.65 343.085 207.25C343.085 207.25 452.285 280.916 563.652 299.983C675.018 319.05 870.885 402.25 870.885 402.25Z" fill="#F0E8E0"/>
<path d="M561.486 250.149C561.486 250.149 350.453 247.983 263.786 474.183C263.786 474.183 349.586 420.449 472.653 409.183C595.719 397.916 615.219 261.416 561.486 250.149Z" fill="#F0E8E0"/>
<path d="M893.417 412.216C893.417 412.216 1026.45 365.416 943.684 253.183C847.917 124.049 539.384 174.316 539.384 174.316C539.384 174.316 650.75 203.783 697.117 268.349C743.05 333.349 857.884 439.949 893.417 412.216Z" fill="#F0E8E0"/>
<path d="M797.22 420.45C797.22 420.45 709.686 373.65 656.386 419.15C589.653 476.35 606.986 757.15 606.986 757.15C606.986 757.15 528.553 615.45 529.853 482.416C531.153 349.383 592.253 316.016 656.386 321.65C720.52 327.283 788.986 399.65 797.22 420.45Z" fill="#F0E8E0"/>
<path d="M847.917 429.549C847.917 429.549 690.618 293.916 682.384 533.549C682.384 533.549 632.551 483.283 672.851 369.316C713.151 255.349 839.251 346.349 847.917 429.549Z" fill="#F0E8E0"/>
<path d="M749.234 669.067H648.267C621.834 669.067 600.601 647.834 600.601 621.4V580.234C600.601 553.8 621.834 532.567 648.267 532.567H749.234C775.667 532.567 796.901 553.8 796.901 580.234V621.4C796.901 647.834 775.234 669.067 749.234 669.067Z" stroke="#F6F6F6" stroke-width="13" stroke-miterlimit="10" stroke-linecap="round" stroke-linejoin="round"/>
<path d="M923.43 532.567H873.597C856.264 532.567 841.964 546.867 841.964 564.2V601.9C848.031 623.567 856.697 644.367 869.697 663C870.997 663 872.297 663.434 873.597 663.434H923.43C940.764 663.434 955.064 649.134 955.064 631.8V564.2C955.497 546.434 941.197 532.567 923.43 532.567Z" stroke="#F2EDF3" stroke-width="13" stroke-miterlimit="10" stroke-linecap="round" stroke-linejoin="round"/>
<path d="M796.899 572C811.633 570.267 830.266 568.967 845.866 570.7" stroke="#F3F2F1" stroke-width="13" stroke-miterlimit="10" stroke-linecap="round" stroke-linejoin="round"/>
<path d="M600.6 575.034L500.066 578.5" stroke="#EFEEEF" stroke-width="13" stroke-miterlimit="10" stroke-linecap="round" stroke-linejoin="round"/>
<path d="M256.214 1021.59V1025.01" stroke="#ED938A" stroke-width="10" stroke-linecap="round"/>
<path d="M259.631 1018.18C259.631 1020 259.631 1025.47 259.631 1023.64C259.631 1021.14 259.631 1018.63 259.631 1016.13" stroke="#ED938A" stroke-width="10" stroke-linecap="round"/>
<path d="M252.114 1028.43C242.152 1028.43 235.138 1036.23 227.359 1041.41C226.446 1042.02 221.885 1044.31 225.233 1044.15C229.469 1043.95 237.099 1042.96 240.496 1039.74C242.884 1037.48 245.325 1035.75 248.165 1034.73C249.595 1034.22 252.11 1033.9 252.797 1032.53" stroke="#ED938A" stroke-width="10" stroke-linecap="round"/>
<path d="M217.942 1054.4H221.359" stroke="#ED938A" stroke-width="10" stroke-linecap="round"/>
<path d="M230.244 1048.25C228.797 1048.25 225.214 1047.62 224.056 1048.59C222.01 1050.29 220.219 1052.59 217.943 1054.06C213.169 1057.13 210.249 1062.2 204.958 1063.97" stroke="#ED938A" stroke-width="10" stroke-linecap="round"/>
</g>
<defs>
<filter id="filter0_d_417_2441" x="776.709" y="675.563" width="98.4902" height="53.975" filterUnits="userSpaceOnUse" color-interpolation-filters="sRGB">
<feFlood flood-opacity="0" result="BackgroundImageFix"/>
<feColorMatrix in="SourceAlpha" type="matrix" values="0 0 0 0 0 0 0 0 0 0 0 0 0 0 0 0 0 0 127 0" result="hardAlpha"/>
<feOffset dy="4"/>
<feGaussianBlur stdDeviation="2"/>
<feComposite in2="hardAlpha" operator="out"/>
<feColorMatrix type="matrix" values="0 0 0 0 0 0 0 0 0 0 0 0 0 0 0 0 0 0 0.25 0"/>
<feBlend mode="normal" in2="BackgroundImageFix" result="effect1_dropShadow_417_2441"/>
<feBlend mode="normal" in="SourceGraphic" in2="effect1_dropShadow_417_2441" result="shape"/>
</filter>
</defs>
</svg>
