<svg width="1300" height="1300" viewBox="0 0 1300 1300" fill="none" xmlns="http://www.w3.org/2000/svg">
<path d="M650 1300C290.71 1300 0 1008.86 0 650C0 290.71 291.141 0 650 0C1009.29 0 1300 291.141 1300 650C1300.43 1009.29 1009.29 1300 650 1300Z" fill="#A0F7EC"/>
<mask id="mask0_425_4257" style="mask-type:alpha" maskUnits="userSpaceOnUse" x="0" y="0" width="1300" height="1300">
<path d="M650 1300C290.71 1300 0 1008.86 0 650C0 290.71 291.141 0 650 0C1009.29 0 1300 291.141 1300 650C1300.43 1009.29 1009.29 1300 650 1300Z" fill="#F7C0B5"/>
</mask>
<g mask="url(#mask0_425_4257)">
<path d="M1013.99 1197.33C1010.96 1199.5 1007.49 1201.66 1004.46 1203.83C1000.99 1206 997.961 1208.16 994.495 1209.9C991.461 1211.63 988.861 1213.36 985.828 1215.1C985.395 1215.53 984.961 1215.53 984.528 1215.96C974.561 1222.03 964.161 1227.66 953.761 1232.86C950.728 1234.6 947.261 1236.33 944.228 1237.63C944.228 1237.63 943.795 1238.06 943.361 1238.06C939.895 1239.8 936.428 1241.53 932.961 1243.26C926.028 1246.73 918.661 1249.76 911.728 1252.8C908.261 1254.53 904.361 1255.83 900.895 1257.13C897.428 1258.43 893.528 1260.16 890.061 1261.46C886.595 1262.76 882.695 1264.5 879.228 1265.8C879.228 1265.8 879.228 1265.8 878.795 1265.8C875.328 1267.1 871.428 1268.4 867.961 1269.7C860.161 1272.3 851.928 1274.9 844.128 1277.5C841.528 1278.36 838.495 1279.23 835.895 1280.1C827.661 1282.7 819.428 1284.86 811.195 1286.6C808.161 1287.46 805.128 1287.9 801.661 1288.76C793.861 1290.5 785.628 1292.23 777.828 1293.96C776.095 1294.4 774.795 1294.4 773.061 1294.83C770.461 1295.26 767.428 1295.7 764.828 1296.13C760.928 1296.56 757.461 1297.43 753.561 1297.86C751.828 1298.3 750.095 1298.3 748.361 1298.73C746.195 1299.16 743.595 1299.6 740.995 1299.6C734.061 1300.46 726.695 1301.33 719.761 1302.2C717.595 1302.63 714.995 1302.63 712.828 1303.06H712.395C709.361 1303.5 706.328 1303.5 703.295 1303.93C700.261 1304.36 697.228 1304.36 694.195 1304.36C692.461 1304.36 690.295 1304.8 688.561 1304.8C685.095 1304.8 682.061 1305.23 679.028 1305.23C674.695 1305.23 670.795 1305.66 666.461 1305.66C662.128 1305.66 658.228 1305.66 653.895 1305.66C650.861 1305.66 647.828 1305.66 644.795 1305.66C462.362 1303.06 297.695 1225.5 180.695 1102.43C180.695 1102.43 180.695 1102 180.262 1102C193.695 1075.56 243.528 1027.9 295.528 988.464C361.395 938.631 454.562 907.865 454.562 907.865C454.562 907.865 515.662 897.898 742.295 945.131C915.195 981.531 988.861 1129.3 1013.99 1197.33Z" fill="#E0BA9B"/>
<path d="M790.398 1065.16C781.298 1109.8 722.365 1136.23 623.132 1096.36C501.365 1046.96 454.565 907.864 454.565 907.864C448.065 808.198 432.898 722.831 432.898 722.831C573.732 710.698 740.132 875.364 740.132 875.364L759.198 956.831C760.932 963.764 764.398 969.831 769.598 974.164C778.698 989.764 796.465 1036.56 790.398 1065.16Z" fill="#E0BA9B"/>
<path d="M769.595 974.598C686.828 970.264 625.728 958.131 560.295 840.698C615.762 889.664 681.195 908.298 750.095 916.964L759.195 956.831C760.928 964.198 764.395 970.264 769.595 974.598Z" fill="#EFBDA5"/>
<path d="M940.755 452.431C948.555 488.831 952.455 518.298 931.221 615.365C909.988 712.431 950.721 809.498 848.455 898.331C779.555 958.131 659.088 969.398 562.888 903.965C530.388 881.865 500.488 851.098 476.221 810.798C457.155 779.165 435.055 749.265 410.355 721.965C376.121 684.698 334.955 609.731 355.321 477.131C388.255 261.332 601.888 236.632 727.988 260.465C854.088 284.298 919.521 356.231 940.755 452.431Z" fill="#E0BA9B"/>
<path d="M526.066 621.865C526.066 621.865 512.633 556.865 449.366 564.665C394.766 571.598 375.7 702.465 499.633 738.865" fill="#E0BA9B"/>
<path d="M495.726 679.498C495.726 679.498 480.126 669.531 481.859 652.198C484.459 631.831 481.859 619.265 472.326 615.365C448.493 605.398 443.726 633.131 444.593 636.598" stroke="#423232" stroke-width="13.4786" stroke-miterlimit="10" stroke-linecap="round" stroke-linejoin="round"/>
<path d="M826.366 721.531C826.366 721.531 842.832 722.398 858.432 703.765C867.099 693.365 874.466 680.365 869.699 676.465C864.932 672.131 786.499 684.265 781.299 694.665C776.099 705.065 806.432 721.531 826.366 721.531Z" fill="#EFBDA5"/>
<path d="M839.355 575.932C839.355 575.932 840.221 617.098 866.655 663.031C878.355 683.398 860.588 716.765 822.021 722.398" stroke="#423232" stroke-width="13.4786" stroke-miterlimit="10" stroke-linecap="round" stroke-linejoin="round"/>
<path opacity="0.42" d="M604.489 743.631C629.139 743.631 649.122 727.14 649.122 706.798C649.122 686.455 629.139 669.965 604.489 669.965C579.839 669.965 559.855 686.455 559.855 706.798C559.855 727.14 579.839 743.631 604.489 743.631Z" fill="#ED938A"/>
<path opacity="0.42" d="M924.299 670.831C922.999 695.098 923.432 718.931 921.699 742.764C902.632 738.431 888.766 724.131 888.766 707.231C888.766 689.031 903.932 674.298 924.299 670.831Z" fill="#ED938A"/>
<path d="M1057.78 1116.61C996.249 1037.31 900.915 1004.37 848.482 984.872C844.149 963.206 835.915 939.372 822.915 916.406C802.982 928.539 780.015 937.639 756.182 942.406L759.649 956.706C761.382 963.639 770.049 995.706 756.615 1036.87C745.349 1071.54 699.849 1087.14 622.715 1052.04C472.349 984.006 455.015 907.306 455.015 907.306C452.415 865.706 448.082 826.706 444.182 795.072C397.382 805.472 343.216 826.706 313.749 871.339C277.349 925.939 263.916 981.406 267.382 1025.61C204.116 1065.91 106.182 1127.01 74.1156 1236.21C32.5156 1378.34 39.449 1465.44 39.449 1465.44H1159.18C1157.88 1465.87 1141.42 1224.51 1057.78 1116.61Z" fill="#6060D8"/>
<path d="M388.283 974.473C388.283 974.473 414.717 1077.17 530.417 1148.24" stroke="#423232" stroke-width="13.4786" stroke-miterlimit="10" stroke-linecap="round" stroke-linejoin="round"/>
<path d="M848.048 984.873C848.048 984.873 878.815 1117.91 811.648 1179.01" stroke="#423232" stroke-width="13.4786" stroke-miterlimit="10" stroke-linecap="round" stroke-linejoin="round"/>
<path d="M639.187 1158.64C639.187 1158.64 616.654 1224.51 622.721 1270.01" stroke="#423232" stroke-width="13.4786" stroke-miterlimit="10" stroke-linecap="round" stroke-linejoin="round"/>
<path d="M777.416 1154.74C777.416 1154.74 794.316 1191.57 806.449 1250.07" stroke="#423232" stroke-width="13.4786" stroke-miterlimit="10" stroke-linecap="round" stroke-linejoin="round"/>
<path d="M266.52 1026.04C266.52 1026.04 302.053 1170.77 513.519 1213.24" stroke="#423232" stroke-width="13.4786" stroke-miterlimit="10" stroke-linecap="round" stroke-linejoin="round"/>
<path d="M626.618 1279.97L607.551 1278.24C600.618 1277.37 595.418 1270.87 596.718 1263.94L603.218 1231.44C604.951 1222.34 613.618 1215.84 622.718 1217.14C631.818 1218.01 639.184 1225.81 639.184 1235.34L639.618 1268.71C639.618 1275.21 633.551 1280.84 626.618 1279.97Z" fill="white"/>
<path d="M825.519 1260.04L807.319 1266.54C800.385 1269.14 793.019 1264.81 791.719 1257.87L783.919 1225.81C781.752 1216.71 786.519 1207.61 795.619 1204.14C804.285 1201.11 814.252 1205.01 818.152 1213.24L832.452 1243.14C835.485 1249.64 832.452 1257.44 825.519 1260.04Z" fill="white"/>
<path d="M1016.62 1250.07C1016.62 1250.07 1040.88 1386.14 1031.35 1465.87" stroke="#544D4D" stroke-width="13.4786" stroke-miterlimit="10" stroke-linecap="round" stroke-linejoin="round"/>
<path d="M683.936 619.439C673.536 619.006 665.736 610.339 666.603 599.939L667.036 587.806C667.47 577.406 676.136 569.606 686.536 570.472C696.936 570.906 704.736 579.572 703.87 589.972L703.436 602.106C703.003 612.072 694.336 619.872 683.936 619.439Z" fill="#423232"/>
<path d="M866.37 625.939C856.836 625.506 849.47 617.272 849.903 607.739L850.336 596.472C850.77 586.939 859.003 579.572 868.536 580.006C878.07 580.439 885.436 588.672 885.003 598.206L884.57 609.472C884.136 619.006 875.903 626.372 866.37 625.939Z" fill="#423232"/>
<path d="M725.983 594.306C725.983 594.306 714.716 578.272 695.216 575.239C679.183 572.639 661.416 580.439 658.816 589.539" stroke="#423232" stroke-width="13.4786" stroke-miterlimit="10" stroke-linecap="round" stroke-linejoin="round"/>
<path d="M853.816 598.206C853.816 598.206 853.816 584.339 873.75 584.339C890.216 584.339 897.15 599.506 897.15 599.506" stroke="#423232" stroke-width="13.4786" stroke-miterlimit="10" stroke-linecap="round" stroke-linejoin="round"/>
<path d="M743.734 524.539C752.834 527.572 761.934 519.339 760.2 509.372C759.334 504.172 757.167 498.972 752.834 495.072C739.834 483.372 686.1 472.972 653.6 488.139C625 502.005 702.134 510.672 743.734 524.539Z" fill="#423232"/>
<path d="M873.303 531.472C865.936 534.072 858.136 526.272 859.436 517.172C859.869 512.406 861.603 507.639 865.069 504.172C875.469 493.772 911.003 485.539 933.536 501.572C953.036 515.006 907.103 518.906 873.303 531.472Z" fill="#423232"/>
<path d="M804.15 772.845C804.599 780.033 799.207 792.613 789.323 801.599C738.554 770.598 715.64 786.772 715.64 786.772C697.669 759.366 701.712 722.075 745.293 750.38C775.845 769.7 794.265 772.845 804.15 772.845Z" fill="#423232"/>
<path d="M789.329 801.599C778.547 811.034 762.372 816.875 740.357 807.889C730.024 803.845 721.936 795.758 715.646 786.773C715.646 786.773 738.56 770.598 789.329 801.599Z" fill="#FE9DAB"/>
<path d="M812.694 771.048C812.694 771.048 793.824 781.381 745.301 750.381C687.343 713.09 699.025 791.266 739.91 807.889C782.592 825.411 804.607 787.222 804.158 772.845" stroke="#423232" stroke-width="13.4786" stroke-miterlimit="10" stroke-linecap="round" stroke-linejoin="round"/>
<path d="M715.646 786.773C715.646 786.773 738.56 770.598 789.329 801.599" stroke="#423232" stroke-width="13.4786" stroke-miterlimit="10" stroke-linecap="round" stroke-linejoin="round"/>
<path d="M653.718 247.358C398.051 236.524 322.651 457.524 344.318 584.058C365.551 706.258 443.118 762.591 443.118 762.591L495.551 744.391C495.551 744.391 475.185 737.458 455.685 723.158C388.518 672.024 409.318 579.291 455.251 573.224C501.185 567.591 520.685 600.524 528.051 618.724C552.318 538.558 518.085 518.624 552.318 461.858C659.351 346.158 735.618 419.391 786.318 439.324C832.685 457.524 862.585 434.991 888.151 411.158C903.318 396.858 924.985 400.758 924.985 400.758C924.985 400.758 895.518 257.758 653.718 247.358Z" fill="#6F5655"/>
<path d="M550.413 522.264C550.413 522.264 381.847 533.964 328.113 520.097C328.113 520.097 336.78 327.697 398.747 248.397C460.713 169.097 744.98 168.664 840.746 204.197C927.413 236.697 938.68 427.364 938.68 427.364L550.413 522.264Z" fill="#3F3C3C"/>
<path d="M938.68 427.364L566.88 518.364C564.713 468.53 559.513 315.131 585.08 257.064C615.847 187.297 794.813 187.731 869.78 223.264C929.58 281.764 938.68 427.364 938.68 427.364Z" fill="white"/>
<path d="M1022.32 507.53C1022.32 559.964 937.387 536.564 937.387 536.564C941.287 499.73 937.82 479.364 932.62 456.397C930.887 449.464 929.153 442.53 927.42 435.597C955.153 432.564 975.953 440.364 990.687 451.63C1012.79 468.964 1022.32 494.964 1022.32 507.53Z" fill="#BAAEA6"/>
<path d="M756.686 341.564C785.165 341.564 808.252 318.477 808.252 289.997C808.252 261.518 785.165 238.431 756.686 238.431C728.206 238.431 705.119 261.518 705.119 289.997C705.119 318.477 728.206 341.564 756.686 341.564Z" fill="white"/>
<path d="M808.25 289.997C808.25 313.831 792.216 333.331 770.55 339.831C748.883 333.764 732.85 313.831 732.85 289.997C732.85 266.164 748.883 246.231 770.55 240.164C792.216 246.664 808.25 266.597 808.25 289.997Z" fill="#6BD5E1"/>
<path d="M835.988 289.997C835.988 318.597 813.021 341.564 784.421 341.564C783.121 341.564 781.821 341.564 780.521 341.564C779.655 341.564 778.355 341.564 777.488 341.131C776.621 341.131 775.321 340.697 774.021 340.697C772.721 340.264 771.855 340.264 770.555 339.831C792.221 333.764 808.255 313.831 808.255 289.997C808.255 266.164 792.221 246.664 770.555 240.164C771.421 239.731 772.721 239.731 774.021 239.297C774.888 239.297 775.755 238.864 776.621 238.864C777.055 238.864 777.488 238.864 778.355 238.864C779.221 238.864 779.655 238.864 780.521 238.864C781.821 238.864 783.121 238.864 784.855 238.864C813.021 238.431 835.988 261.397 835.988 289.997Z" fill="#FFD98E"/>
<path d="M756.686 242.764C782.686 242.764 803.919 263.997 803.919 289.997C803.919 315.997 782.686 337.231 756.686 337.231C730.686 337.231 709.452 315.997 709.452 289.997C709.452 263.997 730.686 242.764 756.686 242.764ZM756.686 238.431C728.086 238.431 705.119 261.397 705.119 289.997C705.119 318.597 728.086 341.564 756.686 341.564C785.286 341.564 808.252 318.597 808.252 289.997C808.252 261.397 784.852 238.431 756.686 238.431Z" fill="#4C4C4C"/>
<path d="M567.75 479.364C567.75 479.364 412.617 488.031 336.35 483.697C332.017 483.264 332.017 479.797 332.017 475.464L332.45 467.664C332.45 467.664 324.217 469.831 320.75 481.097C319.017 487.164 317.717 501.897 318.15 510.997C318.584 516.631 322.484 521.397 328.117 522.264C353.25 526.597 437.75 536.997 550.417 522.697C550.417 522.264 565.15 497.564 567.75 479.364Z" fill="#332E2E"/>
<path d="M990.247 451.631C972.047 437.764 944.747 429.531 907.481 439.064C886.247 444.697 861.114 455.964 832.514 475.031C692.547 569.931 550.414 522.264 550.414 522.264C550.414 522.264 554.747 501.031 570.347 475.031C593.314 436.897 640.981 388.364 736.747 382.297C820.814 377.097 882.781 393.131 924.814 411.331C966.414 429.531 988.081 449.464 990.247 451.631Z" fill="white"/>
<path d="M570.352 475.031C593.318 436.897 640.985 388.364 736.751 382.297C820.818 377.097 882.785 393.131 924.818 411.331" stroke="#E8E7E6" stroke-width="13.4786" stroke-miterlimit="10" stroke-linecap="round" stroke-linejoin="round"/>
</g>
</svg>
