<svg width="1300" height="1300" viewBox="0 0 1300 1300" fill="none" xmlns="http://www.w3.org/2000/svg">
<path d="M650 1300C290.71 1300 0 1008.86 0 650C0 290.71 291.141 0 650 0C1009.29 0 1300 291.141 1300 650C1300.43 1009.29 1009.29 1300 650 1300Z" fill="#FEF643"/>
<mask id="mask0_410_879" style="mask-type:alpha" maskUnits="userSpaceOnUse" x="0" y="0" width="1301" height="1300">
<path d="M650 1300C290.71 1300 0 1008.86 0 650C0 290.71 291.141 0 650 0C1009.29 0 1300 291.141 1300 650C1300.43 1009.29 1009.29 1300 650 1300Z" fill="#F7C0B5"/>
</mask>
<g mask="url(#mask0_410_879)">
<path d="M1014.86 1197.33C1011.83 1199.5 1008.36 1201.66 1005.33 1203.83C1001.86 1206 998.831 1208.16 995.364 1209.9C992.331 1211.63 989.731 1213.36 986.697 1215.1C986.264 1215.53 985.831 1215.53 985.397 1215.96C975.431 1222.03 965.031 1227.66 954.631 1232.86C951.597 1234.6 948.131 1236.33 945.097 1237.63C945.097 1237.63 944.664 1238.06 944.231 1238.06C940.764 1239.8 937.297 1241.53 933.831 1243.26C926.897 1246.73 919.531 1249.76 912.597 1252.8C909.131 1254.53 905.231 1255.83 901.764 1257.13C898.297 1258.43 894.397 1260.16 890.931 1261.46C887.464 1262.76 883.564 1264.5 880.097 1265.8C880.097 1265.8 880.097 1265.8 879.664 1265.8C876.197 1267.1 872.297 1268.4 868.831 1269.7C861.031 1272.3 852.797 1274.9 844.997 1277.5C842.397 1278.36 839.364 1279.23 836.764 1280.1C828.531 1282.7 820.298 1284.86 812.064 1286.6C809.031 1287.46 805.997 1287.9 802.531 1288.76C794.731 1290.5 786.497 1292.23 778.697 1293.96C776.964 1294.4 775.664 1294.4 773.931 1294.83C771.331 1295.26 768.297 1295.7 765.697 1296.13C761.797 1296.56 758.331 1297.43 754.431 1297.86C752.697 1298.3 750.964 1298.3 749.231 1298.73C747.064 1299.16 744.464 1299.6 741.864 1299.6C734.931 1300.46 727.564 1301.33 720.631 1302.2C718.464 1302.63 715.864 1302.63 713.697 1303.06H713.264C710.231 1303.5 707.197 1303.5 704.164 1303.93C701.131 1304.36 698.097 1304.36 695.064 1304.36C693.331 1304.36 691.164 1304.8 689.431 1304.8C685.964 1304.8 682.931 1305.23 679.897 1305.23C675.564 1305.23 671.664 1305.66 667.331 1305.66C662.997 1305.66 659.098 1305.66 654.764 1305.66C651.731 1305.66 648.697 1305.66 645.664 1305.66C463.231 1303.06 298.564 1225.5 181.564 1102.43C181.564 1102.43 181.564 1102 181.131 1102C194.564 1075.56 244.398 1027.9 296.398 988.465C362.264 938.632 455.431 907.865 455.431 907.865C455.431 907.865 516.531 897.898 743.164 945.132C916.064 981.532 989.731 1129.3 1014.86 1197.33Z" fill="#AD827B"/>
<path d="M791.264 1065.16C782.164 1109.8 723.23 1136.23 623.997 1096.36C502.23 1046.96 455.43 907.865 455.43 907.865C448.93 808.198 433.764 722.832 433.764 722.832C574.597 710.698 740.997 875.365 740.997 875.365L760.064 956.832C761.797 963.765 765.264 969.832 770.464 974.165C779.564 989.765 797.33 1036.56 791.264 1065.16Z" fill="#AD827B"/>
<path d="M770.465 974.599C687.698 970.265 626.598 958.132 561.165 840.699C616.632 889.665 682.065 908.299 750.965 916.965L760.065 956.832C761.798 964.198 765.265 970.265 770.465 974.599Z" fill="#8E5650"/>
<path d="M941.631 452.432C949.431 488.832 953.331 518.298 932.097 615.365C910.864 712.432 951.597 809.498 849.331 898.332C780.431 958.132 659.964 969.398 563.764 903.965C531.264 881.865 501.364 851.098 477.097 810.798C458.031 779.165 435.931 749.265 411.231 721.965C376.997 684.698 335.831 609.732 356.197 477.132C389.131 261.332 602.764 236.632 728.864 260.465C854.964 284.298 920.397 356.232 941.631 452.432Z" fill="#AD827B"/>
<path d="M526.932 621.865C526.932 621.865 513.498 556.865 450.232 564.665C395.632 571.598 376.565 702.465 500.498 738.865" fill="#AD827B"/>
<path d="M496.599 679.498C496.599 679.498 480.999 669.532 482.732 652.198C485.332 631.832 482.732 619.265 473.199 615.365C449.366 605.398 444.599 633.132 445.466 636.598" stroke="#423232" stroke-width="13" stroke-miterlimit="10" stroke-linecap="round" stroke-linejoin="round"/>
<path d="M827.229 721.532C827.229 721.532 843.696 722.398 859.296 703.765C867.962 693.365 875.329 680.365 870.562 676.465C865.796 672.132 787.362 684.265 782.162 694.665C776.962 705.065 807.296 721.532 827.229 721.532Z" fill="#8E605C"/>
<path d="M840.229 575.932C840.229 575.932 841.095 617.098 867.529 663.032C879.229 683.398 861.462 716.765 822.896 722.398" stroke="#423232" stroke-width="13" stroke-miterlimit="10" stroke-linecap="round" stroke-linejoin="round"/>
<path d="M377.807 891.367C377.807 891.367 441.073 866.233 452.773 865.367L453.64 875.334C453.64 875.334 403.373 897 400.34 900.467C397.74 903.5 377.807 891.367 377.807 891.367Z" fill="#7E5D6D"/>
<path d="M1158.24 1453.4H62.7725C62.7725 1453.4 69.2725 1252.33 135.139 1108.9C184.972 1000.57 304.572 929.067 391.672 897.867C416.372 889.2 435.439 879.667 453.206 874.9C453.206 877.067 454.506 893.1 454.506 894.834C454.506 894.834 522.972 962 677.239 970.234C748.739 974.134 755.672 929.5 755.672 929.5C763.906 927.767 771.706 925.6 779.506 923C782.106 922.134 800.306 914.767 802.472 913.9C858.372 928.634 926.839 970.234 1026.07 1053.43C1138.31 1148.33 1158.24 1453.4 1158.24 1453.4Z" fill="#423232"/>
<mask id="mask1_410_879" style="mask-type:alpha" maskUnits="userSpaceOnUse" x="62" y="874" width="1097" height="580">
<path d="M1158.24 1453.4H62.7725C62.7725 1453.4 69.2725 1252.33 135.139 1108.9C184.972 1000.57 304.572 929.067 391.672 897.867C416.372 889.2 435.439 879.667 453.206 874.9C453.206 877.067 454.506 893.1 454.506 894.834C454.506 894.834 522.972 962 677.239 970.234C748.739 974.134 755.672 929.5 755.672 929.5C763.906 927.767 771.706 925.6 779.506 923C782.106 922.134 800.306 914.767 802.472 913.9C858.372 928.634 926.839 970.234 1026.07 1053.43C1138.31 1148.33 1158.24 1453.4 1158.24 1453.4Z" fill="#423232"/>
</mask>
<g mask="url(#mask1_410_879)">
<path d="M453.641 947.267C499.141 1011.4 620.475 1109.33 717.541 1127.97C763.908 1136.63 830.208 977.6 769.974 913.467C718.408 858.434 499.141 844.134 464.041 868.4C421.141 897 442.375 931.667 453.641 947.267Z" stroke="#FFFF8D" stroke-width="21.6667" stroke-miterlimit="10"/>
</g>
<path d="M947.208 1012.7C975.209 1012.7 997.908 990.001 997.908 962C997.908 933.999 975.209 911.3 947.208 911.3C919.207 911.3 896.508 933.999 896.508 962C896.508 990.001 919.207 1012.7 947.208 1012.7Z" fill="#FFFF8D"/>
<path d="M277.272 1453.4L257.772 1293.07" stroke="#544D4D" stroke-width="13" stroke-miterlimit="10" stroke-linecap="round" stroke-linejoin="round"/>
<path d="M1033.88 1238.03C1033.88 1238.03 1020.88 1269.67 1024.78 1301.3C1028.68 1332.93 1039.94 1379.3 1023.91 1453.4" stroke="#544D4D" stroke-width="13" stroke-miterlimit="10" stroke-linecap="round" stroke-linejoin="round"/>
<path d="M377.808 891.367C386.041 888.767 400.341 891.367 404.674 898.734C421.574 926.467 462.308 1007.5 479.208 1168.27C492.641 1293.93 472.274 1520.13 472.274 1520.13L51.5078 1500.2C51.5078 1500.2 64.0745 1286.57 100.908 1143.13C136.874 1004.03 231.341 941.634 377.808 891.367Z" fill="white"/>
<path d="M813.307 917.8C813.307 917.8 947.207 1169.57 908.207 1505.83H1197.24C1197.24 1505.83 1195.94 1238.9 1130.94 1093.73C1065.94 949 838.44 906.533 838.44 906.533C838.44 906.533 824.14 913.467 813.307 917.8Z" fill="white"/>
<path d="M813.309 917.8L802.909 914.767C802.909 914.767 818.076 907.4 824.576 903.067L828.476 900.9C828.476 900.9 849.276 910.434 856.642 913.9C864.009 917.367 831.076 933.4 831.076 933.4C831.076 933.4 814.609 917.8 813.309 917.8Z" fill="#7E5D6D"/>
<path d="M341.843 1040C341.843 1040 282.043 1082.03 287.676 1126.67C293.309 1171.3 477.476 1450.8 477.476 1450.8C477.476 1450.8 499.143 1299.13 474.443 1127.53C474.443 1127.53 456.676 1103.7 424.176 1079.87C402.509 1064.7 374.776 1048.67 341.843 1040Z" fill="#AD7E5A"/>
<path d="M1041.24 1126.67C1042.97 1098.93 978.841 1053.87 978.841 1053.87C953.274 1061.23 935.074 1072.93 922.074 1085.5C893.041 1112.8 889.141 1143.57 889.141 1143.57L890.874 1151.37C921.641 1285.27 912.541 1459.47 912.541 1459.47C912.541 1459.47 1039.51 1154.4 1041.24 1126.67Z" fill="#AD7E5A"/>
<path d="M474.009 1127.53C474.009 1127.53 443.676 1095.47 407.276 1072.93C326.676 1023.1 208.376 1000.13 207.076 961.567C206.209 918.234 350.076 827.667 445.409 796.9C445.409 797.334 445.409 797.767 445.409 798.2C445.409 798.634 445.409 799.067 445.409 799.934C445.409 800.8 445.409 801.667 445.843 802.534C445.843 803.834 446.276 805.134 446.276 806.434C446.276 807.3 446.276 807.734 446.709 808.6C449.743 834.6 452.343 863.634 454.509 894.4V894.834C454.509 894.834 434.576 901.334 448.876 1000.57C452.776 1024.83 467.509 1067.3 474.009 1127.53Z" fill="#AD7E5A"/>
<path d="M889.141 1141.4C889.141 1141.4 860.107 1028.73 845.807 992.767C831.507 957.233 804.641 916.933 803.341 914.767C820.241 906.967 835.407 897 848.841 885.3C862.274 873.6 873.107 861.9 882.207 850.2C930.741 875.767 1069.84 956.367 1076.77 996.667C1084.57 1040.43 916.007 1037.83 889.141 1141.4Z" fill="#AD7E5A"/>
<path d="M732.708 1204.67C760.709 1204.67 783.408 1181.97 783.408 1153.97C783.408 1125.97 760.709 1103.27 732.708 1103.27C704.707 1103.27 682.008 1125.97 682.008 1153.97C682.008 1181.97 704.707 1204.67 732.708 1204.67Z" fill="#FFFF8D"/>
<path d="M732.709 1179.97C747.068 1179.97 758.709 1168.33 758.709 1153.97C758.709 1139.61 747.068 1127.97 732.709 1127.97C718.35 1127.97 706.709 1139.61 706.709 1153.97C706.709 1168.33 718.35 1179.97 732.709 1179.97Z" fill="#FFBE71"/>
<path d="M978.841 1053.87C953.274 1061.23 935.074 1072.93 922.074 1085.5C893.041 1112.8 889.141 1143.57 889.141 1143.57" stroke="#894B33" stroke-width="13" stroke-miterlimit="10" stroke-linecap="round" stroke-linejoin="round"/>
<path d="M474.009 1127.53C474.009 1127.53 456.243 1103.7 423.743 1079.87C402.509 1064.27 374.776 1048.67 341.409 1039.57" stroke="#894B33" stroke-width="13" stroke-miterlimit="10" stroke-linecap="round" stroke-linejoin="round"/>
<path d="M745.805 526.549C755.219 527.849 762.493 517.882 759.07 508.349C757.358 503.149 754.363 498.382 749.656 495.349C735.107 486.249 680.761 485.382 652.091 506.182C626.844 525.249 703.013 520.482 745.805 526.549Z" fill="black"/>
<path d="M864.335 531.316C856.632 531.316 851.925 521.349 855.777 513.116C857.916 508.782 860.912 504.882 865.191 502.716C878.456 496.216 913.973 500.116 929.806 522.216C943.927 541.716 899.852 530.882 864.335 531.316Z" fill="black"/>
<path d="M730.824 581.149C703.437 567.282 660.218 577.682 660.218 577.682" stroke="#423232" stroke-width="13" stroke-miterlimit="10" stroke-linecap="round" stroke-linejoin="round"/>
<path d="M899.852 589.816C899.852 589.816 888.726 577.683 847.646 587.216" stroke="#423232" stroke-width="13" stroke-miterlimit="10" stroke-linecap="round" stroke-linejoin="round"/>
<path d="M800.017 771.848C800.45 778.781 795.25 790.915 785.717 799.581C736.75 769.681 714.65 785.281 714.65 785.281C697.317 758.848 701.217 722.881 743.25 750.181C772.717 768.815 790.484 771.848 800.017 771.848Z" fill="#423232"/>
<path d="M785.718 799.581C775.318 808.681 759.718 814.315 738.485 805.648C728.518 801.748 720.718 793.948 714.651 785.281C714.651 785.281 736.751 769.681 785.718 799.581Z" fill="#FE9DAB"/>
<path d="M808.249 770.115C808.249 770.115 790.049 780.081 743.249 750.181C687.349 714.215 698.616 789.615 738.049 805.648C779.216 822.548 800.449 785.715 800.016 771.848" stroke="#423232" stroke-width="13" stroke-miterlimit="10" stroke-linecap="round" stroke-linejoin="round"/>
<path d="M714.651 785.281C714.651 785.281 736.751 769.681 785.718 799.581" stroke="#423232" stroke-width="13" stroke-miterlimit="10" stroke-linecap="round" stroke-linejoin="round"/>
<path d="M550.416 522.264C550.416 522.264 381.85 533.964 328.116 520.098C328.116 520.098 336.783 327.698 398.75 248.398C460.716 169.098 744.983 168.664 840.749 204.198C927.416 236.698 938.683 427.364 938.683 427.364L550.416 522.264Z" fill="#3F3C3C"/>
<path d="M938.681 427.364L566.881 518.364C564.714 468.531 559.514 315.131 585.081 257.064C615.848 187.298 794.814 187.731 869.781 223.264C929.581 281.764 938.681 427.364 938.681 427.364Z" fill="white"/>
<path d="M1022.32 507.531C1022.32 559.964 937.382 536.564 937.382 536.564C941.282 499.731 937.815 479.364 932.615 456.398C930.882 449.464 929.148 442.531 927.415 435.598C955.148 432.564 975.948 440.364 990.682 451.631C1012.78 468.964 1022.32 494.964 1022.32 507.531Z" fill="#BAAEA6"/>
<path d="M756.683 341.564C785.162 341.564 808.25 318.477 808.25 289.998C808.25 261.518 785.162 238.431 756.683 238.431C728.203 238.431 705.116 261.518 705.116 289.998C705.116 318.477 728.203 341.564 756.683 341.564Z" fill="white"/>
<path d="M808.252 289.998C808.252 313.831 792.218 333.331 770.552 339.831C748.885 333.764 732.852 313.831 732.852 289.998C732.852 266.164 748.885 246.231 770.552 240.164C792.218 246.664 808.252 266.598 808.252 289.998Z" fill="#6BD5E1"/>
<path d="M835.981 289.998C835.981 318.598 813.015 341.564 784.415 341.564C783.115 341.564 781.814 341.564 780.514 341.564C779.648 341.564 778.348 341.564 777.481 341.131C776.615 341.131 775.314 340.698 774.014 340.698C772.714 340.264 771.848 340.264 770.548 339.831C792.215 333.764 808.248 313.831 808.248 289.998C808.248 266.164 792.215 246.664 770.548 240.164C771.415 239.731 772.714 239.731 774.014 239.298C774.881 239.298 775.748 238.864 776.615 238.864C777.048 238.864 777.481 238.864 778.348 238.864C779.214 238.864 779.648 238.864 780.514 238.864C781.814 238.864 783.114 238.864 784.848 238.864C813.014 238.431 835.981 261.398 835.981 289.998Z" fill="#FFD98E"/>
<path d="M756.683 242.764C782.683 242.764 803.916 263.998 803.916 289.998C803.916 315.998 782.683 337.231 756.683 337.231C730.683 337.231 709.45 315.998 709.45 289.998C709.45 263.998 730.683 242.764 756.683 242.764ZM756.683 238.431C728.083 238.431 705.116 261.398 705.116 289.998C705.116 318.598 728.083 341.564 756.683 341.564C785.283 341.564 808.25 318.598 808.25 289.998C808.25 261.398 784.85 238.431 756.683 238.431Z" fill="#4C4C4C"/>
<path d="M567.749 479.364C567.749 479.364 412.616 488.031 336.349 483.698C332.016 483.264 332.016 479.798 332.016 475.464L332.449 467.664C332.449 467.664 324.216 469.831 320.749 481.098C319.016 487.164 317.716 501.898 318.149 510.998C318.583 516.631 322.483 521.398 328.116 522.264C353.249 526.598 437.749 536.998 550.416 522.698C550.416 522.264 565.149 497.564 567.749 479.364Z" fill="#332E2E"/>
<path d="M990.248 451.631C972.048 437.764 944.748 429.531 907.482 439.064C886.248 444.698 861.115 455.964 832.515 475.031C692.548 569.931 550.415 522.264 550.415 522.264C550.415 522.264 554.748 501.031 570.348 475.031C593.315 436.898 640.982 388.364 736.748 382.298C820.815 377.098 882.782 393.131 924.815 411.331C966.415 429.531 988.082 449.464 990.248 451.631Z" fill="white"/>
<path d="M570.351 475.031C593.317 436.898 640.984 388.364 736.751 382.298C820.817 377.098 882.784 393.131 924.817 411.331" stroke="#E8E7E6" stroke-width="13" stroke-miterlimit="10" stroke-linecap="round" stroke-linejoin="round"/>
</g>
</svg>
