<svg width="1300" height="1300" viewBox="0 0 1300 1300" fill="none" xmlns="http://www.w3.org/2000/svg">
<path d="M650 1300C290.71 1300 0 1008.86 0 650C0 290.71 291.141 0 650 0C1009.29 0 1300 291.141 1300 650C1300.43 1009.29 1009.29 1300 650 1300Z" fill="#4DAF90"/>
<mask id="mask0_428_6160" style="mask-type:alpha" maskUnits="userSpaceOnUse" x="0" y="0" width="1300" height="1300">
<path d="M650 1300C290.71 1300 0 1008.86 0 650C0 290.71 291.141 0 650 0C1009.29 0 1300 291.141 1300 650C1300.43 1009.29 1009.29 1300 650 1300Z" fill="#F7C0B5"/>
</mask>
<g mask="url(#mask0_428_6160)">
<path d="M1012.27 1197.33C1009.23 1199.5 1005.77 1201.67 1002.73 1203.83C999.266 1206 996.233 1208.17 992.766 1209.9C989.733 1211.63 987.133 1213.37 984.099 1215.1C983.666 1215.53 983.233 1215.53 982.799 1215.97C972.833 1222.03 962.433 1227.67 952.033 1232.87C948.999 1234.6 945.533 1236.33 942.499 1237.63C942.499 1237.63 942.066 1238.07 941.633 1238.07C938.166 1239.8 934.699 1241.53 931.233 1243.27C924.299 1246.73 916.933 1249.77 910 1252.8C906.533 1254.53 902.633 1255.83 899.166 1257.13C895.7 1258.43 891.8 1260.17 888.333 1261.47C884.866 1262.77 880.966 1264.5 877.5 1265.8C877.5 1265.8 877.499 1265.8 877.066 1265.8C873.599 1267.1 869.7 1268.4 866.233 1269.7C858.433 1272.3 850.2 1274.9 842.4 1277.5C839.8 1278.37 836.766 1279.23 834.166 1280.1C825.933 1282.7 817.7 1284.87 809.466 1286.6C806.433 1287.47 803.4 1287.9 799.933 1288.77C792.133 1290.5 783.9 1292.23 776.1 1293.97C774.366 1294.4 773.066 1294.4 771.333 1294.83C768.733 1295.27 765.7 1295.7 763.1 1296.13C759.2 1296.57 755.733 1297.43 751.833 1297.87C750.1 1298.3 748.366 1298.3 746.633 1298.73C744.466 1299.17 741.866 1299.6 739.266 1299.6C732.333 1300.47 724.966 1301.33 718.033 1302.2C715.866 1302.63 713.266 1302.63 711.1 1303.07H710.666C707.633 1303.5 704.6 1303.5 701.566 1303.93C698.533 1304.37 695.5 1304.37 692.466 1304.37C690.733 1304.37 688.566 1304.8 686.833 1304.8C683.366 1304.8 680.333 1305.23 677.3 1305.23C672.966 1305.23 669.066 1305.67 664.733 1305.67C660.4 1305.67 656.5 1305.67 652.166 1305.67C649.133 1305.67 646.1 1305.67 643.066 1305.67C460.633 1303.07 295.966 1225.5 178.967 1102.43C178.967 1102.43 178.967 1102 178.533 1102C191.967 1075.57 241.8 1027.9 293.8 988.466C359.666 938.632 452.833 907.866 452.833 907.866C452.833 907.866 513.933 897.899 740.566 945.132C913.466 981.532 987.133 1129.3 1012.27 1197.33Z" fill="#C99589"/>
<path d="M788.668 1065.16C779.568 1109.8 720.635 1136.23 621.401 1096.36C499.635 1046.96 452.835 907.865 452.835 907.865C446.335 808.198 431.168 722.832 431.168 722.832C572.001 710.698 738.401 875.365 738.401 875.365L757.468 956.832C759.201 963.765 762.668 969.832 767.868 974.165C776.968 989.765 794.734 1036.56 788.668 1065.16Z" fill="#C99589"/>
<path d="M767.866 974.598C685.1 970.265 624 958.132 558.566 840.698C614.033 889.665 679.466 908.298 748.366 916.965L757.466 956.832C759.2 964.198 762.666 970.265 767.866 974.598Z" fill="#A56663"/>
<path d="M939.034 452.432C946.834 488.832 950.734 518.299 929.501 615.365C908.267 712.432 949 809.499 846.734 898.332C777.834 958.132 657.367 969.399 561.167 903.965C528.667 881.865 498.767 851.099 474.501 810.799C455.434 779.165 433.334 749.265 408.634 721.965C374.401 684.699 333.234 609.732 353.601 477.132C386.534 261.332 600.167 236.632 726.267 260.466C852.367 284.299 917.801 356.232 939.034 452.432Z" fill="#C99589"/>
<path d="M524.338 621.865C524.338 621.865 510.905 556.865 447.638 564.665C393.038 571.599 373.971 702.465 497.905 738.865" fill="#C99589"/>
<path d="M493.997 679.498C493.997 679.498 478.397 669.532 480.131 652.198C482.731 631.832 480.131 619.265 470.597 615.365C446.764 605.398 441.997 633.132 442.864 636.598" stroke="#423232" stroke-width="13.4786" stroke-miterlimit="10" stroke-linecap="round" stroke-linejoin="round"/>
<path d="M824.637 721.533C824.637 721.533 841.104 722.399 856.704 703.766C865.371 693.366 872.737 680.366 867.971 676.466C863.204 672.133 784.771 684.266 779.571 694.666C774.371 705.066 804.704 721.533 824.637 721.533Z" fill="#A56663"/>
<path d="M837.634 575.932C837.634 575.932 838.501 617.099 864.934 663.032C876.634 683.399 858.867 716.765 820.301 722.399" stroke="#423232" stroke-width="13.4786" stroke-miterlimit="10" stroke-linecap="round" stroke-linejoin="round"/>
<path d="M261.738 1017.23C261.738 1017.23 277.772 1005.09 307.672 1023.29C363.572 1057.53 434.638 1240.39 282.105 1368.23C282.105 1368.23 254.805 1527.69 282.105 1558.03C282.105 1558.03 781.305 1583.16 996.671 1558.03C996.671 1558.03 1000.14 1460.09 986.271 1359.99C968.938 1233.03 946.838 1107.79 864.938 992.525C853.238 976.059 831.571 968.692 818.138 964.792L759.205 947.892C759.205 947.892 811.205 1098.26 666.905 1063.59C578.505 1042.36 505.272 958.292 444.605 919.725C430.305 910.625 410.805 913.659 398.238 918.859C369.638 930.992 263.905 994.259 261.738 1017.23Z" fill="white"/>
<mask id="mask1_428_6160" style="mask-type:alpha" maskUnits="userSpaceOnUse" x="261" y="913" width="737" height="657">
<path d="M261.738 1017.23C261.738 1017.23 277.772 1005.09 307.672 1023.29C363.572 1057.53 434.638 1240.39 282.105 1368.23C282.105 1368.23 254.805 1527.69 282.105 1558.03C282.105 1558.03 781.305 1583.16 996.671 1558.03C996.671 1558.03 1000.14 1460.09 986.271 1359.99C968.938 1233.03 946.838 1107.79 864.938 992.525C853.238 976.059 831.571 968.692 818.138 964.792L759.205 947.892C759.205 947.892 811.205 1098.26 666.905 1063.59C578.505 1042.36 505.272 958.292 444.605 919.725C430.305 910.625 410.805 913.659 398.238 918.859C369.638 930.992 263.905 994.259 261.738 1017.23Z" fill="#444444"/>
</mask>
<g mask="url(#mask1_428_6160)">
<path d="M270.398 1020.26C319.798 977.36 321.098 1008.56 399.098 983.86C433.765 973.027 471.898 939.227 522.598 935.327C561.598 932.293 604.498 957.86 652.598 963.06C692.465 967.393 739.698 950.493 785.632 962.193C824.632 972.16 858.432 1009.43 902.632 1026.33" stroke="white" stroke-width="17.9715" stroke-miterlimit="10" stroke-linecap="round" stroke-linejoin="round"/>
<path d="M271.697 1069.66C327.597 1033.26 324.564 1065.33 405.164 1044.09C441.131 1034.56 480.997 1001.19 532.13 997.726C571.997 994.693 616.197 1020.69 664.73 1024.59C705.464 1028.06 753.13 1008.56 799.93 1018.96C840.664 1027.63 876.197 1064.46 921.264 1079.63" stroke="white" stroke-width="17.9715" stroke-miterlimit="10" stroke-linecap="round" stroke-linejoin="round"/>
<path d="M272.564 1119.06C333.664 1089.59 327.164 1121.66 410.364 1104.33C447.631 1096.53 489.231 1063.16 540.798 1059.69C581.964 1057.09 627.031 1083.09 676.431 1086.13C718.464 1088.73 766.564 1067.49 814.231 1075.73C856.264 1083.09 894.398 1119.06 940.331 1132.06" stroke="white" stroke-width="17.9715" stroke-miterlimit="10" stroke-linecap="round" stroke-linejoin="round"/>
<path d="M273.863 1168.89C338.863 1145.93 329.763 1177.99 415.13 1164.13C453.697 1157.63 497.03 1125.13 549.463 1121.66C591.93 1119.06 638.297 1145.93 688.13 1147.66C731.463 1149.39 779.996 1125.99 828.096 1132.49C871.863 1138.56 912.163 1173.66 958.963 1184.49" stroke="white" stroke-width="17.9715" stroke-miterlimit="10" stroke-linecap="round" stroke-linejoin="round"/>
<path d="M275.164 1218.73C343.631 1202.26 332.364 1233.89 419.464 1223.06C459.331 1218.29 504.831 1185.79 557.697 1183.19C601.031 1181.03 649.131 1208.33 699.397 1209.63C744.464 1210.49 792.997 1185.36 841.964 1190.13C887.464 1194.46 930.364 1228.69 978.03 1237.36" stroke="white" stroke-width="17.9715" stroke-miterlimit="10" stroke-linecap="round" stroke-linejoin="round"/>
<path d="M276.463 1268.56C347.963 1257.73 334.53 1288.93 423.363 1281.99C464.529 1278.53 511.763 1246.89 565.929 1244.73C610.563 1242.99 659.529 1271.16 710.663 1271.59C757.029 1272.03 806.429 1244.73 856.263 1247.76C903.496 1250.79 948.996 1283.73 997.529 1289.36" stroke="white" stroke-width="17.9715" stroke-miterlimit="10" stroke-linecap="round" stroke-linejoin="round"/>
<path d="M277.332 1318.83C350.999 1313.63 335.832 1343.96 426.832 1340.49C469.299 1338.76 518.699 1307.56 573.732 1306.26C620.099 1305.39 669.932 1334.43 721.932 1334.43C769.598 1334.43 819.865 1305.39 870.132 1306.69C919.098 1307.99 967.198 1339.63 1016.6 1342.66" stroke="white" stroke-width="17.9715" stroke-miterlimit="10" stroke-linecap="round" stroke-linejoin="round"/>
</g>
<path d="M683.946 619.439C673.546 619.005 665.746 610.339 666.613 599.939L667.046 587.805C667.479 577.405 676.146 569.605 686.546 570.472C696.946 570.905 704.746 579.572 703.879 589.972L703.446 602.105C703.013 612.072 694.346 619.872 683.946 619.439Z" fill="#423232"/>
<path d="M866.379 625.939C856.846 625.506 849.479 617.272 849.913 607.739L850.346 596.472C850.779 586.939 859.013 579.572 868.546 580.006C878.079 580.439 885.446 588.672 885.013 598.206L884.579 609.472C884.146 619.006 875.913 626.372 866.379 625.939Z" fill="#423232"/>
<path d="M725.973 594.306C725.973 594.306 714.707 578.272 695.207 575.239C679.173 572.639 661.407 580.439 658.807 589.539" stroke="#423232" stroke-width="13.4786" stroke-miterlimit="10" stroke-linecap="round" stroke-linejoin="round"/>
<path d="M853.807 598.206C853.807 598.206 853.807 584.339 873.74 584.339C890.207 584.339 897.14 599.506 897.14 599.506" stroke="#423232" stroke-width="13.4786" stroke-miterlimit="10" stroke-linecap="round" stroke-linejoin="round"/>
<path d="M743.742 524.539C752.842 527.572 761.942 519.339 760.208 509.372C759.342 504.172 757.175 498.972 752.842 495.072C739.842 483.372 686.108 472.972 653.608 488.139C625.008 502.005 702.142 510.672 743.742 524.539Z" fill="#423232"/>
<path d="M873.31 531.472C865.944 534.072 858.144 526.272 859.444 517.172C859.877 512.405 861.61 507.638 865.077 504.172C875.477 493.772 911.01 485.538 933.544 501.572C953.044 515.005 907.11 518.905 873.31 531.472Z" fill="#423232"/>
<path d="M804.332 777.193C804.781 792.019 782.766 829.759 740.083 812.237C699.198 795.614 687.068 717.438 745.475 754.729C776.026 774.048 794.447 777.193 804.332 777.193Z" fill="white"/>
<path d="M812.87 775.396C812.87 775.396 794 785.729 745.477 754.729C687.519 717.438 699.2 795.614 740.085 812.237C782.768 829.759 804.783 791.57 804.334 777.193" stroke="#423232" stroke-width="13.4786" stroke-miterlimit="10" stroke-linecap="round" stroke-linejoin="round"/>
<path d="M705.941 765.961C705.941 765.961 736.493 786.179 745.479 784.382C754.914 783.034 753.566 796.063 796.248 797.411" stroke="#423232" stroke-width="13.4786" stroke-miterlimit="10" stroke-linecap="round" stroke-linejoin="round"/>
<path d="M939.689 578.56C951.389 512.694 947.922 486.694 940.989 455.927C938.822 446.394 936.222 437.294 933.189 428.194C905.889 416.06 883.356 449.86 846.089 444.66C746.856 431.227 671.022 388.76 587.389 406.96C534.956 418.227 526.289 465.46 541.456 552.56C545.789 576.394 545.789 599.36 525.422 623.194C521.956 611.06 505.056 561.66 449.589 568.594C397.156 575.094 377.222 696.427 485.556 738.027C484.689 761.86 462.589 806.06 444.822 816.027C444.822 816.027 441.789 784.393 407.122 742.794C372.456 701.194 303.122 593.294 349.922 435.56C396.722 277.827 608.622 195.494 805.789 275.66C839.589 289.527 867.322 309.027 889.422 329.394C941.422 377.06 969.155 446.394 960.922 516.16C959.189 539.56 952.689 562.094 939.689 578.56Z" fill="#423232"/>
<path d="M496.393 305.56C496.393 305.56 508.959 166.46 433.559 149.56C358.159 132.66 384.159 214.993 407.559 266.56C407.559 266.56 317.426 185.96 277.993 240.56C240.293 292.993 334.759 350.193 334.759 350.193C334.759 350.193 194.793 361.46 224.259 441.193C254.159 520.926 407.559 416.926 407.559 416.926C407.559 416.926 495.959 335.46 496.393 305.56Z" fill="#423232"/>
<path d="M477.161 636.125C477.161 636.125 442.494 630.925 445.094 679.459C446.394 704.159 446.394 717.592 445.961 724.525C445.528 729.292 448.561 733.625 452.894 735.359C458.094 737.525 463.728 735.359 466.328 730.159C470.228 723.225 474.561 713.692 474.561 705.892C474.561 692.892 488.428 681.192 488.428 681.192C488.428 681.192 475.861 670.359 477.161 636.125Z" fill="white"/>
<path d="M582.027 1471.59C578.561 1467.69 442.494 1234.99 462.861 1147.46C476.727 1087.23 458.528 1017.89 442.494 956.793C435.994 931.66 429.927 908.26 426.461 887.46C420.394 851.493 424.727 817.26 439.461 785.626C455.494 750.093 452.894 719.326 452.894 718.893L461.561 718.026C461.561 719.326 464.161 751.826 447.261 789.093C433.394 818.993 429.494 851.926 435.127 886.16C438.594 906.526 444.661 929.926 451.161 955.06C467.628 1017.03 485.827 1087.66 471.527 1150.06C452.461 1233.26 588.094 1465.96 588.961 1466.83L582.027 1471.59Z" fill="white"/>
<path d="M446.391 704.592C446.824 714.125 446.391 720.625 446.391 724.525C445.957 729.292 448.991 733.625 453.324 735.358C458.524 737.525 464.157 735.358 466.757 730.158C470.657 723.225 474.991 713.692 474.991 705.892C474.991 705.458 474.991 704.592 474.991 704.158C465.891 707.625 455.491 710.225 446.391 704.592Z" fill="#E5E5E5"/>
<path d="M854.156 992.759C851.122 1012.69 850.689 1044.33 849.822 1081.16C848.522 1152.23 806.489 1429.13 786.122 1472.89L778.322 1469.43C797.822 1426.96 839.856 1151.36 841.156 1081.16C842.022 1044.33 842.456 1012.26 845.489 991.459C851.989 947.692 847.222 914.759 844.622 900.892C845.922 899.592 847.222 898.725 848.522 897.425C849.822 896.559 850.689 895.259 851.989 894.392C854.589 905.659 861.956 941.625 854.156 992.759Z" fill="white"/>
</g>
<path d="M413.592 922.378C415.685 925.803 419.346 927.598 421.771 930.75C425.15 935.144 428.466 940.338 431.495 944.983C435.929 951.78 441.499 957.241 447.21 962.951C451.534 967.275 453.626 974.523 458.158 978.279C464.587 983.606 468.386 990.878 474.129 996.826C479.571 1002.46 486.647 1006.75 492.355 1012.22C499.57 1019.13 508.668 1025.64 516.635 1031.8C527.716 1040.36 539.123 1048.31 550.381 1056.59C581.199 1079.25 612.707 1101.73 650.59 1111.33C662.024 1114.23 674.129 1117.16 685.883 1118.22C690.812 1118.67 699.231 1119 702.885 1122.99C706.043 1126.43 711.178 1128.14 714.735 1131.3C715.463 1131.94 721.34 1116.09 721.948 1114.55C726.755 1102.41 727.12 1089.31 731.801 1077.14C732.98 1074.07 733.013 1070.63 734.442 1067.93C737.038 1063.02 741.685 1073.93 744.488 1075.91C751.532 1080.88 757.818 1085.66 764.26 1091.11C770.525 1096.41 773.87 1106.25 782.163 1109.01C783.41 1109.43 783.797 1110.47 784.804 1111.08C786.117 1111.86 789.685 1104.53 790.085 1103.48C791.363 1100.11 793.109 1097.5 795.237 1094.59C797.515 1091.47 797.795 1088.11 799.616 1084.93C802.681 1079.56 803.622 1069.44 804.253 1063.29C805.202 1054.03 806.572 1045.29 806.572 1035.92C806.572 1024.22 809.108 1008.54 805.155 997.47C801.639 987.628 797.819 977.455 793.691 968.168C792.423 965.315 788.648 962.356 787.122 959.473C785.734 956.851 785.144 952.817 782.228 951.359" stroke="#353236" stroke-width="7" stroke-linecap="round"/>
<path d="M761.361 947.881C762.102 954.543 775.425 953.677 779.909 953.677" stroke="#353236" stroke-width="7" stroke-linecap="round"/>
<path d="M760.202 952.518C763.474 959.063 766.897 964.841 768.381 971.517C769.602 977.015 770.635 983.258 770.635 989.034C770.635 996.662 773.086 1012.19 768.059 1018.34C764.724 1022.41 764.684 1028.27 763.615 1033.08C762.632 1037.51 759.218 1043.45 756.595 1047.06C751.194 1054.49 738.152 1061.49 728.902 1061.49" stroke="#353236" stroke-width="7" stroke-linecap="round"/>
<path d="M415.91 915.423H425.184" stroke="#353236" stroke-width="7" stroke-linecap="round"/>
<path d="M731.221 1062.65C725.425 1062.65 719.629 1062.65 713.833 1062.65C711.161 1062.65 709.396 1064.82 706.877 1064.96C703.276 1065.16 699.595 1064.96 695.993 1064.96C685.844 1064.96 674.782 1061.49 665.145 1061.49C658.288 1061.49 652.795 1057.79 646.34 1056.59C642.426 1055.86 639.684 1054.03 636.164 1052.47C634.987 1051.95 633.65 1052.38 632.429 1051.95C629.987 1051.11 629.43 1048.6 627.341 1047.64C624.488 1046.32 620.78 1046.11 618.196 1044.68C616.326 1043.64 610.7 1041.99 609.759 1040.62C608.098 1038.2 604.669 1040.31 602.804 1037.14C602.059 1035.88 595.17 1032.89 593.723 1032.57C584.266 1030.47 574.844 1023.9 566.159 1019.3C560.286 1016.19 552.27 1014.27 548.32 1008.16C543.86 1001.27 533.914 998.494 529.257 991.674C523.538 983.3 513.632 978.495 506.394 971.71C501.086 966.733 492.679 964.527 488.298 958.894C483.296 952.463 474.426 949.817 469.879 943.502C468.488 941.571 464.2 936.561 462.279 935.387C460.32 934.19 456.426 931.906 455.324 929.977C453.404 926.617 446.074 921.219 442.572 921.219" stroke="#353236" stroke-width="7" stroke-linecap="round"/>
<path d="M734.699 1078.87C736.395 1084.47 738.771 1089.83 740.56 1095.49C742.471 1101.54 743.331 1107.17 744.553 1113.52C746.527 1123.79 749.642 1133.86 750.864 1144.24C753.54 1166.99 754.271 1190.05 757.626 1212.7C759.982 1228.6 757.884 1246.47 757.884 1262.61C757.884 1271.82 756.725 1281.55 756.725 1291.01" stroke="#353236" stroke-width="7" stroke-linecap="round"/>
<path d="M769.477 1134.52C769.477 1139.35 769.477 1144.18 769.477 1149.01C769.477 1152.28 778.961 1150.75 781.649 1150.75C785.286 1150.75 784.468 1149.16 784.547 1145.72C784.594 1143.66 787.171 1137.66 785.448 1135.93C782.774 1133.26 775.168 1134.52 771.795 1134.52" stroke="#353236" stroke-width="7" stroke-linecap="round"/>
<path d="M777.591 1201.75C777.591 1206.75 775.622 1212.19 781.648 1212.19C788.472 1212.19 793.82 1214.15 793.82 1205.87C793.82 1202.2 793.82 1198.53 793.82 1194.86C793.82 1191.36 789.484 1192.48 786.864 1192.48C779.141 1192.48 779.909 1196.88 779.909 1204.07" stroke="#353236" stroke-width="7" stroke-linecap="round"/>
<path d="M782.227 1240.01C782.227 1243.18 777.683 1250.66 780.424 1253.4C783.78 1256.76 790.909 1252.64 793.176 1250.51C794.678 1249.09 797.681 1238.17 795.365 1237.75C791.643 1237.08 787.196 1237.69 783.387 1237.69" stroke="#353236" stroke-width="7" stroke-linecap="round"/>
<path d="M259.414 1012.8C261.293 1012.42 266.082 1008.69 267.271 1007C269.331 1004.08 273.444 1003.4 276.545 1002.11C281.458 1000.06 284.096 992.364 288.91 989.613C294.458 986.443 299.735 979.538 303.529 974.479C308.848 967.387 314.839 964.273 321.111 958.572C326.801 953.399 337.853 949.372 345.068 946.722C352.195 944.104 359.747 942.324 366.643 939.058C373.662 935.733 379.902 933.196 387.38 930.557C392.279 928.828 408.134 926.338 410.114 922.378" stroke="#353236" stroke-width="3" stroke-linecap="round"/>
<path d="M262.891 1015.12C269.266 1015.12 275.642 1015.12 282.018 1015.12C288.564 1015.12 291.953 1016.64 297.668 1019.5C307.917 1024.62 316.437 1034.53 324.588 1042.68C328.794 1046.89 332.267 1049.96 333.668 1056.27C334.708 1060.95 339.321 1065.56 341.461 1069.6C343.381 1073.23 346.924 1076.97 348.545 1080.61C350.762 1085.6 351.04 1091.55 352.216 1096.84C353.253 1101.51 356.274 1108.15 358.205 1112.49C359.128 1114.57 359.466 1117.01 360.91 1118.87C362.503 1120.92 361.611 1125.16 363.164 1126.4C363.931 1127.02 367.118 1132.68 367.222 1133.62C367.813 1138.94 370.516 1143.67 370.699 1149.33C370.92 1156.18 370.699 1163.08 370.699 1169.94C370.699 1192.99 371.858 1215.68 371.858 1238.85" stroke="#353236" stroke-width="3" stroke-linecap="round"/>
<path d="M786.863 953.677C789.926 953.677 792.473 954.836 795.558 954.836C796.601 954.836 801.827 958.626 801.933 959.473C802.536 964.299 814.3 964.666 817.261 967.33C819.675 969.503 824.082 968.987 826.986 970.551C831.222 972.832 836.018 973.875 840.188 975.96C844.954 978.343 850.578 984.494 854.099 988.454C858.068 992.919 860.238 998.297 864.532 1002.37C869.614 1007.18 873.458 1012.53 877.026 1018.59C883.982 1030.42 890.996 1042.12 897.57 1053.95C900.769 1059.71 902.496 1065.83 906.779 1071.34C908.688 1073.79 909.916 1079.24 911.159 1082.35C912.238 1085.05 912.449 1088.62 913.799 1091.05C915.391 1093.91 914.913 1097.74 916.697 1100.64C918.526 1103.61 919.708 1108.46 920.239 1111.91C920.788 1115.48 924.812 1116.59 924.812 1120.61C924.812 1124.45 926.263 1126.85 927.066 1130.46C929.883 1143.14 933.447 1155.52 939.238 1167.1C945.001 1178.63 943.57 1192.39 949.735 1203.49C952.641 1208.72 952.633 1216.64 952.633 1222.62" stroke="#353236" stroke-width="3" stroke-linecap="round"/>
<path d="M849.139 981.963V987.156" stroke="white" stroke-width="7" stroke-linecap="round"/>
</svg>
