<svg width="1300" height="1300" viewBox="0 0 1300 1300" fill="none" xmlns="http://www.w3.org/2000/svg">
<path d="M650 1300C290.71 1300 0 1008.86 0 650C0 290.71 291.141 0 650 0C1009.29 0 1300 291.141 1300 650C1300.43 1009.29 1009.29 1300 650 1300Z" fill="#E2B5B5"/>
<mask id="mask0_410_879" style="mask-type:alpha" maskUnits="userSpaceOnUse" x="0" y="0" width="1301" height="1300">
<path d="M650 1300C290.71 1300 0 1008.86 0 650C0 290.71 291.141 0 650 0C1009.29 0 1300 291.141 1300 650C1300.43 1009.29 1009.29 1300 650 1300Z" fill="#F7C0B5"/>
</mask>
<g mask="url(#mask0_410_879)">
<path d="M1012.26 1197.33C1009.23 1199.5 1005.76 1201.66 1002.73 1203.83C999.265 1206 996.231 1208.16 992.764 1209.9C989.731 1211.63 987.131 1213.36 984.098 1215.1C983.664 1215.53 983.231 1215.53 982.798 1215.96C972.831 1222.03 962.431 1227.66 952.031 1232.86C948.998 1234.6 945.531 1236.33 942.498 1237.63C942.498 1237.63 942.065 1238.06 941.631 1238.06C938.165 1239.8 934.698 1241.53 931.231 1243.26C924.298 1246.73 916.931 1249.76 909.998 1252.8C906.531 1254.53 902.631 1255.83 899.165 1257.13C895.698 1258.43 891.798 1260.16 888.331 1261.46C884.865 1262.76 880.965 1264.5 877.498 1265.8C877.498 1265.8 877.498 1265.8 877.065 1265.8C873.598 1267.1 869.698 1268.4 866.231 1269.7C858.431 1272.3 850.198 1274.9 842.398 1277.5C839.798 1278.36 836.765 1279.23 834.165 1280.1C825.931 1282.7 817.698 1284.86 809.465 1286.6C806.431 1287.46 803.398 1287.9 799.931 1288.76C792.131 1290.5 783.898 1292.23 776.098 1293.96C774.365 1294.4 773.065 1294.4 771.331 1294.83C768.731 1295.26 765.698 1295.7 763.098 1296.13C759.198 1296.56 755.731 1297.43 751.831 1297.86C750.098 1298.3 748.365 1298.3 746.631 1298.73C744.465 1299.16 741.865 1299.6 739.265 1299.6C732.331 1300.46 724.965 1301.33 718.031 1302.2C715.865 1302.63 713.265 1302.63 711.098 1303.06H710.665C707.631 1303.5 704.598 1303.5 701.565 1303.93C698.531 1304.36 695.498 1304.36 692.465 1304.36C690.731 1304.36 688.565 1304.8 686.831 1304.8C683.365 1304.8 680.331 1305.23 677.298 1305.23C672.965 1305.23 669.065 1305.66 664.731 1305.66C660.398 1305.66 656.498 1305.66 652.165 1305.66C649.131 1305.66 646.098 1305.66 643.065 1305.66C460.631 1303.06 295.965 1225.5 178.965 1102.43C178.965 1102.43 178.965 1102 178.531 1102C191.965 1075.56 241.798 1027.9 293.798 988.465C359.665 938.632 452.831 907.865 452.831 907.865C452.831 907.865 513.931 897.898 740.565 945.132C913.465 981.532 987.131 1129.3 1012.26 1197.33Z" fill="#EEB2A4"/>
<path d="M788.664 1065.16C779.564 1109.8 720.631 1136.23 621.397 1096.36C499.631 1046.96 452.831 907.865 452.831 907.865C446.331 808.198 431.164 722.832 431.164 722.832C571.997 710.698 738.397 875.365 738.397 875.365L757.464 956.832C759.197 963.765 762.664 969.832 767.864 974.165C776.964 989.765 794.731 1036.56 788.664 1065.16Z" fill="#EEB2A4"/>
<path d="M767.865 974.599C685.099 970.265 623.999 958.132 558.565 840.699C614.032 889.665 679.465 908.299 748.365 916.965L757.465 956.832C759.199 964.198 762.665 970.265 767.865 974.599Z" fill="#A56663"/>
<path d="M939.031 452.432C946.831 488.832 950.731 518.298 929.498 615.365C908.264 712.432 948.998 809.498 846.731 898.332C777.831 958.132 657.364 969.398 561.164 903.965C528.665 881.865 498.764 851.098 474.498 810.798C455.431 779.165 433.331 749.265 408.631 721.965C374.398 684.698 333.231 609.732 353.598 477.132C386.531 261.332 600.164 236.632 726.264 260.465C852.364 284.298 917.798 356.232 939.031 452.432Z" fill="#EEB2A4"/>
<path d="M524.332 621.865C524.332 621.865 510.899 556.865 447.632 564.665C393.032 571.598 373.965 702.465 497.899 738.865" fill="#EEB2A4"/>
<path d="M493.999 679.498C493.999 679.498 478.399 669.532 480.133 652.198C482.733 631.832 480.133 619.265 470.599 615.365C446.766 605.398 441.999 633.132 442.866 636.598" stroke="#423232" stroke-width="13" stroke-miterlimit="10" stroke-linecap="round" stroke-linejoin="round"/>
<path d="M824.629 721.532C824.629 721.532 841.096 722.398 856.696 703.765C865.363 693.365 872.729 680.365 867.963 676.465C863.196 672.132 784.763 684.265 779.563 694.665C774.363 705.065 804.696 721.532 824.629 721.532Z" fill="#A56663"/>
<path d="M837.629 575.932C837.629 575.932 838.496 617.098 864.929 663.032C876.629 683.398 858.863 716.765 820.296 722.398" stroke="#423232" stroke-width="13" stroke-miterlimit="10" stroke-linecap="round" stroke-linejoin="round"/>
<path d="M1166.53 1467.78L68.8989 1443.51C57.6322 1167.05 171.166 1021.01 215.799 992.414C299.432 938.247 408.199 922.214 459.332 917.447C472.332 949.514 521.732 1054.81 624.432 1096.41C723.665 1136.71 782.599 1109.85 791.699 1065.21C797.332 1036.61 779.566 989.814 770.466 974.647C765.266 970.314 761.799 963.814 760.065 957.314L756.599 943.014C763.965 941.281 771.332 939.547 778.699 936.947C960.265 957.314 1033.93 1006.71 1077.27 1091.21C1121.9 1178.31 1166.53 1467.78 1166.53 1467.78Z" fill="#474E51"/>
<path d="M261.299 1466.05C261.299 1466.05 255.666 1325.65 250.032 1299.65" stroke="#544D4D" stroke-width="13" stroke-miterlimit="10" stroke-linecap="round" stroke-linejoin="round"/>
<path d="M1029.17 1466.05C1029.17 1466.05 1016.17 1378.95 1016.17 1363.78C1016.17 1349.05 1027.43 1300.51 1029.17 1258.05" stroke="#544D4D" stroke-width="13" stroke-miterlimit="10" stroke-linecap="round" stroke-linejoin="round"/>
<path d="M685.534 1189.15L669.934 1512.41C669.934 1512.41 807.3 1606.01 807.3 1603.41C807.3 1600.81 872.3 1487.28 872.3 1487.28L770.9 1176.15C770.9 1176.15 757.9 1189.58 685.534 1189.15Z" fill="#D85656"/>
<path d="M716.735 1085.15C716.735 1085.15 657.368 1141.05 649.568 1155.78C641.768 1170.51 682.935 1193.91 682.935 1193.91C682.935 1193.91 749.235 1207.78 779.135 1180.91C779.135 1180.91 796.035 1162.28 792.568 1144.51C789.535 1127.18 716.735 1085.15 716.735 1085.15Z" fill="#EA6363"/>
<path d="M446.767 866.314L452.4 865.014C468.433 916.581 570.267 1038.35 716.733 1085.15L625.733 1199.98C619.667 1207.78 608.833 1209.08 601.033 1203.45C563.767 1175.71 464.1 1094.25 423.367 990.247C414.7 968.581 412.967 944.747 417.3 922.214L422.933 891.447C425.1 878.881 434.633 868.914 446.767 866.314Z" fill="white"/>
<path d="M838.068 1160.55C835.468 1174.85 818.568 1180.48 807.735 1170.51L716.302 1085.15C716.302 1085.15 769.602 1034.45 756.602 942.581C774.368 938.681 791.268 933.047 806.868 925.681C807.302 926.547 813.368 938.247 820.302 957.747C835.035 998.047 853.668 1072.15 838.068 1160.55Z" fill="white"/>
<path d="M715.186 586.764C715.186 586.764 684.853 587.197 654.086 564.231" stroke="#A72525" stroke-width="13" stroke-miterlimit="10" stroke-linecap="round" stroke-linejoin="round"/>
<path d="M843.885 593.697C843.885 593.697 875.085 588.064 884.185 575.93" stroke="#A72525" stroke-width="13" stroke-miterlimit="10" stroke-linecap="round" stroke-linejoin="round"/>
<path d="M735.985 553.397C744.218 558.164 754.618 551.664 755.052 541.697C755.052 536.497 754.185 530.864 750.718 526.097C740.318 512.23 689.618 490.997 654.518 500.097C624.185 507.897 698.285 531.73 735.985 553.397Z" fill="#A72525"/>
<path d="M869.021 558.597C862.955 563.364 852.988 557.731 851.688 548.631C850.821 543.864 851.255 538.664 853.421 534.331C860.355 521.331 892.421 503.564 918.421 512.231C940.955 520.464 898.055 537.364 869.021 558.597Z" fill="#A72525"/>
<path d="M666.218 572.03C662.752 575.064 660.585 579.83 660.152 584.597L659.718 596.73C659.285 607.13 667.085 615.797 677.052 616.23C687.452 616.664 696.118 608.864 696.552 598.897L696.985 586.764C696.985 586.33 696.985 585.897 696.985 585.464C685.718 584.597 675.752 579.83 666.218 572.03Z" fill="#A72525"/>
<path d="M843.888 592.83C843.888 593.264 843.888 593.264 843.888 593.697L843.455 604.964C843.021 614.497 850.388 622.73 859.921 623.164C869.455 623.597 877.688 616.23 878.121 606.697L878.555 595.43C878.988 591.097 877.255 587.197 875.088 584.164C865.555 589.797 855.155 591.097 843.888 592.83Z" fill="#A72525"/>
<path d="M800.184 776.042C800.617 790.342 779.384 826.742 738.217 809.842C698.784 793.809 687.084 718.409 743.417 754.375C772.884 773.009 790.65 776.042 800.184 776.042Z" fill="white"/>
<path d="M808.414 774.309C808.414 774.309 790.214 784.275 743.414 754.375C687.514 718.409 698.781 793.809 738.214 809.842C779.381 826.742 800.614 789.909 800.181 776.042" stroke="#423232" stroke-width="13" stroke-miterlimit="10" stroke-linecap="round" stroke-linejoin="round"/>
<path d="M705.282 765.209C705.282 765.209 734.749 784.709 743.416 782.975C752.516 781.675 751.216 794.242 792.382 795.542" stroke="#423232" stroke-width="13" stroke-miterlimit="10" stroke-linecap="round" stroke-linejoin="round"/>
<path d="M467.226 730.661L449.893 841.161C449.893 841.161 445.559 784.395 427.359 753.628C413.493 729.795 372.759 704.661 354.126 627.095L389.226 630.128C389.226 630.128 400.926 593.295 400.926 595.895C400.926 598.061 400.926 633.595 400.926 633.595L411.759 634.461C410.459 666.961 425.626 705.961 467.226 730.661Z" fill="#99807F"/>
<path d="M1015.83 571.628L982.893 578.561C982.026 622.328 980.293 653.961 980.293 653.961H930.459C930.459 653.961 937.826 623.195 945.193 552.995C952.126 489.728 934.793 438.161 917.459 413.028C897.093 394.828 860.259 420.828 858.526 422.128L862.426 413.028C851.593 419.961 843.793 426.895 843.793 426.895C843.793 426.895 839.026 416.928 829.926 403.928C830.359 408.261 830.793 412.595 830.359 416.061C830.359 416.061 823.859 404.795 813.026 392.228C817.359 406.095 816.059 417.795 816.059 417.795C778.359 363.195 745.859 370.995 729.393 380.961C682.593 433.828 679.993 571.628 679.993 571.628L633.193 566.861C633.193 566.861 632.759 551.261 634.059 526.995C624.093 594.161 622.359 653.961 622.359 653.961L534.826 647.461L530.926 629.261C530.926 629.261 517.493 564.261 454.226 572.061C430.393 575.095 413.059 601.961 411.759 634.028L400.926 633.161C400.926 633.161 400.926 597.628 400.926 595.461C400.926 593.295 389.226 629.695 389.226 629.695L354.126 626.661L289.126 620.595C289.126 620.595 311.226 357.128 393.993 290.395C440.793 252.695 474.159 244.461 494.093 244.461C509.693 244.461 517.493 249.228 517.493 249.228C532.659 233.628 564.293 205.895 603.726 202.861C659.626 198.528 926.993 265.695 960.359 335.028C961.659 337.628 962.959 340.661 963.826 343.695C975.093 370.561 1004.99 454.628 1015.83 571.628Z" fill="#423232"/>
<path d="M877.817 658.314C866.117 644.014 850.95 634.047 832.75 633.614C813.684 633.181 783.784 637.514 753.884 661.347C714.884 692.547 636.884 687.781 606.117 684.747C597.45 683.881 589.217 688.214 585.317 696.014C576.65 713.347 564.95 749.314 570.584 807.381C577.95 886.681 642.517 958.614 733.517 952.547C853.117 945.181 922.884 848.981 927.217 720.281C926.35 684.747 905.117 692.114 877.817 658.314Z" fill="black"/>
<path d="M717.918 684.748C717.918 684.748 900.351 767.081 915.951 707.281" stroke="black" stroke-width="13" stroke-miterlimit="10" stroke-linecap="round" stroke-linejoin="round"/>
<path d="M644.251 743.682C644.251 743.682 828.418 848.982 911.184 791.782" stroke="black" stroke-width="13" stroke-miterlimit="10" stroke-linecap="round" stroke-linejoin="round"/>
<path d="M637.751 818.215C637.751 818.215 732.651 903.581 869.151 872.815" stroke="black" stroke-width="13" stroke-miterlimit="10" stroke-linecap="round" stroke-linejoin="round"/>
<path d="M662.885 692.114C662.885 692.114 644.685 717.247 637.319 783.547C628.652 863.281 666.352 929.581 666.352 929.581" stroke="black" stroke-width="13" stroke-miterlimit="10" stroke-linecap="round" stroke-linejoin="round"/>
<path d="M602.65 695.581C602.65 695.581 552.817 660.914 517.717 601.114" stroke="black" stroke-width="13" stroke-miterlimit="10" stroke-linecap="round" stroke-linejoin="round"/>
<path d="M492.152 735.881C502.119 768.381 526.819 821.248 589.219 868.915" stroke="black" stroke-width="13" stroke-miterlimit="10" stroke-linecap="round" stroke-linejoin="round"/>
</g>
</svg>
