<svg width="1300" height="1300" viewBox="0 0 1300 1300" fill="none" xmlns="http://www.w3.org/2000/svg">
<path d="M650 1300C290.71 1300 0 1008.86 0 650C0 290.71 291.141 0 650 0C1009.29 0 1300 291.141 1300 650C1300.43 1009.29 1009.29 1300 650 1300Z" fill="#F2D459"/>
<mask id="mask0_422_3048" style="mask-type:alpha" maskUnits="userSpaceOnUse" x="0" y="0" width="1300" height="1300">
<path d="M650 1300C290.71 1300 0 1008.86 0 650C0 290.71 291.141 0 650 0C1009.29 0 1300 291.141 1300 650C1300.43 1009.29 1009.29 1300 650 1300Z" fill="#F7C0B5"/>
</mask>
<g mask="url(#mask0_422_3048)">
<path d="M1014.87 1197.33C1011.84 1199.5 1008.37 1201.66 1005.34 1203.83C1001.87 1206 998.837 1208.16 995.37 1209.9C992.337 1211.63 989.737 1213.36 986.703 1215.1C986.27 1215.53 985.837 1215.53 985.403 1215.96C975.437 1222.03 965.037 1227.66 954.637 1232.86C951.603 1234.6 948.137 1236.33 945.103 1237.63C945.103 1237.63 944.67 1238.06 944.237 1238.06C940.77 1239.8 937.303 1241.53 933.837 1243.26C926.903 1246.73 919.537 1249.76 912.603 1252.8C909.137 1254.53 905.237 1255.83 901.77 1257.13C898.303 1258.43 894.403 1260.16 890.937 1261.46C887.47 1262.76 883.57 1264.5 880.103 1265.8C880.103 1265.8 880.103 1265.8 879.67 1265.8C876.203 1267.1 872.303 1268.4 868.837 1269.7C861.037 1272.3 852.803 1274.9 845.003 1277.5C842.403 1278.36 839.37 1279.23 836.77 1280.1C828.537 1282.7 820.303 1284.86 812.07 1286.6C809.037 1287.46 806.003 1287.9 802.537 1288.76C794.737 1290.5 786.503 1292.23 778.703 1293.96C776.97 1294.4 775.67 1294.4 773.937 1294.83C771.337 1295.26 768.303 1295.7 765.703 1296.13C761.803 1296.56 758.337 1297.43 754.437 1297.86C752.703 1298.3 750.97 1298.3 749.237 1298.73C747.07 1299.16 744.47 1299.6 741.87 1299.6C734.937 1300.46 727.57 1301.33 720.637 1302.2C718.47 1302.63 715.87 1302.63 713.703 1303.06H713.27C710.237 1303.5 707.203 1303.5 704.17 1303.93C701.137 1304.36 698.103 1304.36 695.07 1304.36C693.337 1304.36 691.17 1304.8 689.437 1304.8C685.97 1304.8 682.937 1305.23 679.903 1305.23C675.57 1305.23 671.67 1305.66 667.337 1305.66C663.003 1305.66 659.103 1305.66 654.77 1305.66C651.737 1305.66 648.703 1305.66 645.67 1305.66C463.237 1303.06 298.57 1225.5 181.57 1102.43C181.57 1102.43 181.57 1102 181.137 1102C194.57 1075.56 244.403 1027.9 296.403 988.465C362.27 938.632 455.437 907.865 455.437 907.865C455.437 907.865 516.537 897.898 743.17 945.132C916.07 981.532 989.737 1129.3 1014.87 1197.33Z" fill="#AD827B"/>
<path d="M791.273 1065.16C782.173 1109.8 723.24 1136.23 624.007 1096.36C502.24 1046.96 455.44 907.865 455.44 907.865C448.94 808.198 433.773 722.832 433.773 722.832C574.607 710.698 741.007 875.365 741.007 875.365L760.073 956.832C761.807 963.765 765.273 969.832 770.473 974.165C779.573 989.765 797.34 1036.56 791.273 1065.16Z" fill="#AD827B"/>
<path d="M770.466 974.599C687.699 970.265 626.599 958.132 561.166 840.699C616.633 889.665 682.066 908.299 750.966 916.965L760.066 956.832C761.799 964.198 765.266 970.265 770.466 974.599Z" fill="#8E5650"/>
<path d="M941.641 452.432C949.441 488.832 953.342 518.298 932.108 615.365C910.875 712.432 951.608 809.498 849.341 898.332C780.441 958.132 659.975 969.398 563.775 903.965C531.275 881.865 501.375 851.098 477.108 810.798C458.042 779.165 435.941 749.265 411.241 721.965C377.008 684.698 335.842 609.732 356.208 477.132C389.142 261.332 602.775 236.632 728.875 260.465C854.975 284.298 920.408 356.232 941.641 452.432Z" fill="#AD827B"/>
<path d="M526.938 621.865C526.938 621.865 513.504 556.865 450.238 564.665C395.638 571.598 376.571 702.465 500.504 738.865" fill="#AD827B"/>
<path d="M496.605 679.498C496.605 679.498 481.005 669.532 482.738 652.198C485.338 631.832 482.738 619.265 473.205 615.365C449.372 605.398 444.605 633.132 445.472 636.598" stroke="#665858" stroke-width="13" stroke-miterlimit="10" stroke-linecap="round" stroke-linejoin="round"/>
<g filter="url(#filter0_d_422_3048)">
<path d="M827.239 721.532C827.239 721.532 843.706 722.398 859.306 703.765C867.972 693.365 875.339 680.365 870.572 676.465C865.806 672.132 787.372 684.265 782.172 694.665C776.972 705.065 807.306 721.532 827.239 721.532Z" fill="#8E605C"/>
<path d="M827.265 721.032L827.265 721.032L827.252 721.032H827.239C817.383 721.032 804.902 716.951 795.53 711.565C790.844 708.872 786.976 705.875 784.606 702.937C782.226 699.985 781.452 697.224 782.619 694.889C782.896 694.335 783.441 693.733 784.273 693.096C785.101 692.463 786.182 691.818 787.491 691.167C790.108 689.865 793.589 688.564 797.656 687.302C805.789 684.778 816.208 682.426 826.624 680.532C837.039 678.638 847.437 677.205 855.522 676.516C859.567 676.172 863.022 676.014 865.607 676.076C866.9 676.107 867.962 676.193 868.765 676.334C869.166 676.404 869.492 676.486 869.745 676.577C870.002 676.67 870.155 676.761 870.236 676.835L870.246 676.844L870.256 676.852C871.27 677.682 871.692 679.03 871.543 680.873C871.394 682.719 870.676 684.973 869.523 687.468C867.218 692.451 863.239 698.263 858.922 703.444C851.183 712.688 843.244 717.079 837.258 719.164C834.263 720.207 831.753 720.673 829.997 720.879C829.119 720.982 828.43 721.02 827.964 721.033C827.73 721.039 827.553 721.039 827.435 721.037C827.376 721.036 827.332 721.035 827.304 721.034L827.273 721.033L827.266 721.032L827.265 721.032Z" stroke="black"/>
</g>
<path d="M840.236 575.932C840.236 575.932 841.102 617.098 867.536 663.032C879.236 683.398 861.469 716.765 822.902 722.398" stroke="#665858" stroke-width="7" stroke-miterlimit="10" stroke-linecap="round" stroke-linejoin="round"/>
<path d="M782.925 938.648C782.925 938.648 717.253 957.912 626.187 928.141C535.121 898.369 446.245 820 446.245 820C446.245 820 417.349 820.438 406.404 842.329C395.896 864.219 396.334 909.315 379.697 921.573C375.756 924.2 364.811 927.265 348.612 931.643C322.343 939.086 283.377 950.469 243.974 972.798C214.64 989.435 184.869 1011.76 159.913 1042.41C148.53 1056.42 138.46 1072.18 129.704 1090.13C60.5288 1230.67 90.3003 1427.69 90.3003 1427.69H1160.32C1160.32 1427.69 1129.24 1184.26 1062.25 1104.14C995.266 1024.02 867.424 959.225 829.772 942.151V916.757C830.21 916.757 807.005 932.081 782.925 938.648Z" fill="#48D89E"/>
<mask id="mask1_422_3048" style="mask-type:alpha" maskUnits="userSpaceOnUse" x="83" y="820" width="1078" height="608">
<path d="M782.925 938.648C782.925 938.648 717.253 957.912 626.187 928.141C535.121 898.369 446.245 820 446.245 820C446.245 820 417.349 820.438 406.404 842.329C395.896 864.219 396.334 909.315 379.697 921.573C375.756 924.2 364.811 927.265 348.612 931.643C322.343 939.086 283.377 950.469 243.974 972.798C214.64 989.435 184.869 1011.76 159.913 1042.41C148.53 1056.42 138.46 1072.18 129.704 1090.13C60.5288 1230.67 90.3003 1427.69 90.3003 1427.69H1160.32C1160.32 1427.69 1129.24 1184.26 1062.25 1104.14C995.266 1024.02 867.424 959.225 829.772 942.151V916.757C830.21 916.757 807.005 932.081 782.925 938.648Z" fill="#48D89E"/>
</mask>
<g mask="url(#mask1_422_3048)">
<path d="M262.803 1105.89C288.434 1105.89 309.212 1085.12 309.212 1059.49C309.212 1033.85 288.434 1013.08 262.803 1013.08C237.172 1013.08 216.395 1033.85 216.395 1059.49C216.395 1085.12 237.172 1105.89 262.803 1105.89Z" fill="#FCED7E"/>
<path d="M526.809 1084.44C552.44 1084.44 573.217 1063.66 573.217 1038.03C573.217 1012.4 552.44 991.624 526.809 991.624C501.178 991.624 480.4 1012.4 480.4 1038.03C480.4 1063.66 501.178 1084.44 526.809 1084.44Z" fill="#FCED7E"/>
<path d="M726.451 985.932C752.082 985.932 772.86 965.155 772.86 939.524C772.86 913.893 752.082 893.115 726.451 893.115C700.821 893.115 680.043 913.893 680.043 939.524C680.043 965.155 700.821 985.932 726.451 985.932Z" fill="#FCED7E"/>
</g>
<path d="M830.21 942.151C830.21 942.151 835.902 981.554 825.832 1003.88C809.633 1040.66 697.114 1082.69 560.953 1033.65C452.813 994.689 399.837 940.838 398.523 932.519" stroke="#329369" stroke-width="13.1345" stroke-miterlimit="10" stroke-linecap="round" stroke-linejoin="round"/>
<path d="M480.395 864.658C478.206 867.284 476.017 870.787 474.265 875.165C468.136 890.051 466.385 921.136 466.385 921.136" stroke="#329369" stroke-width="13.1345" stroke-miterlimit="10" stroke-linecap="round" stroke-linejoin="round"/>
<path d="M554.388 909.752C552.636 913.255 550.885 917.195 550.009 921.573C547.82 932.957 545.193 968.857 545.193 968.857" stroke="#329369" stroke-width="13.1345" stroke-miterlimit="10" stroke-linecap="round" stroke-linejoin="round"/>
<path d="M708.502 957.912C709.378 967.982 709.815 981.992 708.502 999.067" stroke="#329369" stroke-width="13.1345" stroke-miterlimit="10" stroke-linecap="round" stroke-linejoin="round"/>
<path d="M775.482 954.41C776.796 962.728 778.109 974.112 778.547 988.559" stroke="#329369" stroke-width="13.1345" stroke-miterlimit="10" stroke-linecap="round" stroke-linejoin="round"/>
<path d="M432.674 821.751C422.166 825.692 408.156 836.199 402.902 866.846" stroke="#329369" stroke-width="13.1345" stroke-miterlimit="10" stroke-linecap="round" stroke-linejoin="round"/>
<path d="M881.871 967.982C859.543 955.723 841.154 946.967 830.209 942.151V916.757" stroke="#329369" stroke-width="13.1345" stroke-miterlimit="10" stroke-linecap="round" stroke-linejoin="round"/>
<path d="M683.944 619.439C673.544 619.006 665.744 610.339 666.611 599.939L667.044 587.806C667.477 577.406 676.144 569.606 686.544 570.473C696.944 570.906 704.744 579.573 703.877 589.973L703.444 602.106C703.011 612.073 694.344 619.873 683.944 619.439Z" fill="#665858"/>
<path d="M866.375 625.939C856.842 625.506 849.475 617.272 849.909 607.739L850.342 596.472C850.775 586.939 859.009 579.572 868.542 580.006C878.075 580.439 885.442 588.672 885.009 598.206L884.575 609.472C884.142 619.006 875.909 626.372 866.375 625.939Z" fill="#665858"/>
<path d="M725.975 594.306C725.975 594.306 714.709 578.273 695.209 575.239C679.175 572.639 661.409 580.439 658.809 589.539" stroke="#665858" stroke-width="13" stroke-miterlimit="10" stroke-linecap="round" stroke-linejoin="round"/>
<path d="M853.809 598.206C853.809 598.206 853.809 584.339 873.742 584.339C890.209 584.339 897.142 599.506 897.142 599.506" stroke="#665858" stroke-width="13" stroke-miterlimit="10" stroke-linecap="round" stroke-linejoin="round"/>
<path d="M743.744 524.539C752.844 527.573 761.943 519.339 760.21 509.373C759.343 504.173 757.177 498.973 752.843 495.073C739.843 483.373 686.11 472.973 653.61 488.139C625.01 502.006 702.144 510.673 743.744 524.539Z" fill="#665858"/>
<path d="M873.312 531.473C865.946 534.073 858.146 526.273 859.446 517.173C859.879 512.406 861.612 507.639 865.079 504.173C875.479 493.773 911.012 485.539 933.546 501.573C953.046 515.006 907.112 518.906 873.312 531.473Z" fill="#665858"/>
<path d="M793.699 770.764C768.999 785.497 725.232 769.464 704.865 744.764" stroke="#494343" stroke-width="13" stroke-miterlimit="10" stroke-linecap="round" stroke-linejoin="round"/>
<path d="M908.418 390.617C920.118 324.751 949.151 481.617 942.651 450.85C940.485 441.317 937.885 432.217 934.851 423.117C911.885 404.917 887.618 393.217 850.785 388.017C751.551 374.584 673.118 383.684 589.485 401.884C537.051 413.151 547.885 594.284 527.518 618.117C524.051 605.984 507.151 556.584 451.685 563.517C399.251 570.017 379.318 691.351 487.651 732.95C486.785 756.784 464.685 800.984 446.918 810.95C446.918 810.95 443.885 779.317 409.218 737.717C374.552 696.117 305.218 588.217 352.018 430.484C398.818 272.751 610.718 190.417 807.885 270.584C841.685 284.451 869.418 303.951 891.518 324.317C943.518 371.984 929.651 303.951 921.418 374.151C918.385 396.684 921.418 373.717 908.418 390.617Z" fill="#494343"/>
<path d="M864.655 372.85C864.655 372.85 745.055 571.75 507.155 511.084C507.155 511.084 460.788 394.517 561.755 349.884C663.155 305.684 840.388 333.85 864.655 372.85Z" fill="#494343"/>
<path d="M823.056 384.55C823.056 384.55 870.723 393.65 904.089 429.184C935.289 462.117 941.789 318.684 948.723 350.317C948.723 350.317 966.489 393.65 889.356 347.717C812.223 301.35 823.056 384.55 823.056 384.55Z" fill="#494343"/>
<path d="M351.586 625.051C351.586 625.051 298.719 591.251 221.586 625.051C151.819 655.817 188.219 743.784 232.853 737.284C232.853 737.284 148.786 769.784 179.986 839.117C205.119 895.017 281.386 862.517 281.386 862.517C281.386 862.517 245.419 920.151 298.286 946.151C352.019 972.584 379.319 898.051 379.319 898.051C379.319 898.051 391.886 959.151 446.919 949.617C514.953 937.917 480.286 856.884 480.286 856.884C480.286 856.884 517.119 881.151 533.586 839.117C552.653 791.017 468.586 752.884 468.586 752.884C468.586 752.884 380.186 651.484 376.286 611.617C371.953 571.317 351.586 625.051 351.586 625.051Z" fill="#494343"/>
<path d="M995.952 822.217C995.952 822.217 1057.05 863.817 1021.09 915.817C978.185 978.217 906.252 910.183 906.252 910.183C919.252 952.217 872.452 1021.55 808.752 966.95C796.619 956.55 787.085 945.717 779.719 935.317C806.152 926.65 830.419 913.65 850.352 896.317C907.552 846.917 920.119 794.483 923.585 741.183C925.319 717.35 924.885 693.517 926.185 669.25C927.052 652.784 928.352 636.75 931.385 620.284C954.785 603.384 998.985 602.517 1010.69 628.084C1038.42 689.184 986.852 714.317 983.819 715.617C987.285 714.75 1068.75 697.85 1069.19 764.15C1070.05 833.917 995.952 822.217 995.952 822.217Z" fill="#494343"/>
<path d="M943.088 424.85C943.088 424.85 1037.55 491.15 1017.19 361.15C1001.59 261.917 926.622 203.85 808.322 238.95C808.322 238.95 606.822 164.417 446.922 256.717C311.722 334.717 303.922 531.017 352.022 625.05C352.022 625.05 358.088 436.55 490.688 391.917C622.855 347.284 703.455 312.617 822.622 352.917C941.788 393.217 943.088 424.85 943.088 424.85Z" fill="#494343"/>
<path d="M843.858 258.017C843.858 258.017 830.858 177.85 761.525 167.45C691.758 157.05 722.525 239.384 722.525 239.384C722.525 239.384 820.025 276.65 843.858 258.017Z" fill="#494343"/>
<path d="M745.49 225.951C745.49 225.951 709.09 175.684 639.757 185.217C570.424 194.751 614.19 251.517 614.19 251.517C614.19 251.517 760.657 290.951 745.49 225.951Z" fill="#494343"/>
<path d="M843.855 390.617C843.855 390.617 893.689 412.717 924.455 457.35C955.222 501.984 1010.69 491.584 1018.49 408.817C1026.72 326.484 865.955 303.084 843.855 390.617Z" fill="#494343"/>
<path d="M467.539 705.467V779.134" stroke="#FFDE55" stroke-width="13" stroke-miterlimit="10" stroke-linecap="round" stroke-linejoin="round"/>
<path d="M526.047 877.933C514.347 889.633 498.314 897 480.114 897C445.014 897 415.98 868.4 415.98 832.867C415.98 797.767 444.58 768.734 480.114 768.734C497.88 768.734 514.347 776.1 526.047 787.8C518.247 783.467 509.581 780.867 500.047 780.867C471.447 780.867 448.047 804.267 448.047 832.867C448.047 861.467 471.447 884.867 500.047 884.867C509.581 885.3 518.247 882.7 526.047 877.933Z" fill="#FFDE55"/>
<path d="M467.547 858.867C481.667 858.867 493.114 847.42 493.114 833.3C493.114 819.18 481.667 807.734 467.547 807.734C453.427 807.734 441.98 819.18 441.98 833.3C441.98 847.42 453.427 858.867 467.547 858.867Z" fill="#FF6B57"/>
<path d="M961.979 788.667C954.179 784.334 945.512 781.734 935.979 781.734C929.045 781.734 922.979 783.034 916.912 785.634C917.779 780.434 919.079 775.234 919.512 770.034C936.412 770.467 951.145 777.4 961.979 788.667Z" fill="#FFDE55"/>
<path d="M962.409 877.934C950.709 889.633 934.676 897 916.476 897C898.276 897 881.376 889.2 869.676 876.634C876.609 868.834 882.676 861.034 888.309 853.234C896.109 871.867 914.742 884.433 935.976 884.433C945.509 885.3 954.609 882.7 962.409 877.934Z" fill="#FFDE55"/>
<path d="M929.477 833.301C929.477 847.601 918.211 858.867 903.911 858.867C898.277 858.867 893.077 857.134 888.744 853.667C898.711 838.934 906.077 823.767 910.844 809.034C921.244 811.634 929.477 821.601 929.477 833.301Z" fill="#FF6B57"/>
<path d="M256.215 1021.59V1025.01" stroke="#8B52A0" stroke-width="10" stroke-linecap="round"/>
<path d="M259.631 1018.18C259.631 1020 259.631 1025.47 259.631 1023.64C259.631 1021.14 259.631 1018.63 259.631 1016.13" stroke="#8B52A0" stroke-width="10" stroke-linecap="round"/>
<path d="M252.113 1028.43C242.151 1028.43 235.137 1036.23 227.358 1041.41C226.445 1042.02 221.884 1044.31 225.232 1044.15C229.468 1043.95 237.098 1042.96 240.495 1039.74C242.883 1037.48 245.324 1035.75 248.164 1034.73C249.594 1034.22 252.109 1033.9 252.796 1032.53" stroke="#8B52A0" stroke-width="10" stroke-linecap="round"/>
<path d="M217.943 1054.4H221.36" stroke="#8B52A0" stroke-width="10" stroke-linecap="round"/>
<path d="M230.243 1048.25C228.796 1048.25 225.213 1047.62 224.055 1048.59C222.009 1050.29 220.218 1052.59 217.942 1054.06C213.168 1057.13 210.248 1062.2 204.957 1063.97" stroke="#8B52A0" stroke-width="10" stroke-linecap="round"/>
</g>
<defs>
<filter id="filter0_d_422_3048" x="777.582" y="675.563" width="98.4902" height="53.975" filterUnits="userSpaceOnUse" color-interpolation-filters="sRGB">
<feFlood flood-opacity="0" result="BackgroundImageFix"/>
<feColorMatrix in="SourceAlpha" type="matrix" values="0 0 0 0 0 0 0 0 0 0 0 0 0 0 0 0 0 0 127 0" result="hardAlpha"/>
<feOffset dy="4"/>
<feGaussianBlur stdDeviation="2"/>
<feComposite in2="hardAlpha" operator="out"/>
<feColorMatrix type="matrix" values="0 0 0 0 0 0 0 0 0 0 0 0 0 0 0 0 0 0 0.25 0"/>
<feBlend mode="normal" in2="BackgroundImageFix" result="effect1_dropShadow_422_3048"/>
<feBlend mode="normal" in="SourceGraphic" in2="effect1_dropShadow_422_3048" result="shape"/>
</filter>
</defs>
</svg>
