<svg width="1300" height="1300" viewBox="0 0 1300 1300" fill="none" xmlns="http://www.w3.org/2000/svg">
<path d="M650 1300C290.71 1300 0 1008.86 0 650C0 290.71 291.141 0 650 0C1009.29 0 1300 291.141 1300 650C1300.43 1009.29 1009.29 1300 650 1300Z" fill="#F4DA92"/>
<mask id="mask0_422_3238" style="mask-type:alpha" maskUnits="userSpaceOnUse" x="0" y="0" width="1301" height="1300">
<path d="M650 1300C290.71 1300 0 1008.86 0 650C0 290.71 291.141 0 650 0C1009.29 0 1300 291.141 1300 650C1300.43 1009.29 1009.29 1300 650 1300Z" fill="#F7C0B5"/>
</mask>
<g mask="url(#mask0_422_3238)">
<path d="M1014.01 1197.33C1010.97 1199.5 1007.51 1201.67 1004.47 1203.83C1001.01 1206 997.972 1208.17 994.506 1209.9C991.472 1211.63 988.872 1213.37 985.839 1215.1C985.406 1215.53 984.972 1215.53 984.539 1215.97C974.572 1222.03 964.172 1227.67 953.772 1232.87C950.739 1234.6 947.272 1236.33 944.239 1237.63C944.239 1237.63 943.806 1238.07 943.372 1238.07C939.906 1239.8 936.439 1241.53 932.972 1243.27C926.039 1246.73 918.672 1249.77 911.739 1252.8C908.272 1254.53 904.372 1255.83 900.906 1257.13C897.439 1258.43 893.539 1260.17 890.072 1261.47C886.606 1262.77 882.706 1264.5 879.239 1265.8C879.239 1265.8 879.239 1265.8 878.806 1265.8C875.339 1267.1 871.439 1268.4 867.972 1269.7C860.172 1272.3 851.939 1274.9 844.139 1277.5C841.539 1278.37 838.506 1279.23 835.906 1280.1C827.672 1282.7 819.439 1284.87 811.206 1286.6C808.172 1287.47 805.139 1287.9 801.672 1288.77C793.872 1290.5 785.639 1292.23 777.839 1293.97C776.106 1294.4 774.806 1294.4 773.072 1294.83C770.472 1295.27 767.439 1295.7 764.839 1296.13C760.939 1296.57 757.472 1297.43 753.572 1297.87C751.839 1298.3 750.106 1298.3 748.372 1298.73C746.206 1299.17 743.606 1299.6 741.006 1299.6C734.072 1300.47 726.706 1301.33 719.772 1302.2C717.606 1302.63 715.006 1302.63 712.839 1303.07H712.406C709.372 1303.5 706.339 1303.5 703.306 1303.93C700.272 1304.37 697.239 1304.37 694.206 1304.37C692.472 1304.37 690.306 1304.8 688.572 1304.8C685.106 1304.8 682.072 1305.23 679.039 1305.23C674.706 1305.23 670.806 1305.67 666.472 1305.67C662.139 1305.67 658.239 1305.67 653.906 1305.67C650.872 1305.67 647.839 1305.67 644.806 1305.67C462.372 1303.07 297.706 1225.5 180.706 1102.43C180.706 1102.43 180.706 1102 180.272 1102C193.706 1075.57 243.539 1027.9 295.539 988.465C361.406 938.632 454.572 907.865 454.572 907.865C454.572 907.865 515.672 897.898 742.306 945.132C915.206 981.532 988.872 1129.3 1014.01 1197.33Z" fill="#F7D3B5"/>
<path d="M790.409 1065.16C781.309 1109.8 722.376 1136.23 623.142 1096.36C501.376 1046.96 454.576 907.865 454.576 907.865C448.076 808.198 432.909 722.831 432.909 722.831C573.743 710.698 740.142 875.365 740.142 875.365L759.209 956.831C760.943 963.765 764.409 969.831 769.609 974.165C778.709 989.765 796.476 1036.56 790.409 1065.16Z" fill="#F7D3B5"/>
<path d="M769.603 974.598C686.836 970.264 625.736 958.131 560.303 840.698C615.769 889.664 681.203 908.298 750.103 916.964L759.203 956.831C760.936 964.198 764.403 970.264 769.603 974.598Z" fill="#EFBDA5"/>
<path d="M940.776 452.431C948.576 488.831 952.476 518.298 931.243 615.365C910.01 712.431 950.743 809.498 848.476 898.331C779.576 958.131 659.11 969.398 562.91 903.965C530.41 881.865 500.51 851.098 476.243 810.798C457.176 779.165 435.076 749.265 410.376 721.965C376.143 684.698 334.976 609.731 355.343 477.131C388.276 261.332 601.91 236.632 728.01 260.465C854.11 284.298 919.543 356.231 940.776 452.431Z" fill="#F7D3B5"/>
<path d="M526.073 621.865C526.073 621.865 512.64 556.865 449.373 564.665C394.773 571.598 375.707 702.465 499.64 738.865" fill="#F7D3B5"/>
<path d="M495.741 679.499C495.741 679.499 480.141 669.532 481.874 652.199C484.474 631.832 481.874 619.265 472.341 615.365C448.507 605.399 443.741 633.132 444.607 636.599" stroke="#665858" stroke-width="13" stroke-miterlimit="10" stroke-linecap="round" stroke-linejoin="round"/>
<g filter="url(#filter0_d_422_3238)">
<path d="M826.376 721.531C826.376 721.531 842.842 722.398 858.442 703.765C867.109 693.365 874.476 680.365 869.709 676.465C864.942 672.131 786.509 684.265 781.309 694.665C776.109 705.065 806.442 721.531 826.376 721.531Z" fill="#EFBDA5"/>
<path d="M826.402 721.032L826.401 721.032L826.389 721.031H826.376C816.52 721.031 804.039 716.951 794.666 711.564C789.981 708.872 786.113 705.875 783.743 702.936C781.363 699.984 780.589 697.223 781.756 694.888C782.033 694.334 782.578 693.733 783.41 693.096C784.237 692.463 785.319 691.817 786.627 691.167C789.245 689.865 792.725 688.564 796.793 687.301C804.925 684.777 815.344 682.425 825.761 680.531C836.176 678.638 846.574 677.205 854.659 676.516C858.704 676.171 862.158 676.014 864.743 676.076C866.037 676.107 867.099 676.193 867.902 676.333C868.303 676.403 868.629 676.485 868.881 676.576C869.139 676.669 869.292 676.761 869.373 676.835L869.382 676.843L869.392 676.852C870.407 677.682 870.829 679.029 870.68 680.873C870.531 682.718 869.813 684.972 868.659 687.467C866.355 692.451 862.376 698.263 858.059 703.444C850.32 712.687 842.381 717.079 836.394 719.163C833.399 720.206 830.89 720.673 829.134 720.879C828.256 720.982 827.567 721.02 827.1 721.032C826.867 721.038 826.689 721.038 826.572 721.036C826.513 721.036 826.469 721.034 826.44 721.033L826.409 721.032L826.403 721.032L826.402 721.032Z" stroke="black"/>
</g>
<path d="M839.37 575.932C839.37 575.932 840.237 617.099 866.67 663.032C878.37 683.399 860.604 716.765 822.037 722.399" stroke="#665858" stroke-width="7" stroke-miterlimit="10" stroke-linecap="round" stroke-linejoin="round"/>
<path opacity="0.42" d="M604.504 743.632C629.155 743.632 649.138 727.141 649.138 706.798C649.138 686.456 629.155 669.965 604.504 669.965C579.854 669.965 559.871 686.456 559.871 706.798C559.871 727.141 579.854 743.632 604.504 743.632Z" fill="#F0CFB6"/>
<path opacity="0.42" d="M924.306 670.831C923.006 695.098 923.439 718.931 921.706 742.765C902.639 738.431 888.772 724.131 888.772 707.231C888.772 689.031 903.939 674.298 924.306 670.831Z" fill="#E0C5AC"/>
<path d="M258.773 1020.71C258.773 1020.71 274.973 1008.46 305.182 1026.84C361.66 1061.43 433.462 1246.19 279.351 1375.35C279.351 1375.35 251.768 1536.46 279.351 1567.11C279.351 1567.11 783.715 1592.5 1001.31 1567.11C1001.31 1567.11 1004.81 1468.16 990.802 1367.03C973.289 1238.75 950.961 1112.22 868.213 995.759C856.392 979.122 834.502 971.679 820.929 967.739L761.386 950.664C761.386 950.664 813.924 1102.59 668.131 1067.56C578.817 1046.11 504.826 961.172 443.532 922.206C429.084 913.012 409.382 916.077 396.686 921.33C367.79 933.589 260.963 997.51 258.773 1020.71Z" fill="#FFFDFD"/>
<mask id="mask1_422_3238" style="mask-type:alpha" maskUnits="userSpaceOnUse" x="258" y="916" width="744" height="663">
<path d="M258.773 1020.71C258.773 1020.71 274.973 1008.46 305.182 1026.84C361.66 1061.43 433.462 1246.19 279.351 1375.35C279.351 1375.35 251.768 1536.46 279.351 1567.11C279.351 1567.11 783.715 1592.5 1001.31 1567.11C1001.31 1567.11 1004.81 1468.16 990.802 1367.03C973.289 1238.75 950.961 1112.22 868.213 995.759C856.392 979.122 834.502 971.679 820.929 967.739L761.386 950.664C761.386 950.664 813.924 1102.59 668.131 1067.56C578.817 1046.11 504.826 961.172 443.532 922.206C429.084 913.012 409.382 916.077 396.686 921.33C367.79 933.589 260.963 997.51 258.773 1020.71Z" fill="#444444"/>
</mask>
<g mask="url(#mask1_422_3238)">
<path d="M267.532 1023.78C317.443 980.436 318.757 1011.96 397.564 987.003C432.589 976.058 471.117 941.908 522.341 937.968C561.745 934.903 605.088 960.734 653.686 965.988C693.965 970.366 741.687 953.291 788.096 965.112C827.499 975.182 861.649 1012.83 906.306 1029.91" stroke="#6D5F5E" stroke-width="17.5126" stroke-miterlimit="10" stroke-linecap="round" stroke-linejoin="round"/>
<path d="M268.848 1073.69C325.326 1036.91 322.261 1069.31 403.695 1047.86C440.034 1038.23 480.313 1004.52 531.975 1001.01C572.254 997.948 616.911 1024.22 665.947 1028.16C707.102 1031.66 755.261 1011.96 802.545 1022.47C843.7 1031.22 879.601 1068.44 925.134 1083.76" stroke="#6D5F5E" stroke-width="17.5126" stroke-miterlimit="10" stroke-linecap="round" stroke-linejoin="round"/>
<path d="M269.721 1123.6C331.453 1093.83 324.886 1126.23 408.946 1108.72C446.598 1100.83 488.629 1067.12 540.729 1063.62C582.321 1060.99 627.854 1087.26 677.765 1090.33C720.233 1092.95 768.831 1071.5 816.991 1079.82C859.459 1087.26 897.987 1123.6 944.395 1136.74" stroke="#6D5F5E" stroke-width="17.5126" stroke-miterlimit="10" stroke-linecap="round" stroke-linejoin="round"/>
<path d="M271.038 1173.95C336.711 1150.75 327.516 1183.14 413.766 1169.13C452.732 1162.57 496.513 1129.73 549.489 1126.23C592.395 1123.6 639.241 1150.75 689.59 1152.5C733.372 1154.25 782.407 1130.61 831.005 1137.17C875.224 1143.3 915.941 1178.77 963.225 1189.71" stroke="#6D5F5E" stroke-width="17.5126" stroke-miterlimit="10" stroke-linecap="round" stroke-linejoin="round"/>
<path d="M272.347 1224.3C341.522 1207.66 330.138 1239.62 418.139 1228.68C458.418 1223.86 504.389 1191.02 557.803 1188.4C601.584 1186.21 650.182 1213.79 700.969 1215.1C746.502 1215.98 795.537 1190.59 845.01 1195.4C890.981 1199.78 934.325 1234.37 982.484 1243.13" stroke="#6D5F5E" stroke-width="17.5126" stroke-miterlimit="10" stroke-linecap="round" stroke-linejoin="round"/>
<path d="M273.664 1274.65C345.904 1263.7 332.331 1295.23 422.084 1288.22C463.676 1284.72 511.398 1252.76 566.125 1250.57C611.22 1248.82 660.693 1277.27 712.356 1277.71C759.202 1278.15 809.113 1250.57 859.462 1253.63C907.184 1256.7 953.155 1289.97 1002.19 1295.66" stroke="#6D5F5E" stroke-width="17.5126" stroke-miterlimit="10" stroke-linecap="round" stroke-linejoin="round"/>
</g>
<path d="M745.806 526.549C755.22 527.849 762.494 517.882 759.071 508.349C757.359 503.149 754.364 498.382 749.657 495.349C735.108 486.249 680.762 485.382 652.092 506.182C626.845 525.249 703.014 520.482 745.806 526.549Z" fill="#423232"/>
<path d="M864.331 531.316C856.629 531.316 851.921 521.35 855.773 513.116C857.912 508.783 860.908 504.883 865.187 502.716C878.452 496.216 913.969 500.116 929.802 522.216C943.924 541.716 899.848 530.883 864.331 531.316Z" fill="#423232"/>
<path d="M730.82 581.149C703.433 567.283 660.214 577.683 660.214 577.683" stroke="#423232" stroke-width="13" stroke-miterlimit="10" stroke-linecap="round" stroke-linejoin="round"/>
<path d="M899.853 589.816C899.853 589.816 888.727 577.683 847.647 587.216" stroke="#423232" stroke-width="13" stroke-miterlimit="10" stroke-linecap="round" stroke-linejoin="round"/>
<path d="M807.566 767.297C791.966 776.397 769.433 773.797 749.933 764.264" stroke="#423232" stroke-width="13" stroke-miterlimit="10" stroke-linecap="round" stroke-linejoin="round"/>
<path d="M752.098 749.097C752.098 749.097 752.098 768.164 730.864 775.964" stroke="#423232" stroke-width="13" stroke-miterlimit="10" stroke-linecap="round" stroke-linejoin="round"/>
<path d="M996.085 315.087C996.085 251.387 944.518 199.821 880.818 199.821C824.052 199.821 776.818 240.987 767.285 294.721C778.985 298.621 790.252 303.821 800.652 311.187C796.752 318.987 808.452 318.987 804.552 326.787C851.352 348.454 884.719 383.554 914.185 425.587C961.419 411.287 996.085 367.087 996.085 315.087Z" fill="#423232"/>
<path d="M940.615 573.354C952.315 507.487 948.848 481.487 941.915 450.72C939.748 441.187 937.148 432.087 934.115 422.987C911.148 404.787 886.882 393.087 850.048 387.887C750.815 374.454 672.382 383.554 588.748 401.754C536.315 413.02 547.148 594.154 526.782 617.987C523.315 605.854 506.415 556.454 450.948 563.387C398.515 569.887 378.582 691.22 486.915 732.82C486.048 756.654 463.948 800.854 446.182 810.82C446.182 810.82 443.148 779.187 408.482 737.587C373.815 695.987 304.482 588.087 351.282 430.354C398.082 272.62 609.982 190.287 807.148 270.454C840.948 284.32 868.682 303.821 890.782 324.187C942.782 371.854 970.515 441.187 962.282 510.954C960.115 534.354 953.615 556.887 940.615 573.354Z" fill="#423232"/>
<path d="M369.052 456.354C439.891 456.354 497.318 398.927 497.318 328.087C497.318 257.248 439.891 199.821 369.052 199.821C298.212 199.821 240.785 257.248 240.785 328.087C240.785 398.927 298.212 456.354 369.052 456.354Z" fill="#423232"/>
<path d="M971.817 583.754C959.683 578.554 941.483 574.221 920.25 571.187C923.283 536.954 915.917 510.954 915.917 510.954C915.05 528.721 910.283 558.187 908.55 569.454C878.217 565.987 843.984 563.821 814.517 562.954C812.784 536.954 807.15 506.621 807.15 506.621C807.15 519.187 804.983 547.354 803.25 562.521C795.883 562.521 788.517 562.087 782.017 562.087C777.683 562.087 773.783 562.087 769.45 562.087C765.55 529.587 756.45 491.021 756.45 491.021C757.317 507.921 754.283 543.887 752.983 562.087C645.517 562.954 549.75 573.787 549.75 573.787L540.217 401.754C581.383 314.654 914.617 275.654 947.55 344.121C1007.35 467.187 971.817 583.754 971.817 583.754Z" fill="#423232"/>
<path d="M971.815 583.754C971.815 583.754 954.048 593.721 937.148 591.554C937.148 591.554 939.748 578.121 940.182 574.654C940.615 574.654 965.315 579.421 971.815 583.754Z" fill="#423232"/>
<path opacity="0.6" d="M865.081 677.253C865.081 677.253 870.281 706.72 904.514 721.453C913.181 724.92 922.281 719.287 922.281 709.753C921.848 709.753 867.248 680.72 865.081 677.253Z" fill="#B7AEA9"/>
<path opacity="0.6" d="M782.747 606.187C782.747 606.187 810.48 578.453 824.347 575.42L787.514 584.087L782.747 606.187Z" fill="#B7AEA9"/>
<path opacity="0.6" d="M597.718 677.254C597.718 677.254 613.751 713.654 661.851 722.321C709.951 731.421 753.718 696.754 774.084 638.687C774.084 638.687 757.618 692.421 691.751 702.387C626.318 713.221 597.718 677.254 597.718 677.254Z" fill="#B7AEA9"/>
<path opacity="0.29" d="M675.281 482.687C614.181 482.687 564.347 533.821 563.914 596.221C563.914 625.687 574.747 652.554 592.514 672.054L749.814 513.021C730.314 493.954 704.314 482.687 675.281 482.687Z" fill="#DBC3ED"/>
<path opacity="0.23" d="M749.817 513.021L592.517 672.054C612.45 694.154 640.617 707.587 671.817 707.587C732.05 707.587 781.45 657.754 783.183 595.787C784.05 563.287 771.05 533.821 749.817 513.021Z" fill="#C4ADD8"/>
<path opacity="0.29" d="M928.782 482.687C882.416 482.687 843.416 533.821 841.682 596.221C840.816 621.354 846.449 644.321 855.982 662.954L993.349 526.887C979.049 500.021 955.649 482.687 928.782 482.687Z" fill="#DBC3ED"/>
<path opacity="0.23" d="M993.349 526.453L855.982 662.52C870.282 689.82 893.682 707.586 920.982 707.586C966.482 707.586 1005.48 657.753 1008.08 595.786C1008.95 570.22 1003.32 545.953 993.349 526.453Z" fill="#C4ADD8"/>
<path d="M783.182 596.221C781.882 658.187 732.049 708.021 671.816 708.021C611.582 708.021 563.482 658.187 563.482 596.221C563.916 533.821 613.749 482.687 674.849 482.687C735.949 482.687 784.916 533.821 783.182 596.221Z" stroke="#EBF6F9" stroke-width="13" stroke-miterlimit="10" stroke-linecap="round" stroke-linejoin="round"/>
<path d="M1008.08 596.221C1005.48 658.187 966.481 708.021 920.981 708.021C875.481 708.021 839.948 658.187 841.681 596.221C843.414 533.821 882.414 482.687 928.781 482.687C975.148 482.687 1010.68 533.821 1008.08 596.221Z" stroke="#EBF6F9" stroke-width="13" stroke-miterlimit="10" stroke-linecap="round" stroke-linejoin="round"/>
<path d="M564.78 584.087H503.247" stroke="#EBF6F9" stroke-width="13" stroke-miterlimit="10" stroke-linecap="round" stroke-linejoin="round"/>
<path d="M783.615 584.087C783.615 584.087 835.182 564.153 841.682 584.087" stroke="#EBF6F9" stroke-width="13" stroke-miterlimit="10" stroke-linecap="round" stroke-linejoin="round"/>
<path d="M256.214 1021.59V1025.01" stroke="#8B52A0" stroke-width="10" stroke-linecap="round"/>
<path d="M259.631 1018.18C259.631 1020 259.631 1025.47 259.631 1023.64C259.631 1021.14 259.631 1018.63 259.631 1016.13" stroke="#8B52A0" stroke-width="10" stroke-linecap="round"/>
<path d="M252.114 1028.43C242.152 1028.43 235.138 1036.23 227.359 1041.41C226.446 1042.02 221.885 1044.31 225.233 1044.15C229.469 1043.95 237.099 1042.96 240.496 1039.74C242.884 1037.48 245.325 1035.75 248.165 1034.73C249.595 1034.22 252.11 1033.9 252.797 1032.53" stroke="#8B52A0" stroke-width="10" stroke-linecap="round"/>
<path d="M217.942 1054.4H221.359" stroke="#8B52A0" stroke-width="10" stroke-linecap="round"/>
<path d="M230.244 1048.25C228.797 1048.25 225.214 1047.62 224.056 1048.59C222.01 1050.29 220.219 1052.59 217.943 1054.06C213.169 1057.12 210.249 1062.2 204.958 1063.97" stroke="#8B52A0" stroke-width="10" stroke-linecap="round"/>
</g>
<defs>
<filter id="filter0_d_422_3238" x="776.719" y="675.562" width="98.4902" height="53.9751" filterUnits="userSpaceOnUse" color-interpolation-filters="sRGB">
<feFlood flood-opacity="0" result="BackgroundImageFix"/>
<feColorMatrix in="SourceAlpha" type="matrix" values="0 0 0 0 0 0 0 0 0 0 0 0 0 0 0 0 0 0 127 0" result="hardAlpha"/>
<feOffset dy="4"/>
<feGaussianBlur stdDeviation="2"/>
<feComposite in2="hardAlpha" operator="out"/>
<feColorMatrix type="matrix" values="0 0 0 0 0 0 0 0 0 0 0 0 0 0 0 0 0 0 0.25 0"/>
<feBlend mode="normal" in2="BackgroundImageFix" result="effect1_dropShadow_422_3238"/>
<feBlend mode="normal" in="SourceGraphic" in2="effect1_dropShadow_422_3238" result="shape"/>
</filter>
</defs>
</svg>
