<svg width="1300" height="1300" viewBox="0 0 1300 1300" fill="none" xmlns="http://www.w3.org/2000/svg">
<path d="M650 1300C290.71 1300 0 1008.86 0 650C0 290.71 291.141 0 650 0C1009.29 0 1300 291.141 1300 650C1300.43 1009.29 1009.29 1300 650 1300Z" fill="#72F35D"/>
<mask id="mask0_410_879" style="mask-type:alpha" maskUnits="userSpaceOnUse" x="0" y="0" width="1301" height="1300">
<path d="M650 1300C290.71 1300 0 1008.86 0 650C0 290.71 291.141 0 650 0C1009.29 0 1300 291.141 1300 650C1300.43 1009.29 1009.29 1300 650 1300Z" fill="#F7C0B5"/>
</mask>
<g mask="url(#mask0_410_879)">
<path d="M1015.73 1197.33C1012.7 1199.5 1009.23 1201.66 1006.2 1203.83C1002.73 1206 999.697 1208.16 996.23 1209.9C993.197 1211.63 990.597 1213.36 987.564 1215.1C987.13 1215.53 986.697 1215.53 986.264 1215.96C976.297 1222.03 965.897 1227.66 955.497 1232.86C952.464 1234.6 948.997 1236.33 945.964 1237.63C945.964 1237.63 945.53 1238.06 945.097 1238.06C941.63 1239.8 938.164 1241.53 934.697 1243.26C927.764 1246.73 920.397 1249.76 913.464 1252.8C909.997 1254.53 906.097 1255.83 902.63 1257.13C899.164 1258.43 895.264 1260.16 891.797 1261.46C888.33 1262.76 884.43 1264.5 880.964 1265.8C880.964 1265.8 880.964 1265.8 880.53 1265.8C877.064 1267.1 873.164 1268.4 869.697 1269.7C861.897 1272.3 853.664 1274.9 845.864 1277.5C843.264 1278.36 840.23 1279.23 837.63 1280.1C829.397 1282.7 821.164 1284.86 812.93 1286.6C809.897 1287.46 806.864 1287.9 803.397 1288.76C795.597 1290.5 787.364 1292.23 779.564 1293.96C777.83 1294.4 776.53 1294.4 774.797 1294.83C772.197 1295.26 769.164 1295.7 766.564 1296.13C762.664 1296.56 759.197 1297.43 755.297 1297.86C753.564 1298.3 751.83 1298.3 750.097 1298.73C747.93 1299.16 745.33 1299.6 742.73 1299.6C735.797 1300.46 728.43 1301.33 721.497 1302.2C719.33 1302.63 716.73 1302.63 714.564 1303.06H714.13C711.097 1303.5 708.064 1303.5 705.03 1303.93C701.997 1304.36 698.964 1304.36 695.93 1304.36C694.197 1304.36 692.03 1304.8 690.297 1304.8C686.83 1304.8 683.797 1305.23 680.764 1305.23C676.43 1305.23 672.53 1305.66 668.197 1305.66C663.864 1305.66 659.964 1305.66 655.63 1305.66C652.597 1305.66 649.564 1305.66 646.53 1305.66C464.097 1303.06 299.43 1225.5 182.43 1102.43C182.43 1102.43 182.43 1102 181.997 1102C195.43 1075.56 245.264 1027.9 297.264 988.465C363.13 938.632 456.297 907.865 456.297 907.865C456.297 907.865 517.397 897.898 744.03 945.132C916.93 981.532 990.597 1129.3 1015.73 1197.33Z" fill="#FEE4BF"/>
<path d="M792.13 1065.16C783.03 1109.8 724.097 1136.23 624.863 1096.36C503.097 1046.96 456.297 907.865 456.297 907.865C449.797 808.198 434.63 722.832 434.63 722.832C575.463 710.698 741.863 875.365 741.863 875.365L760.93 956.832C762.663 963.765 766.13 969.832 771.33 974.165C780.43 989.765 798.197 1036.56 792.13 1065.16Z" fill="#FEE4BF"/>
<path d="M771.331 974.599C688.565 970.265 627.465 958.132 562.031 840.699C617.498 889.665 682.931 908.299 751.831 916.965L760.931 956.832C762.665 964.198 766.131 970.265 771.331 974.599Z" fill="#EFBDA5"/>
<path d="M942.497 452.432C950.297 488.832 954.197 518.298 932.964 615.365C911.73 712.432 952.464 809.498 850.197 898.332C781.297 958.132 660.83 969.398 564.63 903.965C532.13 881.865 502.23 851.098 477.964 810.798C458.897 779.165 436.797 749.265 412.097 721.965C377.864 684.698 336.697 609.732 357.064 477.132C389.997 261.332 603.63 236.632 729.73 260.465C855.83 284.298 921.264 356.232 942.497 452.432Z" fill="#FEE4BF"/>
<path d="M527.798 621.865C527.798 621.865 514.365 556.865 451.098 564.665C396.498 571.598 377.431 702.465 501.365 738.865" fill="#FEE4BF"/>
<path d="M497.465 679.498C497.465 679.498 481.865 669.532 483.599 652.198C486.199 631.832 483.599 619.265 474.065 615.365C450.232 605.398 445.465 633.132 446.332 636.598" stroke="#423232" stroke-width="13" stroke-miterlimit="10" stroke-linecap="round" stroke-linejoin="round"/>
<path d="M828.095 721.532C828.095 721.532 844.562 722.398 860.162 703.765C868.829 693.365 876.195 680.365 871.429 676.465C866.662 672.132 788.229 684.265 783.029 694.665C777.829 705.065 808.162 721.532 828.095 721.532Z" fill="#EFBDA5"/>
<path d="M841.095 575.932C841.095 575.932 841.962 617.098 868.395 663.032C880.095 683.398 862.328 716.765 823.762 722.398" stroke="#423232" stroke-width="13" stroke-miterlimit="10" stroke-linecap="round" stroke-linejoin="round"/>
<path opacity="0.42" d="M606.229 743.632C630.879 743.632 650.862 727.141 650.862 706.798C650.862 686.456 630.879 669.965 606.229 669.965C581.579 669.965 561.596 686.456 561.596 706.798C561.596 727.141 581.579 743.632 606.229 743.632Z" fill="#F2A5B2"/>
<path opacity="0.42" d="M926.03 670.832C924.73 695.098 925.164 718.932 923.43 742.765C904.364 738.432 890.497 724.132 890.497 707.232C890.497 689.032 905.664 674.298 926.03 670.832Z" fill="#F2A5B2"/>
<path d="M261.732 1017.23C261.732 1017.23 277.766 1005.09 307.666 1023.29C363.566 1057.53 434.632 1240.39 282.099 1368.23C282.099 1368.23 254.799 1527.69 282.099 1558.03C282.099 1558.03 781.299 1583.16 996.666 1558.03C996.666 1558.03 1000.13 1460.09 986.266 1359.99C968.932 1233.03 946.832 1107.79 864.932 992.526C853.232 976.06 831.566 968.693 818.132 964.793L759.199 947.893C759.199 947.893 811.199 1098.26 666.899 1063.59C578.499 1042.36 505.266 958.293 444.599 919.726C430.299 910.626 410.799 913.66 398.232 918.86C369.632 930.993 263.899 994.26 261.732 1017.23Z" fill="#444444"/>
<mask id="mask1_410_879" style="mask-type:alpha" maskUnits="userSpaceOnUse" x="261" y="913" width="737" height="657">
<path d="M261.732 1017.23C261.732 1017.23 277.766 1005.09 307.666 1023.29C363.566 1057.53 434.632 1240.39 282.099 1368.23C282.099 1368.23 254.799 1527.69 282.099 1558.03C282.099 1558.03 781.299 1583.16 996.666 1558.03C996.666 1558.03 1000.13 1460.09 986.266 1359.99C968.932 1233.03 946.832 1107.79 864.932 992.526C853.232 976.06 831.566 968.693 818.132 964.793L759.199 947.893C759.199 947.893 811.199 1098.26 666.899 1063.59C578.499 1042.36 505.266 958.293 444.599 919.726C430.299 910.626 410.799 913.66 398.232 918.86C369.632 930.993 263.899 994.26 261.732 1017.23Z" fill="#444444"/>
</mask>
<g mask="url(#mask1_410_879)">
<path d="M270.4 1020.26C319.8 977.36 321.1 1008.56 399.1 983.86C433.767 973.026 471.9 939.226 522.6 935.326C561.6 932.293 604.5 957.86 652.6 963.06C692.467 967.393 739.7 950.493 785.634 962.193C824.634 972.16 858.434 1009.43 902.634 1026.33" stroke="#6D5F5E" stroke-width="17.3333" stroke-miterlimit="10" stroke-linecap="round" stroke-linejoin="round"/>
<path d="M271.699 1069.66C327.599 1033.26 324.566 1065.33 405.166 1044.09C441.133 1034.56 480.999 1001.19 532.133 997.726C571.999 994.693 616.199 1020.69 664.733 1024.59C705.466 1028.06 753.133 1008.56 799.933 1018.96C840.666 1027.63 876.199 1064.46 921.266 1079.63" stroke="#6D5F5E" stroke-width="17.3333" stroke-miterlimit="10" stroke-linecap="round" stroke-linejoin="round"/>
<path d="M272.566 1119.06C333.666 1089.59 327.166 1121.66 410.366 1104.33C447.633 1096.53 489.233 1063.16 540.8 1059.69C581.966 1057.09 627.033 1083.09 676.433 1086.13C718.466 1088.73 766.566 1067.49 814.233 1075.73C856.266 1083.09 894.4 1119.06 940.333 1132.06" stroke="#6D5F5E" stroke-width="17.3333" stroke-miterlimit="10" stroke-linecap="round" stroke-linejoin="round"/>
<path d="M273.866 1168.89C338.866 1145.93 329.766 1177.99 415.133 1164.13C453.7 1157.63 497.033 1125.13 549.466 1121.66C591.933 1119.06 638.3 1145.93 688.133 1147.66C731.466 1149.39 780 1125.99 828.1 1132.49C871.866 1138.56 912.166 1173.66 958.966 1184.49" stroke="#6D5F5E" stroke-width="17.3333" stroke-miterlimit="10" stroke-linecap="round" stroke-linejoin="round"/>
<path d="M275.165 1218.73C343.632 1202.26 332.365 1233.89 419.465 1223.06C459.332 1218.29 504.832 1185.79 557.698 1183.19C601.032 1181.03 649.132 1208.33 699.398 1209.63C744.465 1210.49 792.998 1185.36 841.965 1190.13C887.465 1194.46 930.365 1228.69 978.032 1237.36" stroke="#6D5F5E" stroke-width="17.3333" stroke-miterlimit="10" stroke-linecap="round" stroke-linejoin="round"/>
<path d="M276.469 1268.56C347.969 1257.73 334.535 1288.93 423.369 1281.99C464.535 1278.53 511.769 1246.89 565.935 1244.73C610.569 1242.99 659.535 1271.16 710.669 1271.59C757.035 1272.03 806.435 1244.73 856.269 1247.76C903.502 1250.79 949.002 1283.73 997.535 1289.36" stroke="#6D5F5E" stroke-width="17.3333" stroke-miterlimit="10" stroke-linecap="round" stroke-linejoin="round"/>
<path d="M277.332 1318.83C350.999 1313.63 335.832 1343.96 426.832 1340.49C469.299 1338.76 518.699 1307.56 573.732 1306.26C620.099 1305.39 669.932 1334.43 721.932 1334.43C769.599 1334.43 819.865 1305.39 870.132 1306.69C919.099 1307.99 967.199 1339.63 1016.6 1342.66" stroke="#6D5F5E" stroke-width="17.3333" stroke-miterlimit="10" stroke-linecap="round" stroke-linejoin="round"/>
</g>
<path d="M683.943 619.439C673.543 619.006 665.743 610.339 666.61 599.939L667.043 587.806C667.476 577.406 676.143 569.606 686.543 570.473C696.943 570.906 704.743 579.573 703.876 589.973L703.443 602.106C703.01 612.073 694.343 619.873 683.943 619.439Z" fill="black"/>
<path d="M866.374 625.939C856.841 625.506 849.474 617.272 849.908 607.739L850.341 596.472C850.775 586.939 859.008 579.572 868.541 580.006C878.074 580.439 885.441 588.672 885.008 598.206L884.574 609.472C884.141 619.006 875.908 626.372 866.374 625.939Z" fill="black"/>
<path d="M725.975 594.306C725.975 594.306 714.709 578.273 695.209 575.239C679.175 572.639 661.409 580.439 658.809 589.539" stroke="#423232" stroke-width="13" stroke-miterlimit="10" stroke-linecap="round" stroke-linejoin="round"/>
<path d="M853.809 598.206C853.809 598.206 853.809 584.339 873.742 584.339C890.209 584.339 897.142 599.506 897.142 599.506" stroke="#423232" stroke-width="13" stroke-miterlimit="10" stroke-linecap="round" stroke-linejoin="round"/>
<path d="M743.743 524.539C752.843 527.573 761.943 519.339 760.209 509.373C759.343 504.173 757.176 498.973 752.843 495.073C739.843 483.373 686.109 472.973 653.609 488.139C625.009 502.006 702.143 510.673 743.743 524.539Z" fill="#423232"/>
<path d="M873.307 531.473C865.94 534.073 858.14 526.273 859.44 517.173C859.873 512.406 861.607 507.639 865.073 504.173C875.473 493.773 911.007 485.539 933.54 501.573C953.04 515.006 907.107 518.906 873.307 531.473Z" fill="#423232"/>
<path d="M812.33 773.797C801.497 778.564 796.297 769.03 779.397 777.264C767.264 782.897 760.764 784.631 746.03 775.964C736.497 769.897 724.797 778.564 713.53 762.097" stroke="#423232" stroke-width="13" stroke-miterlimit="10" stroke-linecap="round" stroke-linejoin="round"/>
<path d="M1052.43 935.089C1028.17 881.356 1009.53 888.722 1026.43 840.189C1043.33 792.089 1021.67 757.856 977.034 712.356C934.568 669.022 930.234 621.789 931.534 614.856C927.634 633.056 925.901 651.689 925.034 669.889C923.734 694.156 924.168 717.989 922.434 741.822C918.968 795.122 906.401 847.556 849.201 896.956C824.068 918.622 792.001 934.222 756.468 941.589C746.935 970.622 761.234 991.422 792.434 994.889C823.634 998.356 836.634 1045.16 907.268 1067.26C1013 1101.49 1076.7 988.822 1052.43 935.089Z" fill="#423232"/>
<path d="M854.833 410.756C863.933 415.522 871.733 411.189 876.5 401.656C926.767 393.856 938.467 494.389 940.2 500.456C941.933 506.956 942.8 525.156 939.333 574.989C937.167 602.722 1098.37 405.989 951.033 322.789C961.867 306.756 954.067 227.022 863.5 207.522C831 200.589 788.533 230.922 735.233 219.222C526.8 172.856 310.567 217.056 327.467 492.222C331.367 552.456 335.267 617.456 233 660.789C114.267 711.056 120.334 842.356 203.967 869.222C238.634 880.489 124.234 958.489 190.967 1027.82C225.634 1064.22 287.6 990.556 350.433 1030.42C445.333 1090.66 492.567 1063.36 511.2 1039.52C549.333 990.989 502.1 893.489 502.1 893.489C502.1 893.489 520.734 863.589 526.8 847.556C556.267 768.689 486.067 733.156 486.067 733.156C377.733 691.556 397.233 570.656 450.1 563.722C505.567 556.789 522.9 606.189 525.933 618.322C525.933 618.322 574.9 685.922 669.367 531.656C762.967 377.389 814.1 388.656 854.833 410.756Z" fill="#010101"/>
<path d="M475.239 697.089L482.606 711.822C483.906 714.422 486.506 716.156 489.106 716.589L505.573 719.189C512.939 720.056 515.539 729.156 510.339 734.356L498.639 746.056C496.473 748.222 495.606 750.822 496.039 753.856L498.639 770.322C499.939 777.689 492.139 782.889 485.639 779.856L470.906 772.056C468.306 770.756 465.273 770.756 462.673 772.056L447.939 779.856C441.439 783.322 433.639 777.689 434.939 770.322L437.539 753.856C437.973 750.822 437.106 748.222 434.939 746.056L423.239 734.356C418.039 729.156 421.073 720.489 428.006 719.189L444.473 716.589C447.506 716.156 449.673 714.422 450.973 711.822L458.339 697.089C462.673 690.156 472.206 690.156 475.239 697.089Z" fill="white"/>
<path d="M941.072 745.622C938.905 747.789 938.039 750.822 938.472 753.422L941.072 769.889C942.372 777.255 934.572 782.889 928.072 779.422L919.405 774.655C922.439 753.422 923.305 731.755 923.739 710.089L924.605 711.822C925.905 714.422 928.505 716.155 931.105 716.589L947.572 718.755C954.939 719.622 957.972 728.722 952.339 733.922L941.072 745.622Z" fill="white"/>
</g>
</svg>
