<svg width="1300" height="1300" viewBox="0 0 1300 1300" fill="none" xmlns="http://www.w3.org/2000/svg">
<path d="M650 1300C290.71 1300 0 1008.86 0 650C0 290.71 291.141 0 650 0C1009.29 0 1300 291.141 1300 650C1300.43 1009.29 1009.29 1300 650 1300Z" fill="#F88778"/>
<mask id="mask0_422_4063" style="mask-type:alpha" maskUnits="userSpaceOnUse" x="0" y="0" width="1300" height="1300">
<path d="M650 1300C290.71 1300 0 1008.86 0 650C0 290.71 291.141 0 650 0C1009.29 0 1300 291.141 1300 650C1300.43 1009.29 1009.29 1300 650 1300Z" fill="#F7C0B5"/>
</mask>
<g mask="url(#mask0_422_4063)">
<path d="M1012.27 1197.33C1009.23 1199.5 1005.77 1201.67 1002.73 1203.83C999.268 1206 996.235 1208.17 992.768 1209.9C989.735 1211.63 987.135 1213.37 984.101 1215.1C983.668 1215.53 983.235 1215.53 982.801 1215.97C972.835 1222.03 962.435 1227.67 952.035 1232.87C949.001 1234.6 945.535 1236.33 942.501 1237.63C942.501 1237.63 942.068 1238.07 941.635 1238.07C938.168 1239.8 934.701 1241.53 931.235 1243.27C924.301 1246.73 916.935 1249.77 910.001 1252.8C906.535 1254.53 902.635 1255.83 899.168 1257.13C895.701 1258.43 891.801 1260.17 888.335 1261.47C884.868 1262.77 880.968 1264.5 877.501 1265.8C877.501 1265.8 877.501 1265.8 877.068 1265.8C873.601 1267.1 869.701 1268.4 866.235 1269.7C858.435 1272.3 850.201 1274.9 842.401 1277.5C839.801 1278.37 836.768 1279.23 834.168 1280.1C825.935 1282.7 817.702 1284.87 809.468 1286.6C806.435 1287.47 803.401 1287.9 799.935 1288.77C792.135 1290.5 783.901 1292.23 776.101 1293.97C774.368 1294.4 773.068 1294.4 771.335 1294.83C768.735 1295.27 765.701 1295.7 763.101 1296.13C759.201 1296.57 755.735 1297.43 751.835 1297.87C750.102 1298.3 748.368 1298.3 746.635 1298.73C744.468 1299.17 741.868 1299.6 739.268 1299.6C732.335 1300.47 724.968 1301.33 718.035 1302.2C715.868 1302.63 713.268 1302.63 711.102 1303.07H710.668C707.635 1303.5 704.602 1303.5 701.568 1303.93C698.535 1304.37 695.502 1304.37 692.468 1304.37C690.735 1304.37 688.568 1304.8 686.835 1304.8C683.368 1304.8 680.335 1305.23 677.302 1305.23C672.968 1305.23 669.068 1305.67 664.735 1305.67C660.402 1305.67 656.502 1305.67 652.168 1305.67C649.135 1305.67 646.102 1305.67 643.068 1305.67C460.635 1303.07 295.968 1225.5 178.968 1102.43C178.968 1102.43 178.968 1102 178.535 1102C191.968 1075.57 241.802 1027.9 293.802 988.466C359.668 938.632 452.835 907.866 452.835 907.866C452.835 907.866 513.935 897.899 740.568 945.132C913.468 981.532 987.135 1129.3 1012.27 1197.33Z" fill="#C99589"/>
<path d="M788.67 1065.16C779.57 1109.8 720.636 1136.23 621.403 1096.36C499.637 1046.96 452.837 907.865 452.837 907.865C446.337 808.198 431.17 722.832 431.17 722.832C572.003 710.698 738.403 875.365 738.403 875.365L757.47 956.832C759.203 963.765 762.67 969.832 767.87 974.165C776.97 989.765 794.736 1036.56 788.67 1065.16Z" fill="#C99589"/>
<path d="M767.868 974.598C685.102 970.265 624.002 958.132 558.568 840.698C614.035 889.665 679.468 908.298 748.368 916.965L757.468 956.832C759.202 964.198 762.668 970.265 767.868 974.598Z" fill="#A56663"/>
<path d="M939.036 452.432C946.836 488.832 950.736 518.299 929.503 615.365C908.269 712.432 949.002 809.499 846.736 898.332C777.836 958.132 657.369 969.399 561.169 903.965C528.669 881.865 498.769 851.099 474.503 810.799C455.436 779.165 433.336 749.265 408.636 721.965C374.403 684.699 333.236 609.732 353.603 477.132C386.536 261.332 600.169 236.632 726.269 260.466C852.369 284.299 917.803 356.232 939.036 452.432Z" fill="#C99589"/>
<path d="M524.338 621.865C524.338 621.865 510.905 556.865 447.638 564.665C393.038 571.599 373.971 702.465 497.905 738.865" fill="#C99589"/>
<path d="M493.999 679.498C493.999 679.498 478.399 669.532 480.133 652.198C482.733 631.832 480.133 619.265 470.599 615.365C446.766 605.398 441.999 633.132 442.866 636.598" stroke="#423232" stroke-width="13.4786" stroke-miterlimit="10" stroke-linecap="round" stroke-linejoin="round"/>
<path d="M824.639 721.533C824.639 721.533 841.106 722.399 856.706 703.766C865.373 693.366 872.739 680.366 867.973 676.466C863.206 672.133 784.773 684.266 779.573 694.666C774.373 705.066 804.706 721.533 824.639 721.533Z" fill="#A56663"/>
<path d="M837.638 575.932C837.638 575.932 838.505 617.099 864.938 663.032C876.638 683.399 858.871 716.765 820.305 722.399" stroke="#423232" stroke-width="13.4786" stroke-miterlimit="10" stroke-linecap="round" stroke-linejoin="round"/>
<path d="M377.174 903.566C377.174 903.566 440.44 878.433 452.14 877.566L453.007 887.533C453.007 887.533 402.74 909.199 399.707 912.666C396.674 916.133 377.174 903.566 377.174 903.566Z" fill="#7E5D6D"/>
<path d="M1158.04 1466.03H62.5762C62.5762 1466.03 69.0762 1264.97 134.943 1121.53C184.776 1013.2 304.376 941.699 391.476 910.499C416.176 901.832 435.243 892.299 453.009 887.532C453.009 889.699 454.309 905.732 454.309 907.466C454.309 907.466 526.243 1006.7 686.576 1005.4C782.776 1004.97 755.909 942.566 755.909 942.566C764.143 940.832 771.943 938.666 779.743 936.066C782.343 935.199 800.542 927.832 802.709 926.966C858.609 941.699 927.076 983.299 1026.31 1066.5C1138.11 1160.53 1158.04 1466.03 1158.04 1466.03Z" fill="#E89D6B"/>
<mask id="mask1_422_4063" style="mask-type:alpha" maskUnits="userSpaceOnUse" x="62" y="887" width="1097" height="580">
<path d="M1158.04 1466.03H62.5762C62.5762 1466.03 69.0762 1264.97 134.943 1121.53C184.776 1013.2 304.376 941.699 391.476 910.499C416.176 901.833 435.243 892.299 453.009 887.532C453.009 889.699 454.309 905.732 454.309 907.466C454.309 907.466 526.243 1006.7 686.576 1005.4C782.776 1004.97 755.909 942.566 755.909 942.566C764.143 940.833 771.943 938.666 779.743 936.066C782.343 935.199 800.542 927.832 802.709 926.966C858.609 941.699 927.076 983.299 1026.31 1066.5C1138.11 1160.53 1158.04 1466.03 1158.04 1466.03Z" fill="#E89D6B"/>
</mask>
<g mask="url(#mask1_422_4063)">
<path d="M287.475 877.999C311.308 878.866 323.441 879.299 347.275 878.866C368.508 891.433 378.908 897.499 400.575 909.199C422.675 907.899 433.941 907.033 456.041 904.433C478.141 914.833 488.975 920.033 511.075 929.999C533.608 926.533 544.875 924.366 566.974 920.033C589.508 928.699 601.208 932.599 623.741 939.966C646.274 934.333 657.541 930.866 680.074 924.366C703.474 930.433 715.174 933.466 738.574 938.666C761.108 930.433 772.374 926.533 794.908 917.433C818.741 921.333 830.874 923.066 854.708 926.099C876.808 915.699 888.074 910.499 910.174 899.233C934.441 900.533 946.574 900.966 970.841 901.399C992.508 888.399 1003.34 881.899 1025.01 868.466C1052.31 866.299 1065.74 864.999 1093.04 861.966C1090.87 872.366 1090.01 877.566 1088.27 887.966C1065.74 890.566 1054.04 891.866 1031.51 893.599C1009.41 907.466 998.574 914.399 976.041 927.399C951.341 927.399 939.208 926.966 914.508 925.666C891.974 936.933 880.708 942.566 858.174 952.966C833.908 949.933 821.774 948.199 797.508 944.733C774.974 953.833 763.274 958.166 740.741 965.966C716.908 960.766 705.208 957.733 681.808 951.666C659.274 958.166 647.575 961.633 625.041 967.266C602.075 959.466 590.375 955.566 567.408 946.899C544.875 951.233 533.608 953.399 510.641 956.866C488.108 946.899 477.275 942.133 454.741 931.299C432.208 933.466 420.941 934.333 398.841 935.633C377.175 923.933 366.341 917.866 345.108 904.866C325.175 904.866 315.208 904.866 295.275 903.999C292.241 894.033 290.941 888.833 287.475 877.999Z" fill="#FFFF8D"/>
<path d="M281.41 988.066C305.243 988.5 316.943 988.5 341.21 987.633C362.877 999.766 373.71 1005.4 395.377 1016.67C417.477 1014.93 428.31 1013.63 450.41 1010.6C472.51 1020.57 483.777 1025.33 506.31 1034.43C528.41 1030.53 539.243 1027.93 561.777 1023.17C584.743 1030.97 596.443 1034.87 619.41 1041.8C641.51 1035.3 652.777 1032.27 674.877 1024.9C698.277 1030.53 710.41 1033.13 733.81 1037.9C755.91 1029.23 766.743 1024.9 788.843 1015.37C813.11 1018.83 824.81 1020.13 849.077 1022.3C870.743 1011.47 881.577 1005.83 903.243 994.133C927.51 995 940.077 995 964.343 994.566C985.577 981.566 995.977 974.633 1017.21 960.766C1044.51 958.166 1058.38 956.866 1085.68 952.966C1083.94 963.366 1083.51 968.566 1081.78 978.533C1058.81 981.566 1047.54 982.866 1025.01 985.033C1003.34 999.333 992.943 1006.27 971.277 1019.7C946.577 1020.13 934.01 1020.13 909.31 1019.27C887.21 1030.97 876.377 1036.6 854.277 1047.87C830.01 1045.7 817.443 1044.4 793.177 1040.93C771.077 1050.47 759.81 1054.8 737.277 1063.47C713.443 1058.7 701.31 1056.1 677.477 1050.47C654.943 1057.83 644.11 1060.87 621.577 1067.37C598.177 1060.43 586.477 1056.53 563.51 1048.73C540.977 1053.5 530.143 1056.1 507.61 1060C485.077 1050.9 473.377 1046.13 450.843 1035.73C428.743 1038.33 417.477 1039.63 395.377 1041.8C373.277 1030.53 362.443 1024.47 340.777 1012.33C320.843 1012.77 310.877 1013.2 291.377 1012.77C287.044 1003.23 285.31 998.033 281.41 988.066Z" fill="#FFFF8D"/>
<path d="M275.338 1096.4C298.738 1095.97 310.871 1095.53 334.705 1094.67C356.371 1106.37 367.638 1112 389.738 1122.4C411.404 1119.8 422.238 1118.5 443.904 1115.03C466.438 1124.57 477.704 1128.9 500.671 1137.57C522.338 1132.8 533.171 1130.63 555.271 1125C578.671 1132.37 590.371 1135.83 613.771 1142.33C635.438 1135.4 646.271 1131.93 667.938 1124.57C691.771 1129.77 703.904 1131.93 727.738 1136.27C749.404 1127.17 760.238 1122.83 781.471 1112.87C805.738 1115.47 817.871 1116.77 842.138 1118.5C863.371 1107.23 874.204 1101.6 895.004 1089.47C919.704 1089.47 931.838 1089.47 956.538 1088.6C977.338 1075.17 987.738 1068.23 1008.1 1054.37C1035.4 1051.33 1049.27 1049.6 1076.57 1045.27C1075.27 1055.23 1074.84 1060.43 1073.97 1070.83C1051 1074.3 1039.74 1076.03 1016.77 1078.63C995.971 1092.93 985.138 1100.3 964.338 1113.73C939.204 1114.6 926.638 1115.03 901.938 1114.6C880.271 1126.73 869.871 1132.37 848.204 1144.07C823.504 1142.33 811.371 1141.47 786.671 1138.43C765.004 1148.4 754.171 1153.17 732.071 1162.27C707.804 1158.37 695.671 1155.77 671.838 1150.57C649.738 1158.37 638.904 1161.83 616.804 1168.77C592.971 1162.27 581.271 1158.8 557.871 1151.43C535.771 1157.07 524.938 1159.67 502.838 1164C479.871 1155.33 468.171 1150.57 445.638 1141.03C423.538 1144.5 412.704 1145.8 390.604 1148.4C368.071 1137.57 357.238 1131.93 335.138 1120.23C315.638 1121.1 305.671 1121.53 286.171 1121.97C281.838 1112 279.671 1106.8 275.338 1096.4Z" fill="#FFFF8D"/>
<path d="M268.836 1204.3C292.236 1203.43 303.936 1202.57 327.336 1200.83C349.436 1212.1 360.703 1217.3 383.236 1227.27C404.469 1224.23 415.303 1222.5 436.969 1218.6C459.936 1227.7 471.636 1232.03 494.602 1239.83C515.836 1234.63 526.669 1232.03 548.336 1225.97C571.736 1232.9 583.869 1235.93 607.269 1241.57C628.502 1234.2 639.336 1230.3 660.569 1222.5C684.836 1226.83 696.536 1229 720.802 1232.47C742.036 1222.93 752.436 1218.17 773.669 1208.2C798.369 1210.37 810.502 1211.23 835.202 1212.53C856.002 1201.27 866.402 1195.2 887.202 1183.07C911.902 1182.63 924.469 1182.2 949.169 1180.9C969.536 1167.47 979.502 1160.53 999.436 1146.23C1027.17 1142.77 1041.04 1140.6 1068.34 1135.83C1067.47 1145.8 1067.47 1151 1066.6 1160.97C1043.64 1164.87 1032.37 1166.6 1009.4 1169.63C989.036 1184.37 978.636 1191.3 958.269 1205.17C933.136 1206.47 920.569 1206.9 895.436 1207.33C874.636 1219.9 863.802 1225.97 843.002 1237.23C818.302 1235.93 805.736 1235.5 781.036 1233.33C759.802 1243.73 748.969 1248.5 727.736 1258.03C703.036 1254.57 690.902 1252.4 666.636 1248.07C644.969 1256.3 634.136 1260.2 612.469 1267.57C588.636 1261.93 576.503 1258.47 552.669 1251.97C531.003 1258.03 520.169 1260.63 498.503 1265.83C475.103 1257.6 463.403 1253.7 440.003 1244.6C418.336 1248.5 407.503 1250.23 385.836 1253.27C362.869 1242.87 351.603 1237.67 329.503 1226.4C310.003 1228.13 300.469 1228.57 280.969 1229.43C276.203 1219.47 273.603 1214.27 268.836 1204.3Z" fill="#FFFF8D"/>
<path d="M262.771 1310.9C285.738 1309.17 297.438 1308.3 320.838 1305.7C343.371 1316.1 354.638 1321.3 377.605 1330.83C398.838 1327.37 409.238 1325.2 430.471 1320.87C453.871 1329.1 465.571 1333.43 488.971 1340.8C510.205 1335.17 520.605 1332.13 541.405 1325.63C565.238 1331.7 577.371 1334.73 601.205 1339.93C622.005 1332.13 632.405 1328.23 653.638 1319.57C677.905 1323.47 690.038 1325.2 714.738 1328.23C735.538 1318.27 745.505 1313.5 766.305 1303.1C791.005 1304.83 803.571 1305.27 828.271 1306.13C848.638 1294.43 858.605 1288.37 878.971 1275.8C904.105 1274.93 916.238 1274.5 941.371 1272.77C960.871 1258.9 970.838 1251.97 990.338 1237.67C1018.07 1233.77 1031.94 1231.6 1059.67 1226.4C1059.24 1236.37 1059.24 1241.13 1058.8 1251.1C1035.84 1255.43 1024.57 1257.17 1001.6 1260.63C981.671 1275.37 971.705 1282.73 951.771 1296.6C926.638 1298.77 913.638 1299.2 888.505 1300.07C868.138 1312.63 857.738 1319.13 837.371 1330.83C812.238 1330.4 799.671 1329.97 774.538 1328.23C753.738 1339.07 743.338 1343.83 722.538 1353.8C697.838 1350.77 685.271 1349.03 660.571 1345.13C639.338 1353.8 628.938 1357.7 607.705 1365.5C583.438 1360.3 571.305 1357.27 547.038 1351.2C525.805 1357.7 514.971 1360.73 493.738 1366.37C469.905 1359 458.205 1355.1 434.371 1346.43C413.138 1350.77 402.305 1352.93 381.071 1356.4C358.105 1346.87 346.405 1341.67 323.438 1331.27C304.371 1333.43 294.838 1334.3 275.771 1335.6C270.571 1326.07 267.971 1320.87 262.771 1310.9Z" fill="#FFFF8D"/>
<path d="M436.546 947.766C436.546 947.766 459.946 1034 640.646 1055.67C821.779 1076.9 823.512 962.933 783.646 898.8C743.779 834.666 468.613 850.266 439.146 881.033C409.679 911.8 436.546 947.766 436.546 947.766Z" fill="white"/>
</g>
<path d="M277.078 1466.03L257.578 1305.27" stroke="#544D4D" stroke-width="13.4786" stroke-miterlimit="10" stroke-linecap="round" stroke-linejoin="round"/>
<path d="M1033.67 1250.67C1033.67 1250.67 1020.67 1282.3 1024.57 1313.93C1028.47 1345.57 1039.74 1391.93 1023.71 1466.03" stroke="#544D4D" stroke-width="13.4786" stroke-miterlimit="10" stroke-linecap="round" stroke-linejoin="round"/>
<path d="M377.175 903.567C385.409 900.967 399.708 903.567 404.042 910.934C420.942 938.667 461.675 1019.7 478.575 1180.47C492.008 1306.13 471.642 1532.33 471.642 1532.33L51.3086 1512.4C51.3086 1512.4 63.8753 1298.77 100.709 1155.33C136.675 1016.23 231.142 953.833 377.175 903.567Z" fill="#755B7A"/>
<path d="M813.113 930C813.113 930 947.013 1181.77 908.013 1518.03H1197.48C1197.48 1518.03 1195.75 1289.67 1130.75 1144.93C1065.75 1000.2 838.247 919.167 838.247 919.167C838.247 919.167 823.947 926.1 813.113 930Z" fill="#755B7A"/>
<path d="M813.105 930L802.705 926.966C802.705 926.966 817.872 919.6 824.372 915.266L828.272 913.1C828.272 913.1 849.072 922.633 856.439 926.1C863.805 929.566 830.872 945.6 830.872 945.6C830.872 945.6 814.405 930.433 813.105 930Z" fill="#7E5D6D"/>
<path d="M473.812 1140.17C473.812 1140.17 459.079 1098.13 425.712 1060.87C394.946 1026.2 338.612 972.467 334.712 960.333C327.346 935.633 373.279 842.467 445.212 809.967C445.212 810.4 445.212 810.833 445.212 811.267C445.212 811.7 445.212 812.134 445.212 813C445.212 813.867 445.212 814.733 445.646 815.6C445.646 816.9 446.079 818.2 446.079 819.5C446.079 820.367 446.079 820.8 446.512 821.667C449.546 847.667 452.146 876.7 454.312 907.467V907.9C454.312 907.9 434.379 914.4 448.679 1013.63C452.579 1037.47 467.312 1079.93 473.812 1140.17Z" fill="#4B3C4F"/>
<path d="M888.945 1153.6C888.945 1153.6 859.911 1040.93 845.611 1004.97C831.311 969.432 804.445 929.132 803.145 926.966C820.045 919.166 835.211 909.199 848.645 897.499C862.078 885.799 872.911 874.099 882.011 862.399C892.845 874.532 957.411 947.332 964.345 987.199C972.145 1031.4 915.811 1050.47 888.945 1153.6Z" fill="#4B3C4F"/>
<path d="M683.946 619.439C673.546 619.005 665.746 610.339 666.613 599.939L667.046 587.805C667.479 577.405 676.146 569.605 686.546 570.472C696.946 570.905 704.746 579.572 703.879 589.972L703.446 602.105C703.013 612.072 694.346 619.872 683.946 619.439Z" fill="#423232"/>
<path d="M866.379 625.939C856.846 625.506 849.479 617.272 849.913 607.739L850.346 596.472C850.779 586.939 859.013 579.572 868.546 580.006C878.079 580.439 885.446 588.672 885.013 598.206L884.579 609.472C884.146 619.006 875.913 626.372 866.379 625.939Z" fill="#423232"/>
<path d="M725.973 594.306C725.973 594.306 714.707 578.272 695.207 575.239C679.173 572.639 661.407 580.439 658.807 589.539" stroke="#423232" stroke-width="13.4786" stroke-miterlimit="10" stroke-linecap="round" stroke-linejoin="round"/>
<path d="M853.807 598.206C853.807 598.206 853.807 584.339 873.74 584.339C890.207 584.339 897.14 599.506 897.14 599.506" stroke="#423232" stroke-width="13.4786" stroke-miterlimit="10" stroke-linecap="round" stroke-linejoin="round"/>
<path d="M743.742 524.539C752.842 527.572 761.942 519.339 760.208 509.372C759.342 504.172 757.175 498.972 752.842 495.072C739.842 483.372 686.108 472.972 653.608 488.139C625.008 502.005 702.142 510.672 743.742 524.539Z" fill="#423232"/>
<path d="M873.31 531.472C865.944 534.072 858.144 526.272 859.444 517.172C859.877 512.405 861.61 507.638 865.077 504.172C875.477 493.772 911.01 485.538 933.544 501.572C953.044 515.005 907.11 518.905 873.31 531.472Z" fill="#423232"/>
<path d="M804.332 777.193C804.781 792.019 782.766 829.759 740.083 812.237C699.198 795.614 687.068 717.438 745.475 754.729C776.026 774.048 794.447 777.193 804.332 777.193Z" fill="white"/>
<path d="M812.87 775.396C812.87 775.396 794 785.729 745.477 754.729C687.519 717.438 699.2 795.614 740.085 812.237C782.768 829.759 804.783 791.57 804.334 777.193" stroke="#423232" stroke-width="13.4786" stroke-miterlimit="10" stroke-linecap="round" stroke-linejoin="round"/>
<path d="M705.941 765.961C705.941 765.961 736.493 786.179 745.479 784.382C754.914 783.034 753.566 796.063 796.248 797.411" stroke="#423232" stroke-width="13.4786" stroke-miterlimit="10" stroke-linecap="round" stroke-linejoin="round"/>
<path d="M971.54 366.631C940.773 477.998 852.807 455.898 767.873 429.031C468.44 334.131 520.007 624.031 516.107 618.831C506.574 600.631 486.207 578.098 447.64 582.865C397.374 589.365 377.007 700.731 471.04 746.665C468.874 766.598 454.574 783.498 438.107 795.631C393.907 758.365 325.44 686.431 299.874 582.431C290.34 544.298 294.24 512.665 298.14 487.965C310.707 411.265 358.374 395.231 358.374 395.231C360.107 314.198 444.607 224.932 586.74 227.965C729.307 230.132 1002.31 255.265 971.54 366.631Z" fill="#DFC645"/>
<path d="M975.006 500.531C970.672 528.698 958.539 550.365 941.639 566.398C948.139 519.165 944.672 496.631 939.039 470.198C926.906 416.031 900.906 369.231 857.572 334.565C879.239 332.832 901.339 337.598 921.272 350.165C921.272 350.165 949.872 370.098 960.706 434.231C964.172 452.865 978.906 472.798 975.006 500.531Z" fill="#DFC645"/>
<path d="M621.406 228.399C621.406 228.399 786.073 164.266 844.139 185.499C892.239 203.266 874.906 252.666 874.906 252.666C874.906 252.666 957.24 231.866 1001.87 285.599C1046.51 339.332 994.939 409.099 965.473 434.665C965.473 434.665 1011.84 446.799 1007.07 486.232C1001.44 535.632 941.206 565.965 941.206 565.965C941.206 565.965 962.006 523.499 958.973 482.765C955.939 442.032 960.706 412.999 930.806 383.532C900.906 353.632 829.84 381.799 753.14 343.666C676.873 305.532 621.406 228.399 621.406 228.399Z" fill="#DFC645"/>
<path opacity="0.6" d="M582.174 675.396C582.174 675.396 588.241 688.396 606.441 690.129C624.64 691.863 845.64 641.596 853.44 642.896C861.24 644.196 874.24 648.963 874.24 648.963L925.374 681.463L926.24 658.929C926.24 658.929 897.64 623.396 827.874 626.863C758.107 630.329 582.174 675.396 582.174 675.396Z" fill="#B7AEA9"/>
<path d="M592.574 469.997C575.674 469.563 561.374 482.997 561.374 499.897V539.33C561.374 559.263 545.34 575.73 524.974 575.73H510.674L524.974 601.297C544.907 601.297 561.374 617.33 561.374 637.696V651.563C561.374 670.197 577.84 684.063 596.04 681.463L837.84 643.763C843.04 642.897 847.807 642.896 853.007 643.33L854.307 478.23L592.574 469.997Z" fill="#5E4949"/>
<path d="M944.437 480.396L854.737 477.796L853.438 642.896C860.804 643.763 867.737 645.496 874.237 648.963L922.771 673.23C935.337 679.296 950.071 671.063 951.371 657.196L964.804 502.93C965.671 491.23 956.571 480.83 944.437 480.396Z" fill="#423232"/>
<path d="M657.137 538.896L908.037 544.53C921.903 544.963 932.737 557.096 931.003 570.963C929.703 583.096 919.737 592.196 907.603 592.196H656.703C643.27 592.196 632.437 580.93 632.87 567.496L633.303 561.863C633.737 548.43 644.57 538.896 657.137 538.896Z" fill="#E26076" stroke="#423232" stroke-width="13.4786" stroke-miterlimit="10" stroke-linecap="round" stroke-linejoin="round"/>
<path d="M688.34 573.996H664.507C659.74 573.996 655.84 570.096 655.84 565.329C655.84 560.563 659.74 556.663 664.507 556.663H688.34C693.106 556.663 697.006 560.563 697.006 565.329C696.573 570.096 693.106 573.996 688.34 573.996Z" fill="white"/>
</g>
</svg>
