<svg width="1300" height="1300" viewBox="0 0 1300 1300" fill="none" xmlns="http://www.w3.org/2000/svg">
<path d="M650 1300C290.71 1300 0 1008.86 0 650C0 290.71 291.141 0 650 0C1009.29 0 1300 291.141 1300 650C1300.43 1009.29 1009.29 1300 650 1300Z" fill="#9BB0FD"/>
<mask id="mask0_422_2703" style="mask-type:alpha" maskUnits="userSpaceOnUse" x="0" y="0" width="1300" height="1300">
<path d="M650 1300C290.71 1300 0 1008.86 0 650C0 290.71 291.141 0 650 0C1009.29 0 1300 291.141 1300 650C1300.43 1009.29 1009.29 1300 650 1300Z" fill="#F7C0B5"/>
</mask>
<g mask="url(#mask0_422_2703)">
<path d="M1014.01 1197.33C1010.97 1199.5 1007.51 1201.66 1004.47 1203.83C1001.01 1206 997.973 1208.16 994.507 1209.9C991.473 1211.63 988.873 1213.36 985.84 1215.1C985.407 1215.53 984.973 1215.53 984.54 1215.96C974.573 1222.03 964.173 1227.66 953.773 1232.86C950.74 1234.6 947.273 1236.33 944.24 1237.63C944.24 1237.63 943.807 1238.06 943.373 1238.06C939.907 1239.8 936.44 1241.53 932.973 1243.26C926.04 1246.73 918.673 1249.76 911.74 1252.8C908.273 1254.53 904.373 1255.83 900.907 1257.13C897.44 1258.43 893.54 1260.16 890.073 1261.46C886.607 1262.76 882.707 1264.5 879.24 1265.8C879.24 1265.8 879.24 1265.8 878.807 1265.8C875.34 1267.1 871.44 1268.4 867.973 1269.7C860.173 1272.3 851.94 1274.9 844.14 1277.5C841.54 1278.36 838.507 1279.23 835.907 1280.1C827.673 1282.7 819.44 1284.86 811.207 1286.6C808.173 1287.46 805.14 1287.9 801.673 1288.76C793.873 1290.5 785.64 1292.23 777.84 1293.96C776.107 1294.4 774.807 1294.4 773.073 1294.83C770.473 1295.26 767.44 1295.7 764.84 1296.13C760.94 1296.56 757.473 1297.43 753.573 1297.86C751.84 1298.3 750.107 1298.3 748.373 1298.73C746.207 1299.16 743.607 1299.6 741.007 1299.6C734.073 1300.46 726.707 1301.33 719.773 1302.2C717.607 1302.63 715.007 1302.63 712.84 1303.06H712.407C709.373 1303.5 706.34 1303.5 703.307 1303.93C700.273 1304.36 697.24 1304.36 694.207 1304.36C692.473 1304.36 690.307 1304.8 688.573 1304.8C685.107 1304.8 682.073 1305.23 679.04 1305.23C674.707 1305.23 670.807 1305.66 666.473 1305.66C662.14 1305.66 658.24 1305.66 653.907 1305.66C650.873 1305.66 647.84 1305.66 644.807 1305.66C462.373 1303.06 297.707 1225.5 180.707 1102.43C180.707 1102.43 180.707 1102 180.273 1102C193.707 1075.56 243.54 1027.9 295.54 988.465C361.407 938.632 454.573 907.865 454.573 907.865C454.573 907.865 515.673 897.898 742.307 945.132C915.207 981.532 988.873 1129.3 1014.01 1197.33Z" fill="#EDBF99"/>
<path d="M790.41 1065.16C781.31 1109.8 722.377 1136.23 623.143 1096.36C501.377 1046.96 454.577 907.865 454.577 907.865C448.077 808.198 432.91 722.832 432.91 722.832C573.743 710.698 740.143 875.365 740.143 875.365L759.21 956.832C760.943 963.765 764.41 969.832 769.61 974.165C778.71 989.765 796.477 1036.56 790.41 1065.16Z" fill="#EDBF99"/>
<path d="M769.603 974.599C686.836 970.265 625.736 958.132 560.303 840.699C615.769 889.665 681.203 908.299 750.103 916.965L759.203 956.832C760.936 964.198 764.403 970.265 769.603 974.599Z" fill="#EFBDA5"/>
<path d="M940.778 452.432C948.578 488.832 952.478 518.298 931.245 615.365C910.012 712.432 950.745 809.498 848.478 898.332C779.578 958.132 659.112 969.398 562.912 903.965C530.412 881.865 500.512 851.098 476.245 810.798C457.178 779.165 435.078 749.265 410.378 721.965C376.145 684.698 334.978 609.732 355.345 477.132C388.278 261.332 601.912 236.632 728.012 260.465C854.112 284.298 919.545 356.232 940.778 452.432Z" fill="#EDBF99"/>
<path d="M526.074 621.865C526.074 621.865 512.641 556.865 449.374 564.665C394.774 571.598 375.708 702.465 499.641 738.865" fill="#EDBF99"/>
<path d="M495.742 679.498C495.742 679.498 480.142 669.532 481.875 652.198C484.475 631.832 481.875 619.265 472.342 615.365C448.508 605.398 443.742 633.132 444.608 636.598" stroke="#665858" stroke-width="13" stroke-miterlimit="10" stroke-linecap="round" stroke-linejoin="round"/>
<g filter="url(#filter0_d_422_2703)">
<path d="M826.376 721.532C826.376 721.532 842.842 722.398 858.442 703.765C867.109 693.365 874.476 680.365 869.709 676.465C864.942 672.132 786.509 684.265 781.309 694.665C776.109 705.065 806.442 721.532 826.376 721.532Z" fill="#EFBDA5"/>
<path d="M826.402 721.032L826.401 721.032L826.389 721.032H826.376C816.52 721.032 804.039 716.951 794.666 711.565C789.981 708.872 786.113 705.875 783.743 702.937C781.363 699.985 780.589 697.224 781.756 694.889C782.033 694.335 782.578 693.733 783.41 693.096C784.237 692.463 785.319 691.818 786.627 691.167C789.245 689.865 792.725 688.564 796.793 687.302C804.925 684.778 815.344 682.426 825.761 680.532C836.176 678.638 846.574 677.205 854.659 676.516C858.704 676.172 862.158 676.014 864.743 676.076C866.037 676.107 867.099 676.193 867.902 676.334C868.303 676.404 868.629 676.486 868.881 676.577C869.139 676.67 869.292 676.761 869.373 676.835L869.382 676.844L869.392 676.852C870.407 677.682 870.829 679.03 870.68 680.873C870.531 682.719 869.813 684.973 868.659 687.468C866.355 692.451 862.376 698.263 858.059 703.444C850.32 712.688 842.381 717.079 836.394 719.164C833.399 720.207 830.89 720.673 829.134 720.879C828.256 720.982 827.567 721.02 827.1 721.033C826.867 721.039 826.689 721.039 826.572 721.037C826.513 721.036 826.469 721.035 826.44 721.034L826.409 721.033L826.403 721.032L826.402 721.032Z" stroke="black"/>
</g>
<path d="M839.372 575.932C839.372 575.932 840.239 617.098 866.672 663.032C878.372 683.398 860.606 716.765 822.039 722.398" stroke="#665858" stroke-width="7" stroke-miterlimit="10" stroke-linecap="round" stroke-linejoin="round"/>
<path opacity="0.42" d="M604.504 743.632C629.155 743.632 649.138 727.141 649.138 706.798C649.138 686.456 629.155 669.965 604.504 669.965C579.854 669.965 559.871 686.456 559.871 706.798C559.871 727.141 579.854 743.632 604.504 743.632Z" fill="#F0CFB6"/>
<path opacity="0.42" d="M924.307 670.832C923.007 695.098 923.44 718.932 921.707 742.765C902.64 738.432 888.773 724.132 888.773 707.232C888.773 689.032 903.94 674.298 924.307 670.832Z" fill="#E0C5AC"/>
<path d="M376.053 893.553C376.053 893.553 439.974 868.16 451.795 867.284L452.671 877.354C452.671 877.354 401.884 899.245 398.819 902.747C396.192 905.812 376.053 893.553 376.053 893.553Z" fill="#7E5D6D"/>
<path d="M1164.55 1461.4H57.7539C57.7539 1461.4 64.3212 1258.25 130.869 1113.34C181.218 1003.88 302.055 931.643 390.056 900.12C415.012 891.364 434.276 881.732 452.226 876.916C452.226 879.105 453.54 895.304 453.54 897.056C453.54 897.056 522.715 964.917 678.577 973.236C750.817 977.176 757.822 932.081 757.822 932.081C766.14 930.33 774.021 928.141 781.902 925.514C784.529 924.638 802.917 917.195 805.106 916.32C861.584 931.205 930.759 973.236 1031.02 1057.3C1144.41 1153.18 1164.55 1461.4 1164.55 1461.4Z" fill="#D5EBE6"/>
<path d="M951.34 1016.14C979.63 1016.14 1002.56 993.208 1002.56 964.917C1002.56 936.627 979.63 913.693 951.34 913.693C923.049 913.693 900.115 936.627 900.115 964.917C900.115 993.208 923.049 1016.14 951.34 1016.14Z" fill="#FFFF8D"/>
<path d="M274.473 1461.4L254.771 1299.41" stroke="#544D4D" stroke-width="13.1345" stroke-miterlimit="10" stroke-linecap="round" stroke-linejoin="round"/>
<path d="M1038.9 1243.81C1038.9 1243.81 1025.77 1275.77 1029.71 1307.73C1033.65 1339.69 1045.03 1386.53 1028.83 1461.4" stroke="#544D4D" stroke-width="13.1345" stroke-miterlimit="10" stroke-linecap="round" stroke-linejoin="round"/>
<path d="M376.049 893.553C384.367 890.926 398.815 893.553 403.193 900.996C420.268 929.016 461.423 1010.89 478.498 1173.32C492.07 1300.28 471.492 1528.82 471.492 1528.82L46.373 1508.68C46.373 1508.68 59.0697 1292.84 96.2841 1147.92C132.623 1007.39 228.067 944.34 376.049 893.553Z" fill="white"/>
<path d="M816.057 920.26C816.057 920.26 951.342 1174.63 911.938 1514.38H1203.96C1203.96 1514.38 1202.65 1244.68 1136.98 1098.01C1071.3 951.783 841.45 908.877 841.45 908.877C841.45 908.877 827.002 915.882 816.057 920.26Z" fill="white"/>
<path d="M816.054 920.26L805.547 917.195C805.547 917.195 820.87 909.752 827.438 905.374L831.378 903.185C831.378 903.185 852.393 912.817 859.836 916.32C867.279 919.822 834.005 936.021 834.005 936.021C834.005 936.021 817.368 920.26 816.054 920.26Z" fill="#7E5D6D"/>
<path d="M339.711 1043.72C339.711 1043.72 279.292 1086.19 284.984 1131.29C290.675 1176.38 476.747 1458.77 476.747 1458.77C476.747 1458.77 498.638 1305.54 473.682 1132.16C473.682 1132.16 455.732 1108.08 422.896 1084C401.005 1068.68 372.985 1052.48 339.711 1043.72Z" fill="#F9F4F1"/>
<path d="M1046.35 1131.29C1048.1 1103.27 983.304 1057.73 983.304 1057.73C957.473 1065.18 939.084 1077 925.95 1089.69C896.616 1117.28 892.676 1148.36 892.676 1148.36L894.427 1156.24C925.512 1291.53 916.318 1467.53 916.318 1467.53C916.318 1467.53 1044.6 1159.31 1046.35 1131.29Z" fill="#FFFDFC"/>
<path d="M473.242 1132.16C473.242 1132.16 442.594 1099.76 405.818 1077C324.384 1026.65 204.86 1003.44 203.547 964.479C202.671 920.698 348.026 829.194 444.346 798.109C444.346 798.547 444.346 798.985 444.346 799.423C444.346 799.86 444.346 800.298 444.346 801.174C444.346 802.05 444.346 802.925 444.784 803.801C444.784 805.114 445.221 806.428 445.221 807.741C445.221 808.617 445.221 809.055 445.659 809.93C448.724 836.199 451.351 865.533 453.54 896.618V897.056C453.54 897.056 433.4 903.623 447.848 1003.88C451.789 1028.4 466.674 1071.31 473.242 1132.16Z" fill="#F4F4F4"/>
<path d="M892.672 1146.17C892.672 1146.17 863.338 1032.34 848.89 996.002C834.442 960.101 807.298 919.384 805.984 917.195C823.059 909.314 838.383 899.245 851.955 887.424C865.527 875.603 876.473 863.782 885.667 851.961C934.702 877.792 1075.24 959.225 1082.25 999.942C1090.13 1044.16 919.817 1041.53 892.672 1146.17Z" fill="#F7F7F7"/>
<path d="M983.304 1057.73C957.473 1065.18 939.084 1077 925.95 1089.69C896.616 1117.28 892.676 1148.36 892.676 1148.36" stroke="#D5B8AD" stroke-width="13.1345" stroke-miterlimit="10" stroke-linecap="round" stroke-linejoin="round"/>
<path d="M473.245 1132.16C473.245 1132.16 455.295 1108.08 422.458 1084C401.006 1068.24 372.985 1052.48 339.273 1043.29" stroke="#A78B80" stroke-width="13.1345" stroke-miterlimit="10" stroke-linecap="round" stroke-linejoin="round"/>
<path d="M683.944 619.439C673.544 619.006 665.744 610.339 666.611 599.939L667.044 587.806C667.477 577.406 676.144 569.606 686.544 570.473C696.944 570.906 704.744 579.573 703.877 589.973L703.444 602.106C703.011 612.073 694.344 619.873 683.944 619.439Z" fill="#665858"/>
<path d="M866.375 625.939C856.842 625.506 849.475 617.272 849.909 607.739L850.342 596.472C850.775 586.939 859.009 579.572 868.542 580.006C878.075 580.439 885.442 588.672 885.009 598.206L884.575 609.472C884.142 619.006 875.909 626.372 866.375 625.939Z" fill="#665858"/>
<path d="M725.975 594.306C725.975 594.306 714.709 578.273 695.209 575.239C679.175 572.639 661.409 580.439 658.809 589.539" stroke="#665858" stroke-width="13" stroke-miterlimit="10" stroke-linecap="round" stroke-linejoin="round"/>
<path d="M853.809 598.206C853.809 598.206 853.809 584.339 873.742 584.339C890.209 584.339 897.142 599.506 897.142 599.506" stroke="#665858" stroke-width="13" stroke-miterlimit="10" stroke-linecap="round" stroke-linejoin="round"/>
<path d="M743.744 524.539C752.844 527.573 761.943 519.339 760.21 509.373C759.343 504.173 757.177 498.973 752.843 495.073C739.843 483.373 686.11 472.973 653.61 488.139C625.01 502.006 702.144 510.673 743.744 524.539Z" fill="#665858"/>
<path d="M873.312 531.473C865.946 534.073 858.146 526.273 859.446 517.173C859.879 512.406 861.612 507.639 865.079 504.173C875.479 493.773 911.012 485.539 933.546 501.573C953.046 515.006 907.112 518.906 873.312 531.473Z" fill="#665858"/>
<path d="M812.331 773.797C801.498 778.564 796.298 769.03 779.398 777.264C767.265 782.897 760.765 784.631 746.031 775.964C736.498 769.897 724.798 778.564 713.531 762.097" stroke="#423232" stroke-width="13" stroke-miterlimit="10" stroke-linecap="round" stroke-linejoin="round"/>
<path d="M940.303 574.422C952.003 508.555 948.536 482.555 941.603 451.788C939.436 442.255 936.836 433.155 933.803 424.055C910.836 405.855 886.569 394.155 849.736 388.955C750.503 375.522 672.069 384.622 588.436 402.822C536.003 414.088 546.836 595.222 526.469 619.055C523.003 606.922 506.103 557.522 450.636 564.455C398.203 570.955 378.269 692.288 486.603 733.888C485.736 757.722 463.636 801.922 445.869 811.888C445.869 811.888 442.836 780.255 408.169 738.655C373.503 697.055 304.169 589.155 350.969 431.422C397.769 273.688 609.669 191.355 806.836 271.522C840.636 285.388 868.369 304.888 890.469 325.255C942.469 372.922 970.203 442.255 961.969 512.022C959.803 535.422 953.303 557.955 940.303 574.422Z" fill="#AE704D"/>
<path d="M872.704 377.255C872.704 377.255 744.871 573.122 506.537 512.455C506.537 512.455 460.171 395.889 561.137 351.255C662.537 307.055 848.437 338.255 872.704 377.255Z" fill="#AE704D"/>
<path d="M859.271 379.855C859.271 379.855 875.738 425.355 908.238 462.189C929.471 486.022 957.204 505.955 991.871 506.822C991.871 506.822 1002.7 388.955 925.571 343.022C848.438 296.655 859.271 379.855 859.271 379.855Z" fill="#AE704D"/>
<path d="M542.504 304.888C542.504 304.888 402.97 87.7885 280.337 245.089C157.704 402.388 291.604 813.189 217.07 936.689C217.07 936.689 302.437 874.722 324.97 753.388C324.97 753.388 327.57 803.655 312.404 873.855C312.404 873.855 402.97 769.422 402.97 644.188C402.97 518.955 493.537 336.955 542.504 304.888Z" fill="#AE704D"/>
<path d="M948.105 549.288C963.705 615.588 948.105 730.422 948.105 730.422C948.105 730.422 1138.77 427.522 984.505 312.688C854.505 215.622 574.139 314.422 574.139 314.422C574.139 314.422 837.172 251.155 888.305 372.055C935.105 481.255 940.305 443.555 955.039 508.555C957.205 515.055 945.939 540.188 948.105 549.288Z" fill="#AE704D"/>
<path d="M475.237 697.089L482.604 711.822C483.904 714.422 486.504 716.156 489.104 716.589L505.571 719.189C512.937 720.056 515.537 729.156 510.337 734.356L498.637 746.056C496.471 748.222 495.604 750.822 496.037 753.856L498.637 770.322C499.937 777.689 492.137 782.889 485.637 779.856L470.904 772.056C468.304 770.756 465.271 770.756 462.671 772.056L447.937 779.856C441.437 783.322 433.637 777.689 434.937 770.322L437.537 753.856C437.971 750.822 437.104 748.222 434.937 746.056L423.237 734.356C418.037 729.156 421.071 720.489 428.004 719.189L444.471 716.589C447.504 716.156 449.671 714.422 450.971 711.822L458.337 697.089C462.671 690.156 472.204 690.156 475.237 697.089Z" fill="#FFDE55"/>
<path d="M941.067 745.622C938.9 747.789 938.034 750.822 938.467 753.422L941.067 769.889C942.367 777.255 934.567 782.889 928.067 779.422L919.4 774.655C922.434 753.422 923.3 731.755 923.734 710.089L924.6 711.822C925.9 714.422 928.5 716.155 931.1 716.589L947.567 718.755C954.934 719.622 957.967 728.722 952.334 733.922L941.067 745.622Z" fill="#FFDE55"/>
</g>
<defs>
<filter id="filter0_d_422_2703" x="776.719" y="675.563" width="98.4902" height="53.975" filterUnits="userSpaceOnUse" color-interpolation-filters="sRGB">
<feFlood flood-opacity="0" result="BackgroundImageFix"/>
<feColorMatrix in="SourceAlpha" type="matrix" values="0 0 0 0 0 0 0 0 0 0 0 0 0 0 0 0 0 0 127 0" result="hardAlpha"/>
<feOffset dy="4"/>
<feGaussianBlur stdDeviation="2"/>
<feComposite in2="hardAlpha" operator="out"/>
<feColorMatrix type="matrix" values="0 0 0 0 0 0 0 0 0 0 0 0 0 0 0 0 0 0 0.25 0"/>
<feBlend mode="normal" in2="BackgroundImageFix" result="effect1_dropShadow_422_2703"/>
<feBlend mode="normal" in="SourceGraphic" in2="effect1_dropShadow_422_2703" result="shape"/>
</filter>
</defs>
</svg>
