<svg width="1300" height="1300" viewBox="0 0 1300 1300" fill="none" xmlns="http://www.w3.org/2000/svg">
<path d="M650 1300C290.71 1300 0 1008.86 0 650C0 290.71 291.141 0 650 0C1009.29 0 1300 291.141 1300 650C1300.43 1009.29 1009.29 1300 650 1300Z" fill="#C2FE9D"/>
<mask id="mask0_426_5524" style="mask-type:alpha" maskUnits="userSpaceOnUse" x="0" y="0" width="1300" height="1300">
<path d="M650 1300C290.71 1300 0 1008.86 0 650C0 290.71 291.141 0 650 0C1009.29 0 1300 291.141 1300 650C1300.43 1009.29 1009.29 1300 650 1300Z" fill="#F7C0B5"/>
</mask>
<g mask="url(#mask0_426_5524)">
<path d="M1013.99 1197.33C1010.96 1199.5 1007.49 1201.67 1004.46 1203.83C1000.99 1206 997.961 1208.17 994.495 1209.9C991.461 1211.63 988.861 1213.37 985.828 1215.1C985.395 1215.53 984.962 1215.53 984.528 1215.97C974.562 1222.03 964.161 1227.67 953.761 1232.87C950.728 1234.6 947.262 1236.33 944.228 1237.63C944.228 1237.63 943.795 1238.07 943.362 1238.07C939.895 1239.8 936.428 1241.53 932.961 1243.27C926.028 1246.73 918.662 1249.77 911.728 1252.8C908.262 1254.53 904.362 1255.83 900.895 1257.13C897.428 1258.43 893.528 1260.17 890.062 1261.47C886.595 1262.77 882.695 1264.5 879.228 1265.8C879.228 1265.8 879.228 1265.8 878.795 1265.8C875.328 1267.1 871.428 1268.4 867.962 1269.7C860.162 1272.3 851.928 1274.9 844.128 1277.5C841.528 1278.37 838.495 1279.23 835.895 1280.1C827.662 1282.7 819.428 1284.87 811.195 1286.6C808.162 1287.47 805.128 1287.9 801.662 1288.77C793.862 1290.5 785.628 1292.23 777.828 1293.97C776.095 1294.4 774.795 1294.4 773.062 1294.83C770.462 1295.27 767.428 1295.7 764.828 1296.13C760.928 1296.57 757.462 1297.43 753.562 1297.87C751.828 1298.3 750.095 1298.3 748.362 1298.73C746.195 1299.17 743.595 1299.6 740.995 1299.6C734.062 1300.47 726.695 1301.33 719.762 1302.2C717.595 1302.63 714.995 1302.63 712.828 1303.07H712.395C709.362 1303.5 706.328 1303.5 703.295 1303.93C700.262 1304.37 697.228 1304.37 694.195 1304.37C692.462 1304.37 690.295 1304.8 688.562 1304.8C685.095 1304.8 682.062 1305.23 679.028 1305.23C674.695 1305.23 670.795 1305.67 666.462 1305.67C662.128 1305.67 658.228 1305.67 653.895 1305.67C650.862 1305.67 647.828 1305.67 644.795 1305.67C462.362 1303.07 297.695 1225.5 180.695 1102.43C180.695 1102.43 180.695 1102 180.262 1102C193.695 1075.57 243.528 1027.9 295.528 988.466C361.395 938.632 454.562 907.866 454.562 907.866C454.562 907.866 515.662 897.899 742.295 945.132C915.195 981.532 988.861 1129.3 1013.99 1197.33Z" fill="#F7D3B5"/>
<path d="M790.398 1065.16C781.298 1109.8 722.365 1136.23 623.132 1096.36C501.365 1046.96 454.565 907.865 454.565 907.865C448.065 808.198 432.898 722.831 432.898 722.831C573.732 710.698 740.132 875.365 740.132 875.365L759.198 956.831C760.932 963.765 764.398 969.831 769.598 974.165C778.698 989.765 796.465 1036.56 790.398 1065.16Z" fill="#F7D3B5"/>
<path d="M769.597 974.598C686.83 970.265 625.73 958.132 560.297 840.698C615.764 889.665 681.197 908.298 750.097 916.965L759.197 956.831C760.93 964.198 764.397 970.265 769.597 974.598Z" fill="#EFBDA5"/>
<path d="M940.755 452.432C948.555 488.832 952.455 518.298 931.221 615.365C909.988 712.432 950.721 809.498 848.455 898.332C779.555 958.132 659.088 969.398 562.888 903.965C530.388 881.865 500.488 851.098 476.221 810.798C457.155 779.165 435.055 749.265 410.355 721.965C376.121 684.698 334.955 609.732 355.321 477.132C388.255 261.332 601.888 236.632 727.988 260.465C854.088 284.298 919.521 356.232 940.755 452.432Z" fill="#F7D3B5"/>
<path d="M526.065 621.865C526.065 621.865 512.631 556.865 449.365 564.665C394.765 571.598 375.698 702.465 499.631 738.865" fill="#F7D3B5"/>
<path d="M495.728 679.498C495.728 679.498 480.128 669.531 481.861 652.198C484.461 631.831 481.861 619.265 472.328 615.365C448.495 605.398 443.728 633.131 444.595 636.598" stroke="#423232" stroke-width="13.4786" stroke-miterlimit="10" stroke-linecap="round" stroke-linejoin="round"/>
<path d="M826.364 721.532C826.364 721.532 842.831 722.399 858.431 703.766C867.097 693.366 874.464 680.366 869.697 676.466C864.931 672.132 786.497 684.266 781.297 694.666C776.097 705.066 806.431 721.532 826.364 721.532Z" fill="#EFBDA5"/>
<path d="M839.357 575.932C839.357 575.932 840.223 617.099 866.657 663.032C878.357 683.399 860.59 716.765 822.023 722.399" stroke="#423232" stroke-width="13.4786" stroke-miterlimit="10" stroke-linecap="round" stroke-linejoin="round"/>
<path opacity="0.42" d="M604.489 743.631C629.139 743.631 649.122 727.141 649.122 706.798C649.122 686.456 629.139 669.965 604.489 669.965C579.839 669.965 559.855 686.456 559.855 706.798C559.855 727.141 579.839 743.631 604.489 743.631Z" fill="#ED938A"/>
<path opacity="0.42" d="M924.299 670.832C922.999 695.098 923.432 718.932 921.699 742.765C902.632 738.432 888.766 724.132 888.766 707.232C888.766 689.032 903.932 674.298 924.299 670.832Z" fill="#ED938A"/>
<path d="M1158.24 1465.29H62.7695C62.7695 1465.29 69.2695 1264.23 135.136 1120.79C184.97 1012.46 302.403 952.226 389.936 921.026C414.636 912.359 437.17 905.859 454.503 901.093C454.503 903.259 454.936 904.993 454.936 907.159C454.936 907.159 501.736 1046.26 623.503 1095.66C722.736 1135.96 781.67 1109.09 790.77 1064.46C796.403 1035.86 778.636 989.059 769.536 973.893C764.336 969.559 760.87 963.059 759.136 956.559L755.67 942.259C763.903 940.526 771.703 938.359 779.503 935.759C782.103 934.893 784.27 934.026 786.87 933.159C842.77 947.892 926.836 982.992 1026.07 1066.19C1138.3 1160.23 1158.24 1465.29 1158.24 1465.29Z" fill="#7C67D2"/>
<mask id="mask1_426_5524" style="mask-type:alpha" maskUnits="userSpaceOnUse" x="62" y="901" width="1097" height="565">
<path d="M1158.24 1465.29H62.7695C62.7695 1465.29 69.2695 1264.23 135.136 1120.79C184.97 1012.46 302.403 952.226 389.936 921.026C414.636 912.359 437.17 905.859 454.503 901.093C454.503 903.259 454.936 904.993 454.936 907.159C454.936 907.159 501.736 1046.26 623.503 1095.66C722.736 1135.96 781.67 1109.09 790.77 1064.46C796.403 1035.86 778.636 989.059 769.536 973.893C764.336 969.559 760.87 963.059 759.136 956.559L755.67 942.259C763.903 940.526 771.703 938.359 779.503 935.759C782.103 934.893 784.27 934.026 786.87 933.159C842.77 947.892 926.836 982.992 1026.07 1066.19C1138.3 1160.23 1158.24 1465.29 1158.24 1465.29Z" fill="#CE3E3E"/>
</mask>
<g mask="url(#mask1_426_5524)">
<path d="M512.409 978.397L454.191 1036.61L512.409 1094.83L570.627 1036.61L512.409 978.397Z" fill="white"/>
<path d="M740.401 978.569L682.184 1036.79L740.401 1095L798.619 1036.79L740.401 978.569Z" fill="white"/>
<path d="M284.097 978.531L225.879 1036.75L284.097 1094.97L342.315 1036.75L284.097 978.531Z" fill="white"/>
<path d="M965.659 978.396L907.441 1036.61L965.659 1094.83L1023.88 1036.61L965.659 978.396Z" fill="white"/>
<path d="M406.948 1203.91L348.73 1262.13L406.948 1320.35L465.166 1262.13L406.948 1203.91Z" fill="white"/>
<path d="M635.261 1203.78L577.043 1262L635.261 1320.21L693.479 1262L635.261 1203.78Z" fill="white"/>
<path d="M860.218 1203.91L802 1262.13L860.218 1320.35L918.436 1262.13L860.218 1203.91Z" fill="white"/>
</g>
<path d="M719.711 1077.89C719.711 1077.89 689.811 1100.43 696.311 1121.66C702.378 1142.89 760.445 1139.43 771.711 1121.66C782.545 1103.89 734.011 1073.99 719.711 1077.89Z" fill="#7C67D2"/>
<path d="M719.273 1077.46C719.707 1077.89 719.707 1077.89 720.14 1078.33C720.14 1077.89 720.14 1077.46 720.14 1077.46C719.707 1077.03 719.273 1077.03 719.273 1077.46Z" fill="white"/>
<path d="M604.442 1060.13C482.676 1010.73 454.942 907.159 454.942 907.159C454.942 904.993 454.509 903.259 454.509 901.093C454.076 894.593 452.776 875.959 451.909 869.459C444.109 872.059 434.576 877.259 425.909 882.026C410.309 891.126 397.742 904.126 389.942 920.159C389.942 920.593 389.509 920.593 389.509 921.026C388.642 1034.99 500.009 1122.09 587.109 1153.29C639.976 1172.36 699.342 1145.06 716.242 1091.76C717.542 1086.99 718.842 1082.66 719.709 1077.89C719.276 1077.46 719.276 1077.46 718.842 1077.03C690.676 1083.09 652.109 1079.19 604.442 1060.13Z" fill="white"/>
<path d="M825.878 1041.93C818.511 981.692 799.011 958.292 779.944 935.325C772.144 937.925 759.144 940.959 750.911 942.692C750.911 942.692 779.078 979.092 771.711 1028.49C768.244 1051.89 750.478 1069.66 720.144 1076.59C720.144 1077.03 720.144 1077.03 719.711 1077.46C730.978 1090.46 743.544 1101.73 757.411 1110.83C779.944 1125.99 811.144 1116.03 820.244 1090.46C825.878 1075.73 828.044 1058.83 825.878 1041.93Z" fill="white"/>
<path d="M277.27 1465.29L257.77 1304.96" stroke="#544D4D" stroke-width="13.4786" stroke-miterlimit="10" stroke-linecap="round" stroke-linejoin="round"/>
<path d="M1033.88 1249.93C1033.88 1249.93 1020.88 1281.56 1024.78 1313.19C1028.68 1344.83 1039.94 1391.19 1023.91 1465.29" stroke="#544D4D" stroke-width="13.4786" stroke-miterlimit="10" stroke-linecap="round" stroke-linejoin="round"/>
<path d="M715.178 586.764C715.178 586.764 684.845 587.197 654.078 564.231" stroke="#423232" stroke-width="13.4786" stroke-miterlimit="10" stroke-linecap="round" stroke-linejoin="round"/>
<path d="M843.883 593.697C843.883 593.697 875.083 588.064 884.183 575.93" stroke="#423232" stroke-width="13.4786" stroke-miterlimit="10" stroke-linecap="round" stroke-linejoin="round"/>
<path d="M735.976 553.396C744.209 558.163 754.61 551.663 755.043 541.696C755.043 536.496 754.176 530.863 750.71 526.096C740.31 512.23 689.61 490.996 654.509 500.096C624.176 507.896 698.276 531.73 735.976 553.396Z" fill="#423232"/>
<path d="M869.025 558.597C862.959 563.364 852.992 557.73 851.692 548.63C850.825 543.864 851.259 538.664 853.425 534.33C860.359 521.33 892.425 503.564 918.425 512.23C940.959 520.464 898.059 537.364 869.025 558.597Z" fill="#423232"/>
<path d="M666.209 572.03C662.742 575.063 660.575 579.83 660.142 584.596L659.709 596.73C659.275 607.13 667.075 615.796 677.042 616.23C687.442 616.663 696.109 608.863 696.542 598.896L696.975 586.763C696.975 586.33 696.975 585.896 696.975 585.463C685.709 584.596 675.742 579.83 666.209 572.03Z" fill="#423232"/>
<path d="M843.877 592.83C843.877 593.263 843.877 593.263 843.877 593.697L843.444 604.963C843.011 614.497 850.377 622.73 859.911 623.163C869.444 623.597 877.677 616.23 878.111 606.697L878.544 595.43C878.977 591.097 877.244 587.197 875.077 584.163C865.544 589.797 855.144 591.097 843.877 592.83Z" fill="#423232"/>
<path d="M825.911 779.139C825.911 779.139 768.852 752.631 741.445 767.008" stroke="#423232" stroke-width="13.4786" stroke-miterlimit="10" stroke-linecap="round" stroke-linejoin="round"/>
<path d="M974.21 347.827C943.443 459.194 854.176 440.56 770.543 410.227C659.177 369.494 561.243 402.427 560.81 502.96C559.943 650.294 523.11 605.66 519.21 600.027C509.677 581.827 489.31 559.294 450.743 564.06C400.043 570.56 380.11 682.36 474.577 728.294C491.043 811.927 445.977 804.127 445.977 804.127C430.81 742.594 303.41 611.727 302.977 525.494C302.977 409.36 361.477 376.427 361.477 376.427C363.21 295.394 447.71 206.127 589.843 209.16C731.977 211.76 819.076 207.86 846.81 174.494C874.543 140.26 1004.98 236.46 974.21 347.827Z" fill="#423232"/>
<path d="M977.668 481.727C973.334 509.893 961.201 531.56 944.301 547.593C950.801 500.36 947.334 477.827 941.701 451.393C929.568 397.227 903.568 350.427 860.234 315.76C881.901 314.027 904.001 318.793 923.934 331.36C923.934 330.927 995.434 359.96 977.668 481.727Z" fill="#423232"/>
<path opacity="0.6" d="M865.082 677.253C865.082 677.253 870.282 706.72 904.515 721.453C913.182 724.92 922.282 719.286 922.282 709.753C921.849 709.753 867.249 680.72 865.082 677.253Z" fill="#B7AEA9"/>
<path opacity="0.6" d="M782.754 606.186C782.754 606.186 810.487 578.453 824.354 575.42L787.521 584.086L782.754 606.186Z" fill="#B7AEA9"/>
<path opacity="0.6" d="M597.719 677.254C597.719 677.254 613.752 713.654 661.852 722.321C709.952 731.421 753.719 696.754 774.085 638.687C774.085 638.687 757.619 692.421 691.752 702.387C626.319 713.221 597.719 677.254 597.719 677.254Z" fill="#B7AEA9"/>
<path opacity="0.29" d="M675.285 482.687C614.185 482.687 564.351 533.82 563.918 596.22C563.918 625.687 574.751 652.553 592.518 672.053L749.818 513.02C730.318 493.953 704.318 482.687 675.285 482.687Z" fill="#DBC3ED"/>
<path opacity="0.23" d="M749.808 513.02L592.508 672.053C612.441 694.153 640.608 707.586 671.808 707.586C732.041 707.586 781.441 657.753 783.174 595.786C784.041 563.286 771.041 533.82 749.808 513.02Z" fill="#C4ADD8"/>
<path opacity="0.29" d="M928.785 482.687C882.418 482.687 843.418 533.82 841.685 596.22C840.818 621.353 846.452 644.32 855.985 662.953L993.352 526.887C979.052 500.02 955.652 482.687 928.785 482.687Z" fill="#DBC3ED"/>
<path opacity="0.23" d="M993.339 526.453L855.973 662.52C870.273 689.82 893.673 707.587 920.973 707.587C966.473 707.587 1005.47 657.753 1008.07 595.787C1008.94 570.22 1003.31 545.953 993.339 526.453Z" fill="#C4ADD8"/>
<path d="M783.18 596.22C781.88 658.187 732.047 708.02 671.814 708.02C611.58 708.02 563.48 658.187 563.48 596.22C563.914 533.82 613.747 482.687 674.847 482.687C735.947 482.687 784.914 533.82 783.18 596.22Z" stroke="#F6FAFB" stroke-width="13.4786" stroke-miterlimit="10" stroke-linecap="round" stroke-linejoin="round"/>
<path d="M1008.08 596.22C1005.48 658.187 966.478 708.02 920.978 708.02C875.478 708.02 839.945 658.187 841.678 596.22C843.411 533.82 882.411 482.687 928.778 482.687C975.145 482.687 1010.68 533.82 1008.08 596.22Z" stroke="#F6FAFB" stroke-width="13.4786" stroke-miterlimit="10" stroke-linecap="round" stroke-linejoin="round"/>
<path d="M564.779 584.086H503.246" stroke="#F6FAFB" stroke-width="13.4786" stroke-miterlimit="10" stroke-linecap="round" stroke-linejoin="round"/>
<path d="M783.613 584.087C783.613 584.087 835.18 564.154 841.68 584.087" stroke="#F6FAFB" stroke-width="13.4786" stroke-miterlimit="10" stroke-linecap="round" stroke-linejoin="round"/>
</g>
</svg>
