<svg width="3865" height="3930" viewBox="0 0 3865 3930" fill="none" xmlns="http://www.w3.org/2000/svg">
<rect width="3865" height="3930" rx="96" fill="#FFFBF5"/>
<path d="M1932 2430C1572.71 2430 1282 2138.86 1282 1780C1282 1420.71 1573.14 1130 1932 1130C2291.29 1130 2582 1421.14 2582 1780C2582.43 2139.29 2291.29 2430 1932 2430Z" fill="#B5E2DC"/>
<mask id="mask0_426_5599" style="mask-type:alpha" maskUnits="userSpaceOnUse" x="1282" y="1130" width="1300" height="1300">
<path d="M1932 2430C1572.71 2430 1282 2138.86 1282 1780C1282 1420.71 1573.14 1130 1932 1130C2291.29 1130 2582 1421.14 2582 1780C2582.43 2139.29 2291.29 2430 1932 2430Z" fill="#F7C0B5"/>
</mask>
<g mask="url(#mask0_426_5599)">
<path d="M2296 2327.33C2292.97 2329.5 2289.5 2331.67 2286.47 2333.83C2283 2336 2279.97 2338.17 2276.5 2339.9C2273.47 2341.63 2270.87 2343.37 2267.83 2345.1C2267.4 2345.53 2266.97 2345.53 2266.53 2345.97C2256.57 2352.03 2246.17 2357.67 2235.77 2362.87C2232.73 2364.6 2229.27 2366.33 2226.23 2367.63C2226.23 2367.63 2225.8 2368.07 2225.37 2368.07C2221.9 2369.8 2218.43 2371.53 2214.97 2373.27C2208.03 2376.73 2200.67 2379.77 2193.73 2382.8C2190.27 2384.53 2186.37 2385.83 2182.9 2387.13C2179.43 2388.43 2175.53 2390.17 2172.07 2391.47C2168.6 2392.77 2164.7 2394.5 2161.23 2395.8C2161.23 2395.8 2161.23 2395.8 2160.8 2395.8C2157.33 2397.1 2153.43 2398.4 2149.97 2399.7C2142.17 2402.3 2133.93 2404.9 2126.13 2407.5C2123.53 2408.37 2120.5 2409.23 2117.9 2410.1C2109.67 2412.7 2101.43 2414.87 2093.2 2416.6C2090.17 2417.47 2087.13 2417.9 2083.67 2418.77C2075.87 2420.5 2067.63 2422.23 2059.83 2423.97C2058.1 2424.4 2056.8 2424.4 2055.07 2424.83C2052.47 2425.27 2049.43 2425.7 2046.83 2426.13C2042.93 2426.57 2039.47 2427.43 2035.57 2427.87C2033.83 2428.3 2032.1 2428.3 2030.37 2428.73C2028.2 2429.17 2025.6 2429.6 2023 2429.6C2016.07 2430.47 2008.7 2431.33 2001.77 2432.2C1999.6 2432.63 1997 2432.63 1994.83 2433.07H1994.4C1991.37 2433.5 1988.33 2433.5 1985.3 2433.93C1982.27 2434.37 1979.23 2434.37 1976.2 2434.37C1974.47 2434.37 1972.3 2434.8 1970.57 2434.8C1967.1 2434.8 1964.07 2435.23 1961.03 2435.23C1956.7 2435.23 1952.8 2435.67 1948.47 2435.67C1944.13 2435.67 1940.23 2435.67 1935.9 2435.67C1932.87 2435.67 1929.83 2435.67 1926.8 2435.67C1744.37 2433.07 1579.7 2355.5 1462.7 2232.43C1462.7 2232.43 1462.7 2232 1462.27 2232C1475.7 2205.57 1525.53 2157.9 1577.53 2118.47C1643.4 2068.63 1736.57 2037.87 1736.57 2037.87C1736.57 2037.87 1797.67 2027.9 2024.3 2075.13C2197.2 2111.53 2270.87 2259.3 2296 2327.33Z" fill="#F4C39B"/>
<path d="M2072.4 2195.16C2063.3 2239.8 2004.36 2266.23 1905.13 2226.36C1783.36 2176.96 1736.56 2037.86 1736.56 2037.86C1730.06 1938.2 1714.9 1852.83 1714.9 1852.83C1855.73 1840.7 2022.13 2005.36 2022.13 2005.36L2041.2 2086.83C2042.93 2093.76 2046.4 2099.83 2051.6 2104.16C2060.7 2119.76 2078.46 2166.56 2072.4 2195.16Z" fill="#F4C39B"/>
<path d="M2051.6 2104.6C1968.83 2100.27 1907.73 2088.13 1842.3 1970.7C1897.77 2019.67 1963.2 2038.3 2032.1 2046.97L2041.2 2086.83C2042.93 2094.2 2046.4 2100.27 2051.6 2104.6Z" fill="#EFBDA5"/>
<path d="M2222.77 1582.43C2230.57 1618.83 2234.47 1648.3 2213.23 1745.37C2192 1842.43 2232.73 1939.5 2130.47 2028.33C2061.57 2088.13 1941.1 2099.4 1844.9 2033.97C1812.4 2011.87 1782.5 1981.1 1758.23 1940.8C1739.17 1909.17 1717.07 1879.27 1692.37 1851.97C1658.13 1814.7 1616.97 1739.73 1637.33 1607.13C1670.27 1391.33 1883.9 1366.63 2010 1390.47C2136.1 1414.3 2201.53 1486.23 2222.77 1582.43Z" fill="#F4C39B"/>
<path d="M1808.07 1751.87C1808.07 1751.87 1794.63 1686.87 1731.37 1694.67C1676.77 1701.6 1657.7 1832.47 1781.63 1868.87" fill="#F4C39B"/>
<path d="M1777.73 1809.5C1777.73 1809.5 1762.13 1799.53 1763.86 1782.2C1766.46 1761.83 1763.86 1749.27 1754.33 1745.37C1730.5 1735.4 1725.73 1763.13 1726.6 1766.6" stroke="#423232" stroke-width="13.4786" stroke-miterlimit="10" stroke-linecap="round" stroke-linejoin="round"/>
<path d="M2108.36 1851.53C2108.36 1851.53 2124.83 1852.4 2140.43 1833.77C2149.1 1823.37 2156.46 1810.37 2151.7 1806.47C2146.93 1802.13 2068.5 1814.27 2063.3 1824.67C2058.1 1835.07 2088.43 1851.53 2108.36 1851.53Z" fill="#EFBDA5"/>
<path d="M2121.36 1705.93C2121.36 1705.93 2122.23 1747.1 2148.66 1793.03C2160.36 1813.4 2142.6 1846.77 2104.03 1852.4" stroke="#423232" stroke-width="13.4786" stroke-miterlimit="10" stroke-linecap="round" stroke-linejoin="round"/>
<path opacity="0.42" d="M1886.5 1873.63C1911.15 1873.63 1931.13 1857.14 1931.13 1836.8C1931.13 1816.46 1911.15 1799.97 1886.5 1799.97C1861.85 1799.97 1841.86 1816.46 1841.86 1836.8C1841.86 1857.14 1861.85 1873.63 1886.5 1873.63Z" fill="#ED938A"/>
<path opacity="0.42" d="M2206.3 1800.83C2205 1825.1 2205.43 1848.93 2203.7 1872.77C2184.63 1868.43 2170.76 1854.13 2170.76 1837.23C2170.76 1819.03 2185.93 1804.3 2206.3 1800.83Z" fill="#ED938A"/>
<path d="M2440.24 2595.29H1344.77C1344.77 2595.29 1351.27 2394.23 1417.14 2250.79C1466.97 2142.46 1584.41 2082.23 1671.94 2051.03C1696.64 2042.36 1719.17 2035.86 1736.51 2031.09C1736.51 2033.26 1736.94 2034.99 1736.94 2037.16C1736.94 2037.16 1783.74 2176.26 1905.51 2225.66C2004.74 2265.96 2063.67 2239.09 2072.77 2194.46C2078.41 2165.86 2060.64 2119.06 2051.54 2103.89C2046.34 2099.56 2042.87 2093.06 2041.14 2086.56L2037.67 2072.26C2045.91 2070.53 2053.71 2068.36 2061.51 2065.76C2064.11 2064.89 2066.27 2064.03 2068.87 2063.16C2124.77 2077.89 2208.84 2112.99 2308.07 2196.19C2420.31 2290.23 2440.24 2595.29 2440.24 2595.29Z" fill="#CE3E3E"/>
<mask id="mask1_426_5599" style="mask-type:alpha" maskUnits="userSpaceOnUse" x="1344" y="2031" width="1097" height="565">
<path d="M2440.24 2595.29H1344.77C1344.77 2595.29 1351.27 2394.23 1417.14 2250.79C1466.97 2142.46 1584.41 2082.23 1671.94 2051.03C1696.64 2042.36 1719.17 2035.86 1736.51 2031.09C1736.51 2033.26 1736.94 2034.99 1736.94 2037.16C1736.94 2037.16 1783.74 2176.26 1905.51 2225.66C2004.74 2265.96 2063.67 2239.09 2072.77 2194.46C2078.41 2165.86 2060.64 2119.06 2051.54 2103.89C2046.34 2099.56 2042.87 2093.06 2041.14 2086.56L2037.67 2072.26C2045.91 2070.53 2053.71 2068.36 2061.51 2065.76C2064.11 2064.89 2066.27 2064.03 2068.87 2063.16C2124.77 2077.89 2208.84 2112.99 2308.07 2196.19C2420.31 2290.23 2440.24 2595.29 2440.24 2595.29Z" fill="#CE3E3E"/>
</mask>
<g mask="url(#mask1_426_5599)">
<path d="M1794.42 2108.4L1736.2 2166.61L1794.42 2224.83L1852.64 2166.61L1794.42 2108.4Z" fill="white"/>
<path d="M2022.42 2108.57L1964.2 2166.79L2022.42 2225L2080.64 2166.79L2022.42 2108.57Z" fill="white"/>
<path d="M1566.11 2108.53L1507.89 2166.75L1566.11 2224.97L1624.33 2166.75L1566.11 2108.53Z" fill="white"/>
<path d="M2247.68 2108.4L2189.46 2166.61L2247.68 2224.83L2305.9 2166.61L2247.68 2108.4Z" fill="white"/>
<path d="M1688.97 2333.91L1630.75 2392.13L1688.97 2450.35L1747.19 2392.13L1688.97 2333.91Z" fill="white"/>
<path d="M1917.28 2333.78L1859.06 2392L1917.28 2450.21L1975.5 2392L1917.28 2333.78Z" fill="white"/>
<path d="M2142.23 2333.91L2084.01 2392.13L2142.23 2450.35L2200.45 2392.13L2142.23 2333.91Z" fill="white"/>
</g>
<path d="M2001.71 2207.89C2001.71 2207.89 1971.81 2230.43 1978.31 2251.66C1984.37 2272.89 2042.44 2269.43 2053.71 2251.66C2064.54 2233.89 2016.01 2203.99 2001.71 2207.89Z" fill="#CE3E3E"/>
<path d="M2001.27 2207.46C2001.7 2207.89 2001.7 2207.89 2002.14 2208.33C2002.14 2207.89 2002.14 2207.46 2002.14 2207.46C2001.7 2207.03 2001.27 2207.03 2001.27 2207.46Z" fill="white"/>
<path d="M1886.44 2190.13C1764.67 2140.73 1736.94 2037.16 1736.94 2037.16C1736.94 2034.99 1736.51 2033.26 1736.51 2031.09C1736.07 2024.59 1734.77 2005.96 1733.91 1999.46C1726.11 2002.06 1716.57 2007.26 1707.91 2012.03C1692.31 2021.13 1679.74 2034.13 1671.94 2050.16C1671.94 2050.59 1671.51 2050.59 1671.51 2051.03C1670.64 2164.99 1782.01 2252.09 1869.11 2283.29C1921.97 2302.36 1981.34 2275.06 1998.24 2221.76C1999.54 2216.99 2000.84 2212.66 2001.71 2207.89C2001.27 2207.46 2001.27 2207.46 2000.84 2207.03C1972.67 2213.09 1934.11 2209.19 1886.44 2190.13Z" fill="white"/>
<path d="M2107.87 2171.93C2100.51 2111.69 2081.01 2088.29 2061.94 2065.33C2054.14 2067.93 2041.14 2070.96 2032.91 2072.69C2032.91 2072.69 2061.07 2109.09 2053.71 2158.49C2050.24 2181.89 2032.47 2199.66 2002.14 2206.59C2002.14 2207.03 2002.14 2207.03 2001.71 2207.46C2012.97 2220.46 2025.54 2231.73 2039.41 2240.83C2061.94 2255.99 2093.14 2246.03 2102.24 2220.46C2107.87 2205.73 2110.04 2188.83 2107.87 2171.93Z" fill="white"/>
<path d="M1559.27 2595.29L1539.77 2434.96" stroke="#544D4D" stroke-width="13.4786" stroke-miterlimit="10" stroke-linecap="round" stroke-linejoin="round"/>
<path d="M2315.88 2379.93C2315.88 2379.93 2302.88 2411.56 2306.78 2443.19C2310.68 2474.83 2321.94 2521.19 2305.91 2595.29" stroke="#544D4D" stroke-width="13.4786" stroke-miterlimit="10" stroke-linecap="round" stroke-linejoin="round"/>
<path d="M2027.8 1656.55C2037.21 1657.85 2044.49 1647.88 2041.07 1638.35C2039.35 1633.15 2036.36 1628.38 2031.65 1625.35C2017.1 1616.25 1962.76 1615.38 1934.09 1636.18C1908.84 1655.25 1985.01 1650.48 2027.8 1656.55Z" fill="#423232"/>
<path d="M2146.33 1661.32C2138.63 1661.32 2133.92 1651.35 2137.78 1643.12C2139.92 1638.78 2142.91 1634.88 2147.19 1632.72C2160.46 1626.22 2195.97 1630.12 2211.81 1652.22C2225.93 1671.72 2181.85 1660.88 2146.33 1661.32Z" fill="#423232"/>
<path d="M2012.82 1711.15C1985.43 1697.28 1942.21 1707.68 1942.21 1707.68" stroke="#423232" stroke-width="13.4786" stroke-miterlimit="10" stroke-linecap="round" stroke-linejoin="round"/>
<path d="M2181.85 1719.82C2181.85 1719.82 2170.73 1707.68 2129.65 1717.22" stroke="#423232" stroke-width="13.4786" stroke-miterlimit="10" stroke-linecap="round" stroke-linejoin="round"/>
<path d="M2098.93 1904.87C2087.69 1909.81 2082.3 1899.92 2064.78 1908.46C2052.2 1914.3 2045.46 1916.1 2030.18 1907.11C2020.3 1900.82 2008.17 1909.81 1996.49 1892.73" stroke="#423232" stroke-width="13.4786" stroke-miterlimit="10" stroke-linecap="round" stroke-linejoin="round"/>
<path d="M2299.76 1932.55C2266.83 1867.99 2301.5 1855.42 2281.56 1806.02C2252.1 1733.22 2254.26 1722.82 2257.73 1706.35C2283.73 1583.72 2300.63 1451.12 2148.96 1372.69C1978.23 1284.29 1739.46 1320.25 1650.63 1429.45C1575.23 1521.32 1597.33 1569.42 1578.26 1634.42C1559.63 1697.25 1475.56 1698.99 1514.13 1828.99C1533.63 1894.85 1455.2 1929.52 1472.53 2040.45C1593.43 2094.62 1719.53 2120.19 1848.23 2127.99C1883.33 2041.75 1775 2022.25 1773.7 1893.55C1773.7 1884.89 1774.13 1876.65 1775 1868.85C1654.96 1831.15 1674.46 1702.89 1728.63 1695.95C1766.33 1691.19 1786.26 1712.42 1796.23 1730.19C1797.1 1732.79 1798.4 1734.95 1799.7 1737.55C1816.16 1765.72 1903.26 1740.15 1961.76 1672.12C2024.6 1599.32 2019.83 1604.95 2051.46 1561.19C2115.16 1473.65 2113.43 1563.79 2129.46 1575.92C2152 1592.82 2137.7 1605.39 2172.8 1663.45C2188.4 1689.45 2217 1715.02 2210.06 1745.79C2188.83 1842.42 2229.56 1939.92 2127.3 2028.75C2104.33 2048.69 2072.26 2066.02 2034.56 2073.39C2036.3 2086.39 2041.5 2105.45 2053.2 2125.82C2142.03 2119.75 2231.3 2107.19 2320.56 2092.02C2334.43 2043.92 2327.5 1986.72 2299.76 1932.55Z" fill="#7E5858"/>
<path d="M1800.14 1737.12C1798.84 1734.95 1797.54 1732.35 1796.67 1729.75C1797.97 1732.35 1799.27 1734.95 1800.14 1737.12Z" fill="#FEE4BF"/>
<path d="M2223.06 1744.05C2223.06 1744.05 2337.46 1706.79 2294.13 1596.72C2270.3 1536.05 2269 1467.15 2244.3 1422.95C2210.06 1361.85 2155.46 1343.65 2074.86 1360.55C1936.2 1389.59 2161.1 1356.22 2174.96 1456.32C2188.4 1556.42 2223.06 1744.05 2223.06 1744.05Z" fill="#7E5858"/>
</g>
</svg>
