<svg width="3865" height="3930" viewBox="0 0 3865 3930" fill="none" xmlns="http://www.w3.org/2000/svg">
<rect width="3865" height="3930" rx="96" fill="#FFFBF5"/>
<path d="M1932 2430C1572.71 2430 1282 2138.86 1282 1780C1282 1420.71 1573.14 1130 1932 1130C2291.29 1130 2582 1421.14 2582 1780C2582.43 2139.29 2291.29 2430 1932 2430Z" fill="#F5EB9F"/>
<mask id="mask0_426_5163" style="mask-type:alpha" maskUnits="userSpaceOnUse" x="1282" y="1130" width="1300" height="1300">
<path d="M1932 2430C1572.71 2430 1282 2138.86 1282 1780C1282 1420.71 1573.14 1130 1932 1130C2291.29 1130 2582 1421.14 2582 1780C2582.43 2139.29 2291.29 2430 1932 2430Z" fill="#F7C0B5"/>
</mask>
<g mask="url(#mask0_426_5163)">
<path d="M2294.26 2327.33C2291.22 2329.5 2287.76 2331.66 2284.72 2333.83C2281.26 2336 2278.22 2338.16 2274.76 2339.9C2271.72 2341.63 2269.12 2343.36 2266.09 2345.1C2265.66 2345.53 2265.22 2345.53 2264.79 2345.96C2254.82 2352.03 2244.42 2357.66 2234.02 2362.86C2230.99 2364.6 2227.52 2366.33 2224.49 2367.63C2224.49 2367.63 2224.06 2368.06 2223.62 2368.06C2220.16 2369.8 2216.69 2371.53 2213.22 2373.26C2206.29 2376.73 2198.92 2379.76 2191.99 2382.8C2188.52 2384.53 2184.62 2385.83 2181.16 2387.13C2177.69 2388.43 2173.79 2390.16 2170.32 2391.46C2166.86 2392.76 2162.96 2394.5 2159.49 2395.8C2159.49 2395.8 2159.49 2395.8 2159.06 2395.8C2155.59 2397.1 2151.69 2398.4 2148.22 2399.7C2140.42 2402.3 2132.19 2404.9 2124.39 2407.5C2121.79 2408.36 2118.76 2409.23 2116.16 2410.1C2107.92 2412.7 2099.69 2414.86 2091.46 2416.6C2088.42 2417.46 2085.39 2417.9 2081.92 2418.76C2074.12 2420.5 2065.89 2422.23 2058.09 2423.96C2056.36 2424.4 2055.06 2424.4 2053.32 2424.83C2050.72 2425.26 2047.69 2425.7 2045.09 2426.13C2041.19 2426.56 2037.72 2427.43 2033.82 2427.86C2032.09 2428.3 2030.36 2428.3 2028.62 2428.73C2026.46 2429.16 2023.86 2429.6 2021.26 2429.6C2014.32 2430.46 2006.96 2431.33 2000.02 2432.2C1997.86 2432.63 1995.26 2432.63 1993.09 2433.06H1992.66C1989.62 2433.5 1986.59 2433.5 1983.56 2433.93C1980.52 2434.36 1977.49 2434.36 1974.46 2434.36C1972.72 2434.36 1970.56 2434.8 1968.82 2434.8C1965.36 2434.8 1962.32 2435.23 1959.29 2435.23C1954.96 2435.23 1951.06 2435.66 1946.72 2435.66C1942.39 2435.66 1938.49 2435.66 1934.16 2435.66C1931.12 2435.66 1928.09 2435.66 1925.06 2435.66C1742.62 2433.06 1577.96 2355.5 1460.96 2232.43C1460.96 2232.43 1460.96 2232 1460.52 2232C1473.96 2205.56 1523.79 2157.9 1575.79 2118.46C1641.66 2068.63 1734.82 2037.86 1734.82 2037.86C1734.82 2037.86 1795.92 2027.9 2022.56 2075.13C2195.46 2111.53 2269.12 2259.3 2294.26 2327.33Z" fill="#C99589"/>
<path d="M2070.66 2195.16C2061.56 2239.8 2002.63 2266.23 1903.39 2226.36C1781.63 2176.96 1734.83 2037.86 1734.83 2037.86C1728.33 1938.2 1713.16 1852.83 1713.16 1852.83C1853.99 1840.7 2020.39 2005.36 2020.39 2005.36L2039.46 2086.83C2041.19 2093.76 2044.66 2099.83 2049.86 2104.16C2058.96 2119.76 2076.73 2166.56 2070.66 2195.16Z" fill="#C99589"/>
<path d="M2049.85 2104.6C1967.09 2100.26 1905.99 2088.13 1840.55 1970.7C1896.02 2019.66 1961.45 2038.3 2030.35 2046.96L2039.45 2086.83C2041.19 2094.2 2044.65 2100.26 2049.85 2104.6Z" fill="#A56663"/>
<path d="M2221.02 1582.43C2228.82 1618.83 2232.72 1648.3 2211.48 1745.36C2190.25 1842.43 2230.98 1939.5 2128.72 2028.33C2059.82 2088.13 1939.35 2099.4 1843.15 2033.96C1810.65 2011.86 1780.75 1981.1 1756.48 1940.8C1737.42 1909.16 1715.32 1879.26 1690.62 1851.96C1656.38 1814.7 1615.22 1739.73 1635.58 1607.13C1668.52 1391.33 1882.15 1366.63 2008.25 1390.46C2134.35 1414.3 2199.78 1486.23 2221.02 1582.43Z" fill="#C99589"/>
<path d="M1806.33 1751.86C1806.33 1751.86 1792.89 1686.86 1729.63 1694.66C1675.03 1701.6 1655.96 1832.46 1779.89 1868.86" fill="#C99589"/>
<path d="M1775.99 1809.5C1775.99 1809.5 1760.39 1799.53 1762.12 1782.2C1764.72 1761.83 1762.12 1749.26 1752.59 1745.36C1728.76 1735.4 1723.99 1763.13 1724.86 1766.6" stroke="#423232" stroke-width="13.4786" stroke-miterlimit="10" stroke-linecap="round" stroke-linejoin="round"/>
<path d="M2106.63 1851.53C2106.63 1851.53 2123.09 1852.4 2138.69 1833.76C2147.36 1823.36 2154.73 1810.36 2149.96 1806.46C2145.19 1802.13 2066.76 1814.26 2061.56 1824.66C2056.36 1835.06 2086.69 1851.53 2106.63 1851.53Z" fill="#A56663"/>
<path d="M2119.62 1705.93C2119.62 1705.93 2120.49 1747.1 2146.92 1793.03C2158.62 1813.4 2140.85 1846.76 2102.29 1852.4" stroke="#423232" stroke-width="13.4786" stroke-miterlimit="10" stroke-linecap="round" stroke-linejoin="round"/>
<path d="M1671.89 1959.4C1671.89 1959.4 1712.19 1949.87 1729.09 1948.57L1734.29 1995.8C1734.72 1995.37 1672.32 1971.53 1671.89 1959.4Z" fill="#544646"/>
<path d="M2440.62 2595.1H1345.16C1345.16 2595.1 1351.66 2394.03 1417.52 2250.6C1481.66 2111.93 1656.29 2051.7 1736.89 2030.9C1736.89 2033.07 1737.32 2034.8 1737.32 2036.97C1737.32 2036.97 1784.12 2176.07 1905.89 2225.47C2005.12 2265.77 2064.06 2238.9 2073.16 2194.27C2078.79 2165.67 2061.02 2118.87 2051.92 2103.7C2046.72 2099.37 2043.26 2092.87 2041.52 2086.37L2038.06 2072.07C2048.89 2069.9 2059.29 2066.87 2069.26 2062.97C2125.16 2077.7 2209.22 2112.8 2308.46 2196C2420.69 2289.6 2440.62 2595.1 2440.62 2595.1Z" fill="#544646"/>
<path d="M1559.66 2595.1L1540.16 2434.33" stroke="white" stroke-width="13.4786" stroke-miterlimit="10" stroke-linecap="round" stroke-linejoin="round"/>
<path d="M2316.26 2379.73C2316.26 2379.73 2303.26 2411.37 2307.16 2443C2311.06 2474.63 2322.33 2521 2306.3 2595.1" stroke="white" stroke-width="13.4786" stroke-miterlimit="10" stroke-linecap="round" stroke-linejoin="round"/>
<path d="M1872.51 2306.07C1632.87 2236.73 1572.64 2095.9 1572.64 2095.9C1572.64 2095.9 1610.34 2072.5 1628.11 2048.23C1638.94 2033.5 1736.44 2016.6 1736.44 2016.6C1738.17 2035.23 1736.44 2016.6 1737.74 2036.97C1737.74 2036.97 1784.54 2176.07 1906.31 2225.47C2005.54 2265.77 2064.47 2238.9 2073.57 2194.27C2079.21 2165.67 2061.44 2118.87 2052.34 2103.7C2047.14 2099.37 2043.67 2092.87 2041.94 2086.37L2038.47 2072.07C2063.17 2066.87 2086.57 2057.33 2106.94 2044.77C2107.81 2046.07 2108.24 2047.37 2108.67 2048.67C2117.77 2070.77 2145.51 2090.7 2145.51 2090.7C2203.57 2227.63 2116.47 2376.7 1872.51 2306.07Z" fill="#544646"/>
<path d="M2214.42 2127.97C2214.42 2127.97 2234.35 2118.43 2254.28 2120.6C2274.22 2122.77 2369.12 2199.47 2378.22 2215.5C2387.75 2231.53 2387.32 2282.67 2376.05 2289.17C2365.22 2295.23 2358.28 2281.37 2358.28 2281.37C2358.28 2281.37 2366.52 2234.57 2357.42 2225.9C2348.32 2217.23 2260.35 2143.57 2257.32 2143.13C2254.28 2142.7 2237.82 2156.57 2237.82 2156.57L2214.42 2127.97Z" fill="#544646"/>
<path d="M1559.65 2117.13C1559.65 2117.13 1520.65 2100.67 1503.75 2103.27C1486.85 2105.87 1399.32 2181.27 1391.09 2214.63C1382.85 2248 1410.59 2308.23 1410.59 2308.23L1430.09 2277.47C1430.09 2277.47 1416.22 2231.53 1420.55 2213.33C1424.89 2195.13 1494.22 2132.73 1501.15 2132.73C1508.09 2132.73 1549.69 2151.37 1549.69 2151.37L1559.65 2117.13Z" fill="#544646"/>
<path d="M1739.91 2141.83C1781.51 2221.57 1864.71 2327.73 2003.81 2377.57C2129.05 2422.63 2121.25 2271.4 2103.05 2180.83C1978.25 2208.13 1853.01 2210.3 1739.91 2141.83Z" fill="#443F3F"/>
<path d="M2103.05 2181.27C2098.28 2157.43 2092.65 2137.93 2088.75 2127.1C2080.08 2103.7 2067.08 2082.9 2055.38 2067.3C2049.75 2069.03 2044.12 2070.33 2038.48 2071.63L2041.95 2085.93C2043.68 2092.87 2047.15 2098.93 2052.35 2103.27C2053.22 2105 2054.52 2107.17 2055.82 2109.77C1957.45 2147.9 1841.32 2097.63 1841.32 2097.63C1806.22 2095.9 1808.82 2130.57 1825.28 2171.73C1762.89 2112.37 1737.75 2036.97 1737.75 2036.97C1736.89 2023.97 1736.02 2011.4 1734.72 1998.83C1734.72 1998.83 1702.65 2016.6 1708.29 2056.47C1710.89 2073.37 1720.85 2105 1740.35 2141.83C1853.02 2210.3 1978.25 2208.13 2103.05 2181.27Z" fill="#E26076"/>
<path d="M1671.89 1959.4C1671.89 1959.4 1772.86 2006.2 1854.32 2027.87C1862.12 2030.03 1868.19 2036.97 1869.06 2045.2C1872.09 2074.67 1880.32 2143.57 1887.26 2170C1896.36 2204.23 2072.72 2378.43 2074.46 2400.53C2076.19 2422.63 1896.36 2417.43 1789.32 2289.17C1681.86 2160.9 1690.09 2137.5 1690.09 2137.5C1690.09 2137.5 1671.89 2014.43 1671.89 1959.4Z" fill="#544646"/>
<path d="M2152.45 2005.77L2180.19 2017.47C2188.85 2020.93 2193.19 2030.9 2190.15 2040C2177.59 2078.13 2146.39 2173.03 2145.09 2205.97C2143.35 2247.57 2057.55 2514.93 2057.55 2514.93C2057.55 2514.93 2005.12 2446.03 2043.69 2378C2074.02 2324.27 2075.75 2209.43 2072.72 2194.27C2068.82 2174.33 2052.35 2127.53 2043.25 2098.07C2038.49 2082.03 2037.62 2072.07 2037.62 2072.07C2037.62 2072.07 2097.42 2062.1 2152.45 2005.77Z" fill="#544646"/>
<path d="M1830.05 2076.83C1836.99 2076.83 1842.62 2070.43 1842.62 2062.53C1842.62 2054.64 1836.99 2048.23 1830.05 2048.23C1823.11 2048.23 1817.48 2054.64 1817.48 2062.53C1817.48 2070.43 1823.11 2076.83 1830.05 2076.83Z" fill="white"/>
<path d="M2030.25 2341.17C1998.62 2307.37 1910.22 2227.2 1883.35 2209.43C1867.75 2199.03 1850.85 2191.23 1833.09 2185.6C1720.42 2149.2 1683.59 2089.83 1683.59 2089.83L1678.82 2048.23" stroke="#443F3F" stroke-width="13.4786" stroke-miterlimit="10" stroke-linecap="round" stroke-linejoin="round"/>
<path d="M2050.62 2365C2050.62 2365 2040.22 2416.57 2044.55 2441.7C2048.89 2466.83 2052.35 2541.8 2052.35 2541.8" stroke="#443F3F" stroke-width="13.4786" stroke-miterlimit="10" stroke-linecap="round" stroke-linejoin="round"/>
<path d="M2170.22 2103.7C2170.22 2103.7 2148.98 2178.23 2139.02 2207.7C2128.62 2237.17 2081.38 2296.1 2068.38 2324.27" stroke="#443F3F" stroke-width="13.4786" stroke-miterlimit="10" stroke-linecap="round" stroke-linejoin="round"/>
<path d="M2113.45 2358.93C2121.35 2358.93 2127.75 2352.53 2127.75 2344.63C2127.75 2336.74 2121.35 2330.33 2113.45 2330.33C2105.55 2330.33 2099.15 2336.74 2099.15 2344.63C2099.15 2352.53 2105.55 2358.93 2113.45 2358.93Z" fill="white"/>
<path d="M1965.94 1749.44C1955.54 1749.01 1947.74 1740.34 1948.6 1729.94L1949.04 1717.81C1949.47 1707.41 1958.14 1699.61 1968.54 1700.47C1978.94 1700.91 1986.74 1709.57 1985.87 1719.97L1985.44 1732.11C1985 1742.07 1976.34 1749.87 1965.94 1749.44Z" fill="#423232"/>
<path d="M2148.37 1755.94C2138.84 1755.51 2131.47 1747.27 2131.9 1737.74L2132.34 1726.47C2132.77 1716.94 2141 1709.57 2150.54 1710.01C2160.07 1710.44 2167.44 1718.67 2167 1728.21L2166.57 1739.47C2166.14 1749.01 2157.9 1756.37 2148.37 1755.94Z" fill="#423232"/>
<path d="M2007.98 1724.31C2007.98 1724.31 1996.72 1708.27 1977.22 1705.24C1961.18 1702.64 1943.42 1710.44 1940.82 1719.54" stroke="#423232" stroke-width="13.4786" stroke-miterlimit="10" stroke-linecap="round" stroke-linejoin="round"/>
<path d="M2135.82 1728.21C2135.82 1728.21 2135.82 1714.34 2155.75 1714.34C2172.22 1714.34 2179.15 1729.51 2179.15 1729.51" stroke="#423232" stroke-width="13.4786" stroke-miterlimit="10" stroke-linecap="round" stroke-linejoin="round"/>
<path d="M2025.73 1654.54C2034.83 1657.57 2043.93 1649.34 2042.2 1639.37C2041.33 1634.17 2039.17 1628.97 2034.83 1625.07C2021.83 1613.37 1968.1 1602.97 1935.6 1618.14C1907 1632.01 1984.13 1640.67 2025.73 1654.54Z" fill="#423232"/>
<path d="M2155.3 1661.47C2147.94 1664.07 2140.14 1656.27 2141.44 1647.17C2141.87 1642.41 2143.6 1637.64 2147.07 1634.17C2157.47 1623.77 2193 1615.54 2215.54 1631.57C2235.04 1645.01 2189.1 1648.91 2155.3 1661.47Z" fill="#423232"/>
<path d="M2086.33 1907.19C2086.78 1922.02 2064.77 1959.76 2022.09 1942.24C1981.2 1925.61 1969.07 1847.44 2027.48 1884.73C2058.03 1904.05 2076.45 1907.19 2086.33 1907.19Z" fill="white"/>
<path d="M2094.87 1905.4C2094.87 1905.4 2076 1915.73 2027.48 1884.73C1969.52 1847.44 1981.2 1925.61 2022.09 1942.24C2064.77 1959.76 2086.78 1921.57 2086.34 1907.19" stroke="#423232" stroke-width="13.4786" stroke-miterlimit="10" stroke-linecap="round" stroke-linejoin="round"/>
<path d="M1987.94 1895.96C1987.94 1895.96 2018.49 1916.18 2027.48 1914.38C2036.91 1913.03 2035.57 1926.06 2078.25 1927.41" stroke="#423232" stroke-width="13.4786" stroke-miterlimit="10" stroke-linecap="round" stroke-linejoin="round"/>
<path d="M1620.65 1616.46C1603.32 1742.99 1660.09 1830.09 1690.42 1866.49C1725.09 1908.09 1728.12 1939.72 1728.12 1939.72C1745.89 1929.76 1768.42 1885.12 1768.85 1861.72C1660.52 1820.12 1680.02 1699.22 1732.89 1692.29C1788.35 1685.36 1805.69 1734.76 1808.72 1746.89C1822.59 1730.42 1821.72 1636.82 1837.75 1578.32C1767.99 1603.46 1694.32 1616.89 1620.65 1616.46Z" fill="#99807F"/>
<path d="M2172.72 1453.52C2145.86 1440.52 2122.89 1413.22 2089.09 1399.79C1891.49 1319.62 1679.59 1401.52 1633.22 1559.69C1627.16 1579.62 1623.26 1598.69 1620.66 1616.89C1694.32 1617.32 1768.42 1603.46 1837.76 1578.76C1844.69 1553.62 1854.66 1534.56 1870.69 1531.09C1954.32 1512.89 2032.76 1503.79 2131.99 1517.22C2168.82 1522.42 2196.99 1505.52 2216.06 1552.32C2219.09 1561.42 2221.69 1570.52 2223.86 1580.06C2230.79 1610.82 2234.26 1636.82 2222.56 1702.69C2230.36 1690.12 2240.32 1663.26 2244.66 1640.29C2258.52 1559.26 2252.02 1491.66 2172.72 1453.52Z" fill="#423232"/>
<path d="M2227.75 1598.26C2232.08 1619.06 2258.52 1617.32 2262.42 1596.52C2268.05 1566.19 2270.65 1529.79 2265.88 1488.62C2243.35 1296.22 2052.25 1231.22 2089.08 1359.49C2089.08 1359.49 2038.82 1278.89 1925.72 1274.56C1828.65 1271.09 1887.58 1339.99 1887.58 1339.99C1887.58 1339.99 1768.85 1296.66 1641.02 1361.66C1529.65 1418.42 1632.78 1468.26 1632.78 1468.26C1632.78 1468.26 1548.28 1512.89 1546.98 1609.09C1546.12 1681.02 1778.82 1684.06 1867.22 1631.62C1913.15 1604.32 1934.82 1557.09 1981.62 1529.36C2063.52 1480.39 2084.75 1590.89 2128.52 1550.16C2179.65 1503.36 2216.48 1540.62 2227.75 1598.26Z" fill="#423232"/>
<path opacity="0.6" d="M2029.94 1800.91C2029.94 1800.91 1989.2 1826.48 1943.27 1826.05C1897.34 1825.61 1891.7 1789.65 1891.27 1770.15C1891.27 1770.15 1897.34 1798.31 1925.07 1808.71C1952.37 1819.11 2029.94 1800.91 2029.94 1800.91Z" fill="#B7AEA9"/>
<path opacity="0.6" d="M2160.8 1796.14C2160.8 1796.14 2170.77 1808.28 2184.2 1816.94C2193.3 1823.01 2205.44 1816.51 2205.44 1805.68C2205.87 1805.68 2180.3 1806.98 2160.8 1796.14Z" fill="#B7AEA9"/>
<path opacity="0.43" d="M2045.96 1678.28L1918.56 1805.68C1928.53 1811.75 1940.66 1814.78 1952.79 1813.05L2013.46 1805.25C2031.66 1802.65 2048.56 1793.55 2061.56 1778.38C2066.76 1772.75 2069.79 1764.95 2070.23 1756.71L2072.39 1713.81C2073.26 1695.18 2061.56 1679.58 2045.96 1678.28Z" fill="#FE9DAB"/>
<path opacity="0.3" d="M2045.96 1678.28L1924.2 1667.01C1903.83 1665.28 1886.5 1683.91 1886.5 1707.31V1744.15C1886.5 1771.01 1899.5 1793.98 1918.56 1805.68L2045.96 1678.28Z" fill="#FE9DAB"/>
<path opacity="0.3" d="M2223.63 1673.95L2147.36 1683.91C2137.4 1685.21 2130.03 1699.51 2130.9 1715.98L2132.2 1754.54C2132.63 1761.91 2134.36 1768.84 2137.4 1774.04C2142.6 1782.71 2149.1 1789.21 2156.03 1793.54L2246.6 1702.98C2244.86 1685.64 2234.9 1672.65 2223.63 1673.95Z" fill="#FE9DAB"/>
<path opacity="0.43" d="M2156.47 1793.98C2160.37 1796.15 2163.84 1797.88 2168.17 1798.75L2205.87 1806.11C2227.97 1810.45 2247.47 1781.41 2247.47 1743.71V1710.78C2247.47 1708.18 2247.47 1706.01 2247.04 1703.85L2156.47 1793.98Z" fill="#FE9DAB"/>
<path d="M2045.96 1678.28L1924.2 1667.01C1903.83 1665.28 1886.5 1683.91 1886.5 1707.31V1744.15C1886.5 1785.75 1917.7 1817.81 1952.8 1813.05L2013.46 1805.25C2031.66 1802.65 2048.56 1793.55 2061.56 1778.38C2066.76 1772.75 2069.8 1764.95 2070.23 1756.71L2072.4 1713.81C2073.26 1695.18 2061.56 1679.58 2045.96 1678.28Z" stroke="white" stroke-width="14.5456" stroke-miterlimit="10" stroke-linecap="round" stroke-linejoin="round"/>
<path d="M2147.8 1684.34L2224.07 1674.38C2236.64 1672.64 2247.47 1689.54 2247.47 1710.78V1743.71C2247.47 1780.98 2227.97 1810.01 2205.87 1806.11L2168.17 1798.74C2156.9 1796.58 2146.07 1787.91 2138.27 1774.48C2135.24 1769.28 2133.07 1762.34 2133.07 1754.98L2131.77 1716.41C2130.47 1699.94 2137.84 1685.64 2147.8 1684.34Z" stroke="white" stroke-width="14.5456" stroke-miterlimit="10" stroke-linecap="round" stroke-linejoin="round"/>
<path d="M1886.51 1711.64L1786.41 1709.48" stroke="white" stroke-width="13.4786" stroke-miterlimit="10" stroke-linecap="round" stroke-linejoin="round"/>
<path d="M2072.41 1714.68C2072.41 1714.68 2124.84 1704.28 2131.34 1714.68" stroke="white" stroke-width="14.5456" stroke-miterlimit="10" stroke-linecap="round" stroke-linejoin="round"/>
</g>
</svg>
