<svg width="3865" height="3930" viewBox="0 0 3865 3930" fill="none" xmlns="http://www.w3.org/2000/svg">
<rect width="3865" height="3930" rx="96" fill="#FFFBF5"/>
<path d="M1933 2615C1573.71 2615 1283 2323.86 1283 1965C1283 1605.71 1574.14 1315 1933 1315C2292.29 1315 2583 1606.14 2583 1965C2583.43 2324.29 2292.29 2615 1933 2615Z" fill="#C2FE9D"/>
<mask id="mask0_426_5265" style="mask-type:alpha" maskUnits="userSpaceOnUse" x="1283" y="1315" width="1300" height="1300">
<path d="M1933 2615C1573.71 2615 1283 2323.86 1283 1965C1283 1605.71 1574.14 1315 1933 1315C2292.29 1315 2583 1606.14 2583 1965C2583.43 2324.29 2292.29 2615 1933 2615Z" fill="#F7C0B5"/>
</mask>
<g mask="url(#mask0_426_5265)">
<path d="M2296.99 2512.33C2293.96 2514.5 2290.49 2516.67 2287.46 2518.83C2283.99 2521 2280.96 2523.17 2277.49 2524.9C2274.46 2526.63 2271.86 2528.37 2268.83 2530.1C2268.39 2530.53 2267.96 2530.53 2267.53 2530.97C2257.56 2537.03 2247.16 2542.67 2236.76 2547.87C2233.73 2549.6 2230.26 2551.33 2227.23 2552.63C2227.23 2552.63 2226.79 2553.07 2226.36 2553.07C2222.89 2554.8 2219.43 2556.53 2215.96 2558.27C2209.03 2561.73 2201.66 2564.77 2194.73 2567.8C2191.26 2569.53 2187.36 2570.83 2183.89 2572.13C2180.43 2573.43 2176.53 2575.17 2173.06 2576.47C2169.59 2577.77 2165.69 2579.5 2162.23 2580.8C2162.23 2580.8 2162.23 2580.8 2161.79 2580.8C2158.33 2582.1 2154.43 2583.4 2150.96 2584.7C2143.16 2587.3 2134.93 2589.9 2127.13 2592.5C2124.53 2593.37 2121.49 2594.23 2118.89 2595.1C2110.66 2597.7 2102.43 2599.87 2094.19 2601.6C2091.16 2602.47 2088.13 2602.9 2084.66 2603.77C2076.86 2605.5 2068.63 2607.23 2060.83 2608.97C2059.09 2609.4 2057.79 2609.4 2056.06 2609.83C2053.46 2610.27 2050.43 2610.7 2047.83 2611.13C2043.93 2611.57 2040.46 2612.43 2036.56 2612.87C2034.83 2613.3 2033.09 2613.3 2031.36 2613.73C2029.19 2614.17 2026.59 2614.6 2023.99 2614.6C2017.06 2615.47 2009.69 2616.33 2002.76 2617.2C2000.59 2617.63 1997.99 2617.63 1995.83 2618.07H1995.39C1992.36 2618.5 1989.33 2618.5 1986.29 2618.93C1983.26 2619.37 1980.23 2619.37 1977.19 2619.37C1975.46 2619.37 1973.29 2619.8 1971.56 2619.8C1968.09 2619.8 1965.06 2620.23 1962.03 2620.23C1957.69 2620.23 1953.79 2620.67 1949.46 2620.67C1945.13 2620.67 1941.23 2620.67 1936.89 2620.67C1933.86 2620.67 1930.83 2620.67 1927.79 2620.67C1745.36 2618.07 1580.7 2540.5 1463.7 2417.43C1463.7 2417.43 1463.7 2417 1463.26 2417C1476.7 2390.57 1526.53 2342.9 1578.53 2303.47C1644.39 2253.63 1737.56 2222.87 1737.56 2222.87C1737.56 2222.87 1798.66 2212.9 2025.29 2260.13C2198.19 2296.53 2271.86 2444.3 2296.99 2512.33Z" fill="#F7D3B5"/>
<path d="M2073.4 2380.16C2064.3 2424.8 2005.37 2451.23 1906.13 2411.36C1784.37 2361.96 1737.57 2222.86 1737.57 2222.86C1731.07 2123.2 1715.9 2037.83 1715.9 2037.83C1856.73 2025.7 2023.13 2190.36 2023.13 2190.36L2042.2 2271.83C2043.93 2278.76 2047.4 2284.83 2052.6 2289.16C2061.7 2304.76 2079.47 2351.56 2073.4 2380.16Z" fill="#F7D3B5"/>
<path d="M2052.6 2289.6C1969.83 2285.26 1908.73 2273.13 1843.3 2155.7C1898.76 2204.66 1964.2 2223.3 2033.1 2231.96L2042.2 2271.83C2043.93 2279.2 2047.4 2285.26 2052.6 2289.6Z" fill="#EFBDA5"/>
<path d="M2223.75 1767.43C2231.55 1803.83 2235.45 1833.3 2214.22 1930.37C2192.99 2027.43 2233.72 2124.5 2131.45 2213.33C2062.55 2273.13 1942.09 2284.4 1845.89 2218.96C1813.39 2196.86 1783.49 2166.1 1759.22 2125.8C1740.15 2094.17 1718.05 2064.26 1693.35 2036.96C1659.12 1999.7 1617.95 1924.73 1638.32 1792.13C1671.25 1576.33 1884.89 1551.63 2010.99 1575.47C2137.09 1599.3 2202.52 1671.23 2223.75 1767.43Z" fill="#F7D3B5"/>
<path d="M1809.06 1936.86C1809.06 1936.86 1795.63 1871.86 1732.36 1879.66C1677.76 1886.6 1658.7 2017.46 1782.63 2053.86" fill="#F7D3B5"/>
<path d="M1778.73 1994.5C1778.73 1994.5 1763.13 1984.53 1764.86 1967.2C1767.46 1946.83 1764.86 1934.26 1755.33 1930.36C1731.49 1920.4 1726.73 1948.13 1727.59 1951.6" stroke="#423232" stroke-width="13.4786" stroke-miterlimit="10" stroke-linecap="round" stroke-linejoin="round"/>
<path d="M2109.36 2036.53C2109.36 2036.53 2125.83 2037.4 2141.43 2018.77C2150.1 2008.37 2157.46 1995.37 2152.7 1991.47C2147.93 1987.13 2069.5 1999.27 2064.3 2009.67C2059.1 2020.07 2089.43 2036.53 2109.36 2036.53Z" fill="#EFBDA5"/>
<path d="M2122.36 1890.93C2122.36 1890.93 2123.22 1932.1 2149.66 1978.03C2161.36 1998.4 2143.59 2031.77 2105.02 2037.4" stroke="#423232" stroke-width="13.4786" stroke-miterlimit="10" stroke-linecap="round" stroke-linejoin="round"/>
<path opacity="0.42" d="M1887.49 2058.63C1912.14 2058.63 1932.12 2042.14 1932.12 2021.8C1932.12 2001.46 1912.14 1984.96 1887.49 1984.96C1862.84 1984.96 1842.86 2001.46 1842.86 2021.8C1842.86 2042.14 1862.84 2058.63 1887.49 2058.63Z" fill="#ED938A"/>
<path opacity="0.42" d="M2207.3 1985.83C2206 2010.1 2206.43 2033.93 2204.7 2057.76C2185.63 2053.43 2171.77 2039.13 2171.77 2022.23C2171.77 2004.03 2186.93 1989.3 2207.3 1985.83Z" fill="#ED938A"/>
<path d="M2441.24 2780.29H1345.77C1345.77 2780.29 1352.27 2579.23 1418.14 2435.79C1467.97 2327.46 1585.4 2267.23 1672.94 2236.03C1697.64 2227.36 1720.17 2220.86 1737.5 2216.09C1737.5 2218.26 1737.94 2219.99 1737.94 2222.16C1737.94 2222.16 1784.74 2361.26 1906.5 2410.66C2005.74 2450.96 2064.67 2424.09 2073.77 2379.46C2079.4 2350.86 2061.64 2304.06 2052.54 2288.89C2047.34 2284.56 2043.87 2278.06 2042.14 2271.56L2038.67 2257.26C2046.9 2255.53 2054.7 2253.36 2062.5 2250.76C2065.1 2249.89 2067.27 2249.03 2069.87 2248.16C2125.77 2262.89 2209.84 2297.99 2309.07 2381.19C2421.3 2475.23 2441.24 2780.29 2441.24 2780.29Z" fill="#7C67D2"/>
<mask id="mask1_426_5265" style="mask-type:alpha" maskUnits="userSpaceOnUse" x="1345" y="2216" width="1097" height="565">
<path d="M2441.24 2780.29H1345.77C1345.77 2780.29 1352.27 2579.23 1418.14 2435.79C1467.97 2327.46 1585.4 2267.23 1672.94 2236.03C1697.64 2227.36 1720.17 2220.86 1737.5 2216.09C1737.5 2218.26 1737.94 2219.99 1737.94 2222.16C1737.94 2222.16 1784.74 2361.26 1906.5 2410.66C2005.74 2450.96 2064.67 2424.09 2073.77 2379.46C2079.4 2350.86 2061.64 2304.06 2052.54 2288.89C2047.34 2284.56 2043.87 2278.06 2042.14 2271.56L2038.67 2257.26C2046.9 2255.53 2054.7 2253.36 2062.5 2250.76C2065.1 2249.89 2067.27 2249.03 2069.87 2248.16C2125.77 2262.89 2209.84 2297.99 2309.07 2381.19C2421.3 2475.23 2441.24 2780.29 2441.24 2780.29Z" fill="#CE3E3E"/>
</mask>
<g mask="url(#mask1_426_5265)">
<path d="M1795.41 2293.4L1737.19 2351.61L1795.41 2409.83L1853.63 2351.61L1795.41 2293.4Z" fill="white"/>
<path d="M2023.4 2293.57L1965.18 2351.79L2023.4 2410L2081.62 2351.79L2023.4 2293.57Z" fill="white"/>
<path d="M1567.1 2293.53L1508.88 2351.75L1567.1 2409.97L1625.31 2351.75L1567.1 2293.53Z" fill="white"/>
<path d="M2248.66 2293.4L2190.44 2351.61L2248.66 2409.83L2306.88 2351.61L2248.66 2293.4Z" fill="white"/>
<path d="M1689.95 2518.91L1631.73 2577.13L1689.95 2635.35L1748.17 2577.13L1689.95 2518.91Z" fill="white"/>
<path d="M1918.26 2518.78L1860.04 2577L1918.26 2635.21L1976.48 2577L1918.26 2518.78Z" fill="white"/>
<path d="M2143.22 2518.91L2085 2577.13L2143.22 2635.35L2201.44 2577.13L2143.22 2518.91Z" fill="white"/>
</g>
<path d="M2002.71 2392.89C2002.71 2392.89 1972.81 2415.43 1979.31 2436.66C1985.38 2457.89 2043.44 2454.43 2054.71 2436.66C2065.54 2418.89 2017.01 2388.99 2002.71 2392.89Z" fill="#7C67D2"/>
<path d="M2002.27 2392.46C2002.71 2392.89 2002.71 2392.89 2003.14 2393.33C2003.14 2392.89 2003.14 2392.46 2003.14 2392.46C2002.71 2392.03 2002.27 2392.03 2002.27 2392.46Z" fill="white"/>
<path d="M1887.44 2375.13C1765.68 2325.73 1737.94 2222.16 1737.94 2222.16C1737.94 2219.99 1737.51 2218.26 1737.51 2216.09C1737.08 2209.59 1735.78 2190.96 1734.91 2184.46C1727.11 2187.06 1717.58 2192.26 1708.91 2197.03C1693.31 2206.13 1680.74 2219.13 1672.94 2235.16C1672.94 2235.59 1672.51 2235.59 1672.51 2236.03C1671.64 2349.99 1783.01 2437.09 1870.11 2468.29C1922.98 2487.36 1982.34 2460.06 1999.24 2406.76C2000.54 2401.99 2001.84 2397.66 2002.71 2392.89C2002.28 2392.46 2002.28 2392.46 2001.84 2392.03C1973.68 2398.09 1935.11 2394.19 1887.44 2375.13Z" fill="white"/>
<path d="M2108.88 2356.93C2101.51 2296.69 2082.01 2273.29 2062.94 2250.33C2055.14 2252.93 2042.14 2255.96 2033.91 2257.69C2033.91 2257.69 2062.08 2294.09 2054.71 2343.49C2051.24 2366.89 2033.48 2384.66 2003.14 2391.59C2003.14 2392.03 2003.14 2392.03 2002.71 2392.46C2013.98 2405.46 2026.54 2416.73 2040.41 2425.83C2062.94 2440.99 2094.14 2431.03 2103.24 2405.46C2108.88 2390.73 2111.04 2373.83 2108.88 2356.93Z" fill="white"/>
<path d="M1560.27 2780.29L1540.77 2619.96" stroke="#544D4D" stroke-width="13.4786" stroke-miterlimit="10" stroke-linecap="round" stroke-linejoin="round"/>
<path d="M2316.88 2564.93C2316.88 2564.93 2303.88 2596.56 2307.78 2628.19C2311.68 2659.83 2322.94 2706.19 2306.91 2780.29" stroke="#544D4D" stroke-width="13.4786" stroke-miterlimit="10" stroke-linecap="round" stroke-linejoin="round"/>
<path d="M1998.18 1901.76C1998.18 1901.76 1967.84 1902.2 1937.08 1879.23" stroke="#423232" stroke-width="13.4786" stroke-miterlimit="10" stroke-linecap="round" stroke-linejoin="round"/>
<path d="M2126.88 1908.7C2126.88 1908.7 2158.08 1903.06 2167.18 1890.93" stroke="#423232" stroke-width="13.4786" stroke-miterlimit="10" stroke-linecap="round" stroke-linejoin="round"/>
<path d="M2018.98 1868.4C2027.21 1873.16 2037.61 1866.66 2038.04 1856.7C2038.04 1851.5 2037.18 1845.86 2033.71 1841.1C2023.31 1827.23 1972.61 1806 1937.51 1815.1C1907.18 1822.9 1981.28 1846.73 2018.98 1868.4Z" fill="#423232"/>
<path d="M2152.03 1873.6C2145.96 1878.36 2135.99 1872.73 2134.69 1863.63C2133.83 1858.86 2134.26 1853.66 2136.43 1849.33C2143.36 1836.33 2175.43 1818.56 2201.43 1827.23C2223.96 1835.46 2181.06 1852.36 2152.03 1873.6Z" fill="#423232"/>
<path d="M1949.21 1887.03C1945.74 1890.06 1943.58 1894.83 1943.14 1899.6L1942.71 1911.73C1942.28 1922.13 1950.08 1930.8 1960.04 1931.23C1970.44 1931.66 1979.11 1923.86 1979.54 1913.9L1979.98 1901.76C1979.98 1901.33 1979.98 1900.9 1979.98 1900.46C1968.71 1899.6 1958.74 1894.83 1949.21 1887.03Z" fill="#423232"/>
<path d="M2126.88 1907.83C2126.88 1908.26 2126.88 1908.26 2126.88 1908.7L2126.44 1919.96C2126.01 1929.5 2133.38 1937.73 2142.91 1938.16C2152.44 1938.6 2160.68 1931.23 2161.11 1921.7L2161.54 1910.43C2161.98 1906.1 2160.24 1902.2 2158.08 1899.16C2148.54 1904.8 2138.14 1906.1 2126.88 1907.83Z" fill="#423232"/>
<path d="M2108.91 2094.14C2108.91 2094.14 2051.85 2067.63 2024.45 2082.01" stroke="#423232" stroke-width="13.4786" stroke-miterlimit="10" stroke-linecap="round" stroke-linejoin="round"/>
<path d="M2257.21 1662.83C2226.44 1774.19 2137.18 1755.56 2053.54 1725.23C1942.18 1684.49 1844.24 1717.43 1843.81 1817.96C1842.94 1965.29 1806.11 1920.66 1802.21 1915.03C1792.68 1896.83 1772.31 1874.29 1733.74 1879.06C1683.04 1885.56 1663.11 1997.36 1757.58 2043.29C1774.04 2126.93 1728.98 2119.13 1728.98 2119.13C1713.81 2057.59 1586.41 1926.73 1585.98 1840.49C1585.98 1724.36 1644.48 1691.43 1644.48 1691.43C1646.21 1610.39 1730.71 1521.13 1872.84 1524.16C2014.98 1526.76 2102.08 1522.86 2129.81 1489.49C2157.54 1455.26 2287.98 1551.46 2257.21 1662.83Z" fill="#423232"/>
<path d="M2260.67 1796.73C2256.33 1824.89 2244.2 1846.56 2227.3 1862.59C2233.8 1815.36 2230.33 1792.83 2224.7 1766.39C2212.57 1712.23 2186.57 1665.43 2143.23 1630.76C2164.9 1629.03 2187 1633.79 2206.93 1646.36C2206.93 1645.93 2278.43 1674.96 2260.67 1796.73Z" fill="#423232"/>
<path opacity="0.6" d="M2148.08 1992.25C2148.08 1992.25 2153.28 2021.72 2187.52 2036.45C2196.18 2039.92 2205.28 2034.29 2205.28 2024.75C2204.85 2024.75 2150.25 1995.72 2148.08 1992.25Z" fill="#B7AEA9"/>
<path opacity="0.6" d="M2065.75 1921.19C2065.75 1921.19 2093.49 1893.45 2107.35 1890.42L2070.52 1899.09L2065.75 1921.19Z" fill="#B7AEA9"/>
<path opacity="0.6" d="M1880.72 1992.25C1880.72 1992.25 1896.75 2028.65 1944.85 2037.32C1992.95 2046.42 2036.72 2011.75 2057.09 1953.69C2057.09 1953.69 2040.62 2007.42 1974.75 2017.39C1909.32 2028.22 1880.72 1992.25 1880.72 1992.25Z" fill="#B7AEA9"/>
<path opacity="0.29" d="M1958.28 1797.69C1897.18 1797.69 1847.35 1848.82 1846.92 1911.22C1846.92 1940.69 1857.75 1967.55 1875.52 1987.05L2032.82 1828.02C2013.32 1808.95 1987.32 1797.69 1958.28 1797.69Z" fill="#DBC3ED"/>
<path opacity="0.23" d="M2032.81 1828.02L1875.51 1987.05C1895.44 2009.15 1923.61 2022.59 1954.81 2022.59C2015.04 2022.59 2064.44 1972.75 2066.17 1910.79C2067.04 1878.29 2054.04 1848.82 2032.81 1828.02Z" fill="#C4ADD8"/>
<path opacity="0.29" d="M2211.79 1797.69C2165.42 1797.69 2126.42 1848.82 2124.69 1911.22C2123.82 1936.35 2129.45 1959.32 2138.99 1977.95L2276.35 1841.89C2262.05 1815.02 2238.65 1797.69 2211.79 1797.69Z" fill="#DBC3ED"/>
<path opacity="0.23" d="M2276.34 1841.45L2138.97 1977.52C2153.27 2004.82 2176.67 2022.59 2203.97 2022.59C2249.47 2022.59 2288.47 1972.75 2291.07 1910.79C2291.94 1885.22 2286.31 1860.95 2276.34 1841.45Z" fill="#C4ADD8"/>
<path d="M2066.18 1911.22C2064.88 1973.19 2015.05 2023.02 1954.81 2023.02C1894.58 2023.02 1846.48 1973.19 1846.48 1911.22C1846.91 1848.82 1896.75 1797.69 1957.85 1797.69C2018.95 1797.69 2067.91 1848.82 2066.18 1911.22Z" stroke="#F6FAFB" stroke-width="13.4786" stroke-miterlimit="10" stroke-linecap="round" stroke-linejoin="round"/>
<path d="M2291.08 1911.22C2288.48 1973.19 2249.48 2023.02 2203.98 2023.02C2158.48 2023.02 2122.94 1973.19 2124.68 1911.22C2126.41 1848.82 2165.41 1797.69 2211.78 1797.69C2258.14 1797.69 2293.68 1848.82 2291.08 1911.22Z" stroke="#F6FAFB" stroke-width="13.4786" stroke-miterlimit="10" stroke-linecap="round" stroke-linejoin="round"/>
<path d="M1847.78 1899.09H1786.25" stroke="#F6FAFB" stroke-width="13.4786" stroke-miterlimit="10" stroke-linecap="round" stroke-linejoin="round"/>
<path d="M2066.61 1899.09C2066.61 1899.09 2118.18 1879.15 2124.68 1899.09" stroke="#F6FAFB" stroke-width="13.4786" stroke-miterlimit="10" stroke-linecap="round" stroke-linejoin="round"/>
</g>
</svg>
