<svg width="3865" height="3930" viewBox="0 0 3865 3930" fill="none" xmlns="http://www.w3.org/2000/svg">
<rect width="3865" height="3930" rx="96" fill="#FFFBF5"/>
<path d="M1932 2430C1572.71 2430 1282 2138.86 1282 1780C1282 1420.71 1573.14 1130 1932 1130C2291.29 1130 2582 1421.14 2582 1780C2582.43 2139.29 2291.29 2430 1932 2430Z" fill="#F5EB9F"/>
<mask id="mask0_422_4011" style="mask-type:alpha" maskUnits="userSpaceOnUse" x="1282" y="1130" width="1300" height="1300">
<path d="M1932 2430C1572.71 2430 1282 2138.86 1282 1780C1282 1420.71 1573.14 1130 1932 1130C2291.29 1130 2582 1421.14 2582 1780C2582.43 2139.29 2291.29 2430 1932 2430Z" fill="#F7C0B5"/>
</mask>
<g mask="url(#mask0_422_4011)">
<path d="M2294.27 2327.33C2291.23 2329.5 2287.77 2331.66 2284.73 2333.83C2281.27 2336 2278.23 2338.16 2274.77 2339.9C2271.73 2341.63 2269.13 2343.36 2266.1 2345.1C2265.67 2345.53 2265.23 2345.53 2264.8 2345.96C2254.83 2352.03 2244.43 2357.66 2234.03 2362.86C2231 2364.6 2227.53 2366.33 2224.5 2367.63C2224.5 2367.63 2224.07 2368.06 2223.63 2368.06C2220.17 2369.8 2216.7 2371.53 2213.23 2373.26C2206.3 2376.73 2198.93 2379.76 2192 2382.8C2188.53 2384.53 2184.63 2385.83 2181.17 2387.13C2177.7 2388.43 2173.8 2390.16 2170.33 2391.46C2166.87 2392.76 2162.97 2394.5 2159.5 2395.8C2159.5 2395.8 2159.5 2395.8 2159.07 2395.8C2155.6 2397.1 2151.7 2398.4 2148.23 2399.7C2140.43 2402.3 2132.2 2404.9 2124.4 2407.5C2121.8 2408.36 2118.77 2409.23 2116.17 2410.1C2107.93 2412.7 2099.7 2414.86 2091.47 2416.6C2088.43 2417.46 2085.4 2417.9 2081.93 2418.76C2074.13 2420.5 2065.9 2422.23 2058.1 2423.96C2056.37 2424.4 2055.07 2424.4 2053.33 2424.83C2050.73 2425.26 2047.7 2425.7 2045.1 2426.13C2041.2 2426.56 2037.73 2427.43 2033.83 2427.86C2032.1 2428.3 2030.37 2428.3 2028.63 2428.73C2026.47 2429.16 2023.87 2429.6 2021.27 2429.6C2014.33 2430.46 2006.97 2431.33 2000.03 2432.2C1997.87 2432.63 1995.27 2432.63 1993.1 2433.06H1992.67C1989.63 2433.5 1986.6 2433.5 1983.57 2433.93C1980.53 2434.36 1977.5 2434.36 1974.47 2434.36C1972.73 2434.36 1970.57 2434.8 1968.83 2434.8C1965.37 2434.8 1962.33 2435.23 1959.3 2435.23C1954.97 2435.23 1951.07 2435.66 1946.73 2435.66C1942.4 2435.66 1938.5 2435.66 1934.17 2435.66C1931.13 2435.66 1928.1 2435.66 1925.07 2435.66C1742.64 2433.06 1577.97 2355.5 1460.97 2232.43C1460.97 2232.43 1460.97 2232 1460.54 2232C1473.97 2205.56 1523.8 2157.9 1575.8 2118.46C1641.67 2068.63 1734.84 2037.86 1734.84 2037.86C1734.84 2037.86 1795.93 2027.9 2022.57 2075.13C2195.47 2111.53 2269.13 2259.3 2294.27 2327.33Z" fill="#D39E91"/>
<path d="M2070.67 2195.16C2061.57 2239.8 2002.64 2266.23 1903.4 2226.36C1781.64 2176.96 1734.84 2037.86 1734.84 2037.86C1728.34 1938.2 1713.17 1852.83 1713.17 1852.83C1854 1840.7 2020.4 2005.36 2020.4 2005.36L2039.47 2086.83C2041.2 2093.76 2044.67 2099.83 2049.87 2104.16C2058.97 2119.76 2076.74 2166.56 2070.67 2195.16Z" fill="#D39E91"/>
<path d="M2049.87 2104.6C1967.1 2100.26 1906 2088.13 1840.57 1970.7C1896.03 2019.66 1961.47 2038.3 2030.37 2046.96L2039.47 2086.83C2041.2 2094.2 2044.67 2100.26 2049.87 2104.6Z" fill="#B07370"/>
<path d="M2221.04 1582.43C2228.84 1618.83 2232.74 1648.3 2211.5 1745.36C2190.27 1842.43 2231 1939.5 2128.74 2028.33C2059.84 2088.13 1939.37 2099.4 1843.17 2033.96C1810.67 2011.86 1780.77 1981.1 1756.5 1940.8C1737.44 1909.16 1715.34 1879.26 1690.64 1851.96C1656.4 1814.7 1615.24 1739.73 1635.6 1607.13C1668.54 1391.33 1882.17 1366.63 2008.27 1390.46C2134.37 1414.3 2199.8 1486.23 2221.04 1582.43Z" fill="#D39E91"/>
<path d="M1806.34 1751.86C1806.34 1751.86 1792.9 1686.86 1729.64 1694.66C1675.04 1701.6 1655.97 1832.46 1779.9 1868.86" fill="#D39E91"/>
<path d="M1776 1809.5C1776 1809.5 1760.4 1799.53 1762.13 1782.2C1764.73 1761.83 1762.13 1749.26 1752.6 1745.36C1728.77 1735.4 1724 1763.13 1724.87 1766.6" stroke="#99807F" stroke-width="13.4786" stroke-miterlimit="10" stroke-linecap="round" stroke-linejoin="round"/>
<path d="M2106.64 1851.53C2106.64 1851.53 2123.11 1852.4 2138.71 1833.76C2147.37 1823.36 2154.74 1810.36 2149.97 1806.46C2145.21 1802.13 2066.77 1814.26 2061.57 1824.66C2056.37 1835.06 2086.71 1851.53 2106.64 1851.53Z" fill="#B07370"/>
<path d="M2119.64 1705.93C2119.64 1705.93 2120.5 1747.1 2146.94 1793.03C2158.64 1813.4 2140.87 1846.76 2102.3 1852.4" stroke="#99807F" stroke-width="13.4786" stroke-miterlimit="10" stroke-linecap="round" stroke-linejoin="round"/>
<path d="M1659.81 2021.37C1659.81 2021.37 1723.08 1996.23 1734.78 1995.37L1735.65 2005.33C1735.65 2005.33 1685.38 2027 1682.35 2030.47C1679.75 2033.5 1659.81 2021.37 1659.81 2021.37Z" fill="#7E5D6D"/>
<path d="M2440.25 2583.4H1344.78C1344.78 2583.4 1351.28 2382.33 1417.15 2238.9C1466.98 2130.57 1586.58 2059.07 1673.68 2027.87C1698.38 2019.2 1717.45 2009.67 1735.21 2004.9C1735.21 2007.07 1736.51 2023.1 1736.51 2024.83C1736.51 2024.83 1804.98 2092 1959.25 2100.23C2030.75 2104.13 2037.68 2059.5 2037.68 2059.5C2045.91 2057.77 2053.71 2055.6 2061.51 2053C2064.11 2052.13 2082.31 2044.77 2084.48 2043.9C2140.38 2058.63 2208.85 2100.23 2308.08 2183.43C2420.31 2278.33 2440.25 2583.4 2440.25 2583.4Z" fill="#4C4444"/>
<path d="M2229.21 2142.7C2257.21 2142.7 2279.91 2120 2279.91 2092C2279.91 2064 2257.21 2041.3 2229.21 2041.3C2201.21 2041.3 2178.51 2064 2178.51 2092C2178.51 2120 2201.21 2142.7 2229.21 2142.7Z" fill="#FFFF8D"/>
<path d="M1559.28 2583.4L1539.78 2423.07" stroke="#544D4D" stroke-width="13.4786" stroke-miterlimit="10" stroke-linecap="round" stroke-linejoin="round"/>
<path d="M2315.88 2368.03C2315.88 2368.03 2302.88 2399.67 2306.78 2431.3C2310.68 2462.93 2321.94 2509.3 2305.91 2583.4" stroke="#544D4D" stroke-width="13.4786" stroke-miterlimit="10" stroke-linecap="round" stroke-linejoin="round"/>
<path d="M1659.81 2021.37C1668.04 2018.77 1682.34 2021.37 1686.68 2028.73C1703.58 2056.47 1744.31 2137.5 1761.21 2298.27C1774.64 2423.93 1754.28 2650.13 1754.28 2650.13L1333.51 2630.2C1333.51 2630.2 1346.08 2416.57 1382.91 2273.13C1418.88 2134.03 1513.34 2071.63 1659.81 2021.37Z" fill="white"/>
<path d="M2095.31 2047.8C2095.31 2047.8 2229.21 2299.57 2190.21 2635.83H2479.25C2479.25 2635.83 2477.95 2368.9 2412.95 2223.73C2347.95 2079 2120.45 2036.53 2120.45 2036.53C2120.45 2036.53 2106.15 2043.47 2095.31 2047.8Z" fill="white"/>
<path d="M2095.31 2047.8L2084.91 2044.77C2084.91 2044.77 2100.07 2037.4 2106.57 2033.07L2110.47 2030.9C2110.47 2030.9 2131.27 2040.43 2138.64 2043.9C2146.01 2047.37 2113.07 2063.4 2113.07 2063.4C2113.07 2063.4 2096.61 2047.8 2095.31 2047.8Z" fill="#7E5D6D"/>
<path d="M1623.85 2170C1623.85 2170 1564.05 2212.03 1569.68 2256.67C1575.32 2301.3 1759.48 2580.8 1759.48 2580.8C1759.48 2580.8 1781.15 2429.13 1756.45 2257.53C1756.45 2257.53 1738.68 2233.7 1706.18 2209.87C1684.52 2194.7 1656.78 2178.67 1623.85 2170Z" fill="#AD7E5A"/>
<path d="M2323.24 2256.67C2324.97 2228.93 2260.84 2183.87 2260.84 2183.87C2235.27 2191.23 2217.07 2202.93 2204.07 2215.5C2175.04 2242.8 2171.14 2273.57 2171.14 2273.57L2172.87 2281.37C2203.64 2415.27 2194.54 2589.47 2194.54 2589.47C2194.54 2589.47 2321.51 2284.4 2323.24 2256.67Z" fill="#AD7E5A"/>
<path d="M1756.01 2257.53C1756.01 2257.53 1725.68 2225.47 1689.28 2202.93C1608.68 2153.1 1490.38 2130.13 1489.08 2091.57C1488.21 2048.23 1632.08 1957.67 1727.41 1926.9C1727.41 1927.33 1727.41 1927.77 1727.41 1928.2C1727.41 1928.63 1727.41 1929.07 1727.41 1929.93C1727.41 1930.8 1727.41 1931.67 1727.85 1932.53C1727.85 1933.83 1728.28 1935.13 1728.28 1936.43C1728.28 1937.3 1728.28 1937.73 1728.71 1938.6C1731.75 1964.6 1734.35 1993.63 1736.51 2024.4V2024.83C1736.51 2024.83 1716.58 2031.33 1730.88 2130.57C1734.78 2154.83 1749.51 2197.3 1756.01 2257.53Z" fill="#AD7E5A"/>
<path d="M2171.15 2271.4C2171.15 2271.4 2142.11 2158.73 2127.81 2122.77C2113.51 2087.23 2086.65 2046.93 2085.35 2044.77C2102.25 2036.97 2117.41 2027 2130.85 2015.3C2144.28 2003.6 2155.11 1991.9 2164.21 1980.2C2212.75 2005.77 2351.85 2086.37 2358.78 2126.67C2366.58 2170.43 2198.01 2167.83 2171.15 2271.4Z" fill="#AD7E5A"/>
<path d="M2260.84 2183.87C2235.27 2191.23 2217.07 2202.93 2204.07 2215.5C2175.04 2242.8 2171.14 2273.57 2171.14 2273.57" stroke="#894B33" stroke-width="13.4786" stroke-miterlimit="10" stroke-linecap="round" stroke-linejoin="round"/>
<path d="M1756.02 2257.53C1756.02 2257.53 1738.25 2233.7 1705.75 2209.87C1684.52 2194.27 1656.78 2178.67 1623.42 2169.57" stroke="#894B33" stroke-width="13.4786" stroke-miterlimit="10" stroke-linecap="round" stroke-linejoin="round"/>
<path d="M1965.95 1749.44C1955.55 1749.01 1947.75 1740.34 1948.61 1729.94L1949.05 1717.81C1949.48 1707.41 1958.15 1699.61 1968.55 1700.47C1978.95 1700.91 1986.75 1709.57 1985.88 1719.97L1985.45 1732.11C1985.01 1742.07 1976.35 1749.87 1965.95 1749.44Z" fill="#423232"/>
<path d="M2148.38 1755.94C2138.85 1755.51 2131.48 1747.27 2131.91 1737.74L2132.35 1726.47C2132.78 1716.94 2141.01 1709.57 2150.55 1710.01C2160.08 1710.44 2167.45 1718.67 2167.01 1728.21L2166.58 1739.47C2166.15 1749.01 2157.91 1756.37 2148.38 1755.94Z" fill="#423232"/>
<path d="M2007.97 1724.31C2007.97 1724.31 1996.71 1708.27 1977.21 1705.24C1961.17 1702.64 1943.41 1710.44 1940.81 1719.54" stroke="#423232" stroke-width="13.4786" stroke-miterlimit="10" stroke-linecap="round" stroke-linejoin="round"/>
<path d="M2135.81 1728.21C2135.81 1728.21 2135.81 1714.34 2155.74 1714.34C2172.21 1714.34 2179.14 1729.51 2179.14 1729.51" stroke="#423232" stroke-width="13.4786" stroke-miterlimit="10" stroke-linecap="round" stroke-linejoin="round"/>
<path d="M2025.74 1654.54C2034.84 1657.57 2043.94 1649.34 2042.21 1639.37C2041.34 1634.17 2039.17 1628.97 2034.84 1625.07C2021.84 1613.37 1968.11 1602.97 1935.61 1618.14C1907.01 1632.01 1984.14 1640.67 2025.74 1654.54Z" fill="#423232"/>
<path d="M2155.31 1661.47C2147.94 1664.07 2140.14 1656.27 2141.44 1647.17C2141.88 1642.41 2143.61 1637.64 2147.08 1634.17C2157.48 1623.77 2193.01 1615.54 2215.54 1631.57C2235.04 1645.01 2189.11 1648.91 2155.31 1661.47Z" fill="#423232"/>
<path d="M2086.33 1907.19C2086.78 1922.02 2064.77 1959.76 2022.08 1942.24C1981.2 1925.61 1969.07 1847.44 2027.47 1884.73C2058.03 1904.05 2076.45 1907.19 2086.33 1907.19Z" fill="white"/>
<path d="M2094.87 1905.4C2094.87 1905.4 2076 1915.73 2027.48 1884.73C1969.52 1847.44 1981.2 1925.61 2022.09 1942.24C2064.77 1959.76 2086.78 1921.57 2086.33 1907.19" stroke="#423232" stroke-width="13.4786" stroke-miterlimit="10" stroke-linecap="round" stroke-linejoin="round"/>
<path d="M1987.94 1895.96C1987.94 1895.96 2018.49 1916.18 2027.48 1914.38C2036.91 1913.03 2035.57 1926.06 2078.25 1927.41" stroke="#423232" stroke-width="13.4786" stroke-miterlimit="10" stroke-linecap="round" stroke-linejoin="round"/>
<path d="M1935.72 1377.36C1680.05 1366.52 1604.65 1587.52 1626.32 1714.06C1647.55 1836.26 1725.12 1892.59 1725.12 1892.59L1777.55 1874.39C1777.55 1874.39 1757.18 1867.46 1737.68 1853.16C1670.52 1802.02 1691.32 1709.29 1737.25 1703.22C1783.18 1697.59 1802.68 1730.52 1810.05 1748.72C1834.32 1668.56 1800.08 1648.62 1834.32 1591.86C1941.35 1476.16 2017.62 1549.39 2068.32 1569.32C2114.68 1587.52 2144.58 1564.99 2170.15 1541.16C2185.32 1526.86 2206.98 1530.76 2206.98 1530.76C2206.98 1530.76 2177.52 1387.76 1935.72 1377.36Z" fill="#99807F"/>
<path d="M2031.23 1799.07H1930.27C1903.83 1799.07 1882.6 1777.83 1882.6 1751.4V1710.23C1882.6 1683.8 1903.83 1662.57 1930.27 1662.57H2031.23C2057.67 1662.57 2078.9 1683.8 2078.9 1710.23V1751.4C2078.9 1777.83 2057.23 1799.07 2031.23 1799.07Z" stroke="#423232" stroke-width="13.4786" stroke-miterlimit="10" stroke-linecap="round" stroke-linejoin="round"/>
<path d="M2205.44 1662.57H2155.6C2138.27 1662.57 2123.97 1676.87 2123.97 1694.2V1731.9C2130.04 1753.57 2138.7 1774.37 2151.7 1793C2153 1793 2154.3 1793.43 2155.6 1793.43H2205.44C2222.77 1793.43 2237.07 1779.13 2237.07 1761.8V1694.2C2237.5 1676.43 2223.2 1662.57 2205.44 1662.57Z" stroke="#423232" stroke-width="13.4786" stroke-miterlimit="10" stroke-linecap="round" stroke-linejoin="round"/>
<path d="M2078.9 1702C2093.63 1700.27 2112.27 1698.97 2127.87 1700.7" stroke="#423232" stroke-width="13.4786" stroke-miterlimit="10" stroke-linecap="round" stroke-linejoin="round"/>
<path d="M1882.6 1705.03L1782.06 1708.5" stroke="#423232" stroke-width="13.4786" stroke-miterlimit="10" stroke-linecap="round" stroke-linejoin="round"/>
</g>
</svg>
