<svg width="3865" height="3930" viewBox="0 0 3865 3930" fill="none" xmlns="http://www.w3.org/2000/svg">
<rect width="3865" height="3930" rx="96" fill="#FFFBF5"/>
<path d="M1932 2615C1572.71 2615 1282 2323.86 1282 1965C1282 1605.71 1573.14 1315 1932 1315C2291.29 1315 2582 1606.14 2582 1965C2582.43 2324.29 2291.29 2615 1932 2615Z" fill="#F2D459"/>
<mask id="mask0_422_3047" style="mask-type:alpha" maskUnits="userSpaceOnUse" x="1282" y="1315" width="1300" height="1300">
<path d="M1932 2615C1572.71 2615 1282 2323.86 1282 1965C1282 1605.71 1573.14 1315 1932 1315C2291.29 1315 2582 1606.14 2582 1965C2582.43 2324.29 2291.29 2615 1932 2615Z" fill="#F7C0B5"/>
</mask>
<g mask="url(#mask0_422_3047)">
<path d="M2296.87 2512.33C2293.84 2514.5 2290.37 2516.66 2287.34 2518.83C2283.87 2521 2280.84 2523.16 2277.37 2524.9C2274.34 2526.63 2271.74 2528.36 2268.7 2530.1C2268.27 2530.53 2267.84 2530.53 2267.4 2530.96C2257.44 2537.03 2247.04 2542.66 2236.64 2547.86C2233.6 2549.6 2230.14 2551.33 2227.1 2552.63C2227.1 2552.63 2226.67 2553.06 2226.24 2553.06C2222.77 2554.8 2219.3 2556.53 2215.84 2558.26C2208.9 2561.73 2201.54 2564.76 2194.6 2567.8C2191.14 2569.53 2187.24 2570.83 2183.77 2572.13C2180.3 2573.43 2176.4 2575.16 2172.94 2576.46C2169.47 2577.76 2165.57 2579.5 2162.1 2580.8C2162.1 2580.8 2162.1 2580.8 2161.67 2580.8C2158.2 2582.1 2154.3 2583.4 2150.84 2584.7C2143.04 2587.3 2134.8 2589.9 2127 2592.5C2124.4 2593.36 2121.37 2594.23 2118.77 2595.1C2110.54 2597.7 2102.3 2599.86 2094.07 2601.6C2091.04 2602.46 2088 2602.9 2084.54 2603.76C2076.74 2605.5 2068.5 2607.23 2060.7 2608.96C2058.97 2609.4 2057.67 2609.4 2055.94 2609.83C2053.34 2610.26 2050.3 2610.7 2047.7 2611.13C2043.8 2611.56 2040.34 2612.43 2036.44 2612.86C2034.7 2613.3 2032.97 2613.3 2031.24 2613.73C2029.07 2614.16 2026.47 2614.6 2023.87 2614.6C2016.94 2615.46 2009.57 2616.33 2002.64 2617.2C2000.47 2617.63 1997.87 2617.63 1995.7 2618.06H1995.27C1992.24 2618.5 1989.2 2618.5 1986.17 2618.93C1983.14 2619.36 1980.1 2619.36 1977.07 2619.36C1975.34 2619.36 1973.17 2619.8 1971.44 2619.8C1967.97 2619.8 1964.94 2620.23 1961.9 2620.23C1957.57 2620.23 1953.67 2620.66 1949.34 2620.66C1945 2620.66 1941.1 2620.66 1936.77 2620.66C1933.74 2620.66 1930.7 2620.66 1927.67 2620.66C1745.24 2618.06 1580.57 2540.5 1463.57 2417.43C1463.57 2417.43 1463.57 2417 1463.14 2417C1476.57 2390.56 1526.4 2342.9 1578.4 2303.46C1644.27 2253.63 1737.44 2222.86 1737.44 2222.86C1737.44 2222.86 1798.54 2212.9 2025.17 2260.13C2198.07 2296.53 2271.74 2444.3 2296.87 2512.33Z" fill="#AD827B"/>
<path d="M2073.27 2380.16C2064.17 2424.8 2005.24 2451.23 1906.01 2411.36C1784.24 2361.96 1737.44 2222.86 1737.44 2222.86C1730.94 2123.2 1715.77 2037.83 1715.77 2037.83C1856.61 2025.7 2023.01 2190.36 2023.01 2190.36L2042.07 2271.83C2043.81 2278.76 2047.27 2284.83 2052.47 2289.16C2061.57 2304.76 2079.34 2351.56 2073.27 2380.16Z" fill="#AD827B"/>
<path d="M2052.47 2289.6C1969.7 2285.27 1908.6 2273.13 1843.17 2155.7C1898.63 2204.67 1964.07 2223.3 2032.97 2231.97L2042.07 2271.83C2043.8 2279.2 2047.27 2285.27 2052.47 2289.6Z" fill="#8E5650"/>
<path d="M2223.64 1767.43C2231.44 1803.83 2235.34 1833.3 2214.11 1930.37C2192.87 2027.43 2233.61 2124.5 2131.34 2213.33C2062.44 2273.13 1941.97 2284.4 1845.77 2218.97C1813.27 2196.87 1783.37 2166.1 1759.11 2125.8C1740.04 2094.17 1717.94 2064.27 1693.24 2036.97C1659.01 1999.7 1617.84 1924.73 1638.21 1792.13C1671.14 1576.33 1884.77 1551.63 2010.87 1575.47C2136.97 1599.3 2202.41 1671.23 2223.64 1767.43Z" fill="#AD827B"/>
<path d="M1808.94 1936.87C1808.94 1936.87 1795.5 1871.87 1732.24 1879.67C1677.64 1886.6 1658.57 2017.47 1782.5 2053.87" fill="#AD827B"/>
<path d="M1778.6 1994.5C1778.6 1994.5 1763 1984.53 1764.74 1967.2C1767.34 1946.83 1764.74 1934.26 1755.2 1930.36C1731.37 1920.4 1726.6 1948.13 1727.47 1951.6" stroke="#665858" stroke-width="13" stroke-miterlimit="10" stroke-linecap="round" stroke-linejoin="round"/>
<g filter="url(#filter0_d_422_3047)">
<path d="M2109.24 2036.53C2109.24 2036.53 2125.71 2037.4 2141.31 2018.77C2149.97 2008.37 2157.34 1995.37 2152.57 1991.47C2147.81 1987.13 2069.37 1999.27 2064.17 2009.67C2058.97 2020.07 2089.31 2036.53 2109.24 2036.53Z" fill="#8E605C"/>
<path d="M2109.27 2036.03L2109.26 2036.03L2109.25 2036.03H2109.24C2099.38 2036.03 2086.9 2031.95 2077.53 2026.56C2072.84 2023.87 2068.98 2020.88 2066.61 2017.94C2064.23 2014.98 2063.45 2012.22 2064.62 2009.89C2064.9 2009.33 2065.44 2008.73 2066.27 2008.1C2067.1 2007.46 2068.18 2006.82 2069.49 2006.17C2072.11 2004.87 2075.59 2003.56 2079.66 2002.3C2087.79 1999.78 2098.21 1997.43 2108.62 1995.53C2119.04 1993.64 2129.44 1992.21 2137.52 1991.52C2141.57 1991.17 2145.02 1991.01 2147.61 1991.08C2148.9 1991.11 2149.96 1991.19 2150.76 1991.33C2151.17 1991.4 2151.49 1991.49 2151.74 1991.58C2152 1991.67 2152.16 1991.76 2152.24 1991.83L2152.25 1991.84L2152.26 1991.85C2153.27 1992.68 2153.69 1994.03 2153.54 1995.87C2153.39 1997.72 2152.68 1999.97 2151.52 2002.47C2149.22 2007.45 2145.24 2013.26 2140.92 2018.44C2133.18 2027.69 2125.24 2032.08 2119.26 2034.16C2116.26 2035.21 2113.75 2035.67 2112 2035.88C2111.12 2035.98 2110.43 2036.02 2109.96 2036.03C2109.73 2036.04 2109.55 2036.04 2109.43 2036.04C2109.38 2036.04 2109.33 2036.03 2109.3 2036.03L2109.27 2036.03L2109.27 2036.03L2109.27 2036.03Z" stroke="black"/>
</g>
<path d="M2122.24 1890.93C2122.24 1890.93 2123.1 1932.1 2149.54 1978.03C2161.24 1998.4 2143.47 2031.77 2104.9 2037.4" stroke="#665858" stroke-width="7" stroke-miterlimit="10" stroke-linecap="round" stroke-linejoin="round"/>
<path d="M2064.93 2253.65C2064.93 2253.65 1999.25 2272.91 1908.19 2243.14C1817.12 2213.37 1728.24 2135 1728.24 2135C1728.24 2135 1699.35 2135.44 1688.4 2157.33C1677.9 2179.22 1678.33 2224.31 1661.7 2236.57C1657.76 2239.2 1646.81 2242.26 1630.61 2246.64C1604.34 2254.09 1565.38 2265.47 1525.97 2287.8C1496.64 2304.43 1466.87 2326.76 1441.91 2357.41C1430.53 2371.42 1420.46 2387.18 1411.7 2405.13C1342.53 2545.67 1372.3 2742.69 1372.3 2742.69H2442.32C2442.32 2742.69 2411.24 2499.26 2344.25 2419.14C2277.27 2339.02 2149.42 2274.23 2111.77 2257.15V2231.76C2112.21 2231.76 2089.01 2247.08 2064.93 2253.65Z" fill="#48D89E"/>
<mask id="mask1_422_3047" style="mask-type:alpha" maskUnits="userSpaceOnUse" x="1365" y="2135" width="1078" height="608">
<path d="M2064.93 2253.65C2064.93 2253.65 1999.25 2272.91 1908.19 2243.14C1817.12 2213.37 1728.24 2135 1728.24 2135C1728.24 2135 1699.35 2135.44 1688.4 2157.33C1677.9 2179.22 1678.33 2224.31 1661.7 2236.57C1657.76 2239.2 1646.81 2242.26 1630.61 2246.64C1604.34 2254.09 1565.38 2265.47 1525.97 2287.8C1496.64 2304.43 1466.87 2326.76 1441.91 2357.41C1430.53 2371.42 1420.46 2387.18 1411.7 2405.13C1342.53 2545.67 1372.3 2742.69 1372.3 2742.69H2442.32C2442.32 2742.69 2411.24 2499.26 2344.25 2419.14C2277.27 2339.02 2149.42 2274.23 2111.77 2257.15V2231.76C2112.21 2231.76 2089.01 2247.08 2064.93 2253.65Z" fill="#48D89E"/>
</mask>
<g mask="url(#mask1_422_3047)">
<path d="M1544.8 2420.89C1570.43 2420.89 1591.21 2400.12 1591.21 2374.49C1591.21 2348.85 1570.43 2328.08 1544.8 2328.08C1519.17 2328.08 1498.39 2348.85 1498.39 2374.49C1498.39 2400.12 1519.17 2420.89 1544.8 2420.89Z" fill="#FCED7E"/>
<path d="M1808.81 2399.44C1834.44 2399.44 1855.22 2378.66 1855.22 2353.03C1855.22 2327.4 1834.44 2306.62 1808.81 2306.62C1783.18 2306.62 1762.4 2327.4 1762.4 2353.03C1762.4 2378.66 1783.18 2399.44 1808.81 2399.44Z" fill="#FCED7E"/>
<path d="M2008.45 2300.93C2034.08 2300.93 2054.86 2280.15 2054.86 2254.52C2054.86 2228.89 2034.08 2208.12 2008.45 2208.12C1982.82 2208.12 1962.04 2228.89 1962.04 2254.52C1962.04 2280.15 1982.82 2300.93 2008.45 2300.93Z" fill="#FCED7E"/>
</g>
<path d="M2112.21 2257.15C2112.21 2257.15 2117.9 2296.55 2107.83 2318.88C2091.63 2355.66 1979.11 2397.69 1842.95 2348.65C1734.81 2309.69 1681.84 2255.84 1680.52 2247.52" stroke="#329369" stroke-width="13.1345" stroke-miterlimit="10" stroke-linecap="round" stroke-linejoin="round"/>
<path d="M1762.39 2179.66C1760.21 2182.28 1758.02 2185.79 1756.27 2190.17C1750.14 2205.05 1748.38 2236.14 1748.38 2236.14" stroke="#329369" stroke-width="13.1345" stroke-miterlimit="10" stroke-linecap="round" stroke-linejoin="round"/>
<path d="M1836.39 2224.75C1834.64 2228.25 1832.88 2232.2 1832.01 2236.57C1829.82 2247.96 1827.19 2283.86 1827.19 2283.86" stroke="#329369" stroke-width="13.1345" stroke-miterlimit="10" stroke-linecap="round" stroke-linejoin="round"/>
<path d="M1990.5 2272.91C1991.38 2282.98 1991.82 2296.99 1990.5 2314.07" stroke="#329369" stroke-width="13.1345" stroke-miterlimit="10" stroke-linecap="round" stroke-linejoin="round"/>
<path d="M2057.48 2269.41C2058.8 2277.73 2060.11 2289.11 2060.55 2303.56" stroke="#329369" stroke-width="13.1345" stroke-miterlimit="10" stroke-linecap="round" stroke-linejoin="round"/>
<path d="M1714.67 2136.75C1704.17 2140.69 1690.16 2151.2 1684.9 2181.85" stroke="#329369" stroke-width="13.1345" stroke-miterlimit="10" stroke-linecap="round" stroke-linejoin="round"/>
<path d="M2163.87 2282.98C2141.54 2270.72 2123.15 2261.97 2112.21 2257.15V2231.76" stroke="#329369" stroke-width="13.1345" stroke-miterlimit="10" stroke-linecap="round" stroke-linejoin="round"/>
<path d="M1965.94 1934.44C1955.54 1934.01 1947.74 1925.34 1948.61 1914.94L1949.04 1902.81C1949.48 1892.41 1958.14 1884.61 1968.54 1885.47C1978.94 1885.91 1986.74 1894.57 1985.88 1904.97L1985.44 1917.11C1985.01 1927.07 1976.34 1934.87 1965.94 1934.44Z" fill="#665858"/>
<path d="M2148.38 1940.94C2138.84 1940.51 2131.48 1932.27 2131.91 1922.74L2132.34 1911.47C2132.78 1901.94 2141.01 1894.57 2150.54 1895.01C2160.08 1895.44 2167.44 1903.67 2167.01 1913.21L2166.58 1924.47C2166.14 1934.01 2157.91 1941.37 2148.38 1940.94Z" fill="#665858"/>
<path d="M2007.98 1909.31C2007.98 1909.31 1996.71 1893.27 1977.21 1890.24C1961.18 1887.64 1943.41 1895.44 1940.81 1904.54" stroke="#665858" stroke-width="13" stroke-miterlimit="10" stroke-linecap="round" stroke-linejoin="round"/>
<path d="M2135.81 1913.21C2135.81 1913.21 2135.81 1899.34 2155.74 1899.34C2172.21 1899.34 2179.14 1914.51 2179.14 1914.51" stroke="#665858" stroke-width="13" stroke-miterlimit="10" stroke-linecap="round" stroke-linejoin="round"/>
<path d="M2025.74 1839.54C2034.84 1842.57 2043.94 1834.34 2042.21 1824.37C2041.34 1819.17 2039.18 1813.97 2034.84 1810.07C2021.84 1798.37 1968.11 1787.97 1935.61 1803.14C1907.01 1817.01 1984.14 1825.67 2025.74 1839.54Z" fill="#665858"/>
<path d="M2155.31 1846.47C2147.95 1849.07 2140.15 1841.27 2141.45 1832.17C2141.88 1827.41 2143.61 1822.64 2147.08 1819.17C2157.48 1808.77 2193.01 1800.54 2215.55 1816.57C2235.05 1830.01 2189.11 1833.91 2155.31 1846.47Z" fill="#665858"/>
<path d="M2075.7 2085.76C2051 2100.5 2007.23 2084.46 1986.87 2059.76" stroke="#494343" stroke-width="13" stroke-miterlimit="10" stroke-linecap="round" stroke-linejoin="round"/>
<path d="M2190.42 1705.62C2202.12 1639.75 2231.15 1796.62 2224.65 1765.85C2222.48 1756.32 2219.88 1747.22 2216.85 1738.12C2193.88 1719.92 2169.62 1708.22 2132.78 1703.02C2033.55 1689.58 1955.12 1698.68 1871.48 1716.88C1819.05 1728.15 1829.88 1909.28 1809.52 1933.12C1806.05 1920.98 1789.15 1871.58 1733.68 1878.52C1681.25 1885.02 1661.32 2006.35 1769.65 2047.95C1768.78 2071.78 1746.68 2115.98 1728.92 2125.95C1728.92 2125.95 1725.88 2094.32 1691.22 2052.72C1656.55 2011.12 1587.22 1903.22 1634.02 1745.48C1680.82 1587.75 1892.72 1505.42 2089.88 1585.58C2123.68 1599.45 2151.42 1618.95 2173.52 1639.32C2225.52 1686.98 2211.65 1618.95 2203.42 1689.15C2200.38 1711.68 2203.42 1688.72 2190.42 1705.62Z" fill="#494343"/>
<path d="M2146.65 1687.85C2146.65 1687.85 2027.05 1886.75 1789.15 1826.08C1789.15 1826.08 1742.79 1709.52 1843.75 1664.88C1945.15 1620.68 2122.39 1648.85 2146.65 1687.85Z" fill="#494343"/>
<path d="M2105.06 1699.55C2105.06 1699.55 2152.72 1708.65 2186.09 1744.18C2217.29 1777.12 2223.79 1633.68 2230.72 1665.32C2230.72 1665.32 2248.49 1708.65 2171.36 1662.72C2094.22 1616.35 2105.06 1699.55 2105.06 1699.55Z" fill="#494343"/>
<path d="M1633.59 1940.05C1633.59 1940.05 1580.72 1906.25 1503.59 1940.05C1433.82 1970.82 1470.22 2058.78 1514.85 2052.28C1514.85 2052.28 1430.79 2084.78 1461.99 2154.12C1487.12 2210.02 1563.39 2177.52 1563.39 2177.52C1563.39 2177.52 1527.42 2235.15 1580.29 2261.15C1634.02 2287.58 1661.32 2213.05 1661.32 2213.05C1661.32 2213.05 1673.89 2274.15 1728.92 2264.62C1796.95 2252.92 1762.29 2171.88 1762.29 2171.88C1762.29 2171.88 1799.12 2196.15 1815.59 2154.12C1834.65 2106.02 1750.59 2067.88 1750.59 2067.88C1750.59 2067.88 1662.19 1966.48 1658.29 1926.62C1653.95 1886.32 1633.59 1940.05 1633.59 1940.05Z" fill="#494343"/>
<path d="M2277.95 2137.22C2277.95 2137.22 2339.05 2178.82 2303.09 2230.82C2260.19 2293.22 2188.25 2225.18 2188.25 2225.18C2201.25 2267.22 2154.45 2336.55 2090.75 2281.95C2078.62 2271.55 2069.09 2260.72 2061.72 2250.32C2088.15 2241.65 2112.42 2228.65 2132.35 2211.32C2189.55 2161.92 2202.12 2109.48 2205.59 2056.18C2207.32 2032.35 2206.89 2008.52 2208.19 1984.25C2209.05 1967.78 2210.35 1951.75 2213.39 1935.28C2236.79 1918.38 2280.99 1917.52 2292.69 1943.08C2320.42 2004.18 2268.85 2029.32 2265.82 2030.62C2269.29 2029.75 2350.75 2012.85 2351.19 2079.15C2352.05 2148.92 2277.95 2137.22 2277.95 2137.22Z" fill="#494343"/>
<path d="M2225.09 1739.85C2225.09 1739.85 2319.55 1806.15 2299.19 1676.15C2283.59 1576.92 2208.62 1518.85 2090.32 1553.95C2090.32 1553.95 1888.82 1479.42 1728.92 1571.72C1593.72 1649.72 1585.92 1846.02 1634.02 1940.05C1634.02 1940.05 1640.09 1751.55 1772.69 1706.92C1904.85 1662.28 1985.45 1627.62 2104.62 1667.92C2223.79 1708.22 2225.09 1739.85 2225.09 1739.85Z" fill="#494343"/>
<path d="M2125.86 1573.02C2125.86 1573.02 2112.86 1492.85 2043.52 1482.45C1973.76 1472.05 2004.52 1554.38 2004.52 1554.38C2004.52 1554.38 2102.02 1591.65 2125.86 1573.02Z" fill="#494343"/>
<path d="M2027.49 1540.95C2027.49 1540.95 1991.09 1490.68 1921.76 1500.22C1852.42 1509.75 1896.19 1566.52 1896.19 1566.52C1896.19 1566.52 2042.66 1605.95 2027.49 1540.95Z" fill="#494343"/>
<path d="M2125.86 1705.62C2125.86 1705.62 2175.69 1727.72 2206.46 1772.35C2237.22 1816.98 2292.69 1806.58 2300.49 1723.82C2308.72 1641.48 2147.96 1618.08 2125.86 1705.62Z" fill="#494343"/>
<path d="M1749.54 2020.47V2094.13" stroke="#FFDE55" stroke-width="13" stroke-miterlimit="10" stroke-linecap="round" stroke-linejoin="round"/>
<path d="M1808.05 2192.93C1796.35 2204.63 1780.31 2212 1762.11 2212C1727.01 2212 1697.98 2183.4 1697.98 2147.87C1697.98 2112.77 1726.58 2083.73 1762.11 2083.73C1779.88 2083.73 1796.35 2091.1 1808.05 2102.8C1800.25 2098.47 1791.58 2095.87 1782.05 2095.87C1753.45 2095.87 1730.05 2119.27 1730.05 2147.87C1730.05 2176.47 1753.45 2199.87 1782.05 2199.87C1791.58 2200.3 1800.25 2197.7 1808.05 2192.93Z" fill="#FFDE55"/>
<path d="M1749.55 2173.87C1763.67 2173.87 1775.11 2162.42 1775.11 2148.3C1775.11 2134.18 1763.67 2122.73 1749.55 2122.73C1735.43 2122.73 1723.98 2134.18 1723.98 2148.3C1723.98 2162.42 1735.43 2173.87 1749.55 2173.87Z" fill="#FF6B57"/>
<path d="M2243.98 2103.67C2236.18 2099.33 2227.51 2096.73 2217.98 2096.73C2211.05 2096.73 2204.98 2098.03 2198.91 2100.63C2199.78 2095.43 2201.08 2090.23 2201.51 2085.03C2218.41 2085.47 2233.15 2092.4 2243.98 2103.67Z" fill="#FFDE55"/>
<path d="M2244.41 2192.93C2232.71 2204.63 2216.68 2212 2198.48 2212C2180.28 2212 2163.38 2204.2 2151.68 2191.63C2158.61 2183.83 2164.68 2176.03 2170.31 2168.23C2178.11 2186.87 2196.74 2199.43 2217.98 2199.43C2227.51 2200.3 2236.61 2197.7 2244.41 2192.93Z" fill="#FFDE55"/>
<path d="M2211.48 2148.3C2211.48 2162.6 2200.21 2173.87 2185.91 2173.87C2180.28 2173.87 2175.08 2172.13 2170.74 2168.67C2180.71 2153.93 2188.08 2138.77 2192.84 2124.03C2203.24 2126.63 2211.48 2136.6 2211.48 2148.3Z" fill="#FF6B57"/>
<path d="M1538.21 2336.59V2340.01" stroke="#8B52A0" stroke-width="10" stroke-linecap="round"/>
<path d="M1541.63 2333.18C1541.63 2335 1541.63 2340.47 1541.63 2338.64C1541.63 2336.14 1541.63 2333.63 1541.63 2331.13" stroke="#8B52A0" stroke-width="10" stroke-linecap="round"/>
<path d="M1534.11 2343.43C1524.15 2343.43 1517.14 2351.23 1509.36 2356.41C1508.45 2357.02 1503.88 2359.31 1507.23 2359.15C1511.47 2358.95 1519.1 2357.96 1522.49 2354.74C1524.88 2352.48 1527.32 2350.75 1530.16 2349.73C1531.59 2349.22 1534.11 2348.9 1534.8 2347.53" stroke="#8B52A0" stroke-width="10" stroke-linecap="round"/>
<path d="M1499.94 2369.4H1503.36" stroke="#8B52A0" stroke-width="10" stroke-linecap="round"/>
<path d="M1512.24 2363.25C1510.8 2363.25 1507.21 2362.62 1506.05 2363.59C1504.01 2365.29 1502.22 2367.59 1499.94 2369.06C1495.17 2372.13 1492.25 2377.2 1486.96 2378.97" stroke="#8B52A0" stroke-width="10" stroke-linecap="round"/>
</g>
<defs>
<filter id="filter0_d_422_3047" x="2059.58" y="1990.56" width="98.4902" height="53.975" filterUnits="userSpaceOnUse" color-interpolation-filters="sRGB">
<feFlood flood-opacity="0" result="BackgroundImageFix"/>
<feColorMatrix in="SourceAlpha" type="matrix" values="0 0 0 0 0 0 0 0 0 0 0 0 0 0 0 0 0 0 127 0" result="hardAlpha"/>
<feOffset dy="4"/>
<feGaussianBlur stdDeviation="2"/>
<feComposite in2="hardAlpha" operator="out"/>
<feColorMatrix type="matrix" values="0 0 0 0 0 0 0 0 0 0 0 0 0 0 0 0 0 0 0.25 0"/>
<feBlend mode="normal" in2="BackgroundImageFix" result="effect1_dropShadow_422_3047"/>
<feBlend mode="normal" in="SourceGraphic" in2="effect1_dropShadow_422_3047" result="shape"/>
</filter>
</defs>
</svg>
