<svg width="3865" height="3930" viewBox="0 0 3865 3930" fill="none" xmlns="http://www.w3.org/2000/svg">
<rect width="3865" height="3930" rx="96" fill="#FFFBF5"/>
<path d="M1932 2430C1572.71 2430 1282 2138.86 1282 1780C1282 1420.71 1573.14 1130 1932 1130C2291.29 1130 2582 1421.14 2582 1780C2582.43 2139.29 2291.29 2430 1932 2430Z" fill="#FFD599"/>
<mask id="mask0_426_4307" style="mask-type:alpha" maskUnits="userSpaceOnUse" x="1282" y="1130" width="1300" height="1300">
<path d="M1932 2430C1572.71 2430 1282 2138.86 1282 1780C1282 1420.71 1573.14 1130 1932 1130C2291.29 1130 2582 1421.14 2582 1780C2582.43 2139.29 2291.29 2430 1932 2430Z" fill="#F7C0B5"/>
</mask>
<g mask="url(#mask0_426_4307)">
<path d="M2296.87 2327.33C2293.84 2329.5 2290.37 2331.66 2287.34 2333.83C2283.87 2336 2280.84 2338.16 2277.37 2339.9C2274.34 2341.63 2271.74 2343.36 2268.7 2345.1C2268.27 2345.53 2267.84 2345.53 2267.4 2345.96C2257.44 2352.03 2247.04 2357.66 2236.64 2362.86C2233.6 2364.6 2230.14 2366.33 2227.1 2367.63C2227.1 2367.63 2226.67 2368.06 2226.24 2368.06C2222.77 2369.8 2219.3 2371.53 2215.84 2373.26C2208.9 2376.73 2201.54 2379.76 2194.6 2382.8C2191.14 2384.53 2187.24 2385.83 2183.77 2387.13C2180.3 2388.43 2176.4 2390.16 2172.94 2391.46C2169.47 2392.76 2165.57 2394.5 2162.1 2395.8C2162.1 2395.8 2162.1 2395.8 2161.67 2395.8C2158.2 2397.1 2154.3 2398.4 2150.84 2399.7C2143.04 2402.3 2134.8 2404.9 2127 2407.5C2124.4 2408.36 2121.37 2409.23 2118.77 2410.1C2110.54 2412.7 2102.3 2414.86 2094.07 2416.6C2091.04 2417.46 2088 2417.9 2084.54 2418.76C2076.74 2420.5 2068.5 2422.23 2060.7 2423.96C2058.97 2424.4 2057.67 2424.4 2055.94 2424.83C2053.34 2425.26 2050.3 2425.7 2047.7 2426.13C2043.8 2426.56 2040.34 2427.43 2036.44 2427.86C2034.7 2428.3 2032.97 2428.3 2031.24 2428.73C2029.07 2429.16 2026.47 2429.6 2023.87 2429.6C2016.94 2430.46 2009.57 2431.33 2002.64 2432.2C2000.47 2432.63 1997.87 2432.63 1995.7 2433.06H1995.27C1992.24 2433.5 1989.2 2433.5 1986.17 2433.93C1983.14 2434.36 1980.1 2434.36 1977.07 2434.36C1975.34 2434.36 1973.17 2434.8 1971.44 2434.8C1967.97 2434.8 1964.94 2435.23 1961.9 2435.23C1957.57 2435.23 1953.67 2435.66 1949.34 2435.66C1945 2435.66 1941.1 2435.66 1936.77 2435.66C1933.74 2435.66 1930.7 2435.66 1927.67 2435.66C1745.24 2433.06 1580.57 2355.5 1463.57 2232.43C1463.57 2232.43 1463.57 2232 1463.14 2232C1476.57 2205.56 1526.4 2157.9 1578.4 2118.46C1644.27 2068.63 1737.44 2037.86 1737.44 2037.86C1737.44 2037.86 1798.54 2027.9 2025.17 2075.13C2198.07 2111.53 2271.74 2259.3 2296.87 2327.33Z" fill="#AD827B"/>
<path d="M2073.27 2195.16C2064.17 2239.8 2005.24 2266.23 1906.01 2226.36C1784.24 2176.96 1737.44 2037.86 1737.44 2037.86C1730.94 1938.2 1715.77 1852.83 1715.77 1852.83C1856.61 1840.7 2023.01 2005.36 2023.01 2005.36L2042.07 2086.83C2043.81 2093.76 2047.27 2099.83 2052.47 2104.16C2061.57 2119.76 2079.34 2166.56 2073.27 2195.16Z" fill="#AD827B"/>
<path d="M2052.47 2104.6C1969.7 2100.26 1908.6 2088.13 1843.17 1970.7C1898.63 2019.66 1964.07 2038.3 2032.97 2046.96L2042.07 2086.83C2043.8 2094.2 2047.27 2100.26 2052.47 2104.6Z" fill="#8E5650"/>
<path d="M2223.63 1582.43C2231.43 1618.83 2235.33 1648.3 2214.1 1745.36C2192.86 1842.43 2233.6 1939.5 2131.33 2028.33C2062.43 2088.13 1941.96 2099.4 1845.76 2033.96C1813.26 2011.86 1783.36 1981.1 1759.1 1940.8C1740.03 1909.16 1717.93 1879.26 1693.23 1851.96C1659 1814.7 1617.83 1739.73 1638.2 1607.13C1671.13 1391.33 1884.76 1366.63 2010.86 1390.46C2136.96 1414.3 2202.4 1486.23 2223.63 1582.43Z" fill="#AD827B"/>
<path d="M1808.94 1751.86C1808.94 1751.86 1795.51 1686.86 1732.24 1694.66C1677.64 1701.6 1658.57 1832.46 1782.51 1868.86" fill="#AD827B"/>
<path d="M1778.6 1809.5C1778.6 1809.5 1763 1799.53 1764.74 1782.2C1767.34 1761.83 1764.74 1749.26 1755.2 1745.36C1731.37 1735.4 1726.6 1763.13 1727.47 1766.6" stroke="#423232" stroke-width="13.4786" stroke-miterlimit="10" stroke-linecap="round" stroke-linejoin="round"/>
<path d="M2109.24 1851.53C2109.24 1851.53 2125.71 1852.4 2141.31 1833.76C2149.97 1823.36 2157.34 1810.36 2152.57 1806.46C2147.81 1802.13 2069.37 1814.26 2064.17 1824.66C2058.97 1835.06 2089.31 1851.53 2109.24 1851.53Z" fill="#8E605C"/>
<path d="M2122.23 1705.93C2122.23 1705.93 2123.1 1747.1 2149.53 1793.03C2161.23 1813.4 2143.47 1846.76 2104.9 1852.4" stroke="#423232" stroke-width="13.4786" stroke-miterlimit="10" stroke-linecap="round" stroke-linejoin="round"/>
<path d="M2440.92 2595.49H1345.45C1345.45 2595.49 1351.95 2394.42 1417.82 2250.99C1467.65 2142.65 1585.09 2082.42 1672.62 2051.22C1697.32 2042.55 1719.85 2036.05 1737.19 2031.29C1737.19 2033.45 1737.62 2035.19 1737.62 2037.35C1737.62 2037.35 1784.42 2176.45 1906.19 2225.85C2005.42 2266.15 2064.35 2239.29 2073.45 2194.65C2079.09 2166.05 2061.32 2119.25 2052.22 2104.09C2047.02 2099.75 2043.55 2093.25 2041.82 2086.75L2038.35 2072.45C2046.59 2070.72 2054.39 2068.55 2062.19 2065.95C2064.79 2065.09 2066.95 2064.22 2069.55 2063.35C2125.45 2078.09 2209.52 2113.19 2308.75 2196.39C2420.99 2289.99 2440.92 2595.49 2440.92 2595.49Z" fill="#BEE3EB"/>
<path d="M1868.5 2270.92C1719 2203.75 1660.93 2083.72 1672.2 2051.22C1672.2 2051.22 1672.2 2050.79 1672.63 2050.35C1680.43 2034.32 1693 2021.32 1708.6 2012.22C1717.26 2007.02 1726.8 2002.25 1734.6 1999.65C1735.03 2005.72 1736.76 2024.79 1737.2 2031.29C1737.2 2033.45 1737.63 2035.19 1737.63 2037.35C1737.63 2037.35 1765.36 2140.92 1887.13 2190.32C1986.36 2230.62 2047.9 2204.19 2054.4 2159.12C2061.76 2109.29 2033.6 2073.32 2033.6 2073.32C2041.83 2071.59 2054.83 2068.55 2062.63 2065.95C2081.7 2088.92 2101.2 2111.89 2108.56 2172.55C2118.96 2259.65 2023.2 2340.69 1868.5 2270.92Z" fill="white"/>
<path d="M1559.96 2595.49L1540.46 2434.72" stroke="#544D4D" stroke-width="13.4786" stroke-miterlimit="10" stroke-linecap="round" stroke-linejoin="round"/>
<path d="M2316.56 2380.12C2316.56 2380.12 2303.56 2411.75 2307.46 2443.39C2311.36 2475.02 2322.63 2521.39 2306.59 2595.49" stroke="#544D4D" stroke-width="13.4786" stroke-miterlimit="10" stroke-linecap="round" stroke-linejoin="round"/>
<path d="M1965.95 1749.44C1955.55 1749.01 1947.75 1740.34 1948.61 1729.94L1949.05 1717.81C1949.48 1707.41 1958.15 1699.61 1968.55 1700.47C1978.95 1700.91 1986.75 1709.57 1985.88 1719.97L1985.45 1732.11C1985.01 1742.07 1976.35 1749.87 1965.95 1749.44Z" fill="#423232"/>
<path d="M2148.38 1755.94C2138.85 1755.51 2131.48 1747.27 2131.91 1737.74L2132.35 1726.47C2132.78 1716.94 2141.01 1709.57 2150.55 1710.01C2160.08 1710.44 2167.45 1718.67 2167.01 1728.21L2166.58 1739.47C2166.15 1749.01 2157.91 1756.37 2148.38 1755.94Z" fill="#423232"/>
<path d="M2007.98 1724.31C2007.98 1724.31 1996.71 1708.27 1977.21 1705.24C1961.18 1702.64 1943.41 1710.44 1940.81 1719.54" stroke="#423232" stroke-width="13.4786" stroke-miterlimit="10" stroke-linecap="round" stroke-linejoin="round"/>
<path d="M2135.81 1728.21C2135.81 1728.21 2135.81 1714.34 2155.74 1714.34C2172.21 1714.34 2179.14 1729.51 2179.14 1729.51" stroke="#423232" stroke-width="13.4786" stroke-miterlimit="10" stroke-linecap="round" stroke-linejoin="round"/>
<path d="M2025.74 1654.54C2034.84 1657.57 2043.94 1649.34 2042.21 1639.37C2041.34 1634.17 2039.17 1628.97 2034.84 1625.07C2021.84 1613.37 1968.11 1602.97 1935.61 1618.14C1907.01 1632.01 1984.14 1640.67 2025.74 1654.54Z" fill="#423232"/>
<path d="M2155.31 1661.47C2147.94 1664.07 2140.14 1656.27 2141.44 1647.17C2141.88 1642.41 2143.61 1637.64 2147.08 1634.17C2157.48 1623.77 2193.01 1615.54 2215.54 1631.57C2235.04 1645.01 2189.11 1648.91 2155.31 1661.47Z" fill="#423232"/>
<path d="M2079.61 1901.72C2054 1917 2008.62 1900.37 1987.5 1874.76" stroke="#423232" stroke-width="13.4786" stroke-miterlimit="10" stroke-linecap="round" stroke-linejoin="round"/>
<path d="M2228.39 1608.17C2227.52 1602.97 2226.22 1597.77 2225.35 1592.13C2220.59 1570.9 2213.65 1550.97 2204.55 1532.33L2153.42 1553.57C2138.69 1559.63 2122.22 1561.37 2106.19 1558.77L1903.39 1523.67C1878.69 1519.33 1854.85 1533.63 1846.62 1557.03C1840.55 1573.93 1833.19 1593.43 1825.39 1609.9C1763.85 1619.87 1704.05 1606.87 1647.29 1582.6C1642.95 1580.87 1639.05 1579.13 1634.72 1576.97C1642.52 1537.53 1612.62 1372.87 1649.89 1329.97C1662.45 1315.67 1675.02 1313.93 1687.15 1318.27C1715.32 1328.23 1746.95 1322.6 1767.32 1300.93C1783.79 1284.03 1804.59 1269.3 1830.15 1268.87C1842.72 1268.43 1852.69 1271.03 1860.92 1275.8C1886.92 1290.1 1918.55 1285.33 1941.95 1267.57C1949.32 1262.37 1957.12 1258.9 1965.79 1258.9C1978.35 1258.9 1989.62 1264.1 1998.72 1271.03C2016.05 1284.03 2039.02 1287.07 2060.25 1282.73C2061.55 1282.3 2062.85 1282.3 2064.15 1282.3C2069.35 1282.3 2074.99 1283.6 2079.75 1285.77C2097.95 1293.57 2118.32 1294.43 2136.52 1286.63C2145.19 1283.17 2155.59 1283.17 2165.99 1293.13C2178.99 1305.7 2195.89 1313.93 2214.09 1314.37C2218.85 1314.37 2224.92 1316.53 2232.29 1321.3C2235.75 1323.9 2238.79 1328.67 2240.95 1335.17C2244.42 1345.13 2252.65 1352.5 2263.05 1355.53C2269.55 1357.7 2274.32 1364.2 2275.62 1378.93C2279.95 1425.73 2239.22 1570.47 2228.39 1608.17Z" fill="#423232"/>
<path d="M2262.17 1355.1C2243.11 1362.03 2239.64 1358.13 2217.97 1352.5C2196.31 1346.87 2177.24 1371.13 2161.64 1346C2139.11 1309.17 2097.51 1334.3 2089.27 1327.37C2081.04 1320.43 2055.47 1297.47 2019.51 1321.73C1995.67 1337.77 1965.34 1309.17 1927.21 1309.17C1850.94 1309.17 1837.07 1365.07 1810.64 1339.5C1784.21 1314.37 1756.04 1331.27 1717.04 1338.2C1678.04 1345.13 1658.11 1321.73 1658.11 1321.73C1667.64 1315.23 1677.17 1315.23 1686.27 1318.27C1714.44 1328.23 1746.07 1322.6 1766.44 1300.93C1782.91 1284.03 1803.71 1269.3 1829.27 1268.87C1841.84 1268.43 1851.81 1271.03 1860.04 1275.8C1886.04 1290.1 1917.67 1285.33 1941.07 1267.57C1948.44 1262.37 1956.24 1258.9 1964.91 1258.9C1977.47 1258.9 1988.74 1264.1 1997.84 1271.03C2015.17 1284.03 2038.14 1287.07 2059.37 1282.73C2060.67 1282.3 2061.97 1282.3 2063.27 1282.3C2068.47 1282.3 2074.11 1283.6 2078.87 1285.77C2097.07 1293.57 2117.44 1294.43 2135.64 1286.63C2144.31 1283.17 2154.71 1283.17 2165.11 1293.13C2178.11 1305.7 2195.01 1313.93 2213.21 1314.37C2217.97 1314.37 2224.04 1316.53 2231.41 1321.3C2234.87 1323.9 2237.91 1328.67 2240.07 1335.17C2243.54 1344.7 2252.21 1352.07 2262.17 1355.1Z" fill="#5E4949"/>
<path d="M1807.19 1750.3C1799.82 1732.1 1780.32 1698.73 1734.39 1704.8C1688.45 1710.43 1667.65 1803.6 1735.25 1854.73C1754.75 1869.03 1775.12 1875.97 1775.12 1875.97L1722.69 1894.17C1722.69 1894.17 1627.35 1840 1623.89 1716.07C1622.15 1658.43 1628.22 1611.63 1634.72 1577.4C1694.95 1605.13 1759.09 1621.17 1825.39 1610.33C1818.02 1625.5 1809.79 1638.07 1801.99 1644.13C1778.15 1661.47 1810.22 1707.83 1807.19 1750.3Z" fill="#99807F"/>
<path d="M1808.05 1638.07C1805.89 1640.23 1804.15 1642.4 1801.99 1643.7C1796.79 1647.6 1794.19 1653.23 1793.32 1659.73C1766.45 1661.03 1727.89 1649.77 1714.45 1645.43C1711.42 1644.57 1709.69 1641.97 1709.69 1638.93V1636.77C1709.69 1632 1714.02 1628.97 1718.35 1629.83C1748.25 1638.07 1805.89 1638.07 1808.05 1638.07Z" fill="#423232"/>
<path d="M1798.95 1696.13C1775.12 1694.4 1752.15 1690.07 1741.75 1687.9C1738.28 1687.03 1736.12 1684.43 1736.12 1680.97C1736.12 1676.63 1740.02 1673.6 1744.35 1674.03C1763.85 1677.07 1784.65 1676.63 1794.62 1676.2C1795.48 1682.27 1797.22 1688.77 1798.95 1696.13Z" fill="#423232"/>
<path d="M1759.16 1766.13C1759.16 1766.13 1724.49 1760.93 1727.09 1809.46C1728.39 1834.16 1728.39 1847.59 1727.96 1854.53C1727.53 1859.29 1730.56 1863.63 1734.89 1865.36C1740.09 1867.53 1745.73 1865.36 1748.33 1860.16C1752.23 1853.23 1756.56 1843.69 1756.56 1835.89C1756.56 1822.89 1770.43 1811.19 1770.43 1811.19C1770.43 1811.19 1757.86 1800.36 1759.16 1766.13Z" fill="white"/>
<path d="M1864.03 2601.59C1860.56 2597.69 1724.49 2364.99 1744.86 2277.46C1758.73 2217.23 1740.53 2147.89 1724.49 2086.79C1717.99 2061.66 1711.93 2038.26 1708.46 2017.46C1702.39 1981.49 1706.73 1947.26 1721.46 1915.63C1737.49 1880.09 1734.89 1849.33 1734.89 1848.89L1743.56 1848.03C1743.56 1849.33 1746.16 1881.83 1729.26 1919.09C1715.39 1948.99 1711.49 1981.93 1717.13 2016.16C1720.59 2036.53 1726.66 2059.93 1733.16 2085.06C1749.63 2147.03 1767.83 2217.66 1753.53 2280.06C1734.46 2363.26 1870.09 2595.96 1870.96 2596.83L1864.03 2601.59Z" fill="white"/>
<path d="M1728.39 1834.59C1728.83 1844.13 1728.39 1850.63 1728.39 1854.53C1727.96 1859.29 1730.99 1863.63 1735.33 1865.36C1740.53 1867.53 1746.16 1865.36 1748.76 1860.16C1752.66 1853.23 1756.99 1843.69 1756.99 1835.89C1756.99 1835.46 1756.99 1834.59 1756.99 1834.16C1747.89 1837.63 1737.49 1840.23 1728.39 1834.59Z" fill="#E5E5E5"/>
<path d="M2136.15 2122.76C2133.12 2142.69 2132.69 2174.33 2131.82 2211.16C2130.52 2282.23 2088.49 2559.13 2068.12 2602.89L2060.32 2599.43C2079.82 2556.96 2121.85 2281.36 2123.15 2211.16C2124.02 2174.33 2124.45 2142.26 2127.49 2121.46C2133.99 2077.69 2129.22 2044.76 2126.62 2030.89C2127.92 2029.59 2129.22 2028.73 2130.52 2027.43C2131.82 2026.56 2132.69 2025.26 2133.99 2024.39C2136.59 2035.66 2143.95 2071.63 2136.15 2122.76Z" fill="white"/>
</g>
</svg>
