<svg width="3865" height="3930" viewBox="0 0 3865 3930" fill="none" xmlns="http://www.w3.org/2000/svg">
<rect width="3865" height="3930" rx="96" fill="#FFFBF5"/>
<path d="M1932 2430C1572.71 2430 1282 2138.86 1282 1780C1282 1420.71 1573.14 1130 1932 1130C2291.29 1130 2582 1421.14 2582 1780C2582.43 2139.29 2291.29 2430 1932 2430Z" fill="#B9EF8E"/>
<mask id="mask0_422_4205" style="mask-type:alpha" maskUnits="userSpaceOnUse" x="1282" y="1130" width="1300" height="1300">
<path d="M1932 2430C1572.71 2430 1282 2138.86 1282 1780C1282 1420.71 1573.14 1130 1932 1130C2291.29 1130 2582 1421.14 2582 1780C2582.43 2139.29 2291.29 2430 1932 2430Z" fill="#F7C0B5"/>
</mask>
<g mask="url(#mask0_422_4205)">
<path d="M2294.27 2327.33C2291.23 2329.5 2287.77 2331.67 2284.73 2333.83C2281.27 2336 2278.23 2338.17 2274.77 2339.9C2271.73 2341.63 2269.13 2343.37 2266.1 2345.1C2265.67 2345.53 2265.23 2345.53 2264.8 2345.97C2254.83 2352.03 2244.43 2357.67 2234.03 2362.87C2231 2364.6 2227.53 2366.33 2224.5 2367.63C2224.5 2367.63 2224.07 2368.07 2223.63 2368.07C2220.17 2369.8 2216.7 2371.53 2213.23 2373.27C2206.3 2376.73 2198.93 2379.77 2192 2382.8C2188.53 2384.53 2184.63 2385.83 2181.17 2387.13C2177.7 2388.43 2173.8 2390.17 2170.33 2391.47C2166.87 2392.77 2162.97 2394.5 2159.5 2395.8C2159.5 2395.8 2159.5 2395.8 2159.07 2395.8C2155.6 2397.1 2151.7 2398.4 2148.23 2399.7C2140.43 2402.3 2132.2 2404.9 2124.4 2407.5C2121.8 2408.37 2118.77 2409.23 2116.17 2410.1C2107.93 2412.7 2099.7 2414.87 2091.47 2416.6C2088.43 2417.47 2085.4 2417.9 2081.93 2418.77C2074.13 2420.5 2065.9 2422.23 2058.1 2423.97C2056.37 2424.4 2055.07 2424.4 2053.33 2424.83C2050.73 2425.27 2047.7 2425.7 2045.1 2426.13C2041.2 2426.57 2037.73 2427.43 2033.83 2427.87C2032.1 2428.3 2030.37 2428.3 2028.63 2428.73C2026.47 2429.17 2023.87 2429.6 2021.27 2429.6C2014.33 2430.47 2006.97 2431.33 2000.03 2432.2C1997.87 2432.63 1995.27 2432.63 1993.1 2433.07H1992.67C1989.63 2433.5 1986.6 2433.5 1983.57 2433.93C1980.53 2434.37 1977.5 2434.37 1974.47 2434.37C1972.73 2434.37 1970.57 2434.8 1968.83 2434.8C1965.37 2434.8 1962.33 2435.23 1959.3 2435.23C1954.97 2435.23 1951.07 2435.67 1946.73 2435.67C1942.4 2435.67 1938.5 2435.67 1934.17 2435.67C1931.13 2435.67 1928.1 2435.67 1925.07 2435.67C1742.63 2433.07 1577.97 2355.5 1460.97 2232.43C1460.97 2232.43 1460.97 2232 1460.53 2232C1473.97 2205.57 1523.8 2157.9 1575.8 2118.47C1641.67 2068.63 1734.83 2037.87 1734.83 2037.87C1734.83 2037.87 1795.93 2027.9 2022.57 2075.13C2195.47 2111.53 2269.13 2259.3 2294.27 2327.33Z" fill="#C99589"/>
<path d="M2070.67 2195.17C2061.57 2239.8 2002.63 2266.23 1903.4 2226.37C1781.63 2176.97 1734.83 2037.87 1734.83 2037.87C1728.33 1938.2 1713.17 1852.83 1713.17 1852.83C1854 1840.7 2020.4 2005.37 2020.4 2005.37L2039.47 2086.83C2041.2 2093.77 2044.67 2099.83 2049.87 2104.17C2058.97 2119.77 2076.73 2166.57 2070.67 2195.17Z" fill="#C99589"/>
<path d="M2049.87 2104.6C1967.1 2100.27 1906 2088.13 1840.57 1970.7C1896.03 2019.67 1961.47 2038.3 2030.37 2046.97L2039.47 2086.83C2041.2 2094.2 2044.67 2100.27 2049.87 2104.6Z" fill="#A56663"/>
<path d="M2221.03 1582.43C2228.83 1618.83 2232.73 1648.3 2211.5 1745.37C2190.27 1842.43 2231 1939.5 2128.73 2028.33C2059.83 2088.13 1939.37 2099.4 1843.17 2033.97C1810.67 2011.87 1780.77 1981.1 1756.5 1940.8C1737.43 1909.17 1715.33 1879.27 1690.63 1851.97C1656.4 1814.7 1615.23 1739.73 1635.6 1607.13C1668.53 1391.33 1882.17 1366.63 2008.27 1390.47C2134.37 1414.3 2199.8 1486.23 2221.03 1582.43Z" fill="#C99589"/>
<path d="M1806.34 1751.87C1806.34 1751.87 1792.9 1686.87 1729.64 1694.67C1675.04 1701.6 1655.97 1832.47 1779.9 1868.87" fill="#C99589"/>
<path d="M1776 1809.5C1776 1809.5 1760.4 1799.53 1762.13 1782.2C1764.73 1761.83 1762.13 1749.27 1752.6 1745.37C1728.76 1735.4 1724 1763.13 1724.86 1766.6" stroke="#423232" stroke-width="13.4786" stroke-miterlimit="10" stroke-linecap="round" stroke-linejoin="round"/>
<path d="M2106.64 1851.53C2106.64 1851.53 2123.1 1852.4 2138.7 1833.77C2147.37 1823.37 2154.74 1810.37 2149.97 1806.47C2145.2 1802.13 2066.77 1814.27 2061.57 1824.67C2056.37 1835.07 2086.7 1851.53 2106.64 1851.53Z" fill="#A56663"/>
<path d="M2119.63 1705.93C2119.63 1705.93 2120.5 1747.1 2146.93 1793.03C2158.63 1813.4 2140.87 1846.76 2102.3 1852.4" stroke="#423232" stroke-width="13.4786" stroke-miterlimit="10" stroke-linecap="round" stroke-linejoin="round"/>
<path d="M1778.38 2077.75C1778.38 2077.75 1769.72 2024.02 1754.98 2027.05C1686.52 2042.65 1486.75 2100.72 1416.98 2251.52C1351.12 2394.95 1345.05 2596.02 1345.05 2596.02H2440.95C2440.95 2596.02 2421.02 2290.52 2309.22 2196.92C2242.92 2141.02 2183.12 2106.79 2134.15 2085.99C2069.15 2058.25 2003.72 2116.32 1985.08 2115.02C1951.72 2113.29 1778.38 2077.75 1778.38 2077.75Z" fill="#544D4D"/>
<path d="M1559.55 2596.02L1540.05 2435.25" stroke="white" stroke-width="13.4786" stroke-miterlimit="10" stroke-linecap="round" stroke-linejoin="round"/>
<path d="M2316.15 2380.65C2316.15 2380.65 2303.15 2412.29 2307.05 2443.92C2310.95 2475.55 2322.21 2521.92 2306.18 2596.02" stroke="white" stroke-width="13.4786" stroke-miterlimit="10" stroke-linecap="round" stroke-linejoin="round"/>
<path d="M1728.55 1983.29C1728.55 1983.29 1697.35 1994.55 1691.71 2000.62C1686.08 2006.69 1683.48 2010.59 1683.48 2010.59C1683.48 2010.59 1667.88 2027.92 1659.21 2069.95C1655.31 2087.72 1664.41 2116.75 1657.48 2139.72C1637.55 2203.42 1732.01 2301.35 1888.01 2358.99C2006.31 2402.75 2136.75 2362.89 2154.95 2280.55C2172.28 2201.25 2161.88 2165.29 2153.65 2139.72C2137.18 2090.32 2131.98 2076.45 2109.88 2057.39C2096.01 2045.25 2086.48 2070.39 2034.48 2084.69C2018.45 2089.02 1998.95 2092.49 1973.81 2093.35C1824.31 2098.99 1761.05 2014.05 1738.51 1989.79C1732.88 1985.02 1730.28 1982.42 1728.55 1983.29Z" fill="white"/>
<path d="M2033.19 2084.26C2017.15 2088.59 1997.65 2092.06 1972.52 2092.92C1823.02 2098.56 1759.75 2013.62 1737.22 1989.36" stroke="#CCCCCC" stroke-width="13.4786" stroke-miterlimit="10" stroke-linecap="round" stroke-linejoin="round"/>
<path d="M2112.48 2041.79C2151.92 2074.72 2220.38 2160.96 2203.92 2353.79C2195.68 2449.12 2242.05 2488.56 2231.65 2503.72C2229.92 2506.32 2227.75 2507.62 2226.02 2508.06C2218.65 2509.79 2211.72 2513.26 2208.25 2520.19C2206.95 2523.22 2204.78 2525.39 2201.75 2527.12C2199.15 2528.86 2196.12 2528.86 2193.52 2528.42C2184.42 2526.26 2174.45 2531.46 2168.82 2539.26C2166.65 2542.29 2164.05 2544.46 2160.15 2545.32C2157.55 2546.19 2154.95 2545.76 2153.22 2545.32C2145.85 2543.16 2137.62 2545.32 2131.12 2550.52C2129.38 2551.82 2127.65 2552.69 2125.48 2552.69C2121.58 2552.69 2118.55 2550.96 2115.95 2548.36C2109.88 2542.72 2101.22 2540.56 2092.55 2543.59C2091.68 2544.02 2091.25 2544.02 2090.38 2544.02C2084.32 2544.89 2079.55 2540.12 2076.08 2531.89C2072.62 2524.09 2064.38 2520.62 2055.72 2521.49C2053.98 2521.49 2052.25 2521.49 2050.08 2521.06C2033.18 2517.16 2011.52 2493.76 2011.08 2465.16C2010.65 2436.99 2017.15 2388.02 2027.98 2365.06C2061.35 2294.42 2073.48 2243.72 2075.22 2205.59C2078.68 2135.82 2034.48 2073.42 2038.82 2072.12C2083.02 2063.02 2112.48 2041.79 2112.48 2041.79Z" fill="white"/>
<path d="M2027.55 2365.05C2060.92 2294.42 2073.05 2243.72 2074.79 2205.59C2077.39 2151.85 2051.39 2102.02 2041.85 2081.65" stroke="#CCCCCC" stroke-width="13.4786" stroke-miterlimit="10" stroke-linecap="round" stroke-linejoin="round"/>
<path d="M2010.65 2465.15C2010.21 2436.99 2016.71 2388.02 2027.55 2365.05C2060.91 2294.42 2073.05 2243.72 2074.78 2205.59" stroke="#CCCCCC" stroke-width="13.4786" stroke-miterlimit="10" stroke-linecap="round" stroke-linejoin="round"/>
<path d="M2049.21 2313.92C2049.21 2313.92 1917.48 2326.92 1830.81 2261.49" stroke="#CCCCCC" stroke-width="13.4786" stroke-miterlimit="10" stroke-linecap="round" stroke-linejoin="round"/>
<path d="M2084.75 2085.55C2096.88 2103.32 2110.75 2129.32 2114.22 2161.39" stroke="#CCCCCC" stroke-width="13.4786" stroke-miterlimit="10" stroke-linecap="round" stroke-linejoin="round"/>
<path d="M2139.78 2545.32C2139.78 2545.32 2117.68 2498.52 2139.78 2396.69C2163.18 2288.35 2152.35 2235.05 2152.35 2235.05" stroke="#CCCCCC" stroke-width="13.4786" stroke-miterlimit="10" stroke-linecap="round" stroke-linejoin="round"/>
<path d="M1658.35 2091.62C1658.35 2091.62 1687.38 2151.42 1722.48 2179.15" stroke="#CCCCCC" stroke-width="13.4786" stroke-miterlimit="10" stroke-linecap="round" stroke-linejoin="round"/>
<path d="M2071.32 2235.05C2071.32 2235.05 1988.99 2240.69 1930.92 2218.15" stroke="#CCCCCC" stroke-width="13.4786" stroke-miterlimit="10" stroke-linecap="round" stroke-linejoin="round"/>
<path d="M1965.95 1749.44C1955.55 1749.01 1947.75 1740.34 1948.61 1729.94L1949.05 1717.81C1949.48 1707.41 1958.15 1699.61 1968.55 1700.47C1978.95 1700.91 1986.75 1709.57 1985.88 1719.97L1985.45 1732.11C1985.01 1742.07 1976.35 1749.87 1965.95 1749.44Z" fill="#423232"/>
<path d="M2148.38 1755.94C2138.85 1755.51 2131.48 1747.27 2131.91 1737.74L2132.35 1726.47C2132.78 1716.94 2141.01 1709.57 2150.55 1710.01C2160.08 1710.44 2167.45 1718.67 2167.01 1728.21L2166.58 1739.47C2166.15 1749.01 2157.91 1756.37 2148.38 1755.94Z" fill="#423232"/>
<path d="M2007.97 1724.3C2007.97 1724.3 1996.71 1708.27 1977.21 1705.24C1961.17 1702.64 1943.41 1710.44 1940.81 1719.54" stroke="#423232" stroke-width="13.4786" stroke-miterlimit="10" stroke-linecap="round" stroke-linejoin="round"/>
<path d="M2135.81 1728.21C2135.81 1728.21 2135.81 1714.34 2155.74 1714.34C2172.21 1714.34 2179.14 1729.51 2179.14 1729.51" stroke="#423232" stroke-width="13.4786" stroke-miterlimit="10" stroke-linecap="round" stroke-linejoin="round"/>
<path d="M2025.74 1654.54C2034.84 1657.57 2043.94 1649.34 2042.21 1639.37C2041.34 1634.17 2039.17 1628.97 2034.84 1625.07C2021.84 1613.37 1968.11 1602.97 1935.61 1618.14C1907.01 1632.01 1984.14 1640.67 2025.74 1654.54Z" fill="#423232"/>
<path d="M2155.31 1661.47C2147.94 1664.07 2140.14 1656.27 2141.44 1647.17C2141.88 1642.41 2143.61 1637.64 2147.08 1634.17C2157.48 1623.77 2193.01 1615.54 2215.54 1631.57C2235.04 1645.01 2189.11 1648.91 2155.31 1661.47Z" fill="#423232"/>
<path d="M2086.16 1902.84C2086.61 1910.03 2081.22 1922.61 2071.33 1931.6C2020.56 1900.6 1997.65 1916.77 1997.65 1916.77C1979.68 1889.37 1983.72 1852.08 2027.3 1880.38C2057.85 1899.7 2076.28 1902.84 2086.16 1902.84Z" fill="#423232"/>
<path d="M2071.33 1931.6C2060.55 1941.03 2044.37 1946.88 2022.36 1937.89C2012.02 1933.85 2003.94 1925.76 1997.65 1916.77C1997.65 1916.77 2020.56 1900.6 2071.33 1931.6Z" fill="#FE9DAB"/>
<path d="M2094.69 1901.05C2094.69 1901.05 2075.82 1911.38 2027.3 1880.38C1969.34 1843.09 1981.02 1921.27 2021.91 1937.89C2064.59 1955.41 2086.61 1917.22 2086.16 1902.84" stroke="#423232" stroke-width="13.4786" stroke-miterlimit="10" stroke-linecap="round" stroke-linejoin="round"/>
<path d="M1997.65 1916.77C1997.65 1916.77 2020.56 1900.6 2071.33 1931.6" stroke="#423232" stroke-width="13.4786" stroke-miterlimit="10" stroke-linecap="round" stroke-linejoin="round"/>
<path d="M2289.78 1754.09C2269.41 1735.46 2263.78 1708.16 2262.05 1689.96C2275.05 1698.63 2291.95 1672.19 2291.08 1640.99C2289.78 1594.63 2277.65 1560.39 2263.35 1536.56C2273.31 1523.99 2280.68 1509.26 2284.58 1492.79C2302.35 1420.86 2243.85 1365.83 2158.48 1345.03C2106.05 1332.03 2009.85 1338.53 1896.75 1336.79C1877.25 1336.36 1856.88 1337.23 1836.95 1339.39C1812.68 1341.99 1788.85 1347.19 1766.75 1356.29C1730.78 1369.73 1697.85 1390.96 1672.71 1421.73C1628.51 1476.33 1615.95 1538.73 1613.78 1587.26C1611.61 1644.89 1597.75 1701.66 1570.45 1752.79C1540.98 1807.83 1522.78 1866.33 1551.81 1916.59C1552.68 1917.89 1553.55 1919.19 1554.41 1920.93C1540.55 1989.39 1617.68 1983.33 1632.85 1913.99C1629.81 1926.99 1627.65 1938.26 1626.35 1946.06C1615.95 2014.09 1665.35 2022.76 1690.05 1975.53C1692.65 1970.76 1699.15 1951.26 1706.08 1926.56C1706.08 1930.89 1706.51 1935.23 1706.95 1939.13C1707.81 2034.03 1775.41 2042.26 1771.51 1978.13C1769.78 1949.53 1774.55 1909.66 1781.91 1866.33C1658.85 1829.49 1677.91 1699.49 1732.95 1692.56C1796.21 1684.33 1809.65 1749.76 1809.65 1749.76C1814.41 1770.13 1821.35 1794.39 1831.75 1806.09C1850.38 1826.46 1882.45 1812.16 1861.65 1748.03C1857.31 1734.59 1853.41 1719.43 1850.81 1703.39C1867.28 1707.73 1881.58 1698.63 1874.65 1680.43C1868.15 1663.96 1864.68 1648.79 1863.81 1634.49C1862.51 1612.39 1868.15 1592.46 1877.68 1575.99C1887.65 1615.43 1929.25 1603.29 1931.85 1574.69C1932.71 1565.16 1935.75 1553.89 1940.08 1541.33C1950.48 1554.76 1964.78 1567.33 1982.55 1576.43C2015.48 1592.89 2038.88 1585.09 2044.08 1568.19C2065.31 1575.56 2084.38 1581.19 2099.11 1584.66C2143.31 1595.49 2187.08 1589.86 2221.31 1571.66C2223.05 1575.56 2223.91 1579.03 2224.35 1580.33C2224.78 1582.49 2225.21 1584.66 2225.65 1586.83C2229.55 1605.46 2231.71 1623.66 2229.98 1650.96C2229.98 1652.26 2229.98 1653.13 2229.55 1654.43C2229.55 1655.29 2229.55 1656.16 2229.11 1657.03C2229.11 1659.19 2228.68 1660.93 2228.68 1663.09C2228.68 1664.39 2228.25 1665.26 2228.25 1666.56C2228.25 1668.29 2227.81 1670.46 2227.38 1672.63C2226.95 1674.36 2226.95 1676.09 2226.51 1677.83C2226.51 1679.13 2226.08 1680.86 2226.08 1682.16C2225.65 1684.76 2225.21 1687.36 2224.78 1690.39C2224.78 1690.83 2224.78 1691.69 2224.35 1692.13C2223.91 1695.59 2223.05 1699.06 2222.61 1702.96C2220.45 1715.09 2217.85 1728.09 2214.81 1743.26C2196.61 1827.33 2224.78 1912.26 2165.41 1991.13C2162.81 2014.53 2183.18 2043.99 2208.31 2013.23C2227.81 1989.39 2218.71 1909.66 2217.41 1893.63C2219.15 1910.53 2246.01 1964.26 2271.15 1956.46C2285.01 1952.13 2291.08 1944.76 2288.91 1919.19C2286.31 1883.23 2258.15 1847.69 2254.25 1795.26C2280.25 1817.36 2317.08 1778.79 2289.78 1754.09Z" fill="#423232"/>
<path d="M2031.23 1799.07H1930.27C1903.83 1799.07 1882.6 1777.83 1882.6 1751.4V1710.23C1882.6 1683.8 1903.83 1662.57 1930.27 1662.57H2031.23C2057.67 1662.57 2078.9 1683.8 2078.9 1710.23V1751.4C2078.9 1777.83 2057.23 1799.07 2031.23 1799.07Z" stroke="#423232" stroke-width="13.4786" stroke-miterlimit="10" stroke-linecap="round" stroke-linejoin="round"/>
<path d="M2205.43 1662.57H2155.6C2138.27 1662.57 2123.97 1676.87 2123.97 1694.2V1731.9C2130.03 1753.57 2138.7 1774.37 2151.7 1793C2153 1793 2154.3 1793.43 2155.6 1793.43H2205.43C2222.77 1793.43 2237.07 1779.13 2237.07 1761.8V1694.2C2237.5 1676.43 2223.2 1662.57 2205.43 1662.57Z" stroke="#423232" stroke-width="13.4786" stroke-miterlimit="10" stroke-linecap="round" stroke-linejoin="round"/>
<path d="M2078.9 1702C2093.63 1700.27 2112.27 1698.97 2127.86 1700.7" stroke="#423232" stroke-width="13.4786" stroke-miterlimit="10" stroke-linecap="round" stroke-linejoin="round"/>
<path d="M1882.6 1705.03L1782.06 1708.5" stroke="#423232" stroke-width="13.4786" stroke-miterlimit="10" stroke-linecap="round" stroke-linejoin="round"/>
</g>
</svg>
