<svg width="3865" height="3930" viewBox="0 0 3865 3930" fill="none" xmlns="http://www.w3.org/2000/svg">
<rect width="3865" height="3930" rx="96" fill="#FFFBF5"/>
<path d="M1932 2615C1572.71 2615 1282 2323.86 1282 1965C1282 1605.71 1573.14 1315 1932 1315C2291.29 1315 2582 1606.14 2582 1965C2582.43 2324.29 2291.29 2615 1932 2615Z" fill="#9BB0FD"/>
<mask id="mask0_422_2702" style="mask-type:alpha" maskUnits="userSpaceOnUse" x="1282" y="1315" width="1300" height="1300">
<path d="M1932 2615C1572.71 2615 1282 2323.86 1282 1965C1282 1605.71 1573.14 1315 1932 1315C2291.29 1315 2582 1606.14 2582 1965C2582.43 2324.29 2291.29 2615 1932 2615Z" fill="#F7C0B5"/>
</mask>
<g mask="url(#mask0_422_2702)">
<path d="M2296.01 2512.33C2292.97 2514.5 2289.51 2516.66 2286.47 2518.83C2283.01 2521 2279.97 2523.16 2276.51 2524.9C2273.47 2526.63 2270.87 2528.36 2267.84 2530.1C2267.41 2530.53 2266.97 2530.53 2266.54 2530.96C2256.57 2537.03 2246.17 2542.66 2235.77 2547.86C2232.74 2549.6 2229.27 2551.33 2226.24 2552.63C2226.24 2552.63 2225.81 2553.06 2225.37 2553.06C2221.91 2554.8 2218.44 2556.53 2214.97 2558.26C2208.04 2561.73 2200.67 2564.76 2193.74 2567.8C2190.27 2569.53 2186.37 2570.83 2182.91 2572.13C2179.44 2573.43 2175.54 2575.16 2172.07 2576.46C2168.61 2577.76 2164.71 2579.5 2161.24 2580.8C2161.24 2580.8 2161.24 2580.8 2160.81 2580.8C2157.34 2582.1 2153.44 2583.4 2149.97 2584.7C2142.17 2587.3 2133.94 2589.9 2126.14 2592.5C2123.54 2593.36 2120.51 2594.23 2117.91 2595.1C2109.67 2597.7 2101.44 2599.86 2093.21 2601.6C2090.17 2602.46 2087.14 2602.9 2083.67 2603.76C2075.87 2605.5 2067.64 2607.23 2059.84 2608.96C2058.11 2609.4 2056.81 2609.4 2055.07 2609.83C2052.47 2610.26 2049.44 2610.7 2046.84 2611.13C2042.94 2611.56 2039.47 2612.43 2035.57 2612.86C2033.84 2613.3 2032.11 2613.3 2030.37 2613.73C2028.21 2614.16 2025.61 2614.6 2023.01 2614.6C2016.07 2615.46 2008.71 2616.33 2001.77 2617.2C1999.61 2617.63 1997.01 2617.63 1994.84 2618.06H1994.41C1991.37 2618.5 1988.34 2618.5 1985.31 2618.93C1982.27 2619.36 1979.24 2619.36 1976.21 2619.36C1974.47 2619.36 1972.31 2619.8 1970.57 2619.8C1967.11 2619.8 1964.07 2620.23 1961.04 2620.23C1956.71 2620.23 1952.81 2620.66 1948.47 2620.66C1944.14 2620.66 1940.24 2620.66 1935.91 2620.66C1932.87 2620.66 1929.84 2620.66 1926.81 2620.66C1744.37 2618.06 1579.71 2540.5 1462.71 2417.43C1462.71 2417.43 1462.71 2417 1462.27 2417C1475.71 2390.56 1525.54 2342.9 1577.54 2303.46C1643.41 2253.63 1736.57 2222.86 1736.57 2222.86C1736.57 2222.86 1797.67 2212.9 2024.31 2260.13C2197.21 2296.53 2270.87 2444.3 2296.01 2512.33Z" fill="#EDBF99"/>
<path d="M2072.41 2380.16C2063.31 2424.8 2004.38 2451.23 1905.14 2411.36C1783.38 2361.96 1736.58 2222.86 1736.58 2222.86C1730.08 2123.2 1714.91 2037.83 1714.91 2037.83C1855.74 2025.7 2022.14 2190.36 2022.14 2190.36L2041.21 2271.83C2042.94 2278.76 2046.41 2284.83 2051.61 2289.16C2060.71 2304.76 2078.48 2351.56 2072.41 2380.16Z" fill="#EDBF99"/>
<path d="M2051.6 2289.6C1968.84 2285.27 1907.74 2273.13 1842.3 2155.7C1897.77 2204.67 1963.2 2223.3 2032.1 2231.97L2041.2 2271.83C2042.94 2279.2 2046.4 2285.27 2051.6 2289.6Z" fill="#EFBDA5"/>
<path d="M2222.78 1767.43C2230.58 1803.83 2234.48 1833.3 2213.24 1930.37C2192.01 2027.43 2232.74 2124.5 2130.48 2213.33C2061.58 2273.13 1941.11 2284.4 1844.91 2218.97C1812.41 2196.87 1782.51 2166.1 1758.24 2125.8C1739.18 2094.17 1717.08 2064.27 1692.38 2036.97C1658.14 1999.7 1616.98 1924.73 1637.34 1792.13C1670.28 1576.33 1883.91 1551.63 2010.01 1575.47C2136.11 1599.3 2201.54 1671.23 2222.78 1767.43Z" fill="#EDBF99"/>
<path d="M1808.07 1936.87C1808.07 1936.87 1794.64 1871.87 1731.37 1879.67C1676.77 1886.6 1657.71 2017.47 1781.64 2053.87" fill="#EDBF99"/>
<path d="M1777.74 1994.5C1777.74 1994.5 1762.14 1984.53 1763.87 1967.2C1766.47 1946.83 1763.87 1934.26 1754.34 1930.36C1730.51 1920.4 1725.74 1948.13 1726.61 1951.6" stroke="#665858" stroke-width="13" stroke-miterlimit="10" stroke-linecap="round" stroke-linejoin="round"/>
<g filter="url(#filter0_d_422_2702)">
<path d="M2108.38 2036.53C2108.38 2036.53 2124.84 2037.4 2140.44 2018.77C2149.11 2008.37 2156.48 1995.37 2151.71 1991.47C2146.94 1987.13 2068.51 1999.27 2063.31 2009.67C2058.11 2020.07 2088.44 2036.53 2108.38 2036.53Z" fill="#EFBDA5"/>
<path d="M2108.4 2036.03L2108.4 2036.03L2108.39 2036.03H2108.38C2098.52 2036.03 2086.04 2031.95 2076.67 2026.56C2071.98 2023.87 2068.11 2020.88 2065.74 2017.94C2063.36 2014.98 2062.59 2012.22 2063.76 2009.89C2064.03 2009.33 2064.58 2008.73 2065.41 2008.1C2066.24 2007.46 2067.32 2006.82 2068.63 2006.17C2071.24 2004.87 2074.73 2003.56 2078.79 2002.3C2086.93 1999.78 2097.34 1997.43 2107.76 1995.53C2118.18 1993.64 2128.57 1992.21 2136.66 1991.52C2140.7 1991.17 2144.16 1991.01 2146.74 1991.08C2148.04 1991.11 2149.1 1991.19 2149.9 1991.33C2150.3 1991.4 2150.63 1991.49 2150.88 1991.58C2151.14 1991.67 2151.29 1991.76 2151.37 1991.83L2151.38 1991.84L2151.39 1991.85C2152.41 1992.68 2152.83 1994.03 2152.68 1995.87C2152.53 1997.72 2151.81 1999.97 2150.66 2002.47C2148.36 2007.45 2144.38 2013.26 2140.06 2018.44C2132.32 2027.69 2124.38 2032.08 2118.39 2034.16C2115.4 2035.21 2112.89 2035.67 2111.13 2035.88C2110.26 2035.98 2109.57 2036.02 2109.1 2036.03C2108.87 2036.04 2108.69 2036.04 2108.57 2036.04C2108.51 2036.04 2108.47 2036.03 2108.44 2036.03L2108.41 2036.03L2108.4 2036.03L2108.4 2036.03Z" stroke="black"/>
</g>
<path d="M2121.37 1890.93C2121.37 1890.93 2122.24 1932.1 2148.67 1978.03C2160.37 1998.4 2142.61 2031.77 2104.04 2037.4" stroke="#665858" stroke-width="7" stroke-miterlimit="10" stroke-linecap="round" stroke-linejoin="round"/>
<path opacity="0.42" d="M1886.5 2058.63C1911.15 2058.63 1931.14 2042.14 1931.14 2021.8C1931.14 2001.46 1911.15 1984.97 1886.5 1984.97C1861.85 1984.97 1841.87 2001.46 1841.87 2021.8C1841.87 2042.14 1861.85 2058.63 1886.5 2058.63Z" fill="#F0CFB6"/>
<path opacity="0.42" d="M2206.31 1985.83C2205.01 2010.1 2205.44 2033.93 2203.71 2057.76C2184.64 2053.43 2170.77 2039.13 2170.77 2022.23C2170.77 2004.03 2185.94 1989.3 2206.31 1985.83Z" fill="#E0C5AC"/>
<path d="M1658.05 2208.55C1658.05 2208.55 1721.97 2183.16 1733.79 2182.28L1734.67 2192.35C1734.67 2192.35 1683.88 2214.24 1680.82 2217.75C1678.19 2220.81 1658.05 2208.55 1658.05 2208.55Z" fill="#7E5D6D"/>
<path d="M2446.55 2776.4H1339.75C1339.75 2776.4 1346.32 2573.25 1412.87 2428.34C1463.22 2318.88 1584.06 2246.64 1672.06 2215.12C1697.01 2206.36 1716.28 2196.73 1734.23 2191.92C1734.23 2194.11 1735.54 2210.3 1735.54 2212.06C1735.54 2212.06 1804.71 2279.92 1960.58 2288.24C2032.82 2292.18 2039.82 2247.08 2039.82 2247.08C2048.14 2245.33 2056.02 2243.14 2063.9 2240.51C2066.53 2239.64 2084.92 2232.2 2087.11 2231.32C2143.58 2246.21 2212.76 2288.24 2313.02 2372.3C2426.41 2468.18 2446.55 2776.4 2446.55 2776.4Z" fill="#D5EBE6"/>
<path d="M2233.34 2331.14C2261.63 2331.14 2284.56 2308.21 2284.56 2279.92C2284.56 2251.63 2261.63 2228.69 2233.34 2228.69C2205.05 2228.69 2182.12 2251.63 2182.12 2279.92C2182.12 2308.21 2205.05 2331.14 2233.34 2331.14Z" fill="#FFFF8D"/>
<path d="M1556.47 2776.4L1536.77 2614.41" stroke="#544D4D" stroke-width="13.1345" stroke-miterlimit="10" stroke-linecap="round" stroke-linejoin="round"/>
<path d="M2320.9 2558.81C2320.9 2558.81 2307.77 2590.77 2311.71 2622.73C2315.65 2654.69 2327.03 2701.53 2310.83 2776.4" stroke="#544D4D" stroke-width="13.1345" stroke-miterlimit="10" stroke-linecap="round" stroke-linejoin="round"/>
<path d="M1658.05 2208.55C1666.37 2205.93 1680.82 2208.55 1685.19 2216C1702.27 2244.02 1743.42 2325.89 1760.5 2488.32C1774.07 2615.28 1753.49 2843.82 1753.49 2843.82L1328.37 2823.68C1328.37 2823.68 1341.07 2607.84 1378.28 2462.92C1414.62 2322.39 1510.07 2259.34 1658.05 2208.55Z" fill="white"/>
<path d="M2098.06 2235.26C2098.06 2235.26 2233.34 2489.63 2193.94 2829.38H2485.96C2485.96 2829.38 2484.65 2559.68 2418.98 2413.01C2353.3 2266.78 2123.45 2223.88 2123.45 2223.88C2123.45 2223.88 2109 2230.88 2098.06 2235.26Z" fill="white"/>
<path d="M2098.05 2235.26L2087.55 2232.2C2087.55 2232.2 2102.87 2224.75 2109.44 2220.37L2113.38 2218.19C2113.38 2218.19 2134.39 2227.82 2141.84 2231.32C2149.28 2234.82 2116 2251.02 2116 2251.02C2116 2251.02 2099.37 2235.26 2098.05 2235.26Z" fill="#7E5D6D"/>
<path d="M1621.71 2358.72C1621.71 2358.72 1561.29 2401.19 1566.98 2446.29C1572.68 2491.38 1758.75 2773.77 1758.75 2773.77C1758.75 2773.77 1780.64 2620.54 1755.68 2447.16C1755.68 2447.16 1737.73 2423.08 1704.9 2399C1683.01 2383.68 1654.98 2367.48 1621.71 2358.72Z" fill="#F9F4F1"/>
<path d="M2328.35 2446.29C2330.1 2418.27 2265.3 2372.73 2265.3 2372.73C2239.47 2380.18 2221.08 2392 2207.95 2404.69C2178.62 2432.28 2174.68 2463.36 2174.68 2463.36L2176.43 2471.24C2207.51 2606.53 2198.32 2782.53 2198.32 2782.53C2198.32 2782.53 2326.6 2474.31 2328.35 2446.29Z" fill="#FFFDFC"/>
<path d="M1755.24 2447.16C1755.24 2447.16 1724.59 2414.76 1687.82 2392C1606.38 2341.65 1486.86 2318.44 1485.55 2279.48C1484.67 2235.7 1630.03 2144.19 1726.35 2113.11C1726.35 2113.55 1726.35 2113.98 1726.35 2114.42C1726.35 2114.86 1726.35 2115.3 1726.35 2116.17C1726.35 2117.05 1726.35 2117.93 1726.78 2118.8C1726.78 2120.11 1727.22 2121.43 1727.22 2122.74C1727.22 2123.62 1727.22 2124.05 1727.66 2124.93C1730.72 2151.2 1733.35 2180.53 1735.54 2211.62V2212.06C1735.54 2212.06 1715.4 2218.62 1729.85 2318.88C1733.79 2343.4 1748.67 2386.31 1755.24 2447.16Z" fill="#F4F4F4"/>
<path d="M2174.67 2461.17C2174.67 2461.17 2145.34 2347.34 2130.89 2311C2116.44 2275.1 2089.3 2234.38 2087.98 2232.2C2105.06 2224.31 2120.38 2214.24 2133.96 2202.42C2147.53 2190.6 2158.47 2178.78 2167.67 2166.96C2216.7 2192.79 2357.24 2274.23 2364.25 2314.94C2372.13 2359.16 2201.82 2356.53 2174.67 2461.17Z" fill="#F7F7F7"/>
<path d="M2265.3 2372.73C2239.47 2380.18 2221.08 2392 2207.95 2404.69C2178.62 2432.28 2174.68 2463.36 2174.68 2463.36" stroke="#D5B8AD" stroke-width="13.1345" stroke-miterlimit="10" stroke-linecap="round" stroke-linejoin="round"/>
<path d="M1755.25 2447.16C1755.25 2447.16 1737.29 2423.08 1704.46 2399C1683.01 2383.24 1654.99 2367.48 1621.27 2358.29" stroke="#A78B80" stroke-width="13.1345" stroke-miterlimit="10" stroke-linecap="round" stroke-linejoin="round"/>
<path d="M1965.94 1934.44C1955.54 1934.01 1947.74 1925.34 1948.61 1914.94L1949.04 1902.81C1949.48 1892.41 1958.14 1884.61 1968.54 1885.47C1978.94 1885.91 1986.74 1894.57 1985.88 1904.97L1985.44 1917.11C1985.01 1927.07 1976.34 1934.87 1965.94 1934.44Z" fill="#665858"/>
<path d="M2148.38 1940.94C2138.84 1940.51 2131.48 1932.27 2131.91 1922.74L2132.34 1911.47C2132.78 1901.94 2141.01 1894.57 2150.54 1895.01C2160.08 1895.44 2167.44 1903.67 2167.01 1913.21L2166.58 1924.47C2166.14 1934.01 2157.91 1941.37 2148.38 1940.94Z" fill="#665858"/>
<path d="M2007.98 1909.31C2007.98 1909.31 1996.71 1893.27 1977.21 1890.24C1961.18 1887.64 1943.41 1895.44 1940.81 1904.54" stroke="#665858" stroke-width="13" stroke-miterlimit="10" stroke-linecap="round" stroke-linejoin="round"/>
<path d="M2135.81 1913.21C2135.81 1913.21 2135.81 1899.34 2155.74 1899.34C2172.21 1899.34 2179.14 1914.51 2179.14 1914.51" stroke="#665858" stroke-width="13" stroke-miterlimit="10" stroke-linecap="round" stroke-linejoin="round"/>
<path d="M2025.74 1839.54C2034.84 1842.57 2043.94 1834.34 2042.21 1824.37C2041.34 1819.17 2039.18 1813.97 2034.84 1810.07C2021.84 1798.37 1968.11 1787.97 1935.61 1803.14C1907.01 1817.01 1984.14 1825.67 2025.74 1839.54Z" fill="#665858"/>
<path d="M2155.31 1846.47C2147.95 1849.07 2140.15 1841.27 2141.45 1832.17C2141.88 1827.41 2143.61 1822.64 2147.08 1819.17C2157.48 1808.77 2193.01 1800.54 2215.55 1816.57C2235.05 1830.01 2189.11 1833.91 2155.31 1846.47Z" fill="#665858"/>
<path d="M2094.33 2088.8C2083.5 2093.56 2078.3 2084.03 2061.4 2092.26C2049.26 2097.9 2042.76 2099.63 2028.03 2090.96C2018.5 2084.9 2006.8 2093.56 1995.53 2077.1" stroke="#423232" stroke-width="13" stroke-miterlimit="10" stroke-linecap="round" stroke-linejoin="round"/>
<path d="M2222.3 1889.42C2234 1823.56 2230.54 1797.56 2223.6 1766.79C2221.44 1757.26 2218.84 1748.16 2215.8 1739.06C2192.84 1720.86 2168.57 1709.16 2131.74 1703.96C2032.5 1690.52 1954.07 1699.62 1870.44 1717.82C1818 1729.09 1828.84 1910.22 1808.47 1934.06C1805 1921.92 1788.1 1872.52 1732.64 1879.46C1680.2 1885.96 1660.27 2007.29 1768.6 2048.89C1767.74 2072.72 1745.64 2116.92 1727.87 2126.89C1727.87 2126.89 1724.84 2095.26 1690.17 2053.66C1655.5 2012.06 1586.17 1904.16 1632.97 1746.42C1679.77 1588.69 1891.67 1506.36 2088.84 1586.52C2122.64 1600.39 2150.37 1619.89 2172.47 1640.26C2224.47 1687.92 2252.2 1757.26 2243.97 1827.02C2241.8 1850.42 2235.3 1872.96 2222.3 1889.42Z" fill="#AE704D"/>
<path d="M2154.7 1692.26C2154.7 1692.26 2026.87 1888.12 1788.54 1827.46C1788.54 1827.46 1742.17 1710.89 1843.14 1666.26C1944.54 1622.06 2130.44 1653.26 2154.7 1692.26Z" fill="#AE704D"/>
<path d="M2141.27 1694.86C2141.27 1694.86 2157.74 1740.36 2190.24 1777.19C2211.47 1801.02 2239.2 1820.96 2273.87 1821.82C2273.87 1821.82 2284.7 1703.96 2207.57 1658.02C2130.44 1611.66 2141.27 1694.86 2141.27 1694.86Z" fill="#AE704D"/>
<path d="M1824.5 1619.89C1824.5 1619.89 1684.97 1402.79 1562.34 1560.09C1439.7 1717.39 1573.6 2128.19 1499.07 2251.69C1499.07 2251.69 1584.44 2189.72 1606.97 2068.39C1606.97 2068.39 1609.57 2118.66 1594.4 2188.86C1594.4 2188.86 1684.97 2084.42 1684.97 1959.19C1684.97 1833.96 1775.54 1651.96 1824.5 1619.89Z" fill="#AE704D"/>
<path d="M2230.11 1864.29C2245.71 1930.59 2230.11 2045.42 2230.11 2045.42C2230.11 2045.42 2420.77 1742.52 2266.51 1627.69C2136.51 1530.62 1856.14 1629.42 1856.14 1629.42C1856.14 1629.42 2119.17 1566.16 2170.31 1687.06C2217.11 1796.26 2222.31 1758.56 2237.04 1823.56C2239.21 1830.06 2227.94 1855.19 2230.11 1864.29Z" fill="#AE704D"/>
<path d="M1757.24 2012.09L1764.6 2026.82C1765.9 2029.42 1768.5 2031.16 1771.1 2031.59L1787.57 2034.19C1794.94 2035.06 1797.54 2044.16 1792.34 2049.36L1780.64 2061.06C1778.47 2063.22 1777.6 2065.82 1778.04 2068.86L1780.64 2085.32C1781.94 2092.69 1774.14 2097.89 1767.64 2094.86L1752.9 2087.06C1750.3 2085.76 1747.27 2085.76 1744.67 2087.06L1729.94 2094.86C1723.44 2098.32 1715.64 2092.69 1716.94 2085.32L1719.54 2068.86C1719.97 2065.82 1719.1 2063.22 1716.94 2061.06L1705.24 2049.36C1700.04 2044.16 1703.07 2035.49 1710 2034.19L1726.47 2031.59C1729.5 2031.16 1731.67 2029.42 1732.97 2026.82L1740.34 2012.09C1744.67 2005.16 1754.2 2005.16 1757.24 2012.09Z" fill="#FFDE55"/>
<path d="M2223.07 2060.62C2220.9 2062.79 2220.03 2065.82 2220.47 2068.42L2223.07 2084.89C2224.37 2092.26 2216.57 2097.89 2210.07 2094.42L2201.4 2089.66C2204.43 2068.42 2205.3 2046.76 2205.73 2025.09L2206.6 2026.82C2207.9 2029.42 2210.5 2031.16 2213.1 2031.59L2229.57 2033.76C2236.93 2034.62 2239.97 2043.72 2234.33 2048.92L2223.07 2060.62Z" fill="#FFDE55"/>
</g>
<defs>
<filter id="filter0_d_422_2702" x="2058.72" y="1990.56" width="98.4902" height="53.975" filterUnits="userSpaceOnUse" color-interpolation-filters="sRGB">
<feFlood flood-opacity="0" result="BackgroundImageFix"/>
<feColorMatrix in="SourceAlpha" type="matrix" values="0 0 0 0 0 0 0 0 0 0 0 0 0 0 0 0 0 0 127 0" result="hardAlpha"/>
<feOffset dy="4"/>
<feGaussianBlur stdDeviation="2"/>
<feComposite in2="hardAlpha" operator="out"/>
<feColorMatrix type="matrix" values="0 0 0 0 0 0 0 0 0 0 0 0 0 0 0 0 0 0 0.25 0"/>
<feBlend mode="normal" in2="BackgroundImageFix" result="effect1_dropShadow_422_2702"/>
<feBlend mode="normal" in="SourceGraphic" in2="effect1_dropShadow_422_2702" result="shape"/>
</filter>
</defs>
</svg>
