<svg width="50" height="50" viewBox="0 0 50 50" fill="none" xmlns="http://www.w3.org/2000/svg">
<path d="M41.129 5.40541H37.0968V2.02703C37.0968 1.48943 36.8419 0.973844 36.3882 0.593702C35.9344 0.213561 35.3191 0 34.6774 0C34.0358 0 33.4204 0.213561 32.9667 0.593702C32.513 0.973844 32.2581 1.48943 32.2581 2.02703V5.40541H17.7419V2.02703C17.7419 1.48943 17.487 0.973844 17.0333 0.593702C16.5796 0.213561 15.9642 0 15.3226 0C14.6809 0 14.0656 0.213561 13.6118 0.593702C13.1581 0.973844 12.9032 1.48943 12.9032 2.02703V5.40541H8.87097C6.51824 5.40541 4.26187 6.18846 2.59825 7.58231C0.934617 8.97617 0 10.8666 0 12.8378V42.5676C0 44.5388 0.934617 46.4292 2.59825 47.8231C4.26187 49.2169 6.51824 50 8.87097 50H41.129C43.4818 50 45.7381 49.2169 47.4018 47.8231C49.0654 46.4292 50 44.5388 50 42.5676V12.8378C50 10.8666 49.0654 8.97617 47.4018 7.58231C45.7381 6.18846 43.4818 5.40541 41.129 5.40541ZM8.87097 9.45946H12.9032V12.8378C12.9032 13.3754 13.1581 13.891 13.6118 14.2712C14.0656 14.6513 14.6809 14.8649 15.3226 14.8649C15.9642 14.8649 16.5796 14.6513 17.0333 14.2712C17.487 13.891 17.7419 13.3754 17.7419 12.8378V9.45946H32.2581V12.8378C32.2581 13.3754 32.513 13.891 32.9667 14.2712C33.4204 14.6513 34.0358 14.8649 34.6774 14.8649C35.3191 14.8649 35.9344 14.6513 36.3882 14.2712C36.8419 13.891 37.0968 13.3754 37.0968 12.8378V9.45946H41.129C42.1985 9.45946 43.2241 9.8154 43.9803 10.449C44.7365 11.0825 45.1613 11.9418 45.1613 12.8378V20.2703H4.83871V12.8378C4.83871 11.9418 5.26354 11.0825 6.01973 10.449C6.77593 9.8154 7.80155 9.45946 8.87097 9.45946ZM41.129 45.9459H8.87097C7.80155 45.9459 6.77593 45.59 6.01973 44.9564C5.26354 44.3229 4.83871 43.4636 4.83871 42.5676V24.3243H45.1613V42.5676C45.1613 43.4636 44.7365 44.3229 43.9803 44.9564C43.2241 45.59 42.1985 45.9459 41.129 45.9459Z" fill="#1A9D9D"/>
</svg>
